<?xml version="1.0" encoding="utf-8"?>
<!-- Generator: Adobe Illustrator 17.0.0, SVG Export Plug-In . SVG Version: 6.00 Build 0)  -->
<!DOCTYPE svg PUBLIC "-//W3C//DTD SVG 1.1//EN" "http://www.w3.org/Graphics/SVG/1.1/DTD/svg11.dtd">
<svg version="1.1" id="Layer_1" xmlns="http://www.w3.org/2000/svg" xmlns:xlink="http://www.w3.org/1999/xlink" x="0px" y="0px"
	 width="174.25px" height="116.5px" viewBox="-105 -24 174.25 116.5" enable-background="new -105 -24 174.25 116.5"
	 xml:space="preserve">
<g>
	<rect x="-79.292" y="54.584" width="63.333" height="10"/>
</g>
<g>
	<rect x="-79.292" y="29.25" width="63.333" height="10"/>
</g>
<g>
	<rect x="-79.292" y="2.583" width="63.333" height="10"/>
</g>
<path d="M59.403-24H-95.153c-5.43,0-9.847,4.417-9.847,9.847v3.903V-9v1.129v80.727V75v7.653c0,5.43,4.417,9.847,9.847,9.847H59.403
	c5.43,0,9.847-4.417,9.847-9.847v-96.807C69.25-19.583,64.833-24,59.403-24z M60.25,82.653c0,0.467-0.38,0.847-0.847,0.847H-95.153
	C-95.62,83.5-96,83.12-96,82.653V75v-9.253V-0.767V-9v-1.25v-3.903C-96-14.62-95.62-15-95.153-15H59.403
	c0.467,0,0.847,0.38,0.847,0.847V82.653z"/>
<g>
	<path d="M42.114,47.491H21.356v0.386c0,3.189,1.091,5.95,3.274,8.285s5.214,3.502,9.095,3.502c1.875,0,3.71-0.137,5.505-0.411
		c1.794-0.276,3.516-0.687,5.165-1.237l1.018,11.051c-1.842,0.487-3.751,0.86-5.723,1.12c-1.973,0.26-3.961,0.391-5.966,0.391
		c-7.923,0-14.325-2.223-19.207-6.67c-4.883-4.446-7.324-9.789-7.324-16.029v-0.388H0.112V37.79h7.081v-5.626H0.112v-9.7h7.081
		v-0.63c0-6.564,2.432-12.19,7.299-16.879c4.866-4.688,11.244-7.032,19.134-7.032c1.94,0,3.839,0.129,5.699,0.388
		c1.859,0.259,3.887,0.631,6.086,1.116l-1.018,11.107c-1.714-0.518-3.484-0.929-5.311-1.237c-1.827-0.306-3.646-0.461-5.456-0.461
		c-3.816,0-6.815,1.302-8.998,3.905c-2.183,2.603-3.274,5.602-3.274,8.997v0.728h20.759v9.7H21.356v5.626h20.759V47.491z"/>
</g>
</svg>
