<?xml version="1.0" encoding="utf-8"?>
<!-- Generator: Adobe Illustrator 17.0.0, SVG Export Plug-In . SVG Version: 6.00 Build 0)  -->
<!DOCTYPE svg PUBLIC "-//W3C//DTD SVG 1.1//EN" "http://www.w3.org/Graphics/SVG/1.1/DTD/svg11.dtd">
<svg version="1.1" id="Your_Icon" xmlns="http://www.w3.org/2000/svg" xmlns:xlink="http://www.w3.org/1999/xlink" x="0px" y="0px"
	 width="765.041px" height="489.565px" viewBox="-73.088 -2.662 765.041 489.565"
	 enable-background="new -73.088 -2.662 765.041 489.565" xml:space="preserve">
<g>
	<g>
		<g>
			<path d="M526.155,412.249c-87.286,0-158.298-71.012-158.298-158.298S438.869,95.654,526.155,95.654
				s158.298,71.012,158.298,158.298S613.441,412.249,526.155,412.249z M526.155,136.07c-65,0-117.881,52.882-117.881,117.881
				s52.881,117.881,117.881,117.881s117.881-52.882,117.881-117.881S591.155,136.07,526.155,136.07z"/>
		</g>
		<g>
			<g>
				
					<rect x="530.747" y="177.348" transform="matrix(0.7071 0.7071 -0.7071 0.7071 322.3065 -320.111)" width="33.649" height="103.33"/>
			</g>
			<g>
				
					<rect x="501.153" y="248.797" transform="matrix(0.7071 0.7071 -0.7071 0.7071 344.4822 -300.4345)" width="67.509" height="33.648"/>
			</g>
		</g>
	</g>
	<g>
		<g>
			<g>
				<rect x="51.732" y="233.743" width="261.584" height="40.416"/>
			</g>
			<g>
				<rect x="51.732" y="336.516" width="261.584" height="40.416"/>
			</g>
		</g>
	</g>
	<g>
		<g>
			<rect x="90.464" y="3.508" width="40.416" height="87.738"/>
		</g>
		<g>
			<rect x="234.167" y="3.508" width="40.416" height="87.738"/>
		</g>
	</g>
	<path d="M390.22,386.252v10.624c0,23.953-19.487,43.44-43.44,43.44H18.268c-23.952,0-43.439-19.487-43.439-43.44V172.632h379.879
		c6.936-14.597,15.683-28.161,25.947-40.416H-25.171v-21.191c0-23.951,19.487-43.438,43.439-43.438H346.78
		c23.953,0,43.44,19.487,43.44,43.438v10.624c11.321-11.63,24.096-21.831,38.071-30.262c-8.865-36.792-42.036-64.217-81.512-64.217
		H18.268c-46.238,0-83.856,37.616-83.856,83.854v285.851c0,46.238,37.617,83.857,83.856,83.857H346.78
		c39.476,0,72.646-27.426,81.512-64.219C414.316,408.083,401.54,397.881,390.22,386.252z"/>
</g>
</svg>
