<?xml version="1.0" encoding="utf-8"?>
<!-- Generator: Adobe Illustrator 17.0.0, SVG Export Plug-In . SVG Version: 6.00 Build 0)  -->
<!DOCTYPE svg PUBLIC "-//W3C//DTD SVG 1.1//EN" "http://www.w3.org/Graphics/SVG/1.1/DTD/svg11.dtd">
<svg version="1.1" id="Layer_1" xmlns="http://www.w3.org/2000/svg" xmlns:xlink="http://www.w3.org/1999/xlink" x="0px" y="0px"
	 width="252.006px" height="252.006px" viewBox="-74.707 -91.558 252.006 252.006"
	 enable-background="new -74.707 -91.558 252.006 252.006" xml:space="preserve">
<path d="M51.296-91.558c-69.48,0-126.003,56.528-126.003,126.003c0,69.48,56.523,126.003,126.003,126.003
	s126.003-56.523,126.003-126.003S120.776-91.558,51.296-91.558z M51.296,145.01c-60.969,0-110.565-49.612-110.565-110.57
	c0-60.969,49.601-110.56,110.565-110.56c60.969,0,110.565,49.596,110.565,110.565S112.265,145.01,51.296,145.01z M89.999-4.258
	c-3.021-3.015-7.904-3.015-10.92,0L51.296,23.53L23.513-4.253c-3.015-3.015-7.899-3.015-10.914,0c-3.01,3.01-3.015,7.904,0,10.92
	l27.783,27.778L12.594,62.232c-3.01,3.01-3.015,7.899,0,10.914c3.01,3.016,7.904,3.01,10.914,0l27.788-27.788l27.778,27.783
	c3.016,3.01,7.904,3.01,10.914,0c3.021-3.021,3.015-7.904,0-10.92L62.211,34.444L89.999,6.662
	C93.014,3.646,93.009-1.242,89.999-4.258z"/>
</svg>
