<?xml version="1.0" encoding="utf-8"?>
<!-- Generator: Adobe Illustrator 17.0.0, SVG Export Plug-In . SVG Version: 6.00 Build 0)  -->
<!DOCTYPE svg PUBLIC "-//W3C//DTD SVG 1.1//EN" "http://www.w3.org/Graphics/SVG/1.1/DTD/svg11.dtd">
<svg version="1.1" id="Layer_1" xmlns="http://www.w3.org/2000/svg" xmlns:xlink="http://www.w3.org/1999/xlink" x="0px" y="0px"
	 width="232.115px" height="232.115px" viewBox="-119.779 -174.085 232.115 232.115"
	 enable-background="new -119.779 -174.085 232.115 232.115" xml:space="preserve">
<g>
	<path d="M107.89-73.235c-10.568-16.755-18.043-33.509-22.168-52.068c-2.578-11.084-11.084-19.59-22.168-22.168
		c-18.817-4.124-35.313-11.342-52.068-22.168c-9.279-5.929-21.137-5.929-30.416,0c-16.755,10.568-33.509,18.043-52.068,22.168
		c-11.084,2.578-19.59,11.084-22.168,22.168c-4.124,18.559-11.342,35.313-22.168,52.068c-5.929,9.279-5.929,21.137,0,30.416
		C-104.765-26.064-97.289-9.31-93.165,9.249c2.578,11.084,11.084,19.59,22.168,22.168c18.817,4.124,35.313,11.342,52.068,22.168
		c9.279,5.929,21.137,5.929,30.416,0c16.755-10.568,33.509-18.043,52.068-22.168c11.084-2.578,19.59-11.084,22.168-22.168
		c4.124-18.817,11.342-35.313,22.168-52.068C113.818-52.098,113.818-63.956,107.89-73.235z M-3.722,37.861
		c-52.841,0-95.888-43.046-95.888-95.888s43.046-95.888,95.888-95.888s95.888,42.789,95.888,95.888
		C92.166-5.186,49.12,37.861-3.722,37.861z"/>
</g>
<g>
	<path d="M-72.664-80.686c0.037-7.135,6.017-12.936,13.225-12.972c3.17,0,6.053,1.044,8.322,2.811
		c0.866,0.72,1.009,1.982,0.361,2.883c-0.72,0.901-2.054,1.044-2.883,0.396c-1.586-1.297-3.568-1.982-5.8-1.982
		c-2.486,0-4.793,1.009-6.487,2.595c-1.621,1.658-2.63,3.818-2.63,6.27c0,2.45,1.009,4.684,2.63,6.268
		c1.694,1.586,4,2.595,6.487,2.595c2.233,0,4.179-0.685,5.8-1.982c0.829-0.613,2.162-0.468,2.883,0.396
		c0.648,0.901,0.505,2.197-0.361,2.883c-2.269,1.766-5.152,2.811-8.322,2.811C-66.647-67.716-72.628-73.517-72.664-80.686z"/>
	<path d="M-31.452-73.661h-8.755l-1.766,4.684c-0.324,0.794-1.081,1.262-1.873,1.262
		c-0.252,0-0.469-0.037-0.685-0.109c-1.044-0.396-1.549-1.549-1.188-2.594l7.963-21.224c0.324-0.792,1.116-1.297,1.91-1.26
		c0.829-0.037,1.584,0.468,1.908,1.26l7.964,21.224c0.359,1.044-0.144,2.197-1.19,2.594c-0.18,0.072-0.431,0.109-0.684,0.109
		c-0.794,0-1.551-0.468-1.838-1.262L-31.452-73.661z M-32.93-77.625l-2.918-7.747l-2.919,7.747H-32.93z"/>
	<path d="M-4.364-70.707c0.361,1.046-0.216,2.162-1.262,2.523c-0.144,0.035-0.433,0.107-0.792,0.107c0,0,0,0-0.037,0
		c-0.359,0-0.901-0.072-1.405-0.396c-0.468-0.287-0.864-0.757-1.153-1.262c-0.505-1.044-0.755-2.341-0.755-4.323
		c-0.037-0.685-0.18-1.153-0.433-1.549c-0.217-0.396-0.648-0.757-1.081-1.046c-0.757-0.503-1.694-0.792-2.019-0.864h-4.251v7.819
		c0,1.081-0.901,1.982-2.017,1.982c-1.118,0-1.982-0.901-1.982-1.982v-21.259c0-1.116,0.864-1.982,1.982-1.982c0,0,0,0,0.035,0
		h6.413c4.288,0,7.712,3.459,7.712,7.747c0,2.378-1.081,4.468-2.811,5.909c0.468,0.361,0.901,0.794,1.26,1.333
		c0.722,1.046,1.19,2.378,1.19,3.892c-0.037,1.081,0.072,1.766,0.144,2.126C-5.049-71.751-4.58-71.318-4.364-70.707z M-9.409-85.191
		c0-2.089-1.658-3.747-3.711-3.747h-4.432v7.423h4.432C-11.066-81.515-9.409-83.173-9.409-85.191z"/>
	<path d="M5.429-69.697c0,1.081-0.901,1.982-1.945,1.982c-1.116,0-1.982-0.901-1.982-1.982v-20.935c0,0,0,0,0-0.035
		c-0.037-0.613,0.252-1.262,0.792-1.658c0.902-0.613,2.127-0.433,2.739,0.433l11.639,16.106v-14.846
		c0-1.044,0.864-1.945,1.945-1.945c1.081,0,1.982,0.901,1.982,1.945v20.935c0,1.081-0.901,1.982-1.982,1.982
		c-0.577,0-1.116-0.287-1.477-0.72c-0.072-0.072-0.144-0.145-0.18-0.217L5.429-84.65V-69.697z"/>
	<path d="M26.899-69.697v-21.259c0-1.116,0.864-1.982,1.98-1.982h0.037c0,0,0,0,0.072,0h11.674
		c1.046,0,1.982,0.866,1.982,1.982c0,1.118-0.936,2.019-1.982,2.019h-9.764v6.594h8.395c1.081,0,1.982,0.936,1.982,1.982
		c0,1.116-0.901,2.017-1.982,2.017h-8.395v6.631h9.764c1.046,0,1.982,0.901,1.982,2.017c0,1.081-0.936,1.982-1.982,1.982H28.988
		c-0.072,0-0.072-0.037-0.072-0.037l-0.037,0.037C27.763-67.716,26.899-68.616,26.899-69.697z"/>
	<path d="M63.678-88.938H57.95v19.24c0,1.116-0.866,1.982-1.982,1.982c-1.081,0-1.982-0.866-1.982-1.982v-19.24
		h-5.693c-1.116,0-1.982-0.937-1.982-2.019c0-1.116,0.866-1.982,1.982-1.982h15.385c1.081,0,1.982,0.866,1.982,1.982
		C65.66-89.875,64.759-88.938,63.678-88.938z"/>
	<path d="M-58.724-30.761c0.648-0.792,1.838-0.901,2.63-0.252c1.586,1.297,4.325,2.811,6.883,2.776
		c1.801,0,3.422-0.541,4.504-1.333c1.081-0.794,1.549-1.694,1.549-2.595c0-0.468-0.109-0.792-0.324-1.153
		c-0.216-0.359-0.54-0.72-1.081-1.081c-1.044-0.684-2.811-1.297-4.936-1.693h-0.072c-1.693-0.324-3.279-0.757-4.649-1.405
		c-1.369-0.648-2.558-1.549-3.35-2.811c-0.54-0.864-0.829-1.873-0.829-2.954c0-2.162,1.225-4.036,2.883-5.26
		c1.694-1.225,3.892-1.91,6.235-1.91c3.459,0,6.016,1.693,7.854,2.883c0.829,0.577,1.081,1.73,0.505,2.558
		c-0.54,0.864-1.693,1.116-2.558,0.54c-1.838-1.225-3.603-2.306-5.8-2.306c-1.622,0-3.063,0.505-4.037,1.226
		c-0.973,0.72-1.369,1.512-1.369,2.269c0,0.433,0.072,0.72,0.252,1.009c0.18,0.287,0.505,0.612,0.973,0.936
		c0.937,0.648,2.558,1.225,4.505,1.586h0.072c1.837,0.361,3.531,0.829,4.971,1.514c1.477,0.72,2.776,1.658,3.604,2.99
		c0.54,0.866,0.864,1.947,0.864,3.063c0,2.306-1.297,4.288-3.098,5.585c-1.766,1.298-4.107,2.054-6.666,2.054
		c-3.892-0.035-7.17-1.982-9.224-3.603C-59.229-28.779-59.336-29.969-58.724-30.761z"/>
	<path d="M-12.215-47.732v21.259c0,1.081-0.936,1.982-2.017,1.982c-1.118,0-1.982-0.901-1.982-1.982v-15.17
		l-5.189,7.207c-0.398,0.54-0.973,0.829-1.622,0.829h-0.035h-0.037c-0.648,0-1.26-0.289-1.658-0.829l-5.152-7.207v15.17
		c0,1.081-0.901,1.982-2.019,1.982c-1.08,0-1.98-0.901-1.98-1.982v-21.259c0-1.081,0.901-1.982,1.98-1.982c0.037,0,0.037,0,0.109,0
		c0.577,0,1.225,0.289,1.586,0.829l7.17,9.944l7.17-9.944c0.396-0.54,0.973-0.829,1.621-0.829c0,0,0,0,0.037,0
		C-13.151-49.677-12.215-48.813-12.215-47.732z"/>
	<path d="M7.018-30.437h-8.755l-1.766,4.684c-0.324,0.794-1.081,1.262-1.873,1.262c-0.252,0-0.468-0.037-0.685-0.109
		c-1.044-0.396-1.549-1.549-1.188-2.594l7.963-21.224c0.324-0.792,1.116-1.297,1.91-1.26c0.829-0.037,1.584,0.468,1.91,1.26
		l7.963,21.224c0.359,1.044-0.144,2.197-1.19,2.594c-0.18,0.072-0.433,0.109-0.684,0.109c-0.794,0-1.551-0.468-1.838-1.262
		L7.018-30.437z M5.541-34.4l-2.918-7.747L-0.296-34.4H5.541z"/>
	<path d="M17.424-26.473v-21.259c0-1.081,0.866-1.982,1.982-1.982c1.118,0,2.019,0.901,2.019,1.982v19.242h9.764
		c1.046,0,1.982,0.901,1.982,2.017c0,1.081-0.936,1.982-1.982,1.982H19.515c-0.072,0-0.072,0-0.072,0c-0.037,0-0.037,0-0.037,0
		C18.29-24.491,17.424-25.392,17.424-26.473z"/>
	<path d="M37.705-26.473v-21.259c0-1.081,0.864-1.982,1.98-1.982c1.118,0,2.019,0.901,2.019,1.982v19.242h9.764
		c1.046,0,1.982,0.901,1.982,2.017c0,1.081-0.936,1.982-1.982,1.982H39.793c-0.072,0-0.072,0-0.072,0c-0.037,0-0.037,0-0.037,0
		C38.569-24.491,37.705-25.392,37.705-26.473z"/>
</g>
</svg>
