<?xml version="1.0" encoding="utf-8"?>
<!-- Generator: Adobe Illustrator 19.1.0, SVG Export Plug-In . SVG Version: 6.00 Build 0)  -->
<svg version="1.1" id="Layer_1" xmlns="http://www.w3.org/2000/svg" xmlns:xlink="http://www.w3.org/1999/xlink" x="0px" y="0px"
	 viewBox="-423.8 8.1 232.1 232.1" style="enable-background:new -423.8 8.1 232.1 232.1;" xml:space="preserve">
<g>
	<path d="M-353,69.3c-1.3,1.3-1.9,2.9-1.9,4.7c0,1.8,0.7,3.3,2,4.6c1.3,1.3,2.8,1.9,4.6,1.9c1.7,0,3.2-0.5,4.4-1.5
		c0.3-0.2,0.7-0.3,1.1-0.3c0.4,0.1,0.8,0.2,1,0.6c0.2,0.3,0.3,0.7,0.3,1.1c-0.1,0.4-0.2,0.7-0.6,1c-1.8,1.4-3.8,2.1-6.1,2.1
		c-2.7,0-4.9-0.9-6.8-2.8c-1.9-1.9-2.9-4.1-2.9-6.8c0-2.6,1-4.9,2.9-6.7c1.9-1.9,4.2-2.8,6.8-2.8c2.3,0,4.4,0.7,6.1,2.1
		c0.3,0.3,0.5,0.6,0.6,1c0.1,0.4,0,0.8-0.3,1.1c-0.3,0.3-0.6,0.5-1,0.6c-0.4,0.1-0.8,0-1.1-0.3c-1.2-1-2.6-1.5-4.4-1.5
		S-351.7,68-353,69.3z"/>
	<path d="M-326.5,82.5l-1.3-3.4h-6.4l-1.3,3.4c-0.2,0.6-0.7,0.9-1.3,0.9s-1-0.2-1.3-0.6c-0.3-0.4-0.3-0.9-0.2-1.3l5.9-15.6
		c0.1-0.3,0.3-0.5,0.6-0.7c0.3-0.2,0.5-0.3,0.8-0.2c0.7,0,1.1,0.3,1.4,0.9l5.9,15.6c0.2,0.5,0.1,0.9-0.2,1.3
		c-0.3,0.4-0.7,0.6-1.3,0.6S-326.2,83.1-326.5,82.5z M-333.1,76.1h4.3l-2.1-5.7L-333.1,76.1z"/>
	<path d="M-311.2,74.9c1.2,0.9,1.8,2.2,1.8,3.8c0,0.6,0,1.1,0.1,1.6c0.5,0.1,0.8,0.4,0.9,0.9s0.1,0.9-0.2,1.3
		c-0.3,0.4-0.7,0.6-1.3,0.6h0c-0.8,0-1.4-0.4-1.9-1.2c-0.4-0.8-0.6-1.8-0.6-3.2c0-0.8-0.4-1.5-1.1-1.9c-0.5-0.3-1-0.5-1.5-0.6h-3.1
		V82c0,0.4-0.1,0.8-0.4,1c-0.3,0.3-0.6,0.4-1,0.4s-0.8-0.1-1-0.4c-0.3-0.3-0.4-0.6-0.4-1V66.3c0-0.4,0.1-0.8,0.4-1
		c0.3-0.3,0.6-0.4,1-0.4h4.7c1.6,0,2.9,0.6,4,1.7c1.1,1.1,1.7,2.5,1.7,4.2S-309.8,73.8-311.2,74.9z M-314.8,73.3
		c0.8,0,1.4-0.3,1.9-0.8c0.5-0.5,0.8-1.2,0.8-1.9s-0.3-1.4-0.8-1.9s-1.2-0.8-1.9-0.8h-3.3v5.5H-314.8z"/>
	<path d="M-301.6,71v11c0,0.4-0.1,0.7-0.4,1c-0.3,0.3-0.6,0.4-1,0.4s-0.7-0.1-1-0.4c-0.3-0.3-0.4-0.6-0.4-1V66.5
		c0-0.5,0.1-0.9,0.5-1.2c0.4-0.3,0.8-0.4,1.2-0.3c0.4,0.1,0.7,0.3,0.9,0.6l8.6,11.9V66.6c0-0.4,0.1-0.7,0.4-1c0.3-0.3,0.6-0.4,1-0.4
		s0.7,0.1,1,0.4c0.3,0.3,0.4,0.6,0.4,1V82c0,0.4-0.1,0.8-0.4,1c-0.3,0.3-0.6,0.4-1,0.4c-0.4,0-0.8-0.2-1.1-0.5
		c-0.1-0.1-0.1-0.1-0.1-0.2L-301.6,71z"/>
	<path d="M-283.2,83.4c-0.4,0-0.8-0.1-1-0.4c-0.3-0.3-0.4-0.6-0.4-1V66.3c0-0.4,0.1-0.8,0.4-1c0.3-0.3,0.6-0.4,1-0.4h8.7
		c0.4,0,0.7,0.1,1,0.4c0.3,0.3,0.4,0.6,0.4,1c0,0.4-0.1,0.8-0.4,1c-0.3,0.3-0.6,0.4-1,0.4h-7.2v4.9h6.2c0.4,0,0.7,0.1,1,0.4
		c0.3,0.3,0.4,0.6,0.4,1s-0.1,0.7-0.4,1c-0.3,0.3-0.6,0.4-1,0.4h-6.2v4.9h7.2c0.4,0,0.7,0.1,1,0.4c0.3,0.3,0.4,0.6,0.4,1
		s-0.1,0.7-0.4,1c-0.3,0.3-0.6,0.4-1,0.4H-283.2L-283.2,83.4L-283.2,83.4z"/>
	<path d="M-257,65.3c0.3,0.3,0.4,0.6,0.4,1c0,0.4-0.1,0.8-0.4,1s-0.6,0.4-1,0.4h-4.2V82c0,0.4-0.1,0.8-0.4,1c-0.3,0.3-0.6,0.4-1,0.4
		c-0.4,0-0.8-0.1-1-0.4c-0.3-0.3-0.4-0.6-0.4-1V67.8h-4.2c-0.4,0-0.8-0.1-1-0.4c-0.3-0.3-0.4-0.6-0.4-1c0-0.4,0.1-0.8,0.4-1
		c0.3-0.3,0.6-0.4,1-0.4h11.3C-257.7,64.9-257.3,65-257,65.3z"/>
	<path d="M-359,112c0,0.2,0,0.4-0.1,0.6v0c-0.1,0.2-0.3,0.5-0.5,0.6c-1.8,1.4-3.8,2.1-6,2.1c-2.7,0-5-0.9-6.9-2.8
		c-1.9-1.8-2.9-4.1-2.9-6.8s1-4.9,2.9-6.8c1.9-1.9,4.2-2.8,6.9-2.8c2.3,0,4.3,0.7,6,2.1c0.3,0.2,0.5,0.6,0.6,1
		c0.1,0.4,0,0.8-0.3,1.1c-0.2,0.3-0.6,0.5-1,0.6c-0.4,0.1-0.8-0.1-1.1-0.3c-1.2-1-2.7-1.4-4.4-1.4c-1.7,0-3.2,0.6-4.6,1.9
		c-1.3,1.3-2,2.8-2,4.6c0,1.8,0.7,3.3,2,4.6c1.3,1.3,2.9,1.9,4.8,1.9c1.3,0,2.5-0.3,3.6-1v-3.6h-3.8c-0.4,0-0.8-0.2-1.1-0.5
		c-0.3-0.3-0.5-0.7-0.5-1.1c0-0.4,0.1-0.8,0.4-1c0.3-0.3,0.6-0.4,1.1-0.4h5.3c0.4,0,0.8,0.1,1.1,0.4c0.3,0.3,0.5,0.6,0.5,1.1V112z"
		/>
	<path d="M-353.4,98.2c0-0.4,0.1-0.8,0.4-1c0.3-0.3,0.6-0.4,1-0.4c0.4,0,0.8,0.1,1,0.4c0.3,0.3,0.4,0.6,0.4,1v15.7
		c0,0.4-0.1,0.8-0.4,1c-0.3,0.3-0.6,0.4-1,0.4c-0.4,0-0.8-0.1-1-0.4c-0.3-0.3-0.4-0.6-0.4-1V98.2z"/>
	<path d="M-343.5,114.9c-0.3,0.3-0.6,0.4-1,0.4c-0.4,0-0.8-0.1-1-0.4c-0.3-0.3-0.4-0.6-0.4-1V98.2c0-0.4,0.1-0.8,0.4-1
		c0.3-0.3,0.6-0.4,1-0.4h8.7c0.4,0,0.7,0.1,1,0.4c0.3,0.3,0.4,0.6,0.4,1c0,0.4-0.1,0.7-0.4,1c-0.3,0.3-0.6,0.4-1,0.4h-7.2v4.9h6.2
		c0.4,0,0.7,0.1,1,0.4c0.3,0.3,0.4,0.6,0.4,1s-0.1,0.7-0.4,1c-0.3,0.3-0.6,0.4-1,0.4h-6.2v6.4C-343.1,114.2-343.2,114.6-343.5,114.9
		z"/>
	<path d="M-318.1,97.1c0.3,0.3,0.4,0.6,0.4,1c0,0.4-0.1,0.8-0.4,1s-0.6,0.4-1,0.4h-4.2v14.2c0,0.4-0.1,0.8-0.4,1
		c-0.3,0.3-0.6,0.4-1,0.4c-0.4,0-0.8-0.1-1-0.4c-0.3-0.3-0.4-0.6-0.4-1V99.7h-4.2c-0.4,0-0.8-0.1-1-0.4c-0.3-0.3-0.4-0.6-0.4-1
		c0-0.4,0.1-0.8,0.4-1c0.3-0.3,0.6-0.4,1-0.4h11.3C-318.7,96.7-318.4,96.8-318.1,97.1z"/>
	<path d="M-302.3,101.1c-1.3,1.3-1.9,2.9-1.9,4.7c0,1.8,0.7,3.3,2,4.6c1.3,1.3,2.8,1.9,4.6,1.9c1.7,0,3.2-0.5,4.4-1.5
		c0.3-0.2,0.7-0.3,1.1-0.3c0.4,0.1,0.8,0.2,1,0.6c0.2,0.3,0.3,0.7,0.3,1.1c-0.1,0.4-0.2,0.7-0.6,1c-1.8,1.4-3.8,2.1-6.1,2.1
		c-2.7,0-4.9-0.9-6.8-2.8c-1.9-1.9-2.9-4.1-2.9-6.8c0-2.6,1-4.9,2.9-6.7c1.9-1.9,4.2-2.8,6.8-2.8c2.3,0,4.4,0.7,6.1,2.1
		c0.3,0.3,0.5,0.6,0.6,1c0.1,0.4,0,0.8-0.3,1.1c-0.3,0.3-0.6,0.5-1,0.6c-0.4,0.1-0.8,0-1.1-0.3c-1.2-1-2.6-1.5-4.4-1.5
		S-300.9,99.8-302.3,101.1z"/>
	<path d="M-275.7,114.4l-1.3-3.4h-6.4l-1.3,3.4c-0.2,0.6-0.7,0.9-1.3,0.9s-1-0.2-1.3-0.6c-0.3-0.4-0.3-0.9-0.2-1.3l5.9-15.6
		c0.1-0.3,0.3-0.5,0.6-0.7c0.3-0.2,0.5-0.3,0.8-0.2c0.7,0,1.1,0.3,1.4,0.9l5.9,15.6c0.2,0.5,0.1,0.9-0.2,1.3
		c-0.3,0.4-0.7,0.6-1.3,0.6S-275.5,115-275.7,114.4z M-282.4,108h4.3l-2.1-5.7L-282.4,108z"/>
	<path d="M-260.4,106.8c1.2,0.9,1.8,2.2,1.8,3.8c0,0.6,0,1.1,0.1,1.6c0.5,0.1,0.8,0.4,0.9,0.9s0.1,0.9-0.2,1.3
		c-0.3,0.4-0.7,0.6-1.3,0.6h0c-0.8,0-1.4-0.4-1.9-1.2c-0.4-0.8-0.6-1.8-0.6-3.2c0-0.8-0.4-1.5-1.1-1.9c-0.5-0.3-1-0.5-1.5-0.6h-3.1
		v5.8c0,0.4-0.1,0.8-0.4,1c-0.3,0.3-0.6,0.4-1,0.4s-0.8-0.1-1-0.4c-0.3-0.3-0.4-0.6-0.4-1V98.2c0-0.4,0.1-0.8,0.4-1
		c0.3-0.3,0.6-0.4,1-0.4h4.7c1.6,0,2.9,0.6,4,1.7c1.1,1.1,1.7,2.5,1.7,4.2S-259,105.6-260.4,106.8z M-264,105.1
		c0.8,0,1.4-0.3,1.9-0.8c0.5-0.5,0.8-1.2,0.8-1.9s-0.3-1.4-0.8-1.9s-1.2-0.8-1.9-0.8h-3.3v5.5H-264z"/>
	<path d="M-253.8,113.8V98.2c0-0.4,0.1-0.8,0.4-1c0.3-0.3,0.6-0.4,1-0.4h3.1c2.6,0,4.7,0.9,6.6,2.7c1.8,1.8,2.7,4,2.7,6.6
		c0,2.6-0.9,4.8-2.7,6.6c-1.8,1.8-4,2.7-6.6,2.7h-3.1c-0.4,0-0.8-0.1-1-0.4C-253.7,114.6-253.8,114.2-253.8,113.8z M-250.9,99.7
		v12.7h1.6c1.8,0,3.2-0.6,4.5-1.9c1.2-1.2,1.8-2.7,1.8-4.5c0-1.8-0.6-3.2-1.8-4.5c-1.2-1.2-2.7-1.9-4.5-1.9H-250.9z"/>
</g>
<path d="M-196.1,108.9c-10.6-16.8-18-33.5-22.2-52.1c-2.6-11.1-11.1-19.6-22.2-22.2c-18.8-4.1-35.3-11.3-52.1-22.2
	c-9.3-5.9-21.1-5.9-30.4,0c-16.8,10.6-33.5,18-52.1,22.2c-11.1,2.6-19.6,11.1-22.2,22.2c-4.1,18.6-11.3,35.3-22.2,52.1
	c-5.9,9.3-5.9,21.1,0,30.4c10.6,16.8,18,33.5,22.2,52.1c2.6,11.1,11.1,19.6,22.2,22.2c18.8,4.1,35.3,11.3,52.1,22.2
	c9.3,5.9,21.1,5.9,30.4,0c16.8-10.6,33.5-18,52.1-22.2c11.1-2.6,19.6-11.1,22.2-22.2c4.1-18.8,11.3-35.3,22.2-52.1
	C-190.2,130.1-190.2,118.2-196.1,108.9z M-307.7,220c-39.1,0-72.9-23.6-87.7-57.3h56.5v0.2c0,7,8.5,8,16.6,7.4l-10.1,21.7
	c-0.4,0.9,0,1.4,1,1.1l4.8-1.7c1-0.4,2,0.2,2.4,1.1l1.7,4.8c0.4,1,1,1,1.4,0.1l13.2-28.4l10.4,28.5c0.4,1,1,1,1.4,0.1l2.1-4.6
	c0.4-0.9,1.6-1.3,2.5-0.9l4.6,2.1c0.9,0.4,1.4,0,1.1-1l-8.4-23c8.4,0.8,17.6,0,17.6-7.3v-0.2h56.5C-234.9,196.4-268.6,220-307.7,220
	z M-301.7,148.5c0,0,16.3-12.7,20.1-5.8C-277.9,149.4-301.7,148.5-301.7,148.5z M-301.5,159.8c0,3.4-2.8,6.2-6.2,6.2
	c-3.4,0-6.2-2.8-6.2-6.2c0-3.4,2.8-6.2,6.2-6.2C-304.3,153.5-301.5,156.3-301.5,159.8z M-333.9,142.7c3.8-6.9,20.1,5.8,20.1,5.8
	S-337.5,149.4-333.9,142.7z M-217.6,156.8h-59v-14.4c0,0.4,0,0.7-0.1,1c0-0.3,0-0.7,0-1c0-4.3-9.2-14-31.1,4.8
	c-21.9-18.9-31.1-9.1-31.1-4.8c0,0.4,0,0.7,0,1c0-0.3-0.1-0.7-0.1-1v14.4h-59c-3.7-10.2-5.7-21.2-5.7-32.6c0-52.8,43-95.9,95.9-95.9
	s95.9,42.8,95.9,95.9C-211.8,135.6-213.9,146.6-217.6,156.8z"/>
</svg>
