<?xml version="1.0" encoding="utf-8"?>
<!-- Generator: Adobe Illustrator 17.0.0, SVG Export Plug-In . SVG Version: 6.00 Build 0)  -->
<!DOCTYPE svg PUBLIC "-//W3C//DTD SVG 1.1//EN" "http://www.w3.org/Graphics/SVG/1.1/DTD/svg11.dtd">
<svg version="1.1" id="Layer_1" xmlns="http://www.w3.org/2000/svg" xmlns:xlink="http://www.w3.org/1999/xlink" x="0px" y="0px"
	 width="308.045px" height="308.05px" viewBox="36.78 36.422 308.045 308.05" enable-background="new 36.78 36.422 308.045 308.05"
	 xml:space="preserve">
<g>
	<path d="M330.506,252.179l-3.361-7.057c-0.973-2.049-0.066-4.453,2.025-5.341l7.189-3.065c2.086-0.888,2.766-3.163,1.508-5.05
		l-4.328-6.511c-1.258-1.887-0.703-4.393,1.238-5.567l6.688-4.06c1.938-1.175,2.283-3.519,0.777-5.211l-5.213-5.827
		c-1.512-1.688-1.316-4.258,0.436-5.691l6.039-4.967c1.752-1.442,1.762-3.81,0.023-5.271l-5.984-5.022
		c-1.738-1.461-1.91-4.023-0.379-5.699l5.268-5.777c1.529-1.672,1.201-4.021-0.723-5.218l-6.639-4.118
		c-1.934-1.2-2.461-3.708-1.189-5.586l4.393-6.464c1.277-1.877,0.625-4.152-1.457-5.063l-7.162-3.135
		c-2.076-0.911-2.963-3.32-1.969-5.359l3.426-7.026c0.994-2.037,0.018-4.203-2.164-4.804l-7.533-2.085
		c-2.188-0.604-3.408-2.865-2.713-5.024l2.395-7.438c0.697-2.159-0.574-4.159-2.826-4.446l-7.754-0.992
		c-2.248-0.287-3.773-2.349-3.402-4.587l1.312-7.706c0.383-2.235-1.156-4.034-3.426-4l-7.824,0.125
		c-2.262,0.037-4.074-1.789-4.01-4.057l0.195-7.815c0.059-2.268-1.725-3.831-3.963-3.468l-7.723,1.232
		c-2.248,0.358-4.291-1.193-4.555-3.443l-0.91-7.764c-0.27-2.254-2.252-3.544-4.416-2.874l-7.469,2.321
		c-2.168,0.67-4.416-0.569-5.004-2.76l-2.002-7.558c-0.582-2.189-2.736-3.186-4.781-2.212l-7.061,3.361
		c-2.043,0.976-4.447,0.067-5.34-2.021l-3.066-7.193c-0.889-2.085-3.158-2.765-5.045-1.507l-6.51,4.328
		c-1.887,1.258-4.398,0.701-5.572-1.239l-4.055-6.684c-1.18-1.942-3.525-2.287-5.217-0.777l-5.826,5.209
		c-1.693,1.515-4.254,1.318-5.692-0.432l-4.967-6.042c-1.438-1.75-3.811-1.762-5.271-0.025l-5.021,5.988
		c-1.461,1.738-4.023,1.907-5.697,0.377l-5.779-5.267c-1.67-1.528-4.023-1.202-5.216,0.724l-4.12,6.64
		c-1.198,1.928-3.709,2.462-5.581,1.184l-6.47-4.393c-1.872-1.274-4.152-0.62-5.062,1.461l-3.136,7.163
		c-0.911,2.076-3.32,2.964-5.354,1.97l-7.028-3.431c-2.044-0.992-4.203-0.019-4.81,2.164l-2.08,7.535
		c-0.606,2.185-2.867,3.403-5.022,2.712l-7.444-2.395c-2.154-0.694-4.152,0.576-4.443,2.825l-0.99,7.757
		c-0.286,2.248-2.354,3.775-4.587,3.399l-7.708-1.313c-2.233-0.379-4.032,1.166-3.995,3.434l0.12,7.817
		c0.037,2.268-1.79,4.078-4.06,4.018l-7.815-0.201c-2.266-0.06-3.824,1.727-3.468,3.968l1.239,7.722
		c0.351,2.241-1.193,4.287-3.445,4.553l-7.769,0.913c-2.252,0.264-3.542,2.252-2.872,4.418l2.321,7.466
		c0.67,2.164-0.569,4.411-2.76,4.999l-7.556,2.007c-2.192,0.583-3.187,2.735-2.215,4.781l3.362,7.059
		c0.976,2.046,0.069,4.451-2.021,5.341l-7.19,3.065c-2.085,0.888-2.765,3.161-1.512,5.045l4.333,6.511
		c1.258,1.889,0.698,4.397-1.239,5.572l-6.686,4.058c-1.938,1.179-2.284,3.521-0.777,5.214l5.211,5.824
		c1.512,1.692,1.318,4.259-0.435,5.692l-6.039,4.966c-1.752,1.442-1.762,3.81-0.027,5.271l5.993,5.021
		c1.734,1.461,1.905,4.022,0.375,5.701l-5.267,5.775c-1.526,1.674-1.202,4.023,0.721,5.216l6.64,4.125
		c1.933,1.193,2.46,3.708,1.188,5.576l-4.397,6.465c-1.271,1.877-0.62,4.161,1.461,5.067l7.167,3.136
		c2.071,0.915,2.959,3.319,1.965,5.363l-3.427,7.024c-0.994,2.034-0.019,4.198,2.164,4.804l7.528,2.086
		c2.192,0.605,3.408,2.862,2.714,5.017l-2.395,7.445c-0.694,2.159,0.578,4.157,2.825,4.448l7.759,0.989
		c2.247,0.282,3.773,2.354,3.398,4.587l-1.313,7.704c-0.384,2.237,1.161,4.036,3.436,4.004l7.814-0.124
		c2.266-0.042,4.079,1.784,4.014,4.055l-0.194,7.814c-0.064,2.271,1.72,3.829,3.967,3.473l7.723-1.239
		c2.238-0.36,4.281,1.188,4.55,3.44l0.911,7.769c0.264,2.252,2.252,3.542,4.416,2.871l7.468-2.316
		c2.169-0.675,4.411,0.569,4.998,2.761l2.007,7.556c0.583,2.191,2.737,3.186,4.781,2.21l7.057-3.361
		c2.049-0.976,4.457-0.064,5.346,2.025l3.061,7.19c0.897,2.081,3.163,2.765,5.05,1.507l6.511-4.332
		c1.887-1.258,4.401-0.698,5.571,1.243l4.056,6.687c1.175,1.938,3.523,2.284,5.216,0.777l5.826-5.212
		c1.692-1.517,4.254-1.317,5.688,0.435l4.971,6.039c1.438,1.753,3.811,1.762,5.267,0.023l5.022-5.988
		c1.456-1.734,4.023-1.909,5.701-0.379l5.775,5.271c1.674,1.53,4.023,1.197,5.221-0.722l4.115-6.645
		c1.197-1.929,3.713-2.46,5.586-1.184l6.469,4.393c1.879,1.271,4.152,0.62,5.064-1.461l3.135-7.158
		c0.906-2.076,3.32-2.964,5.359-1.975l7.023,3.436c2.039,0.989,4.203,0.015,4.805-2.169l2.086-7.537
		c0.605-2.182,2.867-3.402,5.025-2.709l7.436,2.395c2.16,0.699,4.156-0.573,4.449-2.825l0.994-7.754
		c0.281-2.247,2.348-3.778,4.582-3.403l7.703,1.313c2.238,0.384,4.037-1.161,4.004-3.432l-0.125-7.814
		c-0.041-2.271,1.785-4.078,4.061-4.019l7.811,0.199c2.27,0.061,3.828-1.725,3.467-3.968l-1.234-7.722
		c-0.359-2.243,1.193-4.287,3.445-4.55l7.764-0.916c2.252-0.264,3.547-2.252,2.871-4.416l-2.32-7.463
		c-0.666-2.169,0.572-4.416,2.766-5.003l7.555-2.007C330.486,256.377,331.48,254.227,330.506,252.179z M134.807,311.477
		c-66.85-30.926-95.967-110.19-65.037-177.033c30.925-66.842,110.186-95.958,177.03-65.03
		c66.846,30.928,95.959,110.186,65.033,177.031C280.908,313.285,201.648,342.407,134.807,311.477z"/>
</g>
<g>
	<path d="M103.72,99.4l-0.81-3.567c-0.758,0.708-1.507,1.419-2.247,2.143l0.948,3.491C102.305,100.765,103.003,100.078,103.72,99.4z
		"/>
</g>
<g>
	<path d="M99.822,103.289l-0.952-3.535c-0.73,0.738-1.452,1.484-2.155,2.238l1.096,3.449
		C98.472,104.72,99.147,103.999,99.822,103.289z"/>
</g>
<g>
	<path d="M107.775,95.688l-0.643-3.598c-0.791,0.668-1.572,1.35-2.344,2.042l0.795,3.528
		C106.305,96.994,107.036,96.334,107.775,95.688z"/>
</g>
<g>
	<path d="M111.993,92.157l-0.49-3.621c-0.814,0.634-1.628,1.279-2.423,1.935l0.633,3.558
		C110.466,93.394,111.225,92.772,111.993,92.157z"/>
</g>
<g>
	<path d="M120.871,85.667l-0.167-3.653c-0.874,0.564-1.738,1.135-2.594,1.715l0.328,3.598
		C119.243,86.765,120.056,86.215,120.871,85.667z"/>
</g>
<g>
	<path d="M116.362,88.813l-0.328-3.641c-0.847,0.599-1.683,1.207-2.516,1.829L114,90.583
		C114.781,89.986,115.572,89.394,116.362,88.813z"/>
</g>
<g>
	<path d="M96.104,107.347l-1.109-3.493c-0.694,0.768-1.378,1.544-2.054,2.333l1.249,3.401
		C94.819,108.831,95.461,108.089,96.104,107.347z"/>
</g>
<g>
	<path d="M86.07,120.444l-1.562-3.322c-0.583,0.853-1.166,1.715-1.729,2.583l1.683,3.216
		C84.988,122.086,85.524,121.263,86.07,120.444z"/>
</g>
<g>
	<path d="M65.632,176.351l-2.913-2.236c-0.129,1.029-0.25,2.06-0.352,3.091l2.969,2.079C65.419,178.3,65.521,177.325,65.632,176.351
		z"/>
</g>
<g>
	<path d="M92.572,111.566l-1.268-3.447c-0.656,0.8-1.309,1.604-1.951,2.423l1.401,3.348
		C91.351,113.106,91.957,112.327,92.572,111.566z"/>
</g>
<g>
	<path d="M89.224,115.934l-1.415-3.387c-0.629,0.826-1.239,1.663-1.845,2.504l1.549,3.286
		C88.068,117.526,88.641,116.722,89.224,115.934z"/>
</g>
<g>
	<path d="M150.4,71.143l0.786-3.572c-0.99,0.317-1.975,0.65-2.95,0.992l-0.615,3.563C148.541,71.786,149.475,71.459,150.4,71.143z"
		/>
</g>
<g>
	<path d="M166.343,66.879l1.244-3.44c-1.018,0.189-2.039,0.388-3.057,0.601l-1.073,3.449
		C164.419,67.275,165.381,67.071,166.343,66.879z"/>
</g>
<g>
	<path d="M160.97,68.07l1.087-3.491c-1.013,0.231-2.017,0.477-3.02,0.73l-0.925,3.494C159.065,68.549,160.013,68.306,160.97,68.07z"
		/>
</g>
<g>
	<path d="M155.653,69.492l0.938-3.535c-1.004,0.275-1.993,0.562-2.992,0.862l-0.768,3.533
		C153.766,70.054,154.709,69.77,155.653,69.492z"/>
</g>
<g>
	<path d="M171.762,65.925l1.396-3.387c-0.979,0.136-1.951,0.282-2.917,0.437c-0.056,0.009-0.106,0.016-0.162,0.028l-1.226,3.403
		C169.821,66.237,170.792,66.075,171.762,65.925z"/>
</g>
<g>
	<path d="M125.513,82.719l-0.01-3.658c-0.518,0.303-1.035,0.608-1.544,0.916c-0.375,0.224-0.749,0.456-1.119,0.687l0.171,3.609
		C123.839,83.743,124.671,83.228,125.513,82.719z"/>
</g>
<g>
	<path d="M177.228,65.21l1.535-3.32c-1.035,0.097-2.062,0.206-3.098,0.329l-1.369,3.345
		C175.267,65.432,176.248,65.312,177.228,65.21z"/>
</g>
<g>
	<path d="M135.159,77.445l0.31-3.644c-0.938,0.446-1.868,0.899-2.788,1.366l-0.147,3.609
		C133.402,78.322,134.28,77.878,135.159,77.445z"/>
</g>
<g>
	<path d="M130.276,79.977l0.147-3.653c-0.915,0.483-1.826,0.978-2.728,1.482l0.009,3.616
		C128.56,80.932,129.416,80.449,130.276,79.977z"/>
</g>
<g>
	<path d="M65.558,203.783l-3.325-1.554c0.098,1.036,0.204,2.062,0.329,3.094l3.348,1.382
		C65.78,205.734,65.66,204.754,65.558,203.783z"/>
</g>
<g>
	<path d="M140.148,75.126l0.467-3.632c-0.952,0.402-1.904,0.816-2.853,1.244l-0.306,3.602
		C138.349,75.927,139.247,75.52,140.148,75.126z"/>
</g>
<g>
	<path d="M145.23,73.025l0.629-3.607c-0.971,0.363-1.942,0.733-2.904,1.119l-0.462,3.588
		C143.399,73.749,144.314,73.383,145.23,73.025z"/>
</g>
<g>
	<path d="M111.687,288.449l-3.44,1.253c0.796,0.661,1.601,1.313,2.405,1.956l3.338-1.383
		C113.218,289.675,112.446,289.068,111.687,288.449z"/>
</g>
<g>
	<path d="M92.349,269.01l-3.625,0.477c0.634,0.818,1.276,1.627,1.924,2.428l3.569-0.629
		C93.588,270.535,92.969,269.777,92.349,269.01z"/>
</g>
<g>
	<path d="M99.577,277.291l-3.569,0.791c0.698,0.759,1.41,1.508,2.132,2.252l3.495-0.938
		C100.941,278.701,100.256,277.999,99.577,277.291z"/>
</g>
<g>
	<path d="M89.011,264.645l-3.644,0.314c0.592,0.851,1.202,1.684,1.822,2.516l3.588-0.472
		C90.181,266.222,89.593,265.436,89.011,264.645z"/>
</g>
<g>
	<path d="M95.877,273.227l-3.606,0.639c0.67,0.786,1.346,1.567,2.029,2.34l3.533-0.782C97.177,274.697,96.52,273.967,95.877,273.227
		z"/>
</g>
<g>
	<path d="M82.926,255.489h-3.663c0.523,0.893,1.055,1.78,1.596,2.663l3.616-0.157C83.948,257.163,83.434,256.331,82.926,255.489z"/>
</g>
<g>
	<path d="M85.871,260.132l-3.658,0.161c0.504,0.782,1.018,1.568,1.535,2.336c0.061,0.083,0.121,0.166,0.176,0.254l3.607-0.319
		C86.967,261.76,86.412,260.95,85.871,260.132z"/>
</g>
<g>
	<path d="M182.712,64.727l1.679-3.25c-1.036,0.053-2.072,0.113-3.107,0.192l-1.521,3.281
		C180.748,64.866,181.727,64.79,182.712,64.727z"/>
</g>
<g>
	<path d="M116.034,291.807l-3.385,1.4c0.823,0.625,1.655,1.244,2.487,1.846l3.274-1.526
		C117.615,292.962,116.82,292.389,116.034,291.807z"/>
</g>
<g>
	<path d="M120.509,294.974l-3.311,1.549c0.472,0.324,0.943,0.652,1.415,0.972c0.38,0.259,0.763,0.518,1.147,0.768l3.209-1.67
		C122.147,296.061,121.324,295.523,120.509,294.974z"/>
</g>
<g>
	<path d="M80.184,250.722l-3.658-0.162c0.486,0.916,0.976,1.822,1.48,2.729h3.621C81.136,252.438,80.655,251.586,80.184,250.722z"/>
</g>
<g>
	<path d="M103.457,281.185l-3.542,0.948c0.735,0.722,1.479,1.442,2.229,2.154l3.449-1.086
		C104.872,282.54,104.16,281.864,103.457,281.185z"/>
</g>
<g>
	<path d="M107.489,284.907l-3.486,1.101c0.763,0.693,1.535,1.378,2.316,2.058l3.398-1.239
		C108.968,286.192,108.228,285.555,107.489,284.907z"/>
</g>
<g>
	<path d="M65.271,181.787l-3.005-2.099c-0.083,1.031-0.157,2.062-0.222,3.093l3.057,1.947
		C65.142,183.747,65.202,182.771,65.271,181.787z"/>
</g>
<g>
	<path d="M66.242,209.244l-3.385-1.401c0.139,1.022,0.287,2.044,0.453,3.066l3.403,1.239
		C66.547,211.187,66.39,210.22,66.242,209.244z"/>
</g>
<g>
	<path d="M77.654,245.839l-3.644-0.319c0.439,0.935,0.892,1.868,1.359,2.793l3.616,0.157
		C78.528,247.596,78.089,246.722,77.654,245.839z"/>
</g>
<g>
	<path d="M65.021,187.275l-3.089-1.97c-0.037,1.036-0.065,2.071-0.083,3.107l3.135,1.812
		C64.984,189.236,64.999,188.251,65.021,187.275z"/>
</g>
<g>
	<path d="M67.199,214.659l-3.44-1.253c0.189,1.021,0.379,2.034,0.587,3.047l3.45,1.091
		C67.583,216.582,67.389,215.621,67.199,214.659z"/>
</g>
<g>
	<path d="M68.369,220.027l-3.491-1.101c0.227,1.013,0.467,2.017,0.716,3.02l3.5,0.935C68.841,221.938,68.601,220.984,68.369,220.027
		z"/>
</g>
<g>
	<path d="M64.984,192.773l-3.172-1.836c0,1.036,0.014,2.071,0.042,3.107l3.218,1.669C65.031,194.738,65.003,193.754,64.984,192.773z
		"/>
</g>
<g>
	<path d="M73.252,235.763l-3.607-0.638c0.361,0.976,0.73,1.942,1.11,2.903l3.588,0.472
		C73.969,237.594,73.604,236.679,73.252,235.763z"/>
</g>
<g>
	<path d="M75.342,240.85l-3.625-0.481c0.046,0.111,0.088,0.223,0.134,0.329c0.356,0.846,0.726,1.683,1.101,2.52l3.607,0.319
		C76.138,242.644,75.731,241.751,75.342,240.85z"/>
</g>
<g>
	<path d="M71.384,230.594l-3.579-0.796c0.314,0.989,0.643,1.97,0.985,2.95l3.565,0.629
		C72.022,232.452,71.699,231.522,71.384,230.594z"/>
</g>
<g>
	<path d="M69.747,225.341l-3.542-0.948c0.268,0.999,0.555,1.993,0.851,2.982l3.542,0.786
		C70.302,227.227,70.02,226.288,69.747,225.341z"/>
</g>
<g>
	<path d="M65.202,198.262l-3.255-1.692c0.051,1.031,0.106,2.062,0.185,3.099l3.288,1.535
		C65.336,200.223,65.262,199.242,65.202,198.262z"/>
</g>
<g>
	<path d="M306.201,139.974l3.625,0.469c-0.402-0.957-0.812-1.903-1.238-2.851l-3.598-0.303
		C305.402,138.178,305.812,139.077,306.201,139.974z"/>
</g>
<g>
	<path d="M315.344,171.575l3.385,1.392c-0.139-1.026-0.291-2.051-0.459-3.07l-3.402-1.23
		C315.039,169.632,315.199,170.601,315.344,171.575z"/>
</g>
<g>
	<path d="M313.211,160.787l3.492,1.089c-0.227-1.008-0.477-2.014-0.727-3.02l-3.496-0.927
		C312.74,158.879,312.984,159.832,313.211,160.787z"/>
</g>
<g>
	<path d="M314.395,166.157l3.441,1.242c-0.186-1.02-0.385-2.037-0.598-3.052l-3.443-1.075
		C314.002,164.229,314.211,165.193,314.395,166.157z"/>
</g>
<g>
	<path d="M316.527,182.503l3.246,1.679c-0.051-1.036-0.115-2.067-0.189-3.103l-3.279-1.517
		C316.389,180.543,316.467,181.528,316.527,182.503z"/>
</g>
<g>
	<path d="M301.365,130.106l3.652,0.146c-0.484-0.92-0.971-1.827-1.479-2.733l-3.611,0.009
		C300.416,128.381,300.898,129.242,301.365,130.106z"/>
</g>
<g>
	<path d="M316.055,177.028l3.316,1.533c-0.092-1.029-0.203-2.06-0.324-3.089l-3.344-1.374
		C315.834,175.073,315.953,176.053,316.055,177.028z"/>
</g>
<g>
	<path d="M311.807,155.476l3.531,0.934c-0.271-0.999-0.559-1.993-0.859-2.987l-3.523-0.77
		C311.246,153.589,311.533,154.528,311.807,155.476z"/>
</g>
<g>
	<path d="M303.895,134.989l3.629,0.305c-0.434-0.934-0.893-1.868-1.354-2.793l-3.607-0.146
		C303.016,133.225,303.459,134.104,303.895,134.989z"/>
</g>
<g>
	<path d="M125.134,297.942l-3.246,1.688c0.873,0.551,1.757,1.092,2.635,1.623l3.131-1.808
		C126.808,298.955,125.971,298.455,125.134,297.942z"/>
</g>
<g>
	<path d="M310.16,150.228l3.57,0.782c-0.314-0.985-0.648-1.968-0.99-2.948l-3.557-0.615
		C309.521,148.371,309.846,149.298,310.16,150.228z"/>
</g>
<g>
	<path d="M308.291,145.058l3.607,0.624c-0.361-0.971-0.734-1.939-1.115-2.899l-3.588-0.462
		C307.574,143.229,307.936,144.14,308.291,145.058z"/>
</g>
<g>
	<path d="M316.758,187.997l3.172,1.822c-0.004-1.036-0.021-2.072-0.055-3.107l-3.209-1.656
		C316.703,186.036,316.74,187.017,316.758,187.997z"/>
</g>
<g>
	<path d="M316.088,177.382l3.311,1.547c-0.088-1.031-0.189-2.06-0.305-3.084l-3.344-1.385
		C315.875,175.431,315.986,176.404,316.088,177.382z"/>
</g>
<g>
	<path d="M316.531,182.855l3.236,1.683c-0.045-1.031-0.102-2.062-0.174-3.089l-3.275-1.531
		C316.398,180.895,316.467,181.875,316.531,182.855z"/>
</g>
<g>
	<path d="M316.707,193.832l3.09,1.961c0.037-1.026,0.064-2.062,0.082-3.099l-3.125-1.803
		C316.748,191.872,316.734,192.852,316.707,193.832z"/>
</g>
<g>
	<path d="M316.744,193.499l3.094,1.952c0.01-0.223,0.018-0.439,0.023-0.666c0.027-0.814,0.047-1.628,0.055-2.441l-3.131-1.794
		C316.785,191.529,316.771,192.52,316.744,193.499z"/>
</g>
<g>
	<path d="M316.734,188.339l3.168,1.827c-0.004-1.031-0.014-2.067-0.041-3.103l-3.209-1.665
		C316.693,186.374,316.717,187.358,316.734,188.339z"/>
</g>
<g>
	<path d="M311.658,225.97l2.479,2.687c0.309-0.985,0.605-1.975,0.893-2.969l-2.572-2.553
		C312.203,224.083,311.932,225.026,311.658,225.97z"/>
</g>
<g>
	<path d="M316.004,204.463l2.908,2.215c0.135-1.021,0.25-2.049,0.357-3.079l-2.969-2.067
		C316.213,202.507,316.115,203.487,316.004,204.463z"/>
</g>
<g>
	<path d="M316.5,198.993l3,2.09c0.084-1.036,0.158-2.067,0.217-3.107l-3.055-1.933C316.619,197.032,316.564,198.008,316.5,198.993z"
		/>
</g>
<g>
	<path d="M188.21,64.491l1.821-3.174c-1.04,0.007-2.076,0.025-3.111,0.06l-1.66,3.214C186.241,64.544,187.225,64.51,188.21,64.491z"
		/>
</g>
<g>
	<path d="M313.102,220.67l2.594,2.58c0.264-0.998,0.518-1.997,0.762-3.005l-2.686-2.441
		C313.559,218.765,313.336,219.718,313.102,220.67z"/>
</g>
<g>
	<path d="M315.27,209.91l2.816,2.344c0.176-1.017,0.332-2.043,0.484-3.07l-2.875-2.191
		C315.57,207.963,315.422,208.935,315.27,209.91z"/>
</g>
<g>
	<path d="M314.303,215.315l2.705,2.465c0.223-1.013,0.43-2.021,0.625-3.038l-2.779-2.321
		C314.678,213.383,314.498,214.35,314.303,215.315z"/>
</g>
<g>
	<path d="M226.242,69.566l2.691-2.483c-0.988-0.305-1.982-0.601-2.977-0.885l-2.559,2.566
		C224.352,69.018,225.295,69.286,226.242,69.566z"/>
</g>
<g>
	<path d="M231.482,71.231l2.793-2.356c-0.977-0.354-1.951-0.694-2.938-1.018l-2.658,2.451
		C229.613,70.604,230.553,70.914,231.482,71.231z"/>
</g>
<g>
	<path d="M236.643,73.125l2.891-2.236c-0.959-0.396-1.92-0.774-2.891-1.14l-2.766,2.33
		C234.807,72.417,235.727,72.766,236.643,73.125z"/>
</g>
<g>
	<path d="M246.705,77.577l3.074-1.977c-0.926-0.472-1.85-0.932-2.783-1.385l-2.955,2.081
		C244.934,76.715,245.82,77.14,246.705,77.577z"/>
</g>
<g>
	<path d="M241.719,75.242l2.988-2.108c-0.943-0.43-1.893-0.854-2.84-1.267l-2.861,2.21
		C239.912,74.458,240.812,74.845,241.719,75.242z"/>
</g>
<g>
	<path d="M220.934,68.126l2.582-2.599c-1.004-0.261-2.008-0.513-3.016-0.753l-2.441,2.677
		C219.02,67.663,219.982,67.89,220.934,68.126z"/>
</g>
<g>
	<path d="M193.722,64.494l1.951-3.094c-0.176-0.007-0.352-0.014-0.527-0.021c-0.864-0.028-1.725-0.046-2.585-0.058l-1.798,3.135
		C191.748,64.461,192.733,64.471,193.722,64.494z"/>
</g>
<g>
	<path d="M199.215,64.741l2.089-3.008c-1.031-0.083-2.066-0.157-3.102-0.212l-1.933,3.054
		C197.25,64.618,198.235,64.676,199.215,64.741z"/>
</g>
<g>
	<path d="M215.57,66.923l2.465-2.707c-1.018-0.222-2.029-0.426-3.047-0.622l-2.316,2.784
		C213.633,66.544,214.604,66.727,215.57,66.923z"/>
</g>
<g>
	<path d="M204.699,65.229l2.221-2.911c-1.031-0.132-2.062-0.245-3.094-0.349l-2.068,2.971
		C202.738,65.021,203.719,65.12,204.699,65.229z"/>
</g>
<g>
	<path d="M210.156,65.955l2.344-2.811c-1.021-0.176-2.049-0.338-3.074-0.49l-2.197,2.881
		C208.205,65.661,209.18,65.802,210.156,65.955z"/>
</g>
<g>
	<path d="M285.703,107.589l3.602-0.645c-0.674-0.795-1.35-1.574-2.039-2.354l-3.523,0.798
		C284.398,106.112,285.061,106.845,285.703,107.589z"/>
</g>
<g>
	<path d="M298.637,125.336l3.652-0.011c-0.332-0.576-0.68-1.154-1.021-1.729c-0.193-0.312-0.383-0.625-0.578-0.939l-3.605,0.169
		C297.609,123.66,298.129,124.495,298.637,125.336z"/>
</g>
<g>
	<path d="M289.227,111.807l3.617-0.485c-0.629-0.818-1.273-1.63-1.93-2.435l-3.551,0.636
		C287.992,110.278,288.611,111.042,289.227,111.807z"/>
</g>
<g>
	<path d="M295.701,120.692l3.643-0.169c-0.555-0.869-1.123-1.739-1.711-2.594l-3.598,0.326
		C294.6,119.062,295.15,119.875,295.701,120.692z"/>
</g>
<g>
	<path d="M282,103.522l3.564-0.804c-0.707-0.761-1.42-1.515-2.137-2.254l-3.49,0.943C280.635,102.105,281.324,102.811,282,103.522z"
		/>
</g>
<g>
	<path d="M292.561,116.181l3.639-0.333c-0.596-0.844-1.207-1.686-1.82-2.513l-3.59,0.481
		C291.391,114.6,291.982,115.386,292.561,116.181z"/>
</g>
<g>
	<path d="M274.068,95.9l3.488-1.112c-0.768-0.696-1.545-1.385-2.326-2.062l-3.404,1.246C272.584,94.605,273.334,95.25,274.068,95.9z
		"/>
</g>
<g>
	<path d="M256.346,82.876l3.246-1.704c-0.879-0.548-1.762-1.089-2.66-1.623l-3.129,1.822
		C254.662,81.864,255.508,82.368,256.346,82.876z"/>
</g>
<g>
	<path d="M260.988,85.838l3.32-1.558c-0.852-0.587-1.721-1.17-2.586-1.739l-3.209,1.686
		C259.346,84.756,260.174,85.29,260.988,85.838z"/>
</g>
<g>
	<path d="M265.496,89.001l3.385-1.415c-0.828-0.626-1.664-1.246-2.506-1.85l-3.279,1.54
		C263.906,87.84,264.705,88.418,265.496,89.001z"/>
</g>
<g>
	<path d="M251.578,80.121l3.168-1.843c-0.893-0.511-1.809-1.015-2.725-1.503l-3.043,1.954
		C249.854,79.187,250.719,79.651,251.578,80.121z"/>
</g>
<g>
	<path d="M278.119,99.625l3.529-0.957c-0.736-0.73-1.48-1.45-2.234-2.164l-3.449,1.101
		C276.691,98.268,277.408,98.945,278.119,99.625z"/>
</g>
<g>
	<path d="M269.857,92.354l3.443-1.265c-0.799-0.662-1.607-1.313-2.422-1.958l-3.344,1.399
		C268.316,91.13,269.09,91.741,269.857,92.354z"/>
</g>
<g>
	<path d="M314.229,215.644l2.711,2.474c0.217-1.008,0.424-2.021,0.619-3.037l-2.775-2.326
		C314.613,213.725,314.428,214.687,314.229,215.644z"/>
</g>
<g>
	<path d="M305.869,241.742l2.094,2.996c0.436-0.938,0.861-1.882,1.271-2.825l-2.201-2.867
		C306.654,239.952,306.266,240.85,305.869,241.742z"/>
</g>
<g>
	<path d="M307.996,236.688l2.219,2.895c0.398-0.957,0.777-1.914,1.146-2.881l-2.32-2.765
		C308.703,234.856,308.355,235.772,307.996,236.688z"/>
</g>
<g>
	<path d="M209.518,315.01l-1.4,3.385c1.021-0.135,2.043-0.287,3.061-0.444l1.24-3.403
		C211.455,314.714,210.484,314.871,209.518,315.01z"/>
</g>
<g>
	<path d="M165.821,313.918l-2.479,2.71c1.013,0.213,2.021,0.426,3.038,0.62l2.33-2.784
		C167.745,314.293,166.783,314.112,165.821,313.918z"/>
</g>
<g>
	<path d="M311.574,226.307l2.475,2.696c0.311-0.985,0.605-1.979,0.893-2.969l-2.562-2.562
		C312.121,224.425,311.852,225.368,311.574,226.307z"/>
</g>
<g>
	<path d="M313.018,221.003l2.598,2.59c0.264-0.999,0.52-1.998,0.76-3.006l-2.674-2.451
		C313.484,219.098,313.258,220.051,313.018,221.003z"/>
</g>
<g>
	<path d="M155.163,311.282l-2.71,2.475c0.989,0.31,1.979,0.605,2.974,0.883l2.565-2.562
		C157.04,311.823,156.096,311.561,155.163,311.282z"/>
</g>
<g>
	<path d="M309.9,231.532l2.35,2.802c0.352-0.971,0.693-1.946,1.027-2.927l-2.451-2.673
		C310.529,229.678,310.215,230.607,309.9,231.532z"/>
</g>
<g>
	<path d="M285.135,273.906l1.096,3.486c0.697-0.763,1.383-1.53,2.059-2.316l-1.23-3.394
		C286.424,272.432,285.781,273.172,285.135,273.906z"/>
</g>
<g>
	<path d="M160.461,312.716l-2.594,2.595c0.998,0.264,2.002,0.513,3.005,0.753l2.451-2.672
		C162.367,313.174,161.414,312.947,160.461,312.716z"/>
</g>
<g>
	<path d="M303.52,246.703l1.961,3.08c0.477-0.916,0.938-1.836,1.393-2.766l-2.072-2.959
		C304.389,244.946,303.955,245.829,303.52,246.703z"/>
</g>
<g>
	<path d="M198.61,316.156l-1.692,3.246c1.035-0.051,2.062-0.111,3.089-0.181l1.531-3.278
		C200.561,316.027,199.59,316.096,198.61,316.156z"/>
</g>
<g>
	<path d="M193.125,316.374l-1.831,3.167c1.036-0.005,2.066-0.019,3.098-0.046l1.665-3.209
		C195.086,316.327,194.106,316.355,193.125,316.374z"/>
</g>
<g>
	<path d="M295.215,260.908l1.545,3.311c0.365-0.531,0.73-1.063,1.092-1.59c0.217-0.324,0.434-0.647,0.646-0.972l-1.664-3.204
		C296.301,259.281,295.766,260.095,295.215,260.908z"/>
</g>
<g>
	<path d="M182.148,316.101l-2.1,3.006c1.027,0.083,2.059,0.157,3.09,0.218l1.946-3.057
		C184.099,316.221,183.124,316.166,182.148,316.101z"/>
</g>
<g>
	<path d="M298.188,256.294l1.688,3.241c0.557-0.874,1.092-1.753,1.629-2.631l-1.809-3.131
		C299.201,254.62,298.701,255.461,298.188,256.294z"/>
</g>
<g>
	<path d="M187.632,316.355l-1.965,3.084c1.03,0.042,2.062,0.069,3.093,0.088l1.812-3.131
		C189.593,316.396,188.613,316.378,187.632,316.355z"/>
</g>
<g>
	<path d="M288.676,269.717l1.25,3.436c0.666-0.795,1.316-1.59,1.959-2.399l-1.381-3.334
		C289.906,268.191,289.297,268.954,288.676,269.717z"/>
</g>
<g>
	<path d="M171.231,314.88l-2.363,2.816c1.018,0.176,2.039,0.337,3.062,0.485l2.21-2.881
		C173.168,315.176,172.197,315.033,171.231,314.88z"/>
</g>
<g>
	<path d="M300.957,251.559l1.832,3.163c0.514-0.893,1.018-1.794,1.508-2.7l-1.938-3.048
		C301.9,249.839,301.43,250.703,300.957,251.559z"/>
</g>
<g>
	<path d="M176.678,315.61l-2.233,2.913c1.021,0.13,2.053,0.245,3.079,0.352l2.081-2.969
		C178.625,315.818,177.649,315.722,176.678,315.61z"/>
</g>
<g>
	<path d="M204.076,315.703l-1.551,3.32c1.031-0.093,2.059-0.199,3.08-0.314l1.383-3.348
		C206.027,315.49,205.047,315.602,204.076,315.703z"/>
</g>
<g>
	<path d="M292.043,265.385l1.396,3.375c0.629-0.823,1.248-1.646,1.854-2.482l-1.525-3.279
		C293.199,263.803,292.625,264.599,292.043,265.385z"/>
</g>
<g>
	<path d="M264.863,292.333l0.314,3.644c0.842-0.596,1.684-1.202,2.51-1.816l-0.477-3.584
		C266.439,291.168,265.654,291.756,264.863,292.333z"/>
</g>
<g>
	<path d="M260.35,295.469l0.162,3.652c0.828-0.531,1.654-1.072,2.475-1.627c0.035-0.028,0.072-0.056,0.109-0.079l-0.314-3.603
		C261.977,294.377,261.168,294.923,260.35,295.469z"/>
</g>
<g>
	<path d="M139.708,305.6l-2.996,2.095c0.934,0.435,1.877,0.86,2.825,1.267l2.872-2.2C141.499,306.381,140.596,305.992,139.708,305.6
		z"/>
</g>
<g>
	<path d="M134.733,303.26l-3.079,1.965c0.915,0.473,1.84,0.935,2.77,1.388l2.96-2.071C136.5,304.125,135.612,303.699,134.733,303.26
		z"/>
</g>
<g>
	<path d="M230.834,309.9l-0.791,3.574c0.98-0.314,1.961-0.643,2.941-0.98l0.625-3.561
		C232.689,309.267,231.764,309.586,230.834,309.9z"/>
</g>
<g>
	<path d="M255.707,298.404v3.658c0.893-0.518,1.781-1.055,2.664-1.591l-0.158-3.616
		C257.381,297.383,256.549,297.896,255.707,298.404z"/>
</g>
<g>
	<path d="M129.878,300.703l-3.168,1.831c0.893,0.509,1.799,1.017,2.705,1.507l3.052-1.941
		C131.598,301.646,130.734,301.179,129.878,300.703z"/>
</g>
<g>
	<path d="M269.229,289.004l0.477,3.625c0.818-0.629,1.627-1.271,2.426-1.923l-0.629-3.561
		C270.754,287.774,269.996,288.394,269.229,289.004z"/>
</g>
<g>
	<path d="M246.061,303.653l-0.314,3.644c0.936-0.435,1.859-0.888,2.785-1.351l0.162-3.616
		C247.818,302.783,246.949,303.223,246.061,303.653z"/>
</g>
<g>
	<path d="M250.945,301.138l-0.158,3.653c0.916-0.481,1.826-0.972,2.729-1.476v-3.616
		C252.664,300.189,251.805,300.666,250.945,301.138z"/>
</g>
<g>
	<path d="M236,308.046l-0.635,3.603c0.967-0.356,1.934-0.727,2.896-1.105l0.475-3.588C237.826,307.329,236.916,307.689,236,308.046z
		"/>
</g>
<g>
	<path d="M241.082,305.96l-0.477,3.626c0.148-0.061,0.301-0.125,0.453-0.189c0.795-0.343,1.59-0.685,2.391-1.041l0.314-3.602
		C242.871,305.165,241.979,305.567,241.082,305.96z"/>
</g>
<g>
	<path d="M315.949,204.791l2.904,2.229c0.129-1.021,0.25-2.053,0.359-3.079l-2.969-2.076
		C316.156,202.84,316.055,203.82,315.949,204.791z"/>
</g>
<g>
	<path d="M277.506,281.8l0.795,3.569c0.758-0.702,1.508-1.41,2.252-2.127l-0.939-3.491C278.92,280.44,278.217,281.125,277.506,281.8
		z"/>
</g>
<g>
	<path d="M281.408,277.934l0.943,3.533c0.73-0.735,1.447-1.475,2.154-2.229l-1.082-3.445
		C282.758,276.515,282.082,277.227,281.408,277.934z"/>
</g>
<g>
	<path d="M214.924,314.085l-1.254,3.444c1.018-0.18,2.029-0.374,3.039-0.578l1.09-3.458
		C216.848,313.705,215.885,313.899,214.924,314.085z"/>
</g>
<g>
	<path d="M149.928,309.618l-2.808,2.349c0.972,0.352,1.947,0.689,2.928,1.018l2.673-2.451
		C151.782,310.237,150.853,309.933,149.928,309.618z"/>
</g>
<g>
	<path d="M273.445,285.49l0.639,3.602c0.785-0.666,1.562-1.346,2.34-2.025l-0.783-3.528
		C274.916,284.195,274.186,284.852,273.445,285.49z"/>
</g>
<g>
	<path d="M225.592,311.532l-0.949,3.537c1-0.272,1.988-0.55,2.982-0.846l0.781-3.533
		C227.473,310.978,226.535,311.26,225.592,311.532z"/>
</g>
<g>
	<path d="M144.767,307.718l-2.903,2.224c0.962,0.398,1.923,0.777,2.886,1.143l2.765-2.326
		C146.599,308.425,145.678,308.073,144.767,307.718z"/>
</g>
<g>
	<path d="M220.287,312.929l-1.1,3.496c1.002-0.227,2.006-0.463,3.01-0.717l0.938-3.501
		C222.191,312.457,221.24,312.693,220.287,312.929z"/>
</g>
<g>
	<path d="M315.209,210.238l2.807,2.354c0.176-1.021,0.338-2.039,0.49-3.065l-2.875-2.206
		C315.5,208.296,315.357,209.268,315.209,210.238z"/>
</g>
<g>
	<path d="M316.615,196.375c-0.047,0.985-0.102,1.971-0.172,2.941l3.002,2.1c0.082-1.027,0.156-2.062,0.221-3.094L316.615,196.375z"
		/>
</g>
<g>
	<path d="M242.205,79.351c-61.361-28.389-134.106-1.665-162.498,59.691s-1.665,134.11,59.696,162.498
		c61.352,28.387,134.106,1.66,162.493-59.696S303.557,107.74,242.205,79.351z M238.137,88.146
		c33.598,15.546,55.922,45.547,62.996,79.191c0.592,2.821,0.959,4.171-1.211,6.076c-1.336,1.174-4.217,0.631-4.217,0.631
		l-189.04-50.051c0,0-2.747-0.444-3.237-1.859c-0.684-1.974-0.009-2.961,1.332-4.547C136.708,79.815,191.058,66.364,238.137,88.146z
		 M143.473,292.745c-34.561-15.99-57.181-47.263-63.567-82.067c-0.277-1.53-0.375-2.215,0.791-3.251
		c0.962-0.846,3.413-0.056,3.413-0.056l191.643,50.74c0,0,1.938,0.467,2.299,1.53c0.49,1.434,0.176,1.997-0.787,3.153
		C245.377,300.952,190.749,314.621,143.473,292.745z"/>
</g>
<g>
	<path fill="#FFFFFF" d="M101.291,148.217l-6.545,8.45c-0.044,0.067-0.113,0.128-0.144,0.146c-0.007,0.024-0.031,0.018-0.031,0.018
		c-0.062,0.037-0.13,0.097-0.193,0.133c-0.006,0.024-0.031,0.018-0.031,0.018c-0.068,0.06-0.124,0.072-0.187,0.108
		c0,0-0.024-0.006-0.031,0.018c-0.062,0.036-0.124,0.072-0.205,0.077c0,0,0,0-0.049-0.013c0,0,0,0-0.006,0.025
		c-0.073-0.02-0.154-0.015-0.209-0.003c-0.023-0.006-0.023-0.006-0.048-0.013c-0.105-0.001-0.178-0.021-0.252-0.04
		c-0.049-0.013-0.122-0.032-0.214-0.083c-0.024-0.006-0.024-0.006-0.049-0.013c-0.067-0.044-0.11-0.081-0.183-0.101
		c0.006-0.025,0.006-0.025,0.006-0.025c-0.049-0.013-0.049-0.013-0.049-0.013c-0.068-0.044-0.104-0.105-0.189-0.181
		c0.006-0.024-0.018-0.031-0.018-0.031c-0.036-0.062-0.078-0.1-0.107-0.186c-0.025-0.006-0.025-0.006-0.043-0.038
		c-0.011-0.055-0.041-0.142-0.077-0.204c-0.025-0.007-0.025-0.007-0.019-0.031c-0.042-0.037-0.047-0.118-0.052-0.198l-1.449-10.57
		c-0.119-0.741,0.389-1.367,1.153-1.479c0.667-0.139,1.336,0.406,1.454,1.146l1.052,7.42l4.615-5.917
		c0.445-0.59,1.271-0.739,1.832-0.275C101.631,146.836,101.762,147.632,101.291,148.217z"/>
	<path fill="#FFFFFF" d="M107.998,161.021c-2.796-0.741-4.489-3.658-3.748-6.454l1.555-5.862c0.182-0.687,0.932-1.144,1.644-0.955
		c0.735,0.195,1.137,0.958,0.956,1.645l-1.555,5.862c-0.371,1.398,0.44,2.794,1.838,3.165c1.424,0.377,2.844-0.427,3.239-1.818
		l1.555-5.863c0.182-0.687,0.883-1.157,1.62-0.961c0.688,0.182,1.162,0.964,0.98,1.651l-1.555,5.863
		C113.785,160.087,110.82,161.769,107.998,161.021z"/>
	<path fill="#FFFFFF" d="M119.776,162.227c-0.768-1.358-1.003-3.048-0.548-4.765c0.442-1.668,1.465-2.946,2.831-3.844
		c1.409-0.86,3.021-1.194,4.713-0.746c1.619,0.43,2.902,1.531,3.603,2.951c0.792,1.47,1.021,3.079,0.579,4.747
		c-0.455,1.717-1.472,3.075-2.861,3.861c-1.312,0.887-2.972,1.208-4.591,0.778C121.809,164.761,120.574,163.673,119.776,162.227z
		 M121.902,158.171c-0.279,1.054-0.188,1.997,0.193,2.834c0.458,0.751,1.183,1.285,2.114,1.531c0.859,0.228,1.728,0.117,2.497-0.309
		c0.796-0.525,1.366-1.292,1.646-2.347c0.267-1.006,0.158-1.98-0.279-2.805c-0.471-0.702-1.15-1.303-2.01-1.53
		c-0.932-0.247-1.846-0.069-2.602,0.308C122.722,156.366,122.169,157.165,121.902,158.171z"/>
	<path fill="#FFFFFF" d="M139.061,157.601l-2.537,9.566c-0.195,0.735-0.916,1.175-1.675,0.974c-0.736-0.195-1.168-0.94-0.973-1.676
		l2.537-9.566c0.208-0.785,0.945-1.192,1.682-0.997C138.854,156.103,139.269,156.816,139.061,157.601z M140.237,153.161
		c-0.195,0.736-0.922,1.2-1.682,0.998c-0.736-0.195-1.162-0.964-0.967-1.7l0.137-0.515c0.195-0.736,0.939-1.168,1.675-0.973
		c0.76,0.202,1.168,0.939,0.973,1.676L140.237,153.161z"/>
	<path fill="#FFFFFF" d="M158.208,162.599c-0.183,0.687-0.909,1.15-1.645,0.955c-0.564-0.149-1.095-0.132-1.597,0.076
		c-0.543,0.171-1.022,0.49-1.44,0.878c-0.797,0.629-1.338,1.483-1.552,1.794l-1.235,4.661c-0.189,0.711-0.958,1.137-1.693,0.942
		c-0.712-0.188-1.144-0.933-0.955-1.644l2.562-9.665c0.188-0.711,0.926-1.119,1.638-0.931c0.735,0.195,1.199,0.922,1.011,1.633
		l-0.046,0.172c0.193-0.133,0.441-0.277,0.646-0.354c0.952-0.325,2.123-0.487,3.344-0.136
		C157.981,161.174,158.396,161.888,158.208,162.599z"/>
	<path fill="#FFFFFF" d="M164.071,164.232l-2.537,9.565c-0.195,0.736-0.917,1.175-1.676,0.974c-0.736-0.195-1.168-0.939-0.973-1.676
		l2.537-9.565c0.208-0.785,0.945-1.193,1.682-0.998C163.863,162.734,164.279,163.447,164.071,164.232z M165.248,159.793
		c-0.195,0.735-0.923,1.199-1.683,0.998c-0.736-0.195-1.162-0.965-0.967-1.7l0.137-0.516c0.195-0.735,0.939-1.168,1.675-0.973
		c0.76,0.201,1.169,0.939,0.974,1.675L165.248,159.793z"/>
	<path fill="#FFFFFF" d="M165.741,172.577c0.598-0.472,1.476-0.317,1.892,0.292c0.494,0.708,1.449,1.565,2.412,1.794
		c0.662,0.176,1.333,0.118,1.792-0.023c0.421-0.203,0.584-0.423,0.637-0.619c0.032-0.122,0.021-0.178-0.009-0.265
		c-0.005-0.08-0.077-0.204-0.241-0.378c-0.278-0.337-0.942-0.802-1.78-1.208l-0.024-0.007c-0.721-0.348-1.405-0.74-1.964-1.203
		c-0.579-0.494-1.05-1.092-1.316-1.871c-0.152-0.513-0.157-1.092-0.007-1.656c0.299-1.128,1.19-1.915,2.163-2.314
		c1.014-0.361,2.129-0.406,3.257-0.107c1.692,0.449,2.68,1.577,3.322,2.325c0.484,0.548,0.441,1.403-0.09,1.919
		c-0.547,0.484-1.403,0.441-1.905-0.138c-0.649-0.723-1.231-1.298-2.016-1.506c-0.613-0.163-1.205-0.108-1.589,0.052
		c-0.377,0.136-0.51,0.337-0.542,0.46c-0.026,0.098-0.033,0.123-0.002,0.209c0.011,0.056,0.059,0.174,0.205,0.317
		c0.261,0.305,0.839,0.695,1.635,1.063l0.018,0.031l0.024,0.007c0.77,0.36,1.472,0.784,2.091,1.315
		c0.585,0.47,1.124,1.111,1.359,1.909c0.164,0.568,0.186,1.178,0.037,1.742c-0.319,1.201-1.249,2.032-2.3,2.436
		c-1.045,0.379-2.247,0.454-3.448,0.136c-1.908-0.532-3.145-1.805-3.917-2.851C165.009,173.854,165.157,173,165.741,172.577z"/>
	<path fill="#FFFFFF" d="M176.592,182.727l2.484-9.37c0,0,0,0,0.006-0.024l1.288-4.857c0.188-0.711,0.933-1.144,1.644-0.955
		c0.687,0.182,1.127,0.797,1.083,1.363c1.063-0.348,2.351-0.453,3.602-0.121c3.262,0.865,5.194,4.37,4.303,7.73
		s-4.287,5.374-7.548,4.509c-1.227-0.325-2.307-1.005-3.021-1.877l-1.145,4.317c-0.182,0.687-0.964,1.162-1.75,0.954
		C176.83,184.207,176.41,183.413,176.592,182.727z M181.781,174.048c-0.253,0.957-0.181,1.973,0.306,2.706
		c0.431,0.85,1.15,1.407,2.058,1.647c0.833,0.222,1.759,0.1,2.578-0.418c0.714-0.415,1.354-1.243,1.607-2.199
		c0.254-0.957,0.095-1.944-0.3-2.731c-0.461-0.831-1.205-1.396-2.038-1.617c-0.908-0.24-1.809-0.111-2.598,0.388
		C182.588,172.292,182.035,173.091,181.781,174.048z"/>
	<path fill="#FFFFFF" d="M205.643,180.375l-1.274,4.808c-0.188,0.711-0.935,1.144-1.645,0.956c-0.639-0.169-1.006-0.766-0.996-1.394
		c-1.108,0.415-2.315,0.515-3.542,0.19c-1.668-0.442-2.933-1.513-3.695-2.897c-0.755-1.407-0.966-3.09-0.523-4.758
		c0.449-1.692,1.465-3.051,2.812-3.875c1.354-0.848,2.99-1.176,4.658-0.733c1.227,0.325,2.219,1.035,2.977,1.944
		c0.309-0.575,0.923-0.91,1.562-0.741c0.71,0.188,1.144,0.934,0.948,1.669L205.643,180.375z M203.043,179.686
		c0.273-1.03,0.14-2.012-0.288-2.78c-0.412-0.818-1.155-1.383-2.014-1.611c-0.884-0.234-1.808-0.112-2.548,0.401
		c-0.751,0.457-1.328,1.249-1.602,2.279c-0.267,1.006-0.158,1.979,0.262,2.773c0.402,0.763,1.144,1.327,2.028,1.561
		c0.859,0.228,1.784,0.106,2.534-0.351C202.174,181.476,202.776,180.691,203.043,179.686z"/>
	<path fill="#FFFFFF" d="M219.287,178.794c-0.183,0.688-0.909,1.15-1.645,0.955c-0.564-0.149-1.094-0.132-1.596,0.076
		c-0.544,0.171-1.022,0.49-1.44,0.878c-0.796,0.629-1.338,1.483-1.552,1.794l-1.235,4.661c-0.188,0.711-0.958,1.137-1.693,0.942
		c-0.712-0.189-1.144-0.934-0.955-1.645l2.562-9.665c0.188-0.711,0.926-1.119,1.638-0.93c0.735,0.195,1.199,0.921,1.011,1.632
		l-0.046,0.172c0.193-0.133,0.441-0.277,0.646-0.354c0.952-0.325,2.124-0.487,3.344-0.137
		C219.061,177.37,219.476,178.083,219.287,178.794z"/>
	<path fill="#FFFFFF" d="M231.748,186.141c-0.006,0.024-0.013,0.049-0.02,0.074l-1.541,5.813c-0.188,0.711-0.934,1.144-1.645,0.955
		c-0.688-0.182-1.168-0.94-0.979-1.651l1.541-5.813c0.007-0.024,0.013-0.049,0.02-0.074c0.333-1.355-0.503-2.759-1.877-3.123
		c-1.349-0.358-2.775,0.472-3.146,1.87l-1.541,5.813c-0.013,0.049-0.057,0.115-0.07,0.164c-0.006,0.025-0.02,0.074-0.02,0.074
		c-0.037,0.042-0.05,0.091-0.113,0.128c-0.006,0.024-0.02,0.073-0.032,0.122c-0.338,0.383-0.919,0.597-1.434,0.46
		c-0.099-0.025-0.166-0.07-0.24-0.09c-0.549-0.303-0.884-0.917-0.715-1.554l1.541-5.813c0.007-0.024,0.007-0.024,0.007-0.024
		l1.008-3.802c0.202-0.76,0.939-1.169,1.651-0.98c0.515,0.136,0.908,0.529,0.981,1.048c0.907-0.258,1.888-0.287,2.819-0.04
		c1.546,0.41,2.75,1.412,3.402,2.713c1.188-0.814,2.754-1.081,4.3-0.671c2.821,0.748,4.49,3.658,3.735,6.504l-1.541,5.813
		c-0.188,0.711-0.933,1.144-1.645,0.955s-1.168-0.94-0.979-1.651l1.541-5.813c0.371-1.397-0.458-2.825-1.808-3.183
		C233.551,183.994,232.154,184.806,231.748,186.141z"/>
	<path fill="#FFFFFF" d="M248.471,186.611l-2.537,9.565c-0.194,0.736-0.915,1.175-1.675,0.974c-0.736-0.195-1.168-0.94-0.974-1.676
		l2.537-9.566c0.208-0.785,0.945-1.193,1.682-0.998C248.264,185.113,248.679,185.826,248.471,186.611z M249.647,182.172
		c-0.195,0.735-0.922,1.199-1.682,0.998c-0.736-0.195-1.162-0.965-0.967-1.701l0.137-0.515c0.195-0.736,0.939-1.168,1.676-0.973
		c0.76,0.201,1.168,0.939,0.973,1.675L249.647,182.172z"/>
	<path fill="#FFFFFF" d="M261.794,195.263l-1.274,4.808c-0.188,0.71-0.934,1.144-1.645,0.956c-0.639-0.169-1.006-0.766-0.996-1.394
		c-1.108,0.415-2.315,0.515-3.542,0.19c-1.668-0.442-2.934-1.514-3.695-2.897c-0.756-1.407-0.966-3.09-0.523-4.758
		c0.449-1.692,1.466-3.051,2.812-3.875c1.354-0.848,2.99-1.176,4.658-0.733c1.227,0.325,2.22,1.035,2.977,1.944
		c0.309-0.574,0.923-0.91,1.562-0.741c0.711,0.188,1.144,0.934,0.948,1.669L261.794,195.263z M259.194,194.574
		c0.273-1.03,0.14-2.012-0.287-2.78c-0.413-0.818-1.156-1.383-2.015-1.61c-0.883-0.234-1.808-0.112-2.548,0.4
		c-0.751,0.457-1.328,1.249-1.602,2.279c-0.267,1.006-0.158,1.979,0.262,2.773c0.402,0.763,1.146,1.327,2.028,1.562
		c0.857,0.227,1.783,0.105,2.534-0.352C258.325,196.364,258.928,195.58,259.194,194.574z"/>
	<path fill="#FFFFFF" d="M275.438,193.683c-0.183,0.688-0.909,1.15-1.645,0.955c-0.564-0.149-1.094-0.132-1.596,0.076
		c-0.544,0.171-1.022,0.49-1.44,0.878c-0.797,0.629-1.338,1.483-1.552,1.794l-1.235,4.661c-0.188,0.711-0.958,1.137-1.693,0.941
		c-0.712-0.188-1.144-0.934-0.955-1.645l2.562-9.664c0.188-0.711,0.926-1.119,1.638-0.93c0.735,0.195,1.199,0.921,1.011,1.632
		l-0.046,0.172c0.193-0.133,0.441-0.277,0.646-0.354c0.952-0.325,2.124-0.487,3.344-0.137
		C275.212,192.258,275.627,192.972,275.438,193.683z"/>
	<path fill="#FFFFFF" d="M275.284,198.813c0.909-3.329,4.25-5.436,7.61-4.545c3.188,0.846,5.085,3.895,4.403,7.258
		c-0.007,0.024-0.02,0.073-0.033,0.122c-0.013,0.05-0.045,0.172-0.083,0.215c-0.229,0.569-0.85,0.825-1.536,0.643l-7.8-2.067
		c-0.027,0.597,0.074,1.306,0.404,1.84c0.359,0.726,1.224,1.427,2.062,1.728c0.864,0.308,1.977,0.367,2.714,0.063
		c0.657-0.403,1.645-0.062,1.857,0.414c0.229,0.429,0.278,1.229-0.423,1.595c-1.493,0.785-3.077,0.916-4.818,0.455
		C276.289,205.617,274.424,202.156,275.284,198.813z M278.275,198.32l6.941,1.841c0.016-1.046-0.852-2.825-2.94-3.562
		C280.166,196.145,278.738,197.367,278.275,198.32z"/>
	<path fill="#FFFFFF" d="M294.939,203.08l-0.423,1.595c-0.183,0.687-0.834,1.064-1.521,0.883c-0.638-0.169-1.065-0.833-0.883-1.521
		l0.676-2.551c0.007-0.025,0.032-0.019,0.039-0.043c-0.02-0.031-0.02-0.031-0.013-0.055c0.169-0.639,0.883-1.053,1.521-0.884
		c1.545,0.41,3.122-0.485,3.525-2.006c0.41-1.545-0.523-3.078-2.068-3.488c-1.006-0.267-2.03,0.039-2.712,0.725
		c-0.5,0.497-1.287,0.499-1.785,0c-0.474-0.494-0.481-1.257,0.019-1.754c1.287-1.287,3.229-1.875,5.116-1.374
		c2.846,0.754,4.564,3.677,3.81,6.522C299.596,201.559,297.363,203.146,294.939,203.08z M293.515,208.452l-0.117,0.441
		c-0.182,0.687-0.833,1.065-1.521,0.883c-0.638-0.169-1.065-0.833-0.884-1.521l0.117-0.441c0.176-0.662,0.883-1.052,1.521-0.883
		C293.318,207.113,293.69,207.79,293.515,208.452z"/>
	<path fill="#FFFFFF" d="M93.684,180.616l-1.021,3.853c-0.151,0.57-0.748,0.917-1.318,0.766c-0.511-0.135-0.806-0.613-0.798-1.116
		c-0.888,0.333-1.855,0.413-2.839,0.152c-1.336-0.354-2.351-1.212-2.961-2.321c-0.605-1.128-0.774-2.478-0.419-3.814
		c0.36-1.357,1.175-2.445,2.254-3.106c1.085-0.68,2.397-0.943,3.733-0.588c0.984,0.261,1.779,0.829,2.386,1.559
		c0.249-0.46,0.741-0.729,1.252-0.594c0.57,0.151,0.917,0.749,0.761,1.338L93.684,180.616z M91.601,180.063
		c0.219-0.826,0.111-1.612-0.23-2.229c-0.331-0.656-0.927-1.108-1.615-1.291c-0.707-0.188-1.449-0.09-2.042,0.321
		c-0.602,0.366-1.064,1.001-1.283,1.827c-0.214,0.807-0.127,1.587,0.209,2.223c0.322,0.612,0.918,1.064,1.625,1.251
		c0.688,0.183,1.431,0.085,2.032-0.282C90.903,181.499,91.387,180.87,91.601,180.063z"/>
	<path fill="#FFFFFF" d="M96.852,181.456c0.725-2.733,3.583-4.311,6.302-3.611c1.18,0.313,2.166,1.038,2.84,1.911
		c0.358,0.474,0.259,1.162-0.17,1.512c-0.518,0.367-1.168,0.279-1.526-0.195c-0.412-0.509-0.974-0.932-1.701-1.125
		c-1.593-0.422-3.259,0.546-3.66,2.06c-0.401,1.514,0.571,3.16,2.164,3.583c0.708,0.188,1.425,0.104,2.035-0.134
		c0.521-0.219,1.15,0.032,1.417,0.608c0.2,0.516-0.045,1.124-0.602,1.397c-1.009,0.386-2.224,0.526-3.403,0.213
		C97.834,186.956,96.138,184.149,96.852,181.456z"/>
	<path fill="#FFFFFF" d="M113.339,193.887l0.917-3.46c-0.884,0.313-1.871,0.388-2.854,0.127c-2.654-0.704-4.193-3.469-3.474-6.182
		c0.714-2.693,3.426-4.352,6.081-3.648c1.003,0.266,1.818,0.84,2.455,1.535c0.199-0.432,0.729-0.69,1.261-0.55
		c0.59,0.156,0.937,0.754,0.78,1.343l-1.022,3.854c-0.005,0.021-0.005,0.021-0.005,0.021l-1.997,7.529
		c-0.146,0.551-0.748,0.917-1.338,0.761C113.535,195.054,113.193,194.438,113.339,193.887z M113.447,182.847
		c-0.688-0.182-1.42-0.04-2.073,0.355c-0.597,0.348-1.124,0.986-1.322,1.733c-0.214,0.806-0.067,1.602,0.279,2.2
		c0.366,0.687,0.941,1.133,1.63,1.315c0.708,0.188,1.449,0.09,2.047-0.341c0.636-0.337,1.12-0.966,1.333-1.772
		c0.198-0.747,0.095-1.552-0.291-2.16C114.739,183.526,114.155,183.035,113.447,182.847z"/>
	<path fill="#FFFFFF" d="M124.146,193.933c-2.241-0.594-3.599-2.933-3.005-5.173l1.246-4.699c0.146-0.551,0.748-0.917,1.318-0.766
		c0.589,0.156,0.912,0.768,0.766,1.318l-1.246,4.699c-0.297,1.121,0.354,2.239,1.474,2.537c1.141,0.302,2.279-0.342,2.596-1.458
		l1.246-4.699c0.146-0.551,0.709-0.927,1.299-0.771c0.55,0.146,0.931,0.772,0.785,1.323l-1.246,4.699
		C128.784,193.185,126.406,194.532,124.146,193.933z"/>
	<path fill="#FFFFFF" d="M136.765,187.936l-2.033,7.668c-0.156,0.59-0.733,0.941-1.342,0.78c-0.59-0.157-0.937-0.753-0.78-1.343
		l2.033-7.668c0.167-0.629,0.758-0.956,1.348-0.8C136.599,186.735,136.932,187.307,136.765,187.936z M137.708,184.377
		c-0.156,0.59-0.739,0.962-1.347,0.801c-0.59-0.157-0.931-0.773-0.775-1.363l0.109-0.413c0.157-0.59,0.753-0.937,1.343-0.78
		c0.608,0.162,0.936,0.753,0.779,1.343L137.708,184.377z"/>
	<path fill="#FFFFFF" d="M138.106,194.625c0.48-0.378,1.184-0.254,1.517,0.234c0.397,0.568,1.162,1.255,1.934,1.438
		c0.531,0.141,1.069,0.094,1.436-0.019c0.338-0.164,0.469-0.339,0.511-0.496c0.026-0.099,0.017-0.143-0.007-0.212
		c-0.004-0.064-0.062-0.164-0.193-0.304c-0.222-0.27-0.755-0.643-1.426-0.967l-0.021-0.005c-0.577-0.279-1.125-0.593-1.575-0.965
		c-0.462-0.396-0.841-0.875-1.054-1.5c-0.122-0.411-0.125-0.875-0.006-1.327c0.24-0.904,0.955-1.535,1.734-1.855
		c0.812-0.29,1.707-0.326,2.611-0.086c1.356,0.36,2.147,1.264,2.663,1.864c0.388,0.439,0.354,1.125-0.072,1.539
		c-0.439,0.388-1.124,0.354-1.528-0.111c-0.521-0.58-0.987-1.04-1.616-1.207c-0.491-0.13-0.965-0.087-1.273,0.041
		c-0.303,0.109-0.408,0.271-0.435,0.369c-0.021,0.079-0.026,0.099-0.002,0.167c0.009,0.045,0.048,0.139,0.165,0.254
		c0.208,0.244,0.673,0.557,1.31,0.852l0.014,0.025l0.021,0.005c0.618,0.289,1.18,0.628,1.677,1.055
		c0.468,0.376,0.9,0.891,1.088,1.529c0.131,0.456,0.149,0.945,0.029,1.397c-0.255,0.963-1,1.629-1.843,1.953
		c-0.838,0.303-1.8,0.364-2.764,0.108c-1.528-0.426-2.52-1.446-3.14-2.284C137.521,195.648,137.639,194.965,138.106,194.625z"/>
	<path fill="#FFFFFF" d="M154.546,192.63c-0.157,0.59-0.796,0.945-1.387,0.789l-0.491-0.13l-1.455,5.485
		c0.609,0.162,0.952,0.779,0.79,1.388s-0.759,0.955-1.369,0.794c-1.199-0.317-1.922-1.562-1.604-2.761l1.455-5.485l-0.57-0.151
		c-0.608-0.161-0.951-0.777-0.794-1.367c0.162-0.609,0.759-0.957,1.368-0.795l0.57,0.151l0.756-2.851
		c0.162-0.61,0.779-0.951,1.388-0.79c0.608,0.161,0.956,0.758,0.794,1.368l-0.756,2.851l0.491,0.13
		C154.323,191.413,154.708,192.021,154.546,192.63z"/>
	<path fill="#FFFFFF" d="M164.693,199.445l-1.021,3.853c-0.151,0.57-0.748,0.917-1.318,0.766c-0.511-0.136-0.806-0.612-0.798-1.116
		c-0.887,0.333-1.855,0.412-2.838,0.152c-1.337-0.355-2.352-1.213-2.962-2.322c-0.605-1.128-0.774-2.478-0.419-3.814
		c0.36-1.357,1.175-2.445,2.254-3.106c1.085-0.68,2.397-0.943,3.734-0.588c0.983,0.261,1.779,0.83,2.385,1.558
		c0.249-0.46,0.741-0.729,1.252-0.594c0.57,0.151,0.917,0.749,0.761,1.338L164.693,199.445z M162.61,198.893
		c0.219-0.826,0.111-1.613-0.23-2.229c-0.331-0.655-0.927-1.108-1.614-1.291c-0.708-0.188-1.449-0.089-2.042,0.321
		c-0.603,0.366-1.065,1.001-1.284,1.828c-0.214,0.806-0.127,1.586,0.21,2.223c0.322,0.611,0.917,1.063,1.625,1.252
		c0.688,0.182,1.43,0.084,2.031-0.282C161.913,200.328,162.396,199.698,162.61,198.893z"/>
	<path fill="#FFFFFF" d="M177.044,207.959c-2.24-0.595-3.599-2.933-3.005-5.174l1.246-4.699c0.146-0.551,0.748-0.917,1.318-0.766
		c0.589,0.156,0.912,0.768,0.766,1.318l-1.246,4.699c-0.297,1.121,0.354,2.24,1.474,2.537c1.141,0.302,2.279-0.343,2.596-1.458
		l1.246-4.699c0.146-0.551,0.709-0.927,1.299-0.771c0.551,0.146,0.931,0.772,0.785,1.323l-1.246,4.699
		C181.682,207.211,179.305,208.559,177.044,207.959z"/>
	<path fill="#FFFFFF" d="M194.455,206.431l-1.246,4.699c-0.151,0.57-0.729,0.922-1.299,0.771c-0.55-0.146-0.917-0.748-0.766-1.318
		l1.246-4.699c0.292-1.1-0.397-2.23-1.518-2.527c-1.101-0.292-2.201,0.363-2.493,1.465l-1.246,4.698
		c-0.016,0.06-0.031,0.118-0.091,0.187c-0.223,0.446-0.755,0.704-1.266,0.569c-0.59-0.157-0.917-0.748-0.766-1.318l1.246-4.699
		l0.808-3.047c0.151-0.57,0.729-0.922,1.318-0.766c0.413,0.109,0.724,0.444,0.801,0.864c0.689-0.217,1.48-0.26,2.246-0.057
		C193.711,201.856,195.044,204.209,194.455,206.431z"/>
	<path fill="#FFFFFF" d="M204.613,206.682c1.192-4.406,5.844-7.014,10.308-5.854c1.961,0.52,3.571,1.639,4.687,3.104
		c0.416,0.587,0.299,1.391-0.25,1.842c-0.594,0.438-1.442,0.309-1.848-0.229c-0.769-1.062-1.881-1.811-3.263-2.177
		c-1.538-0.407-3.131-0.161-4.438,0.541c-1.274,0.759-2.253,1.931-2.655,3.446c-0.401,1.516-0.145,3.062,0.599,4.31
		c0.787,1.258,2.049,2.261,3.587,2.668c1.382,0.366,2.697,0.263,3.912-0.274c0.612-0.243,1.414,0.064,1.719,0.718
		c0.253,0.664-0.049,1.442-0.696,1.724c-1.694,0.721-3.647,0.894-5.608,0.373C206.208,215.691,203.46,211.123,204.613,206.682z"/>
	<path fill="#FFFFFF" d="M228.961,217.789l-5.416-1.436l-1.859,2.607c-0.332,0.437-0.875,0.603-1.366,0.473
		c-0.156-0.042-0.284-0.1-0.405-0.18c-0.582-0.416-0.704-1.212-0.31-1.799l8.405-11.82c0.331-0.438,0.902-0.62,1.389-0.467
		c0.518,0.113,0.902,0.549,0.974,1.093l1.445,14.433c0.051,0.705-0.45,1.336-1.162,1.409c-0.123,0.015-0.285-0.005-0.44-0.046
		c-0.491-0.13-0.881-0.543-0.93-1.081L228.961,217.789z M228.697,215.096l-0.534-5.271l-3.076,4.312L228.697,215.096z"/>
	<path fill="#FFFFFF" d="M245.24,224.062c0.052,0.705-0.489,1.302-1.195,1.353c-0.094-0.001-0.284-0.004-0.508-0.062
		c0,0,0,0-0.022-0.006c-0.223-0.06-0.544-0.193-0.804-0.477c-0.243-0.254-0.41-0.609-0.506-0.969
		c-0.142-0.729-0.084-1.572,0.241-2.798c0.09-0.43,0.077-0.743-0.014-1.029c-0.069-0.28-0.277-0.574-0.497-0.823
		c-0.386-0.437-0.917-0.769-1.106-0.867l-2.63-0.697l-1.282,4.837c-0.178,0.669-0.882,1.078-1.573,0.895
		c-0.69-0.183-1.077-0.882-0.899-1.551l3.486-13.148c0.183-0.69,0.858-1.084,1.55-0.901c0,0,0,0,0.023,0.007l3.965,1.052
		c2.652,0.703,4.203,3.404,3.5,6.056c-0.391,1.471-1.401,2.587-2.708,3.194c0.231,0.3,0.428,0.639,0.562,1.031
		c0.275,0.765,0.346,1.666,0.098,2.603c-0.2,0.662-0.245,1.104-0.26,1.338C244.988,223.303,245.206,223.646,245.24,224.062z
		 M244.494,214.275c0.344-1.293-0.41-2.59-1.681-2.927l-2.741-0.728l-1.218,4.592l2.741,0.727
		C242.866,216.276,244.164,215.523,244.494,214.275z"/>
	<path fill="#FFFFFF" d="M251.139,226.293c-0.178,0.669-0.882,1.078-1.528,0.907c-0.69-0.184-1.078-0.882-0.9-1.551l3.433-12.948
		c0,0,0,0,0.006-0.022c0.078-0.385,0.362-0.739,0.763-0.895c0.657-0.231,1.385,0.081,1.623,0.716l4.557,11.871l2.435-9.182
		c0.172-0.646,0.854-1.062,1.521-0.885c0.67,0.178,1.079,0.882,0.907,1.528l-3.433,12.948c-0.178,0.669-0.882,1.078-1.552,0.9
		c-0.355-0.095-0.643-0.361-0.795-0.688c-0.033-0.057-0.065-0.113-0.076-0.164l-4.508-11.785L251.139,226.293z"/>
	<path fill="#FFFFFF" d="M264.426,229.816l3.486-13.148c0.183-0.691,0.859-1.084,1.551-0.901l0.021,0.006c0,0,0,0,0.045,0.013
		l7.221,1.914c0.646,0.172,1.084,0.86,0.901,1.551c-0.184,0.691-0.91,1.094-1.557,0.923l-6.04-1.602l-1.081,4.079l5.192,1.377
		c0.669,0.177,1.072,0.904,0.901,1.551c-0.184,0.69-0.889,1.1-1.558,0.922l-5.192-1.377l-1.087,4.102l6.039,1.602
		c0.646,0.172,1.078,0.882,0.896,1.572c-0.178,0.669-0.904,1.072-1.551,0.9l-7.221-1.914c-0.045-0.012-0.039-0.034-0.039-0.034
		l-0.028,0.017C264.636,231.184,264.248,230.485,264.426,229.816z"/>
	<path fill="#FFFFFF" d="M290.339,223.949l-3.544-0.939l-3.155,11.901c-0.184,0.69-0.859,1.084-1.551,0.9
		c-0.669-0.178-1.084-0.859-0.9-1.551l3.155-11.9l-3.521-0.934c-0.69-0.184-1.072-0.905-0.895-1.573
		c0.183-0.69,0.859-1.084,1.551-0.9l9.516,2.522c0.668,0.178,1.084,0.86,0.901,1.552
		C291.718,223.695,291.007,224.127,290.339,223.949z"/>
</g>
</svg>
