<?xml version="1.0" encoding="utf-8"?>
<!-- Generator: Adobe Illustrator 19.1.0, SVG Export Plug-In . SVG Version: 6.00 Build 0)  -->
<svg version="1.1" id="Layer_1" xmlns="http://www.w3.org/2000/svg" xmlns:xlink="http://www.w3.org/1999/xlink" x="0px" y="0px"
	 viewBox="-229.2 180.7 308 308.1" style="enable-background:new -229.2 180.7 308 308.1;" xml:space="preserve">
<style type="text/css">
	.st0{fill:#FFFFFF;}
</style>
<g>
	<path d="M64.5,396.4l-3.4-7.1c-1-2-0.1-4.5,2-5.3l7.2-3.1c2.1-0.9,2.8-3.2,1.5-5.1l-4.3-6.5c-1.3-1.9-0.7-4.4,1.2-5.6l6.7-4.1
		c1.9-1.2,2.3-3.5,0.8-5.2l-5.2-5.8c-1.5-1.7-1.3-4.3,0.4-5.7l6-5c1.8-1.4,1.8-3.8,0-5.3l-6-5c-1.7-1.5-1.9-4-0.4-5.7l5.3-5.8
		c1.5-1.7,1.2-4-0.7-5.2l-6.6-4.1c-1.9-1.2-2.5-3.7-1.2-5.6l4.4-6.5c1.3-1.9,0.6-4.2-1.5-5.1l-7.2-3.1c-2.1-0.9-3-3.3-2-5.4l3.4-7
		c1-2,0-4.2-2.2-4.8l-7.5-2.1c-2.2-0.6-3.4-2.9-2.7-5l2.4-7.4c0.7-2.2-0.6-4.2-2.8-4.4l-7.8-1c-2.2-0.3-3.8-2.3-3.4-4.6l1.3-7.7
		c0.4-2.2-1.2-4-3.4-4l-7.8,0.1c-2.3,0-4.1-1.8-4-4.1l0.2-7.8c0.1-2.3-1.7-3.8-4-3.5l-7.7,1.2c-2.2,0.4-4.3-1.2-4.6-3.4l-0.9-7.8
		c-0.3-2.3-2.3-3.5-4.4-2.9l-7.5,2.3c-2.2,0.7-4.4-0.6-5-2.8l-2-7.6c-0.6-2.2-2.7-3.2-4.8-2.2l-7.1,3.4c-2,1-4.4,0.1-5.3-2l-3.1-7.2
		c-0.9-2.1-3.2-2.8-5-1.5l-6.5,4.3c-1.9,1.3-4.4,0.7-5.6-1.2l-4.1-6.7c-1.2-1.9-3.5-2.3-5.2-0.8l-5.8,5.2c-1.7,1.5-4.3,1.3-5.7-0.4
		l-5-6c-1.4-1.8-3.8-1.8-5.3,0l-5,6c-1.5,1.7-4,1.9-5.7,0.4l-5.8-5.3c-1.7-1.5-4-1.2-5.2,0.7l-4.1,6.6c-1.2,1.9-3.7,2.5-5.6,1.2
		l-6.5-4.4c-1.9-1.3-4.2-0.6-5.1,1.5l-3.1,7.2c-0.9,2.1-3.3,3-5.4,2l-7-3.4c-2-1-4.2,0-4.8,2.2l-2.1,7.5c-0.6,2.2-2.9,3.4-5,2.7
		l-7.4-2.4c-2.2-0.7-4.2,0.6-4.4,2.8l-1,7.8c-0.3,2.2-2.4,3.8-4.6,3.4l-7.7-1.3c-2.2-0.4-4,1.2-4,3.4l0.1,7.8c0,2.3-1.8,4.1-4.1,4
		l-7.8-0.2c-2.3-0.1-3.8,1.7-3.5,4l1.2,7.7c0.4,2.2-1.2,4.3-3.4,4.6l-7.8,0.9c-2.3,0.3-3.5,2.3-2.9,4.4l2.3,7.5
		c0.7,2.2-0.6,4.4-2.8,5l-7.6,2c-2.2,0.6-3.2,2.7-2.2,4.8l3.4,7.1c1,2,0.1,4.5-2,5.3l-7.2,3.1c-2.1,0.9-2.8,3.2-1.5,5l4.3,6.5
		c1.3,1.9,0.7,4.4-1.2,5.6l-6.7,4.1c-1.9,1.2-2.3,3.5-0.8,5.2l5.2,5.8c1.5,1.7,1.3,4.3-0.4,5.7l-6,5c-1.8,1.4-1.8,3.8,0,5.3l6,5
		c1.7,1.5,1.9,4,0.4,5.7l-5.3,5.8c-1.5,1.7-1.2,4,0.7,5.2l6.6,4.1c1.9,1.2,2.5,3.7,1.2,5.6l-4.4,6.5c-1.3,1.9-0.6,4.2,1.5,5.1
		l7.2,3.1c2.1,0.9,3,3.3,2,5.4l-3.4,7c-1,2,0,4.2,2.2,4.8l7.5,2.1c2.2,0.6,3.4,2.9,2.7,5l-2.4,7.4c-0.7,2.2,0.6,4.2,2.8,4.4l7.8,1
		c2.2,0.3,3.8,2.4,3.4,4.6l-1.3,7.7c-0.4,2.2,1.2,4,3.4,4l7.8-0.1c2.3,0,4.1,1.8,4,4.1l-0.2,7.8c-0.1,2.3,1.7,3.8,4,3.5l7.7-1.2
		c2.2-0.4,4.3,1.2,4.6,3.4l0.9,7.8c0.3,2.3,2.3,3.5,4.4,2.9l7.5-2.3c2.2-0.7,4.4,0.6,5,2.8l2,7.6c0.6,2.2,2.7,3.2,4.8,2.2l7.1-3.4
		c2-1,4.5-0.1,5.3,2l3.1,7.2c0.9,2.1,3.2,2.8,5.1,1.5l6.5-4.3c1.9-1.3,4.4-0.7,5.6,1.2l4.1,6.7c1.2,1.9,3.5,2.3,5.2,0.8l5.8-5.2
		c1.7-1.5,4.3-1.3,5.7,0.4l5,6c1.4,1.8,3.8,1.8,5.3,0l5-6c1.5-1.7,4-1.9,5.7-0.4l5.8,5.3c1.7,1.5,4,1.2,5.2-0.7l4.1-6.6
		c1.2-1.9,3.7-2.5,5.6-1.2l6.5,4.4c1.9,1.3,4.2,0.6,5.1-1.5l3.1-7.2c0.9-2.1,3.3-3,5.4-2l7,3.4c2,1,4.2,0,4.8-2.2l2.1-7.5
		c0.6-2.2,2.9-3.4,5-2.7l7.4,2.4c2.2,0.7,4.2-0.6,4.4-2.8l1-7.8c0.3-2.2,2.3-3.8,4.6-3.4l7.7,1.3c2.2,0.4,4-1.2,4-3.4l-0.1-7.8
		c0-2.3,1.8-4.1,4.1-4l7.8,0.2c2.3,0.1,3.8-1.7,3.5-4l-1.2-7.7c-0.4-2.2,1.2-4.3,3.4-4.5l7.8-0.9c2.3-0.3,3.5-2.3,2.9-4.4l-2.3-7.5
		c-0.7-2.2,0.6-4.4,2.8-5l7.6-2C64.5,400.6,65.5,398.5,64.5,396.4z M-131.2,455.7c-66.9-30.9-96-110.2-65-177
		c30.9-66.8,110.2-96,177-65c66.8,30.9,96,110.2,65,177C14.9,457.5-64.4,486.6-131.2,455.7z"/>
</g>
<g>
	<path d="M-162.3,243.6l-0.8-3.6c-0.8,0.7-1.5,1.4-2.2,2.1l0.9,3.5C-163.7,245-163,244.3-162.3,243.6z"/>
</g>
<g>
	<path d="M-166.2,247.5l-1-3.5c-0.7,0.7-1.5,1.5-2.2,2.2l1.1,3.4C-167.5,248.9-166.9,248.2-166.2,247.5z"/>
</g>
<g>
	<path d="M-158.2,239.9l-0.6-3.6c-0.8,0.7-1.6,1.3-2.3,2l0.8,3.5C-159.7,241.2-159,240.6-158.2,239.9z"/>
</g>
<g>
	<path d="M-154,236.4l-0.5-3.6c-0.8,0.6-1.6,1.3-2.4,1.9l0.6,3.6C-155.5,237.6-154.8,237-154,236.4z"/>
</g>
<g>
	<path d="M-145.1,229.9l-0.2-3.7c-0.9,0.6-1.7,1.1-2.6,1.7l0.3,3.6C-146.8,231-145.9,230.4-145.1,229.9z"/>
</g>
<g>
	<path d="M-149.6,233l-0.3-3.6c-0.8,0.6-1.7,1.2-2.5,1.8l0.5,3.6C-151.2,234.2-150.4,233.6-149.6,233z"/>
</g>
<g>
	<path d="M-169.9,251.6l-1.1-3.5c-0.7,0.8-1.4,1.5-2.1,2.3l1.2,3.4C-171.2,253.1-170.5,252.3-169.9,251.6z"/>
</g>
<g>
	<path d="M-179.9,264.7l-1.6-3.3c-0.6,0.9-1.2,1.7-1.7,2.6l1.7,3.2C-181,266.3-180.5,265.5-179.9,264.7z"/>
</g>
<g>
	<path d="M-200.4,320.6l-2.9-2.2c-0.1,1-0.2,2.1-0.4,3.1l3,2.1C-200.6,322.5-200.5,321.6-200.4,320.6z"/>
</g>
<g>
	<path d="M-173.4,255.8l-1.3-3.4c-0.7,0.8-1.3,1.6-2,2.4l1.4,3.3C-174.6,257.3-174,256.6-173.4,255.8z"/>
</g>
<g>
	<path d="M-176.8,260.2l-1.4-3.4c-0.6,0.8-1.2,1.7-1.8,2.5l1.5,3.3C-177.9,261.8-177.4,261-176.8,260.2z"/>
</g>
<g>
	<path d="M-115.6,215.4l0.8-3.6c-1,0.3-2,0.7-2.9,1l-0.6,3.6C-117.5,216-116.5,215.7-115.6,215.4z"/>
</g>
<g>
	<path d="M-99.7,211.1l1.2-3.4c-1,0.2-2,0.4-3.1,0.6l-1.1,3.4C-101.6,211.5-100.6,211.3-99.7,211.1z"/>
</g>
<g>
	<path d="M-105,212.3l1.1-3.5c-1,0.2-2,0.5-3,0.7l-0.9,3.5C-106.9,212.8-106,212.5-105,212.3z"/>
</g>
<g>
	<path d="M-110.3,213.7l0.9-3.5c-1,0.3-2,0.6-3,0.9l-0.8,3.5C-112.2,214.3-111.3,214-110.3,213.7z"/>
</g>
<g>
	<path d="M-94.2,210.2l1.4-3.4c-1,0.1-2,0.3-2.9,0.4c-0.1,0-0.1,0-0.2,0l-1.2,3.4C-96.2,210.5-95.2,210.3-94.2,210.2z"/>
</g>
<g>
	<path d="M-140.5,226.9l0-3.7c-0.5,0.3-1,0.6-1.5,0.9c-0.4,0.2-0.7,0.5-1.1,0.7l0.2,3.6C-142.2,228-141.3,227.5-140.5,226.9z"/>
</g>
<g>
	<path d="M-88.8,209.4l1.5-3.3c-1,0.1-2.1,0.2-3.1,0.3l-1.4,3.3C-90.7,209.7-89.8,209.5-88.8,209.4z"/>
</g>
<g>
	<path d="M-130.8,221.7l0.3-3.6c-0.9,0.4-1.9,0.9-2.8,1.4l-0.1,3.6C-132.6,222.6-131.7,222.1-130.8,221.7z"/>
</g>
<g>
	<path d="M-135.7,224.2l0.1-3.7c-0.9,0.5-1.8,1-2.7,1.5l0,3.6C-137.4,225.2-136.6,224.7-135.7,224.2z"/>
</g>
<g>
	<path d="M-200.4,348l-3.3-1.6c0.1,1,0.2,2.1,0.3,3.1l3.3,1.4C-200.2,350-200.3,349-200.4,348z"/>
</g>
<g>
	<path d="M-125.9,219.4l0.5-3.6c-1,0.4-1.9,0.8-2.9,1.2l-0.3,3.6C-127.7,220.2-126.8,219.7-125.9,219.4z"/>
</g>
<g>
	<path d="M-120.8,217.3l0.6-3.6c-1,0.4-1.9,0.7-2.9,1.1l-0.5,3.6C-122.6,218-121.7,217.6-120.8,217.3z"/>
</g>
<g>
	<path d="M-154.3,432.7l-3.4,1.3c0.8,0.7,1.6,1.3,2.4,2l3.3-1.4C-152.8,433.9-153.6,433.3-154.3,432.7z"/>
</g>
<g>
	<path d="M-173.7,413.2l-3.6,0.5c0.6,0.8,1.3,1.6,1.9,2.4l3.6-0.6C-172.4,414.8-173,414-173.7,413.2z"/>
</g>
<g>
	<path d="M-166.4,421.5l-3.6,0.8c0.7,0.8,1.4,1.5,2.1,2.3l3.5-0.9C-165.1,422.9-165.7,422.2-166.4,421.5z"/>
</g>
<g>
	<path d="M-177,408.9l-3.6,0.3c0.6,0.9,1.2,1.7,1.8,2.5l3.6-0.5C-175.8,410.5-176.4,409.7-177,408.9z"/>
</g>
<g>
	<path d="M-170.1,417.5l-3.6,0.6c0.7,0.8,1.3,1.6,2,2.3l3.5-0.8C-168.8,418.9-169.5,418.2-170.1,417.5z"/>
</g>
<g>
	<path d="M-183.1,399.7h-3.7c0.5,0.9,1.1,1.8,1.6,2.7l3.6-0.2C-182.1,401.4-182.6,400.6-183.1,399.7z"/>
</g>
<g>
	<path d="M-180.1,404.4l-3.7,0.2c0.5,0.8,1,1.6,1.5,2.3c0.1,0.1,0.1,0.2,0.2,0.3l3.6-0.3C-179,406-179.6,405.2-180.1,404.4z"/>
</g>
<g>
	<path d="M-83.3,209l1.7-3.2c-1,0.1-2.1,0.1-3.1,0.2l-1.5,3.3C-85.3,209.1-84.3,209-83.3,209z"/>
</g>
<g>
	<path d="M-150,436l-3.4,1.4c0.8,0.6,1.7,1.2,2.5,1.8l3.3-1.5C-148.4,437.2-149.2,436.6-150,436z"/>
</g>
<g>
	<path d="M-145.5,439.2l-3.3,1.5c0.5,0.3,0.9,0.7,1.4,1c0.4,0.3,0.8,0.5,1.1,0.8l3.2-1.7C-143.9,440.3-144.7,439.8-145.5,439.2z"/>
</g>
<g>
	<path d="M-185.8,395l-3.7-0.2c0.5,0.9,1,1.8,1.5,2.7h3.6C-184.9,396.7-185.3,395.8-185.8,395z"/>
</g>
<g>
	<path d="M-162.5,425.4l-3.5,0.9c0.7,0.7,1.5,1.4,2.2,2.2l3.4-1.1C-161.1,426.8-161.8,426.1-162.5,425.4z"/>
</g>
<g>
	<path d="M-158.5,429.1l-3.5,1.1c0.8,0.7,1.5,1.4,2.3,2.1l3.4-1.2C-157,430.4-157.8,429.8-158.5,429.1z"/>
</g>
<g>
	<path d="M-200.7,326l-3-2.1c-0.1,1-0.2,2.1-0.2,3.1l3.1,1.9C-200.9,328-200.8,327-200.7,326z"/>
</g>
<g>
	<path d="M-199.8,353.5l-3.4-1.4c0.1,1,0.3,2,0.5,3.1l3.4,1.2C-199.5,355.4-199.6,354.4-199.8,353.5z"/>
</g>
<g>
	<path d="M-188.3,390.1l-3.6-0.3c0.4,0.9,0.9,1.9,1.4,2.8l3.6,0.2C-187.5,391.8-187.9,391-188.3,390.1z"/>
</g>
<g>
	<path d="M-201,331.5l-3.1-2c0,1-0.1,2.1-0.1,3.1l3.1,1.8C-201,333.5-201,332.5-201,331.5z"/>
</g>
<g>
	<path d="M-198.8,358.9l-3.4-1.3c0.2,1,0.4,2,0.6,3l3.4,1.1C-198.4,360.8-198.6,359.9-198.8,358.9z"/>
</g>
<g>
	<path d="M-197.6,364.3l-3.5-1.1c0.2,1,0.5,2,0.7,3l3.5,0.9C-197.2,366.2-197.4,365.2-197.6,364.3z"/>
</g>
<g>
	<path d="M-201,337l-3.2-1.8c0,1,0,2.1,0,3.1l3.2,1.7C-201,339-201,338-201,337z"/>
</g>
<g>
	<path d="M-192.7,380l-3.6-0.6c0.4,1,0.7,1.9,1.1,2.9l3.6,0.5C-192,381.8-192.4,380.9-192.7,380z"/>
</g>
<g>
	<path d="M-190.7,385.1l-3.6-0.5c0,0.1,0.1,0.2,0.1,0.3c0.4,0.8,0.7,1.7,1.1,2.5l3.6,0.3C-189.9,386.9-190.3,386-190.7,385.1z"/>
</g>
<g>
	<path d="M-194.6,374.8l-3.6-0.8c0.3,1,0.6,2,1,2.9l3.6,0.6C-194,376.7-194.3,375.8-194.6,374.8z"/>
</g>
<g>
	<path d="M-196.3,369.6l-3.5-0.9c0.3,1,0.6,2,0.9,3l3.5,0.8C-195.7,371.5-196,370.5-196.3,369.6z"/>
</g>
<g>
	<path d="M-200.8,342.5l-3.3-1.7c0.1,1,0.1,2.1,0.2,3.1l3.3,1.5C-200.7,344.5-200.7,343.5-200.8,342.5z"/>
</g>
<g>
	<path d="M40.2,284.2l3.6,0.5c-0.4-1-0.8-1.9-1.2-2.9l-3.6-0.3C39.4,282.4,39.8,283.3,40.2,284.2z"/>
</g>
<g>
	<path d="M49.3,315.8l3.4,1.4c-0.1-1-0.3-2.1-0.5-3.1l-3.4-1.2C49,313.9,49.2,314.8,49.3,315.8z"/>
</g>
<g>
	<path d="M47.2,305l3.5,1.1c-0.2-1-0.5-2-0.7-3l-3.5-0.9C46.7,303.1,47,304.1,47.2,305z"/>
</g>
<g>
	<path d="M48.4,310.4l3.4,1.2c-0.2-1-0.4-2-0.6-3.1l-3.4-1.1C48,308.5,48.2,309.4,48.4,310.4z"/>
</g>
<g>
	<path d="M50.5,326.7l3.2,1.7c-0.1-1-0.1-2.1-0.2-3.1l-3.3-1.5C50.4,324.8,50.5,325.8,50.5,326.7z"/>
</g>
<g>
	<path d="M35.4,274.3l3.7,0.1c-0.5-0.9-1-1.8-1.5-2.7l-3.6,0C34.4,272.6,34.9,273.5,35.4,274.3z"/>
</g>
<g>
	<path d="M50.1,321.3l3.3,1.5c-0.1-1-0.2-2.1-0.3-3.1l-3.3-1.4C49.8,319.3,50,320.3,50.1,321.3z"/>
</g>
<g>
	<path d="M45.8,299.7l3.5,0.9c-0.3-1-0.6-2-0.9-3l-3.5-0.8C45.2,297.8,45.5,298.8,45.8,299.7z"/>
</g>
<g>
	<path d="M37.9,279.2l3.6,0.3c-0.4-0.9-0.9-1.9-1.4-2.8l-3.6-0.1C37,277.5,37.5,278.3,37.9,279.2z"/>
</g>
<g>
	<path d="M-140.9,442.2l-3.2,1.7c0.9,0.6,1.8,1.1,2.6,1.6l3.1-1.8C-139.2,443.2-140,442.7-140.9,442.2z"/>
</g>
<g>
	<path d="M44.2,294.5l3.6,0.8c-0.3-1-0.6-2-1-2.9l-3.6-0.6C43.5,292.6,43.8,293.5,44.2,294.5z"/>
</g>
<g>
	<path d="M42.3,289.3l3.6,0.6c-0.4-1-0.7-1.9-1.1-2.9l-3.6-0.5C41.6,287.5,41.9,288.4,42.3,289.3z"/>
</g>
<g>
	<path d="M50.8,332.2l3.2,1.8c0-1,0-2.1-0.1-3.1l-3.2-1.7C50.7,330.3,50.7,331.2,50.8,332.2z"/>
</g>
<g>
	<path d="M50.1,321.6l3.3,1.5c-0.1-1-0.2-2.1-0.3-3.1l-3.3-1.4C49.9,319.7,50,320.6,50.1,321.6z"/>
</g>
<g>
	<path d="M50.5,327.1l3.2,1.7c0-1-0.1-2.1-0.2-3.1l-3.3-1.5C50.4,325.1,50.5,326.1,50.5,327.1z"/>
</g>
<g>
	<path d="M50.7,338.1l3.1,2c0-1,0.1-2.1,0.1-3.1l-3.1-1.8C50.7,336.1,50.7,337.1,50.7,338.1z"/>
</g>
<g>
	<path d="M50.7,337.7l3.1,2c0-0.2,0-0.4,0-0.7c0-0.8,0-1.6,0.1-2.4l-3.1-1.8C50.8,335.8,50.8,336.8,50.7,337.7z"/>
</g>
<g>
	<path d="M50.7,332.6l3.2,1.8c0-1,0-2.1,0-3.1l-3.2-1.7C50.7,330.6,50.7,331.6,50.7,332.6z"/>
</g>
<g>
	<path d="M45.7,370.2l2.5,2.7c0.3-1,0.6-2,0.9-3l-2.6-2.6C46.2,368.3,45.9,369.3,45.7,370.2z"/>
</g>
<g>
	<path d="M50,348.7l2.9,2.2c0.1-1,0.2-2,0.4-3.1l-3-2.1C50.2,346.7,50.1,347.7,50,348.7z"/>
</g>
<g>
	<path d="M50.5,343.2l3,2.1c0.1-1,0.2-2.1,0.2-3.1l-3.1-1.9C50.6,341.3,50.6,342.2,50.5,343.2z"/>
</g>
<g>
	<path d="M-77.8,208.7l1.8-3.2c-1,0-2.1,0-3.1,0.1l-1.7,3.2C-79.8,208.8-78.8,208.7-77.8,208.7z"/>
</g>
<g>
	<path d="M47.1,364.9l2.6,2.6c0.3-1,0.5-2,0.8-3l-2.7-2.4C47.6,363,47.3,363.9,47.1,364.9z"/>
</g>
<g>
	<path d="M49.3,354.1l2.8,2.3c0.2-1,0.3-2,0.5-3.1l-2.9-2.2C49.6,352.2,49.4,353.2,49.3,354.1z"/>
</g>
<g>
	<path d="M48.3,359.5L51,362c0.2-1,0.4-2,0.6-3l-2.8-2.3C48.7,357.6,48.5,358.6,48.3,359.5z"/>
</g>
<g>
	<path d="M-39.8,213.8l2.7-2.5c-1-0.3-2-0.6-3-0.9l-2.6,2.6C-41.6,213.2-40.7,213.5-39.8,213.8z"/>
</g>
<g>
	<path d="M-34.5,215.5l2.8-2.4c-1-0.4-2-0.7-2.9-1l-2.7,2.5C-36.4,214.8-35.4,215.1-34.5,215.5z"/>
</g>
<g>
	<path d="M-29.4,217.4l2.9-2.2c-1-0.4-1.9-0.8-2.9-1.1l-2.8,2.3C-31.2,216.6-30.3,217-29.4,217.4z"/>
</g>
<g>
	<path d="M-19.3,221.8l3.1-2c-0.9-0.5-1.9-0.9-2.8-1.4l-3,2.1C-21.1,220.9-20.2,221.4-19.3,221.8z"/>
</g>
<g>
	<path d="M-24.3,219.5l3-2.1c-0.9-0.4-1.9-0.9-2.8-1.3l-2.9,2.2C-26.1,218.7-25.2,219.1-24.3,219.5z"/>
</g>
<g>
	<path d="M-45.1,212.4l2.6-2.6c-1-0.3-2-0.5-3-0.8l-2.4,2.7C-47,211.9-46,212.1-45.1,212.4z"/>
</g>
<g>
	<path d="M-72.3,208.7l2-3.1c-0.2,0-0.4,0-0.5,0c-0.9,0-1.7,0-2.6-0.1l-1.8,3.1C-74.3,208.7-73.3,208.7-72.3,208.7z"/>
</g>
<g>
	<path d="M-66.8,209l2.1-3c-1-0.1-2.1-0.2-3.1-0.2l-1.9,3.1C-68.8,208.8-67.8,208.9-66.8,209z"/>
</g>
<g>
	<path d="M-50.4,211.2l2.5-2.7c-1-0.2-2-0.4-3-0.6l-2.3,2.8C-52.4,210.8-51.4,211-50.4,211.2z"/>
</g>
<g>
	<path d="M-61.3,209.5l2.2-2.9c-1-0.1-2.1-0.2-3.1-0.3l-2.1,3C-63.3,209.3-62.3,209.3-61.3,209.5z"/>
</g>
<g>
	<path d="M-55.8,210.2l2.3-2.8c-1-0.2-2-0.3-3.1-0.5l-2.2,2.9C-57.8,209.9-56.8,210-55.8,210.2z"/>
</g>
<g>
	<path d="M19.7,251.8l3.6-0.6c-0.7-0.8-1.4-1.6-2-2.4l-3.5,0.8C18.4,250.3,19.1,251.1,19.7,251.8z"/>
</g>
<g>
	<path d="M32.6,269.6l3.7,0c-0.3-0.6-0.7-1.2-1-1.7c-0.2-0.3-0.4-0.6-0.6-0.9l-3.6,0.2C31.6,267.9,32.1,268.7,32.6,269.6z"/>
</g>
<g>
	<path d="M23.2,256l3.6-0.5c-0.6-0.8-1.3-1.6-1.9-2.4l-3.6,0.6C22,254.5,22.6,255.3,23.2,256z"/>
</g>
<g>
	<path d="M29.7,264.9l3.6-0.2c-0.6-0.9-1.1-1.7-1.7-2.6l-3.6,0.3C28.6,263.3,29.1,264.1,29.7,264.9z"/>
</g>
<g>
	<path d="M16,247.8l3.6-0.8c-0.7-0.8-1.4-1.5-2.1-2.3l-3.5,0.9C14.6,246.3,15.3,247,16,247.8z"/>
</g>
<g>
	<path d="M26.6,260.4l3.6-0.3c-0.6-0.8-1.2-1.7-1.8-2.5l-3.6,0.5C25.4,258.8,26,259.6,26.6,260.4z"/>
</g>
<g>
	<path d="M8.1,240.1l3.5-1.1c-0.8-0.7-1.5-1.4-2.3-2.1l-3.4,1.2C6.6,238.8,7.3,239.5,8.1,240.1z"/>
</g>
<g>
	<path d="M-9.7,227.1l3.2-1.7c-0.9-0.5-1.8-1.1-2.7-1.6l-3.1,1.8C-11.3,226.1-10.5,226.6-9.7,227.1z"/>
</g>
<g>
	<path d="M-5,230.1l3.3-1.6c-0.9-0.6-1.7-1.2-2.6-1.7l-3.2,1.7C-6.7,229-5.8,229.5-5,230.1z"/>
</g>
<g>
	<path d="M-0.5,233.2l3.4-1.4c-0.8-0.6-1.7-1.2-2.5-1.8l-3.3,1.5C-2.1,232.1-1.3,232.6-0.5,233.2z"/>
</g>
<g>
	<path d="M-14.4,224.4l3.2-1.8c-0.9-0.5-1.8-1-2.7-1.5l-3,2C-16.1,223.4-15.3,223.9-14.4,224.4z"/>
</g>
<g>
	<path d="M12.1,243.9l3.5-1c-0.7-0.7-1.5-1.4-2.2-2.2l-3.4,1.1C10.7,242.5,11.4,243.2,12.1,243.9z"/>
</g>
<g>
	<path d="M3.9,236.6l3.4-1.3c-0.8-0.7-1.6-1.3-2.4-2l-3.3,1.4C2.3,235.4,3.1,236,3.9,236.6z"/>
</g>
<g>
	<path d="M48.2,359.9l2.7,2.5c0.2-1,0.4-2,0.6-3l-2.8-2.3C48.6,358,48.4,358.9,48.2,359.9z"/>
</g>
<g>
	<path d="M39.9,386l2.1,3c0.4-0.9,0.9-1.9,1.3-2.8l-2.2-2.9C40.7,384.2,40.3,385.1,39.9,386z"/>
</g>
<g>
	<path d="M42,380.9l2.2,2.9c0.4-1,0.8-1.9,1.1-2.9l-2.3-2.8C42.7,379.1,42.4,380,42,380.9z"/>
</g>
<g>
	<path d="M-56.5,459.2l-1.4,3.4c1-0.1,2-0.3,3.1-0.4l1.2-3.4C-54.5,458.9-55.5,459.1-56.5,459.2z"/>
</g>
<g>
	<path d="M-100.2,458.1l-2.5,2.7c1,0.2,2,0.4,3,0.6l2.3-2.8C-98.3,458.5-99.2,458.3-100.2,458.1z"/>
</g>
<g>
	<path d="M45.6,370.5l2.5,2.7c0.3-1,0.6-2,0.9-3l-2.6-2.6C46.1,368.7,45.9,369.6,45.6,370.5z"/>
</g>
<g>
	<path d="M47,365.2l2.6,2.6c0.3-1,0.5-2,0.8-3l-2.7-2.5C47.5,363.3,47.3,364.3,47,365.2z"/>
</g>
<g>
	<path d="M-110.8,455.5l-2.7,2.5c1,0.3,2,0.6,3,0.9l2.6-2.6C-109,456.1-109.9,455.8-110.8,455.5z"/>
</g>
<g>
	<path d="M43.9,375.8l2.4,2.8c0.4-1,0.7-1.9,1-2.9l-2.5-2.7C44.5,373.9,44.2,374.8,43.9,375.8z"/>
</g>
<g>
	<path d="M19.1,418.1l1.1,3.5c0.7-0.8,1.4-1.5,2.1-2.3l-1.2-3.4C20.4,416.7,19.8,417.4,19.1,418.1z"/>
</g>
<g>
	<path d="M-105.5,456.9l-2.6,2.6c1,0.3,2,0.5,3,0.8l2.5-2.7C-103.6,457.4-104.6,457.2-105.5,456.9z"/>
</g>
<g>
	<path d="M37.5,390.9l2,3.1c0.5-0.9,0.9-1.8,1.4-2.8l-2.1-3C38.4,389.2,38,390.1,37.5,390.9z"/>
</g>
<g>
	<path d="M-67.4,460.4l-1.7,3.2c1-0.1,2.1-0.1,3.1-0.2l1.5-3.3C-65.4,460.3-66.4,460.3-67.4,460.4z"/>
</g>
<g>
	<path d="M-72.9,460.6l-1.8,3.2c1,0,2.1,0,3.1,0l1.7-3.2C-70.9,460.6-71.9,460.6-72.9,460.6z"/>
</g>
<g>
	<path d="M29.2,405.1l1.5,3.3c0.4-0.5,0.7-1.1,1.1-1.6c0.2-0.3,0.4-0.6,0.6-1l-1.7-3.2C30.3,403.5,29.8,404.3,29.2,405.1z"/>
</g>
<g>
	<path d="M-83.9,460.3l-2.1,3c1,0.1,2.1,0.2,3.1,0.2l1.9-3.1C-81.9,460.5-82.9,460.4-83.9,460.3z"/>
</g>
<g>
	<path d="M32.2,400.5l1.7,3.2c0.6-0.9,1.1-1.8,1.6-2.6l-1.8-3.1C33.2,398.8,32.7,399.7,32.2,400.5z"/>
</g>
<g>
	<path d="M-78.4,460.6l-2,3.1c1,0,2.1,0.1,3.1,0.1l1.8-3.1C-76.4,460.6-77.4,460.6-78.4,460.6z"/>
</g>
<g>
	<path d="M22.7,413.9l1.2,3.4c0.7-0.8,1.3-1.6,2-2.4l-1.4-3.3C23.9,412.4,23.3,413.2,22.7,413.9z"/>
</g>
<g>
	<path d="M-94.8,459.1l-2.4,2.8c1,0.2,2,0.3,3.1,0.5l2.2-2.9C-92.8,459.4-93.8,459.3-94.8,459.1z"/>
</g>
<g>
	<path d="M35,395.8l1.8,3.2c0.5-0.9,1-1.8,1.5-2.7l-1.9-3C35.9,394.1,35.4,394.9,35,395.8z"/>
</g>
<g>
	<path d="M-89.3,459.8l-2.2,2.9c1,0.1,2.1,0.2,3.1,0.4l2.1-3C-87.4,460-88.4,460-89.3,459.8z"/>
</g>
<g>
	<path d="M-61.9,459.9l-1.6,3.3c1-0.1,2.1-0.2,3.1-0.3l1.4-3.3C-60,459.7-61,459.8-61.9,459.9z"/>
</g>
<g>
	<path d="M26,409.6l1.4,3.4c0.6-0.8,1.2-1.6,1.9-2.5l-1.5-3.3C27.2,408,26.6,408.8,26,409.6z"/>
</g>
<g>
	<path d="M-1.1,436.6l0.3,3.6c0.8-0.6,1.7-1.2,2.5-1.8l-0.5-3.6C0.4,435.4-0.3,436-1.1,436.6z"/>
</g>
<g>
	<path d="M-5.6,439.7l0.2,3.7c0.8-0.5,1.7-1.1,2.5-1.6c0,0,0.1-0.1,0.1-0.1l-0.3-3.6C-4,438.6-4.8,439.2-5.6,439.7z"/>
</g>
<g>
	<path d="M-126.3,449.8l-3,2.1c0.9,0.4,1.9,0.9,2.8,1.3l2.9-2.2C-124.5,450.6-125.4,450.2-126.3,449.8z"/>
</g>
<g>
	<path d="M-131.3,447.5l-3.1,2c0.9,0.5,1.8,0.9,2.8,1.4l3-2.1C-129.5,448.4-130.4,447.9-131.3,447.5z"/>
</g>
<g>
	<path d="M-35.2,454.1l-0.8,3.6c1-0.3,2-0.6,2.9-1l0.6-3.6C-33.3,453.5-34.2,453.8-35.2,454.1z"/>
</g>
<g>
	<path d="M-10.3,442.6v3.7c0.9-0.5,1.8-1.1,2.7-1.6l-0.2-3.6C-8.6,441.6-9.5,442.1-10.3,442.6z"/>
</g>
<g>
	<path d="M-136.1,444.9l-3.2,1.8c0.9,0.5,1.8,1,2.7,1.5l3.1-1.9C-134.4,445.9-135.3,445.4-136.1,444.9z"/>
</g>
<g>
	<path d="M3.2,433.2l0.5,3.6c0.8-0.6,1.6-1.3,2.4-1.9l-0.6-3.6C4.8,432,4,432.6,3.2,433.2z"/>
</g>
<g>
	<path d="M-19.9,447.9l-0.3,3.6c0.9-0.4,1.9-0.9,2.8-1.4l0.2-3.6C-18.2,447-19.1,447.5-19.9,447.9z"/>
</g>
<g>
	<path d="M-15.1,445.4l-0.2,3.7c0.9-0.5,1.8-1,2.7-1.5v-3.6C-13.3,444.4-14.2,444.9-15.1,445.4z"/>
</g>
<g>
	<path d="M-30,452.3l-0.6,3.6c1-0.4,1.9-0.7,2.9-1.1l0.5-3.6C-28.2,451.6-29.1,451.9-30,452.3z"/>
</g>
<g>
	<path d="M-24.9,450.2l-0.5,3.6c0.1-0.1,0.3-0.1,0.5-0.2c0.8-0.3,1.6-0.7,2.4-1l0.3-3.6C-23.1,449.4-24,449.8-24.9,450.2z"/>
</g>
<g>
	<path d="M49.9,349l2.9,2.2c0.1-1,0.2-2.1,0.4-3.1l-3-2.1C50.2,347.1,50.1,348,49.9,349z"/>
</g>
<g>
	<path d="M11.5,426l0.8,3.6c0.8-0.7,1.5-1.4,2.3-2.1l-0.9-3.5C12.9,424.7,12.2,425.4,11.5,426z"/>
</g>
<g>
	<path d="M15.4,422.2l0.9,3.5c0.7-0.7,1.4-1.5,2.2-2.2l-1.1-3.4C16.8,420.7,16.1,421.5,15.4,422.2z"/>
</g>
<g>
	<path d="M-51.1,458.3l-1.3,3.4c1-0.2,2-0.4,3-0.6l1.1-3.5C-49.2,457.9-50.1,458.1-51.1,458.3z"/>
</g>
<g>
	<path d="M-116.1,453.8l-2.8,2.3c1,0.4,1.9,0.7,2.9,1l2.7-2.5C-114.2,454.5-115.1,454.2-116.1,453.8z"/>
</g>
<g>
	<path d="M7.4,429.7l0.6,3.6c0.8-0.7,1.6-1.3,2.3-2l-0.8-3.5C8.9,428.4,8.2,429.1,7.4,429.7z"/>
</g>
<g>
	<path d="M-40.4,455.8l-0.9,3.5c1-0.3,2-0.5,3-0.8l0.8-3.5C-38.5,455.2-39.5,455.5-40.4,455.8z"/>
</g>
<g>
	<path d="M-121.2,451.9l-2.9,2.2c1,0.4,1.9,0.8,2.9,1.1l2.8-2.3C-119.4,452.7-120.3,452.3-121.2,451.9z"/>
</g>
<g>
	<path d="M-45.7,457.2l-1.1,3.5c1-0.2,2-0.5,3-0.7l0.9-3.5C-43.8,456.7-44.8,456.9-45.7,457.2z"/>
</g>
<g>
	<path d="M49.2,354.5l2.8,2.4c0.2-1,0.3-2,0.5-3.1l-2.9-2.2C49.5,352.5,49.4,353.5,49.2,354.5z"/>
</g>
<g>
	<path d="M50.6,340.6c0,1-0.1,2-0.2,2.9l3,2.1c0.1-1,0.2-2.1,0.2-3.1L50.6,340.6z"/>
</g>
<g>
	<path d="M-23.8,223.6c-61.4-28.4-134.1-1.7-162.5,59.7s-1.7,134.1,59.7,162.5c61.4,28.4,134.1,1.7,162.5-59.7S37.6,252-23.8,223.6z
		 M-27.9,232.4c33.6,15.5,55.9,45.5,63,79.2c0.6,2.8,1,4.2-1.2,6.1c-1.3,1.2-4.2,0.6-4.2,0.6l-189-50.1c0,0-2.7-0.4-3.2-1.9
		c-0.7-2,0-3,1.3-4.5C-129.3,224-74.9,210.6-27.9,232.4z M-122.5,437c-34.6-16-57.2-47.3-63.6-82.1c-0.3-1.5-0.4-2.2,0.8-3.3
		c1-0.8,3.4-0.1,3.4-0.1L9.8,402.3c0,0,1.9,0.5,2.3,1.5c0.5,1.4,0.2,2-0.8,3.2C-20.6,445.2-75.3,458.9-122.5,437z"/>
</g>
<g>
	<path class="st0" d="M-158,284.5l3,0.8l0.5,7.6c0,0.7-0.1,1.8-0.1,1.8l0,0c0,0,0.5-1,0.9-1.6l4.2-6.4l3,0.8l-7.1,10.3l-3.3-0.9
		L-158,284.5z"/>
	<path class="st0" d="M-145.1,287.9l2.8,0.7l-1.8,6.7c-0.4,1.4-0.3,2.4,1.1,2.8c2,0.5,3.7-1,4.2-3l1.4-5.2l2.8,0.7l-3,11.3l-2.7-0.7
		l0.3-1.3c0.1-0.4,0.3-0.8,0.3-0.8l0,0c-0.9,1-2.6,1.8-4.6,1.3c-2.4-0.6-3.6-2.3-2.8-5.4L-145.1,287.9z"/>
	<path class="st0" d="M-126,292.7c3.5,0.9,5.6,4.1,4.7,7.6c-0.9,3.5-4.4,5.2-7.8,4.3c-3.5-0.9-5.6-4.1-4.7-7.6
		C-132.8,293.5-129.4,291.8-126,292.7z M-128.5,302.2c1.8,0.5,3.7-0.5,4.3-2.6c0.6-2.1-0.6-3.9-2.4-4.4c-1.8-0.5-3.8,0.5-4.3,2.6
		C-131.5,299.8-130.3,301.7-128.5,302.2z"/>
	<path class="st0" d="M-117.5,295.2l2.8,0.7l-3,11.3l-2.8-0.8L-117.5,295.2z M-116.3,290.8l2.8,0.7l-0.7,2.5l-2.8-0.7L-116.3,290.8z
		"/>
	<path class="st0" d="M-106.2,298.2l2.7,0.7l-0.5,2c-0.1,0.4-0.3,0.8-0.3,0.8l0,0c0.9-1.5,2.6-2.4,4.4-2c0.3,0.1,0.5,0.2,0.5,0.2
		l-0.7,2.8c0,0-0.3-0.1-0.7-0.2c-1.2-0.3-2.7,0-3.7,1.6c-0.3,0.5-0.6,1.1-0.7,1.8l-1.2,4.5l-2.8-0.8L-106.2,298.2z"/>
	<path class="st0" d="M-97.4,300.5l2.8,0.8l-3,11.3l-2.8-0.7L-97.4,300.5z M-96.3,296.1l2.8,0.7l-0.7,2.5l-2.8-0.7L-96.3,296.1z"/>
	<path class="st0" d="M-93.3,310.2c0,0,0.9,1.6,2.8,2.1c0.8,0.2,1.6,0,1.8-0.6c0.4-1.7-5.1-2.9-4.2-6.6c0.6-2.1,2.8-2.8,5.2-2.2
		c2.6,0.7,3.5,2.3,3.5,2.3l-1.6,1.8c0,0-0.8-1.3-2.5-1.7c-0.7-0.2-1.5-0.1-1.7,0.6c-0.4,1.6,5.1,2.9,4.2,6.5c-0.5,1.9-2.5,3-5.2,2.2
		c-2.8-0.7-4-2.8-4-2.8L-93.3,310.2z"/>
	<path class="st0" d="M-81.5,304.8l2.6,0.7l-0.2,0.8c-0.1,0.4-0.3,0.8-0.3,0.8l0,0c0,0,1.5-1.6,4.1-0.9c3.1,0.8,4.4,3.8,3.4,7.3
		c-1,3.6-3.8,5.4-6.8,4.6c-2.2-0.6-2.8-2.4-2.8-2.4l0,0c0,0-0.1,0.4-0.2,1l-1.3,4.8l-2.8-0.7L-81.5,304.8z M-78.4,315.5
		c1.6,0.4,3.2-0.5,3.8-2.8c0.6-2.2-0.2-3.9-1.9-4.3c-1.5-0.4-3.1,0.3-3.8,2.8C-80.7,313-80.2,315-78.4,315.5z"/>
	<path class="st0" d="M-63.2,314.1l0.4,0.1l0-0.2c0.4-1.5-0.4-2.2-1.6-2.6c-1.6-0.4-3.4,0.3-3.4,0.3l-0.5-2.3c0,0,2.1-0.9,4.8-0.2
		c3,0.8,4.3,2.9,3.5,5.8l-1.9,7.1l-2.6-0.7l0.2-0.9c0.1-0.4,0.3-0.8,0.3-0.8l0,0c0,0-1.4,1.8-4,1.1c-2-0.5-3.5-2.3-2.9-4.6
		C-70,312.6-65.1,313.6-63.2,314.1z M-66.8,318.7c1.5,0.4,3-0.9,3.3-2.3l0.1-0.3l-0.5-0.1c-1.4-0.4-3.8-0.8-4.3,0.8
		C-68.3,317.6-67.9,318.4-66.8,318.7z"/>
	<path class="st0" d="M-56,311.5l2.7,0.7l-0.5,2c-0.1,0.4-0.3,0.8-0.3,0.8l0,0c0.9-1.5,2.6-2.4,4.4-2c0.3,0.1,0.5,0.2,0.5,0.2
		l-0.7,2.8c0,0-0.3-0.1-0.7-0.2c-1.2-0.3-2.7,0-3.7,1.6c-0.3,0.5-0.6,1.1-0.7,1.8l-1.2,4.5l-2.8-0.7L-56,311.5z"/>
	<path class="st0" d="M-47.3,313.9l2.7,0.7l-0.3,1.3c-0.1,0.4-0.3,0.8-0.3,0.8l0,0c0.9-1,2.5-1.8,4.3-1.4c1.7,0.5,2.6,1.6,2.7,3.2
		l0,0c0.9-1.1,2.7-1.8,4.5-1.3c2.4,0.6,3.4,2.3,2.6,5.3l-1.9,7.3l-2.8-0.7l1.8-6.8c0.3-1.3,0.4-2.3-1-2.7c-1.4-0.4-2.7,0.5-3.4,1.9
		c-0.2,0.4-0.4,0.9-0.5,1.4l-1.3,5l-2.8-0.7l1.8-6.8c0.3-1.2,0.4-2.3-0.9-2.7c-1.5-0.4-2.7,0.5-3.5,1.9c-0.2,0.4-0.4,0.9-0.5,1.4
		l-1.3,5l-2.8-0.7L-47.3,313.9z"/>
	<path class="st0" d="M-27,319.2l2.8,0.8l-3,11.3l-2.8-0.7L-27,319.2z M-25.8,314.8l2.8,0.7l-0.7,2.5l-2.8-0.7L-25.8,314.8z"/>
	<path class="st0" d="M-16.4,326.6l0.4,0.1l0-0.2c0.4-1.5-0.4-2.2-1.6-2.6c-1.6-0.4-3.4,0.3-3.4,0.3l-0.5-2.3c0,0,2.1-0.9,4.8-0.2
		c3,0.8,4.3,2.9,3.5,5.8l-1.9,7.1l-2.6-0.7l0.2-0.9c0.1-0.4,0.3-0.8,0.3-0.8l0,0c0,0-1.4,1.8-4,1.1c-2-0.5-3.5-2.3-2.9-4.6
		C-23.2,325-18.2,326.1-16.4,326.6z M-19.9,331.2c1.5,0.4,3-0.9,3.3-2.3l0.1-0.3l-0.5-0.1c-1.4-0.4-3.8-0.8-4.2,0.8
		C-21.5,330-21.1,330.9-19.9,331.2z"/>
	<path class="st0" d="M-9.2,324l2.7,0.7l-0.5,2c-0.1,0.4-0.3,0.8-0.3,0.8l0,0c0.9-1.5,2.6-2.4,4.4-2c0.3,0.1,0.5,0.2,0.5,0.2
		l-0.7,2.8c0,0-0.3-0.1-0.7-0.2c-1.2-0.3-2.7,0-3.7,1.6c-0.3,0.5-0.6,1.1-0.7,1.8l-1.2,4.5l-2.8-0.7L-9.2,324z"/>
	<path class="st0" d="M4.6,327.3c3.3,0.9,4.4,3.7,3.6,6.7c-0.1,0.3-0.4,1.1-0.4,1.1L0,333c-0.3,2,0.9,3.5,2.6,3.9
		c1.8,0.5,3.6-0.4,3.6-0.4l0.6,2.3c0,0-2.2,1.2-5,0.4c-3.8-1-5.4-4.3-4.5-7.5C-1.8,328.3,1.2,326.4,4.6,327.3z M5.6,332.4
		c0.4-1.5-0.4-2.6-1.6-3c-1.4-0.4-2.7,0.2-3.3,1.6L5.6,332.4z"/>
	<path class="st0" d="M11,338.6l2.7,0.7L13,342l-2.7-0.7L11,338.6z M11.8,335.6c0.9-3.2,4.7-2.8,5.3-5c0.3-1-0.4-2.1-1.7-2.4
		c-1.3-0.3-2.6,0.3-2.6,0.3l-1-2.3c0,0,2-1.2,4.6-0.5c2.5,0.7,4.4,2.8,3.7,5.5c-1,3.7-5,3.1-5.6,5.5l-0.2,0.9l-2.7-0.7L11.8,335.6z"
		/>
	<path class="st0" d="M-174.4,307.4l0.4,0.1l0-0.2c0.4-1.5-0.4-2.2-1.6-2.6c-1.6-0.4-3.4,0.3-3.4,0.3l-0.5-2.3c0,0,2.1-0.9,4.8-0.2
		c3,0.8,4.3,2.9,3.5,5.8l-1.9,7.1l-2.6-0.7l0.2-0.9c0.1-0.4,0.3-0.8,0.3-0.8l0,0c0,0-1.4,1.8-4,1.1c-2-0.5-3.5-2.3-2.9-4.6
		C-181.2,305.8-176.3,306.9-174.4,307.4z M-178,312c1.5,0.4,3-0.9,3.3-2.3l0.1-0.3l-0.5-0.1c-1.4-0.4-3.8-0.8-4.3,0.8
		C-179.5,310.8-179.1,311.7-178,312z"/>
	<path class="st0" d="M-161.8,305.9c3,0.8,3.9,2.8,3.9,2.8l-1.8,1.6c0,0-0.9-1.5-2.6-2c-2.1-0.6-3.9,0.7-4.4,2.6
		c-0.5,1.9,0.4,3.9,2.6,4.5c1.9,0.5,3.7-0.6,3.7-0.6l0.6,2.3c0,0-2.1,1.4-5.2,0.6c-3.8-1-5.5-4.3-4.6-7.6
		C-168.7,307-165.6,304.9-161.8,305.9z"/>
	<path class="st0" d="M-150.7,308.9c2.5,0.7,3,2.6,3,2.6l0,0c0,0,0-0.3,0.2-0.7l0.2-0.6l2.7,0.7l-4.2,15.8l-2.8-0.8l1.3-4.9
		c0.2-0.6,0.3-1,0.3-1l0,0c0,0-1.4,1.4-3.8,0.8c-3.1-0.8-4.4-3.8-3.4-7.3C-156.4,309.9-153.7,308.1-150.7,308.9z M-152.7,318.5
		c1.5,0.4,3.1-0.3,3.8-2.8c0.5-1.8,0-3.7-1.9-4.2c-1.6-0.4-3.2,0.5-3.8,2.8C-155.1,316.4-154.3,318.1-152.7,318.5z"/>
	<path class="st0" d="M-141.7,311.6l2.8,0.7l-1.8,6.7c-0.4,1.4-0.3,2.4,1.1,2.8c2,0.5,3.7-1,4.2-3l1.4-5.2l2.8,0.7l-3,11.3l-2.7-0.7
		l0.3-1.3c0.1-0.4,0.3-0.8,0.3-0.8l0,0c-0.9,1-2.6,1.8-4.6,1.3c-2.4-0.6-3.6-2.3-2.8-5.4L-141.7,311.6z"/>
	<path class="st0" d="M-128,315.2l2.8,0.8l-3,11.3l-2.8-0.7L-128,315.2z M-126.8,310.8l2.8,0.7l-0.7,2.5l-2.8-0.7L-126.8,310.8z"/>
	<path class="st0" d="M-123.8,324.8c0,0,0.9,1.6,2.8,2.1c0.8,0.2,1.6,0,1.8-0.6c0.4-1.7-5.1-2.9-4.2-6.6c0.6-2.1,2.8-2.8,5.2-2.2
		c2.6,0.7,3.5,2.3,3.5,2.3l-1.6,1.8c0,0-0.8-1.3-2.5-1.7c-0.7-0.2-1.5-0.1-1.7,0.6c-0.4,1.6,5.1,2.9,4.2,6.5c-0.5,1.9-2.5,3-5.2,2.2
		c-2.8-0.8-4-2.8-4-2.8L-123.8,324.8z"/>
	<path class="st0" d="M-112.1,322l-1.5-0.4l0.6-2.2l1.5,0.4l0.9-3.3l2.8,0.7l-0.9,3.3l2.6,0.7l-0.6,2.2l-2.6-0.7l-1.2,4.4
		c-0.5,1.9,0.9,2.5,1.7,2.7c0.3,0.1,0.5,0.1,0.5,0.1l-0.7,2.5c0,0-0.4,0-0.9-0.2c-1.6-0.4-4.6-1.7-3.6-5.5L-112.1,322z"/>
	<path class="st0" d="M-99,327.4l0.4,0.1l0-0.2c0.4-1.5-0.4-2.2-1.6-2.6c-1.6-0.4-3.4,0.3-3.4,0.3l-0.5-2.3c0,0,2.1-0.9,4.8-0.2
		c3,0.8,4.3,2.9,3.5,5.8l-1.9,7.1l-2.6-0.7l0.2-0.9c0.1-0.4,0.3-0.8,0.3-0.8l0,0c0,0-1.4,1.8-4,1.1c-2-0.5-3.5-2.3-2.9-4.6
		C-105.8,325.9-100.8,326.9-99,327.4z M-102.5,332c1.5,0.4,3-0.9,3.3-2.3l0.1-0.3l-0.5-0.1c-1.4-0.4-3.8-0.8-4.2,0.8
		C-104,330.9-103.7,331.7-102.5,332z"/>
	<path class="st0" d="M-86.5,326.2l2.8,0.7l-1.8,6.7c-0.4,1.4-0.3,2.4,1.1,2.8c2,0.5,3.7-1,4.2-3l1.4-5.2l2.8,0.7l-3,11.3l-2.7-0.7
		l0.3-1.3c0.1-0.4,0.3-0.8,0.3-0.8l0,0c-0.9,1-2.6,1.8-4.6,1.3c-2.4-0.6-3.6-2.3-2.8-5.4L-86.5,326.2z"/>
	<path class="st0" d="M-72.8,329.8l2.7,0.7l-0.3,1.3c-0.1,0.4-0.3,0.8-0.3,0.8l0,0c0.7-0.8,2.4-1.9,4.6-1.3c2.5,0.7,3.6,2.4,2.8,5.4
		l-1.9,7.3l-2.8-0.7l1.8-6.7c0.4-1.4,0.3-2.4-1.2-2.8c-1.5-0.4-2.9,0.3-3.7,1.5c-0.3,0.4-0.5,0.9-0.6,1.5l-1.4,5.2l-2.8-0.7
		L-72.8,329.8z"/>
	<path class="st0" d="M-45.1,332.2c3.8,1,5.2,3.7,5.2,3.7l-1.9,1.8c0,0-1.4-2.1-3.9-2.8c-3.3-0.9-5.9,1.1-6.7,4
		c-0.8,3,0.5,6.2,3.8,7.1c2.7,0.7,5.1-0.8,5.1-0.8l1,2.5c0,0-2.9,2-6.9,0.9c-4.8-1.3-7.2-5.7-6-10.4
		C-54.1,333.5-49.7,330.9-45.1,332.2z"/>
	<path class="st0" d="M-31.5,348.6l-5.5-1.5l-2.4,3.7l-3-0.8l9.7-14.3l3,0.8l1.4,17.3l-3-0.8L-31.5,348.6z M-31.9,338.9
		c0,0-0.8,1.5-1.3,2.3l-2.5,3.9l4.1,1.1l-0.3-4.6C-31.9,340.5-31.8,338.9-31.9,338.9L-31.9,338.9z"/>
	<path class="st0" d="M-22.1,338.5l5.1,1.4c1.7,0.5,2.5,0.8,3.1,1.3c1.4,1.1,2,2.9,1.4,5c-0.5,1.9-2,3.4-3.8,3.6l0,0
		c0,0,0.2,0.3,0.3,0.9l1.7,6.8l-3.2-0.8l-1.6-6.7l-2.8-0.7l-1.6,5.9l-2.9-0.8L-22.1,338.5z M-18.6,347.4c1.5,0.4,2.7-0.3,3.2-1.8
		c0.4-1.5,0-2.6-2.2-3.2l-2.2-0.6l-1.3,4.9L-18.6,347.4z"/>
	<path class="st0" d="M-7.4,342.4l2.9,0.8l3.6,10.7c0.4,1.1,0.7,2.8,0.7,2.8l0,0c0,0,0.2-1.6,0.5-2.5l2.4-9.1l2.8,0.8l-4.2,15.8
		l-2.8-0.8l-3.6-10.7c-0.4-1.1-0.7-2.8-0.7-2.8l0,0c0,0-0.2,1.6-0.5,2.5l-2.4,9.1l-2.9-0.8L-7.4,342.4z"/>
	<path class="st0" d="M9.5,346.9l9.4,2.5l-0.7,2.5l-6.6-1.7l-1.1,4.1l5.3,1.4l-0.7,2.5l-5.3-1.4L8.8,361l6.9,1.8l-0.7,2.5l-9.8-2.6
		L9.5,346.9z"/>
	<path class="st0" d="M24.8,353.6l-5.2-1.4l0.7-2.5l13.2,3.5l-0.7,2.5l-5.2-1.4l-3.5,13.3l-2.9-0.8L24.8,353.6z"/>
	<path class="st0" d="M-125.9,338.2c3,0.8,3.9,2.8,3.9,2.8l-1.8,1.6c0,0-0.9-1.5-2.6-2c-2.1-0.6-3.9,0.7-4.4,2.6
		c-0.5,1.9,0.4,3.9,2.6,4.5c1.9,0.5,3.7-0.6,3.7-0.6l0.6,2.3c0,0-2.1,1.4-5.2,0.6c-3.8-1-5.5-4.3-4.6-7.6
		C-132.8,339.3-129.6,337.2-125.9,338.2z"/>
	<path class="st0" d="M-118.1,335.8l2.8,0.7l-3.1,11.8c-0.3,1.2,0,1.7,0.7,1.9c0.2,0.1,0.4,0.1,0.4,0.1l-0.7,2.5c0,0-0.4,0-0.9-0.2
		c-1.6-0.4-3.4-1.3-2.5-4.6L-118.1,335.8z"/>
	<path class="st0" d="M-112.9,342l2.8,0.7l-3,11.3l-2.8-0.8L-112.9,342z M-111.7,337.5l2.8,0.7l-0.7,2.5l-2.8-0.7L-111.7,337.5z"/>
	<path class="st0" d="M-101.5,344.7c3,0.8,3.9,2.8,3.9,2.8l-1.8,1.6c0,0-0.9-1.5-2.6-2c-2.1-0.6-3.9,0.7-4.4,2.6
		c-0.5,1.9,0.4,3.9,2.6,4.5c1.9,0.5,3.7-0.6,3.7-0.6l0.6,2.3c0,0-2.1,1.4-5.2,0.6c-3.8-1-5.5-4.3-4.6-7.6
		C-108.4,345.8-105.3,343.7-101.5,344.7z"/>
	<path class="st0" d="M-89.4,347.9c3,0.8,3.9,2.8,3.9,2.8l-1.8,1.6c0,0-0.9-1.5-2.6-2c-2.1-0.6-3.9,0.7-4.4,2.6
		c-0.5,1.9,0.4,3.9,2.6,4.5c1.9,0.5,3.7-0.6,3.7-0.6l0.6,2.3c0,0-2.1,1.4-5.2,0.6c-3.8-1-5.5-4.3-4.6-7.6
		C-96.3,349-93.2,346.9-89.4,347.9z"/>
	<path class="st0" d="M-78.1,355.7l0.4,0.1l0-0.2c0.4-1.5-0.4-2.2-1.6-2.6c-1.6-0.4-3.4,0.3-3.4,0.3l-0.5-2.3c0,0,2.1-0.9,4.8-0.2
		c3,0.8,4.3,2.9,3.5,5.8l-1.9,7.1l-2.6-0.7l0.2-0.9c0.1-0.4,0.3-0.8,0.3-0.8l0,0c0,0-1.4,1.8-4,1.1c-2-0.5-3.5-2.3-2.9-4.6
		C-84.8,354.2-79.9,355.2-78.1,355.7z M-81.6,360.3c1.5,0.4,3-0.9,3.3-2.3l0.1-0.3l-0.5-0.1c-1.4-0.4-3.8-0.8-4.3,0.8
		C-83.1,359.2-82.7,360-81.6,360.3z"/>
	<path class="st0" d="M-61,355.5c2.5,0.7,3,2.6,3,2.6l0,0c0,0,0-0.3,0.2-0.7l0.2-0.6l2.7,0.7l-4.2,15.8l-2.8-0.7l1.3-4.9
		c0.2-0.6,0.3-1,0.3-1l0,0c0,0-1.4,1.4-3.8,0.8c-3.1-0.8-4.4-3.8-3.4-7.3C-66.7,356.4-64,354.7-61,355.5z M-63,365.1
		c1.5,0.4,3.1-0.3,3.8-2.8c0.5-1.8,0-3.7-1.9-4.2c-1.6-0.4-3.2,0.5-3.8,2.8C-65.4,362.9-64.6,364.6-63,365.1z"/>
	<path class="st0" d="M-52,358.1l2.8,0.7l-1.8,6.7c-0.4,1.4-0.3,2.4,1.1,2.8c2,0.5,3.7-1,4.2-3l1.4-5.2l2.8,0.7l-3,11.3l-2.7-0.7
		l0.3-1.3c0.1-0.4,0.3-0.8,0.3-0.8l0,0c-0.9,1-2.6,1.8-4.6,1.3c-2.4-0.6-3.6-2.3-2.8-5.4L-52,358.1z"/>
	<path class="st0" d="M-38.3,361.8l2.8,0.7l-3,11.3l-2.8-0.7L-38.3,361.8z M-37.1,357.3l2.8,0.7l-0.7,2.5l-2.8-0.7L-37.1,357.3z"/>
	<path class="st0" d="M-33.9,372.2l2.7,0.7l-0.7,2.6l-2.7-0.7L-33.9,372.2z M-30.6,359.1l2.9,0.8l-3.2,11.2l-2.5-0.7L-30.6,359.1z"
		/>
</g>
</svg>
