<?xml version="1.0" encoding="UTF-8" standalone="no"?>
<svg
   xmlns:dc="http://purl.org/dc/elements/1.1/"
   xmlns:cc="http://creativecommons.org/ns#"
   xmlns:rdf="http://www.w3.org/1999/02/22-rdf-syntax-ns#"
   xmlns:svg="http://www.w3.org/2000/svg"
   xmlns="http://www.w3.org/2000/svg"
   viewBox="0 0 177.33333 177.33333"
   height="177.33333"
   width="177.33333"
   xml:space="preserve"
   id="svg2"
   version="1.1"><metadata
     id="metadata8"><rdf:RDF><cc:Work
         rdf:about=""><dc:format>image/svg+xml</dc:format><dc:type
           rdf:resource="http://purl.org/dc/dcmitype/StillImage" /></cc:Work></rdf:RDF></metadata><defs
     id="defs6"><clipPath
       id="clipPath20"
       clipPathUnits="userSpaceOnUse"><path
         id="path18"
         d="M 0,0 H 133 V 133 H 0 Z" /></clipPath></defs><g
     transform="matrix(1.3333333,0,0,-1.3333333,0,177.33333)"
     id="g10"><g
       id="g12" /><g
       id="g14"><g
         clip-path="url(#clipPath20)"
         id="g16"><g
           transform="matrix(1,0,0,-1,-118.5,248.5)"
           id="g22"><path
             id="path24"
             style="fill:none;stroke:#d67338;stroke-width:6;stroke-linecap:round;stroke-linejoin:round;stroke-miterlimit:10;stroke-dasharray:none;stroke-opacity:1"
             d="m 229.6941,138.3059 c 24.4079,24.4077 24.4079,63.9805 0,88.3882 -24.4077,24.4079 -63.9805,24.4079 -88.3882,0 -24.4079,-24.4077 -24.4079,-63.9805 0,-88.3882 24.4077,-24.4079 63.9805,-24.4079 88.3882,0" /></g><g
           transform="matrix(1,0,0,-1,66.5,66.5)"
           id="g26"><text
             id="text30"
             style="font-variant:normal;font-weight:bold;font-size:19px;font-family:Helvetica;-inkscape-font-specification:Helvetica-Bold;writing-mode:lr-tb;fill:#d67438;fill-opacity:1;fill-rule:nonzero;stroke:none"
             transform="translate(-49.25342,-4)"><tspan
               id="tspan28"
               y="0"
               x="0 15.827 29.5488 45.375801 61.202801 74.227303 79.505501 84.783699">MAMMA IN</tspan></text>
</g><g
           transform="matrix(1,0,0,-1,66.5,66.5)"
           id="g32"><text
             id="text36"
             style="font-variant:normal;font-weight:bold;font-size:19px;font-family:Helvetica;-inkscape-font-specification:Helvetica-Bold;writing-mode:lr-tb;fill:#d67438;fill-opacity:1;fill-rule:nonzero;stroke:none"
             transform="translate(-50.1394,19)"><tspan
               id="tspan34"
               y="0"
               x="0 13.7218 27.4436 41.165401 54.887199 60.165401 72.838402 86.560204">CARRIERA</tspan></text>
</g></g></g></g></svg>