<?xml version="1.0" encoding="utf-8"?>
<!-- Generator: Adobe Illustrator 17.0.0, SVG Export Plug-In . SVG Version: 6.00 Build 0)  -->
<!DOCTYPE svg PUBLIC "-//W3C//DTD SVG 1.1//EN" "http://www.w3.org/Graphics/SVG/1.1/DTD/svg11.dtd">
<svg version="1.1" id="Layer_1" xmlns="http://www.w3.org/2000/svg" xmlns:xlink="http://www.w3.org/1999/xlink" x="0px" y="0px"
	 width="304.366px" height="232.953px" viewBox="-97.866 -80.688 304.366 232.953"
	 enable-background="new -97.866 -80.688 304.366 232.953" xml:space="preserve">
<g id="Expanded_2_">
	<g>
		<g>
			<path d="M-32.235,152.265c-14.478,0-26.256-11.774-26.256-26.256c0-14.478,11.774-26.256,26.256-26.256
				s26.256,11.774,26.256,26.256S-17.753,152.265-32.235,152.265z M-32.235,112.882c-7.241,0-13.126,5.889-13.126,13.126
				c0,7.237,5.889,13.126,13.126,13.126s13.126-5.889,13.126-13.126C-19.109,118.772-24.994,112.882-32.235,112.882z"/>
		</g>
		<g>
			<path d="M112.164,152.265c-14.478,0-26.256-11.774-26.256-26.256c0-14.478,11.774-26.256,26.256-26.256
				s26.256,11.774,26.256,26.256S126.642,152.265,112.164,152.265z M112.164,112.882c-7.241,0-13.126,5.889-13.126,13.126
				c0,7.237,5.889,13.126,13.126,13.126c7.237,0,13.126-5.889,13.126-13.126C125.29,118.772,119.405,112.882,112.164,112.882z"/>
		</g>
		<g>
			<path d="M112.164,112.882H-32.235c-3.629,0-6.565-2.936-6.565-6.565c0-3.629,2.936-6.565,6.565-6.565h139.198L147.599-75.63
				c0.702-2.966,3.349-5.058,6.393-5.058h45.943c3.629,0,6.565,2.936,6.565,6.565s-2.936,6.565-6.565,6.565h-40.747l-40.631,175.382
				C117.855,110.79,115.208,112.882,112.164,112.882z"/>
		</g>
		<g>
			<path d="M118.729,86.63H-51.921c-2.828,0-5.33-1.804-6.221-4.49L-97.524-36.002c-0.676-2.002-0.336-4.206,0.9-5.915
				c1.236-1.713,3.216-2.725,5.321-2.725h236.289c3.629,0,6.565,2.936,6.565,6.565c0,3.629-2.936,6.565-6.565,6.565H-82.19
				l35.004,105.017h165.915c3.629,0,6.565,2.936,6.565,6.565C125.295,83.699,122.358,86.63,118.729,86.63z"/>
		</g>
	</g>
</g>
</svg>
