<?xml version="1.0" encoding="utf-8"?>
<!-- Generator: Adobe Illustrator 17.0.0, SVG Export Plug-In . SVG Version: 6.00 Build 0)  -->
<!DOCTYPE svg PUBLIC "-//W3C//DTD SVG 1.1//EN" "http://www.w3.org/Graphics/SVG/1.1/DTD/svg11.dtd">
<svg version="1.1" id="Layer_1" xmlns:sketch="http://www.bohemiancoding.com/sketch/ns"
	 xmlns="http://www.w3.org/2000/svg" xmlns:xlink="http://www.w3.org/1999/xlink" x="0px" y="0px" width="148.787px"
	 height="190.447px" viewBox="-33.225 -63.579 148.787 190.447" enable-background="new -33.225 -63.579 148.787 190.447"
	 xml:space="preserve">
<title>furniture_closet_bedroom_tablecloth_wardrobe_armoire_cabinet 2</title>
<desc>Created with Sketch.</desc>
<g id="Page-11" sketch:type="MSPage">
	<path id="furniture_closet_bedroom_tablecloth_wardrobe_armoire_cabinet-2" sketch:type="MSShapeGroup" d="M-33.225-57.618v178.525
		c0,3.292,2.677,5.961,5.947,5.961h136.892c3.285,0,5.947-2.656,5.947-5.961V-57.618c0-3.292-2.677-5.961-5.947-5.961H-27.277
		C-30.562-63.579-33.225-60.923-33.225-57.618z M109.611-57.758l-0.005,133.904l-66.949-0.002L42.662-57.76L109.611-57.758z
		 M39.681-57.624L39.676,76.279l-66.949-0.002l0.005-133.904L39.681-57.624z M109.611,79.257l-0.01,19.342l-136.874,0l0.01-19.342
		L109.611,79.257z M109.611,101.575l-0.01,19.342l-136.874,0l0.01-19.342L109.611,101.575z M27.778,4.863v17.854h5.951V4.863H27.778
		z M48.608,4.863v17.854h5.951V4.863H48.608z M33.73,86.696v2.976h14.879v-2.976H33.73z M33.73,109.014v2.976h14.879v-2.976H33.73z"
		/>
</g>
</svg>
