<?xml version="1.0" encoding="utf-8"?>
<!-- Generator: Adobe Illustrator 17.0.0, SVG Export Plug-In . SVG Version: 6.00 Build 0)  -->
<!DOCTYPE svg PUBLIC "-//W3C//DTD SVG 1.1//EN" "http://www.w3.org/Graphics/SVG/1.1/DTD/svg11.dtd">
<svg version="1.1" xmlns="http://www.w3.org/2000/svg" xmlns:xlink="http://www.w3.org/1999/xlink" x="0px" y="0px"
	 width="254.522px" height="254.522px" viewBox="0 0 254.522 254.522" enable-background="new 0 0 254.522 254.522"
	 xml:space="preserve">
<g id="Layer_1">
</g>
<g id="Layer_2">
	<g>
		<path fill="none" d="M127.261,21.21c-58.54,0-106.051,47.511-106.051,106.051s47.511,106.051,106.051,106.051
			s106.051-47.511,106.051-106.051S185.801,21.21,127.261,21.21z M127.261,227.656c-55.447,0-100.395-44.948-100.395-100.395
			S71.815,26.866,127.261,26.866s100.395,44.948,100.395,100.395S182.708,227.656,127.261,227.656z"/>
		<path d="M251.129,117.363c-7.07-9.05-9.05-18.099-6.222-28.846c1.98-7.353-1.414-14.706-7.918-18.382
			c-9.05-5.09-14.14-12.443-15.554-22.624c-0.848-7.353-6.787-13.292-14.423-14.423c-10.181-1.414-17.534-6.222-22.624-15.554
			c-3.676-6.504-11.312-9.898-18.382-7.918c-10.747,2.828-19.796,0.848-28.846-6.222c-5.656-4.525-13.857-4.525-19.796,0
			c-9.05,7.07-18.382,9.05-28.846,6.222c-7.353-1.98-14.706,1.414-18.382,7.918c-5.09,9.05-12.443,14.14-22.624,15.554
			c-7.353,0.848-13.292,6.787-14.423,14.423c-1.414,10.181-6.222,17.534-15.554,22.624c-6.504,3.676-9.898,11.312-7.919,18.382
			c2.828,10.747,0.848,19.796-6.222,28.846c-4.525,5.656-4.525,14.14,0,19.796c7.07,9.05,9.05,18.382,6.222,28.846
			c-1.98,7.353,1.414,14.706,7.919,18.382c9.05,5.09,14.14,12.443,15.554,22.624c0.848,7.353,6.787,13.292,14.423,14.423
			c10.181,1.414,17.534,6.222,22.624,15.554c3.676,6.505,11.312,9.898,18.382,7.919c10.747-2.828,19.796-0.848,28.846,6.222
			c5.656,4.525,13.857,4.525,19.796,0c9.05-7.07,18.382-9.05,28.846-6.222c7.353,1.98,14.706-1.414,18.382-7.919
			c5.09-9.05,12.443-14.14,22.624-15.554c7.353-0.848,13.292-6.787,14.423-14.423c1.414-10.181,6.222-17.534,15.554-22.624
			c6.504-3.676,9.898-11.312,7.918-18.382c-2.828-10.746-0.848-19.796,6.222-28.846
			C255.653,131.503,255.653,123.019,251.129,117.363z M127.261,233.312c-58.54,0-106.051-47.511-106.051-106.051
			S68.721,21.21,127.261,21.21s106.051,47.511,106.051,106.051S185.801,233.312,127.261,233.312z"/>
		<path d="M89.17,92.627c-2.62,0-4.913,1.064-6.633,2.907c-1.719,1.801-2.784,4.381-2.784,7.165
			c0,2.784,1.064,5.364,2.784,7.124c1.72,1.842,4.013,2.948,6.633,2.948c2.456,0,4.749-1.106,6.468-2.948
			c1.679-1.761,2.785-4.341,2.785-7.124c0-2.784-1.106-5.364-2.785-7.165C93.919,93.692,91.626,92.627,89.17,92.627z"/>
		<path d="M103.968,141.752c-2.62,0-4.913,1.064-6.633,2.907c-1.719,1.802-2.784,4.38-2.784,7.166
			c0,2.784,1.064,5.362,2.784,7.123c1.72,1.842,4.013,2.947,6.633,2.947c2.456,0,4.749-1.105,6.468-2.947
			c1.679-1.761,2.785-4.34,2.785-7.123c0-2.785-1.106-5.364-2.785-7.166C108.717,142.816,106.424,141.752,103.968,141.752z"/>
		<path d="M138.355,141.752c-2.62,0-4.914,1.064-6.633,2.907c-1.719,1.802-2.784,4.38-2.784,7.166
			c0,2.784,1.064,5.362,2.784,7.123c1.719,1.842,4.013,2.947,6.633,2.947c2.457,0,4.749-1.105,6.468-2.947
			c1.679-1.761,2.784-4.34,2.784-7.123c0-2.785-1.105-5.364-2.784-7.166C143.104,142.816,140.812,141.752,138.355,141.752z"/>
		<path d="M127.261,26.866c-55.447,0-100.395,44.948-100.395,100.395s44.948,100.395,100.395,100.395
			s100.395-44.948,100.395-100.395S182.708,26.866,127.261,26.866z M144.35,91.031c0-1.27,0.982-2.252,2.252-2.252
			c1.228,0,2.292,0.982,2.292,2.252v24.156c0,1.269-1.064,2.252-2.292,2.252c-1.27,0-2.252-0.983-2.252-2.252V91.031z
			 M44.342,102.699c0.04-8.107,6.837-14.698,15.026-14.739c3.603,0,6.878,1.187,9.457,3.194c0.983,0.818,1.147,2.252,0.41,3.275
			c-0.819,1.023-2.334,1.187-3.275,0.45c-1.802-1.474-4.053-2.252-6.592-2.252c-2.825,0-5.445,1.147-7.369,2.948
			c-1.843,1.884-2.989,4.341-2.989,7.124c0,2.784,1.146,5.322,2.989,7.124c1.924,1.801,4.544,2.948,7.369,2.948
			c2.539,0,4.749-0.778,6.592-2.252c0.941-0.695,2.456-0.532,3.275,0.451c0.737,1.024,0.573,2.497-0.41,3.275
			c-2.579,2.006-5.854,3.194-9.457,3.194C51.179,117.439,44.383,110.847,44.342,102.699z M81.332,164.188
			c-2.007,1.474-4.667,2.334-7.575,2.334c-4.421-0.042-8.147-2.253-10.481-4.096c-0.9-0.736-1.023-2.088-0.328-2.987
			c0.738-0.901,2.088-1.024,2.989-0.288c1.801,1.475,4.913,3.195,7.82,3.154c2.047,0,3.89-0.615,5.118-1.516
			c1.228-0.901,1.761-1.925,1.761-2.949c0-0.532-0.123-0.899-0.368-1.31c-0.246-0.409-0.615-0.818-1.228-1.228
			c-1.187-0.778-3.194-1.474-5.609-1.925h-0.082c-1.924-0.367-3.726-0.859-5.282-1.596c-1.555-0.736-2.907-1.76-3.808-3.193
			c-0.614-0.983-0.941-2.129-0.941-3.358c0-2.457,1.392-4.586,3.275-5.977c1.924-1.393,4.421-2.171,7.083-2.171
			c3.93,0,6.837,1.925,8.925,3.275c0.942,0.655,1.228,1.965,0.573,2.907c-0.614,0.983-1.924,1.27-2.907,0.615
			c-2.088-1.393-4.095-2.62-6.592-2.62c-1.842,0-3.48,0.573-4.586,1.393c-1.106,0.818-1.556,1.719-1.556,2.578
			c0,0.492,0.083,0.818,0.287,1.147c0.205,0.327,0.573,0.695,1.106,1.064c1.064,0.738,2.907,1.393,5.118,1.802h0.082
			c2.088,0.409,4.012,0.941,5.65,1.719c1.679,0.818,3.152,1.883,4.095,3.398c0.614,0.982,0.983,2.211,0.983,3.479
			C84.853,160.461,83.379,162.714,81.332,164.188z M79.138,113.058c-2.538-2.661-4.053-6.305-4.053-10.358
			c0-4.053,1.515-7.656,4.053-10.358c2.498-2.702,6.101-4.381,10.032-4.381c3.766,0,7.369,1.679,9.785,4.381
			c2.539,2.702,4.135,6.305,4.135,10.358c0,4.053-1.596,7.698-4.135,10.358c-2.416,2.662-6.019,4.381-9.785,4.381
			C85.239,117.439,81.637,115.719,79.138,113.058z M113.753,162.182c-2.416,2.661-6.019,4.38-9.785,4.38
			c-3.93,0-7.533-1.719-10.031-4.38c-2.539-2.662-4.053-6.307-4.053-10.358c0-4.053,1.515-7.657,4.053-10.36
			c2.497-2.701,6.1-4.38,10.031-4.38c3.766,0,7.369,1.679,9.785,4.38c2.539,2.703,4.135,6.307,4.135,10.36
			C117.888,155.875,116.292,159.52,113.753,162.182z M121.878,107.08h-0.041h-0.04c-0.738,0-1.433-0.328-1.884-0.942l-5.855-8.188
			v17.237c0,1.228-1.023,2.252-2.293,2.252c-1.228,0-2.252-1.024-2.252-2.252V91.031c0-1.228,1.024-2.252,2.252-2.252
			c0.041,0,0.041,0,0.123,0c0.655,0,1.393,0.327,1.802,0.941l8.147,11.3l8.147-11.3c0.451-0.615,1.106-0.941,1.842-0.941
			c0,0,0,0,0.042,0c1.228,0.04,2.292,1.023,2.292,2.252v24.156c0,1.228-1.064,2.252-2.292,2.252c-1.27,0-2.252-1.024-2.252-2.252
			V97.95l-5.896,8.188C123.27,106.753,122.614,107.08,121.878,107.08z M148.139,162.182c-2.415,2.661-6.017,4.38-9.784,4.38
			c-3.93,0-7.534-1.719-10.032-4.38c-2.538-2.662-4.053-6.307-4.053-10.358c0-4.053,1.515-7.657,4.053-10.36
			c2.497-2.701,6.101-4.38,10.032-4.38c3.767,0,7.369,1.679,9.784,4.38c2.539,2.703,4.136,6.307,4.136,10.36
			C152.275,155.875,150.679,159.52,148.139,162.182z M156.589,115.187V91.4c0,0,0,0,0-0.041c-0.04-0.696,0.286-1.433,0.901-1.884
			c1.022-0.695,2.415-0.491,3.11,0.492l13.225,18.301V91.4c0-1.188,0.983-2.211,2.211-2.211c1.229,0,2.252,1.023,2.252,2.211v23.788
			c0,1.228-1.022,2.252-2.252,2.252c-0.655,0-1.268-0.328-1.679-0.819c-0.081-0.082-0.163-0.163-0.204-0.245l-13.102-18.179v16.992
			c0,1.228-1.024,2.252-2.211,2.252C157.571,117.439,156.589,116.415,156.589,115.187z M181.011,164.311
			c0,1.228-1.022,2.252-2.252,2.252c-0.655,0-1.268-0.327-1.679-0.818c-0.081-0.083-0.163-0.165-0.204-0.246l-13.102-18.179v16.992
			c0,1.228-1.024,2.252-2.211,2.252c-1.27,0-2.252-1.024-2.252-2.252v-23.788c0,0,0,0,0-0.04c-0.042-0.695,0.286-1.433,0.901-1.883
			c1.024-0.697,2.415-0.492,3.11,0.49l13.225,18.302v-16.869c0-1.187,0.983-2.211,2.211-2.211c1.229,0,2.252,1.024,2.252,2.211
			V164.311z M194.845,164.311c0,1.268-0.982,2.252-2.211,2.252c-1.228,0-2.252-0.983-2.252-2.252v-0.818
			c0-1.229,1.024-2.253,2.252-2.253c1.229,0,2.211,1.024,2.211,2.253V164.311z M190.383,140.153c0-1.228,1.024-2.252,2.252-2.252
			c1.229,0,2.211,1.024,2.211,2.252v16.542c0,1.268-0.982,2.252-2.211,2.252c-1.228,0-2.252-0.983-2.252-2.252 M209.237,91.154
			c1.066,0.778,1.229,2.293,0.451,3.316c-0.778,0.983-2.294,1.187-3.316,0.369c-1.761-1.351-4.013-2.211-6.47-2.211
			c-2.947,0-5.527,1.106-7.369,2.989c-1.925,1.842-3.072,4.34-3.072,7.124c0,2.702,1.147,5.199,3.072,7.042
			c1.842,1.884,4.422,2.989,7.369,2.989c2.048,0,3.971-0.615,5.609-1.556v-5.609h-5.855c-1.268,0-2.334-1.064-2.334-2.333
			c0-1.31,1.066-2.293,2.334-2.293h8.066c0.04,0,0.04,0,0.04,0c0.04,0,0.04,0,0.04,0c1.31,0,2.376,0.983,2.376,2.293v9.048
			c0,0.286-0.083,0.451-0.123,0.696c-0.042,0.082-0.042,0.122-0.083,0.205v0.04c-0.123,0.369-0.369,0.696-0.778,0.983
			c-2.58,2.006-5.813,3.194-9.294,3.194c-8.311,0-15.107-6.51-15.107-14.698c0-8.23,6.797-14.781,15.107-14.781
			C203.383,87.96,206.699,89.147,209.237,91.154z"/>
	</g>
</g>
</svg>
