<?xml version="1.0" encoding="utf-8"?>
<!-- Generator: Adobe Illustrator 17.0.0, SVG Export Plug-In . SVG Version: 6.00 Build 0)  -->
<!DOCTYPE svg PUBLIC "-//W3C//DTD SVG 1.1//EN" "http://www.w3.org/Graphics/SVG/1.1/DTD/svg11.dtd">
<svg version="1.1" id="Layer_1" xmlns="http://www.w3.org/2000/svg" xmlns:xlink="http://www.w3.org/1999/xlink" x="0px" y="0px"
	 width="192.316px" height="258.108px" viewBox="-44.862 -94.833 192.316 258.108"
	 enable-background="new -44.862 -94.833 192.316 258.108" xml:space="preserve">
<g>
	<g>
		<polygon points="147.454,163.275 134.865,163.275 134.865,157.411 141.644,157.411 141.644,150.57 147.454,150.57 		"/>
	</g>
	<g>
		<path d="M124.435,163.275h-20.859v-5.864h20.859V163.275z M93.145,163.275H72.286v-5.864h20.859V163.275z M61.856,163.275h-20.86
			v-5.864h20.86V163.275z M30.566,163.275H9.706v-5.864h20.86V163.275z M-0.724,163.275h-20.86v-5.864h20.86V163.275z"/>
	</g>
	<g>
		<polygon points="-32.013,163.275 -44.603,163.275 -44.603,150.57 -38.792,150.57 -38.792,157.411 -32.013,157.411 		"/>
	</g>
	<g>
		<path d="M-38.792,141.262h-5.811v-18.616h5.811V141.262z M-38.792,113.338h-5.811V94.722h5.811V113.338z M-38.792,85.415h-5.811
			V66.799h5.811V85.415z M-38.792,57.491h-5.811V38.875h5.811V57.491z M-38.792,29.566h-5.811V10.95h5.811V29.566z M-38.792,1.643
			h-5.811v-18.616h5.811V1.643z M-38.792-26.281h-5.811v-18.616h5.811V-26.281z M-38.792-54.205h-5.811v-18.616h5.811V-54.205z"/>
	</g>
	<g>
		<polygon points="-38.792,-82.129 -44.603,-82.129 -44.603,-94.833 -32.013,-94.833 -32.013,-88.97 -38.792,-88.97 		"/>
	</g>
	<g>
		<path d="M124.435-88.97h-20.859v-5.864h20.859V-88.97z M93.146-88.97h-20.86v-5.864h20.86V-88.97z M61.856-88.97h-20.86v-5.864
			h20.86V-88.97z M30.566-88.97H9.706v-5.864h20.86V-88.97z M-0.723-88.97h-20.86v-5.864h20.86V-88.97z"/>
	</g>
	<g>
		<polygon points="147.454,-82.129 141.644,-82.129 141.644,-88.97 134.865,-88.97 134.865,-94.833 147.454,-94.833 		"/>
	</g>
	<g>
		<path d="M147.454,141.262h-5.811v-18.615h5.811V141.262z M147.454,113.339h-5.811V94.723h5.811V113.339z M147.454,85.415h-5.811
			V66.799h5.811V85.415z M147.454,57.491h-5.811V38.875h5.811V57.491z M147.454,29.567h-5.811V10.951h5.811V29.567z M147.454,1.643
			h-5.811v-18.616h5.811V1.643z M147.454-26.281h-5.811v-18.616h5.811V-26.281z M147.454-54.205h-5.811v-18.616h5.811V-54.205z"/>
	</g>
</g>
<g>
	<path d="M30.237,8.094c7.257,0,12.628,2.25,17.563,6.75c0.653,0.58,0.653,1.451,0.072,2.032l-5.661,5.878
		c-0.508,0.508-1.306,0.508-1.814,0c-2.685-2.395-6.242-3.701-9.798-3.701c-8.201,0-14.225,6.822-14.225,14.95
		c0,8.056,6.097,14.733,14.297,14.733c3.411,0,7.112-1.234,9.725-3.483c0.508-0.436,1.452-0.436,1.887,0.072l5.661,6.024
		c0.508,0.508,0.435,1.451-0.073,1.959c-4.935,4.79-11.176,7.04-17.635,7.04c-14.515,0-26.2-11.539-26.2-26.054
		S15.722,8.094,30.237,8.094z"/>
	<path d="M50.044,10.707c-0.435-0.944,0.145-1.887,1.234-1.887h9.653c0.581,0,1.088,0.435,1.234,0.798l11.974,26.489h0.436
		L86.549,9.618c0.145-0.363,0.653-0.798,1.234-0.798h9.653c1.088,0,1.669,0.943,1.234,1.887L75.88,59.549
		c-0.218,0.436-0.653,0.798-1.234,0.798H73.92c-0.581,0-1.016-0.363-1.234-0.798L50.044,10.707z"/>
</g>
</svg>
