<?xml version="1.0" encoding="utf-8"?>
<!-- Generator: Adobe Illustrator 17.0.0, SVG Export Plug-In . SVG Version: 6.00 Build 0)  -->
<!DOCTYPE svg PUBLIC "-//W3C//DTD SVG 1.1//EN" "http://www.w3.org/Graphics/SVG/1.1/DTD/svg11.dtd">
<svg version="1.1" id="Layer_1" xmlns="http://www.w3.org/2000/svg" xmlns:xlink="http://www.w3.org/1999/xlink" x="0px" y="0px"
	 width="192.316px" height="258.108px" viewBox="-44.862 -94.833 192.316 258.108"
	 enable-background="new -44.862 -94.833 192.316 258.108" xml:space="preserve">
<g>
	<g>
		<path d="M-44.862-94.833v258.108h192.316V-94.833H-44.862z M140.823,156.643H-38.23V-88.202h179.053V156.643z"/>
	</g>
</g>
<path d="M0.368-66.125c-11.169,0-20.272,9.101-20.29,20.288c-0.007,5.515,2.17,10.861,5.976,14.673
	c3.63,3.633,8.452,5.635,13.575,5.635c0.273,0,0.546-0.007,0.824-0.017c11.331-0.466,20.205-9.377,20.205-20.288
	C20.657-57.024,11.556-66.125,0.368-66.125z M-4.931-49.693c0-2.702,2.199-4.9,4.9-4.9c2.704,0,4.903,2.199,4.903,4.9
	s-2.199,4.9-4.903,4.9C-2.732-44.793-4.931-46.991-4.931-49.693z M-3.663-41.479c2.304,1.027,4.957,1.029,7.27-0.002
	c3.506,1.342,5.982,4.769,6.218,8.59C7.065-30.9,3.779-29.775,0.278-29.63c-3.687,0.125-7.045-0.94-9.862-3.128
	C-9.416-36.734-7.094-40.15-3.663-41.479z M7.139-44.29c1.169-1.55,1.819-3.451,1.819-5.403c0-4.955-4.033-8.988-8.988-8.988
	s-8.988,4.033-8.988,8.988c0,1.987,0.638,3.862,1.823,5.414c-2.833,1.72-4.905,4.465-5.871,7.746
	c-1.784-2.712-2.774-5.993-2.769-9.298c0.015-8.937,7.283-16.207,16.203-16.207c8.935,0,16.203,7.267,16.203,16.203
	c0,3.467-1.137,6.784-3.237,9.538C12.332-39.639,10.111-42.52,7.139-44.29z"/>
<g>
	<rect x="33.929" y="-65.85" width="87.465" height="6.714"/>
</g>
<g>
	<rect x="33.929" y="-49.184" width="87.465" height="6.714"/>
</g>
<g>
	<rect x="33.929" y="-32.52" width="87.465" height="6.714"/>
</g>
<g>
	<rect x="-18.058" y="0.812" width="139.452" height="6.714"/>
</g>
<g>
	<rect x="-18.058" y="17.478" width="139.452" height="6.714"/>
</g>
<g>
	<rect x="-18.058" y="34.144" width="139.452" height="6.714"/>
</g>
<g>
	<rect x="-18.058" y="50.81" width="139.452" height="6.714"/>
</g>
<g>
	<rect x="3.528" y="67.474" width="117.866" height="6.714"/>
</g>
<g>
	<rect x="3.528" y="84.14" width="117.866" height="6.714"/>
</g>
<g>
	<rect x="3.528" y="100.806" width="117.866" height="6.714"/>
</g>
<g>
	<rect x="-10.572" y="67.474" width="7.385" height="6.714"/>
</g>
<g>
	<rect x="-10.572" y="84.14" width="7.385" height="6.714"/>
</g>
<g>
	<rect x="-10.572" y="100.806" width="7.385" height="6.714"/>
</g>
<g>
	<rect x="-18.058" y="117.47" width="139.452" height="6.714"/>
</g>
<g>
	<rect x="87.271" y="134.138" width="34.123" height="6.714"/>
</g>
</svg>
