<?xml version="1.0" encoding="utf-8"?>
<!-- Generator: Adobe Illustrator 17.0.0, SVG Export Plug-In . SVG Version: 6.00 Build 0)  -->
<!DOCTYPE svg PUBLIC "-//W3C//DTD SVG 1.1//EN" "http://www.w3.org/Graphics/SVG/1.1/DTD/svg11.dtd">
<svg version="1.1" id="Layer_1" xmlns="http://www.w3.org/2000/svg" xmlns:xlink="http://www.w3.org/1999/xlink" x="0px" y="0px"
	 width="534.123px" height="293.119px" viewBox="1.751 15.84 534.123 293.119" enable-background="new 1.751 15.84 534.123 293.119"
	 xml:space="preserve">
<g>
	<path d="M534.301,160.482C533.112,159.037,413.899,15.84,268.812,15.84S4.513,159.037,3.324,160.482l-1.573,1.918l1.573,1.918
		c1.189,1.445,120.402,144.642,265.488,144.642s264.299-143.197,265.488-144.642l1.573-1.918L534.301,160.482z M45.492,158.921
		c16.757-16.933,34.744-32.67,53.457-46.772c58.424-44.022,115.575-66.345,169.864-66.345s111.44,22.322,169.861,66.342
		c18.716,14.105,36.702,29.842,53.46,46.772c1.426,1.442,2.568,2.537,3.497,3.369c-1.173,1.214-2.531,2.609-3.497,3.588
		c-16.761,16.936-34.747,32.673-53.46,46.772c-58.421,44.025-115.569,66.345-169.861,66.345s-111.44-22.322-169.864-66.345
		c-18.713-14.098-36.696-29.836-53.457-46.772c-1.533-1.548-2.631-2.662-3.413-3.46C43.199,161.261,44.55,159.872,45.492,158.921z"
		/>
	<path d="M268.812,261.111c54.43,0,98.711-44.282,98.711-98.711s-44.282-98.711-98.711-98.711
		c-54.433,0-98.715,44.282-98.715,98.711S214.38,261.111,268.812,261.111z M268.812,93.649c37.907,0,68.747,30.84,68.747,68.75
		c0,37.907-30.84,68.747-68.747,68.747c-37.907,0-68.747-30.84-68.747-68.747C200.065,124.49,230.906,93.649,268.812,93.649z"/>
	<path d="M268.812,189.342c14.859,0,26.946-12.087,26.946-26.946c0-14.859-12.087-26.946-26.946-26.946
		c-14.859,0-26.946,12.087-26.946,26.946C241.867,177.255,253.954,189.342,268.812,189.342z"/>
</g>
</svg>
