<?xml version="1.0" encoding="utf-8"?>
<svg width="179.03598022460938" height="220.6429443359375" viewBox="137.952 817.223 179.036 220.643" xmlns="http://www.w3.org/2000/svg">
  <g transform="matrix(1, 0, 0, 1, -72.07020568847656, 627.8656005859374)">
    <g transform="translate(14.000000, 5.000000)">
      <g>
        <path d="M306.976,405c-3.473,0-6.364-2.733-6.527-6.236c-0.303-6.576,5.271-14.808,17.907-32.798&#10;&#9;&#9;&#9;&#9;c17.373-24.734,43.626-62.114,43.626-93.334c0-37.448-91.243-66.634-126.399-74.719c-3.518-0.809-5.714-4.318-4.907-7.836&#10;&#9;&#9;&#9;&#9;c0.809-3.52,4.314-5.72,7.836-4.907c1.365,0.314,33.805,7.839,66.821,21.812c46.266,19.582,69.725,41.67,69.725,65.651&#10;&#9;&#9;&#9;&#9;c0,35.353-27.684,74.768-46.003,100.851c-6.705,9.547-15.039,21.412-15.539,24.843c0.077,3.534-2.683,6.504-6.235,6.669&#10;&#9;&#9;&#9;&#9;C307.18,404.998,307.076,405,306.976,405z" style="fill: rgb(161, 161, 161);"/>
      </g>
      <g>
        <path d="M234.247,388.223c-3.55,0-6.463-2.843-6.533-6.409c-0.168-8.479,3.47-17.794,7.322-27.657&#10;&#9;&#9;&#9;&#9;c4.792-12.27,9.746-24.956,6.91-35.01c-4.251-15.064-31.68-34.665-41.889-40.948c-3.076-1.892-4.035-5.919-2.144-8.994&#10;&#9;&#9;&#9;&#9;c1.893-3.076,5.919-4.037,8.994-2.142c4.203,2.585,41.24,25.913,47.623,48.533c4.029,14.276-1.998,29.706-7.314,43.318&#10;&#9;&#9;&#9;&#9;c-3.366,8.619-6.544,16.76-6.429,22.641c0.072,3.611-2.798,6.595-6.407,6.666C234.335,388.223,234.291,388.223,234.247,388.223z" style="fill: rgb(161, 161, 161);"/>
      </g>
      <g>
        <path d="M231.453,227.892l-9.79,19.574c0,0,60.513,6.991,58.743,19.574&#10;&#9;&#9;&#9;&#9;c-1.77,12.583,11.189,13.981,18.182,13.981c6.993,0,16.784-5.924,16.784-19.574c0-13.649-10.692-23.768-23.777-23.768&#10;&#9;&#9;&#9;&#9;C278.51,237.679,231.453,227.892,231.453,227.892z" style="fill: rgb(161, 161, 161);"/>
      </g>
      <g>
        <path d="M282.715,292.931c0,0,9.262,17.405-6.533,64.111&#10;&#9;&#9;&#9;&#9;c10.325,2.766,16.74,5.213,16.74,5.213s15.616-41.978,24.982-50.349s5.314-21.303-8.321-24.955&#10;&#9;&#9;&#9;&#9;C295.949,283.299,282.715,292.931,282.715,292.931L282.715,292.931z" style="fill: rgb(161, 161, 161);"/>
      </g>
    </g>
  </g>
</svg>