<?xml version="1.0" encoding="utf-8"?>
<!-- Generator: Adobe Illustrator 17.0.0, SVG Export Plug-In . SVG Version: 6.00 Build 0)  -->
<!DOCTYPE svg PUBLIC "-//W3C//DTD SVG 1.1//EN" "http://www.w3.org/Graphics/SVG/1.1/DTD/svg11.dtd">
<svg version="1.1" id="Layer_1" xmlns="http://www.w3.org/2000/svg" xmlns:xlink="http://www.w3.org/1999/xlink" x="0px" y="0px"
	 width="196.3px" height="196.11px" viewBox="-48.904 -64.988 196.3 196.11" enable-background="new -48.904 -64.988 196.3 196.11"
	 xml:space="preserve">
<path d="M134.943,131.122H-36.656c-2.247,0-4.086-1.839-4.086-4.086V-3.705c0-2.255,1.839-4.086,4.086-4.086h171.598
	c2.247,0,4.086,1.83,4.086,4.086v130.742C139.028,129.284,137.198,131.122,134.943,131.122z M-32.57,122.951h163.427V0.381H-32.57
	C-32.57,0.381-32.57,122.951-32.57,122.951z"/>
<path d="M110.429,131.122h-122.57c-2.247,0-4.086-1.839-4.086-4.086V20.809c0-2.255,1.839-4.086,4.086-4.086h122.57
	c2.247,0,4.086,1.83,4.086,4.086v106.228C114.514,129.284,112.684,131.122,110.429,131.122z M-8.056,122.951h114.399V24.895H-8.056
	C-8.056,24.895-8.056,122.951-8.056,122.951z"/>
<path d="M143.277,0.381c-0.049,0-0.114,0-0.163,0H-44.827c-1.839,0-3.44-1.218-3.922-2.983c-0.498-1.765,0.237-3.636,1.814-4.592
	l93.971-57.199c1.291-0.793,2.917-0.793,4.249,0l93.399,56.84c1.561,0.564,2.713,2.076,2.713,3.849
	C147.363-1.45,145.525,0.381,143.277,0.381z M-30.257-7.791h158.802L49.144-56.116L-30.257-7.791z"/>
<path d="M98.172,49.409H0.115c-2.247,0-4.086-1.839-4.086-4.086c0-2.247,1.839-4.086,4.086-4.086h98.056
	c2.247,0,4.086,1.839,4.086,4.086C102.257,47.57,100.427,49.409,98.172,49.409z"/>
<path d="M98.172,73.923H0.115c-2.247,0-4.086-1.839-4.086-4.086c0-2.247,1.839-4.086,4.086-4.086h98.056
	c2.247,0,4.086,1.839,4.086,4.086C102.257,72.084,100.427,73.923,98.172,73.923z"/>
<path d="M98.172,98.437H0.115c-2.247,0-4.086-1.839-4.086-4.086c0-2.247,1.839-4.086,4.086-4.086h98.056
	c2.247,0,4.086,1.839,4.086,4.086C102.257,96.598,100.427,98.437,98.172,98.437z"/>
</svg>
