<?xml version="1.0" encoding="utf-8"?>
<!-- Generator: Adobe Illustrator 17.0.0, SVG Export Plug-In . SVG Version: 6.00 Build 0)  -->
<!DOCTYPE svg PUBLIC "-//W3C//DTD SVG 1.1//EN" "http://www.w3.org/Graphics/SVG/1.1/DTD/svg11.dtd">
<svg version="1.1" id="Layer_1" xmlns="http://www.w3.org/2000/svg" xmlns:xlink="http://www.w3.org/1999/xlink" x="0px" y="0px"
	 width="913.284px" height="225.3px" viewBox="0 0 913.284 225.3" enable-background="new 0 0 913.284 225.3" xml:space="preserve" shape-rendering="geometricPrecision">
<g>
	<g>
		<path fill="#FFFFFF" d="M315.489,187.738h-11.988v-9.724h-0.266c-1.51,3.376-4.129,6.107-7.858,8.192
			c-3.73,2.086-8.038,3.13-12.92,3.13c-3.11,0-6.04-0.466-8.791-1.398c-2.754-0.933-5.174-2.375-7.259-4.329
			c-2.088-1.952-3.753-4.462-4.995-7.526c-1.245-3.064-1.865-6.681-1.865-10.856v-40.625h11.988v37.296c0,2.93,0.4,5.44,1.199,7.526
			c0.799,2.088,1.865,3.776,3.197,5.061c1.332,1.288,2.864,2.221,4.596,2.798c1.731,0.578,3.53,0.865,5.395,0.865
			c2.485,0,4.795-0.4,6.926-1.199c2.132-0.799,3.997-2.065,5.595-3.796c1.598-1.731,2.84-3.929,3.729-6.593
			c0.887-2.664,1.332-5.815,1.332-9.456v-32.501h11.988V187.738z"/>
		<path fill="#FFFFFF" d="M333.604,124.602h11.988v9.058h0.266c2.308-3.374,5.481-5.994,9.523-7.859
			c4.04-1.865,8.192-2.797,12.454-2.797c4.883,0,9.302,0.845,13.254,2.531c3.95,1.688,7.326,4.042,10.123,7.06
			c2.797,3.02,4.949,6.549,6.46,10.589c1.508,4.042,2.264,8.37,2.264,12.986c0,4.708-0.756,9.081-2.264,13.121
			c-1.511,4.042-3.663,7.548-6.46,10.523c-2.797,2.977-6.173,5.307-10.123,6.993c-3.952,1.686-8.371,2.531-13.254,2.531
			c-4.528,0-8.79-0.955-12.787-2.864c-3.996-1.908-7.059-4.506-9.19-7.792h-0.266v46.62h-11.988V124.602z M366.371,134.193
			c-3.197,0-6.083,0.555-8.657,1.664c-2.577,1.112-4.751,2.62-6.527,4.529c-1.777,1.91-3.153,4.219-4.129,6.926
			c-0.979,2.71-1.465,5.661-1.465,8.858c0,3.198,0.486,6.15,1.465,8.859c0.976,2.709,2.352,5.018,4.129,6.926
			c1.776,1.911,3.95,3.419,6.527,4.529c2.574,1.111,5.461,1.664,8.657,1.664c3.198,0,6.081-0.553,8.658-1.664
			c2.575-1.11,4.749-2.618,6.527-4.529c1.775-1.908,3.15-4.217,4.129-6.926c0.976-2.708,1.465-5.661,1.465-8.859
			c0-3.197-0.489-6.147-1.465-8.858c-0.979-2.707-2.354-5.016-4.129-6.926c-1.778-1.909-3.952-3.418-6.527-4.529
			C372.452,134.748,369.568,134.193,366.371,134.193z"/>
		<path fill="#FFFFFF" d="M424.044,160.566c0,2.754,0.6,5.261,1.799,7.526s2.774,4.196,4.729,5.794
			c1.952,1.598,4.217,2.843,6.794,3.729c2.574,0.889,5.238,1.332,7.991,1.332c3.729,0,6.97-0.865,9.724-2.597
			c2.752-1.732,5.282-4.017,7.593-6.86l9.057,6.926c-6.659,8.614-15.984,12.92-27.972,12.92c-4.974,0-9.48-0.845-13.52-2.531
			c-4.041-1.686-7.459-4.016-10.256-6.993c-2.798-2.975-4.952-6.481-6.46-10.523c-1.511-4.04-2.265-8.413-2.265-13.121
			c0-4.705,0.821-9.078,2.464-13.12c1.643-4.04,3.907-7.546,6.794-10.523c2.884-2.974,6.327-5.305,10.323-6.993
			c3.996-1.686,8.346-2.531,13.053-2.531c5.595,0,10.323,0.978,14.186,2.93c3.862,1.954,7.036,4.508,9.523,7.659
			c2.485,3.153,4.283,6.706,5.395,10.656c1.109,3.952,1.665,7.972,1.665,12.054v4.263H424.044z M461.873,150.975
			c-0.089-2.664-0.511-5.106-1.265-7.326c-0.756-2.218-1.887-4.15-3.397-5.794c-1.51-1.642-3.397-2.93-5.661-3.862
			c-2.264-0.932-4.907-1.398-7.925-1.398c-2.93,0-5.618,0.555-8.058,1.664c-2.444,1.112-4.508,2.554-6.194,4.329
			c-1.688,1.778-2.997,3.753-3.93,5.927c-0.932,2.177-1.399,4.329-1.399,6.46H461.873z"/>
		<path fill="#FFFFFF" d="M489.046,124.602h11.988v9.724h0.266c0.799-1.686,1.865-3.218,3.197-4.595
			c1.332-1.376,2.818-2.551,4.462-3.53c1.642-0.976,3.44-1.752,5.395-2.331c1.952-0.576,3.906-0.865,5.86-0.865
			c1.952,0,3.73,0.266,5.329,0.799l-0.533,12.92c-0.979-0.266-1.954-0.487-2.931-0.666c-0.978-0.177-1.953-0.266-2.93-0.266
			c-5.86,0-10.345,1.644-13.453,4.928c-3.11,3.286-4.662,8.392-4.662,15.318v31.702h-11.988V124.602z"/>
		<path fill="#FFFFFF" d="M544.99,160.566c0,2.754,0.6,5.261,1.799,7.526s2.774,4.196,4.729,5.794
			c1.952,1.598,4.217,2.843,6.794,3.729c2.574,0.889,5.238,1.332,7.991,1.332c3.729,0,6.97-0.865,9.724-2.597
			c2.752-1.732,5.282-4.017,7.593-6.86l9.057,6.926c-6.659,8.614-15.984,12.92-27.972,12.92c-4.974,0-9.48-0.845-13.52-2.531
			c-4.041-1.686-7.459-4.016-10.255-6.993c-2.798-2.975-4.952-6.481-6.46-10.523c-1.511-4.04-2.265-8.413-2.265-13.121
			c0-4.705,0.821-9.078,2.464-13.12c1.643-4.04,3.907-7.546,6.794-10.523c2.884-2.974,6.327-5.305,10.323-6.993
			c3.996-1.686,8.346-2.531,13.053-2.531c5.595,0,10.323,0.978,14.186,2.93c3.862,1.954,7.036,4.508,9.523,7.659
			c2.485,3.153,4.283,6.706,5.395,10.656c1.109,3.952,1.665,7.972,1.665,12.054v4.263H544.99z M582.819,150.975
			c-0.089-2.664-0.511-5.106-1.265-7.326c-0.756-2.218-1.887-4.15-3.397-5.794c-1.51-1.642-3.397-2.93-5.661-3.862
			c-2.264-0.932-4.907-1.398-7.925-1.398c-2.93,0-5.618,0.555-8.058,1.664c-2.444,1.112-4.508,2.554-6.194,4.329
			c-1.688,1.778-2.997,3.753-3.93,5.927c-0.932,2.177-1.399,4.329-1.399,6.46H582.819z"/>
		<path fill="#FFFFFF" d="M609.992,124.602h11.988v9.724h0.266c0.799-1.686,1.865-3.218,3.197-4.595
			c1.332-1.376,2.818-2.551,4.462-3.53c1.642-0.976,3.44-1.752,5.395-2.331c1.952-0.576,3.906-0.865,5.86-0.865
			c1.952,0,3.73,0.266,5.329,0.799l-0.533,12.92c-0.979-0.266-1.954-0.487-2.931-0.666c-0.978-0.177-1.953-0.266-2.93-0.266
			c-5.86,0-10.345,1.644-13.453,4.928c-3.11,3.286-4.662,8.392-4.662,15.318v31.702h-11.988V124.602z"/>
		<path fill="#FFFFFF" d="M653.814,156.17c0-4.616,0.866-8.924,2.598-12.92c1.731-3.996,4.106-7.502,7.126-10.522
			c3.018-3.018,6.571-5.395,10.656-7.126c4.083-1.732,8.479-2.598,13.187-2.598c4.706,0,9.101,0.865,13.187,2.598
			c4.083,1.731,7.636,4.108,10.656,7.126c3.018,3.02,5.395,6.526,7.126,10.522c1.731,3.997,2.598,8.304,2.598,12.92
			c0,4.619-0.866,8.947-2.598,12.987c-1.731,4.042-4.108,7.548-7.126,10.523c-3.02,2.976-6.573,5.328-10.656,7.059
			c-4.085,1.732-8.481,2.598-13.187,2.598c-4.708,0-9.103-0.865-13.187-2.598c-4.085-1.731-7.638-4.083-10.656-7.059
			c-3.02-2.975-5.395-6.481-7.126-10.523C654.68,165.117,653.814,160.789,653.814,156.17z M666.602,156.17
			c0,3.198,0.486,6.15,1.465,8.859c0.976,2.709,2.351,5.018,4.129,6.926c1.775,1.911,3.95,3.419,6.526,4.529
			c2.575,1.111,5.462,1.664,8.658,1.664s6.081-0.553,8.658-1.664c2.574-1.11,4.749-2.618,6.526-4.529
			c1.776-1.908,3.151-4.217,4.13-6.926c0.976-2.708,1.465-5.661,1.465-8.859c0-3.197-0.489-6.147-1.465-8.858
			c-0.979-2.707-2.354-5.016-4.13-6.926c-1.777-1.909-3.952-3.418-6.526-4.529c-2.577-1.109-5.462-1.664-8.658-1.664
			s-6.083,0.555-8.658,1.664c-2.576,1.112-4.751,2.62-6.526,4.529c-1.778,1.91-3.153,4.219-4.129,6.926
			C667.089,150.022,666.602,152.973,666.602,156.17z"/>
		<path fill="#FFFFFF" d="M745.055,160.566c0,2.754,0.6,5.261,1.799,7.526c1.199,2.264,2.774,4.196,4.729,5.794
			c1.952,1.598,4.217,2.843,6.794,3.729c2.574,0.889,5.238,1.332,7.991,1.332c3.729,0,6.97-0.865,9.724-2.597
			c2.752-1.732,5.282-4.017,7.593-6.86l9.057,6.926c-6.659,8.614-15.984,12.92-27.972,12.92c-4.974,0-9.48-0.845-13.52-2.531
			c-4.041-1.686-7.459-4.016-10.256-6.993c-2.798-2.975-4.952-6.481-6.46-10.523c-1.511-4.04-2.265-8.413-2.265-13.121
			c0-4.705,0.821-9.078,2.464-13.12c1.643-4.04,3.907-7.546,6.794-10.523c2.884-2.974,6.327-5.305,10.323-6.993
			c3.996-1.686,8.346-2.531,13.054-2.531c5.595,0,10.323,0.978,14.186,2.93c3.862,1.954,7.036,4.508,9.523,7.659
			c2.485,3.153,4.283,6.706,5.395,10.656c1.109,3.952,1.665,7.972,1.665,12.054v4.263H745.055z M782.884,150.975
			c-0.089-2.664-0.511-5.106-1.265-7.326c-0.756-2.218-1.887-4.15-3.397-5.794c-1.51-1.642-3.397-2.93-5.661-3.862
			c-2.264-0.932-4.907-1.398-7.925-1.398c-2.93,0-5.618,0.555-8.058,1.664c-2.444,1.112-4.508,2.554-6.194,4.329
			c-1.688,1.778-2.997,3.753-3.93,5.927c-0.932,2.177-1.399,4.329-1.399,6.46H782.884z"/>
		<path fill="#FFFFFF" d="M819.514,188.537c-2.397,0-4.461-0.866-6.194-2.598c-1.731-1.731-2.597-3.795-2.597-6.194
			c0-2.397,0.865-4.462,2.597-6.194c1.732-1.731,3.796-2.597,6.194-2.597c2.398,0,4.462,0.865,6.194,2.597
			c1.732,1.731,2.598,3.796,2.598,6.194c0,2.398-0.865,4.462-2.598,6.194C823.976,187.671,821.912,188.537,819.514,188.537z"/>
		<path fill="#FFFFFF" d="M845.222,101.958c0-2.397,0.865-4.462,2.597-6.194c1.731-1.731,3.796-2.598,6.194-2.598
			s4.462,0.866,6.194,2.598s2.598,3.796,2.598,6.194c0,2.397-0.866,4.462-2.598,6.194s-3.796,2.598-6.194,2.598
			s-4.462-0.866-6.194-2.598C846.087,106.42,845.222,104.355,845.222,101.958z M848.019,124.602h11.988v63.136h-11.988V124.602z"/>
		<path fill="#FFFFFF" d="M912.885,134.992h-17.182v28.638c0,1.778,0.043,3.53,0.133,5.261c0.088,1.731,0.42,3.286,0.999,4.662
			c0.576,1.378,1.465,2.487,2.664,3.331c1.199,0.845,2.951,1.265,5.261,1.265c1.42,0,2.885-0.133,4.395-0.4
			c1.509-0.266,2.885-0.753,4.129-1.465v10.922c-1.421,0.799-3.263,1.353-5.527,1.665c-2.265,0.31-4.019,0.466-5.261,0.466
			c-4.618,0-8.193-0.645-10.723-1.932c-2.531-1.286-4.395-2.951-5.594-4.994c-1.199-2.042-1.911-4.329-2.131-6.86
			c-0.223-2.532-0.333-5.083-0.333-7.66v-32.9h-13.853v-10.39h13.853v-17.716h11.988v17.716h17.182V134.992z"/>
	</g>
	<g>
		<path fill="#FFFFFF" d="M257.155,43.158c0-1.274,0.435-2.346,1.307-3.219c0.871-0.87,1.945-1.307,3.218-1.307
			s2.346,0.438,3.219,1.307c0.871,0.873,1.307,1.946,1.307,3.219c0,1.275-0.436,2.348-1.307,3.218
			c-0.873,0.872-1.946,1.307-3.219,1.307s-2.348-0.435-3.218-1.307C257.59,45.506,257.155,44.433,257.155,43.158z M258.663,61.565
			h6.035v46.468h-6.035V61.565z"/>
		<path fill="#FFFFFF" d="M282.802,31.993h6.035v76.039h-6.035V31.993z"/>
		<path fill="#FFFFFF" d="M332.084,74.64c0-0.871-0.035-1.927-0.1-3.168c-0.067-1.24-0.117-2.497-0.151-3.772
			c-0.035-1.274-0.085-2.465-0.151-3.571c-0.068-1.106-0.1-1.961-0.1-2.564h6.035c0.066,1.744,0.116,3.419,0.151,5.029
			c0.034,1.609,0.116,2.649,0.251,3.118h0.302c1.207-2.547,3.218-4.743,6.035-6.588c2.816-1.843,6.1-2.766,9.857-2.766
			c3.083,0,5.9,0.789,8.448,2.364c2.548,1.576,4.391,4.14,5.532,7.695c1.475-3.486,3.671-6.036,6.588-7.644
			c2.917-1.61,5.984-2.415,9.203-2.415c3.621,0,6.57,0.57,8.851,1.71c2.279,1.141,4.073,2.632,5.382,4.476
			c1.307,1.844,2.212,3.973,2.716,6.386c0.502,2.415,0.753,4.896,0.753,7.443v27.659h-6.035V80.674c0-1.876-0.169-3.704-0.502-5.482
			c-0.337-1.775-0.923-3.369-1.76-4.777c-0.839-1.409-2.012-2.531-3.521-3.37c-1.508-0.837-3.469-1.257-5.884-1.257
			c-2.816,0-5.129,0.52-6.94,1.558c-1.811,1.04-3.236,2.364-4.274,3.974c-1.04,1.609-1.778,3.353-2.214,5.23
			c-0.436,1.878-0.653,3.656-0.653,5.33v26.151h-6.035V80.07c0-4.29-0.789-7.744-2.364-10.359c-1.576-2.615-4.007-3.923-7.292-3.923
			c-2.212,0-4.31,0.386-6.287,1.156c-1.978,0.771-3.688,1.946-5.129,3.521c-1.442,1.576-2.582,3.554-3.419,5.934
			c-0.839,2.381-1.258,5.18-1.258,8.398v23.234h-6.035V74.64z"/>
		<path fill="#FFFFFF" d="M417.275,43.158c0-1.274,0.435-2.346,1.307-3.219c0.871-0.87,1.945-1.307,3.218-1.307
			s2.346,0.438,3.219,1.307c0.871,0.873,1.307,1.946,1.307,3.219c0,1.275-0.436,2.348-1.307,3.218
			c-0.873,0.872-1.946,1.307-3.219,1.307s-2.348-0.435-3.218-1.307C417.71,45.506,417.275,44.433,417.275,43.158z M418.783,61.565
			h6.035v46.468h-6.035V61.565z"/>
		<path fill="#FFFFFF" d="M439.302,84.798c0-3.553,0.603-6.822,1.81-9.807c1.208-2.983,2.882-5.565,5.03-7.745
			c2.144-2.178,4.726-3.872,7.744-5.079c3.018-1.207,6.303-1.811,9.858-1.811c3.553,0,6.822,0.604,9.807,1.811
			c2.983,1.207,5.565,2.901,7.744,5.079c2.179,2.18,3.872,4.762,5.08,7.745c1.207,2.985,1.809,6.253,1.809,9.807
			c0,3.555-0.603,6.824-1.809,9.807c-1.208,2.985-2.901,5.567-5.08,7.745c-2.179,2.18-4.761,3.872-7.744,5.079
			c-2.985,1.208-6.253,1.811-9.807,1.811c-3.555,0-6.84-0.603-9.858-1.811c-3.017-1.207-5.599-2.899-7.744-5.079
			c-2.148-2.178-3.822-4.76-5.03-7.745C439.904,91.622,439.302,88.353,439.302,84.798z M445.336,84.798
			c0,2.615,0.418,5.079,1.257,7.393c0.837,2.313,2.062,4.324,3.671,6.035c1.609,1.71,3.553,3.068,5.834,4.073
			c2.278,1.006,4.828,1.509,7.644,1.509c2.815,0,5.364-0.503,7.643-1.509c2.279-1.006,4.225-2.363,5.834-4.073
			c1.61-1.71,2.832-3.722,3.671-6.035c0.837-2.314,1.257-4.778,1.257-7.393c0-2.614-0.42-5.079-1.257-7.392
			c-0.839-2.314-2.062-4.326-3.671-6.035c-1.609-1.71-3.554-3.069-5.834-4.074s-4.828-1.508-7.643-1.508
			c-2.816,0-5.366,0.502-7.644,1.508c-2.281,1.006-4.225,2.364-5.834,4.074c-1.61,1.709-2.834,3.721-3.671,6.035
			C445.754,79.719,445.336,82.184,445.336,84.798z"/>
	</g>
</g>
<g>
	<g>
		<polygon fill="#ED693C" points="151.187,32.304 118.14,0 85.436,32.058 85.436,31.995 39.893,31.995 39.893,76.702 0,115.806
			14.295,150.262 86.422,79.56 97.167,116.588 134.085,141.43 156.511,164.202 156.511,185.27 116.137,224.847 191.374,224.787
			230.11,130.903 236.416,115.619 		"/>
		<polygon fill="#C8502F" points="156.511,164.202 134.085,141.43 97.167,116.588 86.422,79.56 14.295,150.262 45.261,224.903
			116.137,224.847 156.511,185.27 		"/>
	</g>
	<g>
		<path fill="#FFFFFF" d="M147.297,102.533c-2.642-3.361-6.095-6.035-10.357-8.016c-4.264-1.981-8.376-2.972-12.338-2.972
			c-2.043,0-4.115,0.18-6.215,0.541c-2.103,0.36-3.994,1.052-5.674,2.071c-1.683,1.022-3.093,2.341-4.232,3.962
			c-1.143,1.621-1.711,3.693-1.711,6.215c0,2.161,0.45,3.962,1.35,5.404c0.901,1.44,2.221,2.702,3.963,3.783
			c1.739,1.081,3.81,2.071,6.214,2.972c2.401,0.901,5.103,1.832,8.106,2.792c4.322,1.44,8.826,3.033,13.509,4.773
			c4.683,1.742,8.945,4.052,12.789,6.934c3.842,2.882,7.025,6.456,9.546,10.718c2.522,4.264,3.783,9.578,3.783,15.941
			c0,7.325-1.35,13.661-4.052,19.002c-2.702,5.345-6.335,9.757-10.898,13.239c-4.565,3.484-9.788,6.066-15.67,7.746
			c-5.885,1.68-11.95,2.521-18.193,2.521c-9.127,0-17.953-1.592-26.478-4.773c-8.528-3.18-15.612-7.714-21.255-13.599l20.173-20.534
			c3.121,3.844,7.233,7.056,12.339,9.636c5.103,2.584,10.177,3.872,15.22,3.872c2.279,0,4.503-0.239,6.664-0.72
			c2.161-0.479,4.052-1.262,5.674-2.342c1.621-1.081,2.91-2.522,3.872-4.323c0.96-1.801,1.441-3.962,1.441-6.484
			c0-2.401-0.602-4.441-1.801-6.124c-1.202-1.68-2.913-3.211-5.134-4.593c-2.223-1.379-4.983-2.64-8.285-3.783
			c-3.304-1.14-7.057-2.369-11.258-3.693c-4.084-1.32-8.077-2.882-11.978-4.683c-3.904-1.801-7.385-4.112-10.447-6.935
			c-3.063-2.819-5.525-6.242-7.385-10.267c-1.864-4.021-2.792-8.915-2.792-14.679c0-7.084,1.44-13.149,4.322-18.193
			c2.882-5.043,6.664-9.186,11.348-12.428c4.683-3.243,9.967-5.612,15.851-7.115c5.883-1.5,11.827-2.251,17.833-2.251
			c7.204,0,14.559,1.323,22.064,3.962c7.503,2.643,14.078,6.546,19.723,11.708L147.297,102.533z"/>
	</g>
	<g>
		<polygon fill="#F29067" points="75.258,42.396 39.878,42.345 39.893,31.995 85.436,32.057 		"/>
	</g>
	<g>
		<polygon fill="#F29067" points="232.075,126.139 110.904,7.401 118.14,0 236.415,115.619 		"/>
	</g>
</g>
</svg>
