<?xml version="1.0" encoding="utf-8"?>
<!-- Generator: Adobe Illustrator 17.0.1, SVG Export Plug-In . SVG Version: 6.00 Build 0)  -->
<!DOCTYPE svg PUBLIC "-//W3C//DTD SVG 1.1//EN" "http://www.w3.org/Graphics/SVG/1.1/DTD/svg11.dtd">
<svg version="1.1" id="Livello_1" xmlns="http://www.w3.org/2000/svg" xmlns:xlink="http://www.w3.org/1999/xlink" x="0px" y="0px"
	 width="850.394px" height="850.394px" viewBox="0 0 850.394 850.394" enable-background="new 0 0 850.394 850.394"
	 xml:space="preserve">
<g>
	<g>
		<text transform="matrix(1 0 0 1 1377.0818 -432.6001)"><tspan x="0" y="0" fill="#E94D29" font-family="'MuseoSans-300'" font-size="33.9492" letter-spacing="2">ILMIO</tspan><tspan x="104.97" y="0" fill="#E94D29" font-family="'MuseoSans-900'" font-size="33.9492" letter-spacing="2">SUPEREROE</tspan><tspan x="327.063" y="0" fill="#E94D29" font-family="'MuseoSans-300'" font-size="33.9492" letter-spacing="2">.IT</tspan></text>
	</g>
	<g>
		<g>
			<g enable-background="new    ">
				<g enable-background="new    ">
					<defs>
						<path id="SVGID_1_" enable-background="new    " d="M1303.502-459.426l4.524-1.135c0.163-0.041,0.329-0.078,0.497-0.11
							l-4.524,1.135C1303.831-459.503,1303.665-459.467,1303.502-459.426z"/>
					</defs>
					<clipPath id="SVGID_2_">
						<use xlink:href="#SVGID_1_"  overflow="visible"/>
					</clipPath>
					<g clip-path="url(#SVGID_2_)" enable-background="new    ">
						<path fill="#858585" d="M1308.523-460.671l-4.524,1.135c-0.168,0.032-0.334,0.069-0.497,0.11l4.524-1.135
							C1308.189-460.602,1308.354-460.638,1308.523-460.671"/>
					</g>
				</g>
				<g enable-background="new    ">
					<defs>
						<path id="SVGID_3_" enable-background="new    " d="M1313.832-423.195l-4.524,1.135c0.745-0.52,1.347-1.177,1.813-2.022
							c0.46-0.852,0.641-1.885,0.636-3.062c-0.005-1.131-0.287-2.074-0.851-2.873c-0.564-0.799-1.36-1.508-2.387-2.165
							c-1.034-0.656-2.344-1.222-3.886-1.788l4.524-1.135c1.542,0.566,2.853,1.131,3.886,1.788c1.027,0.657,1.823,1.365,2.387,2.165
							c0.564,0.8,0.846,1.742,0.851,2.873c0.006,1.177-0.176,2.21-0.636,3.062C1315.179-424.372,1314.577-423.715,1313.832-423.195z
							"/>
					</defs>
					<clipPath id="SVGID_4_">
						<use xlink:href="#SVGID_3_"  overflow="visible"/>
					</clipPath>
				</g>
				<g enable-background="new    ">
					<defs>
						<path id="SVGID_5_" enable-background="new    " d="M1309.156-435.104l-4.524,1.135c-1.542-0.52-3.316-1.131-5.277-1.742
							c-1.916-0.611-3.788-1.365-5.608-2.21c-1.821-0.852-3.462-1.931-4.866-3.25l4.523-1.135c1.404,1.32,3.046,2.399,4.866,3.25
							c1.821,0.845,3.692,1.599,5.608,2.21C1305.839-436.235,1307.614-435.624,1309.156-435.104z"/>
					</defs>
					<clipPath id="SVGID_6_">
						<use xlink:href="#SVGID_5_"  overflow="visible"/>
					</clipPath>
				</g>
				<g enable-background="new    ">
					<defs>
						<path id="SVGID_7_" enable-background="new    " d="M1298.89-470.747l4.524-1.135c-0.073,0.018-0.147,0.037-0.22,0.056
							c-2.747,0.709-5.215,1.833-7.398,3.341c-2.138,1.508-3.899,3.484-5.241,5.837c-1.341,2.405-1.984,5.227-1.968,8.568
							c0.013,2.73,0.443,5.038,1.341,6.923c0.898,1.931,2.02,3.53,3.476,4.85l-4.523,1.135c-1.456-1.32-2.578-2.919-3.476-4.849
							c-0.898-1.885-1.328-4.193-1.341-6.923c-0.016-3.341,0.627-6.163,1.968-8.568c1.341-2.353,3.103-4.329,5.24-5.838
							c2.183-1.508,4.651-2.633,7.398-3.341C1298.743-470.71,1298.816-470.728,1298.89-470.747z"/>
					</defs>
					<clipPath id="SVGID_8_">
						<use xlink:href="#SVGID_7_"  overflow="visible"/>
					</clipPath>
				</g>
				<g enable-background="new    ">
					<defs>
						<path id="SVGID_9_" enable-background="new    " d="M1315.625-410.723l-4.524,1.135c-2.431,0.61-4.926,0.9-7.461,0.9
							c-4.245,0-8.403-0.754-12.378-2.262c-3.969-1.502-7.29-3.621-9.964-6.403l4.524-1.135c2.674,2.782,5.995,4.901,9.964,6.403
							c3.975,1.508,8.133,2.262,12.378,2.262C1310.699-409.824,1313.194-410.113,1315.625-410.723z"/>
					</defs>
					<clipPath id="SVGID_10_">
						<use xlink:href="#SVGID_9_"  overflow="visible"/>
					</clipPath>
				</g>
			</g>
		</g>
		<g>
			<path fill="#E8501D" d="M1357.821-457.975c-2.993-10.227-42.18-37.144-49.394-36.759c-7.214-0.385-46.401,26.532-49.395,36.759
				c-1.065,3.638-1.032,8.587-0.22,14.088l31.736-22.922c-3.396,2.93-4.28,4.881-4.517,5.297c-1.341,2.405-1.984,5.227-1.968,8.568
				c0.013,2.73,0.443,5.038,1.341,6.923c0.898,1.931,2.02,3.53,3.476,4.849c1.404,1.32,3.046,2.399,4.866,3.25
				c1.821,0.845,3.692,1.599,5.608,2.21c1.961,0.611,3.735,1.222,5.277,1.742c1.542,0.566,2.853,1.131,3.886,1.788
				c1.027,0.657,1.823,1.365,2.387,2.165c0.564,0.799,0.846,1.742,0.851,2.873c0.005,1.176-0.176,2.21-0.636,3.062
				c-0.466,0.845-1.533,1.76-2.278,2.28l0.117,0.073c-0.151,0.061-0.3,0.13-0.441,0.213c-2.245,0.178-4.608,0.127-6.604-0.893
				c-1.634-0.835-3.105-1.817-4.784-2.416c-0.182-1.281-1.932-3.378-1.932-3.378l-4.524,1.202l-9.377,9.647
				c2.674,2.782,5.995,4.901,9.964,6.403c3.975,1.508,8.133,2.262,12.378,2.262c6.559,0,10.936-0.416,15.486-2.512
				c3.628-1.671,5.942-4.346,5.942-4.346c-0.555,0.139-1.934,0.263-1.548-0.217c1.008-1.252,1.398-3.078,1.993-4.231
				c0.593-1.149,1.86,1.862,1.86,1.862l-13.811,23.757c10.951-0.647,21.02-2.461,24.947-5.722
				C1349.231-408.999,1362.016-443.642,1357.821-457.975z"/>
			<path fill="#9D2C16" d="M1325.514-419.994c-0.596,1.153-0.986,2.979-1.993,4.231c-0.386,0.48,0.993,0.356,1.548,0.217
				c0,0-2.314,2.675-5.942,4.346c-4.55,2.095-8.927,2.512-15.486,2.512c-4.245,0-8.403-0.754-12.378-2.262
				c-3.969-1.501-7.29-3.621-9.964-6.403l9.377-9.647l4.524-1.202l1.932,3.378c0,0,3.149,1.581,4.784,2.416
				c1.996,1.02,4.359,1.071,6.604,0.893c0.141-0.083,0.29-0.151,0.441-0.213l-0.117-0.073c0.745-0.52,1.812-1.435,2.278-2.28
				c0.46-0.852,0.641-1.885,0.636-3.062c-0.006-1.131-0.287-2.074-0.851-2.873c-0.564-0.799-1.36-1.508-2.387-2.165
				c-1.034-0.656-2.344-1.222-3.886-1.788c-1.542-0.52-3.316-1.131-5.277-1.742c-1.916-0.611-3.788-1.365-5.608-2.21
				c-1.82-0.852-3.462-1.931-4.866-3.25c-1.456-1.32-2.578-2.919-3.476-4.849c-0.898-1.885-1.328-4.193-1.341-6.923
				c-0.016-3.341,0.627-6.163,1.968-8.568c0.237-0.415,1.121-2.367,4.517-5.297l-31.736,22.922
				c2.386,16.174,11.531,37.147,19.531,43.79c4.511,3.745,17.12,5.583,29.865,5.935v0.014c0.073-0.002,0.145-0.005,0.218-0.007
				c0.073,0.002,0.145,0.005,0.218,0.007v-0.014c1.647-0.045,3.292-0.116,4.918-0.212l13.811-23.757
				C1327.374-418.132,1326.107-421.143,1325.514-419.994z"/>
		</g>
		<g>
			<path fill="#FFFFFF" d="M1311.49-472.979c3.362,0,6.818,0.618,10.322,1.885c3.504,1.222,6.591,3.062,9.218,5.506l-9.002,9.796
				c-1.225-1.599-2.861-2.828-4.869-3.77c-2.014-0.936-3.93-1.411-5.746-1.411c-0.934,0-1.912,0.098-2.891,0.234
				c-0.978,0.189-1.865,0.52-2.656,0.988c-0.79,0.475-1.444,1.086-1.949,1.885c-0.512,0.754-0.784,1.742-0.778,2.919
				c0.005,1.034,0.196,1.885,0.618,2.542c0.422,0.663,1.03,1.274,1.877,1.788c0.795,0.52,1.776,0.995,2.899,1.417
				c1.116,0.423,2.381,0.845,3.781,1.313c2.013,0.663,4.11,1.417,6.31,2.262c2.194,0.8,4.158,1.931,5.987,3.25
				c1.778,1.365,3.281,3.062,4.456,5.038c1.176,2.022,1.793,4.518,1.808,7.482c0.017,3.439-0.619,6.449-1.87,8.945
				c-1.244,2.496-2.915,4.616-5.052,6.215c-2.137,1.651-4.559,2.873-7.306,3.627c-2.753,0.799-5.592,1.177-8.484,1.177
				c-4.245,0-8.403-0.754-12.378-2.262c-3.969-1.502-7.29-3.621-9.964-6.403l9.377-9.647c1.452,1.788,3.372,3.341,5.761,4.518
				c2.383,1.222,4.762,1.833,7.094,1.833c1.076,0,2.099-0.091,3.129-0.325c1.023-0.241,1.91-0.611,2.649-1.086
				c0.745-0.52,1.347-1.177,1.813-2.022c0.46-0.852,0.641-1.885,0.636-3.062c-0.005-1.131-0.287-2.074-0.851-2.873
				c-0.564-0.799-1.36-1.508-2.387-2.165c-1.034-0.656-2.344-1.222-3.886-1.788c-1.542-0.52-3.316-1.131-5.277-1.742
				c-1.916-0.611-3.788-1.365-5.608-2.21c-1.821-0.852-3.462-1.931-4.866-3.25c-1.456-1.32-2.578-2.919-3.476-4.849
				c-0.898-1.885-1.328-4.193-1.341-6.923c-0.016-3.341,0.627-6.163,1.968-8.568c1.341-2.353,3.103-4.329,5.241-5.838
				c2.183-1.508,4.651-2.633,7.398-3.341C1305.946-472.602,1308.695-472.979,1311.49-472.979z"/>
		</g>
	</g>
</g>
<g>
	<text transform="matrix(1 0 0 1 1110.4021 -658.6248)"><tspan x="0" y="0" fill="#9D9D9C" font-family="'FrutigerLTStd-Roman'" font-size="13">ADATTAMENTO ORIZZONTALE </tspan><tspan x="0" y="15.6" fill="#9D9D9C" font-family="'FrutigerLTStd-Roman'" font-size="13">PER IL WEB</tspan></text>
</g>
<rect x="1074.252" y="-667.922" fill="#9D9D9C" width="26.667" height="9.076"/>
<g>
	<g>
		<g>
			<path fill="#E94D29" d="M302.544-119.295h2.343v23.867h-2.343V-119.295z"/>
			<path fill="#E94D29" d="M314.189-119.295h2.343v21.763H327.6v2.104h-13.411V-119.295z"/>
			<path fill="#E94D29" d="M335.305-119.295h2.444l6.247,14.021c0.543,1.223,1.154,2.92,1.154,2.92h0.068
				c0,0,0.645-1.697,1.188-2.92l6.247-14.021h2.411l1.901,23.867h-2.343l-1.324-16.704c-0.102-1.29-0.068-3.327-0.068-3.327h-0.067
				c0,0-0.713,2.105-1.256,3.327l-5.603,12.256h-2.207l-5.602-12.256c-0.543-1.188-1.29-3.395-1.29-3.395h-0.068
				c0,0,0.034,2.104-0.067,3.395l-1.324,16.704h-2.343L335.305-119.295z"/>
			<path fill="#E94D29" d="M365.519-119.295h2.343v23.867h-2.343V-119.295z"/>
			<path fill="#E94D29" d="M387.688-119.702c6.757,0,12.155,5.33,12.155,12.188c0,6.995-5.398,12.495-12.155,12.495
				c-6.756,0-12.154-5.5-12.154-12.495C375.534-114.372,380.932-119.702,387.688-119.702z M387.688-97.194
				c5.364,0,9.71-4.48,9.71-10.321c0-5.703-4.346-10.015-9.71-10.015c-5.397,0-9.71,4.312-9.71,10.015
				C377.978-101.675,382.29-97.194,387.688-97.194z"/>
			<path fill="#E94D29" d="M408.227-102.999c0,0,2.75,2.512,5.806,2.512c1.223,0,2.547-0.475,2.547-1.936
				c0-2.885-10.933-2.783-10.933-10.252c0-4.481,3.769-7.436,8.59-7.436c5.229,0,7.809,2.75,7.809,2.75l-2.513,4.855
				c0,0-2.444-2.139-5.364-2.139c-1.222,0-2.58,0.543-2.58,1.901c0,3.055,10.933,2.512,10.933,10.185
				c0,4.039-3.09,7.537-8.556,7.537c-5.704,0-8.861-3.463-8.861-3.463L408.227-102.999z"/>
			<path fill="#E94D29" d="M428.631-119.702h5.941v15.346c0,2.545,1.663,3.904,4.21,3.904c2.546,0,4.21-1.359,4.21-3.904v-15.346
				h5.941v15.346c0,5.465-4.007,9.336-10.118,9.336c-6.179,0-10.185-3.871-10.185-9.336V-119.702z"/>
			<path fill="#E94D29" d="M456.672-119.702h10.084c4.719,0,7.91,3.463,7.91,8.352s-3.191,8.42-7.91,8.42h-4.143v7.502h-5.941
				V-119.702z M465.533-108.024c2.071,0,3.09-1.392,3.09-3.327s-1.019-3.26-2.988-3.26h-3.021v6.587H465.533z"/>
			<path fill="#E94D29" d="M480.571-119.702h15.21v5.092h-9.269v4.414h7.401v5.092h-7.401v4.584h9.744v5.092h-15.686V-119.702z"/>
			<path fill="#E94D29" d="M502.91-119.702h8.454c2.478,0,3.667,0.169,4.719,0.577c2.75,1.052,4.481,3.53,4.481,7.062
				c0,2.58-1.222,5.398-3.632,6.62v0.068c0,0,0.339,0.441,0.916,1.461l4.72,8.486h-6.621l-4.311-8.182h-2.784v8.182h-5.941V-119.702
				z M511.432-108.702c1.901,0,3.09-1.053,3.09-2.988c0-1.833-0.679-2.92-3.667-2.92h-2.003v5.908H511.432z"/>
			<path fill="#E94D29" d="M528.44-119.702h15.21v5.092h-9.269v4.414h7.401v5.092h-7.401v4.584h9.744v5.092H528.44V-119.702z"/>
			<path fill="#E94D29" d="M550.778-119.702h8.454c2.479,0,3.667,0.169,4.719,0.577c2.75,1.052,4.481,3.53,4.481,7.062
				c0,2.58-1.222,5.398-3.632,6.62v0.068c0,0,0.339,0.441,0.916,1.461l4.72,8.486h-6.621l-4.312-8.182h-2.784v8.182h-5.941V-119.702
				z M559.3-108.702c1.901,0,3.09-1.053,3.09-2.988c0-1.833-0.679-2.92-3.667-2.92h-2.003v5.908H559.3z"/>
			<path fill="#E94D29" d="M587.275-120.111c7.334,0,12.697,5.433,12.697,12.393c0,7.129-5.363,12.698-12.697,12.698
				c-7.333,0-12.697-5.568-12.697-12.698C574.578-114.678,579.942-120.111,587.275-120.111z M587.275-100.452
				c3.633,0,6.553-3.125,6.553-7.266c0-3.973-2.92-6.96-6.553-6.96s-6.553,2.987-6.553,6.96
				C580.723-103.577,583.642-100.452,587.275-100.452z"/>
			<path fill="#E94D29" d="M606.388-119.702h15.21v5.092h-9.269v4.414h7.401v5.092h-7.401v4.584h9.744v5.092h-15.686V-119.702z"/>
			<path fill="#E94D29" d="M628.725-98.143h2.683v2.715h-2.683V-98.143z"/>
			<path fill="#E94D29" d="M639.658-119.295h2.343v23.867h-2.343V-119.295z"/>
			<path fill="#E94D29" d="M656.667-117.191h-8.59v-2.104h19.488v2.104h-8.556v21.762h-2.343V-117.191z"/>
		</g>
	</g>
	<g>
		<g>
			<g enable-background="new    ">
				<g enable-background="new    ">
					<defs>
						<path id="SVGID_11_" enable-background="new    " d="M225.502-122.254l4.524-1.135c0.163-0.041,0.329-0.078,0.497-0.11
							l-4.524,1.135C225.83-122.331,225.665-122.295,225.502-122.254z"/>
					</defs>
					<clipPath id="SVGID_12_">
						<use xlink:href="#SVGID_11_"  overflow="visible"/>
					</clipPath>
					<g clip-path="url(#SVGID_12_)" enable-background="new    ">
						<path fill="#858585" d="M230.522-123.499l-4.524,1.135c-0.168,0.032-0.334,0.069-0.497,0.11l4.524-1.135
							C230.188-123.43,230.354-123.466,230.522-123.499"/>
					</g>
				</g>
				<g enable-background="new    ">
					<defs>
						<path id="SVGID_13_" enable-background="new    " d="M235.832-86.023l-4.523,1.135c0.745-0.52,1.347-1.177,1.813-2.022
							c0.46-0.852,0.641-1.885,0.636-3.062c-0.005-1.131-0.287-2.074-0.851-2.873c-0.564-0.8-1.36-1.508-2.387-2.165
							c-1.034-0.657-2.344-1.222-3.886-1.788l4.523-1.135c1.542,0.566,2.853,1.131,3.886,1.788c1.027,0.657,1.823,1.365,2.387,2.165
							c0.564,0.8,0.846,1.742,0.851,2.873c0.006,1.177-0.176,2.21-0.636,3.062C237.179-87.2,236.576-86.543,235.832-86.023z"/>
					</defs>
					<clipPath id="SVGID_14_">
						<use xlink:href="#SVGID_13_"  overflow="visible"/>
					</clipPath>
				</g>
				<g enable-background="new    ">
					<defs>
						<path id="SVGID_15_" enable-background="new    " d="M231.155-97.932l-4.523,1.135c-1.542-0.52-3.316-1.131-5.277-1.742
							c-1.916-0.611-3.788-1.365-5.608-2.21c-1.821-0.852-3.462-1.931-4.866-3.25l4.523-1.135c1.404,1.32,3.045,2.399,4.866,3.25
							c1.821,0.845,3.692,1.599,5.608,2.21C227.839-99.063,229.613-98.452,231.155-97.932z"/>
					</defs>
					<clipPath id="SVGID_16_">
						<use xlink:href="#SVGID_15_"  overflow="visible"/>
					</clipPath>
				</g>
				<g enable-background="new    ">
					<defs>
						<path id="SVGID_17_" enable-background="new    " d="M220.889-133.575l4.523-1.135c-0.073,0.018-0.147,0.037-0.22,0.056
							c-2.747,0.709-5.215,1.833-7.398,3.341c-2.138,1.508-3.899,3.484-5.241,5.838c-1.341,2.405-1.984,5.227-1.968,8.568
							c0.013,2.73,0.443,5.038,1.341,6.923c0.898,1.931,2.02,3.53,3.476,4.849L210.88-104c-1.456-1.32-2.578-2.919-3.476-4.849
							c-0.898-1.885-1.328-4.193-1.341-6.923c-0.016-3.341,0.627-6.163,1.968-8.568c1.341-2.353,3.103-4.329,5.241-5.838
							c2.183-1.508,4.651-2.633,7.398-3.341C220.743-133.538,220.816-133.556,220.889-133.575z"/>
					</defs>
					<clipPath id="SVGID_18_">
						<use xlink:href="#SVGID_17_"  overflow="visible"/>
					</clipPath>
				</g>
				<g enable-background="new    ">
					<defs>
						<path id="SVGID_19_" enable-background="new    " d="M237.625-73.551l-4.524,1.135c-2.431,0.61-4.926,0.9-7.461,0.9
							c-4.245,0-8.403-0.754-12.378-2.262c-3.969-1.502-7.29-3.621-9.963-6.403l4.523-1.135c2.674,2.782,5.995,4.901,9.963,6.403
							c3.975,1.508,8.133,2.262,12.378,2.262C232.699-72.651,235.193-72.941,237.625-73.551z"/>
					</defs>
					<clipPath id="SVGID_20_">
						<use xlink:href="#SVGID_19_"  overflow="visible"/>
					</clipPath>
				</g>
			</g>
		</g>
		<g>
			<path fill="#E8501D" d="M279.82-120.803c-2.993-10.227-42.18-37.144-49.394-36.759c-7.214-0.385-46.401,26.532-49.395,36.759
				c-1.065,3.638-1.032,8.587-0.22,14.088l31.736-22.922c-3.396,2.93-4.28,4.881-4.517,5.297c-1.341,2.405-1.984,5.227-1.968,8.568
				c0.013,2.73,0.443,5.038,1.341,6.923c0.898,1.931,2.02,3.53,3.476,4.849c1.404,1.32,3.046,2.399,4.866,3.25
				c1.821,0.845,3.692,1.599,5.608,2.21c1.961,0.611,3.735,1.222,5.277,1.742c1.542,0.566,2.852,1.131,3.886,1.788
				c1.027,0.657,1.823,1.365,2.387,2.165c0.564,0.799,0.846,1.742,0.851,2.873c0.006,1.176-0.176,2.21-0.636,3.062
				c-0.466,0.845-1.533,1.76-2.278,2.28l0.117,0.073c-0.151,0.061-0.3,0.13-0.441,0.213c-2.245,0.178-4.608,0.127-6.604-0.893
				c-1.635-0.835-3.105-1.817-4.784-2.416c-0.182-1.281-1.932-3.378-1.932-3.378l-4.524,1.202l-9.377,9.647
				c2.674,2.782,5.995,4.901,9.964,6.403c3.975,1.508,8.133,2.262,12.378,2.262c6.559,0,10.936-0.416,15.486-2.512
				c3.628-1.671,5.942-4.346,5.942-4.346c-0.555,0.139-1.934,0.263-1.548-0.217c1.008-1.252,1.397-3.078,1.993-4.231
				c0.593-1.149,1.86,1.862,1.86,1.862l-13.811,23.757c10.951-0.647,21.02-2.461,24.947-5.722
				C271.231-71.826,284.016-106.47,279.82-120.803z"/>
			<path fill="#9D2C16" d="M247.514-82.822c-0.596,1.153-0.986,2.979-1.993,4.231c-0.386,0.48,0.993,0.356,1.548,0.217
				c0,0-2.314,2.675-5.942,4.346c-4.55,2.095-8.927,2.512-15.486,2.512c-4.245,0-8.403-0.754-12.378-2.262
				c-3.969-1.502-7.29-3.621-9.964-6.403l9.377-9.647l4.524-1.202l1.932,3.378c0,0,3.149,1.58,4.784,2.416
				c1.996,1.02,4.359,1.071,6.604,0.893c0.141-0.083,0.29-0.151,0.441-0.213l-0.117-0.073c0.745-0.52,1.812-1.435,2.278-2.28
				c0.46-0.852,0.641-1.885,0.636-3.062c-0.006-1.131-0.287-2.074-0.851-2.873c-0.564-0.799-1.36-1.508-2.387-2.165
				c-1.034-0.657-2.344-1.222-3.886-1.788c-1.542-0.52-3.316-1.131-5.277-1.742c-1.916-0.611-3.788-1.365-5.608-2.21
				c-1.82-0.852-3.462-1.931-4.866-3.25c-1.456-1.32-2.578-2.919-3.476-4.849c-0.898-1.885-1.328-4.193-1.341-6.923
				c-0.016-3.341,0.627-6.163,1.968-8.568c0.237-0.415,1.121-2.367,4.517-5.297l-31.736,22.922
				c2.386,16.174,11.531,37.147,19.531,43.79c4.511,3.745,17.12,5.583,29.865,5.935v0.014c0.073-0.002,0.145-0.005,0.218-0.007
				c0.073,0.002,0.145,0.005,0.218,0.007v-0.014c1.647-0.045,3.292-0.116,4.918-0.212l13.811-23.757
				C249.374-80.96,248.107-83.971,247.514-82.822z"/>
		</g>
		<g>
			<path fill="#FFFFFF" d="M233.49-135.807c3.362,0,6.818,0.618,10.322,1.885c3.504,1.222,6.591,3.062,9.218,5.506l-9.002,9.796
				c-1.225-1.599-2.861-2.828-4.869-3.77c-2.014-0.936-3.93-1.411-5.746-1.411c-0.934,0-1.913,0.098-2.891,0.234
				c-0.978,0.189-1.865,0.52-2.655,0.988c-0.79,0.475-1.444,1.086-1.949,1.885c-0.512,0.754-0.784,1.742-0.778,2.919
				c0.005,1.034,0.196,1.885,0.618,2.542c0.422,0.663,1.03,1.274,1.877,1.788c0.795,0.52,1.776,0.995,2.899,1.417
				c1.116,0.423,2.381,0.845,3.781,1.313c2.013,0.663,4.11,1.417,6.31,2.262c2.194,0.8,4.158,1.931,5.987,3.25
				c1.778,1.365,3.281,3.062,4.456,5.038c1.176,2.022,1.793,4.518,1.808,7.482c0.017,3.439-0.619,6.449-1.87,8.945
				c-1.244,2.496-2.915,4.615-5.052,6.215c-2.137,1.651-4.559,2.873-7.306,3.627c-2.753,0.8-5.592,1.177-8.484,1.177
				c-4.245,0-8.403-0.754-12.378-2.262c-3.969-1.502-7.29-3.621-9.963-6.403l9.377-9.647c1.452,1.788,3.372,3.341,5.761,4.518
				c2.383,1.222,4.763,1.833,7.094,1.833c1.076,0,2.099-0.091,3.129-0.325c1.023-0.241,1.91-0.611,2.648-1.086
				c0.745-0.52,1.347-1.177,1.813-2.022c0.46-0.852,0.641-1.885,0.636-3.062c-0.005-1.131-0.287-2.074-0.851-2.873
				c-0.564-0.8-1.36-1.508-2.387-2.165c-1.034-0.657-2.344-1.222-3.886-1.788c-1.542-0.52-3.316-1.131-5.277-1.742
				c-1.916-0.611-3.788-1.365-5.608-2.21c-1.821-0.852-3.462-1.931-4.866-3.25c-1.456-1.32-2.578-2.919-3.476-4.849
				c-0.898-1.885-1.328-4.193-1.341-6.923c-0.016-3.341,0.627-6.163,1.968-8.568c1.341-2.353,3.103-4.329,5.241-5.838
				c2.183-1.508,4.651-2.633,7.398-3.341C227.946-135.429,230.695-135.807,233.49-135.807z"/>
		</g>
	</g>
</g>
<g>
	<g>
		<g enable-background="new    ">
			<g enable-background="new    ">
				<defs>
					<path id="SVGID_21_" enable-background="new    " d="M395.298,334.243l27.46-6.89c0.989-0.248,1.995-0.471,3.016-0.668
						l-27.46,6.89C397.292,333.773,396.287,333.995,395.298,334.243z"/>
				</defs>
				<use xlink:href="#SVGID_21_"  overflow="visible" fill="#FFFFFF"/>
				<clipPath id="SVGID_22_">
					<use xlink:href="#SVGID_21_"  overflow="visible"/>
				</clipPath>
				<g clip-path="url(#SVGID_22_)" enable-background="new    ">
					<path fill="#FFFFFF" d="M425.774,326.685l-27.46,6.89c-1.022,0.197-2.027,0.42-3.016,0.668l27.46-6.89
						C423.747,327.105,424.752,326.882,425.774,326.685"/>
				</g>
			</g>
			<g enable-background="new    ">
				<defs>
					<path id="SVGID_23_" enable-background="new    " d="M458.005,554.184l-27.46,6.89c4.521-3.157,8.177-7.143,11.006-12.273
						c2.79-5.169,3.894-11.445,3.859-18.587c-0.033-6.866-1.743-12.589-5.168-17.442c-3.425-4.854-8.256-9.155-14.493-13.141
						c-6.276-3.985-14.23-7.418-23.592-10.851l27.46-6.89c9.362,3.433,17.316,6.866,23.592,10.851
						c6.237,3.986,11.067,8.288,14.493,13.141s5.135,10.576,5.168,17.442c0.035,7.142-1.069,13.417-3.859,18.587
						C466.182,547.041,462.526,551.028,458.005,554.184z"/>
				</defs>
				<use xlink:href="#SVGID_23_"  overflow="visible" fill="#FFFFFF"/>
				<clipPath id="SVGID_24_">
					<use xlink:href="#SVGID_23_"  overflow="visible"/>
				</clipPath>
			</g>
			<g enable-background="new    ">
				<defs>
					<path id="SVGID_25_" enable-background="new    " d="M429.618,481.89l-27.46,6.89c-9.361-3.157-20.132-6.866-32.037-10.576
						c-11.631-3.709-22.993-8.287-34.045-13.416c-11.052-5.17-21.016-11.721-29.54-19.731l27.46-6.89
						c8.524,8.01,18.488,14.561,29.54,19.731c11.052,5.13,22.413,9.707,34.045,13.416
						C409.486,475.024,420.257,478.733,429.618,481.89z"/>
				</defs>
				<use xlink:href="#SVGID_25_"  overflow="visible" fill="#FFFFFF"/>
				<clipPath id="SVGID_26_">
					<use xlink:href="#SVGID_25_"  overflow="visible"/>
				</clipPath>
			</g>
			<g enable-background="new    ">
				<defs>
					<path id="SVGID_27_" enable-background="new    " d="M367.297,265.518l27.46-6.89c-0.446,0.112-0.891,0.225-1.337,0.34
						c-16.676,4.301-31.657,11.129-44.908,20.283c-12.976,9.156-23.671,21.152-31.813,35.437
						c-8.14,14.601-12.046,31.728-11.947,52.011c0.081,16.574,2.69,30.582,8.142,42.027c5.453,11.721,12.265,21.428,21.102,29.439
						l-27.46,6.89c-8.837-8.011-15.649-17.719-21.102-29.439c-5.452-11.444-8.061-25.453-8.142-42.027
						c-0.099-20.283,3.807-37.41,11.947-52.011c8.142-14.286,18.837-26.281,31.813-35.437c13.25-9.155,28.232-15.982,44.908-20.283
						C366.406,265.744,366.852,265.63,367.297,265.518z"/>
				</defs>
				<use xlink:href="#SVGID_27_"  overflow="visible" fill="#FFFFFF"/>
				<clipPath id="SVGID_28_">
					<use xlink:href="#SVGID_27_"  overflow="visible"/>
				</clipPath>
			</g>
			<g enable-background="new    ">
				<defs>
					<path id="SVGID_29_" enable-background="new    " d="M468.891,629.895l-27.46,6.89c-14.76,3.704-29.902,5.462-45.292,5.462
						c-25.768,0-51.011-4.577-75.142-13.733c-24.092-9.115-44.253-21.98-60.484-38.87l27.46-6.89
						c16.231,16.89,36.392,29.755,60.484,38.87c24.131,9.156,49.374,13.733,75.142,13.733
						C438.989,635.358,454.131,633.599,468.891,629.895z"/>
				</defs>
				<use xlink:href="#SVGID_29_"  overflow="visible" fill="#FFFFFF"/>
				<clipPath id="SVGID_30_">
					<use xlink:href="#SVGID_29_"  overflow="visible"/>
				</clipPath>
			</g>
		</g>
	</g>
	<path fill="#FFFFFF" d="M725.043,343.052c-18.17-62.084-256.058-225.488-299.851-223.151
		c-43.795-2.338-281.682,161.067-299.853,223.151c-6.463,22.083-6.264,52.125-1.336,85.523
		c14.484,98.189,70.002,225.506,118.566,265.829c27.383,22.736,103.929,33.891,181.299,36.028v0.086
		c0.442-0.011,0.882-0.031,1.325-0.043c0.443,0.012,0.882,0.031,1.325,0.043v-0.086c10.001-0.276,19.985-0.706,29.854-1.289
		c66.479-3.928,127.602-14.942,151.444-34.739C672.898,640.366,750.51,430.059,725.043,343.052z M396.85,376.867
		c2.561,4.026,6.255,7.735,11.392,10.852c4.825,3.157,10.782,6.038,17.599,8.602c6.777,2.565,14.454,5.131,22.953,7.972
		c12.219,4.025,24.95,8.603,38.308,13.733c13.318,4.853,25.239,11.719,36.343,19.731c10.793,8.286,19.915,18.586,27.05,30.582
		c7.137,12.273,10.887,27.427,10.974,45.422c0.102,20.875-3.759,39.146-11.349,54.299c-7.551,15.154-17.694,28.019-30.668,37.726
		c-12.972,10.024-27.677,17.443-44.351,22.021c-16.712,4.854-33.945,7.143-51.502,7.143c-25.768,0-51.011-4.577-75.142-13.733
		c-24.092-9.115-44.253-21.98-60.484-38.87l56.922-58.562c8.812,10.852,20.471,20.283,34.973,27.427
		c14.465,7.419,28.911,11.128,43.066,11.128c6.53,0,12.745-0.552,18.994-1.973c6.21-1.46,11.595-3.709,16.078-6.59
		c4.521-3.157,8.177-7.143,11.006-12.273c2.79-5.169,3.894-11.445,3.859-18.587c-0.033-6.866-1.743-12.589-5.168-17.443
		c-3.425-4.853-8.256-9.155-14.492-13.141c-6.276-3.985-14.23-7.418-23.592-10.851c-9.361-3.157-20.132-6.866-32.037-10.576
		c-11.631-3.709-22.993-8.287-34.044-13.416c-11.052-5.17-21.016-11.721-29.54-19.731c-8.837-8.012-15.649-17.719-21.102-29.439
		c-5.452-11.445-8.061-25.453-8.142-42.027c-0.099-20.283,3.806-37.41,11.947-52.011c8.142-14.285,18.836-26.281,31.813-35.437
		c13.25-9.155,28.232-15.982,44.908-20.283c16.714-4.301,33.4-6.59,50.37-6.59c20.411,0,41.388,3.749,62.658,11.443
		c21.268,7.42,40.013,18.587,55.961,33.425l-54.649,59.469c-7.437-9.707-17.367-17.166-29.555-22.888
		c-12.228-5.682-23.855-8.563-34.881-8.563c-5.67,0-11.611,0.592-17.55,1.421c-5.938,1.144-11.324,3.157-16.12,5.998
		c-4.796,2.881-8.766,6.59-11.831,11.445c-3.106,4.577-4.758,10.575-4.723,17.719C393.13,367.712,394.289,372.881,396.85,376.867z"
		/>
</g>
<g>
	<g>
		<text transform="matrix(1 0 0 1 299.0816 959.092)"><tspan x="0" y="0" fill="#E94D29" font-family="'MuseoSans-300'" font-size="33.9492" letter-spacing="2">ILMIO</tspan><tspan x="104.97" y="0" fill="#E94D29" font-family="'MuseoSans-900'" font-size="33.9492" letter-spacing="2">SUPEREROE</tspan><tspan x="327.063" y="0" fill="#E94D29" font-family="'MuseoSans-300'" font-size="33.9492" letter-spacing="2">.IT</tspan></text>
	</g>
	<g>
		<g>
			<g enable-background="new    ">
				<g enable-background="new    ">
					<defs>
						<path id="SVGID_31_" enable-background="new    " d="M225.502,932.266l4.524-1.135c0.163-0.041,0.329-0.078,0.497-0.11
							l-4.524,1.135C225.83,932.189,225.665,932.225,225.502,932.266z"/>
					</defs>
					<clipPath id="SVGID_32_">
						<use xlink:href="#SVGID_31_"  overflow="visible"/>
					</clipPath>
					<g clip-path="url(#SVGID_32_)" enable-background="new    ">
						<path fill="#858585" d="M230.522,931.021l-4.524,1.135c-0.168,0.032-0.334,0.069-0.497,0.11l4.524-1.135
							C230.188,931.09,230.354,931.054,230.522,931.021"/>
					</g>
				</g>
				<g enable-background="new    ">
					<defs>
						<path id="SVGID_33_" enable-background="new    " d="M235.832,968.497l-4.523,1.135c0.745-0.52,1.347-1.177,1.813-2.022
							c0.46-0.852,0.641-1.885,0.636-3.062c-0.005-1.131-0.287-2.074-0.851-2.873c-0.564-0.799-1.36-1.508-2.387-2.165
							c-1.034-0.656-2.344-1.222-3.886-1.788l4.523-1.135c1.542,0.566,2.853,1.131,3.886,1.788c1.027,0.657,1.823,1.365,2.387,2.165
							c0.564,0.8,0.846,1.742,0.851,2.873c0.006,1.177-0.176,2.21-0.636,3.062C237.179,967.32,236.576,967.977,235.832,968.497z"/>
					</defs>
					<clipPath id="SVGID_34_">
						<use xlink:href="#SVGID_33_"  overflow="visible"/>
					</clipPath>
				</g>
				<g enable-background="new    ">
					<defs>
						<path id="SVGID_35_" enable-background="new    " d="M231.155,956.588l-4.523,1.135c-1.542-0.52-3.316-1.131-5.277-1.742
							c-1.916-0.611-3.788-1.365-5.608-2.21c-1.821-0.852-3.462-1.931-4.866-3.25l4.523-1.135c1.404,1.32,3.045,2.399,4.866,3.25
							c1.821,0.845,3.692,1.599,5.608,2.21C227.839,955.457,229.613,956.068,231.155,956.588z"/>
					</defs>
					<clipPath id="SVGID_36_">
						<use xlink:href="#SVGID_35_"  overflow="visible"/>
					</clipPath>
				</g>
				<g enable-background="new    ">
					<defs>
						<path id="SVGID_37_" enable-background="new    " d="M220.889,920.945l4.523-1.135c-0.073,0.018-0.147,0.037-0.22,0.056
							c-2.747,0.708-5.215,1.833-7.398,3.341c-2.138,1.508-3.899,3.484-5.241,5.838c-1.341,2.405-1.984,5.227-1.968,8.568
							c0.013,2.73,0.443,5.038,1.341,6.923c0.898,1.931,2.02,3.53,3.476,4.849l-4.523,1.135c-1.456-1.32-2.578-2.919-3.476-4.849
							c-0.898-1.885-1.328-4.193-1.341-6.923c-0.016-3.341,0.627-6.162,1.968-8.568c1.341-2.353,3.103-4.329,5.241-5.838
							c2.183-1.508,4.651-2.633,7.398-3.341C220.743,920.982,220.816,920.964,220.889,920.945z"/>
					</defs>
					<clipPath id="SVGID_38_">
						<use xlink:href="#SVGID_37_"  overflow="visible"/>
					</clipPath>
				</g>
				<g enable-background="new    ">
					<defs>
						<path id="SVGID_39_" enable-background="new    " d="M237.625,980.969l-4.524,1.135c-2.431,0.61-4.926,0.9-7.461,0.9
							c-4.245,0-8.403-0.754-12.378-2.262c-3.969-1.502-7.29-3.621-9.963-6.403l4.523-1.135c2.674,2.782,5.995,4.901,9.963,6.403
							c3.975,1.508,8.133,2.262,12.378,2.262C232.699,981.869,235.193,981.579,237.625,980.969z"/>
					</defs>
					<clipPath id="SVGID_40_">
						<use xlink:href="#SVGID_39_"  overflow="visible"/>
					</clipPath>
				</g>
			</g>
		</g>
		<g>
			<path fill="#E8501D" d="M279.82,933.717c-2.993-10.227-42.18-37.144-49.394-36.759c-7.214-0.385-46.401,26.532-49.395,36.759
				c-1.065,3.638-1.032,8.587-0.22,14.088l31.736-22.922c-3.396,2.93-4.28,4.881-4.517,5.297c-1.341,2.405-1.984,5.227-1.968,8.568
				c0.013,2.73,0.443,5.038,1.341,6.923c0.898,1.931,2.02,3.53,3.476,4.849c1.404,1.32,3.046,2.399,4.866,3.25
				c1.821,0.845,3.692,1.599,5.608,2.21c1.961,0.611,3.735,1.222,5.277,1.742c1.542,0.566,2.852,1.131,3.886,1.788
				c1.027,0.656,1.823,1.365,2.387,2.165c0.564,0.799,0.846,1.742,0.851,2.873c0.006,1.176-0.176,2.21-0.636,3.062
				c-0.466,0.845-1.533,1.76-2.278,2.28l0.117,0.073c-0.151,0.061-0.3,0.13-0.441,0.213c-2.245,0.178-4.608,0.127-6.604-0.893
				c-1.635-0.835-3.105-1.817-4.784-2.416c-0.182-1.281-1.932-3.378-1.932-3.378l-4.524,1.202l-9.377,9.647
				c2.674,2.782,5.995,4.901,9.964,6.403c3.975,1.508,8.133,2.262,12.378,2.262c6.559,0,10.936-0.416,15.486-2.512
				c3.628-1.671,5.942-4.346,5.942-4.346c-0.555,0.139-1.934,0.263-1.548-0.217c1.008-1.252,1.397-3.078,1.993-4.231
				c0.593-1.149,1.86,1.862,1.86,1.862l-13.811,23.757c10.951-0.647,21.02-2.461,24.947-5.722
				C271.231,982.694,284.016,948.05,279.82,933.717z"/>
			<path fill="#9D2C16" d="M247.514,971.698c-0.596,1.153-0.986,2.979-1.993,4.231c-0.386,0.48,0.993,0.356,1.548,0.217
				c0,0-2.314,2.675-5.942,4.346c-4.55,2.095-8.927,2.512-15.486,2.512c-4.245,0-8.403-0.754-12.378-2.262
				c-3.969-1.501-7.29-3.621-9.964-6.403l9.377-9.647l4.524-1.202l1.932,3.378c0,0,3.149,1.581,4.784,2.416
				c1.996,1.02,4.359,1.071,6.604,0.893c0.141-0.083,0.29-0.151,0.441-0.213l-0.117-0.073c0.745-0.52,1.812-1.435,2.278-2.28
				c0.46-0.852,0.641-1.885,0.636-3.062c-0.006-1.131-0.287-2.074-0.851-2.873c-0.564-0.799-1.36-1.508-2.387-2.165
				c-1.034-0.656-2.344-1.222-3.886-1.788c-1.542-0.52-3.316-1.131-5.277-1.742c-1.916-0.611-3.788-1.365-5.608-2.21
				c-1.82-0.852-3.462-1.931-4.866-3.25c-1.456-1.32-2.578-2.919-3.476-4.849c-0.898-1.885-1.328-4.193-1.341-6.923
				c-0.016-3.341,0.627-6.163,1.968-8.568c0.237-0.415,1.121-2.367,4.517-5.297l-31.736,22.922
				c2.386,16.174,11.531,37.147,19.531,43.79c4.511,3.745,17.12,5.583,29.865,5.935v0.014c0.073-0.002,0.145-0.005,0.218-0.007
				c0.073,0.002,0.145,0.005,0.218,0.007v-0.014c1.647-0.045,3.292-0.116,4.918-0.212l13.811-23.757
				C249.374,973.56,248.107,970.549,247.514,971.698z"/>
		</g>
		<g>
			<path fill="#FFFFFF" d="M233.49,918.714c3.362,0,6.818,0.618,10.322,1.885c3.504,1.222,6.591,3.062,9.218,5.506l-9.002,9.796
				c-1.225-1.599-2.861-2.828-4.869-3.77c-2.014-0.936-3.93-1.411-5.746-1.411c-0.934,0-1.913,0.098-2.891,0.234
				c-0.978,0.189-1.865,0.52-2.655,0.988c-0.79,0.475-1.444,1.086-1.949,1.885c-0.512,0.754-0.784,1.742-0.778,2.919
				c0.005,1.034,0.196,1.885,0.618,2.542c0.422,0.663,1.03,1.274,1.877,1.788c0.795,0.52,1.776,0.995,2.899,1.417
				c1.116,0.422,2.381,0.845,3.781,1.313c2.013,0.663,4.11,1.417,6.31,2.262c2.194,0.799,4.158,1.931,5.987,3.25
				c1.778,1.365,3.281,3.062,4.456,5.038c1.176,2.022,1.793,4.518,1.808,7.482c0.017,3.439-0.619,6.448-1.87,8.945
				c-1.244,2.496-2.915,4.615-5.052,6.215c-2.137,1.651-4.559,2.873-7.306,3.627c-2.753,0.799-5.592,1.177-8.484,1.177
				c-4.245,0-8.403-0.754-12.378-2.262c-3.969-1.502-7.29-3.621-9.963-6.403l9.377-9.647c1.452,1.788,3.372,3.341,5.761,4.518
				c2.383,1.222,4.763,1.833,7.094,1.833c1.076,0,2.099-0.091,3.129-0.325c1.023-0.241,1.91-0.611,2.648-1.086
				c0.745-0.52,1.347-1.177,1.813-2.022c0.46-0.852,0.641-1.885,0.636-3.062c-0.005-1.131-0.287-2.074-0.851-2.873
				c-0.564-0.799-1.36-1.508-2.387-2.165c-1.034-0.656-2.344-1.222-3.886-1.788c-1.542-0.52-3.316-1.131-5.277-1.742
				c-1.916-0.611-3.788-1.365-5.608-2.21c-1.821-0.852-3.462-1.931-4.866-3.25c-1.456-1.32-2.578-2.919-3.476-4.849
				c-0.898-1.885-1.328-4.193-1.341-6.923c-0.016-3.341,0.627-6.162,1.968-8.568c1.341-2.353,3.103-4.329,5.241-5.838
				c2.183-1.508,4.651-2.633,7.398-3.341C227.946,919.091,230.695,918.714,233.49,918.714z"/>
		</g>
	</g>
</g>
</svg>
