<?xml version="1.0" encoding="utf-8"?>
<!-- Generator: Adobe Illustrator 19.1.0, SVG Export Plug-In . SVG Version: 6.00 Build 0)  -->
<svg version="1.1" id="Layer_1" shape-rendering="geometricPrecision"
	 xmlns="http://www.w3.org/2000/svg" xmlns:xlink="http://www.w3.org/1999/xlink" x="0px" y="0px" viewBox="293 273.7 913.3 225.3"
	 style="enable-background:new 293 273.7 913.3 225.3;" xml:space="preserve">
<style type="text/css">
	.st0{fill:#FFFFFF;}
</style>
<g>
	<g>
		<path class="st0" d="M608.5,461.4h-12v-9.7h-0.3c-1.5,3.4-4.1,6.1-7.9,8.2c-3.7,2.1-8,3.1-12.9,3.1c-3.1,0-6-0.5-8.8-1.4
			c-2.8-0.9-5.2-2.4-7.3-4.3c-2.1-2-3.8-4.5-5-7.5c-1.2-3.1-1.9-6.7-1.9-10.9v-40.6h12v37.3c0,2.9,0.4,5.4,1.2,7.5
			c0.8,2.1,1.9,3.8,3.2,5.1c1.3,1.3,2.9,2.2,4.6,2.8c1.7,0.6,3.5,0.9,5.4,0.9c2.5,0,4.8-0.4,6.9-1.2c2.1-0.8,4-2.1,5.6-3.8
			s2.8-3.9,3.7-6.6s1.3-5.8,1.3-9.5v-32.5h12L608.5,461.4L608.5,461.4z"/>
		<path class="st0" d="M626.6,398.3h12v9.1h0.3c2.3-3.4,5.5-6,9.5-7.9s8.2-2.8,12.5-2.8c4.9,0,9.3,0.8,13.3,2.5
			c4,1.7,7.3,4,10.1,7.1c2.8,3,4.9,6.5,6.5,10.6c1.5,4,2.3,8.4,2.3,13c0,4.7-0.8,9.1-2.3,13.1s-3.7,7.5-6.5,10.5s-6.2,5.3-10.1,7
			c-4,1.7-8.4,2.5-13.3,2.5c-4.5,0-8.8-1-12.8-2.9c-4-1.9-7.1-4.5-9.2-7.8h-0.3V499h-12V398.3L626.6,398.3z M659.4,407.9
			c-3.2,0-6.1,0.6-8.7,1.7c-2.6,1.1-4.8,2.6-6.5,4.5c-1.8,1.9-3.2,4.2-4.1,6.9c-1,2.7-1.5,5.7-1.5,8.9s0.5,6.1,1.5,8.9
			c1,2.7,2.4,5,4.1,6.9c1.8,1.9,3.9,3.4,6.5,4.5c2.6,1.1,5.5,1.7,8.7,1.7s6.1-0.6,8.7-1.7c2.6-1.1,4.7-2.6,6.5-4.5
			c1.8-1.9,3.1-4.2,4.1-6.9c1-2.7,1.5-5.7,1.5-8.9c0-3.2-0.5-6.1-1.5-8.9c-1-2.7-2.4-5-4.1-6.9c-1.8-1.9-4-3.4-6.5-4.5
			C665.5,408.4,662.6,407.9,659.4,407.9z"/>
		<path class="st0" d="M717,434.3c0,2.8,0.6,5.3,1.8,7.5c1.2,2.3,2.8,4.2,4.7,5.8c2,1.6,4.2,2.8,6.8,3.7s5.2,1.3,8,1.3
			c3.7,0,7-0.9,9.7-2.6c2.8-1.7,5.3-4,7.6-6.9l9.1,6.9c-6.7,8.6-16,12.9-28,12.9c-5,0-9.5-0.8-13.5-2.5s-7.5-4-10.3-7
			s-5-6.5-6.5-10.5s-2.3-8.4-2.3-13.1s0.8-9.1,2.5-13.1c1.6-4,3.9-7.5,6.8-10.5c2.9-3,6.3-5.3,10.3-7c4-1.7,8.3-2.5,13.1-2.5
			c5.6,0,10.3,1,14.2,2.9c3.9,2,7,4.5,9.5,7.7s4.3,6.7,5.4,10.7c1.1,4,1.7,8,1.7,12.1v4.3L717,434.3L717,434.3z M754.9,424.7
			c-0.1-2.7-0.5-5.1-1.3-7.3c-0.8-2.2-1.9-4.1-3.4-5.8c-1.5-1.6-3.4-2.9-5.7-3.9c-2.3-0.9-4.9-1.4-7.9-1.4c-2.9,0-5.6,0.6-8.1,1.7
			c-2.4,1.1-4.5,2.6-6.2,4.3c-1.7,1.8-3,3.8-3.9,5.9c-0.9,2.2-1.4,4.3-1.4,6.5H754.9z"/>
		<path class="st0" d="M782,398.3h12v9.7h0.3c0.8-1.7,1.9-3.2,3.2-4.6c1.3-1.4,2.8-2.6,4.5-3.5c1.6-1,3.4-1.8,5.4-2.3
			c2-0.6,3.9-0.9,5.9-0.9s3.7,0.3,5.3,0.8l-0.5,12.9c-1-0.3-2-0.5-2.9-0.7c-1-0.2-2-0.3-2.9-0.3c-5.9,0-10.3,1.6-13.5,4.9
			c-3.1,3.3-4.7,8.4-4.7,15.3v31.7h-12L782,398.3L782,398.3z"/>
		<path class="st0" d="M838,434.3c0,2.8,0.6,5.3,1.8,7.5c1.2,2.3,2.8,4.2,4.7,5.8c2,1.6,4.2,2.8,6.8,3.7s5.2,1.3,8,1.3
			c3.7,0,7-0.9,9.7-2.6c2.8-1.7,5.3-4,7.6-6.9l9.1,6.9c-6.7,8.6-16,12.9-28,12.9c-5,0-9.5-0.8-13.5-2.5s-7.5-4-10.3-7
			s-5-6.5-6.5-10.5s-2.3-8.4-2.3-13.1s0.8-9.1,2.5-13.1c1.6-4,3.9-7.5,6.8-10.5c2.9-3,6.3-5.3,10.3-7c4-1.7,8.3-2.5,13.1-2.5
			c5.6,0,10.3,1,14.2,2.9c3.9,2,7,4.5,9.5,7.7s4.3,6.7,5.4,10.7c1.1,4,1.7,8,1.7,12.1v4.3L838,434.3L838,434.3z M875.8,424.7
			c-0.1-2.7-0.5-5.1-1.3-7.3c-0.8-2.2-1.9-4.1-3.4-5.8c-1.5-1.6-3.4-2.9-5.7-3.9c-2.3-0.9-4.9-1.4-7.9-1.4c-2.9,0-5.6,0.6-8.1,1.7
			c-2.4,1.1-4.5,2.6-6.2,4.3c-1.7,1.8-3,3.8-3.9,5.9c-0.9,2.2-1.4,4.3-1.4,6.5H875.8z"/>
		<path class="st0" d="M903,398.3h12v9.7h0.3c0.8-1.7,1.9-3.2,3.2-4.6c1.3-1.4,2.8-2.6,4.5-3.5c1.6-1,3.4-1.8,5.4-2.3
			c2-0.6,3.9-0.9,5.9-0.9s3.7,0.3,5.3,0.8l-0.5,12.9c-1-0.3-2-0.5-2.9-0.7c-1-0.2-2-0.3-2.9-0.3c-5.9,0-10.3,1.6-13.5,4.9
			c-3.1,3.3-4.7,8.4-4.7,15.3v31.7h-12L903,398.3L903,398.3z"/>
		<path class="st0" d="M946.8,429.9c0-4.6,0.9-8.9,2.6-12.9c1.7-4,4.1-7.5,7.1-10.5s6.6-5.4,10.7-7.1c4.1-1.7,8.5-2.6,13.2-2.6
			s9.1,0.9,13.2,2.6c4.1,1.7,7.6,4.1,10.7,7.1c3,3,5.4,6.5,7.1,10.5c1.7,4,2.6,8.3,2.6,12.9c0,4.6-0.9,8.9-2.6,13
			c-1.7,4-4.1,7.5-7.1,10.5s-6.6,5.3-10.7,7.1c-4.1,1.7-8.5,2.6-13.2,2.6s-9.1-0.9-13.2-2.6c-4.1-1.7-7.6-4.1-10.7-7.1
			c-3-3-5.4-6.5-7.1-10.5C947.7,438.8,946.8,434.5,946.8,429.9z M959.6,429.9c0,3.2,0.5,6.1,1.5,8.9c1,2.7,2.4,5,4.1,6.9
			c1.8,1.9,4,3.4,6.5,4.5c2.6,1.1,5.5,1.7,8.7,1.7s6.1-0.6,8.7-1.7c2.6-1.1,4.7-2.6,6.5-4.5c1.8-1.9,3.2-4.2,4.1-6.9
			c1-2.7,1.5-5.7,1.5-8.9c0-3.2-0.5-6.1-1.5-8.9c-1-2.7-2.4-5-4.1-6.9c-1.8-1.9-4-3.4-6.5-4.5c-2.6-1.1-5.5-1.7-8.7-1.7
			s-6.1,0.6-8.7,1.7c-2.6,1.1-4.8,2.6-6.5,4.5c-1.8,1.9-3.2,4.2-4.1,6.9C960.1,423.7,959.6,426.7,959.6,429.9z"/>
		<path class="st0" d="M1038.1,434.3c0,2.8,0.6,5.3,1.8,7.5c1.2,2.3,2.8,4.2,4.7,5.8c2,1.6,4.2,2.8,6.8,3.7c2.6,0.9,5.2,1.3,8,1.3
			c3.7,0,7-0.9,9.7-2.6c2.8-1.7,5.3-4,7.6-6.9l9.1,6.9c-6.7,8.6-16,12.9-28,12.9c-5,0-9.5-0.8-13.5-2.5s-7.5-4-10.3-7
			c-2.8-3-5-6.5-6.5-10.5s-2.3-8.4-2.3-13.1s0.8-9.1,2.5-13.1c1.6-4,3.9-7.5,6.8-10.5c2.9-3,6.3-5.3,10.3-7c4-1.7,8.3-2.5,13.1-2.5
			c5.6,0,10.3,1,14.2,2.9c3.9,2,7,4.5,9.5,7.7s4.3,6.7,5.4,10.7s1.7,8,1.7,12.1v4.3L1038.1,434.3L1038.1,434.3z M1075.9,424.7
			c-0.1-2.7-0.5-5.1-1.3-7.3c-0.8-2.2-1.9-4.1-3.4-5.8c-1.5-1.6-3.4-2.9-5.7-3.9c-2.3-0.9-4.9-1.4-7.9-1.4c-2.9,0-5.6,0.6-8.1,1.7
			c-2.4,1.1-4.5,2.6-6.2,4.3c-1.7,1.8-3,3.8-3.9,5.9c-0.9,2.2-1.4,4.3-1.4,6.5H1075.9z"/>
		<path class="st0" d="M1112.5,462.2c-2.4,0-4.5-0.9-6.2-2.6s-2.6-3.8-2.6-6.2s0.9-4.5,2.6-6.2s3.8-2.6,6.2-2.6
			c2.4,0,4.5,0.9,6.2,2.6s2.6,3.8,2.6,6.2c0,2.4-0.9,4.5-2.6,6.2C1117,461.4,1114.9,462.2,1112.5,462.2z"/>
		<path class="st0" d="M1138.2,375.7c0-2.4,0.9-4.5,2.6-6.2c1.7-1.7,3.8-2.6,6.2-2.6s4.5,0.9,6.2,2.6s2.6,3.8,2.6,6.2
			s-0.9,4.5-2.6,6.2c-1.7,1.7-3.8,2.6-6.2,2.6s-4.5-0.9-6.2-2.6C1139.1,380.1,1138.2,378.1,1138.2,375.7z M1141,398.3h12v63.1h-12
			V398.3z"/>
		<path class="st0" d="M1205.9,408.7h-17.2v28.6c0,1.8,0,3.5,0.1,5.3c0.1,1.7,0.4,3.3,1,4.7c0.6,1.4,1.5,2.5,2.7,3.3s3,1.3,5.3,1.3
			c1.4,0,2.9-0.1,4.4-0.4s2.9-0.8,4.1-1.5v10.9c-1.4,0.8-3.3,1.4-5.5,1.7c-2.3,0.3-4,0.5-5.3,0.5c-4.6,0-8.2-0.6-10.7-1.9
			s-4.4-3-5.6-5s-1.9-4.3-2.1-6.9c-0.2-2.5-0.3-5.1-0.3-7.7v-32.9h-13.9v-10.4h13.9v-17.7h12v17.7h17.2L1205.9,408.7L1205.9,408.7z"
			/>
	</g>
	<g>
		<path class="st0" d="M550.2,316.9c0-1.3,0.4-2.3,1.3-3.2c0.9-0.9,1.9-1.3,3.2-1.3s2.3,0.4,3.2,1.3s1.3,1.9,1.3,3.2
			c0,1.3-0.4,2.3-1.3,3.2c-0.9,0.9-1.9,1.3-3.2,1.3s-2.3-0.4-3.2-1.3S550.2,318.1,550.2,316.9z M551.7,335.3h6v46.5h-6V335.3z"/>
		<path class="st0" d="M575.8,305.7h6v76h-6V305.7z"/>
		<path class="st0" d="M625.1,348.3c0-0.9,0-1.9-0.1-3.2c-0.1-1.2-0.1-2.5-0.2-3.8c0-1.3-0.1-2.5-0.2-3.6c-0.1-1.1-0.1-2-0.1-2.6h6
			c0.1,1.7,0.1,3.4,0.2,5c0,1.6,0.1,2.6,0.3,3.1h0.3c1.2-2.5,3.2-4.7,6-6.6c2.8-1.8,6.1-2.8,9.9-2.8c3.1,0,5.9,0.8,8.4,2.4
			c2.5,1.6,4.4,4.1,5.5,7.7c1.5-3.5,3.7-6,6.6-7.6c2.9-1.6,6-2.4,9.2-2.4c3.6,0,6.6,0.6,8.9,1.7c2.3,1.1,4.1,2.6,5.4,4.5
			c1.3,1.8,2.2,4,2.7,6.4c0.5,2.4,0.8,4.9,0.8,7.4v27.7h-6v-27.4c0-1.9-0.2-3.7-0.5-5.5s-0.9-3.4-1.8-4.8c-0.8-1.4-2-2.5-3.5-3.4
			c-1.5-0.8-3.5-1.3-5.9-1.3c-2.8,0-5.1,0.5-6.9,1.6c-1.8,1-3.2,2.4-4.3,4c-1,1.6-1.8,3.4-2.2,5.2c-0.4,1.9-0.7,3.7-0.7,5.3v26.2h-6
			v-28c0-4.3-0.8-7.7-2.4-10.4c-1.6-2.6-4-3.9-7.3-3.9c-2.2,0-4.3,0.4-6.3,1.2s-3.7,1.9-5.1,3.5c-1.4,1.6-2.6,3.6-3.4,5.9
			c-0.8,2.4-1.3,5.2-1.3,8.4v23.2h-6L625.1,348.3L625.1,348.3z"/>
		<path class="st0" d="M710.3,316.9c0-1.3,0.4-2.3,1.3-3.2c0.9-0.9,1.9-1.3,3.2-1.3s2.3,0.4,3.2,1.3s1.3,1.9,1.3,3.2
			c0,1.3-0.4,2.3-1.3,3.2c-0.9,0.9-1.9,1.3-3.2,1.3s-2.3-0.4-3.2-1.3C710.7,319.2,710.3,318.1,710.3,316.9z M711.8,335.3h6v46.5h-6
			V335.3z"/>
		<path class="st0" d="M732.3,358.5c0-3.6,0.6-6.8,1.8-9.8s2.9-5.6,5-7.7c2.1-2.2,4.7-3.9,7.7-5.1s6.3-1.8,9.9-1.8
			c3.6,0,6.8,0.6,9.8,1.8c3,1.2,5.6,2.9,7.7,5.1c2.2,2.2,3.9,4.8,5.1,7.7c1.2,3,1.8,6.3,1.8,9.8c0,3.6-0.6,6.8-1.8,9.8
			s-2.9,5.6-5.1,7.7c-2.2,2.2-4.8,3.9-7.7,5.1c-3,1.2-6.3,1.8-9.8,1.8c-3.6,0-6.8-0.6-9.9-1.8c-3-1.2-5.6-2.9-7.7-5.1
			c-2.1-2.2-3.8-4.8-5-7.7C732.9,365.3,732.3,362.1,732.3,358.5z M738.3,358.5c0,2.6,0.4,5.1,1.3,7.4c0.8,2.3,2.1,4.3,3.7,6
			c1.6,1.7,3.6,3.1,5.8,4.1c2.3,1,4.8,1.5,7.6,1.5s5.4-0.5,7.6-1.5c2.3-1,4.2-2.4,5.8-4.1s2.8-3.7,3.7-6c0.8-2.3,1.3-4.8,1.3-7.4
			c0-2.6-0.4-5.1-1.3-7.4c-0.8-2.3-2.1-4.3-3.7-6c-1.6-1.7-3.6-3.1-5.8-4.1c-2.3-1-4.8-1.5-7.6-1.5s-5.4,0.5-7.6,1.5
			c-2.3,1-4.2,2.4-5.8,4.1c-1.6,1.7-2.8,3.7-3.7,6C738.8,353.4,738.3,355.9,738.3,358.5z"/>
	</g>
</g>
<path class="st0" d="M444.2,306l-33.1-32.3l-32.7,32.1v-0.1h-45.5v44.7L293,389.5l14.3,34.5l31,74.6l70.8-0.1h75.3l38.7-93.9
	l6.3-15.3L444.2,306z M401.1,383.4c0.9,1.4,2.2,2.7,4,3.8c1.7,1.1,3.8,2.1,6.2,3c2.4,0.9,5.1,1.8,8.1,2.8c4.3,1.4,8.8,3,13.5,4.8
	c4.7,1.7,8.9,4.1,12.8,6.9c3.8,2.9,7,6.5,9.5,10.7c2.5,4.3,3.8,9.6,3.8,15.9c0,7.3-1.4,13.7-4.1,19s-6.3,9.8-10.9,13.2
	c-4.6,3.5-9.8,6.1-15.7,7.7c-5.9,1.7-12,2.5-18.2,2.5c-9.1,0-18-1.6-26.5-4.8s-15.6-7.7-21.3-13.6l20.2-20.5
	c3.1,3.8,7.2,7.1,12.3,9.6c5.1,2.6,10.2,3.9,15.2,3.9c2.3,0,4.5-0.2,6.7-0.7s4.1-1.3,5.7-2.3c1.6-1.1,2.9-2.5,3.9-4.3s1.4-4,1.4-6.5
	c0-2.4-0.6-4.4-1.8-6.1c-1.2-1.7-2.9-3.2-5.1-4.6s-5-2.6-8.3-3.8c-3.3-1.1-7.1-2.4-11.3-3.7c-4.1-1.3-8.1-2.9-12-4.7
	c-3.9-1.8-7.4-4.1-10.4-6.9c-3.1-2.8-5.5-6.2-7.4-10.3c-1.9-4-2.8-8.9-2.8-14.7c0-7.1,1.4-13.1,4.3-18.2c2.9-5,6.7-9.2,11.3-12.4
	c4.7-3.2,10-5.6,15.9-7.1c5.9-1.5,11.8-2.3,17.8-2.3c7.2,0,14.6,1.3,22.1,4c7.5,2.6,14.1,6.5,19.7,11.7l-19.4,20.8
	c-2.6-3.4-6.1-6-10.4-8s-8.4-3-12.3-3c-2,0-4.1,0.2-6.2,0.5c-2.1,0.4-4,1.1-5.7,2.1s-3.1,2.3-4.2,4c-1.1,1.6-1.7,3.7-1.7,6.2
	C399.8,380.2,400.2,382,401.1,383.4z"/>
</svg>
