<?xml version="1.0" encoding="utf-8"?>
<!-- Generator: Adobe Illustrator 17.0.0, SVG Export Plug-In . SVG Version: 6.00 Build 0)  -->
<!DOCTYPE svg PUBLIC "-//W3C//DTD SVG 1.1//EN" "http://www.w3.org/Graphics/SVG/1.1/DTD/svg11.dtd">
<svg version="1.1" id="Layer_1" xmlns="http://www.w3.org/2000/svg" xmlns:xlink="http://www.w3.org/1999/xlink" x="0px" y="0px"
	 width="125.871px" height="193.996px" viewBox="-12.068 -61.919 125.871 193.996"
	 enable-background="new -12.068 -61.919 125.871 193.996" xml:space="preserve">
<path d="M102.707,131.035c-6.123,0-11.099-4.979-11.099-11.099c0-6.117,4.976-11.096,11.099-11.096
	c6.117,0,11.096,4.979,11.096,11.096C113.803,126.056,108.824,131.035,102.707,131.035"/>
<path d="M102.788,117.409c-1.359,0-2.464,1.105-2.464,2.464s1.105,2.464,2.464,2.464s2.458-1.105,2.458-2.464
	S104.148,117.409,102.788,117.409"/>
<g>
	<path d="M-2.367,132.077l-9.701-0.734L0.95-40.3c0.072-9.925,8.299-18.087,18.332-18.087h8.024v-3.533h45.284v3.533h4.683
		c10.03,0,18.257,8.159,18.338,18.186l11.835,147.661l-2.024-0.506c-2.036-0.512-4.024-0.446-5.952,0.129l-1.766,0.524l-2.56-30.305
		H1.786L-2.367,132.077z M2.525,67.571h91.844l-6.24-78.967H8.513L2.525,67.571z M9.25-21.126h78.11l-1.476-18.677
		c-0.006-4.991-3.865-8.853-8.614-8.853h-4.683v3.204H27.303v-3.204H19.28c-4.745,0-8.608,3.862-8.608,8.608l-0.012,0.32
		L9.25-21.126z"/>
</g>
</svg>
