<?xml version="1.0" encoding="utf-8"?>
<!-- Generator: Adobe Illustrator 16.0.0, SVG Export Plug-In . SVG Version: 6.00 Build 0)  -->
<!DOCTYPE svg PUBLIC "-//W3C//DTD SVG 1.1//EN" "http://www.w3.org/Graphics/SVG/1.1/DTD/svg11.dtd">
<svg version="1.1" id="Layer_1" xmlns="http://www.w3.org/2000/svg" xmlns:xlink="http://www.w3.org/1999/xlink" x="0px" y="0px"
	 width="666.603px" height="525.046px" viewBox="0 0 666.603 525.046" enable-background="new 0 0 666.603 525.046"
	 xml:space="preserve">
<g>
	<path d="M631.372,200.213l35.231-14.164l-36.078-25.714l32.697-13.235L456.357,0L328.039,39.471l17.429,14.795l106.757-32.992
		l169.886,121.06l-114.901,46.76l-0.694,0.256l-9.905-7.974l107.151-41.972L450.714,29.405l-98.043,31.057l-7.391-6.19
		l-17.61-14.789L315.473,29.23L161.536,79.562l9.844,7.93L0,140.518l32.078,29.073l-31.992,9.865l32.546,29.252L0.086,218.753
		L32.632,248L0.086,258.045l32.546,29.25L0.086,297.342l32.546,29.252L0.086,336.64l207.377,188.406l145.514-59.406v14.413
		l156.667-55.07v-19.338l156.155-62.431l-34.84-25.133l35.446-14.168l-35.142-25.129l35.284-14.164l-35.21-25.121l35.254-14.175
		L631.372,200.213z M447.3,50.76l116.348,83.621l-83.887,32.851l-17.751-14.919c-5.764-46.967-52.225-63.152-81.791-68.703
		l-10.047-8.43L447.3,50.76z M189.745,102.324l8.691,6.968L61.086,152.796l154.834,138.518l137.165-54.712l-0.108,3.566v7.131
		l-143.296,59.227L36.377,148.921L189.745,102.324z M317.376,205.03l21.556,17.365l-118.978,46.591L99.241,160.982l117.3-37.146
		l8.403,6.762C223.145,152.829,229.406,201.48,317.376,205.03z M205.675,328.952l147.302-60.818v19.512l-141.54,57.8L37.253,187.875
		l9.793-3.201L205.675,328.952z M207.479,367.869l145.498-59.393v18.454l-141.54,57.789L37.253,227.162l10.453-3.403
		L207.479,367.869z M207.479,407.154l145.498-59.395v18.459l-141.54,57.809L37.253,266.454l10.453-3.397L207.479,407.154z
		 M207.479,446.451l145.498-59.385v18.458l-141.54,57.8L37.253,305.75l10.453-3.402L207.479,446.451z M211.437,502.598
		L37.253,345.043l11.577-3.416L207.197,485.74l145.78-59.385v18.467L211.437,502.598z M484.903,216.394v195.167l-107.185,40.686
		V260.365v-20.833v-8.62l-20.666-16.642l-119.728-97.438l-17.415-14.557l-8.25-6.907l-10.414-8.511l109.955-35.922l12.077,10.104
		l7.545,6.327l17.545,14.729l110.901,93.172l15.815,14.148l9.817,11.414V216.394L484.903,216.394z M625.829,220.569l-116.185,46.367
		v-18.452l99.226-39.715L625.829,220.569z M608.489,168.923l16.926,12.354l-115.771,46.374v-19.012L608.489,168.923z
		 M625.829,338.442l-116.185,46.377V366.37l99.226-39.721L625.829,338.442z M625.829,299.157l-116.185,46.365v-18.459l99.226-39.707
		L625.829,299.157z M625.829,259.865l-116.185,46.364v-18.455l99.226-39.708L625.829,259.865z"/>
	<path d="M447.3,301.184c-15.294-3.457-21.489-6.873-21.479-13.742c0.01-6.04,3.771-13.081,15.294-15.521
		c12.785-2.712,21.11,0.493,25.548,2.108l5.391-25.441c-6.22-2.12-14.177-3.675-25.894-1.626l0.043-18.931l-17.437,3.69
		l-0.044,20.442c-18.99,8.343-30.021,25.504-30.067,44.688c-0.021,20.864,12.914,28.905,31.916,32.622
		c13.284,2.557,18.947,6.502,18.937,14.686c-0.021,8.404-6.935,14.799-17.272,16.994c-11.512,2.457-21.982,0.171-29.427-3.239
		l-5.358,26.327c6.727,3.109,18.272,4.74,30.154,2.859l-0.033,20.445l17.589-3.738l0.043-22.153
		c20.404-8.425,31.426-27.112,31.447-46.264C476.706,315.801,468.378,305.716,447.3,301.184z"/>
</g>
</svg>
