<svg id="Layer_1" data-name="Layer 1" xmlns="http://www.w3.org/2000/svg" viewBox="0 0 201.48 81.52"><title>personaltrainer</title><path d="M197.57,29.61h-5.31V18.16a4.33,4.33,0,0,0-4.33-4.33h-11a4.27,4.27,0,0,0-1.33.23V5.5a5.51,5.51,0,0,0-5.5-5.5h-22.6A5.51,5.51,0,0,0,142,5.5V29.61H59.49V5.5A5.51,5.51,0,0,0,54,0H31.4a5.51,5.51,0,0,0-5.5,5.5v8.56a4.27,4.27,0,0,0-1.33-.23h-11a4.33,4.33,0,0,0-4.33,4.33V29.61H3.91A3.92,3.92,0,0,0,0,33.52V48a3.92,3.92,0,0,0,3.91,3.91H9.22V63.36a4.33,4.33,0,0,0,4.33,4.33h11a4.27,4.27,0,0,0,1.33-.23V76a5.51,5.51,0,0,0,5.5,5.5H54a5.51,5.51,0,0,0,5.5-5.5V51.91H142V76a5.51,5.51,0,0,0,5.5,5.5h22.6a5.51,5.51,0,0,0,5.5-5.5V67.45a4.27,4.27,0,0,0,1.33.23h11a4.33,4.33,0,0,0,4.33-4.33V51.91h5.31A3.92,3.92,0,0,0,201.48,48V33.52A3.92,3.92,0,0,0,197.57,29.61ZM9.22,34.19V48.91H3.91A0.93,0.93,0,0,1,3,48V33.52a0.93,0.93,0,0,1,.91-0.91H9.22v1.58ZM25.9,63.36a1.33,1.33,0,0,1-1.33,1.33H18.62l3.8-3.8a1.5,1.5,0,0,0-2.12-2.12l-5.92,5.92H13.55a1.33,1.33,0,0,1-1.33-1.33v-1.8l5.73-5.73a1.5,1.5,0,0,0-2.12-2.12l-3.61,3.61V52.64l5.73-5.73a1.5,1.5,0,0,0-2.12-2.12L12.22,48.4V43.73L17.95,38a1.5,1.5,0,0,0-2.12-2.12l-3.61,3.61V34.81l5.73-5.73A1.5,1.5,0,0,0,15.82,27l-3.61,3.61V25.89l5.73-5.73A1.5,1.5,0,0,0,15.82,18l-3.61,3.61V18.16a1.33,1.33,0,0,1,1.33-1.33h11a1.33,1.33,0,0,1,1.33,1.33v45.2ZM56.49,76a2.5,2.5,0,0,1-2.5,2.5H44.21l3.93-3.93A1.5,1.5,0,0,0,46,72.47l-6,6H35.69l4.12-4.12a1.5,1.5,0,0,0-2.12-2.12l-6.17,6.17s0,0.05-.05.08H31.4A2.5,2.5,0,0,1,28.9,76V75.69a1.44,1.44,0,0,0,.27-0.18l6.17-6.17a1.5,1.5,0,0,0-2.12-2.12L28.9,71.54V66.77a1.44,1.44,0,0,0,.27-0.18l6.17-6.17a1.5,1.5,0,0,0-2.12-2.12L28.9,62.62V57.86a1.44,1.44,0,0,0,.27-0.18l6.17-6.17a1.5,1.5,0,0,0-2.12-2.12L28.9,53.71V48.94a1.44,1.44,0,0,0,.27-0.18l6.17-6.17a1.5,1.5,0,0,0-2.12-2.12L28.9,44.79V40a1.44,1.44,0,0,0,.27-0.18l6.17-6.17a1.5,1.5,0,0,0-2.12-2.12L28.9,35.87V31.11a1.44,1.44,0,0,0,.27-0.18l6.17-6.17a1.5,1.5,0,0,0-2.12-2.12L28.9,27V22.19A1.44,1.44,0,0,0,29.17,22l6.17-6.17a1.5,1.5,0,0,0-2.12-2.12L28.9,18V13.27a1.44,1.44,0,0,0,.27-0.18l6.17-6.17a1.5,1.5,0,0,0-2.12-2.12L28.9,9.12V5.5A2.5,2.5,0,0,1,31.4,3H54a2.5,2.5,0,0,1,2.5,2.5V76ZM142,48.91H59.49V32.61H142v16.3Zm30.6-30.75V76a2.5,2.5,0,0,1-2.5,2.5H160.3l3.93-3.93a1.5,1.5,0,0,0-2.12-2.12l-6,6h-4.28l4.12-4.12a1.5,1.5,0,0,0-2.12-2.12l-6.17,6.17s0,0.05-.05.08h-0.08A2.5,2.5,0,0,1,145,76V75.69a1.43,1.43,0,0,0,.27-0.18l6.17-6.17a1.5,1.5,0,0,0-2.12-2.12L145,71.54V66.77a1.43,1.43,0,0,0,.27-0.18l6.17-6.17a1.5,1.5,0,0,0-2.12-2.12L145,62.62V57.86a1.43,1.43,0,0,0,.27-0.18l6.17-6.17a1.5,1.5,0,0,0-2.12-2.12L145,53.71V48.94a1.43,1.43,0,0,0,.27-0.18l6.17-6.17a1.5,1.5,0,0,0-2.12-2.12L145,44.79V40a1.43,1.43,0,0,0,.27-0.18l6.17-6.17a1.5,1.5,0,0,0-2.12-2.12L145,35.87V31.11a1.43,1.43,0,0,0,.27-0.18l6.17-6.17a1.5,1.5,0,0,0-2.12-2.12L145,27V22.19a1.43,1.43,0,0,0,.27-0.18l6.17-6.17a1.5,1.5,0,0,0-2.12-2.12L145,18V13.27a1.43,1.43,0,0,0,.27-0.18l6.17-6.17a1.5,1.5,0,0,0-2.12-2.12L145,9.12V5.5a2.5,2.5,0,0,1,2.5-2.5h22.6a2.5,2.5,0,0,1,2.5,2.5V18.16Zm16.68,45.2a1.33,1.33,0,0,1-1.33,1.33H182l3.8-3.8a1.5,1.5,0,0,0-2.12-2.12l-5.92,5.92h-0.83a1.33,1.33,0,0,1-1.33-1.33v-1.8l5.73-5.73a1.5,1.5,0,0,0-2.12-2.12l-3.61,3.61V52.64l5.73-5.73a1.5,1.5,0,0,0-2.12-2.12l-3.61,3.61V43.73L181.31,38a1.5,1.5,0,0,0-2.12-2.12l-3.61,3.61V34.81l5.73-5.73A1.5,1.5,0,0,0,179.19,27l-3.61,3.61V25.89l5.73-5.73A1.5,1.5,0,0,0,179.19,18l-3.61,3.61V18.16a1.33,1.33,0,0,1,1.33-1.33h11a1.33,1.33,0,0,1,1.33,1.33v45.2ZM198.48,48a0.93,0.93,0,0,1-.91.91h-5.31V32.61h5.31a0.93,0.93,0,0,1,.91.91V48Z"/></svg>