<?xml version="1.0" encoding="utf-8"?>
<!-- Generator: Adobe Illustrator 19.2.1, SVG Export Plug-In . SVG Version: 6.00 Build 0)  -->
<svg version="1.1" id="Layer_1" xmlns="http://www.w3.org/2000/svg" xmlns:xlink="http://www.w3.org/1999/xlink" x="0px" y="0px"
	 viewBox="0 0 214.6 174.3" style="enable-background:new 0 0 214.6 174.3;" xml:space="preserve">
<g>
	<path d="M212.1,145.1c0-1.3-0.2-2.7-0.5-4c-1-4.1-3.4-7.6-6.8-10.1c-2.1-1.5-4.4-2.5-6.9-3l-0.5-0.1l-44.5-18.6l-7.7-6l-0.1-0.2
		l-16.5-32c-0.1-0.1-0.2-0.3-0.6-0.6l-2.3-1.5l12-15.1l2,0.4c0.5,0.1,1,0.2,1.4,0.2c3.4,0,6.6-1.6,8.6-4.4
		c3.3-4.7,2.2-11.2-2.5-14.6L103.7,4.4C99,1.1,92.5,2.2,89.1,6.9c-1.6,2.3-2.2,5-1.8,7.8c0.2,1.1,0.6,2.2,1.2,3.4l0.8,1.5L69.9,44.1
		l-1.7-3.8c-0.2-0.5-0.6-0.8-1-1c-0.5-0.2-1.2,0-1.7,0.4c-0.5,0.5-1,1-1.5,1.5L30.3,84.4c-5.6,7.1-4.4,17.5,2.8,23.1l0,0l76.1,59.7
		c1.4,1.1,3.1,2,4.4,2.4l0.4,0.1c2.6,1.3,5.2,2,7.9,2h72.8c9.6,0,17.4-7.8,17.4-17.4V145.1z M91.7,8.7L91.7,8.7
		c1.1-1.6,2.8-2.6,4.7-2.9c0.4-0.1,0.8-0.1,1.2-0.1c1.5,0,3,0.5,4.2,1.3l43.6,31.1c3.3,2.3,4,6.9,1.7,10.1c-1.4,1.9-3.6,3.1-6,3.1
		c-1.5,0-3-0.5-4.2-1.3L93.4,18.9c-1.6-1.1-2.6-2.8-2.9-4.7C90.2,12.2,90.6,10.3,91.7,8.7z M91.8,21.6l43.1,30.7l-16.3,20.6
		l-0.9,0.2c-2.9,0.6-5.5,0.9-8.1,0.9c-16.3,0-31.2-9.6-38.1-24.5L70.9,48L91.8,21.6z M65.9,44.3l1.6,4.1
		c6.7,17.2,23.6,28.8,42.1,28.8c2.8,0,5.8-0.4,9.3-1.1l0.1,0l0.5,0c0.2,0,0.4-0.1,0.6-0.2l0.5-0.2c0.5-0.1,0.9-0.2,1.4-0.3
		c0.8-0.2,1.6-0.4,2.3-0.6l2.1-0.7l8.1,15.7l-28.5,8.5c-0.8,0.3-1.3,1.1-1.1,2c0.2,0.8,1.2,1.3,2,1.1l29.1-8.7l4.2,8.2l-29.1,8.7
		c-0.4,0.1-0.7,0.4-0.9,0.8c-0.2,0.4-0.2,0.8-0.1,1.2c0.2,0.8,1.2,1.3,2,1.1l29.6-8.8l1,1.5c0.1,0.2,0.2,0.3,0.3,0.4l7.6,5.9
		l-30.6,9.1c-0.4,0.1-0.7,0.4-0.9,0.8c-0.2,0.4-0.2,0.8-0.1,1.2c0.3,0.8,1.1,1.3,2,1.1l30.4-9.1c0.2-0.1,0.4-0.2,0.7-0.5l1.2-1.3
		l51.2,21.4l-9.5,1.1c-10.8,1.3-20.5,7.2-26.7,16.3l-0.7,1.1l-47.4-0.1l-0.3-0.2l-67-52.4l0.7-1.7c1.6-4.2,2.5-8.5,2.5-12.8
		c0-6.5-1.9-12.9-5.5-18.8l-0.9-1.5L65.9,44.3z M208.9,154.3c0,7.9-6.4,14.2-14.2,14.2h-72.8c-2.1,0-4.2-0.5-6.7-1.7
		c-1.5-0.5-2.8-1.2-3.9-2.1l-76.1-59.7c-5.8-4.5-6.8-12.9-2.2-18.7v0l14.8-18.9l1.8,3.6c2.2,4.5,3.4,9.3,3.4,14.3
		c0,4.9-1.2,9.7-3.4,14.3c-0.3,0.7-0.1,1.5,0.4,2l68.7,53.8c0.3,0.2,0.6,0.3,1,0.3l48.9,0c0.6,0,1.1-0.3,1.4-0.8
		c6.4-10.6,17.5-16.9,29.7-16.9c2.1,0,4.4,0.3,6.9,0.8l1.4,0.3l0.5,1.3c0.1,0.1,0.1,0.3,0.1,0.4c0.4,1.4,0.6,2.7,0.6,4V154.3z"/>
	<path d="M5.4,163l29.8-37.7c0.3-0.3,0.4-0.8,0.3-1.2c0-0.4-0.3-0.8-0.6-1.1c-0.3-0.2-0.6-0.3-1-0.3c-0.5,0-1,0.2-1.3,0.6L2.8,161
		c-0.3,0.3-0.4,0.8-0.3,1.2c0,0.4,0.3,0.8,0.6,1.1C3.8,163.8,4.8,163.6,5.4,163z"/>
	<path d="M34.9,163.6c0.4,0,0.8-0.3,1.1-0.6l18-22.8c0.3-0.3,0.4-0.8,0.3-1.2c0-0.4-0.3-0.8-0.6-1.1c-0.3-0.2-0.6-0.3-1-0.3
		c-0.5,0-0.9,0.2-1.3,0.6l-18,22.8c-0.3,0.3-0.4,0.8-0.3,1.2c0,0.4,0.3,0.8,0.6,1.1C34,163.5,34.5,163.6,34.9,163.6z"/>
	<path d="M66.6,163l6.2-7.9c0.5-0.7,0.4-1.7-0.3-2.2c-0.3-0.2-0.6-0.3-1-0.3c-0.5,0-0.9,0.2-1.3,0.6l-6.2,7.9
		c-0.5,0.7-0.4,1.7,0.3,2.2C65,163.8,66.1,163.6,66.6,163z"/>
</g>
</svg>
