<?xml version="1.0" encoding="utf-8"?>
<!-- Generator: Adobe Illustrator 17.0.0, SVG Export Plug-In . SVG Version: 6.00 Build 0)  -->
<!DOCTYPE svg PUBLIC "-//W3C//DTD SVG 1.1//EN" "http://www.w3.org/Graphics/SVG/1.1/DTD/svg11.dtd">
<svg version="1.1" id="Layer_1" xmlns="http://www.w3.org/2000/svg" xmlns:xlink="http://www.w3.org/1999/xlink" x="0px" y="0px"
	 width="112.046px" height="112.091px" viewBox="3.749 2.205 112.046 112.091" enable-background="new 3.749 2.205 112.046 112.091"
	 xml:space="preserve">
<path d="M59.772,2.205c-30.841,0-55.973,25.13-56.023,56.019C3.729,73.46,9.745,88.235,20.252,98.759
	c10.01,10.019,23.302,15.537,37.428,15.537c0.756,0,1.512-0.019,2.281-0.047c31.305-1.288,55.833-25.893,55.833-56.018
	C115.792,27.338,90.66,2.205,59.772,2.205z M87.362,96.005c-8.027,5.79-17.635,9.074-27.786,9.495
	c-0.574,0.019-1.137,0.028-1.695,0.028c-10.168,0-19.299-3.087-27.139-9.177l-0.573-0.445l0.031-0.725
	c0.498-11.793,7.429-21.974,17.656-25.936l0.546-0.211l0.535,0.238c3.066,1.367,6.332,2.06,9.706,2.06
	c3.379,0,6.651-0.695,9.726-2.065l0.532-0.237l0.543,0.208c10.367,3.968,17.802,14.232,18.5,25.539l0.048,0.773L87.362,96.005z
	 M43.368,47.308c0-8.423,6.852-15.275,15.275-15.275c8.427,0,15.284,6.853,15.284,15.275S67.07,62.583,58.642,62.583
	C50.22,62.583,43.368,55.731,43.368,47.308z M97.589,86.076l-1.673,2.194l-0.792-2.643c-2.766-9.225-8.77-16.973-16.907-21.819
	l-1.347-0.802l0.944-1.252c3.138-4.16,4.865-9.29,4.865-14.446c0-13.252-10.782-24.034-24.034-24.034
	c-13.252,0-24.034,10.782-24.034,24.034c0,5.293,1.685,10.297,4.871,14.471l0.949,1.243l-1.337,0.812
	c-7.68,4.662-13.361,12.163-15.998,21.12l-0.856,2.909l-1.667-2.534c-5.218-7.931-8.084-17.553-8.069-27.092
	c0.043-26.068,21.247-47.276,47.267-47.276c26.063,0,47.267,21.204,47.267,47.267C107.039,68.339,103.771,77.969,97.589,86.076z"/>
</svg>
