<svg id="Layer_1" data-name="Layer 1" xmlns="http://www.w3.org/2000/svg" viewBox="0 0 180 112.5"><title>pt-ciclismo</title><path d="M140.63,33.75a38.93,38.93,0,0,0-12.32,2.17l-4.56-9.11V16.88a5.63,5.63,0,0,1,11.25,0,5.63,5.63,0,0,0,11.25,0,16.88,16.88,0,0,0-33.75,0V22.5h-45V11.25h5.63A5.63,5.63,0,0,0,73.13,0H50.63a5.63,5.63,0,0,0,0,11.25h5.63V26.8l-4.56,9.11a39.24,39.24,0,0,0-12.32-2.16,39.38,39.38,0,1,0,39.12,42l38.1-38.09,1.61,3.22A39.29,39.29,0,1,0,140.63,33.75ZM39.38,101.25a28.13,28.13,0,0,1,0-56.25,27.57,27.57,0,0,1,7.25,1.07L34.35,70.61a5.63,5.63,0,0,0,5,8.14H66.93A28.16,28.16,0,0,1,39.38,101.25Zm9.1-33.75,8.19-16.39A28,28,0,0,1,66.93,67.5H48.48Zm28.32-6a39.37,39.37,0,0,0-15-20.67l3.54-7.09h39.2Zm63.83,39.75a28,28,0,0,1-17.29-50.14L135.6,75.63a5.63,5.63,0,0,0,10.07-5L133.39,46.06A28.08,28.08,0,1,1,140.63,101.25Z"/></svg>