<svg id="Layer_1" data-name="Layer 1" xmlns="http://www.w3.org/2000/svg" viewBox="0 0 143.95 162.22"><title>pt-dimagrimento</title><path d="M70,0.05A41.27,41.27,0,0,0,42.71,12.13,52.73,52.73,0,0,0,37.87,18H18A18.1,18.1,0,0,0,0,36v108.2a18.06,18.06,0,0,0,18,18H126a18.1,18.1,0,0,0,18-18V36a18.14,18.14,0,0,0-18-18H106a45.78,45.78,0,0,0-4.78-5.88A41.18,41.18,0,0,0,70,.05h0Zm2,10.67A30.75,30.75,0,1,1,50.3,19.79,30.56,30.56,0,0,1,72,10.72h0ZM84.53,23.17a5.5,5.5,0,0,0-3.7,1.66L74.71,31A9.8,9.8,0,0,0,72,30.65a10.79,10.79,0,1,0,10.77,10.8,10.36,10.36,0,0,0-.38-2.81l6.12-6.13a5.42,5.42,0,0,0,1.21-6,5.6,5.6,0,0,0-5.16-3.32h0ZM18,28.86H32.64a41.33,41.33,0,1,0,78.67,0H126A7,7,0,0,1,133.11,36v108.2a7,7,0,0,1-7.14,7.22H18a7.09,7.09,0,0,1-7.2-7.22V36A7,7,0,0,1,18,28.86h0Z"/></svg>