<svg id="Layer_1" data-name="Layer 1" xmlns="http://www.w3.org/2000/svg" viewBox="0 0 198.45 148.53"><title>pt-yoga</title><path d="M86.86,80.86a33.19,33.19,0,1,0-33.19,33.2A33.23,33.23,0,0,0,86.86,80.86Zm-54.39,0a21.19,21.19,0,1,1,21.19,21.2A21.22,21.22,0,0,1,32.47,80.86Z"/><circle cx="53.67" cy="80.86" r="10.7"/><path d="M139.84,116.89a6,6,0,0,0-7.71-3.54l-14.72,5.46a6,6,0,1,0,4.18,11.25l14.72-5.46A6,6,0,0,0,139.84,116.89Z"/><path d="M198.43,115.36c0-.11,0-0.22,0-0.34s0-.18,0-0.27,0-.2,0-0.31,0-.2,0-0.3,0-.18,0-0.27,0-.22-0.07-0.33l-0.06-.24c0-.12-0.07-0.23-0.11-0.35l0-.15,0-.08c0-.11-0.09-0.21-0.14-0.32l-0.11-.24-0.14-.25-0.16-.27-0.13-.19-0.21-.29L197,111l-0.24-.28-0.17-.16-0.24-.23-0.23-.18-0.22-.17-0.27-.18-0.21-.13-0.28-.14-0.25-.12-0.25-.1-0.32-.12-0.2-.06-0.39-.1-0.06,0-40.75-8.47A53.64,53.64,0,0,0,109.72,2.82h0l-0.35.11L34.91,30.57l-0.41.18A53.65,53.65,0,0,0,49.14,134.32l0.3,0.08,67.33,14,0.19,0,0.25,0a6,6,0,0,0,.73.06h0l0.32,0a6,6,0,0,0,.72-0.06l0.14,0a6,6,0,0,0,.88-0.24h0l74.38-27.61h0l0.07,0a6,6,0,0,0,.77-0.35l0.14-.08a6,6,0,0,0,.74-0.5l0.07-.06a6,6,0,0,0,.66-0.63l0,0a6,6,0,0,0,.53-0.72l0.1-.15a6,6,0,0,0,.39-0.78L198,117a6,6,0,0,0,.26-0.88l0-.05c0-.05,0-0.1,0-0.16s0-.24.06-0.35S198.43,115.44,198.43,115.36Zm-80.9,20.95-38.45-8,53.29-19.78,38.45,8Zm-4.33-122a41.64,41.64,0,0,1,55.32,39.36,42,42,0,0,1-31.93,40.66l-0.56.1h-0.12l-0.47.14h0l-0.17.05-35.15,13A53.6,53.6,0,0,0,70.84,30ZM12,80.86a41.67,41.67,0,1,1,60.93,36.93l-5,1.84a6,6,0,0,0-1.63.92A41.66,41.66,0,0,1,12,80.86Z"/></svg>