<?xml version="1.0" encoding="utf-8"?>
<!-- Generator: Adobe Illustrator 17.0.0, SVG Export Plug-In . SVG Version: 6.00 Build 0)  -->
<!DOCTYPE svg PUBLIC "-//W3C//DTD SVG 1.1//EN" "http://www.w3.org/Graphics/SVG/1.1/DTD/svg11.dtd">
<svg version="1.1" id="Layer_1" xmlns="http://www.w3.org/2000/svg" xmlns:xlink="http://www.w3.org/1999/xlink" x="0px" y="0px"
	 width="35px" height="35.001px" viewBox="17.014 32.499 35 35.001" enable-background="new 17.014 32.499 35 35.001"
	 xml:space="preserve">
<g>
	<g>
		<path d="M34.514,32.499c-9.65,0-17.5,7.851-17.5,17.501c0,9.649,7.85,17.501,17.5,17.501
			c9.649,0,17.5-7.851,17.5-17.501C52.014,40.35,44.163,32.499,34.514,32.499z M34.514,65.482c-8.537,0-15.481-6.945-15.481-15.482
			c0-8.537,6.944-15.481,15.48-15.481S49.994,41.463,49.994,50C49.994,58.536,43.05,65.482,34.514,65.482z"/>
	</g>
	<g>
		<path d="M32.688,41.076c-0.394-0.394-1.033-0.394-1.428,0c-0.394,0.394-0.394,1.033,0,1.428L38.756,50
			l-7.496,7.496c-0.394,0.394-0.394,1.033,0,1.428c0.197,0.197,0.456,0.296,0.714,0.296c0.258,0,0.517-0.098,0.714-0.296l8.21-8.21
			c0.394-0.394,0.394-1.033,0-1.428L32.688,41.076z"/>
	</g>
</g>
</svg>
