<?xml version="1.0" encoding="utf-8"?>
<!-- Generator: Adobe Illustrator 16.0.0, SVG Export Plug-In . SVG Version: 6.00 Build 0)  -->
<!DOCTYPE svg PUBLIC "-//W3C//DTD SVG 1.1//EN" "http://www.w3.org/Graphics/SVG/1.1/DTD/svg11.dtd">
<svg version="1.1" id="Layer_1" xmlns="http://www.w3.org/2000/svg" xmlns:xlink="http://www.w3.org/1999/xlink" x="0px" y="0px"
	 width="400px" height="400px" viewBox="0 0 400 400" enable-background="new 0 0 400 400" xml:space="preserve">
<g id="miu" sketch:type="MSPage">
	<g id="circle_clock_time_history_recent_outline_stroke">
		<g sketch:type="MSShapeGroup">
			<path id="path-1" d="M6.834,199.566C6.834,92.729,93.442,6.122,200.279,6.122s193.457,86.608,193.457,193.445
				c0,106.849-86.62,193.469-193.457,193.469S6.834,306.415,6.834,199.566z M376.139,199.566
				c0-97.122-78.736-175.859-175.859-175.859c-97.123,0-175.859,78.737-175.859,175.859c0,97.135,78.736,175.871,175.859,175.871
				C297.402,375.438,376.139,296.701,376.139,199.566z M288.082,104.357l12.427,12.427l-99.476,99.487l-74.622-74.61l12.439-12.438
				l62.183,62.182L288.082,104.357z M198.517,32.495v17.586h3.524V32.495H198.517z M282.726,54.115l-8.787,15.232l3.037,1.762
				l8.811-15.232L282.726,54.115z M344.861,114.953l-15.256,8.787l1.763,3.049l15.232-8.799L344.861,114.953z M368.232,198.686
				h-17.598v3.513h17.598V198.686z M346.601,282.905l-15.232-8.81l-1.763,3.061l15.256,8.787L346.601,282.905z M285.786,345.019
				l-8.811-15.233l-3.037,1.763l8.787,15.21L285.786,345.019z M202.041,368.389v-17.598h-3.524v17.598H202.041z M117.833,346.758
				l8.787-15.21l-3.049-1.763l-8.787,15.233L117.833,346.758z M55.708,285.943l15.233-8.787l-1.75-3.061l-15.233,8.81
				L55.708,285.943z M32.338,202.198h17.586v-3.513H32.338V202.198z M53.958,117.99l15.233,8.799l1.75-3.049l-15.233-8.787
				L53.958,117.99z M114.784,55.877l8.787,15.232l3.049-1.762l-8.787-15.232L114.784,55.877z"/>
		</g>
		<g>
			<path id="path-1_1_" fill="none" d="M6.834,199.566C6.834,92.729,93.442,6.122,200.279,6.122s193.457,86.608,193.457,193.445
				c0,106.849-86.62,193.469-193.457,193.469S6.834,306.415,6.834,199.566z M376.139,199.566
				c0-97.122-78.736-175.859-175.859-175.859c-97.123,0-175.859,78.737-175.859,175.859c0,97.135,78.736,175.871,175.859,175.871
				C297.402,375.438,376.139,296.701,376.139,199.566z M288.082,104.357l12.427,12.427l-99.476,99.487l-74.622-74.61l12.439-12.438
				l62.183,62.182L288.082,104.357z M198.517,32.495v17.586h3.524V32.495H198.517z M282.726,54.115l-8.787,15.232l3.037,1.762
				l8.811-15.232L282.726,54.115z M344.861,114.953l-15.256,8.787l1.763,3.049l15.232-8.799L344.861,114.953z M368.232,198.686
				h-17.598v3.513h17.598V198.686z M346.601,282.905l-15.232-8.81l-1.763,3.061l15.256,8.787L346.601,282.905z M285.786,345.019
				l-8.811-15.233l-3.037,1.763l8.787,15.21L285.786,345.019z M202.041,368.389v-17.598h-3.524v17.598H202.041z M117.833,346.758
				l8.787-15.21l-3.049-1.763l-8.787,15.233L117.833,346.758z M55.708,285.943l15.233-8.787l-1.75-3.061l-15.233,8.81
				L55.708,285.943z M32.338,202.198h17.586v-3.513H32.338V202.198z M53.958,117.99l15.233,8.799l1.75-3.049l-15.233-8.787
				L53.958,117.99z M114.784,55.877l8.787,15.232l3.049-1.762l-8.787-15.232L114.784,55.877z"/>
		</g>
	</g>
</g>
</svg>
