<svg id="Layer_1" data-name="Layer 1" xmlns="http://www.w3.org/2000/svg" viewBox="0 0 171.24 171.23"><title>sm-babysitter2</title><path d="M146,87.33A15.15,15.15,0,0,0,161,62.74a38.66,38.66,0,0,0,3.16-32.84l2.33-2.33A16.15,16.15,0,1,0,143.68,4.72l-2.33,2.33a38.67,38.67,0,0,0-32.86,3.15A15.13,15.13,0,0,0,83.9,25.27a23.43,23.43,0,0,0-14.76,6.8L6.91,94.29a23.57,23.57,0,0,0,0,33.34l36.71,36.71a23.6,23.6,0,0,0,33.33,0l62.23-62.23A23.46,23.46,0,0,0,146,87.33Zm-5.71-69.21a5.31,5.31,0,0,0,6.07-1l4.86-4.86A5.53,5.53,0,1,1,159,20.05l-4.86,4.86a5.32,5.32,0,0,0-1,6.07,27.88,27.88,0,0,1,.14,23.81L116.44,18A27.94,27.94,0,0,1,140.27,18.11ZM51.13,156.82L14.42,120.11a12.94,12.94,0,0,1,0-18.31L76.64,39.58a13,13,0,0,1,18.31,0L131.7,76.34a13,13,0,0,1,0,18.25L69.44,156.82A13,13,0,0,1,51.13,156.82Zm95.06-81L95.44,25A4.62,4.62,0,1,1,102,18.52l50.75,50.76A4.62,4.62,0,1,1,146.19,75.8ZM76.35,56.27l6.55,6.55a5.31,5.31,0,1,0,7.51-7.51l-6.55-6.55A5.31,5.31,0,1,0,76.35,56.27ZM63.18,61.93a5.31,5.31,0,0,0,0,7.51L77.7,84a5.31,5.31,0,1,0,7.51-7.51L70.69,61.93A5.31,5.31,0,0,0,63.18,61.93ZM57.53,75.09A5.31,5.31,0,0,0,50,82.6l6.55,6.55a5.31,5.31,0,0,0,7.51-7.52Zm1.36,27.68h0L44.37,88.25a5.31,5.31,0,1,0-7.51,7.52h0l14.53,14.51A5.31,5.31,0,1,0,58.89,102.77ZM37.75,108l-6.55-6.55a5.31,5.31,0,0,0-7.51,7.51l6.55,6.55A5.31,5.31,0,1,0,37.75,108Z"/></svg>