<?xml version="1.0" encoding="utf-8"?>
<svg width="124.70002746582031" height="154.6999969482422" viewBox="43.15 57.15 124.7 154.7" xmlns="http://www.w3.org/2000/svg">
  <g transform="matrix(0.1000000014901161, 0, 0, -0.1000000014901161, 0.05000300332903862, 268.1499938964843)" style="fill: rgb(0, 0, 0); stroke: none;">
    <path d="M1277 2086 c-48 -17 -71 -38 -91 -81 -22 -46 -20 -93 7 -145 56 -109&#10;219 -109 279 0 25 45 20 129 -9 168 -42 57 -121 82 -186 58z" style="fill: rgb(238, 105, 60);"/>
    <path d="M880 1812 c-48 -21 -220 -159 -231 -184 -21 -51 21 -108 80 -108 10&#10;0 61 31 112 68 90 66 96 68 133 60 22 -5 41 -10 43 -12 2 -1 -29 -70 -69 -152&#10;-80 -165 -88 -206 -50 -247 l22 -23 -62 -116 -62 -115 -145 -12 c-96 -7 -153&#10;-17 -169 -27 -50 -33 -51 -109 0 -147 25 -19 29 -19 214 -3 120 11 197 22 211&#10;31 12 8 54 75 93 150 l71 135 29 -16 c15 -10 63 -42 106 -73 l77 -56 59 -165&#10;c41 -115 67 -172 84 -187 55 -50 144 -13 144 60 0 31 -104 337 -135 397 -8 16&#10;-69 65 -143 115 l-130 88 43 89 c24 49 45 94 48 101 2 7 22 -4 50 -30 26 -24&#10;54 -43 63 -43 34 0 270 92 287 111 25 30 22 75 -8 104 -31 32 -52 31 -158 -7&#10;l-88 -31 -29 34 c-17 19 -35 53 -41 77 -21 79 -89 122 -172 109 -17 -2 -77 4&#10;-132 14 -107 20 -121 21 -145 11z" style="fill: rgb(238, 105, 60);"/>
  </g>
</svg>