<svg id="Layer_1" data-name="Layer 1" xmlns="http://www.w3.org/2000/svg" viewBox="0 0 531.36 629.82"><title>sm-colf2</title><path d="M520.82,457.14a23.8,23.8,0,0,0-33,6.5A268.19,268.19,0,0,1,424.43,530L405.76,402V263.93h27a23.8,23.8,0,0,0,0-47.6H137.67L97.3,19a23.8,23.8,0,1,0-46.64,9.54l76.87,375.69-20.14,126a268.16,268.16,0,0,1-63.82-66.65A23.8,23.8,0,0,0,4,490.17a315.33,315.33,0,0,0,108.48,99.9,23.62,23.62,0,0,0,2.19,1.21,315,315,0,0,0,302.19-.14c0.62-.31,1.22-0.64,1.8-1a315.31,315.31,0,0,0,108.62-100A23.8,23.8,0,0,0,520.82,457.14ZM358.15,263.93v116h-187l-23.74-116H358.15ZM151.4,556.55l20.62-129H361.37l18.81,128.9A267.32,267.32,0,0,1,151.4,556.55Z"/></svg>