<?xml version="1.0" encoding="utf-8"?>
<!-- Generator: Adobe Illustrator 17.0.0, SVG Export Plug-In . SVG Version: 6.00 Build 0)  -->
<!DOCTYPE svg PUBLIC "-//W3C//DTD SVG 1.1//EN" "http://www.w3.org/Graphics/SVG/1.1/DTD/svg11.dtd">
<svg version="1.1" id="Layer_1" xmlns="http://www.w3.org/2000/svg" xmlns:xlink="http://www.w3.org/1999/xlink" x="0px" y="0px"
	 width="228.475px" height="233.668px" viewBox="-467.149 -39.63 228.475 233.668"
	 enable-background="new -467.149 -39.63 228.475 233.668" xml:space="preserve">
<path d="M-375.863,12.456c-49.784,0-90.286,40.502-90.286,90.286c0,49.789,40.502,90.296,90.286,90.296
	c49.79,0,90.296-40.507,90.296-90.296C-285.567,52.958-326.074,12.456-375.863,12.456z M-375.863,184.653
	c-45.161,0-81.901-36.745-81.901-81.911c0-45.161,36.741-81.901,81.901-81.901c45.166,0,81.911,36.741,81.911,81.901
	C-293.952,147.908-330.698,184.653-375.863,184.653z"/>
<path d="M-375.863,118.32c-8.578,0-15.567-6.989-15.567-15.578s6.989-15.578,15.567-15.578c8.589,0,15.588,6.989,15.588,15.578
	S-367.274,118.32-375.863,118.32z M-375.863,97.549c-2.846,0-5.182,2.337-5.182,5.193c0,2.856,2.337,5.193,5.182,5.193
	c2.866,0,5.203-2.337,5.203-5.193C-370.66,99.886-372.996,97.549-375.863,97.549z"/>
<path d="M-243.868,160.19h-23.27V79.8c0-1.485-1.208-2.693-2.693-2.693h-23.024c-1.485,0-2.693,1.208-2.693,2.693
	c0,1.485,1.208,2.693,2.693,2.693h20.331v80.388c0,1.485,1.208,2.693,2.693,2.693h25.963c1.485,0,2.693-1.208,2.693-2.693
	C-241.174,161.397-242.382,160.19-243.868,160.19z"/>
<path d="M-308.678-3.283c0-1.485-1.208-2.693-2.693-2.693H-412.53v-28.462c0-1.485-1.208-2.693-2.693-2.693h-15.578
	c-1.485,0-2.693,1.208-2.693,2.693s1.208,2.693,2.693,2.693h12.885v54.426c0,1.485,1.208,2.693,2.693,2.693
	c1.485,0,2.693-1.208,2.693-2.693V-0.589h98.466v44.041c0,1.485,1.208,2.693,2.693,2.693c1.485,0,2.693-1.208,2.693-2.694V-3.283z"
	/>
<g>
	<path d="M-375.858,92.833c-0.829,0-1.5-0.671-1.5-1.5v-74.5c0-0.829,0.671-1.5,1.5-1.5s1.5,0.671,1.5,1.5v74.5
		C-374.358,92.162-375.03,92.833-375.858,92.833z"/>
</g>
<g>
	<path d="M-371.956,93.522c-0.17,0-0.344-0.029-0.513-0.091c-0.778-0.284-1.18-1.145-0.896-1.923l25.486-70.005
		c0.284-0.778,1.145-1.178,1.923-0.896c0.778,0.284,1.18,1.145,0.896,1.923l-25.486,70.005
		C-370.768,93.144-371.344,93.522-371.956,93.522z"/>
</g>
<g>
	<path d="M-368.525,95.503c-0.34,0-0.682-0.115-0.963-0.351c-0.635-0.533-0.717-1.479-0.185-2.113l47.896-57.062
		c0.532-0.635,1.478-0.717,2.113-0.185c0.635,0.533,0.717,1.479,0.185,2.113l-47.896,57.062
		C-367.672,95.321-368.096,95.503-368.525,95.503z"/>
</g>
<g>
	<path d="M-365.976,98.541c-0.519,0-1.023-0.27-1.301-0.751c-0.414-0.717-0.168-1.635,0.55-2.049l64.528-37.234
		c0.718-0.413,1.635-0.167,2.049,0.55c0.414,0.717,0.168,1.635-0.55,2.049l-64.528,37.234
		C-365.464,98.476-365.721,98.541-365.976,98.541z"/>
</g>
<g>
	<path d="M-364.625,102.265c-0.714,0-1.347-0.513-1.475-1.241c-0.144-0.815,0.401-1.593,1.217-1.737l73.372-12.913
		c0.813-0.143,1.594,0.401,1.737,1.217c0.144,0.815-0.401,1.593-1.217,1.737l-73.372,12.913
		C-364.451,102.257-364.538,102.265-364.625,102.265z"/>
</g>
<g>
	<path d="M-291.26,119.194c-0.087,0-0.175-0.007-0.263-0.022l-73.363-12.967c-0.815-0.144-1.36-0.922-1.216-1.738
		c0.144-0.816,0.923-1.361,1.738-1.216L-291,116.217c0.815,0.144,1.36,0.922,1.216,1.738
		C-289.913,118.682-290.546,119.194-291.26,119.194z"/>
</g>
<g>
	<path d="M-301.482,147.232c-0.255,0-0.513-0.064-0.749-0.201l-64.5-37.282c-0.717-0.415-0.963-1.332-0.548-2.049
		c0.415-0.718,1.333-0.962,2.049-0.548l64.5,37.282c0.717,0.415,0.963,1.332,0.548,2.05
		C-300.46,146.963-300.964,147.232-301.482,147.232z"/>
</g>
<g>
	<path d="M-320.674,170.083c-0.429,0-0.854-0.183-1.15-0.536l-47.855-57.098c-0.532-0.635-0.449-1.581,0.186-2.113
		c0.635-0.533,1.582-0.449,2.113,0.186l47.855,57.097c0.532,0.636,0.449,1.581-0.186,2.113
		C-319.992,169.967-320.334,170.083-320.674,170.083z"/>
</g>
<g>
	<path d="M-346.528,184.988c-0.613,0-1.188-0.378-1.41-0.988l-25.436-70.023c-0.283-0.779,0.119-1.639,0.897-1.922
		c0.777-0.284,1.639,0.119,1.922,0.897l25.436,70.024c0.283,0.778-0.119,1.639-0.897,1.922
		C-346.185,184.959-346.358,184.988-346.528,184.988z"/>
</g>
<g>
	<path d="M-375.921,190.15C-375.921,190.15-375.921,190.15-375.921,190.15c-0.83-0.001-1.5-0.673-1.5-1.501l0.054-74.5
		c0-0.828,0.672-1.499,1.5-1.499c0,0,0,0,0.001,0c0.829,0,1.5,0.673,1.499,1.501l-0.054,74.5
		C-374.421,189.479-375.093,190.15-375.921,190.15z"/>
</g>
<g>
	<path d="M-405.306,184.945c-0.171,0-0.344-0.029-0.514-0.091c-0.778-0.284-1.179-1.146-0.895-1.924l25.537-69.986
		c0.284-0.778,1.146-1.178,1.923-0.895c0.778,0.284,1.179,1.145,0.895,1.923l-25.537,69.987
		C-404.119,184.568-404.694,184.945-405.306,184.945z"/>
</g>
<g>
	<path d="M-431.138,170.001c-0.34,0-0.683-0.115-0.964-0.352c-0.634-0.533-0.716-1.479-0.183-2.113l47.938-57.028
		c0.533-0.633,1.479-0.716,2.114-0.183c0.634,0.533,0.716,1.479,0.183,2.114l-47.938,57.027
		C-430.286,169.82-430.711,170.001-431.138,170.001z"/>
</g>
<g>
	<path d="M-450.297,147.124c-0.519,0-1.023-0.27-1.301-0.751c-0.414-0.718-0.167-1.636,0.551-2.049l64.555-37.188
		c0.717-0.414,1.634-0.167,2.048,0.551c0.414,0.718,0.167,1.635-0.551,2.048l-64.555,37.188
		C-449.786,147.059-450.043,147.124-450.297,147.124z"/>
</g>
<g>
	<path d="M-460.479,119.07c-0.715,0-1.348-0.513-1.476-1.241c-0.143-0.816,0.403-1.593,1.219-1.736l73.382-12.859
		c0.816-0.14,1.593,0.402,1.736,1.219c0.143,0.816-0.403,1.593-1.219,1.736l-73.382,12.859
		C-460.305,119.063-460.393,119.07-460.479,119.07z"/>
</g>
<g>
	<path d="M-387.089,102.249c-0.087,0-0.175-0.008-0.264-0.023l-73.354-13.02c-0.815-0.145-1.359-0.923-1.215-1.739
		c0.145-0.816,0.924-1.358,1.739-1.215l73.354,13.02c0.815,0.145,1.359,0.923,1.215,1.739
		C-385.743,101.737-386.375,102.249-387.089,102.249z"/>
</g>
<g>
	<path d="M-385.733,98.526c-0.255,0-0.514-0.065-0.75-0.202l-64.473-37.328c-0.717-0.416-0.962-1.333-0.547-2.05
		c0.416-0.717,1.334-0.961,2.05-0.547l64.473,37.328c0.717,0.416,0.962,1.333,0.547,2.05
		C-384.711,98.257-385.215,98.526-385.733,98.526z"/>
</g>
<g>
	<path d="M-383.179,95.493c-0.429,0-0.854-0.183-1.151-0.537l-47.813-57.132c-0.532-0.636-0.448-1.582,0.188-2.113
		s1.582-0.448,2.113,0.188l47.813,57.132c0.532,0.636,0.448,1.582-0.188,2.113C-382.498,95.378-382.84,95.493-383.179,95.493z"/>
</g>
<g>
	<path d="M-379.745,93.517c-0.613,0-1.189-0.379-1.41-0.989l-25.384-70.042c-0.282-0.779,0.12-1.639,0.899-1.921
		c0.779-0.282,1.639,0.12,1.921,0.899l25.384,70.042c0.282,0.779-0.12,1.639-0.899,1.921
		C-379.403,93.487-379.576,93.517-379.745,93.517z"/>
</g>
<g>
	<path d="M-375.858,174.434c-39.532,0-71.693-32.161-71.693-71.692c0-39.532,32.161-71.693,71.693-71.693
		s71.693,32.161,71.693,71.693C-304.165,142.273-336.326,174.434-375.858,174.434z M-375.858,36.049
		c-36.774,0-66.693,29.918-66.693,66.693s29.918,66.692,66.693,66.692s66.693-29.918,66.693-66.692S-339.084,36.049-375.858,36.049z
		"/>
</g>
</svg>
