<?xml version="1.0" encoding="utf-8"?>
<!-- Generator: Adobe Illustrator 19.1.0, SVG Export Plug-In . SVG Version: 6.00 Build 0)  -->
<svg version="1.1" id="Livello_1" xmlns="http://www.w3.org/2000/svg" xmlns:xlink="http://www.w3.org/1999/xlink" x="0px" y="0px"
	 viewBox="0 0 198.4 115.3" style="enable-background:new 0 0 198.4 115.3;" xml:space="preserve">
<g>
	<path d="M70.5,93.1l-0.1,0l-0.1,0v2.5l0.1,0l0.1,0c0.4,0,0.8-0.1,0.9-0.3c0.2-0.2,0.3-0.5,0.3-1c0-0.4-0.1-0.7-0.3-0.9
		C71.3,93.2,70.9,93.1,70.5,93.1z"/>
	<path d="M49.4,95c0.1-0.2,0.1-0.6,0.1-1.1c0-0.5,0-0.9-0.1-1.1L49,92.6l-0.4,0.3c-0.1,0.2-0.1,0.6-0.1,1.1c0,0.5,0,0.9,0.1,1.1
		l0.4,0.3L49.4,95z"/>
	<polygon points="77.4,97.8 78.6,97.8 78,93.3 	"/>
	<path d="M43.1,93.1c-0.3,0-0.5,0.2-0.6,0.5c-0.1,0.3-0.1,1.1-0.1,2.2v0.7v0.8c0,1.2,0,1.9,0.1,2.2c0.1,0.3,0.3,0.5,0.6,0.5
		c0.3,0,0.5-0.2,0.6-0.5c0.1-0.3,0.2-1.1,0.2-2.2v-1.7c0-1.1-0.1-1.8-0.2-2.1C43.5,93.2,43.4,93.1,43.1,93.1z"/>
	<path d="M93,93.7l-0.4-0.3l-0.6-0.1l-0.2,0l-0.1,0v6.5l0.1,0h0.2l0.6-0.1l0.4-0.3c0.1-0.1,0.1-0.4,0.2-0.7c0-0.4,0-1.1,0-2.1V96
		c0-0.9,0-1.4,0-1.7C93.2,94,93.1,93.8,93,93.7z"/>
	<path d="M96.4,23.2c-1.4-1.1-3.1-1.6-5.2-1.5h-4.1v51.7h4.1c0.8,0.1,2.1-0.1,3.8-0.7c1.7-0.5,3-2.1,4-4.6c0.5-1.7,0.8-3.8,1.1-6.3
		c0.2-2.5,0.4-5.1,0.5-7.6c0.1-2.5,0.1-4.6,0.1-6.1c0-7.9-0.4-13.8-1.1-17.6C98.9,26.8,97.8,24.4,96.4,23.2z"/>
	<path d="M54.1,97.7L53.7,98c-0.1,0.2-0.1,0.6-0.1,1.1c0,0.5,0,0.9,0.1,1.1l0.4,0.3l0.4-0.3c0.1-0.2,0.1-0.6,0.1-1.1s0-0.9-0.1-1.1
		L54.1,97.7z"/>
	<path d="M166.9,26.1c-0.6-0.3-1.2-0.5-1.9-0.5c-0.7,0-1.4,0.2-2,0.5c-0.6,0.3-1,0.8-1.4,1.4c-0.3,0.6-0.5,1.3-0.5,2.1
		c0,0.8,0.2,1.5,0.5,2.1c0.3,0.6,0.8,1.1,1.4,1.4c0.6,0.3,1.2,0.5,2,0.5c0.7,0,1.4-0.2,1.9-0.5c0.6-0.3,1-0.8,1.4-1.4
		c0.3-0.6,0.5-1.3,0.5-2.1c0-0.8-0.2-1.5-0.5-2.1C167.9,26.9,167.5,26.4,166.9,26.1z M166.2,32.5l-1.4-2.4H164v2.4H163v-5.6h2.2
		c0.7,0,1.2,0.1,1.6,0.4c0.4,0.3,0.5,0.7,0.5,1.3c0,0.5-0.1,0.9-0.4,1.1c-0.3,0.2-0.6,0.4-1,0.4l1.5,2.5H166.2z"/>
	<path d="M36.4,93.1c-0.3,0-0.5,0.2-0.6,0.5c-0.1,0.3-0.2,1.1-0.2,2.2v0.7v0.8c0,1.2,0.1,1.9,0.2,2.2c0.1,0.3,0.3,0.5,0.6,0.5
		c0.3,0,0.5-0.2,0.6-0.5c0.1-0.3,0.1-1.1,0.1-2.2v-1.7c0-1.1,0-1.8-0.1-2.1C36.8,93.2,36.7,93.1,36.4,93.1z"/>
	<path d="M52.1,40.1c1.2-2,1.8-4.9,1.7-8.7c0-4.1-0.7-6.9-2.1-8.6c-1.4-1.7-3.2-2.5-5.4-2.4h-3.9v22.7h3.9
		C49,43.1,50.9,42.1,52.1,40.1z"/>
	<path d="M155.4,13.5L157.9,0H31.4L30,7.9h16.4c3.6-0.1,6.6,0.2,8.9,0.7c2.3,0.5,4.4,1.7,6.1,3.6c2.1,2.4,3.5,4.8,4.4,7.4
		c0.9,2.6,1.4,5,1.6,7.1c0.2,2.1,0.3,3.7,0.2,4.8c-0.1,5-0.6,8.9-1.6,11.7c-1,2.9-2.2,5-3.6,6.5c-1.4,1.5-2.6,2.5-3.7,3.2l10.3,34.5
		H54.5l-7.6-31.2h-4.4v31.2H28.9l0-74l-12.3,0L0,107.4l85.8,0l-1.5,7.9l96,0l18-101.9L155.4,13.5z M31.8,101.6h-2.1v-7.1h-1.8v-1.6
		H28c0.7,0,1.2-0.1,1.6-0.4c0.4-0.3,0.7-0.7,0.8-1.2h1.4V101.6z M39.1,98.6c0,0.6-0.1,1-0.2,1.4c-0.1,0.5-0.4,1-0.9,1.3
		c-0.5,0.3-1,0.5-1.7,0.5c-0.5,0-1-0.1-1.4-0.3c-0.4-0.2-0.7-0.5-1-1c-0.2-0.3-0.3-0.7-0.3-1.3c-0.1-0.6-0.1-1.5-0.1-2.7
		c0-1.3,0-2.2,0.1-2.8c0.1-0.6,0.2-1,0.4-1.3c0.2-0.4,0.5-0.7,0.9-0.9c0.4-0.2,0.9-0.3,1.4-0.3c0.5,0,1,0.1,1.4,0.3
		c0.4,0.2,0.7,0.5,0.9,0.9c0.2,0.3,0.3,0.7,0.4,1.2c0.1,0.5,0.1,1.3,0.1,2.3C39.2,97.2,39.2,98,39.1,98.6z M45.8,98.6
		c0,0.6-0.1,1-0.2,1.4c-0.1,0.5-0.4,1-0.9,1.3c-0.5,0.3-1,0.5-1.7,0.5c-0.5,0-1-0.1-1.4-0.3c-0.4-0.2-0.7-0.5-1-1
		c-0.1-0.3-0.3-0.7-0.3-1.3c-0.1-0.6-0.1-1.5-0.1-2.7c0-1.3,0-2.2,0.1-2.8c0.1-0.6,0.2-1,0.4-1.3c0.2-0.4,0.5-0.7,1-0.9
		c0.4-0.2,0.9-0.3,1.4-0.3c0.5,0,1,0.1,1.4,0.3c0.4,0.2,0.7,0.5,0.9,0.9c0.2,0.3,0.3,0.7,0.3,1.2c0.1,0.5,0.1,1.3,0.1,2.3
		C45.9,97.2,45.9,98,45.8,98.6z M47,93.9c0-1,0.2-1.6,0.5-2c0.3-0.4,0.8-0.6,1.5-0.6c0.7,0,1.2,0.2,1.5,0.6c0.3,0.4,0.5,1.1,0.5,2
		c0,1-0.2,1.7-0.5,2.1c-0.3,0.4-0.8,0.6-1.5,0.6c-0.7,0-1.2-0.2-1.5-0.6C47.1,95.6,47,94.9,47,93.9z M48.8,101.8l4.4-10.5h1.2
		L50,101.8H48.8z M55.7,101.1c-0.3,0.4-0.8,0.6-1.5,0.6c-0.7,0-1.2-0.2-1.5-0.6c-0.3-0.4-0.5-1.1-0.5-2.1c0-1,0.2-1.7,0.5-2.1
		c0.3-0.4,0.8-0.6,1.5-0.6c0.7,0,1.2,0.2,1.5,0.6c0.3,0.4,0.5,1.1,0.5,2.1C56.1,100.1,56,100.7,55.7,101.1z M66.6,101.6h-1.5
		l-0.1-0.6l-0.7,0.6c-0.3,0.1-0.6,0.2-0.9,0.2c-0.4,0-0.7-0.1-1-0.2c-0.3-0.2-0.6-0.4-0.8-0.7c-0.3-0.4-0.5-0.8-0.6-1.5
		c-0.1-0.6-0.2-1.6-0.2-3.1c0-1,0-1.9,0.1-2.5c0.1-0.6,0.2-1.1,0.4-1.4c0.3-0.4,0.6-0.8,1-1c0.4-0.2,0.9-0.3,1.5-0.3
		c0.9,0,1.6,0.3,2.1,0.8c0.5,0.6,0.7,1.4,0.7,2.5l0,0.2l0,0.2h-2v-0.1c0-0.6-0.1-1-0.2-1.3L63.7,93c-0.3,0-0.5,0.2-0.6,0.5
		c-0.1,0.3-0.2,1-0.2,2.2v1.7c0,1.1,0,1.9,0.2,2.2c0.1,0.3,0.3,0.4,0.6,0.4l0.6-0.4c0.1-0.3,0.2-0.7,0.2-1.3l0-0.3l0-0.2h-0.9V96
		h2.9V101.6z M71.8,101.6l-0.1-0.7l0-0.8l0-0.6l0-0.5c0-0.6-0.1-1.1-0.2-1.3c-0.1-0.2-0.4-0.3-0.8-0.3h-0.4v4.1h-2.1V91.3h2.4
		c0.8,0,1.4,0,1.7,0.1c0.4,0.1,0.7,0.2,0.9,0.4c0.3,0.2,0.5,0.5,0.6,0.9c0.1,0.3,0.2,0.8,0.2,1.2c0,0.6-0.1,1.1-0.3,1.5
		c-0.2,0.4-0.5,0.7-0.9,1c0.7,0.3,1,1.1,1.1,2.3v0l0,0.6c0,1.2,0.2,1.9,0.5,2.2H71.8z M79.1,101.6l-0.3-2h-1.7l-0.3,2h-2.2l2-10.2
		h2.6l2,10.2H79.1z M88,101.6h-2.2l-1.8-6.5c0.1,0.8,0.1,1.7,0.2,2.5c0,0.8,0.1,1.6,0.1,2.3v1.7h-1.9V91.3h2.2l1.8,6.3
		c-0.1-1.1-0.1-2-0.2-2.8c0-0.8-0.1-1.4-0.1-2v-1.6H88V101.6z M95.3,99.2c-0.1,0.5-0.2,0.9-0.4,1.2c-0.2,0.4-0.6,0.7-1,0.9
		c-0.4,0.2-1.1,0.3-1.9,0.3h-2.4V91.3H92c0.9,0,1.5,0.1,1.9,0.3c0.4,0.2,0.8,0.5,1,0.9c0.2,0.3,0.3,0.7,0.4,1.2
		c0.1,0.5,0.1,1.4,0.1,2.8C95.4,97.8,95.4,98.7,95.3,99.2z M99,101.6h-2.2V91.3H99V101.6z M91.7,87.4H73.5V7.9h13
		c3.9-0.1,7.3,0.2,10.3,0.8c3,0.6,5.8,2,8.5,4.2c3.1,2.8,5.4,6.4,6.8,10.7c1.5,4.3,2.4,8.5,2.8,12.7c0.4,4.2,0.6,7.7,0.5,10.3
		c0,7.8-0.7,14.8-2.3,20.8c-1.5,6-4.1,11-7.7,14.8c-1.3,1.3-3,2.5-5.3,3.5C98,86.8,95.1,87.4,91.7,87.4z M108.6,101
		c-0.5,0.6-1.2,0.8-2.1,0.8c-0.9,0-1.6-0.3-2.1-0.8c-0.5-0.5-0.7-1.3-0.7-2.4l0-0.2l0-0.3h2v0.3c0,0.6,0.1,1,0.2,1.2l0.6,0.3
		l0.5-0.3c0.1-0.2,0.2-0.4,0.2-0.7c0-0.5-0.3-1-1-1.4l-0.2-0.2l-0.1-0.1c-0.9-0.6-1.4-1.1-1.6-1.5c-0.1-0.2-0.3-0.5-0.3-0.8
		c-0.1-0.3-0.1-0.7-0.1-1c0-0.9,0.2-1.6,0.7-2.1c0.5-0.5,1.1-0.8,1.9-0.8c0.9,0,1.6,0.2,2,0.7c0.5,0.5,0.7,1.2,0.7,2.2l0,0.2l0,0.2
		h-1.9v-0.1c0-0.4-0.1-0.8-0.2-1l-0.5-0.3l-0.5,0.2l-0.2,0.6c0,0.4,0.4,0.9,1.1,1.4l0.3,0.2l0.2,0.2c0.8,0.5,1.2,1,1.4,1.3l0.3,0.8
		c0.1,0.3,0.1,0.6,0.1,1C109.3,99.6,109.1,100.4,108.6,101z M116.4,97.9c0,0.7,0,1.3-0.1,1.7c-0.1,0.4-0.2,0.7-0.3,1
		c-0.2,0.5-0.5,0.8-1,1c-0.4,0.2-1,0.3-1.6,0.3c-0.6,0-1.1-0.1-1.5-0.3c-0.4-0.2-0.7-0.5-0.9-1c-0.2-0.3-0.3-0.7-0.4-1.2
		c-0.1-0.5-0.1-1.3-0.1-2.5v-5.5h2.2v6.4c0,1,0,1.6,0.2,1.8l0.6,0.3l0.6-0.4c0.1-0.2,0.2-0.8,0.2-1.8v-6.4h2.1V97.9z M123.2,100.9
		c-0.5,0.6-1.2,0.9-2.3,0.9c-0.6,0-1.1-0.1-1.5-0.3c-0.4-0.2-0.8-0.6-1-1c-0.2-0.3-0.3-0.8-0.4-1.3c-0.1-0.6-0.1-1.5-0.1-2.7
		c0-1.2,0-2.1,0.1-2.7c0.1-0.6,0.2-1,0.4-1.3c0.3-0.4,0.6-0.8,1-1c0.4-0.2,0.9-0.3,1.5-0.3c1,0,1.8,0.3,2.3,0.9
		c0.5,0.6,0.8,1.6,0.8,2.8v0.1l-2.1,0c0-0.7-0.1-1.2-0.2-1.5c-0.1-0.3-0.4-0.4-0.7-0.4c-0.3,0-0.6,0.2-0.7,0.5
		c-0.1,0.3-0.2,1.3-0.2,2.7v0.2c0,1.6,0.1,2.6,0.2,2.9c0.1,0.4,0.4,0.5,0.7,0.5c0.3,0,0.5-0.1,0.7-0.4c0.1-0.3,0.2-0.7,0.2-1.5v-0.5
		h2.1l0,0.2l0,0.3C123.9,99.4,123.7,100.3,123.2,100.9z M130.6,100.9c-0.5,0.6-1.2,0.9-2.3,0.9c-0.6,0-1.1-0.1-1.5-0.3
		c-0.4-0.2-0.8-0.6-1-1c-0.2-0.3-0.3-0.8-0.4-1.3c-0.1-0.6-0.1-1.5-0.1-2.7c0-1.2,0-2.1,0.1-2.7c0.1-0.6,0.2-1,0.4-1.3
		c0.3-0.4,0.6-0.8,1-1c0.4-0.2,0.9-0.3,1.5-0.3c1,0,1.8,0.3,2.3,0.9c0.5,0.6,0.8,1.6,0.8,2.8v0.1l-2.1,0c0-0.7-0.1-1.2-0.2-1.5
		c-0.1-0.3-0.4-0.4-0.7-0.4c-0.3,0-0.6,0.2-0.7,0.5c-0.1,0.3-0.2,1.3-0.2,2.7v0.2c0,1.6,0.1,2.6,0.2,2.9c0.1,0.4,0.4,0.5,0.7,0.5
		c0.3,0,0.5-0.1,0.7-0.4c0.1-0.3,0.2-0.7,0.2-1.5v-0.5h2.1l0,0.2l0,0.3C131.4,99.4,131.1,100.3,130.6,100.9z M137.9,93.3H135v1.9
		h2.7v2H135v2.2h2.9v2.1h-5V91.3h5V93.3z M143.9,101c-0.5,0.6-1.2,0.8-2.1,0.8c-0.9,0-1.6-0.3-2.1-0.8c-0.5-0.5-0.7-1.3-0.7-2.4
		l0-0.2l0-0.3h2v0.3c0,0.6,0.1,1,0.2,1.2l0.6,0.3l0.5-0.3c0.1-0.2,0.2-0.4,0.2-0.7c0-0.5-0.3-1-1-1.4l-0.2-0.2l-0.1-0.1
		c-0.9-0.6-1.4-1.1-1.6-1.5c-0.2-0.2-0.3-0.5-0.3-0.8c-0.1-0.3-0.1-0.7-0.1-1c0-0.9,0.2-1.6,0.7-2.1c0.5-0.5,1.1-0.8,1.9-0.8
		c0.9,0,1.6,0.2,2,0.7c0.5,0.5,0.7,1.2,0.7,2.2l0,0.2l0,0.2h-1.9v-0.1c0-0.4-0.1-0.8-0.2-1l-0.5-0.3l-0.5,0.2l-0.2,0.6
		c0,0.4,0.4,0.9,1.1,1.4l0.3,0.2l0.2,0.2c0.8,0.5,1.2,1,1.4,1.3l0.3,0.8c0.1,0.3,0.1,0.6,0.1,1C144.6,99.6,144.4,100.4,143.9,101z
		 M150.4,101c-0.5,0.6-1.2,0.8-2.1,0.8c-0.9,0-1.6-0.3-2.1-0.8c-0.5-0.5-0.7-1.3-0.7-2.4l0-0.2l0-0.3h2v0.3c0,0.6,0.1,1,0.2,1.2
		l0.6,0.3l0.5-0.3c0.1-0.2,0.2-0.4,0.2-0.7c0-0.5-0.3-1-1-1.4l-0.2-0.2l-0.1-0.1c-0.9-0.6-1.4-1.1-1.6-1.5c-0.2-0.2-0.3-0.5-0.3-0.8
		c-0.1-0.3-0.1-0.7-0.1-1c0-0.9,0.2-1.6,0.7-2.1c0.5-0.5,1.1-0.8,1.9-0.8c0.9,0,1.6,0.2,2,0.7c0.5,0.5,0.7,1.2,0.7,2.2l0,0.2l0,0.2
		h-1.9v-0.1c0-0.4-0.1-0.8-0.2-1l-0.5-0.3l-0.5,0.2l-0.2,0.6c0,0.4,0.4,0.9,1.1,1.4l0.3,0.2l0.2,0.2c0.8,0.5,1.2,1,1.4,1.3l0.3,0.8
		c0.1,0.3,0.1,0.6,0.1,1C151.2,99.6,150.9,100.4,150.4,101z M154.6,101.6h-2.2V91.3h2.2V101.6z M151.6,81.7c-3.5,4.6-8.6,6.9-15.2,7
		c-5.1-0.1-9-1.4-11.7-3.8c-2.7-2.4-4.7-5.3-5.9-8.6c-1.2-3.3-1.9-6.3-2.3-9l11.1-4.5c0.8,4.2,1.8,7.2,3.2,9
		c1.4,1.8,3.2,2.7,5.6,2.7c2.1-0.1,3.6-0.7,4.6-1.7c1-1.1,1.6-2.3,1.9-3.6c0.3-1.3,0.4-2.3,0.4-3c-0.1-2.6-0.7-4.6-1.8-6
		c-1.2-1.4-2.4-2.4-3.8-3.1c-4.2-2.4-7.5-4.4-9.9-6.2c-2.4-1.8-4.3-3.9-5.7-6.6c-0.9-1.7-1.7-3.7-2.2-6c-0.5-2.3-0.8-4.7-0.8-7.2
		c0-4.1,0.7-8,2.1-11.6c1.4-3.7,3.5-6.7,6.2-9c2.7-2.3,6.1-3.5,10.1-3.6c4.6,0.1,8.2,1.4,10.7,3.7c2.6,2.3,4.4,4.9,5.6,7.8
		c1.1,2.8,1.9,5.1,2.2,6.7l-10.3,5.4c-0.8-3.8-2-6.3-3.4-7.6c-1.4-1.3-2.8-1.8-4.3-1.7c-1.8,0.1-3.2,0.6-4,1.7
		c-0.8,1.1-1.4,2.2-1.6,3.4c-0.2,1.2-0.3,2.1-0.3,2.6c0,1.9,0.3,3.4,0.9,4.6c0.6,1.2,1.9,2.3,3.6,3.5c1.8,1.1,4.3,2.6,7.5,4.3
		c1.5,0.7,3.2,1.9,5.2,3.5c2,1.6,3.8,3.9,5.3,6.8c1.5,3,2.3,7,2.4,12C156.9,71.1,155.1,77.1,151.6,81.7z M169.3,32.3
		c-0.5,0.8-1.1,1.4-1.8,1.8c-0.8,0.4-1.6,0.7-2.5,0.7c-0.9,0-1.7-0.2-2.5-0.7c-0.8-0.4-1.4-1-1.8-1.8c-0.5-0.8-0.7-1.7-0.7-2.7
		c0-1,0.2-1.9,0.7-2.7c0.5-0.8,1.1-1.4,1.8-1.8c0.8-0.4,1.6-0.6,2.5-0.7c0.9,0,1.7,0.2,2.5,0.7c0.8,0.4,1.4,1,1.8,1.8
		c0.5,0.8,0.7,1.7,0.7,2.7C170,30.7,169.8,31.6,169.3,32.3z"/>
	<path d="M166.2,28.5c0-0.3-0.1-0.5-0.4-0.6l-0.8-0.1h-1v1.6h1c0.3,0,0.6,0,0.8-0.1C166.1,29.1,166.2,28.8,166.2,28.5z"/>
</g>
</svg>
