<?xml version="1.0" encoding="utf-8"?>
<!-- Generator: Adobe Illustrator 19.1.0, SVG Export Plug-In . SVG Version: 6.00 Build 0)  -->
<svg version="1.1" id="Livello_1" xmlns="http://www.w3.org/2000/svg" xmlns:xlink="http://www.w3.org/1999/xlink" x="0px" y="0px"
	 viewBox="0 0 434 100.7" style="enable-background:new 0 0 434 100.7;" xml:space="preserve">
<g id="layer1" transform="translate(1259.5404,-281.52527)" inkscape:label="Layer 1" inkscape:groupmode="layer">
	<path id="path3223" sodipodi:nodetypes="ccccccc" inkscape:connector-curvature="0" d="M-831.1,282.7c3.3,0.6,5.6,2.6,5.6,6.1
		c0,1.2-0.5,2.8-0.8,4.2c-2.2,9.8-10.9,44.6-14.6,67.8l-3.4-3.4l10.7-71.3L-831.1,282.7z"/>
	<path id="path3201" sodipodi:nodetypes="cccc" inkscape:connector-curvature="0" d="M-1048.1,292.1c-4.5,1.1-8.9,1-13.2,0l6.9,7.2
		L-1048.1,292.1z"/>
	<path id="path3193" sodipodi:nodetypes="cccc" inkscape:connector-curvature="0" d="M-1117,292.1c4.5,1.1,8.9,1,13.2,0l-6.9,7.2
		L-1117,292.1z"/>
	<path id="path3181" sodipodi:nodetypes="ccccc" inkscape:connector-curvature="0" d="M-1155.9,292.1c10.2,25.7,26.1,64.6,34.1,79.5
		l-11.8-3.6l-29.2-73L-1155.9,292.1z"/>
	<path id="path3175" sodipodi:nodetypes="cccc" inkscape:connector-curvature="0" d="M-1165.1,292.1c3.2,1.1,5.9,1.2,9.2,0l-6.6,4
		L-1165.1,292.1z"/>
	<path id="path3177" sodipodi:nodetypes="cccccc" inkscape:connector-curvature="0" d="M-1160.4,294.9l29.7,72.9
		c-1.8,1.9-2.5,2.9-4.3,3.8c-8.6-22.2-17.9-44.4-25.7-66.3l-3.9-6.6L-1160.4,294.9z"/>
	<path id="path3173" sodipodi:nodetypes="cccccc" inkscape:connector-curvature="0" d="M-1186,371.6l-8.8-3.1l30.9-72.5l3.4-1.1
		v10.7C-1165.3,319.5-1177.4,349.9-1186,371.6L-1186,371.6z"/>
	<path id="path3167" sodipodi:nodetypes="ccccc" inkscape:connector-curvature="0" d="M-1193.3,281.5l2.9,6.6l7.4-3.4l3-3.2
		C-1184.7,282.6-1189,282.6-1193.3,281.5z"/>
	<path id="path3165" sodipodi:nodetypes="ccccccc" inkscape:connector-curvature="0" d="M-1214.2,339.3l-5,1.9l-3.2-5.6l31.5-50.3
		l2.3-0.8c3.1-0.7,6.5-1.5,8.7-2.9C-1185,288.3-1203.2,319.9-1214.2,339.3L-1214.2,339.3z"/>
	<path id="path3163" sodipodi:nodetypes="ccccccc" inkscape:connector-curvature="0" d="M-1221.1,338.5l1.3-1.3l31.2-52.7l-4.7-2.9
		c-3.8,7-17.7,29.7-26.5,44.2l-4.2,7.9L-1221.1,338.5z"/>
	<path id="path3161" sodipodi:nodetypes="cccccc" inkscape:connector-curvature="0" d="M-1246.3,281.5c6.9,12.3,17.5,29.4,26.5,44.2
		v11.4l-2.1,2.1l-31-55.1L-1246.3,281.5z"/>
	<path id="path3159" sodipodi:nodetypes="ccccc" inkscape:connector-curvature="0" d="M-1251.4,284.9l5.1-3.3
		c-5.5,1.2-7.8,1.2-13.2,0l2.1,2.4L-1251.4,284.9z"/>
	<path id="path3157" sodipodi:nodetypes="cccccc" inkscape:connector-curvature="0" d="M-1219.8,337.2l-2.4,3.4l-3.2-1.3
		c-5.9-10.2-23.3-41.4-34.2-57.8c2.2,1.6,5.2,2.5,8.6,3L-1219.8,337.2z"/>
	<path id="path3155" inkscape:connector-curvature="0" d="M-1213.4,381.9l-9-4.2l0.8-37.6l1.9-2.9l5.6,2.1L-1213.4,381.9z"/>
	<path id="path3153" sodipodi:nodetypes="ccccc" inkscape:connector-curvature="0" d="M-1219.8,379l-6.4,2.9l0.8-42.7l5.6-2.1V379z"
		/>
	<path id="path3171" sodipodi:nodetypes="cccccc" inkscape:connector-curvature="0" d="M-1199.1,371.6c11.1-22.5,23.3-52.8,34-79.5
		l4.7,2.8l-30.2,73.8l-6.1,2.1L-1199.1,371.6z"/>
	<path id="path3179" sodipodi:nodetypes="ccccc" inkscape:connector-curvature="0" d="M-1131,367.7l9.3,3.9c-3.6-0.9-8.4-1.2-13.2,0
		l1.8-4.5L-1131,367.7z"/>
	<path id="path3185" sodipodi:nodetypes="ccccccc" inkscape:connector-curvature="0" d="M-1181.1,345.5l6.5-2.8
		c9.4,0.3,18.8,0.3,28.2,0l6.6,2.9l-6.2,1.3h-30.5L-1181.1,345.5z"/>
	<path id="path3183" sodipodi:nodetypes="ccccc" inkscape:connector-curvature="0" d="M-1176.8,348.3l-4.4-2.8
		c13.8-0.2,27.5-0.2,41.3,0.1l-4.4,2.7C-1155,347.9-1165.9,348-1176.8,348.3z"/>
	<path id="path3191" sodipodi:nodetypes="cccccc" inkscape:connector-curvature="0" d="M-1103.7,371.6l-9.3-3.2v-71.3l2.6-1.3
		l6.6-3.7C-1105.1,318.6-1105.1,345.1-1103.7,371.6z"/>
	<path id="path3189" sodipodi:nodetypes="cccccc" inkscape:connector-curvature="0" d="M-1110.4,367.9v1.9l-6.6,1.9
		c1.1-26.5,1.2-52.9,0-79.5l6.6,3.7V367.9z"/>
	<path id="path3199" sodipodi:nodetypes="cccccc" inkscape:connector-curvature="0" d="M-1061.4,371.6l9.3-3.2v-71.3l-2.6-1.3
		l-6.6-3.7C-1060,318.6-1060,345.1-1061.4,371.6z"/>
	<path id="path3205" sodipodi:nodetypes="ccccccc" inkscape:connector-curvature="0" d="M-1110.3,331.7l5.6-2.5
		c14.8,0.4,29.6,0.3,44.4,0l5.6,2.5l-6.9,1.7h-43.2L-1110.3,331.7z"/>
	<path id="path3207" inkscape:connector-curvature="0" d="M-1001.4,292.1c-26,0-39,16.3-39,39.9c0,29.6,19.7,39.9,38.7,39.9
		c22.6,0,38.8-12.7,38.8-39.8C-962.9,306-978.3,292.1-1001.4,292.1L-1001.4,292.1z M-1002.1,295.9c0.2,0,0.5,0,0.7,0
		c17.2,0,29.8,11.7,29.8,36.2c0,24.4-12.6,36.1-29.8,36.1c-18.7,0-29.7-13.4-29.7-36.1C-1031.1,306.5-1017.5,296.2-1002.1,295.9z"/>
	<path id="path3209" inkscape:connector-curvature="0" d="M-1001.5,291.1c-28.1,0-42.8,17.8-42.8,40.9c0,25.3,16.1,40.7,42.8,40.7
		c28.9,0,43-17.4,43-40.4C-958.5,306.5-975.4,291.1-1001.5,291.1z M-1001.4,293.7c22.2,0,36.9,13.3,36.9,38.4
		c0,26-15.5,38.2-37.2,38.2c-18.3,0-37.1-9.9-37.1-38.3C-1038.8,309.3-1026.4,293.7-1001.4,293.7L-1001.4,293.7z"/>
	<path id="path3213" inkscape:connector-curvature="0" d="M-904.3,288c-26.4,0-44.5,14.9-44.5,44c0,28.5,16.8,44.5,44.6,44.5
		c21,0,44.1-10.8,44.1-44.1C-860.1,296.5-885.2,288-904.3,288z M-904.4,291.2c21,0,36.5,12.8,36.5,40.9c0,30.6-18.7,40.5-36.5,40.5
		c-19,0-36.2-11.1-36.2-41.1C-940.6,300.4-921.4,291.2-904.4,291.2z"/>
	<path id="path3215" inkscape:connector-curvature="0" d="M-904.4,286.3c-28,0-49.4,15.9-49.4,45.4c0,24.3,14.2,45.8,49.6,45.8
		c30,0,49.5-16.5,49.5-45.3C-854.7,304.9-872.9,286.3-904.4,286.3L-904.4,286.3z M-904.3,289.2c18.5,0,43,8.3,43,43.2
		c0,32.4-22.4,42.9-42.9,42.9c-27,0-43.4-15.5-43.4-43.3C-947.5,303.8-929.9,289.2-904.3,289.2z"/>
	<path id="path3217" sodipodi:nodetypes="ccccc" inkscape:connector-curvature="0" d="M-852.5,376.2c0-3.4,2.1-6.6,6.2-6.6
		c4,0,7,2.4,7,6.2c0,4.7-3.1,6.5-6,6.5C-849.3,382.3-852.5,380.2-852.5,376.2L-852.5,376.2z"/>
	<path id="path3221" sodipodi:nodetypes="ccccccc" inkscape:connector-curvature="0" d="M-845.9,360c3.2-22.8,5.2-46.8,7.1-70.8
		c0-4.8,3.2-6.6,6.3-6.6c0.6,0,1.4,0.1,1.4,0.1l-0.9,5.7l-11.3,70.9L-845.9,360z"/>
	<path id="path3151" sodipodi:nodetypes="cccsc" inkscape:connector-curvature="0" d="M-1226.2,381.9l6.4-4.7l6.3,4.7
		c0,0-3.5-0.6-6.3-0.6C-1222.3,381.3-1226.2,381.9-1226.2,381.9z"/>
	<path id="path3169" sodipodi:nodetypes="ccccc" inkscape:connector-curvature="0" d="M-1199.1,371.6l8.9-3.8c1.4,1.6,2.6,3,4.2,3.8
		C-1189.2,370.7-1194.1,370.3-1199.1,371.6L-1199.1,371.6z"/>
	<path id="path3187" sodipodi:nodetypes="cccc" inkscape:connector-curvature="0" d="M-1117,371.6c4.3-1,8.7-1.1,13.2,0l-6.6-3.7
		L-1117,371.6z"/>
	<path id="path3203" sodipodi:nodetypes="cccccc" inkscape:connector-curvature="0" d="M-1104.8,334.6l-5.6-2.9
		c18.5,0.2,37.1,0.2,55.6,0l-5.6,2.9C-1075.1,334.4-1090,334.4-1104.8,334.6L-1104.8,334.6z"/>
	<path id="path3197" sodipodi:nodetypes="cccccc" inkscape:connector-curvature="0" d="M-1054.7,367.9v1.9l6.6,1.9
		c-1.1-26.5-1.2-52.9,0-79.5l-6.6,3.7V367.9z"/>
	<path id="path3195" sodipodi:nodetypes="cccc" inkscape:connector-curvature="0" d="M-1048.1,371.6c-4.3-1-8.7-1.1-13.2,0l6.6-3.7
		L-1048.1,371.6z"/>
	<path id="path3219" sodipodi:nodetypes="cccc" inkscape:connector-curvature="0" d="M-842.9,357.3l-2.9,2.7c2-0.3,3.5,0.2,5,0.8
		L-842.9,357.3z"/>
	
		<path id="path3507" sodipodi:ry="21.289658" sodipodi:type="arc" sodipodi:cy="1693.0604" sodipodi:cx="1214.9834" sodipodi:rx="22.494734" d="
		M-825.7,288.4c0,3.1-2.9,5.6-6.5,5.6c-3.6,0-6.5-2.5-6.5-5.6c0-3.1,2.9-5.6,6.5-5.6C-828.6,282.7-825.7,285.2-825.7,288.4z"/>
</g>
</svg>
