<?xml version="1.0" encoding="utf-8"?>
<!-- Generator: Adobe Illustrator 17.0.0, SVG Export Plug-In . SVG Version: 6.00 Build 0)  -->
<!DOCTYPE svg PUBLIC "-//W3C//DTD SVG 1.1//EN" "http://www.w3.org/Graphics/SVG/1.1/DTD/svg11.dtd">
<svg version="1.1" id="Layer_1" xmlns="http://www.w3.org/2000/svg" xmlns:xlink="http://www.w3.org/1999/xlink" x="0px" y="0px"
	 width="134.136px" height="165.786px" viewBox="44.929 -66.75 134.136 165.786"
	 enable-background="new 44.929 -66.75 134.136 165.786" xml:space="preserve">
<g id="Layer_1_1_">
	<g>
		<path d="M107.944-18.75h8.072c2.159,0,3.831-0.661,4.97-1.963c1.616-1.849,1.488-4.266,1.426-4.872V-39.75h-20.863v14.165
			c-0.062,0.606-0.19,3.023,1.426,4.872C104.112-19.411,105.784-18.75,107.944-18.75z M104.534-25.299l0.014-11.451h14.863v11.25
			l0.012,0.19c0.002,0.016,0.185,1.629-0.707,2.634c-0.544,0.614-1.453,0.925-2.7,0.925h-3.676h-4.396
			c-1.247,0-2.156-0.312-2.7-0.925C104.352-23.68,104.534-25.293,104.534-25.299z"/>
		<path d="M135.448,18.5h-46.4v31.387c-0.097,0.707-0.345,3.536,1.498,5.75c1.441,1.733,3.714,2.612,6.752,2.612h29.9
			c3.038,0,5.311-0.879,6.752-2.612c1.843-2.215,1.595-5.044,1.498-5.75V18.5z M132.448,21.5v4.375H92.044l0.004-4.375H132.448z
			 M131.63,53.736c-0.847,1.004-2.338,1.514-4.432,1.514h-29.9c-2.094,0-3.585-0.51-4.432-1.514c-1.181-1.4-0.846-3.452-0.844-3.463
			l0.021-23.398h40.405V50l0.023,0.264C132.476,50.284,132.811,52.336,131.63,53.736z"/>
		<rect x="108.292" y="-33.375" width="7.375" height="3"/>
	</g>
	<g>
		<path d="M176.891,1.179c-3.104-2.941-8.431-2.689-8.576-2.679h-15.832c-0.874-2.18-2.499-3.793-5.501-3.961
			c-12.641-0.711-12.114-14.346-12.084-15.002v-32.75h-6.85V-65.25c0-0.829-0.672-1.5-1.5-1.5s-1.5,0.671-1.5,1.5v12.036h-26.5
			V-65.25c0-0.829-0.672-1.5-1.5-1.5s-1.5,0.671-1.5,1.5v12.036h-7.207l0.002,32.826C88.37-19.82,88.874-6.476,76.221-5.459
			c-2.856,0.229-4.45,1.818-5.335,3.959L55.76-1.498c-0.223-0.013-5.553-0.265-8.657,2.677C45.66,2.546,44.929,4.336,44.929,6.5
			c0,2.197,0.659,3.96,1.961,5.24c2.404,2.364,6.207,2.299,8.255,2.267L55.679,14c3.957,0,5.25,3.718,5.25,5
			c0,0.486-0.147,4.75-5.25,4.75c-0.828,0-1.5,0.671-1.5,1.5s0.672,1.5,1.5,1.5c6.525,0,8.25-5.069,8.25-7.75c0-3.27-2.938-8-8.25-8
			l-0.584,0.007c-1.611,0.026-4.595,0.076-6.102-1.406c-0.717-0.704-1.064-1.718-1.064-3.101c0-1.323,0.402-2.349,1.23-3.137
			c2.161-2.054,6.401-1.864,6.52-1.863h14.415c-0.331,2.167-0.299,4.495-0.27,6.446c0.009,0.554,0.017,1.087,0.017,1.59
			c0,4.885-0.484,71.127-0.5,73.194c-0.042,0.702-0.263,6.586,3.95,11.139c3.173,3.429,7.96,5.167,14.228,5.167h48.201
			c2.717,0,5.142-0.342,7.287-0.997c-0.528-0.857-0.933-1.794-1.197-2.79c-1.791,0.505-3.805,0.787-6.09,0.787H87.519
			c-5.381,0-9.419-1.406-12.002-4.18c-1.278-1.372-2.043-2.926-2.505-4.351h14.119v-3H72.392c-0.092-0.959-0.057-1.587-0.056-1.604
			l0.005-0.105c0-0.06,0.005-0.638,0.012-1.63h7.778v-3h-7.756c0.112-15.445,0.466-64.447,0.466-68.631
			c0-0.517-0.008-1.066-0.017-1.635c-0.085-5.703,0.129-10.088,3.637-10.37c15.577-1.251,14.887-17.905,14.88-17.995v-29.75h4.207
			v4.464c0,0.829,0.672,1.5,1.5,1.5s1.5-0.671,1.5-1.5v-4.464h26.5v4.464c0,0.829,0.672,1.5,1.5,1.5s1.5-0.671,1.5-1.5v-4.464h3.85
			l0.002,29.671c-0.009,0.172-0.725,17.197,14.914,18.077c3.56,0.2,3.744,4.466,3.615,10.021c-0.016,0.695-0.031,1.362-0.031,1.981
			c0,1.382,0.039,6.526,0.094,14.304c0.272-2.181,1.361-4.109,2.953-5.467c-0.029-4.635-0.048-7.891-0.048-8.836
			c0-0.598,0.015-1.242,0.03-1.912c0.043-1.856,0.091-4.058-0.194-6.124l15.162-0.002c0.041,0,4.289-0.171,6.432,1.859
			c0.833,0.789,1.237,1.816,1.237,3.143c0,1.382-0.348,2.396-1.064,3.101c-1.508,1.482-4.493,1.431-6.102,1.406L168.315,11
			c-4.033,0-6.693,2.726-7.742,5.469c1.011,0.188,1.957,0.557,2.811,1.068c0.586-1.567,2.05-3.537,4.931-3.537l0.534,0.006
			c2.046,0.034,5.853,0.098,8.255-2.267c1.302-1.279,1.961-3.042,1.961-5.24C179.065,4.336,178.333,2.546,176.891,1.179z"/>
		<path d="M150.508,26.069c0.001,0.116,0.002,0.238,0.003,0.355l0.037-0.063C150.53,26.264,150.522,26.166,150.508,26.069z"/>
	</g>
</g>
<g id="Layer_2">
	<g>
		<polygon points="151.423,93.616 156.695,93.616 156.695,92.045 152.994,92.045 152.994,82.827 156.695,82.827 156.695,81.256 
			152.994,81.256 152.994,72.047 156.695,72.047 156.695,70.476 152.994,70.476 152.994,61.258 156.695,61.258 156.695,59.687 
			152.994,59.687 152.994,50.468 156.695,50.468 156.695,48.897 151.423,48.897 		"/>
		<path d="M170.223,44.93c0.19-0.172,0.341-0.389,0.411-0.643c0.664-0.641,1.059-1.531,1.059-2.471v-3.69
			c0-1.901-1.545-3.448-3.443-3.448h-0.611l-4.526-7.833c0.312-0.621,0.47-1.269,0.47-1.935c0-2.532-2.056-4.592-4.582-4.592
			s-4.582,2.06-4.582,4.592c0,0.667,0.157,1.315,0.469,1.935l-4.525,7.833h-0.612c-1.901,0-3.448,1.547-3.448,3.448v3.69
			c0,0.95,0.406,1.851,1.087,2.494c0.021,0.072,0.048,0.142,0.081,0.21c0.077,0.158,0.188,0.288,0.313,0.402
			c-1.436,1.828-2.331,4.096-2.331,6.596V92.58c0,3.559,2.896,6.455,6.455,6.455h14.185c3.56,0,6.455-2.896,6.455-6.455V51.519
			C172.548,49.022,171.655,46.756,170.223,44.93z M149.043,38.126c0-0.383,0.324-0.706,0.706-0.706h1.402
			c0.489,0,0.941-0.26,1.186-0.684l5.331-9.229c0.274-0.475,0.238-1.068-0.091-1.507c-0.282-0.376-0.419-0.732-0.419-1.09
			c0-1.02,0.826-1.851,1.841-1.851s1.841,0.83,1.841,1.851c0,0.356-0.138,0.713-0.42,1.09c-0.33,0.439-0.366,1.032-0.091,1.507
			l5.333,9.229c0.245,0.423,0.698,0.684,1.186,0.684h1.401c0.381,0,0.702,0.324,0.702,0.706v3.69c0,0.323-0.226,0.545-0.421,0.636
			c-0.062,0.029-0.121,0.063-0.177,0.1h-2.005c-0.086-0.017-0.173-0.025-0.262-0.025h-14.182c-0.088,0-0.176,0.008-0.262,0.025
			h-1.999c-0.056-0.037-0.115-0.071-0.177-0.1c-0.196-0.093-0.425-0.315-0.425-0.636v-3.69H149.043z M170.086,92.581
			c0,2.202-1.79,3.993-3.993,3.993h-14.185c-2.202,0-3.993-1.79-3.993-3.993V51.519c0-2.492,1.124-4.702,2.868-6.225h1.094
			c0.076,0,0.155-0.009,0.234-0.025h13.747c0.086,0.017,0.173,0.025,0.262,0.025h1.094c1.748,1.523,2.872,3.732,2.872,6.225
			L170.086,92.581L170.086,92.581z"/>
	</g>
</g>
</svg>
