<?xml version="1.0" encoding="utf-8"?>
<svg width="543.2999877929688" height="530.7999877929688" viewBox="129 135 543.3 530.8" xmlns="http://www.w3.org/2000/svg">
  <g transform="matrix(0.10000000149011613, 0, 0, -0.10000000149011613, 5.684341886080802e-14, 801)" style="fill: rgb(0, 0, 0); stroke: none;">
    <path d="M3150 6467 l-246 -192 -298 -70 -299 -70 -137 -280 -137 -280 -242&#10;-194 -241 -194 0 -307 0 -306 -130 -277 c-71 -153 -130 -284 -130 -291 0 -7&#10;59 -138 130 -290 l130 -276 0 -308 0 -307 241 -194 240 -194 142 -281 142&#10;-280 298 -70 297 -71 242 -190 c155 -120 250 -188 263 -187 11 1 148 30 305&#10;65 l286 63 303 -67 304 -67 246 192 246 192 265 63 c146 34 281 67 301 72 35&#10;9 38 13 170 285 l134 276 242 196 243 196 0 305 0 305 132 280 c72 155 131&#10;286 131 293 0 6 -59 137 -131 292 l-132 280 0 305 0 304 -239 194 -238 193&#10;-140 280 -140 280 -301 72 -300 71 -234 183 c-128 100 -238 186 -244 191 -7 5&#10;-129 -17 -315 -58 l-302 -67 -302 67 c-166 36 -303 66 -306 65 -2 0 -114 -86&#10;-249 -192z m1245 -86 c152 -26 314 -69 441 -116 228 -85 497 -239 690 -396&#10;383 -311 677 -764 804 -1241 91 -345 106 -731 39 -1075 -175 -909 -873 -1648&#10;-1773 -1878 -220 -56 -333 -69 -586 -69 -249 -1 -362 12 -580 65 -656 160&#10;-1234 614 -1554 1220 -116 220 -196 458 -243 719 -23 128 -26 173 -27 385 -1&#10;263 10 362 63 580 85 344 260 694 483 960 396 475 931 772 1548 859 157 22&#10;535 15 695 -13z" style="fill: rgb(238, 105, 60);"/>
    <path d="M2605 4817 c-61 -25 -94 -47 -128 -88 -133 -155 -63 -422 126 -485&#10;36 -12 72 -15 131 -12 83 5 121 18 184 65 l32 24 -27 39 c-16 22 -31 40 -35&#10;40 -4 0 -24 -11 -44 -25 -126 -86 -269 -40 -310 101 -52 181 127 314 295 219&#10;23 -14 45 -25 47 -25 2 0 16 19 31 41 27 41 27 42 8 56 -59 43 -101 57 -190&#10;60 -55 1 -102 -2 -120 -10z" style="fill: rgb(238, 105, 60);"/>
    <path d="M3156 4778 c-42 -113 -186 -524 -186 -530 0 -5 26 -8 58 -8 l58 0 24&#10;75 24 75 97 0 97 0 24 -72 25 -73 61 -3 61 -3 -25 68 c-13 37 -60 167 -103&#10;288 l-78 220 -60 3 -61 3 -16 -43z m144 -295 c0 -2 -31 -3 -69 -3 l-70 0 31&#10;93 c16 50 32 99 34 107 4 11 73 -175 74 -197z" style="fill: rgb(238, 105, 60);"/>
    <path d="M3570 4530 l0 -290 55 0 55 0 0 106 0 105 52 -3 53 -3 55 -102 55&#10;-103 62 0 c35 0 63 2 63 5 0 3 -30 58 -66 122 l-65 117 26 19 c44 33 68 92 63&#10;159 -5 65 -25 99 -78 136 -31 20 -44 22 -181 22 l-149 0 0 -290z m261 179 c30&#10;-16 42 -56 28 -96 -14 -42 -56 -63 -129 -63 l-50 0 0 85 0 85 66 0 c36 0 74&#10;-5 85 -11z" style="fill: rgb(238, 105, 60);"/>
    <path d="M4110 4530 l0 -290 55 0 55 0 0 196 0 196 130 -196 129 -196 56 0 55&#10;0 0 290 0 290 -55 0 -55 0 -2 -191 -3 -190 -124 190 -123 191 -59 0 -59 0 0&#10;-290z" style="fill: rgb(238, 105, 60);"/>
    <path d="M4730 4530 l0 -290 185 0 185 0 0 50 0 50 -130 0 -130 0 0 70 0 70&#10;100 0 100 0 0 50 0 50 -100 0 -100 0 0 70 0 70 125 0 125 0 0 50 0 50 -180 0&#10;-180 0 0 -290z" style="fill: rgb(238, 105, 60);"/>
    <path d="M5130 4770 l0 -50 95 0 95 0 0 -240 0 -240 55 0 55 0 0 240 0 240&#10;100 0 100 0 0 50 0 50 -250 0 -250 0 0 -50z" style="fill: rgb(238, 105, 60);"/>
    <path d="M3182 3819 c-60 -30 -96 -93 -90 -158 7 -75 35 -104 153 -161 57 -27&#10;108 -58 114 -68 15 -28 2 -61 -30 -77 -41 -22 -69 -19 -135 15 -32 16 -60 30&#10;-61 30 -2 0 -15 -18 -29 -40 -22 -34 -25 -42 -13 -56 28 -35 93 -57 174 -62&#10;70 -3 86 -1 124 20 76 41 110 133 77 211 -21 50 -40 63 -189 132 -31 15 -62&#10;35 -67 45 -21 39 26 90 83 90 12 0 46 -11 76 -25 30 -14 55 -24 56 -23 1 2 12&#10;22 23 44 21 41 21 42 2 59 -53 48 -194 60 -268 24z" style="fill: rgb(238, 105, 60);"/>
    <path d="M2650 3540 l0 -290 185 0 185 0 0 50 0 50 -130 0 -130 0 0 70 0 70&#10;100 0 100 0 0 50 0 50 -100 0 -100 0 0 70 0 70 125 0 125 0 0 50 0 50 -180 0&#10;-180 0 0 -290z" style="fill: rgb(238, 105, 60);"/>
    <path d="M3510 3780 l0 -50 95 0 95 0 0 -240 0 -240 55 0 55 0 0 240 0 240&#10;100 0 100 0 0 50 0 50 -250 0 -250 0 0 -50z" style="fill: rgb(238, 105, 60);"/>
    <path d="M4156 3788 c-42 -113 -186 -524 -186 -530 0 -5 26 -8 58 -8 l58 0 24&#10;75 24 75 97 0 97 0 24 -72 25 -73 61 -3 61 -3 -25 68 c-13 37 -60 167 -103&#10;288 l-78 220 -60 3 -61 3 -16 -43z m144 -295 c0 -2 -31 -3 -69 -3 l-70 0 31&#10;93 c16 50 32 99 34 107 4 11 73 -175 74 -197z" style="fill: rgb(238, 105, 60);"/>
    <path d="M4460 3780 l0 -50 95 0 95 0 0 -240 0 -240 55 0 55 0 0 240 0 240&#10;100 0 100 0 0 50 0 50 -250 0 -250 0 0 -50z" style="fill: rgb(238, 105, 60);"/>
    <path d="M5030 3540 l0 -290 185 0 185 0 0 50 0 50 -130 0 -130 0 0 70 0 70&#10;100 0 100 0 0 50 0 50 -100 0 -100 0 0 70 0 70 125 0 125 0 0 50 0 50 -180 0&#10;-180 0 0 -290z" style="fill: rgb(238, 105, 60);"/>
  </g>
</svg>