<?xml version="1.0" encoding="utf-8"?>
<!-- Generator: Adobe Illustrator 17.0.0, SVG Export Plug-In . SVG Version: 6.00 Build 0)  -->
<!DOCTYPE svg PUBLIC "-//W3C//DTD SVG 1.1//EN" "http://www.w3.org/Graphics/SVG/1.1/DTD/svg11.dtd">
<svg version="1.1" id="Layer_1" xmlns="http://www.w3.org/2000/svg" xmlns:xlink="http://www.w3.org/1999/xlink" x="0px" y="0px"
	 width="466.141px" height="466.074px" viewBox="-236.687 -291.564 466.141 466.074"
	 enable-background="new -236.687 -291.564 466.141 466.074" xml:space="preserve">
<g>
	<g>
		<path d="M-3.65-242.885c-102.018,0-184.358,82.34-184.358,184.358c0,101.501,82.858,184.358,184.358,184.358
			S180.709,42.974,180.709-58.527C180.709-160.545,97.851-242.885-3.65-242.885z M-3.65,116.51
			c-96.84,0-175.037-78.197-175.037-175.037S-100.489-233.564-3.65-233.564s175.037,78.197,175.037,175.037
			S93.19,116.51-3.65,116.51z M-3.65-242.885c-102.018,0-184.358,82.34-184.358,184.358c0,101.501,82.858,184.358,184.358,184.358
			S180.709,42.974,180.709-58.527C180.709-160.545,97.851-242.885-3.65-242.885z M-3.65,116.51
			c-96.84,0-175.037-78.197-175.037-175.037S-100.489-233.564-3.65-233.564s175.037,78.197,175.037,175.037
			S93.19,116.51-3.65,116.51z M-3.65-242.885c-102.018,0-184.358,82.34-184.358,184.358c0,101.501,82.858,184.358,184.358,184.358
			S180.709,42.974,180.709-58.527C180.709-160.545,97.851-242.885-3.65-242.885z M-3.65,116.51
			c-96.84,0-175.037-78.197-175.037-175.037S-100.489-233.564-3.65-233.564s175.037,78.197,175.037,175.037
			S93.19,116.51-3.65,116.51z M-3.65-242.885c-102.018,0-184.358,82.34-184.358,184.358c0,101.501,82.858,184.358,184.358,184.358
			S180.709,42.974,180.709-58.527C180.709-160.545,97.851-242.885-3.65-242.885z M-3.65,116.51
			c-96.84,0-175.037-78.197-175.037-175.037S-100.489-233.564-3.65-233.564s175.037,78.197,175.037,175.037
			S93.19,116.51-3.65,116.51z M224.727-69.402c-7.768-7.25-10.875-15.536-4.661-24.857c4.143-6.732,2.589-15.536-4.143-20.197
			c-9.322-6.214-9.839-13.982-5.696-22.786c3.625-7.768-0.518-17.089-8.286-20.197c-8.804-3.107-13.982-8.804-12.429-19.161
			c1.554-7.768-3.625-15.536-11.911-17.089c-9.839-2.071-13.464-8.804-12.947-18.125c0-8.804-6.732-15.536-15.536-15.536
			c-9.322,0-16.054-3.107-18.125-12.947c-1.554-7.768-9.321-12.947-17.089-11.911c-10.357,2.071-15.536-3.107-19.161-12.429
			c-3.107-8.286-11.911-11.911-20.197-8.286c-9.321,4.143-17.089,3.107-22.786-5.696c-4.143-6.732-13.464-8.804-20.197-4.143
			c-9.321,6.732-17.089,3.625-24.339-4.143c-5.696-6.214-15.536-6.214-21.232,0c-7.768,7.768-15.536,10.875-25.375,4.661
			c-6.732-4.143-15.536-2.589-20.197,4.143c-6.214,9.321-13.982,9.839-22.786,5.696c-7.768-3.625-17.089,0.518-19.679,8.286
			c-3.107,8.804-8.804,13.982-19.161,12.429c-7.768-1.554-15.536,3.625-17.089,11.911c-2.071,9.839-8.804,12.947-18.125,12.947
			c-8.804,0-15.536,6.732-15.536,15.536c0,9.321-3.107,16.054-12.947,18.125c-7.768,1.554-12.947,9.321-11.911,17.089
			c2.071,10.357-3.107,15.536-12.429,19.161c-8.286,3.107-11.911,11.911-8.286,20.197c4.143,9.321,3.107,17.089-5.696,22.786
			c-6.732,4.143-8.804,13.464-4.143,20.197c6.214,9.321,3.107,17.089-4.661,24.339c-6.214,5.696-6.214,15.536,0,21.232
			c7.768,7.25,10.875,15.536,4.661,24.857c-4.143,6.732-2.589,15.536,4.143,20.197c9.321,6.214,9.839,13.982,5.696,22.786
			c-3.625,8.286,0.518,17.607,8.286,20.197c8.804,3.625,13.982,8.804,12.429,19.161c-1.554,7.768,3.625,15.536,11.911,17.089
			c9.839,2.071,12.947,8.804,12.947,18.125c0,8.804,6.732,15.536,15.536,15.536c9.321,0,16.054,3.107,18.125,12.947
			c1.554,7.768,9.321,12.947,17.089,11.911c10.357-2.071,15.536,3.107,19.161,12.429c3.107,8.286,11.911,11.911,20.197,8.286
			c9.321-4.143,17.089-3.107,22.786,5.696c4.143,6.732,13.464,8.804,20.197,4.143c9.839-6.214,17.607-3.107,24.857,4.661
			c5.696,6.214,15.536,6.214,21.232,0c7.25-7.768,15.536-10.875,24.857-4.661c6.732,4.143,15.536,2.589,20.197-4.143
			c6.214-9.321,13.982-9.839,22.786-5.696c7.768,3.625,17.089-0.518,20.197-8.286c3.625-8.804,8.804-13.982,19.161-12.429
			c7.768,1.554,15.536-3.625,17.089-11.911c2.071-9.839,8.804-13.464,18.125-12.947c8.804,0,15.536-6.732,15.536-15.536
			c0-9.321,3.107-16.054,12.947-18.125c7.768-1.554,12.947-9.321,11.911-17.089c-2.071-10.357,3.107-15.536,12.429-19.161
			c8.286-3.107,11.911-11.911,8.286-20.197c-4.143-9.321-3.107-17.089,5.696-22.786c6.732-4.143,8.804-13.464,4.143-20.197
			c-6.214-9.839-3.107-17.607,4.661-24.857C230.941-53.348,230.941-63.706,224.727-69.402z M-3.65,135.671
			c-107.197,0-194.198-87.001-194.198-194.198s87-194.198,194.198-194.198s194.198,87,194.198,194.198S103.547,135.671-3.65,135.671
			z M-3.65-242.885c-102.018,0-184.358,82.34-184.358,184.358c0,101.501,82.858,184.358,184.358,184.358
			S180.709,42.974,180.709-58.527C180.709-160.545,97.851-242.885-3.65-242.885z M-3.65,116.51
			c-96.84,0-175.037-78.197-175.037-175.037S-100.489-233.564-3.65-233.564s175.037,78.197,175.037,175.037
			S93.19,116.51-3.65,116.51z M-3.65-242.885c-102.018,0-184.358,82.34-184.358,184.358c0,101.501,82.858,184.358,184.358,184.358
			S180.709,42.974,180.709-58.527C180.709-160.545,97.851-242.885-3.65-242.885z M-3.65,116.51
			c-96.84,0-175.037-78.197-175.037-175.037S-100.489-233.564-3.65-233.564s175.037,78.197,175.037,175.037
			S93.19,116.51-3.65,116.51z M-3.65-242.885c-102.018,0-184.358,82.34-184.358,184.358c0,101.501,82.858,184.358,184.358,184.358
			S180.709,42.974,180.709-58.527C180.709-160.545,97.851-242.885-3.65-242.885z M-3.65,116.51
			c-96.84,0-175.037-78.197-175.037-175.037S-100.489-233.564-3.65-233.564s175.037,78.197,175.037,175.037
			S93.19,116.51-3.65,116.51z M-3.65-242.885c-102.018,0-184.358,82.34-184.358,184.358c0,101.501,82.858,184.358,184.358,184.358
			S180.709,42.974,180.709-58.527C180.709-160.545,97.851-242.885-3.65-242.885z M-3.65,116.51
			c-96.84,0-175.037-78.197-175.037-175.037S-100.489-233.564-3.65-233.564s175.037,78.197,175.037,175.037
			S93.19,116.51-3.65,116.51z M-3.65-242.885c-102.018,0-184.358,82.34-184.358,184.358c0,101.501,82.858,184.358,184.358,184.358
			S180.709,42.974,180.709-58.527C180.709-160.545,97.851-242.885-3.65-242.885z M-3.65,116.51
			c-96.84,0-175.037-78.197-175.037-175.037S-100.489-233.564-3.65-233.564s175.037,78.197,175.037,175.037
			S93.19,116.51-3.65,116.51z"/>
	</g>
	<g>
		<path d="M-3.65-242.885c-102.018,0-184.358,82.34-184.358,184.358c0,101.501,82.858,184.358,184.358,184.358
			S180.709,42.974,180.709-58.527C180.709-160.545,97.851-242.885-3.65-242.885z M-3.65,116.51
			c-96.84,0-175.037-78.197-175.037-175.037S-100.489-233.564-3.65-233.564s175.037,78.197,175.037,175.037
			S93.19,116.51-3.65,116.51z"/>
	</g>
	<g>
		<path d="M-3.65-242.885c-102.018,0-184.358,82.34-184.358,184.358c0,101.501,82.858,184.358,184.358,184.358
			S180.709,42.974,180.709-58.527C180.709-160.545,97.851-242.885-3.65-242.885z M-3.65,116.51
			c-96.84,0-175.037-78.197-175.037-175.037S-100.489-233.564-3.65-233.564s175.037,78.197,175.037,175.037
			S93.19,116.51-3.65,116.51z"/>
	</g>
</g>
<g>
	<path d="M-142.125-104.051c0.074-14.335,12.089-25.988,26.569-26.062c6.372,0,12.16,2.098,16.719,5.647
		c1.739,1.447,2.028,3.982,0.725,5.791c-1.45,1.81-4.129,2.098-5.788,0.796c-3.189-2.605-7.171-3.982-11.656-3.982
		c-4.996,0-9.628,2.028-13.033,5.214c-3.257,3.33-5.284,7.671-5.284,12.596c0,4.922,2.028,9.41,5.284,12.593
		c3.404,3.186,8.037,5.214,13.033,5.214c4.486,0,8.4-1.376,11.656-3.982c1.659-1.232,4.338-0.94,5.788,0.796
		c1.303,1.81,1.014,4.415-0.725,5.791c-4.559,3.548-10.347,5.647-16.719,5.647C-130.035-77.992-142.051-89.649-142.125-104.051z"/>
	<path d="M-59.327-89.937h-17.586l-3.552,9.41c-0.651,1.595-2.175,2.535-3.76,2.535c-0.51,0-0.946-0.074-1.376-0.218
		c-2.101-0.796-3.115-3.112-2.39-5.211l15.994-42.64c0.651-1.591,2.249-2.605,3.84-2.532c1.665-0.074,3.183,0.94,3.834,2.532
		l16,42.64c0.719,2.098-0.289,4.415-2.39,5.211c-0.363,0.144-0.866,0.218-1.376,0.218c-1.591,0-3.109-0.94-3.687-2.535
		L-59.327-89.937z M-62.295-97.901l-5.862-15.564l-5.868,15.564H-62.295z"/>
	<path d="M-4.905-84.002c0.725,2.101-0.436,4.344-2.538,5.069c-0.283,0.071-0.866,0.215-1.585,0.215c0,0,0,0-0.074,0
		c-0.725,0-1.813-0.144-2.826-0.796c-0.94-0.578-1.733-1.521-2.316-2.535c-1.014-2.098-1.518-4.704-1.518-8.685
		c-0.074-1.376-0.363-2.316-0.873-3.112c-0.43-0.796-1.303-1.521-2.169-2.101c-1.518-1.011-3.404-1.591-4.055-1.736H-31.4v15.708
		c0,2.172-1.813,3.982-4.049,3.982c-2.249,0-3.982-1.81-3.982-3.982v-42.711c0-2.243,1.733-3.982,3.982-3.982c0,0,0,0,0.068,0
		h12.885c8.615,0,15.497,6.949,15.497,15.564c0,4.777-2.175,8.977-5.653,11.871c0.946,0.725,1.813,1.595,2.532,2.679
		c1.45,2.101,2.396,4.777,2.396,7.819c-0.074,2.172,0.141,3.548,0.283,4.27C-6.281-86.1-5.341-85.231-4.905-84.002z
		 M-15.037-113.102c0-4.197-3.33-7.527-7.459-7.527H-31.4v14.913h8.903C-18.368-105.716-15.037-109.047-15.037-113.102z"/>
	<path d="M14.77-81.974c0,2.172-1.813,3.982-3.908,3.982c-2.243,0-3.982-1.81-3.982-3.982v-42.059c0,0,0,0,0-0.071
		c-0.074-1.232,0.51-2.535,1.591-3.33c1.813-1.232,4.277-0.869,5.505,0.869l23.38,32.357v-29.826c0-2.098,1.739-3.908,3.908-3.908
		s3.982,1.81,3.982,3.908v42.059c0,2.172-1.813,3.982-3.982,3.982c-1.161,0-2.243-0.578-2.968-1.447
		c-0.147-0.144-0.289-0.292-0.363-0.436L14.77-112.015V-81.974z"/>
	<path d="M57.904-81.974v-42.711c0-2.243,1.739-3.982,3.976-3.982h0.074c0,0,0,0,0.147,0h23.454
		c2.101,0,3.982,1.739,3.982,3.982c0,2.246-1.88,4.055-3.982,4.055H65.935v13.248h16.873c2.169,0,3.982,1.88,3.982,3.982
		c0,2.243-1.813,4.052-3.982,4.052H65.935v13.321h19.619c2.101,0,3.982,1.81,3.982,4.052c0,2.172-1.88,3.982-3.982,3.982H62.101
		c-0.147,0-0.147-0.074-0.147-0.074l-0.074,0.074C59.643-77.992,57.904-79.802,57.904-81.974z"/>
	<path d="M131.792-120.629H120.29v38.655c0,2.243-1.745,3.982-3.982,3.982c-2.175,0-3.982-1.739-3.982-3.982v-38.655
		h-11.441c-2.243,0-3.982-1.883-3.982-4.055c0-2.243,1.739-3.982,3.982-3.982h30.907c2.175,0,3.982,1.739,3.982,3.982
		C135.774-122.513,133.968-120.629,131.792-120.629z"/>
	<path d="M-113.356,4.867v-42.711c0-2.172,1.739-3.982,3.976-3.982c2.249,0,4.055,1.81,4.055,3.982V0.814h19.619
		c2.101,0,3.982,1.81,3.982,4.052c0,2.172-1.88,3.982-3.982,3.982h-23.454c-0.147,0-0.147,0-0.147,0c-0.074,0-0.074,0-0.074,0
		C-111.617,8.848-113.356,7.039-113.356,4.867z"/>
	<path d="M-46.774-3.097h-17.592l-3.545,9.41c-0.651,1.595-2.169,2.535-3.767,2.535c-0.504,0-0.94-0.074-1.376-0.218
		c-2.095-0.796-3.109-3.112-2.384-5.211l16-42.64c0.651-1.591,2.237-2.605,3.834-2.532c1.665-0.074,3.183,0.94,3.834,2.532l16,42.64
		c0.725,2.098-0.289,4.415-2.39,5.211c-0.363,0.144-0.866,0.218-1.37,0.218c-1.598,0-3.121-0.94-3.699-2.535L-46.774-3.097z
		 M-49.742-11.06l-5.862-15.564l-5.862,15.564H-49.742z"/>
	<path d="M7.648,2.839c0.725,2.101-0.43,4.344-2.532,5.069C4.828,7.979,4.25,8.123,3.525,8.123c0,0,0,0-0.074,0
		c-0.719,0-1.813-0.144-2.82-0.796C-0.315,6.75-1.108,5.807-1.691,4.793c-1.008-2.098-1.512-4.704-1.512-8.685
		c-0.074-1.376-0.369-2.316-0.873-3.112C-4.512-7.8-5.378-8.525-6.251-9.106c-1.518-1.011-3.398-1.591-4.055-1.736h-8.541V4.867
		c0,2.172-1.806,3.982-4.049,3.982s-3.982-1.81-3.982-3.982v-42.711c0-2.243,1.739-3.982,3.982-3.982c0,0,0,0,0.068,0h12.891
		c8.615,0,15.49,6.949,15.49,15.564c0,4.777-2.169,8.977-5.647,11.871c0.94,0.725,1.806,1.595,2.532,2.679
		c1.45,2.101,2.39,4.777,2.39,7.819C4.754-1.72,4.969-0.344,5.117,0.378C6.272,0.741,7.218,1.61,7.648,2.839z M-2.484-26.262
		c0-4.197-3.33-7.527-7.453-7.527h-8.91v14.913h8.91C-5.814-18.876-2.484-22.206-2.484-26.262z"/>
	<path d="M17.123-17.14c0-14.55,12.013-26.133,26.71-26.133c6.151,0,12.013,2.098,16.504,5.647
		c1.88,1.376,2.169,4.052,0.793,5.862c-1.376,1.739-4.049,2.101-5.862,0.654c-3.109-2.39-7.091-3.911-11.435-3.911
		c-5.217,0-9.776,1.954-13.033,5.284c-3.404,3.26-5.432,7.675-5.432,12.596c0,4.777,2.028,9.195,5.432,12.452
		c3.257,3.33,7.816,5.284,13.033,5.284c3.619,0,7.023-1.088,9.917-2.753v-9.917H43.397c-2.243,0-4.129-1.88-4.129-4.126
		c0-2.316,1.886-4.052,4.129-4.052h14.261c0.074,0,0.074,0,0.074,0c0.068,0,0.068,0,0.068,0c2.323,0,4.203,1.736,4.203,4.052v16
		c0,0.507-0.147,0.796-0.221,1.229c-0.068,0.144-0.068,0.218-0.141,0.363v0.074c-0.215,0.651-0.651,1.229-1.376,1.736
		c-4.559,3.548-10.28,5.647-16.43,5.647C29.136,8.848,17.123-2.66,17.123-17.14z"/>
	<path d="M78.274,4.867v-42.711c0-2.243,1.733-3.982,3.982-3.982h0.074c0,0,0,0,0.141,0h23.454
		c2.101,0,3.982,1.739,3.982,3.982c0,2.246-1.88,4.055-3.982,4.055H86.311v13.248h16.861c2.175,0,3.982,1.88,3.982,3.982
		c0,2.243-1.806,4.052-3.982,4.052H86.311V0.814h19.613c2.101,0,3.982,1.81,3.982,4.052c0,2.172-1.88,3.982-3.982,3.982H82.47
		c-0.141,0-0.141-0.074-0.141-0.074l-0.074,0.074C80.006,8.848,78.274,7.039,78.274,4.867z"/>
</g>
</svg>
