<?xml version="1.0" encoding="utf-8"?>
<!-- Generator: Adobe Illustrator 19.1.0, SVG Export Plug-In . SVG Version: 6.00 Build 0)  -->
<svg version="1.1" id="Layer_1" xmlns="http://www.w3.org/2000/svg" xmlns:xlink="http://www.w3.org/1999/xlink" x="0px" y="0px"
	 viewBox="-654.7 389.9 221.6 221.6" style="enable-background:new -654.7 389.9 221.6 221.6;" xml:space="preserve">
<style type="text/css">
	.st0{fill:#FFFFFF;}
</style>
<g>
	<g>
		<path d="M-529.6,412.5c-48.6-7.9-94.4,25.3-102.3,73.8c-7.9,48.5,25.3,94.4,73.8,102.3c48.6,7.9,94.4-25.3,102.3-73.8
			C-448,466.3-481,420.4-529.6,412.5z"/>
		<path d="M-433.4,518.6c0.9-5.5-0.3-10.7-2.6-15.2c-2.4-4.5-2.6-9.6-0.8-13.9c2.3-4.7,2.6-9.8,1.4-15.1s-4-9.8-8.1-13
			c-3.1-2.6-5.5-7-5.3-11.1c0.4-5-1.4-10.5-4.3-14.5c-3.4-4.7-7.5-7.3-12.3-9.1c-4-1.1-7.5-4.3-8.8-8.6c-1.7-4.9-5.2-9-9.4-11.7
			c-4.6-2.8-10-4.2-15.3-3.5c-5.2,0.7-10-1.2-13.4-5.3c-3.5-3.7-8.2-6.4-13.6-7.3c-5.5-0.9-10.7,0.3-15.2,2.6
			c-4.5,2.4-9.6,2.6-13.9,0.8c-4.7-2.3-9.8-2.6-15.1-1.4c-5.3,1.2-9.8,4-13,8.1c-2.6,3.1-7,5.5-11.1,5.3c-5-0.4-10.5,1.4-14.5,4.3
			c-4.7,3.4-7.3,7.5-9.1,12.3c-1.1,4-4.3,7.5-8.6,8.8c-4.9,1.7-9,5.2-11.7,9.4c-2.8,4.6-4.2,10-3.5,15.3c0.7,5.2-1.2,10-5.3,13.4
			c-3.7,3.5-6.4,8.2-7.3,13.6c-0.9,5.5,0.3,10.7,2.6,15.2c2.4,4.5,2.6,9.6,0.8,13.9c-2.3,4.7-2.6,9.8-1.4,15.1s4,9.8,8.1,13
			c3.1,2.6,5.5,7,5.3,11.1c-0.4,5,1.4,10.5,4.3,14.5c3.4,4.7,7.5,7.3,12.3,9.1c4,1.1,7.5,4.3,8.8,8.6c1.7,4.9,5.2,9,9.4,11.7
			c4.6,2.8,10,4.2,15.3,3.5c5.2-0.7,10,1.2,13.4,5.3c3.5,3.7,8.2,6.4,13.6,7.3c5.5,0.9,10.7-0.3,15.2-2.6c4.5-2.4,9.6-2.6,13.9-0.8
			c4.7,2.3,9.8,2.6,15.1,1.4c5.3-1.2,9.8-4,13-8.1c2.6-3.1,7-5.5,11.1-5.3c5,0.4,10.5-1.4,14.5-4.3c4.7-3.4,7.3-7.5,9.1-12.3
			c1.1-4,4.3-7.5,8.6-8.8c4.9-1.7,9-5.2,11.7-9.4c2.8-4.6,4.2-10,3.5-15.3c-0.7-5.2,1.2-10,5.3-13.4
			C-437.1,528.7-434.3,524.1-433.4,518.6z M-558.9,593.2c-51.1-8.3-85.8-56.5-77.5-107.5s56.5-85.8,107.5-77.5
			c51.1,8.3,85.8,56.5,77.5,107.5S-507.8,601.5-558.9,593.2z"/>
	</g>
</g>
<g>
	<path fill="#FFFFFF" d="M-553.8,423.5l3.8,0.6l1.2,8.5c0.2,0.9,0.1,2.4,0.1,2.4l0,0c0,0,0.5-1.3,0.9-2.2l3.9-7.7l3.8,0.6l-7.3,13.4
		l-3.7-0.6L-553.8,423.5z"/>
	<path fill="#FFFFFF" d="M-539.9,429.8l3.5,0.6l-1,6c-0.2,1,0.2,1.4,0.9,1.6c1.5,0.2,2.4-0.9,2.6-2.5l0.7-4.5l3.5,0.6l-1.7,10.3
		l-3.4-0.5l0.1-0.9c0-0.3,0.1-0.6,0.1-0.6l0,0c-0.8,1-2.2,1.5-3.5,1.2c-2.1-0.3-3.5-1.6-3-4.4L-539.9,429.8L-539.9,429.8z"/>
	<path fill="#FFFFFF" d="M-522.1,432.5c3.3,0.5,5.5,3.1,4.9,6.4c-0.5,3.3-3.4,4.9-6.7,4.4s-5.5-3.1-5-6.3
		C-528.3,433.7-525.3,432-522.1,432.5z M-523.4,440.3c1.3,0.2,2.5-0.5,2.8-2.1c0.3-1.6-0.7-2.7-2-3c-1.3-0.2-2.5,0.6-2.8,2.2
		C-525.5,439-524.6,440.1-523.4,440.3z"/>
	<path fill="#FFFFFF" d="M-514.5,433.9l3.5,0.6l-1.7,10.3l-3.5-0.6L-514.5,433.9z M-513.8,430l3.4,0.5l-0.4,2.7l-3.4-0.5L-513.8,430z"
		/>
	<path fill="#FFFFFF" d="M-595.5,445.3l3.4,0.5l-0.3,1.8c0,0.3-0.1,0.6-0.1,0.6l0,0c0.6-1.3,2.2-2.3,3.7-2c0.2,0,0.4,0.1,0.4,0.1
		l-0.5,3.4c0,0-0.3-0.1-0.7-0.2c-0.8-0.1-2.2-0.1-3,1.3c-0.2,0.4-0.3,0.8-0.4,1.3l-0.6,3.8l-3.5-0.6L-595.5,445.3L-595.5,445.3z"/>
	<path fill="#FFFFFF" d="M-586.9,446.7l3.5,0.6l-1.7,10.3l-3.5-0.6L-586.9,446.7z M-586.2,442.8l3.4,0.5l-0.4,2.7l-3.4-0.5
		L-586.2,442.8z"/>
	<path fill="#FFFFFF" d="M-581.3,454.5c0,0,1,1.3,2.4,1.5c0.5,0.1,1,0.1,1.1-0.3c0.1-0.9-4.7-1.8-4.1-5.1c0.3-2,2.4-2.9,4.8-2.5
		c2.4,0.4,3.5,1.8,3.5,1.8l-1.6,2.3c0,0-0.9-0.9-2.3-1.2c-0.5-0.1-1-0.1-1.1,0.3c-0.1,0.8,4.7,1.7,4.1,5c-0.3,1.8-2.1,3-4.8,2.6
		c-2.6-0.4-3.9-2.2-3.9-2.2L-581.3,454.5z"/>
	<path fill="#FFFFFF" d="M-571.5,449.2l3.2,0.5l-0.1,0.5c0,0.3-0.1,0.7-0.1,0.7l0,0c0,0,1.1-1.2,3.4-0.9c2.8,0.4,4.3,2.9,3.8,6.2
		c-0.5,3.3-2.9,5-5.6,4.6c-1.7-0.3-2.4-1.4-2.4-1.4l0,0c0,0-0.1,0.4-0.1,0.9l-0.6,3.8l-3.5-0.6l2.3-14.3L-571.5,449.2z
		 M-567.4,457.8c1.1,0.2,2.1-0.6,2.4-2.1c0.3-1.6-0.4-2.7-1.6-2.9c-1.1-0.2-2.1,0.5-2.4,2.2C-569.2,456.3-568.7,457.6-567.4,457.8z"
		/>
	<path fill="#FFFFFF" d="M-554.3,456L-554.3,456l0.1-0.2c0.1-0.9-0.5-1.3-1.3-1.4c-1.3-0.2-2.9,0.5-2.9,0.5l-0.8-2.7c0,0,2-1.1,4.6-0.7
		c2.9,0.5,4.4,2.3,4,4.9l-1,6.3l-3.2-0.5l0.1-0.6c0-0.3,0.1-0.6,0.1-0.6l0,0c0,0-1,1.4-3.1,1c-1.9-0.3-3.2-1.8-2.9-3.9
		C-560.3,455.4-555.9,455.8-554.3,456z M-556.4,459.8c0.9,0.1,1.8-0.7,2-1.5l0-0.2l-0.3,0c-1.1-0.2-2.4-0.1-2.6,0.8
		C-557.4,459.2-557.1,459.6-556.4,459.8z"/>
	<path fill="#FFFFFF" d="M-547.6,453.1l3.4,0.5l-0.3,1.8c0,0.3-0.1,0.6-0.1,0.6l0,0c0.6-1.3,2.2-2.3,3.7-2c0.2,0,0.4,0.1,0.4,0.1
		l-0.5,3.4c0,0-0.3-0.1-0.7-0.2c-0.8-0.1-2.2-0.1-3,1.3c-0.2,0.4-0.3,0.8-0.4,1.3l-0.6,3.8l-3.5-0.6L-547.6,453.1z"/>
	<path fill="#FFFFFF" d="M-539.1,454.5l3.4,0.5l-0.1,0.9c0,0.3-0.1,0.6-0.1,0.6l0,0c0.6-0.6,1.8-1.5,3.3-1.3c1.3,0.2,2.3,1,2.6,2.2l0,0
		c0.6-0.8,2.1-1.5,3.5-1.2c1.9,0.3,3.2,1.5,2.7,4.4l-1.1,6.6l-3.5-0.6l1-6.1c0.1-0.8,0.1-1.3-0.6-1.4c-1.1-0.2-1.8,0.5-2.2,1.7
		c-0.2,0.4-0.2,0.8-0.3,1.2l-0.7,4.2l-3.5-0.6l1-6.1c0.1-0.8,0.1-1.3-0.6-1.4c-1.1-0.2-1.8,0.5-2.2,1.6c-0.2,0.4-0.2,0.8-0.3,1.3
		l-0.7,4.2l-3.5-0.6L-539.1,454.5L-539.1,454.5z"/>
	<path fill="#FFFFFF" d="M-520.8,457.4l3.5,0.6l-1.7,10.3l-3.5-0.6L-520.8,457.4z M-520.1,453.5l3.4,0.5l-0.4,2.7l-3.4-0.5
		L-520.1,453.5z"/>
	<path fill="#FFFFFF" d="M-510.2,463.2L-510.2,463.2l0.1-0.2c0.1-0.9-0.5-1.3-1.3-1.4c-1.3-0.2-2.9,0.5-2.9,0.5l-0.8-2.7
		c0,0,2-1.1,4.6-0.7c2.9,0.5,4.4,2.3,4,4.9l-1,6.3l-3.2-0.5l0.1-0.6c0-0.3,0.1-0.6,0.1-0.6l0,0c0,0-1,1.4-3.2,1
		c-1.9-0.3-3.2-1.8-2.9-3.9C-516.3,462.5-511.8,462.9-510.2,463.2z M-512.4,466.9c0.9,0.1,1.8-0.7,2-1.5l0-0.2l-0.3,0
		c-1.1-0.2-2.4-0.1-2.6,0.8C-513.2,466.3-513,466.8-512.4,466.9z"/>
	<path fill="#FFFFFF" d="M-503.6,460.2l3.4,0.5l-0.3,1.8c0,0.3-0.1,0.6-0.1,0.6l0,0c0.6-1.3,2.2-2.3,3.7-2c0.2,0,0.4,0.1,0.4,0.1
		l-0.5,3.4c0,0-0.3-0.1-0.7-0.2c-0.8-0.1-2.2-0.1-3,1.3c-0.2,0.4-0.3,0.8-0.4,1.3l-0.6,3.8l-3.5-0.6L-503.6,460.2z"/>
	<path fill="#FFFFFF" d="M-490.4,462.2c3.1,0.5,4.4,2.8,3.9,5.7c0,0.3-0.3,1.1-0.3,1.1l-6.5-1.1c0.1,1.3,1,2.1,2.1,2.3
		c1.5,0.2,3-0.6,3-0.6l0.9,2.6c0,0-1.9,1.2-4.6,0.8c-3.7-0.6-5.2-3.6-4.7-6.3C-496.1,463.7-493.7,461.6-490.4,462.2z M-489.7,466.4
		c0.1-0.8-0.3-1.6-1.1-1.7c-1-0.2-1.6,0.5-1.9,1.2L-489.7,466.4z"/>
	<path fill="#FFFFFF" d="M-483.4,468.5c0.4-2.7,3.7-2.6,3.9-4.3c0.1-0.7-0.5-1.3-1.2-1.4c-1-0.2-2,0.6-2,0.6l-1.5-2.7
		c0,0,1.8-1.4,4.4-1c2.3,0.4,4.4,2.1,4,4.7c-0.5,3.3-4.1,3.2-4.4,5l-0.1,0.7l-3.4-0.5L-483.4,468.5L-483.4,468.5z M-483.7,470.9
		l3.2,0.5l-0.5,3l-3.2-0.5L-483.7,470.9z"/>
	<path fill="#FFFFFF" d="M-599.8,487.9l-4.4-0.7l-1.4,2.8l-3.6-0.6l7.1-13.4l3.7,0.6l2.5,15l-3.6-0.6L-599.8,487.9z M-600.7,479.4
		c0,0-0.6,1.5-1,2.4l-1.2,2.6l2.8,0.4l-0.3-2.9C-600.6,481.1-600.7,479.4-600.7,479.4L-600.7,479.4z"/>
	<path fill="#FFFFFF" d="M-585.5,478.3c3.6,0.6,5,2.8,5,2.8l-2,2.4c0,0-1.3-1.7-3.3-2.1c-2.8-0.4-4.4,1.3-4.7,3.4
		c-0.3,2.1,0.7,4.5,3.4,4.9c2.2,0.4,4-1.2,4-1.2l1.4,2.9c0,0-2.4,2-6.1,1.4c-4.4-0.7-7-4.4-6.3-8.6
		C-593.5,480.3-589.7,477.7-585.5,478.3z"/>
	<path fill="#FFFFFF" d="M-571.2,480.7c4.3,0.7,7,4.4,6.3,8.5c-0.3,1.7-1.1,3-2.1,4l1.3,1.4l-2.3,1.9l-1.3-1.6
		c-1.3,0.6-2.8,0.8-4.3,0.5c-4.3-0.7-7-4.5-6.3-8.7C-579.2,482.6-575.5,480-571.2,480.7z M-573,492.2c0.5,0.1,1.1,0.1,1.6,0
		l-1.3-1.5l2.3-1.9l1.2,1.6c0.3-0.6,0.6-1.1,0.7-1.8c0.4-2.4-1-4.3-3.2-4.7c-2.2-0.4-4.1,1.2-4.5,3.4
		C-576.6,489.7-575.2,491.9-573,492.2z"/>
	<path fill="#FFFFFF" d="M-561.4,482.5l3.5,0.6l-1.5,9c-0.2,1.5,0.6,2.4,2.1,2.7c1.5,0.2,2.6-0.4,2.8-1.9l1.5-9l3.5,0.6l-1.5,9
		c-0.5,3.3-3.3,5.1-6.8,4.6c-3.7-0.6-5.7-3.2-5.1-6.5L-561.4,482.5L-561.4,482.5z"/>
	<path fill="#FFFFFF" d="M-546.3,485l3.5,0.6l-2.3,14.2l-3.5-0.6L-546.3,485z"/>
	<path fill="#FFFFFF" d="M-540.3,496c0,0,1.3,1.7,3.2,2c0.7,0.1,1.5-0.1,1.7-0.9c0.3-1.7-6.1-2.7-5.4-7.1c0.4-2.7,2.9-4,5.7-3.5
		c3.1,0.5,4.3,2.3,4.3,2.3l-1.9,2.6c0,0-1.3-1.5-3-1.8c-0.7-0.1-1.5,0.1-1.7,0.8c-0.3,1.8,6.2,2.5,5.4,7.1c-0.4,2.4-2.5,4.2-5.8,3.6
		c-3.4-0.5-4.9-2.9-4.9-2.9L-540.3,496z"/>
	<path fill="#FFFFFF" d="M-525.7,491.4l-4.3-0.7l0.5-3l12.1,2l-0.5,3l-4.3-0.7l-1.8,11.3l-3.5-0.6L-525.7,491.4L-525.7,491.4z"/>
	<path fill="#FFFFFF" d="M-511,502.3l-4.4-0.7l-1.4,2.8l-3.6-0.6l7.1-13.4l3.7,0.6l2.5,15l-3.6-0.6L-511,502.3z M-512,493.8
		c0,0-0.6,1.5-1,2.4l-1.2,2.6l2.8,0.4l-0.3-2.9C-511.9,495.4-511.9,493.8-512,493.8L-512,493.8z"/>
	<path fill="#FFFFFF" d="M-499.8,496.6l3.5,0.6l-1,6c-0.2,1,0.2,1.4,0.9,1.6c1.5,0.2,2.4-0.9,2.6-2.5l0.7-4.5l3.5,0.6l-1.7,10.3
		l-3.4-0.5l0.1-0.9c0-0.3,0.1-0.6,0.1-0.6l0,0c-0.8,1-2.2,1.5-3.5,1.2c-2.1-0.3-3.5-1.6-3-4.4L-499.8,496.6L-499.8,496.6z"/>
	<path fill="#FFFFFF" d="M-487.1,498.7l3.4,0.5l-0.1,0.9c0,0.3-0.1,0.6-0.1,0.6l0,0c0.6-0.7,1.8-1.5,3.5-1.2c2.1,0.3,3.5,1.6,3,4.4
		l-1.1,6.6l-3.5-0.6l1-5.9c0.2-1-0.2-1.4-1-1.6c-1.1-0.2-1.9,0.3-2.3,1.1c-0.2,0.4-0.3,0.9-0.4,1.3l-0.7,4.5l-3.5-0.6L-487.1,498.7
		L-487.1,498.7z"/>
	<path fill="#FFFFFF" d="M-580.5,503.8c3.6,0.6,5,2.8,5,2.8l-2,2.4c0,0-1.3-1.7-3.3-2.1c-2.8-0.4-4.4,1.3-4.7,3.4
		c-0.3,2.1,0.7,4.5,3.4,4.9c2.2,0.4,4-1.2,4-1.2l1.4,2.9c0,0-2.4,2-6.1,1.4c-4.4-0.7-7-4.4-6.3-8.6
		C-588.5,505.7-584.8,503.1-580.5,503.8z"/>
	<path fill="#FFFFFF" d="M-567.4,517.6l-4.4-0.7l-1.4,2.8l-3.6-0.6l7.1-13.4l3.7,0.6l2.5,15l-3.6-0.6L-567.4,517.6z M-568.3,509.3
		c0,0-0.6,1.5-1,2.4l-1.2,2.6l2.8,0.4l-0.3-2.9C-568.3,510.9-568.3,509.3-568.3,509.3L-568.3,509.3z"/>
	<path fill="#FFFFFF" d="M-559.5,507.4l4.9,0.8c1.5,0.2,2.2,0.5,2.7,0.7c1.5,0.8,2.3,2.5,2,4.6c-0.2,1.5-1.2,3-2.8,3.5l0,0
		c0,0,0.1,0.3,0.3,1l1.9,5.5l-3.8-0.6l-1.8-5.3l-1.7-0.3l-0.8,4.8l-3.5-0.6L-559.5,507.4L-559.5,507.4z M-555.5,514.6
		c1.1,0.2,1.9-0.3,2.1-1.5c0.2-1.1-0.1-1.7-1.9-2l-1.2-0.2l-0.6,3.5L-555.5,514.6z"/>
	<path fill="#FFFFFF" d="M-545.9,509.6l3.6,0.6l2.9,7.3c0.4,1,0.8,2.7,0.8,2.7l0,0c0,0,0.1-1.6,0.2-2.5l1.1-6.6l3.5,0.6l-2.3,14.2
		l-3.6-0.6l-2.9-7.3c-0.4-1-0.8-2.7-0.8-2.7l0,0c0,0-0.1,1.6-0.2,2.5l-1.1,6.6l-3.5-0.6L-545.9,509.6z"/>
	<path fill="#FFFFFF" d="M-530.5,512.1l9,1.5l-0.5,3l-5.4-0.9l-0.4,2.6l4.3,0.7l-0.5,3l-4.3-0.7l-0.4,2.7l5.7,0.9l-0.5,3l-9.2-1.5
		L-530.5,512.1L-530.5,512.1z"/>
	<path fill="#FFFFFF" d="M-516.5,517.4l-4.3-0.7l0.5-3l12.1,2l-0.5,3l-4.3-0.7l-1.8,11.3l-3.5-0.6L-516.5,517.4L-516.5,517.4z"/>
	<path fill="#FFFFFF" d="M-506.3,516l3.6,0.6l-1.9,9.8l-3-0.5L-506.3,516z M-507.9,527.3l3.2,0.5l-0.5,3l-3.2-0.5L-507.9,527.3z"/>
	<path fill="#FFFFFF" d="M-593.8,537.3c3.6,0.6,5,2.8,5,2.8l-2,2.4c0,0-1.3-1.7-3.3-2.1c-2.8-0.4-4.4,1.3-4.7,3.4s0.7,4.5,3.4,4.9
		c2.2,0.4,4-1.2,4-1.2l1.4,2.9c0,0-2.4,2-6.1,1.4c-4.4-0.7-7-4.4-6.3-8.6C-601.7,539.2-598.1,536.6-593.8,537.3z"/>
	<path fill="#FFFFFF" d="M-586.4,538.7l3.5,0.6l-1.6,10c-0.2,1,0,1.3,0.8,1.4c0.2,0,0.4,0.1,0.4,0.1l-0.5,3c0,0-0.5,0-1.1-0.1
		c-1.9-0.3-3.7-1-3.1-4.5L-586.4,538.7z"/>
	<path fill="#FFFFFF" d="M-580.6,543.8l3.5,0.6l-1.7,10.3l-3.5-0.6L-580.6,543.8z M-579.8,539.7l3.4,0.5l-0.4,2.7l-3.4-0.5
		L-579.8,539.7z"/>
	<path fill="#FFFFFF" d="M-569.6,545.2c2.8,0.4,3.8,2.2,3.8,2.2l-1.8,2c0,0-0.8-1.1-2.2-1.4c-1.7-0.3-2.7,0.9-2.9,2.1s0.4,2.7,2.2,3
		c1.5,0.2,3-0.8,3-0.8l0.9,2.6c0,0-1.9,1.4-4.7,1c-3.7-0.6-5.3-3.5-4.8-6.4C-575.7,547-573.2,544.7-569.6,545.2z"/>
	<path fill="#FFFFFF" d="M-558.5,547c2.8,0.4,3.8,2.2,3.8,2.2l-1.8,2c0,0-0.8-1.1-2.2-1.4c-1.7-0.3-2.7,0.9-2.9,2.1
		c-0.2,1.2,0.4,2.7,2.2,3c1.5,0.2,3-0.8,3-0.8l0.9,2.6c0,0-1.9,1.4-4.7,1c-3.7-0.6-5.3-3.5-4.8-6.4
		C-564.7,548.8-562.3,546.4-558.5,547z"/>
	<path fill="#FFFFFF" d="M-548,553L-548,553l0.1-0.2c0.1-0.9-0.5-1.3-1.3-1.4c-1.3-0.2-2.9,0.5-2.9,0.5l-0.8-2.7c0,0,2-1.1,4.6-0.7
		c2.9,0.5,4.4,2.3,4,4.9l-1,6.3l-3.2-0.5l0.1-0.4c0-0.3,0.1-0.6,0.1-0.6l0,0c0,0-1,1.4-3.1,1c-1.9-0.3-3.2-1.8-2.9-3.9
		C-554,552.3-549.6,552.7-548,553z M-550.2,556.8c0.9,0.1,1.8-0.7,2-1.5l0-0.2l-0.3,0c-1.1-0.2-2.4-0.1-2.6,0.8
		C-551.1,556.2-550.9,556.7-550.2,556.8z"/>
	<path fill="#FFFFFF" d="M-532.8,551.2c2.1,0.3,2.8,1.6,2.8,1.6l0,0c0,0,0-0.2,0.1-0.6l0-0.3l3.3,0.5l-2.3,14.2l-3.5-0.6l0.7-4
		c0.1-0.5,0.1-0.9,0.1-0.9l0,0c0,0-1.1,1-3,0.7c-2.8-0.4-4.3-2.9-3.8-6.2C-537.8,552.6-535.5,550.8-532.8,551.2z M-533.2,559.2
		c1.1,0.2,2.1-0.5,2.4-2.2c0.2-1.3-0.3-2.6-1.6-2.8c-1.1-0.2-2.1,0.6-2.4,2.1C-535.2,557.9-534.4,559-533.2,559.2z"/>
	<path fill="#FFFFFF" d="M-524.3,552.9l3.5,0.6l-1,6c-0.2,1,0.2,1.4,0.9,1.6c1.5,0.2,2.4-0.9,2.6-2.5l0.7-4.5l3.5,0.6l-1.7,10.3
		l-3.4-0.5l0.1-0.9c0-0.3,0.1-0.6,0.1-0.6l0,0c-0.8,1-2.2,1.5-3.5,1.2c-2.1-0.3-3.5-1.6-3-4.4L-524.3,552.9L-524.3,552.9z"/>
	<path fill="#FFFFFF" d="M-511.6,555l3.5,0.6l-1.7,10.3l-3.5-0.6L-511.6,555z M-510.8,550.9l3.4,0.5l-0.4,2.7l-3.4-0.5L-510.8,550.9z"
		/>
	<path fill="#FFFFFF" d="M-504.3,552l3.6,0.6l-1.9,9.8l-3-0.5L-504.3,552z M-506,563.4l3.2,0.5l-0.5,3l-3.2-0.5L-506,563.4z"/>
</g>
</svg>
