<?xml version="1.0" standalone="no"?>
<!DOCTYPE svg PUBLIC "-//W3C//DTD SVG 20010904//EN"
 "http://www.w3.org/TR/2001/REC-SVG-20010904/DTD/svg10.dtd">
<svg version="1.0" xmlns="http://www.w3.org/2000/svg"
 width="900.000000pt" height="891.000000pt" viewBox="0 0 900.000000 891.000000"
 preserveAspectRatio="xMidYMid meet">
<metadata>
Created by potrace 1.10, written by Peter Selinger 2001-2011
</metadata>
<g transform="translate(0.000000,891.000000) scale(0.100000,-0.100000)" stroke="none">
<path d="M4325 8818 c-171 -42 -297 -95 -406 -170 -78 -53 -169 -108 -179
-108 -4 0 -33 -17 -66 -38 -32 -21 -85 -51 -116 -67 -32 -16 -58 -33 -58 -37
0 -4 -6 -8 -14 -8 -7 0 -108 -47 -224 -105 -116 -58 -213 -105 -216 -105 -3 0
-33 -13 -68 -29 -67 -32 -250 -103 -358 -141 -36 -12 -74 -25 -85 -30 -21 -8
-175 -55 -290 -89 -38 -11 -128 -34 -200 -51 -199 -48 -298 -85 -407 -153
-122 -76 -211 -156 -289 -258 -67 -88 -147 -235 -174 -319 -10 -30 -21 -64
-26 -75 -4 -11 -10 -33 -13 -50 -14 -85 -94 -394 -116 -450 -7 -16 -18 -50
-25 -75 -19 -63 -102 -299 -119 -335 -8 -16 -22 -50 -32 -75 -41 -106 -220
-485 -244 -515 -4 -5 -25 -44 -47 -85 -80 -150 -166 -301 -200 -346 -13 -17
-23 -35 -23 -41 0 -6 -9 -21 -19 -35 -36 -45 -100 -177 -130 -268 -79 -234
-76 -411 9 -670 21 -61 80 -187 109 -228 37 -53 209 -347 215 -368 3 -11 14
-29 24 -40 9 -11 24 -35 34 -54 9 -19 47 -96 84 -170 86 -172 76 -153 118
-243 20 -42 36 -83 36 -91 0 -7 7 -19 15 -26 8 -7 15 -20 15 -30 0 -10 11 -43
25 -74 25 -58 55 -138 101 -276 14 -41 29 -84 34 -95 5 -11 25 -78 45 -150 20
-71 40 -138 46 -147 5 -10 9 -27 9 -37 0 -11 7 -46 16 -78 9 -32 20 -76 24
-98 12 -60 31 -119 41 -129 5 -6 9 -18 9 -27 0 -21 81 -178 117 -227 146 -198
335 -341 539 -411 32 -11 115 -34 184 -51 69 -17 141 -35 160 -40 19 -5 46
-12 60 -15 131 -30 565 -180 698 -241 29 -13 55 -24 58 -24 14 0 385 -182 509
-250 213 -116 207 -113 485 -292 24 -16 56 -31 70 -35 14 -3 30 -9 35 -13 6
-4 37 -16 70 -27 232 -80 468 -80 690 -1 104 37 159 65 241 120 39 26 74 48
79 48 4 0 22 10 39 23 17 13 38 27 46 31 8 4 53 29 100 55 47 27 159 87 250
134 91 46 179 92 195 100 59 32 202 96 325 146 69 29 134 56 145 61 11 5 49
18 85 30 36 11 94 31 130 44 87 32 256 84 311 95 24 5 87 20 139 34 52 14 120
32 151 40 133 36 238 83 350 158 81 54 231 205 286 286 51 77 128 236 137 283
4 19 11 44 16 55 4 11 25 92 45 179 37 155 53 214 101 364 13 40 24 80 24 90
0 10 4 22 9 27 4 6 25 57 45 115 21 58 43 119 51 135 7 17 32 75 55 130 42 99
182 396 201 425 5 8 13 24 18 35 5 11 37 70 71 130 35 61 71 126 81 145 11 19
51 85 90 145 81 125 166 296 185 370 57 221 67 328 40 419 -8 27 -13 53 -10
60 2 6 -9 58 -26 115 -31 104 -97 241 -167 349 -21 31 -42 64 -48 73 -5 9 -27
48 -47 86 -20 39 -43 77 -50 85 -7 7 -37 61 -66 118 -137 267 -161 317 -171
340 -6 14 -15 32 -20 40 -5 8 -16 31 -24 50 -15 38 -91 217 -112 265 -8 17
-28 71 -45 120 -18 50 -38 104 -45 120 -7 17 -24 68 -38 115 -14 47 -35 117
-46 155 -12 39 -37 138 -57 220 -20 83 -39 159 -44 170 -4 11 -13 40 -20 65
-7 25 -27 74 -45 110 -18 36 -36 72 -39 80 -4 8 -19 34 -34 56 -139 211 -308
345 -542 433 -41 15 -118 38 -170 50 -52 12 -125 31 -161 42 -36 11 -95 25
-130 33 -35 7 -75 18 -89 24 -14 6 -90 31 -170 57 -209 68 -360 128 -630 252
-30 13 -62 29 -70 33 -8 5 -69 36 -135 69 -66 34 -147 77 -180 96 -33 19 -78
45 -100 56 -55 28 -179 104 -262 160 -62 42 -106 66 -215 113 -21 9 -68 24
-105 32 -37 9 -78 20 -91 25 -30 12 -326 9 -377 -3z m535 -731 c30 -2 71 -6
90 -10 19 -5 67 -12 105 -17 123 -16 318 -56 415 -85 30 -9 75 -21 100 -26 25
-6 59 -16 75 -24 17 -7 55 -20 85 -30 64 -19 80 -25 141 -54 25 -11 51 -21 57
-21 9 0 51 -19 92 -42 8 -4 22 -11 30 -14 8 -3 23 -10 33 -15 46 -25 96 -50
137 -68 25 -12 52 -25 60 -30 8 -6 74 -45 145 -87 72 -43 144 -89 161 -103 18
-14 58 -44 90 -66 239 -165 572 -493 781 -770 154 -205 332 -516 428 -750 20
-49 43 -103 50 -120 59 -127 166 -528 194 -722 5 -34 12 -67 16 -74 5 -6 9
-45 11 -86 2 -40 7 -99 12 -131 15 -89 6 -578 -12 -712 -33 -246 -61 -404 -77
-432 -5 -10 -9 -26 -9 -35 0 -18 -35 -150 -50 -188 -4 -11 -31 -87 -60 -170
-29 -82 -65 -177 -80 -210 -15 -33 -33 -78 -41 -100 -7 -22 -18 -47 -25 -55
-6 -8 -24 -40 -38 -70 -15 -30 -44 -83 -64 -117 -20 -34 -59 -99 -85 -143 -27
-45 -76 -120 -110 -166 -34 -47 -69 -95 -77 -108 -56 -83 -339 -395 -441 -486
-40 -35 -88 -80 -108 -98 -20 -19 -61 -51 -91 -72 -30 -21 -66 -50 -79 -64
-14 -14 -29 -26 -36 -26 -6 0 -24 -12 -41 -27 -36 -33 -179 -130 -249 -169
-27 -15 -63 -35 -80 -45 -16 -10 -52 -29 -80 -44 -27 -14 -57 -30 -65 -35 -8
-5 -42 -21 -75 -36 -33 -14 -83 -37 -111 -50 -28 -13 -56 -24 -61 -24 -6 0
-16 -7 -23 -15 -7 -8 -21 -15 -31 -15 -11 0 -27 -4 -37 -9 -9 -6 -42 -17 -72
-27 -30 -9 -68 -22 -85 -29 -28 -11 -109 -36 -210 -65 -45 -12 -160 -38 -220
-49 -22 -4 -50 -13 -63 -20 -12 -6 -27 -9 -32 -6 -5 3 -37 0 -72 -6 -80 -15
-99 -16 -348 -29 -145 -8 -268 -8 -415 0 -116 6 -221 11 -235 12 -14 0 -59 6
-100 13 -41 7 -84 13 -95 13 -11 0 -33 4 -50 10 -16 6 -75 21 -130 32 -55 12
-113 26 -130 30 -81 23 -183 55 -210 65 -16 7 -55 20 -85 29 -30 10 -62 21
-70 25 -8 4 -71 32 -140 61 -69 29 -134 59 -145 67 -11 7 -27 13 -37 13 -10 0
-18 3 -18 8 0 4 -24 18 -52 31 -29 14 -60 30 -68 36 -8 7 -44 28 -80 47 -83
44 -172 102 -188 121 -7 8 -24 18 -37 21 -14 4 -25 11 -25 16 0 5 -20 21 -44
35 -23 14 -52 35 -62 46 -10 12 -39 35 -64 52 -25 16 -61 45 -80 63 -19 18
-73 66 -120 107 -79 69 -302 307 -395 421 -110 134 -323 462 -381 586 -8 19
-37 80 -64 135 -61 127 -69 148 -115 275 -20 58 -41 114 -46 125 -17 40 -92
312 -110 405 -58 288 -71 425 -71 755 0 279 7 375 42 590 17 105 91 418 113
475 3 8 21 63 41 122 20 59 40 116 45 125 18 35 81 192 81 202 0 5 18 41 40
80 22 39 40 73 40 77 0 27 288 484 325 514 8 7 15 17 15 22 0 36 404 462 553
582 32 26 66 54 75 62 31 28 167 129 222 165 208 138 232 153 355 215 28 14
57 30 65 35 8 5 31 16 50 25 19 8 67 30 105 49 39 18 81 36 95 40 14 4 30 11
35 15 6 4 19 10 30 13 11 3 65 22 120 42 149 54 355 112 455 129 14 3 52 9 85
16 33 6 94 15 135 20 41 5 94 14 117 20 23 5 48 8 55 5 7 -3 47 -1 88 4 64 8
437 6 610 -2z"/>
<path d="M2320 5769 c-30 -5 -92 -27 -136 -49 -100 -49 -166 -116 -220 -227
-35 -70 -39 -86 -42 -174 -3 -76 0 -108 14 -146 9 -26 21 -52 26 -57 4 -6 8
-16 8 -23 0 -18 81 -128 111 -152 34 -27 133 -79 182 -96 69 -24 233 -20 309
8 99 36 146 70 154 112 13 69 -47 87 -127 37 -62 -39 -111 -50 -209 -48 -69 2
-96 7 -142 30 -70 33 -136 98 -172 171 -27 52 -28 61 -24 162 l4 108 43 63
c63 92 133 136 253 162 48 11 66 10 125 -4 37 -10 92 -31 122 -47 73 -39 105
-38 122 2 10 27 10 36 -2 58 -18 31 -144 97 -202 105 -93 13 -145 14 -197 5z"/>
<path d="M3260 5728 c-10 -11 -35 -66 -55 -121 -20 -56 -41 -111 -46 -122 -19
-45 -69 -177 -103 -275 -20 -58 -43 -117 -51 -132 -8 -14 -15 -32 -15 -40 0
-8 -10 -34 -21 -58 -27 -56 -36 -115 -19 -135 7 -8 28 -15 46 -15 28 0 38 6
54 32 11 18 22 45 26 61 3 15 12 40 20 55 8 15 14 32 14 39 0 26 43 33 198 33
130 0 162 -3 172 -15 7 -8 25 -52 41 -96 36 -102 43 -111 88 -107 60 5 62 34
12 175 -23 65 -46 127 -51 138 -14 32 -62 157 -71 185 -4 14 -19 54 -32 90
-14 36 -41 108 -60 160 -52 140 -62 157 -98 162 -22 4 -36 -1 -49 -14z m70
-280 c62 -166 82 -227 84 -248 l1 -25 -115 0 -115 0 3 34 c2 29 13 63 52 156
5 11 12 31 15 45 10 37 33 70 49 70 8 0 19 -15 26 -32z"/>
<path d="M3897 5744 c-10 -3 -22 -17 -28 -30 -5 -15 -9 -204 -9 -439 0 -454
-1 -445 59 -445 49 0 54 16 52 183 -1 85 3 159 8 167 7 10 33 16 90 18 69 4
87 1 137 -22 71 -32 107 -79 98 -125 -7 -33 11 -120 32 -163 20 -39 83 -57
119 -34 32 21 33 61 1 91 -19 18 -25 36 -31 96 -9 89 -26 133 -68 177 l-31 32
36 38 c47 49 66 89 74 154 12 106 -40 212 -134 269 l-56 34 -165 2 c-91 1
-174 -1 -184 -3z m308 -123 c99 -35 141 -131 95 -219 -38 -72 -48 -77 -187
-81 -98 -2 -127 0 -134 10 -11 17 -12 269 -1 285 17 28 154 30 227 5z"/>
<path d="M5721 5731 c-21 -21 -21 -30 -21 -444 0 -398 1 -425 18 -440 16 -15
50 -17 270 -17 l252 0 17 26 c15 24 15 29 2 53 l-15 26 -207 5 c-170 4 -209 8
-217 20 -14 23 -13 233 2 248 8 8 62 12 175 12 161 0 164 0 188 25 30 29 32
54 5 83 -20 21 -29 22 -188 22 -117 0 -172 4 -180 12 -8 8 -12 50 -12 123 0
165 -14 156 231 154 184 -1 201 0 214 17 18 24 19 45 1 70 -13 18 -30 19 -265
22 -241 3 -250 3 -270 -17z"/>
<path d="M6474 5743 c-33 -6 -48 -50 -29 -79 8 -13 21 -24 28 -25 6 0 64 -2
126 -2 114 -2 115 -2 122 -27 4 -14 7 -186 8 -383 1 -226 5 -365 11 -378 14
-25 71 -26 93 -1 15 16 17 63 19 403 l3 384 128 1 c74 0 132 5 138 11 6 6 9
28 7 49 -2 31 -8 40 -28 45 -26 7 -590 9 -626 2z"/>
<path d="M4752 5728 c-9 -9 -12 -122 -12 -445 l0 -433 24 -15 c28 -18 69 -7
80 22 4 10 6 145 5 301 -1 192 2 287 9 294 13 13 50 -23 102 -100 35 -52 147
-208 195 -272 14 -19 48 -66 75 -105 87 -122 117 -154 142 -148 49 12 48 0 48
447 0 365 -2 425 -16 444 -19 27 -48 28 -74 2 -19 -19 -20 -33 -20 -309 0
-194 -4 -292 -11 -296 -14 -10 -45 20 -92 90 -22 33 -44 62 -47 65 -4 3 -14
19 -23 35 -8 17 -24 39 -36 49 -12 11 -21 23 -21 28 0 7 -159 226 -236 326
-26 34 -69 43 -92 20z"/>
<path d="M4520 4274 c-35 -5 -54 -11 -120 -43 -85 -40 -140 -119 -140 -200 0
-61 41 -146 81 -166 14 -8 31 -21 38 -29 13 -16 120 -52 196 -67 141 -27 208
-57 243 -109 30 -45 28 -78 -10 -129 -44 -60 -115 -91 -207 -91 -80 0 -131 16
-221 69 -89 53 -105 56 -129 32 -12 -12 -21 -28 -21 -36 0 -45 162 -143 275
-166 172 -34 351 36 416 163 27 53 26 148 -3 199 -48 86 -166 146 -358 183
-73 14 -122 36 -162 74 -22 20 -28 35 -28 68 0 36 5 46 44 82 54 50 77 57 182
57 84 0 104 -6 203 -67 25 -16 48 -28 53 -28 10 0 58 49 58 60 0 17 -58 65
-106 89 -27 13 -60 29 -74 36 -27 14 -154 25 -210 19z"/>
</g>
</svg>
