<?xml version="1.0" standalone="no"?>
<!DOCTYPE svg PUBLIC "-//W3C//DTD SVG 20010904//EN"
 "http://www.w3.org/TR/2001/REC-SVG-20010904/DTD/svg10.dtd">
<svg version="1.0" xmlns="http://www.w3.org/2000/svg"
 width="900.000000pt" height="894.000000pt" viewBox="0 0 900.000000 894.000000"
 preserveAspectRatio="xMidYMid meet">
<metadata>
Created by potrace 1.10, written by Peter Selinger 2001-2011
</metadata>
<g transform="translate(0.000000,894.000000) scale(0.100000,-0.100000)" stroke="none">
<path d="M4350 8864 c-181 -27 -316 -81 -496 -201 -50 -33 -104 -67 -120 -75
-16 -9 -78 -44 -139 -78 -60 -34 -119 -66 -130 -71 -11 -5 -27 -13 -35 -18 -8
-5 -62 -33 -120 -61 -58 -28 -112 -55 -120 -60 -36 -23 -349 -159 -460 -200
-19 -7 -48 -19 -65 -25 -62 -26 -246 -85 -390 -126 -38 -11 -78 -24 -87 -30
-10 -5 -26 -9 -35 -9 -10 0 -63 -12 -118 -26 -55 -14 -125 -31 -155 -38 -109
-25 -299 -121 -394 -200 -212 -175 -349 -408 -401 -681 -10 -49 -21 -98 -26
-107 -5 -10 -9 -25 -9 -33 0 -9 -6 -37 -14 -63 -86 -278 -163 -514 -187 -572
-15 -34 -32 -72 -68 -153 -17 -38 -31 -71 -31 -74 0 -3 -14 -36 -31 -72 -17
-36 -40 -86 -51 -111 -11 -25 -24 -52 -29 -60 -17 -29 -49 -99 -49 -106 0 -4
-6 -15 -14 -23 -12 -15 -63 -105 -123 -221 -13 -25 -31 -57 -41 -72 -9 -15
-39 -64 -67 -110 -27 -46 -64 -105 -83 -133 -18 -27 -46 -79 -63 -115 -17 -36
-35 -73 -40 -83 -13 -24 -34 -90 -55 -172 -25 -96 -25 -350 0 -450 20 -81 42
-147 55 -172 6 -10 18 -36 27 -58 15 -34 132 -237 199 -345 20 -31 74 -124
108 -185 55 -101 210 -419 282 -580 46 -105 125 -311 125 -328 0 -7 4 -17 8
-22 5 -6 19 -44 31 -85 13 -41 26 -82 31 -90 4 -9 11 -31 15 -50 4 -19 11 -41
15 -50 4 -8 18 -53 30 -100 12 -47 26 -96 30 -110 4 -14 16 -63 25 -110 42
-203 140 -410 251 -530 18 -19 43 -47 56 -61 100 -112 324 -242 488 -284 214
-55 420 -107 445 -115 81 -23 142 -42 160 -50 11 -5 40 -16 65 -24 121 -40
307 -110 378 -142 29 -13 59 -24 66 -24 7 0 19 -7 26 -15 7 -8 16 -15 21 -15
11 0 84 -32 162 -71 31 -16 64 -29 72 -29 8 0 15 -4 15 -8 0 -4 26 -20 58 -35
31 -15 93 -47 137 -72 44 -24 103 -55 131 -69 28 -14 57 -32 64 -41 7 -8 16
-15 21 -15 10 0 32 -14 174 -105 97 -64 139 -86 231 -124 88 -38 132 -49 269
-68 200 -28 409 9 614 109 46 23 95 51 110 63 22 18 109 71 259 156 17 11 49
29 70 41 64 37 529 268 540 268 5 0 15 6 21 14 6 8 24 16 39 19 22 4 232 86
327 128 11 4 52 18 90 30 39 12 75 25 80 29 6 4 21 10 35 13 14 3 81 21 150
41 159 47 179 52 270 72 41 9 79 21 85 25 5 5 19 9 32 9 49 0 212 66 303 122
80 49 183 133 236 191 49 55 174 229 174 243 0 3 14 35 30 71 17 36 35 84 41
107 22 86 41 162 49 201 15 74 42 180 50 200 11 26 46 145 62 210 6 28 17 57
24 65 6 8 15 29 18 45 7 26 28 85 83 230 9 22 26 64 39 93 13 29 24 55 24 59
0 21 248 517 320 638 32 55 76 132 98 171 22 39 59 98 81 131 65 98 139 261
166 366 21 83 25 119 25 248 0 130 -4 164 -26 247 -30 115 -105 271 -208 437
-41 66 -92 152 -112 190 -20 39 -40 75 -44 80 -5 6 -54 100 -110 210 -56 110
-106 204 -111 209 -5 6 -9 16 -9 24 0 7 -13 39 -29 72 -16 32 -32 69 -36 82
-4 12 -17 46 -30 73 -28 63 -44 106 -90 230 -20 55 -40 109 -44 120 -16 41
-43 129 -57 184 -8 31 -21 72 -28 91 -8 19 -29 98 -46 175 -17 77 -37 158 -45
180 -7 22 -16 52 -19 68 -8 34 -70 166 -110 232 -37 61 -130 177 -183 226 -72
68 -274 199 -307 199 -7 0 -16 4 -22 10 -12 12 -130 50 -155 50 -11 0 -27 4
-37 9 -9 5 -46 16 -82 25 -36 8 -96 22 -135 32 -38 9 -88 22 -110 29 -22 6
-60 18 -85 25 -73 22 -209 67 -300 101 -47 17 -103 36 -125 43 -22 7 -62 22
-88 34 -27 12 -51 22 -53 22 -3 0 -52 23 -110 50 -58 28 -111 50 -118 50 -6 0
-16 4 -22 10 -5 5 -75 43 -154 83 -201 102 -342 178 -361 193 -8 8 -19 14 -23
14 -4 0 -19 8 -34 19 -255 177 -417 249 -617 277 -118 16 -180 16 -295 -2z
m530 -745 c36 -6 88 -12 115 -14 106 -10 272 -40 315 -57 14 -6 62 -16 105
-21 57 -8 385 -119 520 -177 107 -46 120 -52 135 -60 28 -17 158 -80 164 -80
3 0 56 -31 118 -68 62 -38 124 -75 138 -83 14 -8 46 -30 72 -49 25 -19 59 -43
75 -52 101 -62 294 -228 465 -399 312 -311 502 -575 696 -964 86 -171 152
-323 152 -347 0 -8 4 -18 9 -24 4 -5 25 -63 45 -129 21 -66 41 -129 45 -140
13 -31 51 -198 51 -221 0 -11 3 -24 7 -28 14 -14 36 -149 51 -316 6 -58 14
-125 20 -150 11 -52 10 -559 -1 -577 -5 -7 -12 -59 -18 -115 -5 -57 -14 -130
-20 -163 -6 -33 -12 -78 -13 -101 -2 -23 -7 -47 -11 -55 -5 -7 -12 -31 -16
-54 -25 -136 -95 -364 -185 -595 -36 -91 -69 -172 -74 -180 -9 -14 -17 -30
-49 -100 -7 -14 -17 -34 -24 -45 -7 -11 -25 -42 -40 -70 -30 -56 -34 -62 -94
-157 -24 -37 -43 -71 -43 -76 0 -5 -10 -20 -21 -33 -12 -13 -32 -40 -45 -59
-112 -166 -254 -330 -458 -532 -104 -104 -193 -188 -197 -188 -4 0 -28 -17
-52 -37 -25 -21 -72 -58 -106 -83 -34 -25 -87 -64 -119 -87 -31 -23 -75 -52
-97 -64 -22 -12 -42 -25 -45 -28 -8 -10 -162 -98 -275 -156 -133 -69 -274
-132 -360 -162 -38 -13 -79 -28 -90 -32 -31 -14 -77 -29 -110 -36 -16 -4 -43
-13 -60 -20 -16 -7 -73 -23 -125 -34 -52 -12 -111 -26 -130 -31 -101 -26 -171
-40 -220 -45 -62 -6 -98 -10 -220 -26 -115 -15 -621 -14 -735 1 -49 7 -135 18
-190 25 -55 8 -131 21 -170 30 -38 9 -99 22 -135 30 -75 16 -150 37 -165 46
-5 4 -26 10 -45 14 -149 29 -610 234 -820 364 -14 9 -41 25 -59 36 -18 11 -52
35 -76 53 -24 17 -46 32 -50 32 -3 0 -42 28 -86 63 -45 34 -93 71 -108 82 -53
39 -158 129 -221 190 -85 80 -324 332 -353 372 -12 17 -40 53 -62 80 -61 76
-225 317 -225 330 0 3 -6 14 -14 22 -24 27 -180 325 -222 426 -61 144 -131
342 -164 460 -12 44 -26 88 -31 97 -5 10 -9 29 -9 42 0 14 -5 37 -11 53 -12
30 -34 154 -50 273 -5 41 -12 82 -15 90 -11 27 -17 168 -17 450 -1 353 1 378
56 695 14 84 17 96 72 290 30 108 67 218 106 319 22 54 39 102 39 107 0 24
217 447 246 480 8 8 14 19 14 23 0 13 163 251 225 329 22 27 50 63 62 79 27
38 226 248 334 355 95 92 415 353 434 353 3 0 26 15 50 33 24 17 58 41 76 52
18 11 40 25 49 30 75 48 375 201 464 236 28 12 55 24 61 29 13 10 310 110 328
110 8 0 20 7 27 15 7 9 19 14 27 11 7 -3 26 -1 41 5 15 6 56 17 92 24 36 8 97
21 135 30 111 25 338 55 495 64 165 10 523 4 620 -10z"/>
<path d="M2265 5791 c-3 -6 -17 -11 -31 -11 -13 0 -52 -14 -86 -31 -167 -84
-280 -276 -265 -449 21 -238 182 -404 432 -449 82 -15 187 5 288 54 42 20 79
40 81 44 11 16 15 77 7 90 -17 26 -72 23 -113 -6 -56 -38 -135 -63 -186 -57
-24 2 -51 0 -61 -6 -12 -6 -24 -5 -37 4 -10 7 -41 21 -69 31 -68 25 -151 105
-186 180 -24 49 -29 73 -29 134 0 82 15 146 42 175 10 11 18 23 18 28 0 4 14
24 32 43 39 45 133 94 213 111 74 16 159 0 244 -46 70 -38 117 -40 133 -5 20
44 0 74 -71 113 -35 19 -82 40 -105 45 -62 15 -243 20 -251 8z"/>
<path d="M3888 5774 c-14 -3 -31 -11 -37 -18 -7 -8 -11 -157 -11 -441 l-1
-429 26 -25 c24 -25 27 -25 53 -11 l27 16 3 169 c2 120 6 171 15 177 6 4 51 8
99 8 161 0 218 -45 228 -184 8 -96 29 -141 77 -164 31 -15 37 -15 61 -1 35 19
41 63 12 93 -15 17 -24 48 -34 115 -13 87 -33 137 -63 154 -22 13 -15 57 16
96 67 85 80 191 36 286 -31 64 -69 104 -131 135 -41 20 -63 23 -198 25 -83 2
-163 1 -178 -1z m305 -128 c114 -51 140 -188 50 -267 l-34 -30 -127 3 -127 3
-3 139 c-3 175 -2 176 108 176 60 0 90 -5 133 -24z"/>
<path d="M5723 5769 c-13 -5 -23 -14 -23 -21 0 -7 0 -206 -1 -443 0 -428 0
-430 22 -447 19 -16 47 -18 256 -18 l234 0 24 25 c32 31 32 58 -1 84 -25 20
-40 21 -225 21 l-199 0 0 134 c0 113 2 135 16 140 9 3 87 6 175 6 146 0 161 2
179 20 11 11 20 33 20 48 0 44 -30 52 -205 52 -84 0 -160 3 -169 6 -14 5 -16
28 -16 144 l0 138 26 6 c15 4 107 6 206 5 159 -1 181 0 198 16 27 25 25 50 -6
74 -25 20 -38 21 -258 20 -127 -1 -241 -5 -253 -10z"/>
<path d="M6480 5773 c-30 -5 -50 -29 -50 -59 0 -41 22 -48 152 -45 92 2 123
-1 129 -11 5 -7 9 -182 9 -389 l0 -375 29 -28 c31 -29 57 -30 81 -1 9 11 13
115 14 400 1 331 3 387 16 396 9 6 65 9 132 7 77 -2 121 1 128 8 6 6 10 29 8
50 -2 31 -8 40 -28 45 -27 8 -578 9 -620 2z"/>
<path d="M3228 5753 c-9 -10 -32 -65 -52 -123 -20 -58 -43 -117 -51 -132 -8
-14 -15 -35 -15 -45 0 -10 -4 -23 -9 -28 -5 -6 -25 -57 -46 -115 -20 -58 -41
-113 -46 -122 -5 -10 -9 -26 -9 -37 0 -10 -7 -24 -15 -31 -8 -7 -17 -28 -21
-49 -4 -20 -10 -40 -14 -46 -17 -25 -41 -107 -38 -130 2 -16 14 -33 30 -42 24
-15 28 -15 51 0 14 9 34 40 47 74 12 32 26 67 30 78 5 11 10 29 12 40 3 19 12
20 182 23 113 1 183 -1 191 -8 7 -6 16 -23 19 -38 17 -70 53 -146 78 -165 26
-19 28 -19 53 -3 48 31 50 21 -45 276 -23 63 -46 124 -50 135 -29 69 -39 95
-55 140 -21 60 -82 222 -95 250 -5 11 -12 31 -16 45 -14 49 -35 70 -69 70 -18
0 -39 -8 -47 -17z m70 -270 c6 -16 23 -59 37 -98 14 -38 33 -85 41 -103 19
-45 18 -80 -3 -86 -38 -10 -190 -5 -206 7 -16 11 -15 19 12 95 15 45 31 85 34
89 4 3 7 13 7 20 0 26 40 103 54 103 7 0 18 -12 24 -27z"/>
<path d="M4745 5753 c-9 -9 -20 -26 -24 -37 -5 -12 -8 -202 -7 -423 l1 -403
27 -27 c24 -23 30 -25 53 -15 14 6 30 23 35 38 6 14 10 148 10 310 0 268 1
284 18 284 12 0 36 -27 66 -72 93 -141 384 -536 411 -558 21 -17 58 2 74 37
14 31 14 803 0 840 -5 13 -20 29 -35 35 -24 11 -29 9 -56 -21 l-30 -33 3 -282
c3 -252 1 -281 -13 -284 -19 -4 -21 -2 -106 119 -37 52 -77 108 -90 125 -37
48 -165 226 -197 274 -41 64 -86 110 -106 110 -10 0 -25 -7 -34 -17z"/>
<path d="M4440 4326 c-17 -21 -18 -852 -1 -884 12 -22 14 -22 264 -22 139 0
257 4 263 8 19 12 32 44 26 64 -8 32 -45 38 -243 38 l-189 0 -11 27 c-6 17 -9
163 -8 392 1 341 0 365 -17 378 -24 17 -69 17 -84 -1z"/>
</g>
</svg>
