<?xml version="1.0" encoding="utf-8"?>
<!-- Generator: Adobe Illustrator 17.0.0, SVG Export Plug-In . SVG Version: 6.00 Build 0)  -->
<!DOCTYPE svg PUBLIC "-//W3C//DTD SVG 1.1//EN" "http://www.w3.org/Graphics/SVG/1.1/DTD/svg11.dtd">
<svg version="1.1" id="Layer_1" xmlns="http://www.w3.org/2000/svg" xmlns:xlink="http://www.w3.org/1999/xlink" x="0px" y="0px"
	 width="390.777px" height="390.777px" viewBox="-198.812 -253.5 390.777 390.777"
	 enable-background="new -198.812 -253.5 390.777 390.777" xml:space="preserve">
<g>
	<g>
		<path d="M-3.424-212.686c-85.103,0-154.574,69.471-154.574,154.574S-88.526,96.462-3.424,96.462S151.15,26.991,151.15-58.112
			S81.679-212.686-3.424-212.686z M-3.424,88.647c-81.195,0-146.758-65.564-146.758-146.758S-84.618-204.87-3.424-204.87
			s146.758,65.564,146.758,146.758S77.771,88.647-3.424,88.647z M-3.424-212.686c-85.103,0-154.574,69.471-154.574,154.574
			S-88.526,96.462-3.424,96.462S151.15,26.991,151.15-58.112S81.679-212.686-3.424-212.686z M-3.424,88.647
			c-81.195,0-146.758-65.564-146.758-146.758S-84.618-204.87-3.424-204.87s146.758,65.564,146.758,146.758
			S77.771,88.647-3.424,88.647z M-3.424-212.686c-85.103,0-154.574,69.471-154.574,154.574S-88.526,96.462-3.424,96.462
			S151.15,26.991,151.15-58.112S81.679-212.686-3.424-212.686z M-3.424,88.647c-81.195,0-146.758-65.564-146.758-146.758
			S-84.618-204.87-3.424-204.87s146.758,65.564,146.758,146.758S77.771,88.647-3.424,88.647z M-3.424-212.686
			c-85.103,0-154.574,69.471-154.574,154.574S-88.526,96.462-3.424,96.462S151.15,26.991,151.15-58.112
			S81.679-212.686-3.424-212.686z M-3.424,88.647c-81.195,0-146.758-65.564-146.758-146.758S-84.618-204.87-3.424-204.87
			s146.758,65.564,146.758,146.758S77.771,88.647-3.424,88.647z M-3.424-212.686c-85.103,0-154.574,69.471-154.574,154.574
			S-88.526,96.462-3.424,96.462S151.15,26.991,151.15-58.112S81.679-212.686-3.424-212.686z M-3.424,88.647
			c-81.195,0-146.758-65.564-146.758-146.758S-84.618-204.87-3.424-204.87s146.758,65.564,146.758,146.758
			S77.771,88.647-3.424,88.647z M-3.424-212.686c-85.103,0-154.574,69.471-154.574,154.574S-88.526,96.462-3.424,96.462
			S151.15,26.991,151.15-58.112S81.679-212.686-3.424-212.686z M-3.424,88.647c-81.195,0-146.758-65.564-146.758-146.758
			S-84.618-204.87-3.424-204.87s146.758,65.564,146.758,146.758S77.771,88.647-3.424,88.647z M186.754-73.308
			c-10.855-13.894-13.894-27.789-9.552-44.288c3.039-11.289-2.171-22.578-12.158-28.223c-13.894-7.816-21.71-19.105-23.881-34.736
			c-1.303-11.289-10.421-20.407-22.144-22.144c-15.631-2.171-26.92-9.552-34.736-23.881c-5.645-9.987-17.368-15.197-28.223-12.158
			c-16.499,4.342-30.394,1.303-44.288-9.552c-8.684-6.947-21.276-6.947-30.394,0c-13.894,10.855-28.223,13.894-44.288,9.552
			c-11.289-3.039-22.578,2.171-28.223,12.158c-7.816,13.894-19.105,21.71-34.736,23.881c-11.289,1.303-20.407,10.421-22.144,22.144
			c-2.171,15.631-9.552,26.92-23.881,34.736c-9.987,5.645-15.197,17.368-12.158,28.223c4.342,16.499,1.303,30.394-9.552,44.288
			c-6.947,8.684-6.947,21.71,0,30.394c10.855,13.894,13.894,28.223,9.552,44.288c-3.039,11.289,2.171,22.578,12.158,28.223
			c13.894,7.816,21.71,19.105,23.881,34.736c1.303,11.289,10.421,20.407,22.144,22.144c15.631,2.171,26.92,9.552,34.736,23.881
			c5.645,9.987,17.368,15.197,28.223,12.158c16.499-4.342,30.394-1.303,44.288,9.552c8.684,6.947,21.276,6.947,30.394,0
			c13.894-10.855,28.223-13.894,44.288-9.552c11.289,3.039,22.578-2.171,28.223-12.158c7.816-13.894,19.105-21.71,34.736-23.881
			c11.289-1.303,20.407-10.421,22.144-22.144c2.171-15.631,9.552-26.92,23.881-34.736c9.987-5.645,15.197-17.368,12.158-28.223
			c-4.342-16.499-1.303-30.394,9.552-44.288C193.701-51.599,193.701-64.625,186.754-73.308z M-3.424,104.712
			c-89.879,0-162.824-72.945-162.824-162.824S-93.302-220.935-3.424-220.935S159.4-147.99,159.4-58.112
			S86.455,104.712-3.424,104.712z M-3.424-212.686c-85.103,0-154.574,69.471-154.574,154.574S-88.526,96.462-3.424,96.462
			S151.15,26.991,151.15-58.112S81.679-212.686-3.424-212.686z M-3.424,88.647c-81.195,0-146.758-65.564-146.758-146.758
			S-84.618-204.87-3.424-204.87s146.758,65.564,146.758,146.758S77.771,88.647-3.424,88.647z M-3.424-212.686
			c-85.103,0-154.574,69.471-154.574,154.574S-88.526,96.462-3.424,96.462S151.15,26.991,151.15-58.112
			S81.679-212.686-3.424-212.686z M-3.424,88.647c-81.195,0-146.758-65.564-146.758-146.758S-84.618-204.87-3.424-204.87
			s146.758,65.564,146.758,146.758S77.771,88.647-3.424,88.647z M-3.424-212.686c-85.103,0-154.574,69.471-154.574,154.574
			S-88.526,96.462-3.424,96.462S151.15,26.991,151.15-58.112S81.679-212.686-3.424-212.686z M-3.424,88.647
			c-81.195,0-146.758-65.564-146.758-146.758S-84.618-204.87-3.424-204.87s146.758,65.564,146.758,146.758
			S77.771,88.647-3.424,88.647z M-3.424-212.686c-85.103,0-154.574,69.471-154.574,154.574S-88.526,96.462-3.424,96.462
			S151.15,26.991,151.15-58.112S81.679-212.686-3.424-212.686z M-3.424,88.647c-81.195,0-146.758-65.564-146.758-146.758
			S-84.618-204.87-3.424-204.87s146.758,65.564,146.758,146.758S77.771,88.647-3.424,88.647z M-3.424-212.686
			c-85.103,0-154.574,69.471-154.574,154.574S-88.526,96.462-3.424,96.462S151.15,26.991,151.15-58.112
			S81.679-212.686-3.424-212.686z M-3.424,88.647c-81.195,0-146.758-65.564-146.758-146.758S-84.618-204.87-3.424-204.87
			s146.758,65.564,146.758,146.758S77.771,88.647-3.424,88.647z"/>
	</g>
	<g>
		<path d="M-3.424-212.686c-85.103,0-154.574,69.471-154.574,154.574S-88.526,96.462-3.424,96.462S151.15,26.991,151.15-58.112
			S81.679-212.686-3.424-212.686z M-3.424,88.647c-81.195,0-146.758-65.564-146.758-146.758S-84.618-204.87-3.424-204.87
			s146.758,65.564,146.758,146.758S77.771,88.647-3.424,88.647z"/>
	</g>
	<g>
		<path d="M-3.424-212.686c-85.103,0-154.574,69.471-154.574,154.574S-88.526,96.462-3.424,96.462S151.15,26.991,151.15-58.112
			S81.679-212.686-3.424-212.686z M-3.424,88.647c-81.195,0-146.758-65.564-146.758-146.758S-84.618-204.87-3.424-204.87
			s146.758,65.564,146.758,146.758S77.771,88.647-3.424,88.647z"/>
	</g>
</g>
<g>
	<path d="M-119.557-96.281c0.062-12.019,10.136-21.79,22.277-21.852c5.34,0,10.195,1.759,14.018,4.735
		c1.458,1.213,1.7,3.338,0.608,4.856c-1.213,1.517-3.459,1.759-4.856,0.667c-2.671-2.184-6.01-3.338-9.77-3.338
		c-4.188,0-8.073,1.7-10.927,4.371c-2.73,2.792-4.431,6.432-4.431,10.561c0,4.127,1.7,7.89,4.431,10.559
		c2.854,2.671,6.739,4.371,10.927,4.371c3.761,0,7.04-1.154,9.77-3.338c1.396-1.033,3.642-0.788,4.856,0.667
		c1.092,1.517,0.85,3.702-0.608,4.856c-3.823,2.975-8.678,4.735-14.018,4.735C-109.421-74.432-119.495-84.205-119.557-96.281z"/>
	<path d="M-50.136-84.447h-14.747l-2.975,7.89c-0.546,1.337-1.821,2.125-3.156,2.125
		c-0.425,0-0.791-0.062-1.154-0.183c-1.759-0.667-2.609-2.609-2.001-4.369l13.413-35.751c0.546-1.334,1.88-2.184,3.217-2.123
		c1.396-0.062,2.669,0.788,3.215,2.123l13.415,35.751c0.605,1.759-0.242,3.702-2.004,4.369c-0.304,0.121-0.726,0.183-1.151,0.183
		c-1.337,0-2.612-0.788-3.096-2.125L-50.136-84.447z M-52.624-91.124l-4.915-13.05l-4.917,13.05H-52.624z"/>
	<path d="M-4.506-79.47c0.608,1.762-0.363,3.642-2.125,4.25c-0.242,0.059-0.729,0.18-1.334,0.18c0,0,0,0-0.062,0
		c-0.605,0-1.517-0.121-2.367-0.667c-0.788-0.484-1.455-1.275-1.942-2.125c-0.85-1.759-1.273-3.944-1.273-7.282
		c-0.062-1.154-0.304-1.942-0.729-2.609c-0.366-0.667-1.092-1.275-1.821-1.762c-1.275-0.847-2.854-1.334-3.4-1.455h-7.161v13.171
		c0,1.821-1.517,3.338-3.398,3.338c-1.883,0-3.338-1.517-3.338-3.338v-35.81c0-1.88,1.455-3.338,3.338-3.338c0,0,0,0,0.059,0h10.803
		c7.223,0,12.99,5.827,12.99,13.05c0,4.006-1.821,7.527-4.735,9.953c0.788,0.608,1.517,1.337,2.123,2.246
		c1.216,1.762,2.004,4.006,2.004,6.556c-0.062,1.821,0.121,2.975,0.242,3.581C-5.66-81.23-4.869-80.501-4.506-79.47z
		 M-13.004-103.869c0-3.519-2.792-6.311-6.252-6.311h-7.465v12.504h7.465C-15.796-97.677-13.004-100.469-13.004-103.869z"/>
	<path d="M11.99-77.77c0,1.821-1.517,3.338-3.277,3.338c-1.88,0-3.338-1.517-3.338-3.338v-35.264c0,0,0,0,0-0.059
		c-0.062-1.033,0.425-2.125,1.334-2.792c1.52-1.033,3.583-0.729,4.613,0.729l19.605,27.13v-25.007c0-1.759,1.455-3.277,3.277-3.277
		c1.821,0,3.338,1.517,3.338,3.277v35.264c0,1.821-1.517,3.338-3.338,3.338c-0.971,0-1.88-0.484-2.488-1.213
		c-0.121-0.121-0.242-0.245-0.304-0.366L11.99-102.958V-77.77z"/>
	<path d="M48.156-77.77v-35.81c0-1.88,1.455-3.338,3.336-3.338h0.062c0,0,0,0,0.121,0H71.34
		c1.762,0,3.338,1.458,3.338,3.338c0,1.883-1.576,3.4-3.338,3.4H54.892v11.107h14.142c1.821,0,3.338,1.576,3.338,3.338
		c0,1.88-1.517,3.398-3.338,3.398H54.892v11.169H71.34c1.762,0,3.338,1.517,3.338,3.398c0,1.821-1.576,3.338-3.338,3.338H51.675
		c-0.121,0-0.121-0.062-0.121-0.062l-0.062,0.062C49.612-74.432,48.156-75.949,48.156-77.77z"/>
	<path d="M110.11-110.18h-9.649v32.41c0,1.88-1.458,3.338-3.338,3.338c-1.821,0-3.338-1.458-3.338-3.338v-32.41
		h-9.59c-1.88,0-3.338-1.579-3.338-3.4c0-1.88,1.458-3.338,3.338-3.338h25.916c1.821,0,3.338,1.458,3.338,3.338
		C113.448-111.76,111.931-110.18,110.11-110.18z"/>
	<path d="M-80.985-40.77v35.81c0,1.821-1.576,3.338-3.398,3.338c-1.883,0-3.338-1.517-3.338-3.338v-25.553
		l-8.74,12.14c-0.67,0.909-1.638,1.396-2.733,1.396h-0.059h-0.062c-1.092,0-2.123-0.487-2.792-1.396l-8.678-12.14v25.553
		c0,1.821-1.517,3.338-3.4,3.338c-1.819,0-3.336-1.517-3.336-3.338v-35.81c0-1.821,1.517-3.338,3.336-3.338c0.062,0,0.062,0,0.183,0
		c0.971,0,2.063,0.487,2.671,1.396l12.078,16.751l12.078-16.751c0.667-0.909,1.638-1.396,2.73-1.396c0,0,0,0,0.062,0
		C-82.561-44.046-80.985-42.591-80.985-40.77z"/>
	<path d="M-69.347-4.959v-35.81c0-1.88,1.458-3.338,3.338-3.338h0.062c0,0,0,0,0.121,0h19.665
		c1.762,0,3.338,1.458,3.338,3.338c0,1.883-1.576,3.4-3.338,3.4h-16.447v11.107h14.142c1.821,0,3.338,1.576,3.338,3.338
		c0,1.88-1.517,3.398-3.338,3.398h-14.142v11.169h16.447c1.762,0,3.338,1.517,3.338,3.398c0,1.821-1.576,3.338-3.338,3.338h-19.665
		c-0.121,0-0.121-0.062-0.121-0.062l-0.062,0.062C-67.889-1.621-69.347-3.138-69.347-4.959z"/>
	<path d="M-33.367-4.959v-35.81c0-1.88,1.458-3.338,3.338-3.338h7.164c11.713,0,21.182,9.531,21.182,21.184
		c0,11.775-9.469,21.303-21.182,21.303h-7.164C-31.909-1.621-33.367-3.138-33.367-4.959z M-26.628-8.357h3.763
		c8.011-0.062,14.446-6.496,14.446-14.567c0-7.952-6.435-14.446-14.446-14.446h-3.763V-8.357z"/>
	<path d="M7.652-40.77c0-1.88,1.458-3.338,3.338-3.338c1.821,0,3.4,1.458,3.4,3.338v35.81
		c0,1.88-1.579,3.338-3.4,3.338c-1.88,0-3.338-1.458-3.338-3.338V-40.77z"/>
	<path d="M43.337-1.621c-9.773,0-17.542-7.89-17.542-17.542V-40.77c0-1.88,1.458-3.338,3.338-3.338
		c1.821,0,3.398,1.458,3.398,3.338v21.607c0,5.95,4.858,10.806,10.806,10.806c6.007,0,10.803-4.856,10.803-10.806V-40.77
		c0-1.88,1.517-3.338,3.398-3.338c1.883,0,3.338,1.458,3.338,3.338v21.607C60.876-9.511,53.048-1.621,43.337-1.621z"/>
	<path d="M108.629-40.77v35.81c0,1.821-1.576,3.338-3.398,3.338c-1.883,0-3.338-1.517-3.338-3.338v-25.553
		l-8.74,12.14c-0.67,0.909-1.638,1.396-2.733,1.396H90.36h-0.062c-1.092,0-2.123-0.487-2.792-1.396l-8.678-12.14v25.553
		c0,1.821-1.517,3.338-3.4,3.338c-1.819,0-3.336-1.517-3.336-3.338v-35.81c0-1.821,1.517-3.338,3.336-3.338c0.062,0,0.062,0,0.183,0
		c0.971,0,2.063,0.487,2.671,1.396L90.36-25.961l12.078-16.751c0.667-0.909,1.638-1.396,2.73-1.396c0,0,0,0,0.062,0
		C107.052-44.046,108.629-42.591,108.629-40.77z"/>
</g>
</svg>
