<?xml version="1.0" encoding="utf-8"?>
<!-- Generator: Adobe Illustrator 17.0.0, SVG Export Plug-In . SVG Version: 6.00 Build 0)  -->
<!DOCTYPE svg PUBLIC "-//W3C//DTD SVG 1.1//EN" "http://www.w3.org/Graphics/SVG/1.1/DTD/svg11.dtd">
<svg version="1.1" id="Layer_1" xmlns="http://www.w3.org/2000/svg" xmlns:xlink="http://www.w3.org/1999/xlink" x="0px" y="0px"
	 width="172.752px" height="174.575px" viewBox="-695.927 61.911 172.752 174.575"
	 enable-background="new -695.927 61.911 172.752 174.575" xml:space="preserve">
<g id="Layer_1_1_">
</g>
<g>
	<g id="art">
		<path d="M-571.746,194.266c0.082,5.991,5.025,10.8,11.018,10.717c3.518-0.047,6.806-1.463,9.259-3.985
			c2.454-2.522,3.777-5.851,3.727-9.407l-0.042-66.629c2.359-5.46,7.114-8.589,13.2-8.932c3.604-0.202,6.951,0.923,9.655,2.926
			c-0.016-0.007-2.942-10.757-2.942-10.757s4.678-3.534,4.696-3.593c-2.931-2.899-6.949-4.632-11.353-4.384
			c-6.142,0.345-10.932,3.525-13.268,9.075l-0.012-19.191l-0.035-0.001c0.002-0.137,0.016-0.27,0.014-0.407
			c-0.061-4.432-1.951-8.704-5.187-11.722c-3.084-2.875-7.044-4.333-11.152-4.103c-8.273,0.465-13.84,6.179-14.787,14.825
			c-0.108,0.979-0.156,2.002-0.141,3.055l0.122,100.936c0.002,0.447,0.197,0.873,0.518,1.184c0.32,0.312,0.768,0.48,1.215,0.467
			c0.904-0.025,1.625-0.776,1.606-1.677c-0.068-4.857,1.289-8.738,3.877-11.275l0.018,12.877L-571.746,194.266z M-551.082,139.361
			c-2.644,3.673-6.706,5.778-11.645,6.056c-2.031,0.113-3.974-0.208-5.774-0.848l-0.06-44.615c0.005,0.006,0.012,0.015,0.019,0.021
			c2.081,2.023,4.825,3.116,7.729,3.077c3.873-0.054,7.33-1.796,9.706-4.502L-551.082,139.361z M-575.787,91.728
			c-0.123-8.686,4.291-14.129,11.806-14.551c3.198-0.179,6.291,0.964,8.71,3.22c2.579,2.404,4.087,5.811,4.136,9.347
			c0.077,5.417-4.243,9.878-9.642,9.998l-0.48-14.955c-0.029-0.902-0.775-1.614-1.675-1.602c-2.411,0.032-4.663,1.004-6.344,2.731
			c-1.612,1.656-2.504,3.821-2.545,6.119h-0.058l0.072,50.888c-1.507-1.001-2.824-2.272-3.921-3.728L-575.787,91.728z
			 M-564.108,99.065c-0.779-0.357-1.497-0.848-2.129-1.463c-1.448-1.407-2.261-3.296-2.287-5.314
			c-0.021-1.533,0.553-2.971,1.619-4.066c0.677-0.697,1.5-1.197,2.402-1.477L-564.108,99.065z M-575.709,155.242
			c1.101,1.437,2.419,2.696,3.922,3.681l0.024,18.271c-1.537,0.983-2.851,2.239-3.915,3.732L-575.709,155.242z M-568.431,194.296
			l-0.048-33.753c1.78,0.625,3.694,0.934,5.696,0.822c4.979-0.282,9.071-2.415,11.71-6.145l0.025,36.458
			c0.076,5.45-4.287,9.924-9.726,10c-4.143,0.056-7.565-3.247-7.662-7.382H-568.431z"/>
	</g>
	<g id="printer">
		<path d="M-599.657,188.347c0-11.491-9.349-20.839-20.841-20.839c-11.49,0-20.838,9.348-20.838,20.839
			c0,7.759,4.266,14.537,10.572,18.123l-4.91,27.845l7.015-3.835l5.275,6.006l2.553-14.477l2.552,14.476l5.278-6.005l7.016,3.835
			l-4.852-27.51C-604.199,203.316-599.657,196.354-599.657,188.347z M-603.092,194.841l-5.474-3.161
			c0.267-0.963,0.423-1.97,0.451-3.014l6.143,1.082C-602.104,191.53-602.491,193.236-603.092,194.841z M-601.902,188.347
			c0,0.05-0.008,0.102-0.008,0.154l-6.238-1.098c-0.079-1.037-0.281-2.04-0.6-2.991l6.143-1.085
			C-602.157,184.926-601.902,186.604-601.902,188.347z M-605.407,177.507c1.012,1.411,1.829,2.966,2.42,4.627l-6.226,1.102
			c-0.425-0.938-0.96-1.815-1.593-2.61L-605.407,177.507z M-620.498,199.394c-6.098,0-11.045-4.946-11.045-11.046
			c0-6.101,4.946-11.046,11.045-11.046c6.102,0,11.049,4.946,11.049,11.046C-609.45,194.448-614.396,199.394-620.498,199.394z
			 M-614.564,199.232l2.13,5.853c-1.548,0.746-3.212,1.285-4.963,1.577v-6.324C-616.401,200.08-615.449,199.713-614.564,199.232z
			 M-622.932,200.501l-2.131,5.855c-1.713-0.436-3.334-1.104-4.818-1.977l4.065-4.85
			C-624.909,199.963-623.947,200.299-622.932,200.501z M-606.154,176.51l-5.488,3.171c-0.714-0.733-1.521-1.366-2.396-1.901
			l4.02-4.793C-608.571,173.979-607.27,175.164-606.154,176.51z M-611.084,172.328l-4.065,4.848
			c-0.912-0.436-1.877-0.778-2.897-0.981l2.13-5.855C-614.196,170.781-612.574,171.451-611.084,172.328z M-622.356,169.845
			c0.611-0.061,1.232-0.094,1.858-0.094c1.151,0,2.269,0.119,3.361,0.321l-2.163,5.938c-0.394-0.041-0.793-0.06-1.199-0.06
			c-0.633,0-1.249,0.063-1.858,0.151C-622.356,176.102-622.356,169.845-622.356,169.845z M-623.596,170.028v6.324
			c-1.003,0.262-1.961,0.629-2.849,1.116l-2.13-5.852C-627.022,170.865-625.353,170.325-623.596,170.028z M-629.685,172.191
			l2.164,5.946c-0.845,0.582-1.609,1.271-2.283,2.039l-4.015-4.789C-632.604,174.136-631.208,173.061-629.685,172.191z
			 M-634.66,176.313l4.068,4.851c-0.589,0.829-1.077,1.729-1.45,2.691l-5.409-3.124
			C-636.726,179.126-635.786,177.641-634.66,176.313z M-637.918,181.891l5.479,3.166c-0.265,0.966-0.418,1.977-0.442,3.023
			l-6.144-1.086C-638.896,185.211-638.513,183.502-637.918,181.891z M-639.091,188.347c0-0.037,0.005-0.071,0.005-0.107l6.243,1.101
			c0.082,1.038,0.292,2.036,0.615,2.99l-6.147,1.083C-638.833,191.799-639.091,190.106-639.091,188.347z M-635.563,199.216
			c-1.015-1.403-1.834-2.951-2.427-4.613l6.231-1.1c0.428,0.934,0.961,1.804,1.596,2.597L-635.563,199.216z M-630.951,203.722
			c-1.445-0.983-2.746-2.167-3.86-3.507l5.487-3.167c0.714,0.723,1.521,1.35,2.394,1.881L-630.951,203.722z M-621.851,216.225
			l-2.784,15.792l-3.576-4.072l-4.759,2.602l4.079-23.133c1.805,0.798,3.742,1.344,5.77,1.601c0.969,0.133,2.364,0.167,2.512,0.168
			L-621.851,216.225z M-623.846,206.624l2.162-5.942c0.392,0.038,0.785,0.06,1.186,0.06c0.633,0,1.253-0.062,1.859-0.153v6.258
			c-0.612,0.062-1.23,0.093-1.859,0.093C-621.644,206.94-622.758,206.824-623.846,206.624z M-608.69,230.548l-4.759-2.602
			l-3.578,4.073l-2.784-15.793l1.258-7.132c2.042-0.19,3.999-0.678,5.829-1.416L-608.69,230.548z M-611.325,204.509l-2.164-5.944
			c0.843-0.577,1.603-1.262,2.276-2.022l4.015,4.784C-608.412,202.573-609.803,203.642-611.325,204.509z M-610.424,195.553
			c0.589-0.821,1.081-1.717,1.458-2.673l5.402,3.122c-0.723,1.6-1.664,3.083-2.792,4.402L-610.424,195.553z"/>
	</g>
	<g>
		<polygon points="-695.927,61.911 -695.927,216.924 -637.18,216.924 -636.475,212.922 -691.926,212.922 -691.926,65.912 
			-590.746,65.912 -590.746,212.922 -605.185,212.922 -604.479,216.924 -586.745,216.924 -586.745,61.911 		"/>
	</g>
</g>
<g>
	<rect x="-680.125" y="77.788" width="76" height="3"/>
</g>
<g>
	<rect x="-680.125" y="89.288" width="76" height="3"/>
</g>
<g>
	<rect x="-680.125" y="100.788" width="76" height="3"/>
</g>
<g>
	<rect x="-680.125" y="112.288" width="76" height="3"/>
</g>
<g>
	<rect x="-680.125" y="123.788" width="19.5" height="3"/>
</g>
</svg>
