<?xml version="1.0" encoding="utf-8"?>
<!-- Generator: Adobe Illustrator 17.0.0, SVG Export Plug-In . SVG Version: 6.00 Build 0)  -->
<!DOCTYPE svg PUBLIC "-//W3C//DTD SVG 1.1//EN" "http://www.w3.org/Graphics/SVG/1.1/DTD/svg11.dtd">
<svg version="1.1" id="Layer_1" xmlns="http://www.w3.org/2000/svg" xmlns:xlink="http://www.w3.org/1999/xlink" x="0px" y="0px"
	 width="169.512px" height="286.204px" viewBox="-375.399 -42.122 169.512 286.204"
	 enable-background="new -375.399 -42.122 169.512 286.204" xml:space="preserve">
<g>
	<g>
		<path fill="none" d="M-275.43-9.345l-10.987,3.927l0.538,1.823c2.85,9.681,6.469,19.405,13.576,24.97
			c1.788,1.4,4.893,2.025,7.176,2.025c0.929,0,1.711-0.103,2.324-0.303l1.801-0.593l-0.485-1.833
			c-0.412-1.556-1.581-2.544-3.457-4.027c-1.693-1.338-3.613-2.85-4.646-5.247c-1.061-2.459-4.597-11.04-5.522-18.261L-275.43-9.345
			z"/>
		<path fill="none" d="M-335.295-2.436v13.592h25.799l0.271-13.651l46.881-16.713c2.291-1.102,3.318-1.698,3.823-2.556l0.275-0.471
			v-10.724c0-1.992-1.619-3.613-3.609-3.613h-19.263l-57.161-0.619l-33.694,25.944l3.637,1.175c1.593,0.516,4.241,0.756,8.337,0.756
			c1.894,0,3.752-0.053,5.196-0.092c1.929-0.055,3.787-0.108,5.557-0.108c4.815,0,9.625,0.344,12.193,2.837
			C-335.888-5.548-335.297-4.12-335.295-2.436z"/>
		<path fill="none" d="M-274.04,152.736l-0.324-0.345c-3.947-4.217-6.211-10.133-6.211-16.229v-6.664l-0.013-0.17
			c-0.083-0.568-0.083-1.018-0.083-1.287V92.768c-10.694-6.085-26.751-21.338-26.751-38.634v-12.26h-32.898l-0.018,1.994
			c-0.018,2.049-0.047,6.019-0.047,10.586c0,4.903-3.635,11.191-7.482,17.85c-1.931,3.341-3.919,6.777-5.188,9.694
			c-3.178,7.316-4.053,16.152-4.194,17.849l-0.008,95.534c0,2.766,2.251,5.017,5.019,5.017h75.256l2.91-47.163L-274.04,152.736z"/>
		<path fill="none" d="M-301.589,21.088c0-2.764-2.249-5.013-5.015-5.013h-33.967c-2.766,0-5.017,2.249-5.017,5.013v15.867h43.999
			V21.088z"/>
		<path d="M-352.237,200.398c-2.768,0-5.019-2.251-5.019-5.017l0.008-95.534c0.141-1.697,1.016-10.533,4.194-17.849
			c1.269-2.917,3.257-6.353,5.188-9.694c3.847-6.659,7.482-12.947,7.482-17.85c0-4.567,0.029-8.537,0.047-10.586l0.018-1.994h32.898
			v12.26c0,17.297,16.058,32.55,26.751,38.634v-5.729c-9.701-6.339-21.841-19.363-21.841-32.907v-12.26h3.375
			c1.355,0,2.458-1.104,2.424-2.699l0.033-18.089c0-4.127-2.638-7.864-6.563-9.294l-1.355-0.493l0.212-10.292l13.319-4.762
			l1.106,3.685c2.786,9.038,6.701,19.114,14.619,25.316c3.807,2.978,12.134,3.988,15.892,1.674c2.387-1.465,3.422-3.994,2.839-6.938
			c-0.705-3.571-3.243-5.579-5.316-7.217c-1.346-1.065-2.617-2.069-3.153-3.32c-3.163-7.325-5.263-14.831-5.351-19.122l-0.029-1.448
			l10.262-3.658c3.758-1.805,6.868-3.654,6.868-7.997v-10.176c0-4.703-3.825-8.528-8.526-8.528h-19.236l-58.833-0.636L-375.36-14.85
			l-0.003,1.9c-0.238,2.554,0.748,4.225,1.617,5.176c2.717,2.976,8.097,3.387,13.507,3.387c1.801,0,3.666-0.053,5.638-0.106
			c1.493-0.041,3.326-0.092,5.145-0.092c4.172,0,6.646,0.261,8.019,0.851l1.22,0.521v14.278l-1.733,0.242
			c-4.882,0.684-8.561,4.889-8.561,9.783l0.043,17.401l-0.043,0.923c0,1.355,1.104,2.459,2.459,2.459h2.809l-0.018,2.029
			c-0.018,2.084-0.047,6.025-0.047,10.549c0,3.318-2.953,8.695-6.832,15.411c-1.99,3.444-4.047,7.003-5.428,10.17
			c-3.813,8.773-4.575,19.194-4.612,19.803v95.542c0,5.477,4.457,9.932,9.934,9.932h74.962l0.303-4.911H-352.237z M-269.59,11.397
			c1.033,2.397,2.953,3.909,4.646,5.247c1.876,1.483,3.045,2.471,3.457,4.027l0.485,1.833l-1.801,0.593
			c-0.613,0.2-1.395,0.303-2.324,0.303c-2.283,0-5.388-0.625-7.176-2.025c-7.107-5.565-10.726-15.289-13.576-24.97l-0.538-1.823
			l10.987-3.927l0.318,2.481C-274.187,0.357-270.651,8.938-269.59,11.397z M-349.246-9.516c-1.77,0-3.628,0.053-5.557,0.108
			c-1.444,0.039-3.302,0.092-5.196,0.092c-4.096,0-6.744-0.24-8.337-0.756l-3.637-1.175l33.694-25.944l57.161,0.619h19.263
			c1.99,0,3.609,1.621,3.609,3.613v10.724l-0.275,0.471c-0.505,0.858-1.532,1.454-3.823,2.556l-46.881,16.713l-0.271,13.651h-25.799
			V-2.436c-0.002-1.684-0.593-3.112-1.758-4.243C-339.621-9.172-344.431-9.516-349.246-9.516z M-345.588,36.955V21.088
			c0-2.764,2.251-5.013,5.017-5.013h33.967c2.766,0,5.015,2.249,5.015,5.013v15.867H-345.588z"/>
	</g>
	<path d="M-243.849,244.082c17.076,0,32.877-1.513,32.877-12.49c0-1.71-0.463-4.218-2.67-6.454l-0.284-0.288l-4.195-67.32
		l0.421-0.348c4.412-3.646,11.813-11.183,11.813-20.694v-31.547c0-6.806-8.051-10.367-12.367-10.367
		c-0.349,0-0.716,0.021-1.09,0.064l-1.053,0.121V64.768c0-6.012-4.362-10.904-9.724-10.904c-0.401,0-0.812,0.028-1.221,0.084
		l-1.071,0.145v-1.361c-0.002-5.987-4.366-10.858-9.729-10.858c-5.39,0-9.776,4.87-9.776,10.856v1.449l-1.101-0.19
		c-0.484-0.084-0.981-0.126-1.479-0.126c-5.363,0-9.726,4.868-9.726,10.852v1.406l-1.086-0.167c-0.452-0.07-0.908-0.105-1.353-0.105
		c-5.363,0-9.725,4.87-9.725,10.856v57.714c0,0.269,0,0.719,0.083,1.287l0.013,0.17v6.664c0,6.096,2.264,12.011,6.211,16.229
		l0.324,0.345l-0.031,0.498l-4.031,65.334l-0.277,0.287c-2.135,2.216-2.583,4.68-2.583,6.357
		C-276.683,242.569-260.902,244.082-243.849,244.082z M-270.169,227.233l4.321-69.998c-4.18-3.435-6.658-8.882-6.658-14.693v-7.22
		c-0.095-0.346-0.095-0.681-0.095-0.9V76.708c0-3.654,2.663-6.628,5.936-6.628c3.276,0,4.941,2.973,4.941,6.628v26.171
		c0.095-0.03,1.829-0.061,1.924-0.09V64.716c0-3.652,2.026-6.624,5.299-6.624c3.273,0,4.936,2.971,4.936,6.624v37.412h2.073V52.731
		c0-3.656,2.048-6.63,5.349-6.63c3.274,0,5.938,2.973,5.938,6.628v49.399h1.729v-37.36c0-3.682,1.049-6.677,4.351-6.677
		c3.272,0,5.934,2.995,5.934,6.677v36.129c0.243-0.161,0.496-0.311,0.757-0.45c1.581-0.985,3.656-1.644,5.176-1.644
		c2.546,0,8.578,2.382,8.578,6.138v31.55c0,8.835-8.296,15.957-12.376,18.924l4.472,71.758c2.315,1.465,2.819,3.194,2.819,4.421
		c0,5.56-9.514,8.262-29.088,8.262c-19.544,0-29.045-2.702-29.045-8.262C-272.898,229.871-271.981,228.405-270.169,227.233z"/>
	<g>
		<path d="M-311.444,190.383h-47c-1.381,0-2.5-1.119-2.5-2.5s1.119-2.5,2.5-2.5h47c1.381,0,2.5,1.119,2.5,2.5
			S-310.064,190.383-311.444,190.383z"/>
	</g>
	<g>
		<path d="M-321.111,177.716h-37.333c-1.381,0-2.5-1.119-2.5-2.5s1.119-2.5,2.5-2.5h37.333c1.381,0,2.5,1.119,2.5,2.5
			S-319.731,177.716-321.111,177.716z"/>
	</g>
	<g>
		<path d="M-338.861,40.716c-1.381,0-2.5-1.119-2.5-2.5V14.534c0-1.381,1.119-2.5,2.5-2.5s2.5,1.119,2.5,2.5v23.681
			C-336.361,39.596-337.481,40.716-338.861,40.716z"/>
	</g>
	<g>
		<path d="M-328.608,40.716c-1.381,0-2.5-1.119-2.5-2.5V14.534c0-1.381,1.119-2.5,2.5-2.5s2.5,1.119,2.5,2.5v23.681
			C-326.108,39.596-327.227,40.716-328.608,40.716z"/>
	</g>
	<g>
		<path d="M-318.355,40.716c-1.381,0-2.5-1.119-2.5-2.5V14.534c0-1.381,1.119-2.5,2.5-2.5s2.5,1.119,2.5,2.5v23.681
			C-315.855,39.596-316.974,40.716-318.355,40.716z"/>
	</g>
	<g>
		<path d="M-308.102,40.716c-1.381,0-2.5-1.119-2.5-2.5V14.534c0-1.381,1.119-2.5,2.5-2.5s2.5,1.119,2.5,2.5v23.681
			C-305.602,39.596-306.721,40.716-308.102,40.716z"/>
	</g>
	<g>
		<path d="M-303.482-11.305c-0.626,0-1.209-0.395-1.421-1.02c-0.266-0.785,0.156-1.636,0.94-1.901l35.366-11.958
			c0.785-0.266,1.637,0.156,1.901,0.94c0.266,0.785-0.156,1.636-0.94,1.901l-35.366,11.958
			C-303.161-11.331-303.323-11.305-303.482-11.305z"/>
	</g>
</g>
<g>
	<g>
		<path d="M-245.146,231.925c-5.603,0-13.106-0.616-17.353-3.519c-0.535-0.366-0.672-1.096-0.306-1.631
			c0.365-0.535,1.095-0.672,1.631-0.306c4.79,3.275,15.084,3.22,19.287,3.04c8.079-0.34,14.273-1.649,16.165-3.416
			c0.474-0.441,1.215-0.417,1.658,0.057c0.442,0.474,0.417,1.216-0.057,1.658c-3.342,3.12-13.468,3.868-17.668,4.045
			C-242.78,231.896-243.918,231.925-245.146,231.925z"/>
		<path d="M-245.146,232.425c-5.639,0-13.275-0.626-17.635-3.606c-0.369-0.252-0.618-0.633-0.7-1.072
			c-0.083-0.439,0.011-0.885,0.263-1.253c0.501-0.735,1.587-0.939,2.325-0.438c3.844,2.628,11.566,3.021,15.827,3.021
			c1.059,0,2.121-0.022,3.157-0.067c7.845-0.329,14.064-1.618,15.845-3.281c0.65-0.605,1.76-0.566,2.365,0.082
			c0.629,0.674,0.593,1.734-0.081,2.364c-3.465,3.234-13.734,4-17.988,4.18C-242.918,232.401-244.054,232.425-245.146,232.425z
			 M-261.836,226.764c-0.223,0-0.431,0.109-0.556,0.294c-0.102,0.148-0.14,0.327-0.106,0.504s0.133,0.33,0.282,0.431
			c4.149,2.837,11.573,3.433,17.071,3.433c1.078,0,2.201-0.023,3.336-0.071c4.143-0.174,14.126-0.904,17.347-3.91
			c0.271-0.254,0.286-0.681,0.032-0.952c-0.247-0.263-0.688-0.278-0.952-0.032c-2.004,1.872-8.167,3.199-16.485,3.55
			c-1.049,0.044-2.126,0.067-3.199,0.067c-5.346,0-12.529-0.555-16.391-3.194C-261.57,226.805-261.701,226.764-261.836,226.764z"/>
	</g>
</g>
<g>
	<g>
		<rect x="-224.153" y="98.549" width="2" height="13.333"/>
	</g>
</g>
<g>
	<path d="M-266.653,115.341c-0.829,0-1.5-0.671-1.5-1.5v-4.5c0-0.829,0.671-1.5,1.5-1.5s1.5,0.671,1.5,1.5v4.5
		C-265.153,114.669-265.824,115.341-266.653,115.341z"/>
</g>
<g>
	<path d="M-254.778,115.341c-0.829,0-1.5-0.671-1.5-1.5v-4.5c0-0.829,0.671-1.5,1.5-1.5s1.5,0.671,1.5,1.5v4.5
		C-253.278,114.669-253.949,115.341-254.778,115.341z"/>
</g>
<g>
	<path d="M-242.903,115.341c-0.829,0-1.5-0.671-1.5-1.5v-4.5c0-0.829,0.671-1.5,1.5-1.5s1.5,0.671,1.5,1.5v4.5
		C-241.403,114.669-242.074,115.341-242.903,115.341z"/>
</g>
<g>
	<path d="M-231.028,115.341c-0.829,0-1.5-0.671-1.5-1.5v-4.5c0-0.829,0.671-1.5,1.5-1.5s1.5,0.671,1.5,1.5v4.5
		C-229.528,114.669-230.199,115.341-231.028,115.341z"/>
</g>
</svg>
