<?xml version="1.0" encoding="utf-8"?>
<!-- Generator: Adobe Illustrator 17.0.0, SVG Export Plug-In . SVG Version: 6.00 Build 0)  -->
<!DOCTYPE svg PUBLIC "-//W3C//DTD SVG 1.1//EN" "http://www.w3.org/Graphics/SVG/1.1/DTD/svg11.dtd">
<svg version="1.1" id="first_aid" xmlns="http://www.w3.org/2000/svg" xmlns:xlink="http://www.w3.org/1999/xlink" x="0px" y="0px"
	 width="212px" height="212px" viewBox="-337.95 -21.509 212 212" enable-background="new -337.95 -21.509 212 212"
	 xml:space="preserve">
<g>
	<path d="M-198.314,63.669l-12.603-0.052l0.051-12.604c0.05-13.432-6.187-19.712-19.625-19.765l-2.688-0.012
		c-13.318,0-19.546,6.234-19.598,19.619l-0.047,12.604l-12.772-0.047c-13.32,0-19.548,6.236-19.601,19.627l-0.008,2.499
		c-0.051,13.626,6,19.726,19.62,19.779l12.598,0.047l-0.047,12.604c-0.028,7.178,1.698,12.238,5.275,15.469
		c3.222,2.909,7.782,4.276,14.354,4.302l2.688,0.009c13.314,0,19.541-6.233,19.592-19.617l0.048-12.604l12.772,0.047
		c0.001,0,0,0,0,0c13.32,0,19.549-6.237,19.599-19.627l0.009-2.502c0.026-6.57-1.305-11.14-4.189-14.383
		C-186.088,65.458-191.136,63.695-198.314,63.669z M-265.55,96.698c-4.459-0.015-7.581-0.879-9.025-2.498
		c-1.352-1.524-2.029-4.427-2.013-8.628l0.008-2.501c0.019-4.206,0.718-7.105,2.078-8.614c1.441-1.592,4.521-2.433,8.908-2.433
		l21.357,0.08l0.079-21.216c0.017-4.46,0.882-7.58,2.503-9.022c1.505-1.336,4.363-2.014,8.494-2.014l2.635,0.011
		c4.203,0.016,7.1,0.714,8.608,2.076c1.609,1.453,2.451,4.58,2.435,9.043l-0.081,21.218l21.217,0.083
		c4.464,0.017,7.585,0.882,9.023,2.5c1.35,1.521,2.028,4.424,2.014,8.627l-0.01,2.503c-0.018,4.205-0.717,7.101-2.079,8.608
		c-1.438,1.593-4.52,2.435-8.911,2.435l-21.351-0.084l-0.082,21.223c-0.019,4.461-0.884,7.58-2.503,9.02
		c-1.503,1.335-4.344,2.012-8.445,2.012l-2.681-0.007c-4.208-0.02-7.105-0.72-8.611-2.081c-1.609-1.452-2.451-4.579-2.434-9.041
		l0.083-21.221L-265.55,96.698z"/>
	<path d="M-231.95-21.509c-58.449,0-106,47.551-106,106c0,58.448,47.551,106,106,106s106-47.552,106-106
		C-125.95,26.042-173.501-21.509-231.95-21.509z M-133.95,84.491c0,54.037-43.962,98-98,98s-98-43.963-98-98
		c0-54.038,43.962-98,98-98S-133.95,30.454-133.95,84.491z"/>
</g>
</svg>
