<?xml version="1.0" encoding="utf-8"?>
<!-- Generator: Adobe Illustrator 17.0.0, SVG Export Plug-In . SVG Version: 6.00 Build 0)  -->
<!DOCTYPE svg PUBLIC "-//W3C//DTD SVG 1.1//EN" "http://www.w3.org/Graphics/SVG/1.1/DTD/svg11.dtd">
<svg version="1.1" id="Layer_1" xmlns="http://www.w3.org/2000/svg" xmlns:xlink="http://www.w3.org/1999/xlink" x="0px" y="0px"
	 width="223.033px" height="211.55px" viewBox="37.118 0.975 223.033 211.55" enable-background="new 37.118 0.975 223.033 211.55"
	 xml:space="preserve">
<path d="M195.066,173.282c-0.551,0.688-1.233,1.205-1.84,1.826v12.575c0,3.226-2.594,5.823-5.787,5.823H60.904
	c-3.198,0-5.823-2.597-5.823-5.823V25.795c0-3.204,2.625-5.801,5.823-5.801H187.44c3.195,0,5.787,2.597,5.787,5.801v46.744
	l17.988-22.564V20.956c0-11.012-8.977-19.981-19.989-19.981H57.116c-11.009,0-19.998,8.969-19.998,19.981v171.58
	c0,11.023,8.988,19.989,19.998,19.989h134.11c11.012,0,19.989-8.966,19.989-19.989v-39.528L195.066,173.282z"/>
<path d="M169.95,169.329c-4.663,0-9.097-2.058-12.156-5.572l-29.738-34.443c-5.779-6.71-5.043-16.847,1.68-22.628
	c6.707-5.801,16.833-5.066,22.626,1.644l17.079,19.78l62.112-77.871c5.51-6.942,15.594-8.121,22.536-2.552
	c6.95,5.519,8.094,15.622,2.55,22.542l-74.147,93.024c-2.966,3.755-7.448,5.949-12.226,6.078
	C170.146,169.329,170.042,169.329,169.95,169.329z"/>
</svg>
