<?xml version="1.0" encoding="utf-8"?>
<!-- Generator: Adobe Illustrator 17.0.0, SVG Export Plug-In . SVG Version: 6.00 Build 0)  -->
<!DOCTYPE svg PUBLIC "-//W3C//DTD SVG 1.1//EN" "http://www.w3.org/Graphics/SVG/1.1/DTD/svg11.dtd">
<svg version="1.1" id="Layer_1" xmlns="http://www.w3.org/2000/svg" xmlns:xlink="http://www.w3.org/1999/xlink" x="0px" y="0px"
	 width="222.196px" height="327.251px" viewBox="-50.619 -121.022 222.196 327.251"
	 enable-background="new -50.619 -121.022 222.196 327.251" xml:space="preserve">
<path d="M171.576-10.118c0-61.154-50.07-110.904-111.217-110.904S-50.619-71.272-50.619-10.118
	c0,57.905,43.33,105.559,101.167,110.465v48.045H13.124v20.413h37.424v37.424H70.96v-37.424h37.424v-20.413H70.96v-48.045
	C125.395,95.441,171.576,47.787,171.576-10.118z M-31.571-10.118c0-50.519,41.095-91.617,91.607-91.617
	c50.515,0,91.614,41.098,91.614,91.617c0,50.522-41.098,91.62-91.614,91.62C9.524,81.502-31.571,40.404-31.571-10.118z"/>
</svg>
