<?xml version="1.0" encoding="utf-8"?>
<svg width="148.16812133789062" height="220.9439697265625" viewBox="153.37 816.922 148.168 220.944" xmlns="http://www.w3.org/2000/svg">
  <g transform="matrix(1, 0, 0, 1, -72.07020568847659, 627.8656005859375)">
    <g>
      <path d="M296.604,410c-7.415,0-13.319-0.793-15.813-1.191c-4.214-0.672-8.99-1.432-13.536-2.894&#10;&#9;&#9;&#9;c-27.066-8.71-41.815-27.895-40.465-52.632c0.955-17.429,17.681-37.158,37.049-60.002c26.273-30.986,56.053-66.107,44.898-93.616&#10;&#9;&#9;&#9;c-1.459-3.594,0.274-7.69,3.868-9.148c3.594-1.461,7.69,0.277,9.146,3.87c14.351,35.387-18.348,73.952-47.197,107.978&#10;&#9;&#9;&#9;c-16.992,20.042-33.044,38.971-33.741,51.687c-1.267,23.228,16.019,33.754,30.742,38.492c3.517,1.13,7.547,1.772,11.445,2.395&#10;&#9;&#9;&#9;c2.889,0.455,23.5,3.405,38.58-3.575c-43.91-6.699-50.783-10.384-50.783-18.592c0-7.275,3.278-10.954,6.03-12.762&#10;&#9;&#9;&#9;c8.974-5.901,23.022,0.181,42.465,8.592c15.991,6.922,34.128,14.748,46.355,13.678c3.86-0.337,7.278,2.51,7.618,6.373&#10;&#9;&#9;&#9;c0.343,3.865-2.51,7.275-6.373,7.618c-7.448,0.658-15.777-0.897-24.347-3.52C330.706,407.065,310.866,410,296.604,410z" style="fill: rgb(238, 104, 60);"/>
    </g>
    <g>
      <path d="M325.83,393.023c0,0-18.227-4.624-30.667-8.311c-10.116-2.998-20.078-2.355-16.68-6.035&#10;&#9;&#9;&#9;c6.846-7.414,4.146-16.228,52.673,1.119c5.183,1.853,13.252-1.846,19.619,0.786L325.83,393.023z" style="fill: rgb(238, 104, 60);"/>
    </g>
  </g>
</svg>