<?xml version="1.0" encoding="utf-8"?>
<svg width="302.4179992675781" height="220.40003967285156" viewBox="35.9416 207.168 302.418 220.4" xmlns="http://www.w3.org/2000/svg">
  <g transform="matrix(1, 0, 0, 1, -112.9974365234375, 17.167711257934585)">
    <ellipse cx="421.74" cy="217.028" rx="27.028" ry="27.028" style="fill: rgb(161, 161, 161);"/>
    <path d="M449.996,284.599c-1.13-7.334-8.859-20.637-13.484-26.44c-4.956-6.22-29.289-9.153-32.065-1.702&#10;&#9;&#9;c-2.575,6.916-7.203,22.681-6.792,28.727c0.863,12.691,6.882,45.833-15.658,48.421c-2.706,0.311-17.092,4.271-17.092,4.271&#10;&#9;&#9;c-8.056,0.977-15.394,5.117-20.397,11.511l-8.257,10.558l-60.24,10.357c-2.14,0.368-112.718,15.039-112.718,15.039&#10;&#9;&#9;c-8.264,1.03-14.354,6.545-13.745,12.447c0.609,5.906,7.695,10.06,15.996,9.381c0,0,112.444-9.414,114.336-9.628&#10;&#9;&#9;c0,0,77.259,0.502,101.311-7.668c4.735-1.609,16.741-10.956,16.741-10.956c2.829-1.853,5.568-3.822,8.26-5.852l-1.716,25.416&#10;&#9;&#9;c-0.405,5.973,3.017,11.063,7.719,11.491c4.702,0.428,8.986-3.963,9.665-9.909l5.281-46.084c2.96-2.254,9.802-17.698,17.932-34.977&#10;&#9;&#9;C449.996,308.557,451.357,293.431,449.996,284.599z" style="fill: rgb(161, 161, 161);"/>
  </g>
</svg>