<?xml version="1.0" encoding="utf-8"?>
<svg width="223.07595825195312" height="220" viewBox="116.413 817.866 223.076 220" xmlns="http://www.w3.org/2000/svg">
  <g transform="matrix(1, 0, 0, 1, -72.04862976074219, 627.8656005859375)">
    <g>
      <g>
        <g>
          <path d="M 264.989990234375 325.23699951171875 L 300.1059875488281 339.6449890136719 L 335.0419921875 303.8110046386719 L 372.36199951171875 326.7760009765625 L 411.5379943847656 250.4340057373047 L 398.552001953125 243.77099609375 L 366.57501220703125 306.08099365234375 L 332.74700927734375 285.260986328125 L 296.5329895019531 322.4020080566406 L 260.49798583984375 307.6199951171875 L 221.50799560546875 355.61199951171875 L 232.8300018310547 364.81500244140625 Z" style="fill: rgb(238, 105, 60);"/>
        </g>
        <g>
          <path d="M 192.38800048828125 406.07501220703125 L 192.38800048828125 190 L 188.46200561523438 190 L 188.46200561523438 410 L 408.4700012207031 410 L 408.4700012207031 406.07501220703125 Z" style="fill: rgb(238, 105, 60);"/>
        </g>
      </g>
      <g>
        <rect x="188.462" y="215.913" width="17.398" height="2.648" style="fill: rgb(238, 105, 60);"/>
      </g>
      <g>
        <rect x="188.462" y="262.077" width="17.398" height="2.648" style="fill: rgb(238, 105, 60);"/>
      </g>
      <g>
        <rect x="188.462" y="308.24" width="17.398" height="2.648" style="fill: rgb(238, 105, 60);"/>
      </g>
      <g>
        <rect x="188.462" y="354.403" width="17.398" height="2.648" style="fill: rgb(238, 105, 60);"/>
      </g>
      <g>
        <rect x="237.809" y="391.645" width="2.648" height="17.398" style="fill: rgb(238, 105, 60);"/>
      </g>
      <g>
        <rect x="283.974" y="391.645" width="2.648" height="17.398" style="fill: rgb(238, 105, 60);"/>
      </g>
      <g>
        <rect x="330.137" y="391.645" width="2.648" height="17.398" style="fill: rgb(238, 105, 60);"/>
      </g>
      <g>
        <rect x="376.3" y="391.645" width="2.648" height="17.398" style="fill: rgb(238, 105, 60);"/>
      </g>
    </g>
  </g>
  <path d="M 253.462 888.849 Z" style="stroke: black; fill: none;"/>
  <path d="M 198.938 917.361 Z" style="stroke: black; fill: none;"/>
  <path d="M 184.932 866.339 Z" style="stroke: black; fill: none;"/>
</svg>