<?xml version="1.0" encoding="utf-8"?>
<!-- Generator: Adobe Illustrator 17.0.0, SVG Export Plug-In . SVG Version: 6.00 Build 0)  -->
<!DOCTYPE svg PUBLIC "-//W3C//DTD SVG 1.1//EN" "http://www.w3.org/Graphics/SVG/1.1/DTD/svg11.dtd">
<svg version="1.1" id="Layer_1" xmlns="http://www.w3.org/2000/svg" xmlns:xlink="http://www.w3.org/1999/xlink" x="0px" y="0px"
	 width="188.556px" height="116.5px" viewBox="-119.306 -24 188.556 116.5" enable-background="new -119.306 -24 188.556 116.5"
	 xml:space="preserve">
<g>
	<path d="M-70.127,12.583c-2.167,0-3.93,1.763-3.93,3.929v18.454c0,2.167,1.764,3.93,3.933,3.93h11.744
		c2.167,0,3.929-1.763,3.929-3.93c-0.002-2.166-1.764-3.928-3.928-3.928l-7.818-0.002V16.513
		C-66.197,14.346-67.96,12.583-70.127,12.583z"/>
	<path d="M-40.711,3.708c-7.675-7.676-17.896-11.903-28.78-11.903S-90.598-3.967-98.276,3.708
		c-5.869,5.87-9.83,13.482-11.288,21.624l-1.021-1.1c-0.951-1.02-2.296-1.605-3.691-1.605c-1.275,0-2.491,0.478-3.422,1.344
		c-2.035,1.889-2.154,5.082-0.265,7.119l8.784,9.457c0.95,1.022,2.294,1.608,3.689,1.608c1.272,0,2.489-0.477,3.426-1.344
		l9.459-8.784c0.986-0.916,1.556-2.161,1.605-3.504c0.05-1.344-0.427-2.627-1.342-3.612c-0.95-1.023-2.296-1.61-3.692-1.61
		c-1.064,0-2.088,0.333-2.939,0.948c1.403-5.077,4.071-9.67,7.818-13.419c5.776-5.775,13.47-8.956,21.662-8.956
		s15.884,3.181,21.661,8.956c11.943,11.944,11.943,31.379,0,43.323c-5.785,5.786-13.478,8.973-21.662,8.973
		c-8.181,0-15.873-3.187-21.661-8.973c-0.952-0.951-2.216-1.476-3.562-1.476c-1.346,0-2.61,0.524-3.562,1.476
		c-0.951,0.952-1.474,2.217-1.473,3.562c0,1.346,0.524,2.61,1.475,3.56c7.69,7.688,17.912,11.922,28.782,11.922
		c10.873,0,21.094-4.234,28.782-11.922c7.676-7.676,11.904-17.897,11.904-28.782C-28.808,21.605-33.036,11.384-40.711,3.708z"/>
</g>
<g>
	<rect x="-19.542" y="54.584" width="63.333" height="10"/>
</g>
<g>
	<rect x="-19.542" y="29.25" width="63.333" height="10"/>
</g>
<g>
	<rect x="-19.542" y="2.583" width="63.333" height="10"/>
</g>
<path d="M59.403-24h-94.557C-40.583-24-45-19.583-45-14.153V-9v1.129c3.193,1.943,6.177,4.275,8.885,6.983
	c0.039,0.039,0.076,0.081,0.115,0.12V-9v-5.153C-36-14.62-35.62-15-35.153-15h94.557c0.467,0,0.847,0.38,0.847,0.847v96.807
	c0,0.467-0.38,0.847-0.847,0.847h-94.557C-35.62,83.5-36,83.12-36,82.653V75v-9.253c-0.04,0.04-0.076,0.082-0.116,0.122
	c-2.709,2.709-5.693,5.043-8.884,6.987V75v7.653c0,5.43,4.417,9.847,9.847,9.847h94.557c5.43,0,9.847-4.417,9.847-9.847v-96.807
	C69.25-19.583,64.833-24,59.403-24z"/>
</svg>
