<?xml version="1.0" encoding="utf-8"?>
<!-- Generator: Adobe Illustrator 17.0.0, SVG Export Plug-In . SVG Version: 6.00 Build 0)  -->
<!DOCTYPE svg PUBLIC "-//W3C//DTD SVG 1.1//EN" "http://www.w3.org/Graphics/SVG/1.1/DTD/svg11.dtd">
<svg version="1.1" id="Laag_1" xmlns="http://www.w3.org/2000/svg" xmlns:xlink="http://www.w3.org/1999/xlink" x="0px" y="0px"
	 width="140.901px" height="213.718px" viewBox="-20.674 -72.586 140.901 213.718"
	 enable-background="new -20.674 -72.586 140.901 213.718" xml:space="preserve">
<g>
	<g>
		<path d="M120.228,55.942H29.063L57.836-68.963c0.366-1.592-0.627-3.179-2.218-3.547c-1.592-0.369-3.181,0.627-3.547,2.221
			L10.399,110.597l-22.91-6.494c-1.574-0.446-3.207,0.466-3.653,2.037c-0.446,1.572,0.466,3.21,2.037,3.655l1.726,0.49
			l-7.966,12.304c-0.572,0.881-0.32,2.062,0.561,2.631c0.32,0.207,0.678,0.307,1.031,0.307c0.625,0,1.236-0.307,1.6-0.87
			l8.426-13.015c0.06-0.088,0.104-0.185,0.146-0.283l1.814,0.514l-7.161,12.708c-0.514,0.916-0.192,2.075,0.724,2.591
			c0.294,0.168,0.616,0.245,0.932,0.245c0.664,0,1.309-0.349,1.658-0.969l7.613-13.505l1.938,0.55l-5.658,13.416
			c-0.406,0.969,0.046,2.084,1.013,2.492c0.243,0.104,0.492,0.15,0.737,0.15c0.742,0,1.448-0.437,1.755-1.161l5.841-13.851
			l1.773,0.503l-4.47,14.103c-0.318,1,0.238,2.071,1.241,2.388c0.192,0.06,0.384,0.088,0.576,0.088c0.806,0,1.554-0.517,1.812-1.329
			l4.505-14.211l1.775,0.503l-3.863,14.304c-0.276,1.015,0.324,2.062,1.338,2.333c0.168,0.046,0.333,0.066,0.499,0.066
			c0.839,0,1.607-0.558,1.837-1.408l3.852-14.257l2.077,0.589l-3.139,14.67c-0.221,1.029,0.435,2.04,1.463,2.256
			c0.135,0.031,0.269,0.044,0.4,0.044c0.879,0,1.669-0.609,1.859-1.505l3.086-14.425l2.318,0.658l-2.161,15.143
			c-0.148,1.04,0.576,2.002,1.614,2.152c0.091,0.015,0.181,0.022,0.272,0.022c0.932,0,1.746-0.689,1.881-1.636l2.088-14.633
			l2.157,0.611l-1.287,15.564c-0.088,1.048,0.691,1.969,1.739,2.053c0.055,0.004,0.108,0.007,0.159,0.007
			c0.98,0,1.812-0.751,1.892-1.744l1.227-14.823l2.382,0.678l-0.815,15.816c-0.055,1.048,0.753,1.942,1.801,1.998
			c0.033,0.002,0.066,0.002,0.099,0.002c1.007,0,1.843-0.788,1.896-1.803l0.77-14.948l1.179,0.336
			c0.272,0.075,0.541,0.113,0.81,0.113c1.289,0,2.474-0.85,2.845-2.154c0.446-1.572-0.468-3.205-2.04-3.653l-23.948-6.79
			l12.032-52.233l23.4,81.143l48.551-0.413l19.116-80.448c0.113-0.141,0.19-0.241,0.225-0.287l-0.132-0.102L120.228,55.942z
			 M95.397,134.834l-39.424,0.333l-19.178-66.5C48.32,79.667,60.533,85.232,73.226,85.232c0.276,0,0.554-0.002,0.83-0.009
			c15.995-0.305,29.098-9.289,37.04-16.46L95.397,134.834z M73.959,81.422C60.571,81.672,47.64,75.094,35.442,61.86h77.247
			C106.209,68.591,91.803,81.093,73.959,81.422z"/>
	</g>
</g>
</svg>
