<?xml version="1.0" encoding="utf-8"?>
<!-- Generator: Adobe Illustrator 17.0.0, SVG Export Plug-In . SVG Version: 6.00 Build 0)  -->
<!DOCTYPE svg PUBLIC "-//W3C//DTD SVG 1.1//EN" "http://www.w3.org/Graphics/SVG/1.1/DTD/svg11.dtd">
<svg version="1.1" id="Layer_1" xmlns="http://www.w3.org/2000/svg" xmlns:xlink="http://www.w3.org/1999/xlink" x="0px" y="0px"
	 width="183.804px" height="106.767px" viewBox="0 0 183.804 106.767" enable-background="new 0 0 183.804 106.767"
	 xml:space="preserve">
<path fill="#010202" d="M90.732,106.767c-4.347,0-8.487-1.664-10.917-3.266c-4.132-2.714-34.2-27.852-37.619-30.712L31.77,64.011
	c-1.618-1.365-1.817-3.787-0.452-5.405c1.349-1.61,3.772-1.825,5.405-0.468l10.403,8.763c16.414,13.738,34.361,28.511,36.906,30.19
	c1.84,1.211,5.113,2.262,7.705,1.963c2.2-0.268,2.875-1.372,3.212-2.308c0.437-1.196,1.441-2.101,2.699-2.4
	c1.257-0.314,2.545,0.031,3.504,0.889c2.262,2.07,5.796,2.254,8.134,1.342c1.165-0.46,2.614-1.388,2.768-3.174
	c0.146-1.457,1.096-2.714,2.453-3.235c1.357-0.521,2.906-0.215,3.987,0.79c1.096,1.004,3.688,0.974,5.803-0.077
	c1.173-0.583,3.105-1.932,2.86-4.309c-0.161-1.487,0.56-2.936,1.848-3.703c1.273-0.767,2.89-0.705,4.132,0.146
	c1.127,0.79,2.576,0.169,3.458-0.59c1.434-1.219,2.446-3.565,1.035-6.516c-4.362-9.077-27.66-31.187-42.004-41.214L95.5,34.733
	c-4.071,1.48-4.516,1.61-7.536,1.909c-3.803,5.52-11.369,14.949-22.67,11.216c-3.58-1.181-6.026-3.872-6.892-7.59
	c-1.94-8.326,4.278-19.887,9.522-25.038c8.625-8.456,24.433-15.77,40.586-8.525c14.957,6.693,24.272,9.453,24.364,9.483
	c2.039,0.598,3.205,2.722,2.607,4.753c-0.598,2.032-2.714,3.205-4.753,2.599c-0.399-0.115-9.851-2.913-25.345-9.844
	c-12.642-5.65-25.192,0.238-32.099,7.007c-4.232,4.163-8.494,13.209-7.413,17.817c0.261,1.127,0.774,1.71,1.825,2.055
	c5.727,1.894,9.959-2.315,14.919-9.721c0.636-0.951,1.664-1.564,2.798-1.679l1.411-0.138c2.553-0.245,2.553-0.245,6.056-1.518
	l1.978-0.721c1.135-0.406,2.423-0.253,3.435,0.422c13.868,9.246,40.655,33.747,46.228,45.362c2.714,5.65,1.556,11.799-2.959,15.655
	c-2.231,1.909-4.868,2.89-7.505,2.783c-1.081,2.783-3.289,5.182-6.348,6.708c-3.174,1.572-6.677,1.978-9.729,1.273
	c-1.334,2.078-3.373,3.726-5.964,4.73c-3.994,1.541-8.533,1.334-12.312-0.391c-1.756,1.832-4.171,2.99-7.068,3.327
	C92.004,106.736,91.368,106.767,90.732,106.767L90.732,106.767z"/>
<path fill="#010202" d="M78.397,15.981c-0.138,0-0.276-0.008-0.422-0.023c-7.858-0.851-26.618-1.411-32.636-1.227
	c-1.786,0.13-3.879-1.602-3.941-3.718c-0.069-2.116,1.602-3.879,3.711-3.948c6.34-0.184,25.399,0.376,33.694,1.28
	c2.101,0.222,3.626,2.116,3.396,4.217C82,14.532,80.329,15.981,78.397,15.981z"/>
<path fill="#010202" d="M142.127,76.523c-1.158,0-2.308-0.521-3.051-1.51c-1.28-1.687-0.958-4.086,0.736-5.374l7.505-5.688
	c1.687-1.273,4.094-0.958,5.366,0.736c1.273,1.694,0.958,4.102-0.736,5.374l-7.505,5.696
	C143.753,76.262,142.932,76.523,142.127,76.523z"/>
<path fill="#010202" d="M130.942,89.977c-0.828,0-1.664-0.268-2.377-0.82c-4.017-3.174-25.069-22.838-25.958-23.674
	c-1.549-1.441-1.625-3.864-0.176-5.42c1.449-1.556,3.879-1.618,5.42-0.176c6.018,5.627,22.34,20.791,25.468,23.26
	c1.664,1.311,1.947,3.718,0.636,5.389C133.204,89.487,132.069,89.977,130.942,89.977z"/>
<path fill="#010202" d="M115.862,97.582c-0.836,0-1.687-0.276-2.4-0.828c-5.198-4.163-19.833-17.341-22.041-19.733
	c-1.434-1.556-1.326-3.987,0.23-5.405c1.564-1.441,3.987-1.349,5.42,0.215c1.779,1.932,16.107,14.857,21.182,18.936
	c1.656,1.319,1.924,3.726,0.606,5.389C118.108,97.092,116.982,97.582,115.862,97.582z"/>
<path fill="#010202" d="M98.536,101.899c-0.866,0-1.748-0.299-2.469-0.912c-4.991-4.209-11.86-11.063-16.452-15.977
	c-1.441-1.541-1.357-3.979,0.192-5.42s3.979-1.349,5.42,0.184c4.431,4.753,11.024,11.339,15.785,15.356
	c1.618,1.365,1.817,3.78,0.46,5.405C100.713,101.431,99.632,101.899,98.536,101.899z"/>
<path fill="#010202" d="M13.677,77.297c-4.784,0-8.295-0.299-10.741-0.882C1.196,75.994-0.015,74.438,0,72.659
	C0.261,44.799,7.475,4.827,7.782,3.148c0.368-2.047,2.285-3.412,4.355-3.105C13.133,0.204,36.76,3.884,46.489,7.28
	c1.656,0.583,2.722,2.2,2.561,3.948c-1.74,19.94-15.363,60.948-15.946,62.68c-0.483,1.441-1.763,2.453-3.274,2.591
	C29.477,76.538,21.366,77.297,13.677,77.297z M7.736,69.393c4.155,0.376,14.359,0.015,18.882-0.314
	c2.791-8.625,12.167-38.332,14.459-55.466c-7.643-2.147-20.186-4.355-26.395-5.397C12.964,18.373,8.357,47.337,7.736,69.393z"/>
<path fill="#010202" d="M167.595,75.273c-8.249,0-13.761-0.629-16.858-1.901c-1.096-0.452-1.917-1.38-2.231-2.53
	c-2.936-10.626-13.761-41.061-18.43-48.574c-0.583-0.935-0.744-2.078-0.414-3.143c0.33-1.058,1.096-1.924,2.093-2.369
	c0.552-0.253,13.646-6.056,27.668-6.056c2.967,0,5.803,0.276,8.425,0.79c0.958,0.184,1.802,0.736,2.377,1.526
	c9.253,12.91,13.148,53.128,13.562,57.659c0.1,1.02-0.23,2.055-0.889,2.829c-0.675,0.797-1.633,1.273-2.66,1.349
	C180.229,74.859,174.242,75.273,167.595,75.273z M155.306,66.756c1.917,0.414,5.558,0.859,12.297,0.859
	c3.051,0,5.957-0.1,8.157-0.184c-1.449-13.278-5.244-38.938-10.948-48.682c-1.694-0.245-3.488-0.376-5.366-0.376
	c-8.149,0-16.13,2.308-20.676,3.902C144.159,33.422,152.216,56.422,155.306,66.756z"/>
</svg>
