<?xml version="1.0" encoding="utf-8"?>
<!-- Generator: Adobe Illustrator 17.0.0, SVG Export Plug-In . SVG Version: 6.00 Build 0)  -->
<!DOCTYPE svg PUBLIC "-//W3C//DTD SVG 1.1//EN" "http://www.w3.org/Graphics/SVG/1.1/DTD/svg11.dtd">
<svg version="1.1" id="Layer_1" xmlns="http://www.w3.org/2000/svg" xmlns:xlink="http://www.w3.org/1999/xlink" x="0px" y="0px"
	 width="165.518px" height="123.14px" viewBox="-31.462 -27.125 165.518 123.14"
	 enable-background="new -31.462 -27.125 165.518 123.14" xml:space="preserve">
<path d="M74.022-1.877h37.952c0.52,0,1.01-0.236,1.333-0.637c0.328-0.405,0.456-0.935,0.344-1.443l-4.694-21.812
	c-0.17-0.79-0.873-1.356-1.682-1.356H88.07c-0.948,0-1.718,0.77-1.718,1.718s0.77,1.718,1.718,1.718h17.817l0.855,3.959h-23.7
	c-0.165,0-0.332,0.025-0.493,0.073c-0.385,0.115-9.404,2.974-10.243,15.952c-0.032,0.474,0.135,0.939,0.46,1.288
	C73.091-2.074,73.547-1.877,74.022-1.877z M83.337-16.296h24.144l2.362,10.983h-33.92C77.11-13.46,82.228-15.868,83.337-16.296z
	 M100.372-12.287c-0.412,0.433-0.662,1.006-0.662,1.627c0,0.596,0.25,1.191,0.662,1.627c0.438,0.412,1.01,0.664,1.629,0.664
	c0.596,0,1.191-0.252,1.624-0.664c0.412-0.435,0.667-1.031,0.667-1.627c0-0.621-0.254-1.194-0.667-1.627
	C102.757-13.137,101.222-13.137,100.372-12.287z M92.081-12.287c-0.433,0.433-0.667,1.006-0.667,1.627
	c0,0.596,0.234,1.191,0.667,1.627c0.412,0.412,1.006,0.664,1.624,0.664c0.596,0,1.194-0.252,1.606-0.664
	c0.433-0.435,0.685-1.031,0.685-1.627c0-0.621-0.25-1.194-0.685-1.627C94.461-13.137,92.926-13.137,92.081-12.287z M83.763-12.287
	c-0.412,0.433-0.662,1.006-0.662,1.627c0,0.596,0.25,1.191,0.662,1.627c0.438,0.412,1.033,0.664,1.629,0.664
	c0.596,0,1.191-0.252,1.624-0.664c0.412-0.435,0.667-1.031,0.667-1.627s-0.254-1.194-0.667-1.627
	C86.148-13.137,84.636-13.137,83.763-12.287z M132.337,1.942H-29.744c-0.948,0-1.718,0.77-1.718,1.718v5.986
	c0,0.948,0.77,1.718,1.718,1.718h9.53v37.404c0,0.948,0.77,1.718,1.718,1.718h30.737c0.948,0,1.718-0.77,1.718-1.718V18.563
	l34.534,26.772l-61.411,47.603c-0.749,0.582-0.887,1.661-0.305,2.412c0.339,0.435,0.845,0.664,1.359,0.664
	c0.369,0,0.738-0.119,1.052-0.36L51.3,47.509l62.107,48.146c0.314,0.241,0.685,0.36,1.052,0.36c0.515,0,1.024-0.229,1.361-0.664
	c0.582-0.751,0.447-1.83-0.305-2.412L54.102,45.335l43.823-33.97h34.412c0.948,0,1.718-0.77,1.718-1.718V3.66
	C134.056,2.71,133.286,1.942,132.337,1.942z M-20.214,7.928h-7.812v-2.55h7.812V7.928z M10.521,47.051h-27.299V5.379h27.301v41.672
	H10.521z M51.296,43.161L13.958,14.217v-2.852h78.355L51.296,43.161z M130.619,7.928H13.958v-2.55h116.661V7.928z"/>
</svg>
