<?xml version="1.0" encoding="utf-8"?>
<!-- Generator: Adobe Illustrator 17.0.0, SVG Export Plug-In . SVG Version: 6.00 Build 0)  -->
<!DOCTYPE svg PUBLIC "-//W3C//DTD SVG 1.1//EN" "http://www.w3.org/Graphics/SVG/1.1/DTD/svg11.dtd">
<svg version="1.1" id="Your_Icon" xmlns="http://www.w3.org/2000/svg" xmlns:xlink="http://www.w3.org/1999/xlink" x="0px" y="0px"
	 width="682px" height="426px" viewBox="-44.538 29.12 682 426" enable-background="new -44.538 29.12 682 426"
	 xml:space="preserve">
<g>
	<path d="M589.115,29.12H3.809c-26.658,0-48.347,21.688-48.347,48.347v329.307c0,26.658,21.688,48.347,48.347,48.347h585.307
		c26.658,0,48.347-21.688,48.347-48.347V77.467C637.462,50.809,615.774,29.12,589.115,29.12z M410.962,284.857V415.12h-229v-346h229
		v168.387c-8.892-6.338-17.809-13.453-26.817-20.768l-25.215,31.052C375.962,261.621,392.827,274.853,410.962,284.857z
		 M-4.538,406.774V77.467c0-4.603,3.744-8.347,8.347-8.347h158.153v102.847l-2.353-4.697c-22.93,11.487-43.323,27.823-60.613,48.556
		l30.719,25.619c9.646-11.567,20.45-21.373,32.248-29.311V415.12H3.809C-0.794,415.12-4.538,411.376-4.538,406.774z
		 M597.462,406.774c0,4.603-3.744,8.347-8.347,8.347H430.962V267.908l6.729-14.265c-2.245-1.059-4.488-2.205-6.729-3.426V69.12
		h158.153c4.603,0,8.347,3.744,8.347,8.347V406.774z"/>
	<path d="M283.071,196.164c19.922,8.09,38.612,21.817,54.267,34.179l24.789-31.393c-17.863-14.105-39.437-29.87-64.005-39.847
		L283.071,196.164z"/>
	<path d="M53.792,313.689l39.598,5.657c2.642-18.494,10.361-38.923,21.736-57.525l-34.125-20.867
		C66.849,264.096,57.187,289.927,53.792,313.689z"/>
	<path d="M241.766,148.262c-0.002,0-0.004,0-0.006,0c-18.265,0-36.045,2.509-52.847,7.458l11.302,38.37
		c13.13-3.868,27.106-5.828,41.545-5.828c0.001,0,0.004,0,0.005,0c2.281,0,4.612,0.049,6.929,0.146
		c3.915,0.164,7.874,0.579,11.767,1.234l6.633-39.446c-5.527-0.929-11.154-1.519-16.723-1.752
		C247.499,148.323,244.603,148.262,241.766,148.262z"/>
	<path d="M472.65,262.209c-4.392,0-8.864-0.43-13.292-1.276l-7.516,39.288c6.899,1.319,13.899,1.989,20.808,1.989
		c19.602,0,39.726-5.421,59.815-16.113l-18.793-35.311C499.23,258.472,485.812,262.209,472.65,262.209z"/>
</g>
</svg>
