<?xml version="1.0" encoding="utf-8"?>
<!-- Generator: Adobe Illustrator 17.0.0, SVG Export Plug-In . SVG Version: 6.00 Build 0)  -->
<!DOCTYPE svg PUBLIC "-//W3C//DTD SVG 1.1//EN" "http://www.w3.org/Graphics/SVG/1.1/DTD/svg11.dtd">
<svg version="1.1" id="Layer_1" xmlns="http://www.w3.org/2000/svg" xmlns:xlink="http://www.w3.org/1999/xlink" x="0px" y="0px"
	 width="351px" height="350.996px" viewBox="-125.5 -125.499 351 350.996" enable-background="new -125.5 -125.499 351 350.996"
	 xml:space="preserve">
<polygon points="181.474,22.62 77.382,22.62 77.382,-81.473 22.622,-81.473 22.622,22.62 -81.471,22.62 -81.471,77.379 
	22.622,77.379 22.622,181.472 77.382,181.472 77.382,77.379 181.474,77.379 "/>
<path d="M50,225.498c-96.774,0-175.5-78.726-175.5-175.496s78.726-175.5,175.5-175.5c96.771,0,175.5,78.729,175.5,175.5
	S146.774,225.498,50,225.498L50,225.498z M50-106.545c-86.325,0-156.546,70.225-156.546,156.546S-36.325,206.547,50,206.547
	c86.318,0,156.542-70.225,156.542-156.546S136.318-106.545,50-106.545L50-106.545z"/>
</svg>
