<?xml version="1.0" encoding="utf-8"?>
<!-- Generator: Adobe Illustrator 17.0.0, SVG Export Plug-In . SVG Version: 6.00 Build 0)  -->
<!DOCTYPE svg PUBLIC "-//W3C//DTD SVG 1.1//EN" "http://www.w3.org/Graphics/SVG/1.1/DTD/svg11.dtd">
<svg version="1.1" id="Layer_1" xmlns="http://www.w3.org/2000/svg" xmlns:xlink="http://www.w3.org/1999/xlink" x="0px" y="0px"
	 width="187.549px" height="187.549px" viewBox="4.721 6.222 187.549 187.549" enable-background="new 4.721 6.222 187.549 187.549"
	 xml:space="preserve">
<g>
	<path d="M179.908,185.859H17.08c-6.814,0-12.359-6.814-12.359-15.18V21.402c0-8.369,5.544-15.18,12.359-15.18h162.828
		c6.818,0,12.363,6.81,12.363,15.18v149.277C192.27,179.045,186.726,185.859,179.908,185.859z M17.08,14.037
		c-2.145,0-4.544,3.149-4.544,7.365v149.277c0,4.216,2.399,7.365,4.544,7.365h162.828c2.149,0,4.548-3.149,4.548-7.365V21.402
		c0-4.216-2.399-7.365-4.548-7.365H17.08z"/>
	<path d="M146.93,152.202H50.061c-6.814,0-12.359-6.259-12.359-13.949V105.6c0-7.69,5.544-13.945,12.359-13.945h96.869
		c6.81,0,12.355,6.256,12.355,13.945v32.653C159.289,145.946,153.745,152.202,146.93,152.202z M50.061,99.465
		c-2.462,0-4.544,2.809-4.544,6.131v32.653c0,3.329,2.083,6.134,4.544,6.134h96.869c2.462,0,4.54-2.809,4.54-6.134v-32.653
		c0-3.325-2.079-6.131-4.54-6.131H50.061z"/>
	<path d="M188.363,66.969H8.629c-2.157,0-3.907-1.75-3.907-3.907s1.75-3.907,3.907-3.907h179.734c2.161,0,3.907,1.75,3.907,3.907
		S190.524,66.969,188.363,66.969z"/>
	<g>
		<path d="M36.835,48.233c-6.173,0-11.198-5.638-11.198-12.57s5.025-12.57,11.198-12.57c6.177,0,11.198,5.638,11.198,12.57
			S43.009,48.233,36.835,48.233z M36.835,30.908c-1.833,0-3.384,2.18-3.384,4.755c0,2.575,1.551,4.755,3.384,4.755
			c1.836,0,3.384-2.176,3.384-4.755C40.219,33.085,38.668,30.908,36.835,30.908z"/>
		<path d="M98.496,48.233c-6.177,0-11.198-5.638-11.198-12.57s5.021-12.57,11.198-12.57c6.173,0,11.198,5.638,11.198,12.57
			S104.669,48.233,98.496,48.233z M98.496,30.908c-1.836,0-3.384,2.18-3.384,4.755c0,2.575,1.547,4.755,3.384,4.755
			s3.384-2.176,3.384-4.755C101.88,33.085,100.332,30.908,98.496,30.908z"/>
		<path d="M160.149,48.233c-6.173,0-11.194-5.638-11.194-12.57s5.021-12.57,11.194-12.57c6.177,0,11.202,5.638,11.202,12.57
			S166.326,48.233,160.149,48.233z M160.149,30.908c-1.833,0-3.38,2.18-3.38,4.755c0,2.575,1.547,4.755,3.38,4.755
			c1.836,0,3.388-2.176,3.388-4.755C163.536,33.085,161.985,30.908,160.149,30.908z"/>
	</g>
	<g>
		<path d="M24.578,193.771c-2.157,0-3.907-1.747-3.907-3.907v-7.912c0-2.161,1.75-3.907,3.907-3.907s3.907,1.747,3.907,3.907v7.912
			C28.485,192.025,26.735,193.771,24.578,193.771z"/>
		<path d="M172.414,193.771c-2.161,0-3.907-1.747-3.907-3.907v-7.912c0-2.161,1.747-3.907,3.907-3.907
			c2.161,0,3.907,1.747,3.907,3.907v7.912C176.321,192.025,174.574,193.771,172.414,193.771z"/>
	</g>
</g>
</svg>
