<?xml version="1.0" encoding="utf-8"?>
<!-- Generator: Adobe Illustrator 17.0.0, SVG Export Plug-In . SVG Version: 6.00 Build 0)  -->
<!DOCTYPE svg PUBLIC "-//W3C//DTD SVG 1.1//EN" "http://www.w3.org/Graphics/SVG/1.1/DTD/svg11.dtd">
<svg version="1.1" id="Calque_1" xmlns="http://www.w3.org/2000/svg" xmlns:xlink="http://www.w3.org/1999/xlink" x="0px" y="0px"
	 width="401.05px" height="305.255px" viewBox="-147.726 -110.285 401.05 305.255"
	 enable-background="new -147.726 -110.285 401.05 305.255" xml:space="preserve">
<g>
	<path d="M14.758,151.69c-4.085,0-7.395-3.31-7.395-7.395v-9.685c0-4.085,3.31-7.395,7.395-7.395s7.395,3.31,7.395,7.395v9.685
		C22.153,148.379,18.843,151.69,14.758,151.69z"/>
</g>
<g>
	<path d="M215.924,194.971H11.045c-20.622,0-37.4-16.773-37.4-37.395v-24.204c0-4.085,3.31-7.395,7.395-7.395
		s7.395,3.31,7.395,7.395v24.204c0,12.467,10.142,22.604,22.609,22.604h204.884c12.467,0,22.604-10.142,22.604-22.604v-24.204
		c0-4.085,3.31-7.395,7.395-7.395c4.085,0,7.395,3.31,7.395,7.395v24.204C253.319,178.198,236.546,194.971,215.924,194.971z"/>
</g>
<g>
	<path d="M243.443,139.631H-140.33c-4.085,0-7.395-3.31-7.395-7.395s3.31-7.395,7.395-7.395h383.773c4.085,0,7.395,3.31,7.395,7.395
		S247.528,139.631,243.443,139.631z"/>
</g>
<g>
	<path d="M159.975,105.923c-2.289,0-4.548-1.062-5.992-3.054c-2.4-3.305-1.655-7.934,1.65-10.328
		c5.906-4.281,9.433-11.184,9.433-18.468c0-7.335-3.401-14.036-9.332-18.393c-3.29-2.415-4-7.043-1.585-10.339
		c2.42-3.295,7.048-4,10.339-1.58c9.624,7.063,15.369,18.398,15.369,30.311c0,12.014-5.816,23.394-15.551,30.447
		C162.999,105.466,161.479,105.923,159.975,105.923z"/>
</g>
<g>
	<path d="M72.996,105.923c-2.289,0-4.543-1.056-5.992-3.049c-2.4-3.305-1.66-7.934,1.645-10.334
		c5.901-4.281,9.428-11.189,9.428-18.468c0-7.335-3.396-14.041-9.327-18.393c-3.29-2.415-4-7.043-1.58-10.339
		c2.415-3.295,7.048-4,10.339-1.58c9.614,7.063,15.359,18.398,15.359,30.311c0,12.009-5.811,23.389-15.541,30.447
		C76.019,105.466,74.5,105.923,72.996,105.923z"/>
</g>
<g>
	<path d="M157.218,54.774c-1.519,0-3.054-0.468-4.372-1.434c-9.624-7.063-15.369-18.398-15.369-30.311
		c0-12.019,5.816-23.394,15.561-30.447c3.3-2.4,7.929-1.655,10.328,1.65c2.395,3.31,1.655,7.934-1.655,10.328
		c-5.911,4.281-9.438,11.184-9.438,18.469c0,7.335,3.401,14.036,9.332,18.393c3.29,2.415,4,7.043,1.585,10.339
		C161.736,53.733,159.492,54.774,157.218,54.774z"/>
</g>
<g>
	<path d="M204.182,105.923c-2.289,0-4.548-1.062-5.992-3.054c-2.4-3.305-1.655-7.934,1.65-10.328
		c5.906-4.281,9.433-11.184,9.433-18.468c0-7.335-3.401-14.036-9.332-18.393c-3.29-2.415-4-7.043-1.585-10.339
		c2.415-3.295,7.048-4,10.339-1.58c9.624,7.063,15.369,18.398,15.369,30.311c0,12.014-5.816,23.394-15.551,30.447
		C207.205,105.466,205.686,105.923,204.182,105.923z"/>
</g>
<g>
	<path d="M201.425,54.774c-1.519,0-3.054-0.468-4.372-1.434c-9.624-7.063-15.369-18.398-15.369-30.311
		c0-12.019,5.816-23.394,15.561-30.447c3.295-2.4,7.924-1.655,10.328,1.65c2.395,3.31,1.655,7.934-1.655,10.328
		c-5.911,4.281-9.438,11.184-9.438,18.469c0,7.335,3.401,14.036,9.332,18.393c3.29,2.415,4,7.043,1.585,10.339
		C205.943,53.733,203.699,54.774,201.425,54.774z"/>
</g>
<g>
	<path d="M31.641,105.923c-2.289,0-4.548-1.056-5.992-3.054c-2.395-3.305-1.66-7.929,1.65-10.328
		c5.906-4.281,9.433-11.184,9.433-18.468c0-7.34-3.396-14.041-9.322-18.393c-3.29-2.415-4-7.043-1.585-10.339
		c2.415-3.295,7.048-4,10.339-1.58c9.619,7.058,15.359,18.393,15.359,30.311c0,12.014-5.811,23.389-15.546,30.447
		C34.665,105.466,33.151,105.923,31.641,105.923z"/>
</g>
<g>
	<path d="M28.879,54.774c-1.519,0-3.054-0.468-4.372-1.434C14.888,46.282,9.148,34.947,9.148,23.029
		c0-12.014,5.811-23.389,15.546-30.447c3.305-2.395,7.934-1.665,10.328,1.65c2.395,3.305,1.66,7.929-1.65,10.328
		c-5.906,4.281-9.433,11.184-9.433,18.469c0,7.34,3.396,14.041,9.322,18.393c3.29,2.415,4,7.043,1.585,10.339
		C33.397,53.733,31.153,54.774,28.879,54.774z"/>
</g>
<g>
	<path d="M159.975,4.465c-2.289,0-4.548-1.062-5.992-3.054c-2.4-3.305-1.655-7.934,1.65-10.328
		c5.906-4.281,9.433-11.184,9.433-18.469c0-7.335-3.401-14.036-9.332-18.393c-3.29-2.415-4-7.043-1.585-10.339
		c2.42-3.295,7.048-4,10.339-1.58c9.624,7.063,15.369,18.398,15.369,30.311c0,12.014-5.816,23.394-15.551,30.447
		C162.999,4.007,161.479,4.465,159.975,4.465z"/>
</g>
<g>
	<path d="M117.841,105.923c-2.289,0-4.548-1.062-5.992-3.054c-2.4-3.305-1.655-7.934,1.65-10.328
		c5.906-4.281,9.433-11.184,9.433-18.468c0-7.335-3.401-14.036-9.332-18.393c-3.29-2.415-4-7.043-1.585-10.339
		c2.42-3.295,7.048-4,10.339-1.58c9.624,7.063,15.369,18.398,15.369,30.311c0,12.014-5.816,23.394-15.551,30.447
		C120.865,105.466,119.345,105.923,117.841,105.923z"/>
</g>
<g>
	<path d="M115.084,54.774c-1.519,0-3.054-0.468-4.372-1.434c-9.624-7.063-15.369-18.398-15.369-30.311
		c0-12.019,5.816-23.394,15.561-30.447c3.3-2.4,7.929-1.655,10.328,1.65c2.395,3.31,1.655,7.934-1.655,10.328
		c-5.911,4.281-9.438,11.184-9.438,18.469c0,7.335,3.401,14.036,9.332,18.393c3.29,2.415,4,7.043,1.585,10.339
		C119.602,53.733,117.358,54.774,115.084,54.774z"/>
</g>
<g>
	<path d="M117.841,4.465c-2.289,0-4.548-1.062-5.992-3.054c-2.4-3.305-1.655-7.934,1.65-10.328
		c5.906-4.281,9.433-11.184,9.433-18.469c0-7.335-3.401-14.036-9.332-18.393c-3.29-2.415-4-7.043-1.585-10.339
		c2.42-3.295,7.048-4,10.339-1.58c9.624,7.063,15.369,18.398,15.369,30.311c0,12.014-5.816,23.394-15.551,30.447
		C120.865,4.007,119.345,4.465,117.841,4.465z"/>
</g>
<g>
	<path d="M157.218-46.684c-1.519,0-3.054-0.468-4.372-1.434c-9.624-7.063-15.369-18.398-15.369-30.311
		c0-12.014,5.816-23.399,15.561-30.447c3.3-2.395,7.929-1.66,10.328,1.655c2.395,3.31,1.655,7.934-1.655,10.328
		c-5.911,4.276-9.438,11.179-9.438,18.463c0,7.335,3.401,14.041,9.332,18.393c3.29,2.415,4,7.043,1.585,10.339
		C161.736-47.726,159.492-46.684,157.218-46.684z"/>
</g>
<g>
	<path d="M77.891,4.465c-2.289,0-4.543-1.056-5.992-3.049c-2.4-3.305-1.66-7.934,1.645-10.334
		c5.901-4.281,9.428-11.189,9.428-18.469c0-7.34-3.396-14.041-9.322-18.393c-3.29-2.415-4-7.043-1.58-10.339
		c2.42-3.295,7.053-4,10.339-1.58c9.614,7.063,15.354,18.393,15.354,30.311c0,12.009-5.811,23.389-15.541,30.447
		C80.914,4.007,79.395,4.465,77.891,4.465z"/>
</g>
<g>
	<path d="M75.134-46.684c-1.519,0-3.054-0.468-4.372-1.434c-9.619-7.063-15.364-18.393-15.364-30.311
		c0-12.014,5.816-23.394,15.551-30.447c3.31-2.4,7.934-1.655,10.328,1.65c2.4,3.31,1.655,7.934-1.65,10.328
		c-5.906,4.281-9.433,11.184-9.433,18.469c0,7.335,3.401,14.041,9.327,18.393c3.29,2.415,4,7.043,1.585,10.339
		C79.651-47.726,77.403-46.684,75.134-46.684z"/>
</g>
</svg>
