<?xml version="1.0" encoding="utf-8"?>
<!-- Generator: Adobe Illustrator 19.2.1, SVG Export Plug-In . SVG Version: 6.00 Build 0)  -->
<svg version="1.1" id="Layer_1" xmlns="http://www.w3.org/2000/svg" xmlns:xlink="http://www.w3.org/1999/xlink" x="0px" y="0px"
	 viewBox="0 0 214.6 174.3" style="enable-background:new 0 0 214.6 174.3;" xml:space="preserve">
<g>
	<path d="M32.5,108.4l76.1,59.7c1.5,1.2,3.3,2.1,4.8,2.6l0.3,0.1c2.7,1.3,5.4,2,8.2,2h72.8c10.2,0,18.4-8.3,18.4-18.4v-9.3
		c0-1.4-0.2-2.8-0.5-4.2l0,0c-1-4.3-3.6-8.1-7.2-10.7c-2.2-1.6-4.6-2.6-7.3-3.1l-0.3-0.1l-44.4-18.5l-7.4-5.8l-16.5-32
		c-0.2-0.3-0.5-0.6-0.9-0.9l-1.4-0.9L138.2,55l1.4,0.3c0.6,0.1,1.1,0.2,1.6,0.2c3.7,0,7.2-1.8,9.4-4.8c3.7-5.2,2.5-12.3-2.7-16
		l-43.6-31C99.2,0,92,1.2,88.3,6.3c-1.8,2.5-2.5,5.5-2,8.6c0.2,1.2,0.7,2.5,1.3,3.7l0.5,0.9l-18,22.8l-1-2.3
		c-0.3-0.8-0.9-1.3-1.6-1.5c-0.2-0.1-0.5-0.1-0.7-0.1c-0.7,0-1.4,0.3-1.9,0.8c-0.6,0.5-1.1,1-1.5,1.6L29.5,83.8
		C23.6,91.4,24.9,102.4,32.5,108.4z M92.5,9.3L92.5,9.3c1-1.4,2.4-2.3,4.1-2.5c0.3-0.1,0.7-0.1,1.1-0.1c1.3,0,2.6,0.4,3.6,1.2
		l43.6,31.1c2.8,2,3.5,5.9,1.5,8.8c-1.2,1.7-3.2,2.6-5.1,2.6c-1.3,0-2.5-0.4-3.6-1.2L94,18.1c-1.4-1-2.3-2.4-2.5-4.1
		C91.2,12.3,91.6,10.7,92.5,9.3z M92,23l41.5,29.6L118.1,72l-0.5,0.1c-2.8,0.6-5.4,0.8-7.9,0.8c-15.9,0-30.5-9.4-37.2-24L72,48.2
		L92,23z M65.6,46.3l1,2.4c6.9,17.6,24.2,29.4,43,29.4c2.9,0,5.9-0.4,9.6-1.2l0.5,0c0.3,0,0.7-0.1,1-0.3l0.3-0.1
		c0.4-0.1,0.9-0.2,1.3-0.3c0.9-0.2,1.7-0.4,2.5-0.7l1.2-0.4l7.1,13.9l-27.4,8.2c-1.4,0.4-2.2,1.9-1.7,3.2c0.4,1.3,1.9,2.1,3.2,1.7
		l28.3-8.5l3.3,6.4l-28,8.4c-1.4,0.4-2.2,1.9-1.7,3.2c0.4,1.3,1.9,2.2,3.2,1.7l28.9-8.6l0.6,0.9c0.2,0.3,0.4,0.5,0.5,0.6l6.1,4.8
		l-28.7,8.6c-0.7,0.2-1.2,0.6-1.5,1.3c-0.3,0.6-0.4,1.3-0.2,2c0.4,1.3,1.8,2.2,3.2,1.7l30.4-9.1c0.4-0.1,0.7-0.4,1.1-0.8l0.7-0.8
		l47,19.6l-5.7,0.7c-11.1,1.3-21.1,7.4-27.4,16.7l-0.4,0.7l-46.5,0L54,99.7l0.4-1c1.7-4.3,2.6-8.7,2.6-13.2c0-6.6-2-13.3-5.7-19.3
		l-0.6-0.9L65.6,46.3z M33.6,87l13.8-17.6l1.1,2.1c2.2,4.4,3.3,9,3.3,13.9c0,4.7-1.1,9.4-3.3,13.9c-0.5,1.1-0.2,2.4,0.7,3.2
		l68.7,53.8c0.5,0.4,1,0.6,1.6,0.6l48.9,0c0.9,0,1.8-0.5,2.2-1.3c6.2-10.3,17-16.4,28.8-16.4c2.1,0,4.3,0.3,6.7,0.8l0.8,0.2l0.3,0.8
		c0.1,0.1,0.1,0.3,0.1,0.4c0.4,1.3,0.6,2.5,0.6,3.7v9.3c0,7.3-5.9,13.2-13.2,13.2h-72.8c-2,0-4-0.5-6.4-1.7
		c-1.4-0.5-2.7-1.1-3.7-1.9l-76.1-59.7C30.4,100.1,29.4,92.4,33.6,87z"/>
	<path d="M6.1,163.6l29.8-37.7c0.4-0.5,0.6-1.2,0.5-1.9c-0.1-0.7-0.4-1.3-1-1.7c-0.5-0.4-1-0.6-1.6-0.6c-0.8,0-1.5,0.3-2,1
		L2.1,160.4c-0.4,0.5-0.6,1.2-0.5,1.9c0.1,0.7,0.4,1.3,1,1.7C3.6,164.9,5.3,164.7,6.1,163.6z"/>
	<path d="M55.3,138.9c-0.1-0.7-0.4-1.3-1-1.7c-1.1-0.9-2.8-0.7-3.6,0.4l-18,22.8c-0.4,0.5-0.6,1.2-0.5,1.9c0.1,0.7,0.4,1.3,1,1.7
		c1.1,0.9,2.8,0.7,3.6-0.4l18-22.8C55.2,140.3,55.4,139.6,55.3,138.9z"/>
	<path d="M73.2,152.1c-1.1-0.9-2.8-0.7-3.6,0.4l-6.2,7.9c-0.9,1.1-0.7,2.8,0.4,3.7c1.1,0.9,2.8,0.7,3.6-0.4l6.2-7.9
		C74.5,154.6,74.3,153,73.2,152.1z"/>
</g>
</svg>
