<svg id="Layer_1" data-name="Layer 1" xmlns="http://www.w3.org/2000/svg" viewBox="0 0 164 145.53"><title>pt-allenamento-funzionale</title><path d="M45.58,0A42.12,42.12,0,0,0,12.08,16.63C4.2,26.68,0,40,0,54.46a73.38,73.38,0,0,0,17.56,48.47c12.53,15.15,32.41,28.94,62.24,42a4.06,4.06,0,0,0,4.39,0c29.83-13,49.72-26.81,62.24-42A73.39,73.39,0,0,0,164,54.46c0-14.44-4.2-27.78-12.08-37.83A42.13,42.13,0,0,0,118.41,0C104.27,0,90.33,5.61,82,17.21,73.67,5.61,59.73,0,45.58,0h0Zm0,10.89c14.4,0,26.47,6,31.25,19.92a5.44,5.44,0,0,0,10.33,0C91.94,16.89,104,10.89,118.42,10.89c10.53,0,18.85,4.64,24.92,12.44s9.75,18.82,9.75,31.13A67.47,67.47,0,0,1,151.6,69H114.74l-9.49-22.11A5.62,5.62,0,0,0,100,43.63a5.52,5.52,0,0,0-5,3.61L82.52,83.53,70.83,42.09a5.6,5.6,0,0,0-5.23-3.93,0.89,0.89,0,0,0-.58,0,5.47,5.47,0,0,0-4.58,3.61L50.82,69H12.4a67.61,67.61,0,0,1-1.48-14.57c0-12.31,3.68-23.39,9.75-31.13s14.4-12.44,24.92-12.44h0ZM65,61.61l11.75,41.63a5.44,5.44,0,0,0,10.39.32l13.62-39.38,5.36,12.44a5.62,5.62,0,0,0,5,3.29h36.87a65.71,65.71,0,0,1-10,16c-10.78,12.89-28.47,25.72-56,38-27.57-12.31-45.26-25.14-56-38a65.71,65.71,0,0,1-10-16H54.69a5.59,5.59,0,0,0,5.17-3.61L65,61.61h0Z"/></svg>