<?xml version="1.0" encoding="utf-8"?>
<!-- Generator: Adobe Illustrator 17.0.0, SVG Export Plug-In . SVG Version: 6.00 Build 0)  -->
<!DOCTYPE svg PUBLIC "-//W3C//DTD SVG 1.1//EN" "http://www.w3.org/Graphics/SVG/1.1/DTD/svg11.dtd">
<svg version="1.1" id="Capa_1" xmlns="http://www.w3.org/2000/svg" xmlns:xlink="http://www.w3.org/1999/xlink" x="0px" y="0px"
	 width="199.525px" height="283.667px" viewBox="-48.465 -107.389 199.525 283.667"
	 enable-background="new -48.465 -107.389 199.525 283.667" xml:space="preserve">
<g id="Capa_27">
	<g>
		<path d="M62.439,176.278c-39.168,0-76.211-12.633-107.137-36.536c-2.055-1.595-3.363-3.889-3.691-6.468
			c-0.321-2.572,0.372-5.115,1.96-7.158c1.585-2.049,3.874-3.36,6.455-3.688c2.572-0.331,5.109,0.362,7.155,1.951
			c8.8,6.795,18.363,12.674,28.467,17.48l2.323-62.085L-35.447-97.138c-0.432-2.263,0.05-4.564,1.346-6.471
			c1.299-1.913,3.272-3.202,5.544-3.634c4.687-0.87,9.229,2.225,10.124,6.887L4.559,21.425l124.268-3.637
			c1.661-0.126,3.527,0.57,4.945,1.86c1.447,1.321,2.304,3.152,2.364,5.03c0.06,1.882-0.618,3.681-1.916,5.065
			c-1.305,1.387-3.07,2.178-4.97,2.232l-17.884,0.523l7.098,113.914c6.502-2.496,12.629-5.292,18.265-8.346
			c4.709-2.559,10.606-0.801,13.153,3.902l0,0c2.559,4.709,0.81,10.615-3.899,13.172C120.477,168.972,91.591,176.278,62.439,176.278
			z M-38.738,127.002c-0.214,0-0.435,0.013-0.646,0.041c-1.343,0.173-2.54,0.851-3.363,1.919c-0.832,1.072-1.188,2.389-1.021,3.732
			c0.17,1.346,0.854,2.534,1.919,3.366c30.1,23.27,66.16,35.565,104.291,35.565c28.382,0,56.509-7.117,81.321-20.578
			c2.446-1.333,3.357-4.413,2.03-6.868c-1.336-2.446-4.403-3.36-6.855-2.03c-6.669,3.615-14.016,6.89-21.811,9.717l-2.922,1.062
			l-7.791-124.942l22.687-0.662c0.659-0.019,1.264-0.293,1.721-0.772c0.448-0.47,0.681-1.091,0.656-1.737
			c-0.022-0.634-0.325-1.261-0.845-1.737c-0.485-0.441-1.116-0.662-1.598-0.649L0.72,26.187l-23.727-125.67
			c-0.416-2.153-2.509-3.587-4.699-3.183c-1.04,0.195-1.951,0.794-2.556,1.677c-0.596,0.883-0.816,1.942-0.618,2.985L2.64,79.422
			L2.63,79.683l-2.588,69.281l-3.146-1.409c-11.605-5.207-22.558-11.772-32.562-19.5C-36.56,127.364-37.631,127.002-38.738,127.002z
			 M62.439,161.53c-18.133,0-35.928-3.001-52.897-8.923l-1.623-0.57l1.157-30.86l97.055-2.134l2.244,35.714l-1.8,0.514
			C91.988,159.425,77.14,161.53,62.439,161.53z M12.694,148.772c28.824,9.701,60.292,10.849,90.801,2.528l-1.721-27.503
			l-88.214,1.932L12.694,148.772z M9.195,118.41l1.245-33.586l93.439-2.064l2.093,33.536L9.195,118.41z M14.926,89.378
			l-0.901,24.269l87.003-1.897l-1.513-24.238L14.926,89.378z M9.662,73.6L1.628,31.054l17.461-0.52l6.843,42.692L9.662,73.6z
			 M7.207,35.539l6.297,33.324l6.994-0.161l-5.349-33.397L7.207,35.539z"/>
		<polygon points="23.587,35.063 36.175,34.7 40.462,68.267 28.945,68.52 29.689,73.15 45.732,72.803 40.254,29.925 22.843,30.433 
					"/>
		<polygon points="44.802,34.451 57.214,34.083 60.438,67.826 49.085,68.069 49.678,72.708 65.544,72.368 61.428,29.304 
			44.212,29.815 		"/>
		<polygon points="65.746,33.824 78.284,33.468 80.446,67.379 68.891,67.624 69.323,72.27 85.394,71.927 82.636,28.69 
			65.308,29.188 		"/>
		<polygon points="86.863,33.216 96.095,32.938 98.232,66.991 89.098,67.193 89.41,71.842 103.164,71.533 100.454,28.154 
			86.557,28.576 		"/>
	</g>
</g>
</svg>
