<?xml version="1.0" encoding="utf-8"?>
<!-- Generator: Adobe Illustrator 17.0.0, SVG Export Plug-In . SVG Version: 6.00 Build 0)  -->
<!DOCTYPE svg PUBLIC "-//W3C//DTD SVG 1.1//EN" "http://www.w3.org/Graphics/SVG/1.1/DTD/svg11.dtd">
<svg version="1.1" id="calendar" xmlns="http://www.w3.org/2000/svg" xmlns:xlink="http://www.w3.org/1999/xlink" x="0px" y="0px"
	 width="110.207px" height="101.023px" viewBox="-10.207 13.866 110.207 101.023"
	 enable-background="new -10.207 13.866 110.207 101.023" xml:space="preserve">
<g>
	<path d="M72.448,20.754v-6.888h-4.592v6.888h-45.92v-6.888h-4.592v6.888h-27.552v94.135H100V20.754H72.448z M95.408,110.297H-5.615
		V43.714H95.408V110.297z M95.408,39.122H-5.615V25.346h22.96v6.888h4.592v-6.888h45.92v6.888h4.592v-6.888h22.96V39.122z"/>
</g>
<g>
	<g>
		<polyline points="76.199,72.074 73.5,69.374 65.894,76.979 62.093,73.177 59.393,75.876 65.894,82.379 76.199,72.074 		"/>
	</g>
	<g enable-background="new    ">
		<path d="M18.39,84.072c2.441-2.771,5.872-6.961,8.313-9.864c1.649-1.847,2.507-3.496,2.507-4.816c0-1.682-1.155-3.596-4.058-3.596
			c-1.814,0-3.299,1.254-4.19,2.211c-0.264,0.264-0.627,0.264-0.891,0l-1.122-1.122c-0.198-0.198-0.264-0.594-0.033-0.857
			c0,0,2.474-3.233,6.4-3.233c4.718,0,7.225,3.002,7.225,6.466c0,2.54-1.386,4.289-3.167,6.434c-1.749,2.11-4.058,4.815-6.004,7.026
			h8.413c0.33,0,0.626,0.297,0.626,0.627v1.583c0,0.33-0.297,0.627-0.626,0.627H19.017c-0.363,0-0.627-0.297-0.627-0.627V84.072z"/>
		<path d="M40.094,74.044v-0.1c-1.418-0.726-3.398-2.54-3.398-5.113c0-3.629,3.035-6.037,6.994-6.037
			c4.058,0,7.061,2.408,7.061,6.037c0,2.54-1.98,4.354-3.399,5.08v0.133c1.518,0.692,3.993,2.672,3.993,5.509
			c0,3.596-2.904,6.334-7.687,6.334c-4.619,0-7.555-2.738-7.555-6.334C36.102,76.683,38.873,74.604,40.094,74.044z M43.689,83.215
			c2.342,0,4.223-1.386,4.223-3.597c0-1.748-1.518-3.562-4.19-3.958c-2.672,0.396-4.19,2.21-4.19,3.958
			C39.533,81.796,41.512,83.215,43.689,83.215z M47.417,68.963c0-2.012-1.617-3.464-3.794-3.464c-1.979,0-3.596,1.452-3.596,3.464
			c0,1.781,1.122,3.134,3.695,3.53C46.263,72.13,47.417,70.712,47.417,68.963z"/>
	</g>
</g>
</svg>
