<?xml version="1.0" encoding="utf-8"?>
<!-- Generator: Adobe Illustrator 17.0.0, SVG Export Plug-In . SVG Version: 6.00 Build 0)  -->
<!DOCTYPE svg PUBLIC "-//W3C//DTD SVG 1.1//EN" "http://www.w3.org/Graphics/SVG/1.1/DTD/svg11.dtd">
<svg version="1.1" id="Layer_1" xmlns="http://www.w3.org/2000/svg" xmlns:xlink="http://www.w3.org/1999/xlink" x="0px" y="0px"
	 width="358.901px" height="351.019px" viewBox="-333.697 -257.439 358.901 351.019"
	 enable-background="new -333.697 -257.439 358.901 351.019" xml:space="preserve">
<g id="Your_Icon">
	<g>
		<g>
			<path d="M-52.195-194.232h-241.887c-1.279,0-2.318-1.038-2.318-2.318v-58.571c0-1.279,1.038-2.318,2.318-2.318h241.887
				c1.279,0,2.318,1.038,2.318,2.318v58.571C-49.878-195.27-50.916-194.232-52.195-194.232z M-291.764-198.867h237.251v-53.935
				h-237.251V-198.867z"/>
		</g>
	</g>
	<g>
		<g>
			<path d="M-153.604-210.401c-0.593,0-1.187-0.227-1.641-0.677c-0.904-0.904-0.904-2.373,0-3.277l26.228-26.233
				c0.904-0.904,2.373-0.904,3.277,0s0.904,2.373,0,3.277l-26.228,26.233C-152.418-210.628-153.011-210.401-153.604-210.401z"/>
		</g>
	</g>
	<g>
		<g>
			<path d="M-137.978-210.401c-0.593,0-1.187-0.227-1.641-0.677c-0.904-0.904-0.904-2.373,0-3.277l26.228-26.233
				c0.904-0.904,2.373-0.904,3.277,0s0.904,2.373,0,3.277l-26.228,26.233C-136.791-210.628-137.384-210.401-137.978-210.401z"/>
		</g>
	</g>
	<g>
		<g>
			<path d="M-122.351-210.401c-0.593,0-1.187-0.227-1.641-0.677c-0.904-0.904-0.904-2.373,0-3.277l26.228-26.233
				c0.904-0.904,2.373-0.904,3.277,0s0.904,2.373,0,3.277l-26.228,26.233C-121.164-210.628-121.758-210.401-122.351-210.401z"/>
		</g>
	</g>
	<g>
		<g>
			<path d="M-106.724-210.401c-0.593,0-1.187-0.227-1.641-0.677c-0.904-0.904-0.904-2.373,0-3.277l26.228-26.233
				c0.904-0.904,2.373-0.904,3.277,0s0.904,2.373,0,3.277l-26.228,26.233C-105.538-210.628-106.131-210.401-106.724-210.401z"/>
		</g>
	</g>
	<g>
		<g>
			<path d="M-91.098-210.401c-0.593,0-1.187-0.227-1.641-0.677c-0.904-0.904-0.904-2.373,0-3.277l26.228-26.233
				c0.904-0.904,2.373-0.904,3.277,0s0.904,2.373,0,3.277l-26.228,26.233C-89.911-210.628-90.504-210.401-91.098-210.401z"/>
		</g>
	</g>
	<g>
		<g>
			<path d="M-263.807-213.567c-6.763,0-12.266-5.502-12.266-12.266s5.507-12.27,12.266-12.27c6.759,0,12.266,5.507,12.266,12.27
				S-257.044-213.567-263.807-213.567z M-263.807-233.468c-4.209,0-7.63,3.426-7.63,7.635s3.421,7.63,7.63,7.63
				c4.209,0,7.63-3.426,7.63-7.63C-256.172-230.042-259.593-233.468-263.807-233.468z"/>
		</g>
	</g>
	<g>
		<g>
			<path d="M-153.604-138.451c-0.593,0-1.187-0.227-1.641-0.677c-0.904-0.904-0.904-2.373,0-3.277l26.228-26.228
				c0.904-0.904,2.373-0.904,3.277,0s0.904,2.373,0,3.277l-26.228,26.228C-152.418-138.678-153.011-138.451-153.604-138.451z"/>
		</g>
	</g>
	<g>
		<g>
			<path d="M-137.978-138.451c-0.593,0-1.187-0.227-1.641-0.677c-0.904-0.904-0.904-2.373,0-3.277l26.228-26.228
				c0.904-0.904,2.373-0.904,3.277,0s0.904,2.373,0,3.277l-26.228,26.228C-136.791-138.678-137.384-138.451-137.978-138.451z"/>
		</g>
	</g>
	<g>
		<g>
			<path d="M-122.351-138.451c-0.593,0-1.187-0.227-1.641-0.677c-0.904-0.904-0.904-2.373,0-3.277l26.228-26.228
				c0.904-0.904,2.373-0.904,3.277,0s0.904,2.373,0,3.277l-26.224,26.228C-121.164-138.678-121.758-138.451-122.351-138.451z"/>
		</g>
	</g>
	<g>
		<g>
			<path d="M-263.807-141.613c-6.763,0-12.266-5.502-12.266-12.266s5.507-12.266,12.266-12.266c6.759,0,12.266,5.502,12.266,12.266
				S-257.044-141.613-263.807-141.613z M-263.807-161.513c-4.209,0-7.63,3.426-7.63,7.63s3.421,7.63,7.63,7.63
				c4.209,0,7.63-3.426,7.63-7.63S-259.593-161.513-263.807-161.513z"/>
		</g>
	</g>
	<g>
		<g>
			<path d="M-153.604-66.497c-0.593,0-1.187-0.227-1.641-0.677c-0.904-0.904-0.904-2.373,0-3.277l26.228-26.228
				c0.904-0.904,2.373-0.904,3.277,0s0.904,2.373,0,3.277l-26.228,26.228C-152.418-66.724-153.011-66.497-153.604-66.497z"/>
		</g>
	</g>
	<g>
		<g>
			<path d="M-263.807-69.659c-6.763,0-12.266-5.507-12.266-12.27s5.507-12.266,12.266-12.266c6.759,0,12.266,5.502,12.266,12.266
				C-251.541-75.166-257.044-69.659-263.807-69.659z M-263.807-89.564c-4.209,0-7.63,3.426-7.63,7.63
				c0,4.209,3.421,7.635,7.63,7.635c4.209,0,7.63-3.426,7.63-7.635C-256.172-86.138-259.593-89.564-263.807-89.564z"/>
		</g>
	</g>
	<g>
		<g>
			<path d="M-153.604,5.457c-0.593,0-1.187-0.227-1.641-0.677c-0.904-0.904-0.904-2.373,0-3.277l26.228-26.228
				c0.904-0.904,2.373-0.904,3.277,0s0.904,2.373,0,3.277L-151.968,4.78C-152.418,5.23-153.011,5.457-153.604,5.457z"/>
		</g>
	</g>
	<g>
		<g>
			<path d="M-263.807,2.291c-6.763,0-12.266-5.502-12.266-12.266s5.507-12.271,12.266-12.271c6.759,0,12.266,5.507,12.266,12.271
				S-257.044,2.291-263.807,2.291z M-263.807-17.61c-4.209,0-7.63,3.426-7.63,7.635s3.421,7.63,7.63,7.63
				c4.209,0,7.63-3.426,7.63-7.63C-256.172-14.189-259.593-17.61-263.807-17.61z"/>
		</g>
	</g>
	<g>
		<g>
			<path d="M-52.195,93.58h-241.887c-1.279,0-2.318-1.038-2.318-2.318V32.687c0-1.279,1.038-2.318,2.318-2.318h241.887
				c1.279,0,2.318,1.038,2.318,2.318v58.576C-49.878,92.542-50.916,93.58-52.195,93.58z M-291.764,88.945h237.251v-53.94h-237.251
				V88.945z"/>
		</g>
	</g>
	<g>
		<g>
			<path d="M-153.604,77.406c-0.593,0-1.187-0.227-1.641-0.677c-0.904-0.904-0.904-2.373,0-3.277l26.228-26.228
				c0.904-0.904,2.373-0.904,3.277,0s0.904,2.373,0,3.277l-26.228,26.228C-152.418,77.179-153.011,77.406-153.604,77.406z"/>
		</g>
	</g>
	<g>
		<g>
			<path d="M-137.978,77.406c-0.593,0-1.187-0.227-1.641-0.677c-0.904-0.904-0.904-2.373,0-3.277l26.233-26.228
				c0.904-0.904,2.373-0.904,3.277,0s0.904,2.373,0,3.277l-26.228,26.228C-136.791,77.179-137.384,77.406-137.978,77.406z"/>
		</g>
	</g>
	<g>
		<g>
			<path d="M-122.351,77.406c-0.593,0-1.187-0.227-1.641-0.677c-0.904-0.904-0.904-2.373,0-3.277l26.228-26.228
				c0.904-0.904,2.373-0.904,3.277,0s0.904,2.373,0,3.277l-26.228,26.228C-121.164,77.179-121.758,77.406-122.351,77.406z"/>
		</g>
	</g>
	<g>
		<g>
			<path d="M-106.724,77.406c-0.593,0-1.187-0.227-1.641-0.677c-0.904-0.904-0.904-2.373,0-3.277l26.228-26.228
				c0.904-0.904,2.373-0.904,3.277,0s0.904,2.373,0,3.277l-26.228,26.228C-105.538,77.179-106.131,77.406-106.724,77.406z"/>
		</g>
	</g>
	<g>
		<g>
			<path d="M-91.098,77.406c-0.593,0-1.187-0.227-1.641-0.677c-0.904-0.904-0.904-2.373,0-3.277l26.228-26.228
				c0.904-0.904,2.373-0.904,3.277,0s0.904,2.373,0,3.277L-89.461,76.73C-89.911,77.179-90.504,77.406-91.098,77.406z"/>
		</g>
	</g>
	<g>
		<g>
			<path d="M-263.807,74.245c-6.763,0-12.266-5.502-12.266-12.266s5.507-12.266,12.266-12.266c6.759,0,12.266,5.502,12.266,12.266
				S-257.044,74.245-263.807,74.245z M-263.807,54.344c-4.209,0-7.63,3.426-7.63,7.63s3.421,7.63,7.63,7.63
				c4.209,0,7.63-3.426,7.63-7.63S-259.593,54.344-263.807,54.344z"/>
		</g>
	</g>
	<g>
		<path d="M-128.337-126.913h-163.427v-53.94h237.251v28.933c0.02-0.016,0.058-0.048,0.061-0.051l4.574-3.923v-27.277
			c0-1.279-1.038-2.318-2.318-2.318h-241.887c-1.279,0-2.318,1.038-2.318,2.318v58.576c0,1.279,1.038,2.318,2.318,2.318h161.635
			L-128.337-126.913z"/>
	</g>
	<g>
		<path d="M-83.451-145.135l20.218-20.221c0.904-0.904,0.904-2.373,0-3.277c-0.904-0.904-2.373-0.904-3.277,0l-21.657,21.657
			C-86.697-146.305-85.109-145.669-83.451-145.135z"/>
	</g>
	<g>
		<path d="M-97.194-152.222c0.032,0.024,1.197,0.901,3.118,2.084l15.216-15.219c0.904-0.904,0.904-2.373,0-3.277
			c-0.904-0.904-2.373-0.904-3.277,0l-15.823,15.823L-97.194-152.222z"/>
	</g>
	<g>
		<path d="M-128.992-54.959h-162.773v-53.94h171.567c-0.825-1.945-1.922-3.484-2.968-4.636h-170.916
			c-1.279,0-2.318,1.038-2.318,2.318v58.576c0,1.279,1.038,2.318,2.318,2.318h165.266
			C-128.927-51.861-128.985-53.407-128.992-54.959z"/>
	</g>
	<g>
		<path d="M-123.898-86.172l-15.721,15.721c-0.904,0.904-0.904,2.373,0,3.277c0.454,0.45,1.048,0.677,1.641,0.677
			s1.187-0.227,1.636-0.677l9.532-9.532C-125.946-80.428-124.922-83.511-123.898-86.172z"/>
	</g>
	<g>
		<path d="M-82.557,16.995h-209.208v-53.94h165.249c-0.424-1.535-0.792-3.081-1.107-4.636h-166.46c-1.279,0-2.318,1.038-2.318,2.318
			v58.576c0,1.279,1.038,2.318,2.318,2.318h219.114C-77.412,20.227-79.959,18.681-82.557,16.995z"/>
	</g>
	<g>
		<path d="M-118.944-19.171l-20.674,20.674c-0.904,0.904-0.904,2.373,0,3.277c0.454,0.45,1.048,0.677,1.641,0.677
			s1.187-0.227,1.636-0.677l19.914-19.914C-117.313-16.468-118.151-17.814-118.944-19.171z"/>
	</g>
	<g>
		<path d="M-112.63-9.859l-11.362,11.362c-0.904,0.904-0.904,2.373,0,3.277c0.454,0.45,1.048,0.677,1.641,0.677
			s1.187-0.227,1.636-0.677l11.026-11.026C-110.708-7.439-111.689-8.644-112.63-9.859z"/>
	</g>
	<g>
		<path d="M-105.366-1.496l-2.999,2.999c-0.904,0.904-0.904,2.373,0,3.277c0.454,0.45,1.048,0.677,1.641,0.677
			s1.187-0.227,1.636-0.677l3.019-3.019C-103.202,0.686-104.303-0.399-105.366-1.496z"/>
	</g>
</g>
<g id="Layer_2">
	<g>
		<g>
			<path d="M-49.877,26.159l-0.834-0.296c-0.73-0.259-18.092-6.485-35.726-19.527c-23.609-17.46-36.087-38.812-36.087-61.747
				c0-17.704,3.588-26.125,6.472-32.892c1.875-4.399,3.355-7.875,3.355-12.908c0-11.899-9.113-17.066-9.501-17.281l-2.735-1.51
				l2.063-2.343l22.496-25.373l1.848,1.422c0.119,0.091,12.171,9.223,24.293,9.223c12.078,0,22.61-9.037,22.715-9.128l1.641-1.426
				l1.64,1.427c0.104,0.089,10.685,9.128,22.712,9.128c12.124,0,24.179-9.132,24.299-9.225l1.847-1.416l24.583,27.726l-2.771,1.5
				c-0.378,0.209-9.492,5.377-9.49,17.277c0,5.034,1.48,8.509,3.355,12.908c2.883,6.767,6.472,15.188,6.472,32.893
				c0,22.934-12.479,44.285-36.087,61.746c-17.634,13.042-34.996,19.268-35.726,19.527L-49.877,26.159z M-117.258-121.138
				c3.56,2.826,9.561,9.184,9.561,19.927c0,6.055-1.74,10.139-3.755,14.868c-2.705,6.349-6.071,14.249-6.071,30.932
				c0,48.526,59.821,73.227,67.647,76.248c7.826-3.02,67.648-27.722,67.648-76.246c0-16.684-3.367-24.584-6.072-30.933
				c-2.015-4.729-3.755-8.813-3.755-14.868c-0.001-10.745,6-17.103,9.559-19.929l-17.59-19.841
				c-4.167,2.796-14.524,8.907-25.433,8.907c-11.058,0-20.633-6.257-24.357-9.05c-3.724,2.793-13.301,9.05-24.355,9.05
				c-10.911,0-21.267-6.111-25.433-8.907L-117.258-121.138z"/>
		</g>
		<g>
			<polygon points="-64.926,-29.882 -64.933,-29.888 -64.94,-29.882 -86.933,-51.879 -77.995,-60.817 -64.931,-47.755 
				-21.761,-90.926 -12.822,-81.985 			"/>
		</g>
	</g>
</g>
</svg>
