<?xml version="1.0" encoding="utf-8"?>
<!-- Generator: Adobe Illustrator 17.0.0, SVG Export Plug-In . SVG Version: 6.00 Build 0)  -->
<!DOCTYPE svg PUBLIC "-//W3C//DTD SVG 1.1//EN" "http://www.w3.org/Graphics/SVG/1.1/DTD/svg11.dtd">
<svg version="1.1" id="Your_Icon" xmlns="http://www.w3.org/2000/svg" xmlns:xlink="http://www.w3.org/1999/xlink" x="0px" y="0px"
	 width="170.603px" height="155.013px" viewBox="213.073 -69.089 170.603 155.013"
	 enable-background="new 213.073 -69.089 170.603 155.013" xml:space="preserve">
<g>
	<g>
		<g>
			<path d="M293.451,84.826c-1.017,0-2.081-0.529-3.111-1.04c-0.956-0.475-1.944-0.965-2.779-0.965
				c-0.835,0-1.823,0.491-2.779,0.965c-1.03,0.511-2.096,1.04-3.112,1.04c-0.285,0-0.557-0.041-0.81-0.124
				c-1.313-0.426-2.027-1.803-2.717-3.133c-0.476-0.918-0.968-1.867-1.599-2.326c-0.643-0.468-1.708-0.646-2.738-0.819
				c-1.467-0.246-2.985-0.501-3.786-1.6c-0.791-1.087-0.568-2.6-0.352-4.064c0.154-1.041,0.313-2.117,0.062-2.888
				c-0.234-0.722-0.942-1.439-1.691-2.198c-1.062-1.076-2.159-2.188-2.159-3.596c0-1.408,1.098-2.52,2.159-3.596
				c0.749-0.759,1.456-1.475,1.691-2.198c0.25-0.77,0.091-1.846-0.062-2.888c-0.215-1.463-0.439-2.976,0.352-4.064
				c0.8-1.1,2.318-1.354,3.786-1.6c1.03-0.172,2.094-0.351,2.737-0.819c0.631-0.459,1.123-1.408,1.599-2.326
				c0.69-1.331,1.404-2.707,2.717-3.133c0.253-0.081,0.525-0.122,0.81-0.122c1.017,0,2.081,0.529,3.112,1.04
				c0.955,0.475,1.943,0.965,2.779,0.965c0.835,0,1.823-0.491,2.779-0.965c1.031-0.511,2.096-1.04,3.112-1.04
				c0.285,0,0.557,0.041,0.81,0.124c1.313,0.426,2.027,1.803,2.717,3.133c0.476,0.918,0.968,1.867,1.599,2.326
				c0.643,0.468,1.708,0.646,2.738,0.819c1.467,0.246,2.985,0.501,3.786,1.6c0.791,1.087,0.568,2.6,0.352,4.064
				c-0.154,1.041-0.313,2.117-0.062,2.888c0.234,0.722,0.942,1.439,1.691,2.198c1.062,1.076,2.159,2.188,2.159,3.596
				c0,1.408-1.097,2.52-2.159,3.596c-0.749,0.759-1.456,1.475-1.691,2.198c-0.25,0.77-0.091,1.846,0.062,2.888
				c0.215,1.463,0.439,2.976-0.352,4.064c-0.8,1.1-2.318,1.354-3.786,1.6c-1.03,0.172-2.094,0.351-2.737,0.819
				c-0.631,0.459-1.123,1.408-1.599,2.326c-0.69,1.331-1.404,2.707-2.717,3.133C294.007,84.784,293.735,84.826,293.451,84.826z
				 M287.56,81.784c1.078,0,2.177,0.546,3.24,1.074c0.966,0.479,1.878,0.932,2.65,0.932c0.178,0,0.338-0.024,0.49-0.073
				c0.908-0.295,1.522-1.479,2.116-2.624c0.531-1.025,1.08-2.084,1.91-2.687c0.84-0.612,2.027-0.81,3.176-1.003
				c1.321-0.221,2.568-0.43,3.119-1.188c0.542-0.745,0.359-1.987,0.165-3.302c-0.171-1.159-0.348-2.358-0.023-3.359
				c0.31-0.955,1.138-1.794,1.939-2.605c0.915-0.927,1.861-1.885,1.861-2.868c0-0.982-0.946-1.941-1.861-2.868
				c-0.8-0.811-1.629-1.65-1.939-2.605c-0.325-1.002-0.148-2.2,0.023-3.359c0.194-1.315,0.377-2.557-0.165-3.302
				c-0.551-0.757-1.799-0.966-3.119-1.188c-1.148-0.192-2.336-0.391-3.176-1.004c-0.828-0.603-1.378-1.662-1.908-2.686
				c-0.594-1.145-1.208-2.33-2.117-2.625c-0.152-0.05-0.312-0.073-0.49-0.073c-0.773,0-1.685,0.453-2.65,0.932
				c-1.063,0.528-2.162,1.074-3.24,1.074c-1.078,0-2.177-0.546-3.24-1.074c-1.188-0.59-2.33-1.122-3.14-0.859
				c-0.908,0.295-1.522,1.479-2.116,2.624c-0.531,1.025-1.08,2.084-1.91,2.687c-0.84,0.612-2.027,0.81-3.176,1.003
				c-1.321,0.221-2.568,0.43-3.119,1.188c-0.542,0.745-0.359,1.987-0.165,3.302c0.171,1.159,0.348,2.358,0.023,3.359
				c-0.31,0.955-1.138,1.794-1.939,2.605c-0.915,0.927-1.861,1.885-1.861,2.868c0,0.982,0.946,1.941,1.861,2.868
				c0.8,0.811,1.629,1.65,1.939,2.605c0.325,1.002,0.148,2.2-0.023,3.359c-0.194,1.315-0.377,2.557,0.165,3.302
				c0.551,0.757,1.799,0.966,3.119,1.188c1.148,0.192,2.336,0.392,3.176,1.004c0.828,0.603,1.378,1.662,1.908,2.686
				c0.594,1.146,1.208,2.33,2.117,2.625c0.81,0.264,1.952-0.269,3.14-0.859C285.383,82.33,286.482,81.784,287.56,81.784z"/>
			<path d="M293.451,85.826c-1.249,0-2.471-0.606-3.55-1.141c-0.82-0.408-1.741-0.865-2.341-0.865s-1.521,0.457-2.333,0.861
				c-1.087,0.538-2.309,1.145-3.558,1.145c-0.389,0-0.765-0.059-1.118-0.173c-1.701-0.553-2.547-2.181-3.293-3.617
				c-0.406-0.784-0.862-1.664-1.303-1.983c-0.451-0.33-1.438-0.495-2.308-0.642c-1.596-0.268-3.395-0.569-4.437-1.999
				c-1.031-1.417-0.767-3.212-0.532-4.795c0.131-0.889,0.278-1.889,0.1-2.436c-0.161-0.498-0.817-1.162-1.451-1.805
				c-1.146-1.161-2.447-2.479-2.447-4.299c0-1.817,1.3-3.135,2.446-4.297c0.635-0.644,1.291-1.308,1.452-1.806
				c0.178-0.548,0.03-1.55-0.1-2.434c-0.234-1.585-0.499-3.381,0.532-4.798c1.041-1.429,2.841-1.731,4.429-1.998
				c0.873-0.146,1.861-0.311,2.315-0.641c0.441-0.322,0.896-1.202,1.299-1.978c0.747-1.44,1.593-3.072,3.296-3.625
				c0.359-0.114,0.733-0.171,1.119-0.171c1.25,0,2.475,0.608,3.555,1.144c0.813,0.404,1.734,0.861,2.336,0.861
				c0.6,0,1.521-0.457,2.333-0.861c1.082-0.537,2.307-1.145,3.558-1.145c0.391,0,0.768,0.058,1.12,0.173
				c1.7,0.552,2.547,2.183,3.293,3.622c0.405,0.781,0.862,1.66,1.301,1.979c0.452,0.329,1.44,0.495,2.312,0.641
				c1.591,0.267,3.391,0.568,4.432,1.999c1.032,1.418,0.767,3.214,0.533,4.798c-0.131,0.883-0.279,1.883-0.1,2.433
				c0.161,0.497,0.816,1.161,1.45,1.804c1.149,1.167,2.448,2.482,2.448,4.3c0,1.819-1.301,3.137-2.447,4.298
				c-0.634,0.643-1.29,1.307-1.451,1.805c-0.178,0.547-0.031,1.546,0.099,2.428c0.234,1.59,0.499,3.386-0.532,4.804
				c-1.04,1.43-2.841,1.731-4.429,1.998c-0.872,0.146-1.859,0.311-2.314,0.641c-0.44,0.321-0.896,1.202-1.3,1.979
				c-0.745,1.439-1.591,3.071-3.295,3.624C294.208,85.77,293.834,85.826,293.451,85.826z M287.561,80.784
				c1.312,0,2.571,0.625,3.683,1.177c0.822,0.408,1.67,0.829,2.207,0.829c0.096,0,0.148-0.014,0.18-0.023
				c0.521-0.17,1.085-1.26,1.539-2.135c0.559-1.078,1.189-2.295,2.209-3.035c1.03-0.75,2.395-0.979,3.599-1.181
				c1.016-0.17,2.165-0.363,2.476-0.79c0.303-0.416,0.134-1.56-0.016-2.567c-0.18-1.221-0.382-2.594,0.015-3.814
				c0.383-1.178,1.331-2.141,2.169-2.99c0.712-0.722,1.582-1.604,1.582-2.175s-0.872-1.455-1.573-2.165
				c-0.844-0.856-1.795-1.821-2.178-2.998c-0.396-1.223-0.194-2.596-0.016-3.808c0.149-1.02,0.317-2.161,0.017-2.575
				c-0.311-0.428-1.461-0.619-2.476-0.789c-1.204-0.202-2.569-0.431-3.6-1.183c-1.019-0.741-1.65-1.959-2.208-3.034
				c-0.454-0.876-1.02-1.966-1.538-2.134c-0.034-0.011-0.087-0.024-0.181-0.024c-0.54,0-1.387,0.421-2.205,0.828
				c-1.112,0.552-2.372,1.178-3.685,1.178c-1.313,0-2.573-0.626-3.686-1.178c-0.66-0.328-1.659-0.824-2.226-0.824
				c-0.065,0-0.119,0.007-0.161,0.021c-0.518,0.168-1.083,1.258-1.537,2.134c-0.558,1.077-1.189,2.294-2.209,3.035
				c-1.029,0.75-2.394,0.979-3.597,1.181c-1.018,0.17-2.167,0.363-2.478,0.79c-0.303,0.416-0.134,1.56,0.016,2.567
				c0.18,1.22,0.382,2.593-0.015,3.814c-0.383,1.178-1.334,2.143-2.172,2.993c-0.709,0.719-1.579,1.601-1.579,2.171
				c0,0.572,0.872,1.456,1.573,2.166c0.847,0.858,1.795,1.821,2.178,2.999c0.396,1.221,0.194,2.594,0.016,3.805
				c-0.149,1.021-0.317,2.163-0.017,2.577c0.311,0.427,1.461,0.619,2.476,0.789c1.203,0.201,2.566,0.43,3.6,1.182
				c1.019,0.742,1.65,1.96,2.208,3.035c0.454,0.876,1.02,1.966,1.537,2.134c0.041,0.014,0.097,0.021,0.161,0.021
				c0.565,0,1.564-0.496,2.227-0.824C284.988,81.409,286.248,80.784,287.561,80.784z"/>
		</g>
	</g>
</g>
<g>
	<g>
		<polygon points="295.852,58.414 287.231,69.744 285.624,71.852 284.02,69.744 280.305,64.863 281.91,62.752 285.624,67.633 
			294.247,56.306 		"/>
	</g>
</g>
<g>
	<g>
		<polygon points="213.073,-69.089 213.073,85.924 271.82,85.924 268.525,81.922 217.074,81.922 217.074,-65.088 318.254,-65.088 
			318.254,81.922 306.815,81.922 304.521,85.924 322.255,85.924 322.255,-69.089 		"/>
	</g>
</g>
<g>
	<path d="M381.077,66.094h-46.698c-1.042,0-1.828,0.786-1.828,1.828c0,1.042,0.786,1.828,1.828,1.828h46.698
		c1.042,0,1.828-0.786,1.828-1.828C382.905,66.879,382.119,66.094,381.077,66.094z"/>
</g>
<g>
	<path d="M383.676,45.267c0-1.042-0.786-1.828-1.828-1.828h-13.208l-0.133-0.065c-0.115-0.056-0.187-0.093-0.267-0.121
		c-3.017-0.837-5.062-3.562-5.062-6.77c0-1.605,0.517-3.039,1.536-4.262l0.095-0.113l0.135-0.06
		c5.575-2.495,9.178-8.134,9.178-14.368c0-8.741-7.112-15.853-15.854-15.853c-8.741,0-15.853,7.112-15.853,15.853
		c0,4.286,1.725,8.387,4.734,11.252l0.091,0.108c0.26,0.391,0.471,0.579,0.75,0.673l0.143,0.049l0.106,0.106
		c0.659,0.659,1.507,1.257,2.454,1.73l0.166,0.12c1.351,1.349,2.036,2.953,2.036,4.766c0,3.045-1.904,5.765-4.739,6.767
		c-0.083,0.027-0.146,0.061-0.208,0.093l-0.137,0.069l-0.206,0.027h-13.226c-1.042,0-1.828,0.786-1.828,1.828V57.75
		c0,1.042,0.786,1.828,1.828,1.828h47.469c1.046,0,1.828-0.965,1.828-1.828V45.267z M352.645,28.52
		c-0.757-0.453-1.538-0.925-2.328-1.558l-0.361-0.355c-2.638-2.473-4.039-5.565-4.039-8.928c0-6.64,5.471-12.042,12.197-12.042
		c6.724,0,12.196,5.402,12.196,12.042c0,4.87-2.934,9.274-7.475,11.221c-0.249,0.126-0.491,0.248-0.725,0.481
		c-1.862,2.005-2.896,4.588-2.896,7.256c0,2.087,0.587,4.099,1.695,5.818l0.635,0.984h-7.269l0.649-0.988
		c1.166-1.772,1.781-3.783,1.781-5.814c0-2.821-1.274-5.628-3.496-7.703c-0.068-0.067-0.149-0.115-0.227-0.166
		C352.86,28.687,352.741,28.602,352.645,28.52z M380.019,55.768h-43.812v-8.674h43.812V55.768z"/>
</g>
<g>
	<path d="M250.803-29.333H231.53V-49h19.272V-29.333z M234.53-32.333h13.272V-46H234.53V-32.333z"/>
</g>
<g>
	<path d="M250.803,2.111H231.53v-19.667h19.272V2.111z M234.53-0.889h13.272v-13.667H234.53V-0.889z"/>
</g>
<g>
	<path d="M250.803,33.556H231.53V13.889h19.272V33.556z M234.53,30.556h13.272V16.889H234.53V30.556z"/>
</g>
<g>
	<rect x="258" y="-40.167" width="43.167" height="2"/>
</g>
<g>
	<rect x="258" y="-8.722" width="43.167" height="2"/>
</g>
<g>
	<rect x="258" y="22.723" width="43.167" height="2"/>
</g>
</svg>
