<?xml version="1.0" encoding="utf-8"?>
<!-- Generator: Adobe Illustrator 17.0.0, SVG Export Plug-In . SVG Version: 6.00 Build 0)  -->
<!DOCTYPE svg PUBLIC "-//W3C//DTD SVG 1.1//EN" "http://www.w3.org/Graphics/SVG/1.1/DTD/svg11.dtd">
<svg version="1.1" id="Your_Icon" xmlns="http://www.w3.org/2000/svg" xmlns:xlink="http://www.w3.org/1999/xlink" x="0px" y="0px"
	 width="245.505px" height="268.334px" viewBox="-70.956 -99.223 245.505 268.334"
	 enable-background="new -70.956 -99.223 245.505 268.334" xml:space="preserve">
<g>
	<circle cx="149.434" cy="143.997" r="25.114"/>
</g>
<g>
	<circle cx="-34.101" cy="143.997" r="25.114"/>
</g>
<g>
	<path d="M162.956,90.081H-8.99c-6.303,0-11.433-5.13-11.433-11.437c0-6.603,5.553-12.739,12.123-13.396l172.043-17.391
		c4.047-0.404,7.097-3.776,7.097-7.842v-100.45c0-4.344-3.535-7.883-7.883-7.883H-17.296l-7.301-25.215
		c-0.968-3.35-4.081-5.691-7.571-5.691h-30.905c-4.344,0-7.883,3.535-7.883,7.883s3.535,7.883,7.883,7.883h24.981L0.124,48.57
		l-9.994,0.998c-7.082,0.709-13.703,4.107-18.652,9.571c-4.941,5.461-7.66,12.39-7.66,19.509l0.011,0.464
		c0.282,14.731,11.99,26.439,26.658,26.721l0.527,0.019h171.946c4.348,0,7.883-3.539,7.883-7.887
		C170.839,93.616,167.303,90.081,162.956,90.081z M-12.737-52.552h167.814v85.43l-139.001,14.1L-12.737-52.552z"/>
</g>
<g>
	<rect x="-16.587" y="-8.132" transform="matrix(-0.1366 -0.9906 0.9906 -0.1366 47.2445 32.331)" width="108.597" height="7.419"/>
</g>
<g>
	<rect x="25.248" y="-8.137" transform="matrix(-0.0688 -0.9976 0.9976 -0.0688 89.0253 74.2465)" width="107.833" height="7.423"/>
</g>
<g>
	<rect x="116.904" y="-58.209" width="7.419" height="95.041"/>
</g>
<g>
	<rect x="-8.987" y="-8.129" width="173.449" height="7.419"/>
</g>
</svg>
