<svg id="Layer_1" data-name="Layer 1" xmlns="http://www.w3.org/2000/svg" viewBox="0 0 376.19 578.77"><title>sm-colf2</title><path d="M331.33,289.36c-18.44-13.21-41.21-24.55-66.19-33V179.91a48.23,48.23,0,0,0-8.46-27.81A35.31,35.31,0,0,0,242,139.9v-30h42.2c11.08,0,20.8-9.72,20.81-20.8V55A55,55,0,0,0,250,0H42.27l-0.93.27c-9.41,2.05-16.58,11-16.42,20.54V89.16c0,11.08,9.73,20.8,20.81,20.8H89.86l1.22,0L66.39,134.89A20.78,20.78,0,1,0,95.74,164.2l33.4-33.4a47.09,47.09,0,0,1,4.88,9.11,35.79,35.79,0,0,0-14.52,12.18,48.23,48.23,0,0,0-8.46,27.81v76.46c-25,8.45-47.74,19.78-66.19,33C15.1,310.68,0,334.21,0,359.3V496a82.83,82.83,0,0,0,82.74,82.74H293.45A82.83,82.83,0,0,0,376.19,496V359.3C376.19,334.21,361.1,310.67,331.33,289.36ZM293.46,537.17H82.74A40.69,40.69,0,0,1,41.61,496V359.31c0-10.34,10.24-23.84,27.39-36.13,17.9-12.82,43.55-24.67,68.7-31.72a21.14,21.14,0,0,0,15-20.07V179.91a10.47,10.47,0,0,1,.13-1.62h70.61a10.42,10.42,0,0,1,.13,1.62v91.48a21.28,21.28,0,0,0,15.06,20.1c25.05,7,50.7,18.87,68.6,31.69,17.15,12.28,27.39,25.78,27.39,36.12V496A40.69,40.69,0,0,1,293.46,537.17ZM232.6,177.43a9.19,9.19,0,0,1-3.93.84v-9.33ZM200.4,89.15v47.53H174.82a91.37,91.37,0,0,0-26.61-45,21.2,21.2,0,0,0-13-10.65,85.85,85.85,0,0,0-45.33-12.7H66.53V41.62H250A13.07,13.07,0,0,1,263.4,55V68.35H221.2C210.12,68.35,200.4,78.07,200.4,89.15Z"/></svg>