<svg id="Layer_1" data-name="Layer 1" xmlns="http://www.w3.org/2000/svg" viewBox="0 0 191.99 170.43"><title>sm-personaltrainer</title><path d="M180.95,117.14c-5.82-3.55-12.55-5.89-19-7.93s-12.7-4-16.78-6a14.93,14.93,0,0,1-3.93-2.57c-0.61-.61-0.45-0.45-0.45-0.53a9.44,9.44,0,0,0-.07-1.43L127.82,41.21a6.62,6.62,0,0,0-6.27-5H95.92c-5.37,0-9.9-3.47-14.21-9.66s-7.48-14.87-9.52-22a6.07,6.07,0,0,0-6-4.6,6.38,6.38,0,0,0-4.61,1.89L1.74,61.51A6.66,6.66,0,0,0,0,66a6.09,6.09,0,0,0,1.89,4.61L83,147.33c0,0.08.08,0.08,0.08,0.15,19.5,17.66,34.39,22.95,49.13,22.95h53.36A6.62,6.62,0,0,0,192,164V134.2C192,126.5,186.69,120.69,180.95,117.14Zm-22.9,4.23c6.27,2,12.32,4.23,16.17,6.57s5,4,5,6.26v4.3h-47c-10.05,0-16.78-5.73-27-14.79L86.91,106l41.45-3.5a14.14,14.14,0,0,0,3.61,7.06,24.88,24.88,0,0,0,7.56,5.28C145.13,117.52,151.7,119.33,158.05,121.37ZM122.49,76.25L61.57,81.4l-5.33-5.17,65-5.49Zm2.42,10.83,1,4.54L76.44,95.81,72,91.55Zm-61.49-69a75,75,0,0,0,7.71,15.62C76.65,41.81,85,49.06,95.92,49.06h20.48l2.43,10.84L45.77,66.08l-15.45-15Zm115.8,139.56h-47c-12,0-22.3-3.17-40.36-19.62H91.76L15.42,66l5.9-5.89,75.21,73c10.43,9.28,20.56,18.19,35.68,18.19h47v6.42Z"/></svg>