<?xml version="1.0" encoding="utf-8"?>
<svg width="123.00201416015625" height="128.07598876953125" viewBox="43.869 69.486 123.002 128.076" xmlns="http://www.w3.org/2000/svg">
  <g transform="matrix(1, 0, 0, 1, 0, 0)">
    <g>
      <path d="M131.498,149.402c-1.002-0.998-2.359-1.555-3.668-1.659c-2.695-0.217-5.436-1.256-7.501-3.321&#10;&#9;&#9;&#9;c-2.082-2.077-3.19-4.776-3.321-7.501c-0.066-1.334-0.645-2.651-1.663-3.67c-2.234-2.236-5.866-2.236-8.104,0l-3.552,3.551&#10;&#9;&#9;&#9;L66.85,100.877c0,0-1.789-1.489-2.051-2.84c-0.311-1.61-0.567-3.715-2.293-5.219c-3.139-2.735-8.391-6.983-11.664-9.295&#10;&#9;&#9;&#9;c-1.379-0.974-2.335-0.767-3.298,0.198l-2.502,2.503c-0.963,0.963-1.173,1.917-0.196,3.295c2.312,3.276,6.556,8.524,9.295,11.666&#10;&#9;&#9;&#9;c1.504,1.728,3.608,1.981,5.218,2.294c1.353,0.261,2.84,2.053,2.84,2.053l35.922,36.836l-3.548,3.552&#10;&#9;&#9;&#9;c-2.238,2.238-2.238,5.869,0,8.107c1.019,1.016,2.335,1.594,3.668,1.66c2.726,0.133,5.425,1.238,7.504,3.319&#10;&#9;&#9;&#9;c2.064,2.065,3.102,4.807,3.321,7.505c0.104,1.306,0.657,2.665,1.659,3.663l22.907,22.911c4.477,4.476,11.736,4.477,16.209,0&#10;&#9;&#9;&#9;l4.565-4.565c4.477-4.478,4.476-11.734,0-16.212L131.498,149.402z" />
      <path d="M166.336,96.48l-21.467,11.792l-9.767-5.921l0.243-11.423l22.23-12.209&#10;&#9;&#9;&#9;c-10.349-9.233-26.233-8.885-36.164,1.045c-6.344,6.344-8.773,15.117-7.297,23.326c0.346,1.934-0.134,3.957-1.74,5.566&#10;&#9;&#9;&#9;l-14.979,14.98l6.252,6.1l0.036-0.04c2.035-2.032,4.737-3.15,7.612-3.15c2.872,0,5.577,1.118,7.606,3.15&#10;&#9;&#9;&#9;c0.992,0.995,1.765,2.155,2.299,3.41l7.265-7.266c1.637-1.634,3.966-2.199,6.05-1.664c8.371,2.142,17.611-0.565,24.175-7.131&#10;&#9;&#9;&#9;C164.328,111.406,166.871,103.85,166.336,96.48z" />
      <path d="M91.014,142.365l0.039-0.037l-6.096-6.252l-35.886,35.885c-4.596,4.596-4.596,12.042,0,16.636&#10;&#9;&#9;&#9;c4.593,4.594,12.042,4.594,16.636,0l28.718-28.715c-1.254-0.535-2.416-1.303-3.41-2.3&#10;&#9;&#9;&#9;C86.819,153.387,86.821,146.562,91.014,142.365z" />
    </g>
  </g>
</svg>