<?xml version="1.0" encoding="utf-8"?>
<!-- Generator: Adobe Illustrator 17.0.0, SVG Export Plug-In . SVG Version: 6.00 Build 0)  -->
<!DOCTYPE svg PUBLIC "-//W3C//DTD SVG 1.1//EN" "http://www.w3.org/Graphics/SVG/1.1/DTD/svg11.dtd">
<svg version="1.1" id="Your_Icon" xmlns="http://www.w3.org/2000/svg" xmlns:xlink="http://www.w3.org/1999/xlink" x="0px" y="0px"
	 width="375.628px" height="383.203px" viewBox="-137.532 -157.157 375.628 383.203"
	 enable-background="new -137.532 -157.157 375.628 383.203" xml:space="preserve">
<path d="M23.384-88.28h134.52c4.736,0,8.572-3.832,8.572-8.572s-3.836-8.572-8.572-8.572H23.384c-4.74,0-8.572,3.832-8.572,8.572
	C14.808-92.116,18.644-88.28,23.384-88.28z"/>
<path d="M157.904-33.015h-82.78c-4.74,0-8.572,3.832-8.572,8.572s3.832,8.572,8.572,8.572h82.783c4.736,0,8.572-3.832,8.572-8.572
	C166.476-29.183,162.644-33.015,157.904-33.015z"/>
<path d="M95.825,39.418H23.384c-4.74,0-8.572,3.836-8.572,8.572s3.832,8.572,8.572,8.572h72.441c4.736,0,8.572-3.836,8.572-8.572
	S100.562,39.418,95.825,39.418z"/>
<path d="M236.491,194.048l-25.586-54.967c4.1-0.636,7.3-4.027,7.3-8.312v-279.355c0.004-4.74-3.832-8.572-8.572-8.572H-28.348
	c-4.74,0-8.572,3.832-8.572,8.572v48.291l-94.916,33.799c-4.453,1.59-6.783,6.495-5.2,10.948l93.693,263.172
	c0.763,2.146,2.345,3.893,4.403,4.871c1.157,0.556,2.41,0.832,3.675,0.832c0.97,0,1.943-0.169,2.878-0.494l188.624-67.168
	l32.81,70.467c1.928,4.127,5.399,7.315,9.676,8.875c1.904,0.694,3.886,1.038,5.871,1.038c2.479,0,4.951-0.536,7.246-1.609
	l16.351-7.614C236.767,212.825,240.484,202.632,236.491,194.048z M-19.776-140.013H201.06v257.949l-29.315-62.976
	c-0.594-1.272-1.341-2.472-2.219-3.556l-23.414-28.917c-3.342-4.119-8.281-6.354-13.335-6.354c-2.437,0-4.905,0.517-7.227,1.598
	c-7.131,3.326-11.094,11.067-9.603,18.796l7.051,36.519c0.264,1.38,0.705,2.721,1.288,3.985l21.026,45.164H-19.776V-140.013z
	 M138.154,61.127l-5.372-27.847l17.85,22.046L138.154,61.127z M-118.002-53.217l81.082-28.867v212.858
	c0,4.736,3.832,8.572,8.572,8.572h151.204l-152.921,54.461L-118.002-53.217z M204.593,208.898L143.446,77.57l16.363-7.591
	l0.008-0.011l61.132,131.316L204.593,208.898z"/>
</svg>
