<?xml version="1.0" encoding="utf-8"?>
<svg width="80.54499816894531" height="100.43399810791016" viewBox="65.015 116.23 80.545 100.434" xmlns="http://www.w3.org/2000/svg">
  <path d="M 130.148 120.705 C 129.651 118.219 127.165 116.23 124.182 116.727 C 121.696 117.224 119.707 119.71 120.204 122.693 L 121.696 131.643 L 88.88 131.643 L 90.372 122.693 C 90.869 119.71 88.88 117.224 86.394 116.727 C 83.411 116.23 80.925 118.219 80.428 120.705 L 65.512 210.201 C 65.015 215.173 69.49 216.167 70.484 216.167 C 72.97 216.167 74.959 214.675 75.456 212.189 L 78.936 191.307 L 131.639 191.307 L 135.119 212.189 C 136.113 216.664 140.588 216.167 141.085 216.167 C 143.571 215.67 145.56 213.184 145.063 210.201 L 130.148 120.705 Z M 123.187 141.587 L 125.673 156.503 L 84.406 156.503 L 86.892 141.587 L 123.187 141.587 Z M 80.428 181.363 L 82.914 166.447 L 127.662 166.447 L 130.148 181.363 L 80.428 181.363 Z" transform="matrix(1, 0, 0, 1, 0, 0)"/>
</svg>