<?xml version="1.0" encoding="utf-8"?>
<svg width="141.90098571777344" height="111.83198547363281" viewBox="33.231 77.381 141.901 111.832" xmlns="http://www.w3.org/2000/svg">
  <path d="M173.917,159.4l-32.566,1.927l-22.139-20.851l2.949-4.28c0.208-0.314,0.353-0.648,0.465-0.989&#10;&#9;c2.403,0.49,4.066,0.357,4.675-0.557c0.6-0.901,0.102-2.457-1.236-4.444c2.189-17.049-5.592-34.169-19.907-43.698&#10;&#9;c-10.117-6.735-22.249-9.127-34.16-6.732c-11.912,2.392-22.182,9.28-28.915,19.394c-9.746,14.646-9.852,32.935-1.846,47.351&#10;&#9;l-4.328,6.732c-1.265,1.902-0.75,4.467,1.15,5.732l43.514,28.965c1.902,1.263,4.469,0.75,5.732-1.152l5.626-8.167l82.201-11.405&#10;&#9;L173.917,159.4z M68.767,95.689c-0.685,1.028,0.035,2.899,1.84,5.31c-0.168,0.176-0.328,0.361-0.467,0.569l-24.77,38.526&#10;&#9;c-5.173-11.764-4.469-25.829,3.163-37.296c5.763-8.66,14.555-14.557,24.753-16.603c10.198-2.046,20.584,0,29.245,5.763&#10;&#9;c10.738,7.148,17.043,18.785,17.352,31.359c-4.529-4.253-10.773-9.158-17.981-13.955C85.739,98.602,70.904,92.48,68.767,95.689z&#10;&#9; M103.301,163.578l13.737-19.942l19.115,17.998L103.301,163.578z" transform="matrix(1, 0, 0, 1, 0, 0)"/>
</svg>