<?xml version="1.0" encoding="utf-8"?>
<svg width="80.54503631591797" height="164.36102294921875" viewBox="65.015 52.303 80.545 164.361" xmlns="http://www.w3.org/2000/svg">
  <g transform="matrix(1, 0, 0, 1, 0, 0)">
    <path d="M130.148,120.705c-0.497-2.486-2.983-4.475-5.966-3.978c-2.486,0.497-4.475,2.983-3.978,5.966l1.492,8.95&#10;&#9;&#9;H88.88l1.492-8.95c0.497-2.983-1.492-5.469-3.978-5.966c-2.983-0.497-5.469,1.492-5.966,3.978l-14.916,89.496&#10;&#9;&#9;c-0.497,4.972,3.978,5.966,4.972,5.966c2.486,0,4.475-1.492,4.972-3.978l3.48-20.882h52.703l3.48,20.882&#10;&#9;&#9;c0.994,4.475,5.469,3.978,5.966,3.978c2.486-0.497,4.475-2.983,3.978-5.966L130.148,120.705z M123.187,141.587l2.486,14.916H84.406&#10;&#9;&#9;l2.486-14.916H123.187z M80.428,181.363l2.486-14.916h44.748l2.486,14.916H80.428z"/>
    <g>
      <path d="M105.34,52.303c-10.31,0-18.125,7.881-18.125,18.257c0,6.37,2.758,10.048,5.713,13.988&#10;&#9;&#9;&#9;c0.788,1.051,1.642,2.167,2.43,3.349c0.197,0.263,0.854,1.51,1.707,6.042c0.591,3.152,3.415,5.451,6.567,5.451h3.349&#10;&#9;&#9;&#9;c3.218,0,5.976-2.298,6.567-5.451c0.854-4.466,1.576-5.713,1.707-6.042c0.788-1.182,1.642-2.298,2.43-3.349&#10;&#9;&#9;&#9;c2.955-3.875,5.713-7.618,5.713-13.988C123.465,60.184,115.65,52.303,105.34,52.303z M102.056,64.846&#10;&#9;&#9;&#9;c0.722,0.525,1.576,0.722,2.561,0.657c0.657-0.066,1.576-0.197,2.298-0.46c0.328,0.197,0.657,0.394,0.919,0.525&#10;&#9;&#9;&#9;c0.788,0.394,1.576,0.722,2.43,0.854l-3.678,19.701h-2.43l-3.743-20.883C101.005,65.109,101.596,64.978,102.056,64.846z&#10;&#9;&#9;&#9; M101.793,62.351c0.197-0.394,0.525-0.591,0.919-0.657c0.066,0,0.131,0,0.131,0c0.197,0,0.46,0.066,0.591,0.131&#10;&#9;&#9;&#9;c0.197,0.066,0.328,0.197,0.394,0.394c0.066,0.197,0.131,0.46-0.263,0.854c-0.328,0.328-0.788,0.591-1.379,0.788&#10;&#9;&#9;&#9;c-0.131-0.131-0.197-0.197-0.263-0.328C101.728,63.139,101.662,62.679,101.793,62.351z M106.719,62.613&#10;&#9;&#9;&#9;c0.131-0.263,0.394-0.46,0.722-0.46h0.066c0.46,0.066,0.591,0.394,0.591,0.722c0,0.197-0.131,0.46-0.263,0.657&#10;&#9;&#9;&#9;c-0.197,0.197-0.394,0.328-0.722,0.525l0,0c-0.066-0.066-0.131-0.131-0.197-0.263C106.587,63.401,106.522,62.942,106.719,62.613z&#10;&#9;&#9;&#9; M114.993,82.512c-0.854,1.116-1.707,2.233-2.496,3.481l-0.066,0.066h-3.678l3.678-19.57c0.131-0.591-0.263-1.182-0.854-1.248&#10;&#9;&#9;&#9;c-0.394-0.066-0.788,0.066-1.051,0.394c-0.788-0.131-1.51-0.46-2.364-0.788c-0.131-0.066-0.263-0.131-0.328-0.197&#10;&#9;&#9;&#9;c0.197-0.131,0.394-0.328,0.591-0.525c0.328-0.394,0.525-0.788,0.525-1.248c0-0.854-0.591-1.445-1.379-1.576&#10;&#9;&#9;&#9;c-0.722-0.066-1.379,0.328-1.642,0.985c-0.263,0.591-0.197,1.379,0.263,2.036c0,0,0,0.066,0.066,0.066&#10;&#9;&#9;&#9;c-0.525,0.131-1.182,0.263-1.642,0.263c-0.46,0-0.985,0-1.51-0.197c0.46-0.197,0.854-0.46,1.116-0.788&#10;&#9;&#9;&#9;c0.591-0.591,0.722-1.182,0.46-1.839c-0.197-0.394-0.46-0.657-0.854-0.854c-0.394-0.131-0.854-0.197-1.182-0.131&#10;&#9;&#9;&#9;c-0.722,0.066-1.313,0.525-1.642,1.182c-0.263,0.591-0.197,1.379,0.263,2.036c0,0.066,0.066,0.066,0.066,0.131&#10;&#9;&#9;&#9;c-0.394,0.066-0.788,0.131-1.182,0.197c-0.263-0.328-0.657-0.46-1.051-0.394c-0.591,0.131-0.985,0.657-0.854,1.248l3.678,20.883&#10;&#9;&#9;&#9;h-3.678c0-0.066-0.066-0.066-0.066-0.066c-0.854-1.248-1.707-2.364-2.495-3.481c-2.824-3.743-4.991-6.698-4.991-11.886&#10;&#9;&#9;&#9;c0-8.472,6.304-14.776,14.645-14.776s14.645,6.37,14.645,14.776C119.984,75.813,117.817,78.768,114.993,82.512z" />
      <path d="M110.134,99.98h-9.128c-0.854,0-1.51,0.657-1.51,1.51c0,0.854,0.657,1.51,1.51,1.51h9.128&#10;&#9;&#9;&#9;c0.854,0,1.51-0.657,1.51-1.51C111.644,100.703,110.987,99.98,110.134,99.98z" />
      <path d="M109.477,104.249h-7.881c-0.854,0-1.51,0.657-1.51,1.51s0.657,1.51,1.51,1.51h7.881&#10;&#9;&#9;&#9;c0.854,0,1.51-0.657,1.51-1.51S110.331,104.249,109.477,104.249z" />
      <path d="M107.704,108.517h-4.269c-0.854,0-1.51,0.657-1.51,1.51c0,0.854,0.657,1.51,1.51,1.51h4.269&#10;&#9;&#9;&#9;c0.854,0,1.51-0.657,1.51-1.51C109.214,109.174,108.558,108.517,107.704,108.517z" />
    </g>
  </g>
  <text style="font-size: 30px; white-space: pre; word-spacing: 0px; fill: rgb(154, 154, 154);" x="272.873" y="64.182">9A9A9A</text>
</svg>