<?xml version="1.0" encoding="utf-8"?>
<svg width="152.00799560546875" height="73.01688385009766" viewBox="29.303 97.736 152.008 73.0169" xmlns="http://www.w3.org/2000/svg">
  <g transform="matrix(1, 0, 0, 1, 0, 0)">
    <path d="M157.447,132.339c-10.623,2.563-21.685,2.689-32.54,1.991c-10.526-0.677-21.278-2.061-31.798-0.652&#10;&#9;&#9;c4.611,1.926,8.275,5.678,10.087,10.348c4.382-0.248,8.769,0.1,13.141,0.683c5.593,0.746,11.146,1.844,16.777,2.283&#10;&#9;&#9;c2.806,0.219,5.633,0.302,8.441,0.082c2.946-0.231,5.846-0.835,8.76-1.31c5.759-0.939,11.742-1.912,17.597-1.564&#10;&#9;&#9;c4.479,0.267,8.728,1.628,13.047,2.7c-1.638-8.62-8.803-15.309-17.652-16.227C161.374,131.296,159.421,131.862,157.447,132.339z" />
    <path d="M103.265,170.041c6.894-6.804,17.26-7.552,26.425-7.438c4.221,0.052,8.438,0.322,12.659,0.349&#10;&#9;&#9;c4.453,0.028,8.912,0.008,13.366,0c8.058-0.013,16.963-0.348,24.046-4.557c0.998-2.382,1.55-4.996,1.55-7.736&#10;&#9;&#9;c0-0.589-0.027-1.172-0.077-1.748c-4.414-1.079-8.765-2.601-13.323-2.813c-5.95-0.278-11.942,0.642-17.794,1.612&#10;&#9;&#9;c-2.844,0.471-5.682,1.059-8.563,1.262c-2.811,0.198-5.633,0.15-8.441-0.082c-9.756-0.805-19.499-3.491-29.313-3.022&#10;&#9;&#9;c0.413,1.528,0.634,3.135,0.634,4.792c0,10.142-8.249,18.395-18.393,18.395c-8.198-0.002-15.159-5.4-17.525-12.828&#10;&#9;&#9;c-0.057-0.182-0.101-0.37-0.154-0.554c-0.098-0.345-0.191-0.691-0.27-1.044c-0.047-0.214-0.086-0.431-0.127-0.647&#10;&#9;&#9;c-0.066-0.355-0.12-0.713-0.164-1.074c-0.024-0.191-0.049-0.382-0.068-0.573c-0.051-0.552-0.084-1.11-0.084-1.675&#10;&#9;&#9;s0.035-1.123,0.084-1.675c0.017-0.191,0.042-0.382,0.068-0.571c0.044-0.363,0.1-0.721,0.164-1.076&#10;&#9;&#9;c0.041-0.216,0.079-0.432,0.127-0.647c0.078-0.355,0.172-0.703,0.27-1.049c0.052-0.181,0.095-0.367,0.152-0.547&#10;&#9;&#9;c0.988-3.104,2.789-5.841,5.138-7.989c0.547-0.502,1.121-0.969,1.721-1.4c0.02-0.015,0.039-0.03,0.061-0.046&#10;&#9;&#9;c1.27-0.9,2.65-1.632,4.099-2.182c0.057-0.022,0.115-0.042,0.174-0.064c0.704-0.26,1.424-0.48,2.157-0.65&#10;&#9;&#9;c0.027-0.007,0.054-0.015,0.081-0.022l0.162-0.039l0.003-0.003c1.268-0.277,2.581-0.432,3.93-0.432&#10;&#9;&#9;c1.173,0,2.321,0.112,3.434,0.323c0.11-0.165,0.291-0.29,0.555-0.338c2.27-0.409,4.564-0.692,6.865-0.847&#10;&#9;&#9;c11.517-0.775,22.978,1.042,34.476,1.34c5.514,0.143,11.082,0.027,16.565-0.617c4.1-0.482,8.134-1.32,12.096-2.445&#10;&#9;&#9;c2.511-3.421,3.872-7.535,3.872-11.857c0-2.862-0.603-5.585-1.686-8.052c-3.777,0.376-7.446,1.47-11.024,2.802&#10;&#9;&#9;c-4.594,1.71-9.091,3.763-13.847,5.004c-5.269,1.375-10.677,1.386-16.082,1.032c-11.421-0.747-22.818-3.195-34.281-2.026&#10;&#9;&#9;c0.028,0.41,0.044,0.823,0.044,1.241c0,5.091-2.039,9.813-5.746,13.329c-0.044,0.01-0.086,0.03-0.13,0.041&#10;&#9;&#9;c-0.72,0.181-1.422,0.399-2.108,0.655c-0.073,0.027-0.149,0.052-0.221,0.081c-1.527,0.591-2.964,1.355-4.287,2.284&#10;&#9;&#9;c-0.012,0.008-0.024,0.019-0.035,0.027c-0.625,0.441-1.218,0.919-1.787,1.426c-0.046,0.041-0.096,0.073-0.142,0.113&#10;&#9;&#9;c-1.329,0.292-2.653,0.441-3.939,0.441c-2.451,0-4.787-0.492-6.928-1.366c-0.765-0.312-1.502-0.681-2.214-1.089&#10;&#9;&#9;c-0.128-0.074-0.253-0.155-0.382-0.233c-0.644-0.39-1.267-0.816-1.856-1.284c-4.263-3.373-7.013-8.578-7.013-14.426&#10;&#9;&#9;c0.002-10.139,8.252-18.39,18.395-18.39c5.176,0,9.859,2.15,13.204,5.603c2.423,0.48,4.852,0.93,7.313,1.114&#10;&#9;&#9;c4.148,0.31,8.163-0.268,12.105-1.581c5.367-1.788,10.36-4.462,15.482-6.835H68.634c-11.08,0-20.09,9.012-20.09,20.089&#10;&#9;&#9;c0,4.834,1.716,9.271,4.567,12.742h-3.719c-11.078,0-20.089,9.012-20.089,20.092s9.011,20.092,20.09,20.092h53.593&#10;&#9;&#9;C102.964,170.513,103.042,170.261,103.265,170.041z M66.045,152.476c0.017,0.191,0.041,0.382,0.064,0.571&#10;&#9;&#9;c0.051,0.422,0.115,0.843,0.193,1.262c0.035,0.194,0.068,0.388,0.108,0.583c0.118,0.544,0.252,1.088,0.415,1.621&#10;&#9;&#9;c-2.518,7.508-9.492,12.539-17.435,12.539c-10.139,0-18.391-8.251-18.391-18.393c0-10.144,8.252-18.393,18.395-18.393&#10;&#9;&#9;c2.316,0,4.591,0.434,6.763,1.297c0.081,0.066,0.176,0.113,0.258,0.177c0.576,0.444,1.177,0.855,1.8,1.235&#10;&#9;&#9;c0.145,0.09,0.287,0.181,0.436,0.265c0.757,0.436,1.537,0.829,2.351,1.165c2.707,2.209,4.716,5.102,5.824,8.401&#10;&#9;&#9;c-0.162,0.532-0.296,1.072-0.414,1.613c-0.042,0.198-0.074,0.399-0.111,0.598c-0.076,0.414-0.14,0.828-0.191,1.245&#10;&#9;&#9;c-0.024,0.193-0.047,0.385-0.064,0.579c-0.056,0.603-0.093,1.209-0.093,1.816C65.952,151.265,65.989,151.873,66.045,152.476z"/>
    <path d="M154.567,164.847c-4.383-0.018-8.774,0.066-13.155-0.01c-4.264-0.074-8.522-0.338-12.787-0.345&#10;&#9;&#9;c-8.039-0.014-17.092,0.661-23.344,6.259h55.943c7.178-0.001,13.49-3.79,17.044-9.472&#10;&#9;&#9;C171.013,164.622,162.484,164.879,154.567,164.847z" />
    <path d="M130.527,104.243c-2.263,0.372-4.317,1.346-6.482,2.05c-0.827,0.269-1.665,0.481-2.51,0.656&#10;&#9;&#9;c3.318,0.841,6.634,1.724,10.067,1.751c2.53,0.019,5.2,0.263,7.587-0.753c1.466-0.624,3.046-1.037,4.501-1.699&#10;&#9;&#9;c-1.893-0.428-3.765-0.94-5.662-1.356C135.636,104.367,132.979,103.84,130.527,104.243z" />
    <path d="M143.811,97.736h-22.387c-6.833,2.787-13.21,6.679-20.285,8.863c-4.011,1.238-8.133,1.811-12.326,1.421&#10;&#9;&#9;c-1.717-0.16-3.417-0.424-5.111-0.728c1.526,2.176,2.591,4.697,3.058,7.419c5.647-0.601,11.335-0.335,16.979,0.22&#10;&#9;&#9;c5.962,0.587,11.9,1.454,17.884,1.806c5.43,0.319,10.805,0.299,16.066-1.22c7.945-2.294,15.414-6.517,23.624-7.549&#10;&#9;&#9;C157.861,101.865,151.31,97.736,143.811,97.736z M146.403,106.452c-0.014,0.273-0.145,0.542-0.44,0.73&#10;&#9;&#9;c-1.915,1.219-4.262,1.839-6.373,2.638c-2.542,0.963-5.314,0.836-7.988,0.775c-5.345-0.122-10.354-2.044-15.575-2.939&#10;&#9;&#9;c-1.137-0.195-0.726-1.759,0.252-1.863c2.787-0.294,5.516-0.676,8.161-1.644c2.214-0.81,4.416-1.744,6.802-1.878&#10;&#9;&#9;c5.082-0.284,9.946,1.637,14.872,2.544C146.996,104.979,146.956,106.002,146.403,106.452z" />
  </g>
</svg>