<?xml version="1.0" encoding="utf-8"?>
<svg width="160.3610076904297" height="87.7199935913086" viewBox="24.285 90.384 160.361 87.72" xmlns="http://www.w3.org/2000/svg">
  <g transform="matrix(1, 0, 0, 1, 0, 0)">
    <path d="M167.352,134.533v-15.722c0-1.572-1.348-2.92-2.92-2.92s-2.92,1.348-2.92,2.92v10.107l-12.128-12.128&#10;&#9;&#9;c-1.123-1.123-2.92-1.123-4.043,0l-33.689,33.689c-0.898,0.898-1.123,2.021-0.674,3.144c0.449,1.123,1.348,1.797,2.695,1.797h8.535&#10;&#9;&#9;v19.764c0,1.572,1.348,2.92,2.92,2.92h44.919c1.572,0,2.92-1.348,2.92-2.92V155.42h8.535c1.123,0,2.246-0.674,2.695-1.797&#10;&#9;&#9;c0.449-1.123,0.225-2.246-0.674-3.144L167.352,134.533z M150.507,172.265h-5.615V155.42h5.615V172.265z M170.047,149.805&#10;&#9;&#9;c-1.572,0-2.92,1.348-2.92,2.92v19.764h-11.23v-19.764c0-1.572-1.348-2.92-2.92-2.92h-11.23c-1.572,0-2.92,1.348-2.92,2.92v19.764&#10;&#9;&#9;h-11.23v-19.764c0-1.572-1.348-2.92-2.92-2.92h-4.492l26.951-26.951l14.823,14.823l0,0l12.128,12.128H170.047z" />
    <path d="M80.658,134.533v-15.722c0-1.572-1.348-2.92-2.92-2.92c-1.572,0-2.92,1.348-2.92,2.92v10.107L62.691,116.79&#10;&#9;&#9;c-1.123-1.123-2.92-1.123-4.043,0l-33.689,33.689c-0.449,0.898-0.674,2.021-0.449,3.144c0.449,1.123,1.348,1.797,2.695,1.797h8.535&#10;&#9;&#9;v19.764c0,1.572,1.348,2.92,2.92,2.92h44.919c1.572,0,2.92-1.348,2.92-2.92V155.42h8.535c1.123,0,2.246-0.674,2.695-1.797&#10;&#9;&#9;c0.449-1.123,0.225-2.246-0.674-3.144L80.658,134.533z M63.813,172.265h-5.615V155.42h5.615V172.265z M83.353,149.805&#10;&#9;&#9;c-1.572,0-2.92,1.348-2.92,2.92v19.764h-11.23v-19.764c0-1.572-1.348-2.92-2.92-2.92h-11.23c-1.572,0-2.92,1.348-2.92,2.92v19.764&#10;&#9;&#9;h-11.23v-19.764c0-1.572-1.348-2.92-2.92-2.92h-4.492l26.951-26.951l14.823,14.823l0,0l12.128,12.128H83.353z" />
    <path d="M129.775,113.848L129.775,113.848c1.141,0,2.118-0.978,2.118-2.118c0-0.326,0-0.652-0.163-0.815&#10;&#9;&#9;l-4.074-15.48c-0.163-0.652-0.815-1.304-1.467-1.467c-0.652-0.163-1.467,0-1.955,0.489l-4.4,4.4&#10;&#9;&#9;c-6.192-5.54-14.014-8.473-22.324-8.473c-8.962,0-17.436,3.422-23.791,9.777c-0.815,0.815-0.815,2.118,0,2.933&#10;&#9;&#9;c0.815,0.815,2.118,0.815,2.933,0c5.54-5.54,13.036-8.636,20.858-8.636c7.17,0,14.014,2.607,19.391,7.333l-4.237,4.237&#10;&#9;&#9;c-0.489,0.489-0.652,1.304-0.489,1.955c0.163,0.652,0.815,1.304,1.467,1.467l15.806,4.237&#10;&#9;&#9;C129.449,113.685,129.612,113.848,129.775,113.848z" />
  </g>
</svg>