<?xml version="1.0" encoding="utf-8"?>
<!-- Generator: Adobe Illustrator 17.0.0, SVG Export Plug-In . SVG Version: 6.00 Build 0)  -->
<!DOCTYPE svg PUBLIC "-//W3C//DTD SVG 1.1//EN" "http://www.w3.org/Graphics/SVG/1.1/DTD/svg11.dtd">
<svg version="1.1" id="Layer_1" xmlns="http://www.w3.org/2000/svg" xmlns:xlink="http://www.w3.org/1999/xlink" x="0px" y="0px"
	 width="101.844px" height="149.074px" viewBox="-15.878 -40.093 101.844 149.074"
	 enable-background="new -15.878 -40.093 101.844 149.074" xml:space="preserve">
<path d="M85.967-35.181c0-2.709-2.205-4.912-4.912-4.912h-92.02c-2.707,0-4.912,2.203-4.912,4.912v25.56v0.001v88.125v25.562
	c0,2.709,2.205,4.913,4.912,4.913h92.02c2.709,0,4.912-2.205,4.912-4.912V78.521V-9.62c0-0.607-0.11-1.188-0.313-1.725
	c0.203,0.537,0.313,1.118,0.313,1.726V-35.181z M-11.803-35.181c0-0.462,0.376-0.838,0.838-0.838h92.02
	c0.462,0,0.838,0.376,0.838,0.838v20.724c-0.003,0-0.006,0-0.009,0c-0.001,0-0.004-0.001-0.007-0.001
	c-0.128-0.022-0.258-0.04-0.388-0.054c-0.145-0.012-0.288-0.022-0.434-0.022h-92.02c-0.146,0-0.289,0.009-0.432,0.022
	c-0.137,0.013-0.273,0.033-0.405,0.057V-35.181z M81.891,104.069c0,0.462-0.376,0.838-0.838,0.838h-92.019
	c-0.462,0-0.838-0.376-0.838-0.838V-9.62c0-0.462,0.376-0.838,0.838-0.838h92.02c0.462,0,0.838,0.376,0.838,0.838v113.69H81.891z"/>
<circle cx="74.269" cy="-22.517" r="4.032"/>
<circle cx="63.686" cy="-22.517" r="4.032"/>
<circle cx="52.6" cy="-23.021" r="4.032"/>
<g>
	<path d="M35.045,85.043c-20.852,0-37.819-16.966-37.819-37.82c0-20.852,16.965-37.819,37.819-37.819s37.819,16.966,37.819,37.819
		C72.863,68.079,55.899,85.043,35.045,85.043z M35.045,13.48C16.439,13.48,1.3,28.617,1.3,47.223
		c0,18.607,15.138,33.746,33.744,33.746S68.79,65.832,68.79,47.223C68.789,28.617,53.651,13.48,35.045,13.48z"/>
</g>
<path d="M35.046,19.945c-11.482,0-21.322,7.135-25.341,17.199H6.589c-1.588,0-2.876,1.287-2.876,2.876v14.408
	c0,1.588,1.288,2.876,2.876,2.876h3.116c4.018,10.065,13.859,17.199,25.341,17.199c15.042,0,27.276-12.236,27.276-27.279
	C62.322,32.183,50.088,19.945,35.046,19.945z M35.046,70.428c-9.272,0-17.288-5.468-21-13.347c1.036-0.435,1.765-1.459,1.765-2.652
	V40.02c0-1.194-0.729-2.217-1.765-2.652c3.713-7.879,11.729-13.347,21-13.347c12.794,0,23.202,10.408,23.202,23.202
	C58.248,60.018,47.84,70.428,35.046,70.428z"/>
<path d="M14.551-32.093c-3.479,0-6.301,2.82-6.301,6.3c0,3.478,2.82,6.3,6.301,6.3c3.478,0,6.298-2.82,6.298-6.3
	C20.85-29.273,18.029-32.093,14.551-32.093z M14.551-22.559c-1.787,0-3.235-1.448-3.235-3.233c0-1.787,1.448-3.235,3.235-3.235
	c1.786,0,3.233,1.448,3.233,3.235C17.785-24.006,16.336-22.559,14.551-22.559z"/>
<path d="M-1.072-32.093c-3.479,0-6.3,2.82-6.3,6.3c0,3.478,2.82,6.3,6.3,6.3c3.478,0,6.3-2.82,6.3-6.3
	C5.227-29.273,2.406-32.093-1.072-32.093z M-1.072-22.559c-1.786,0-3.235-1.448-3.235-3.233c0-1.787,1.449-3.235,3.235-3.235
	s3.233,1.448,3.233,3.235C2.162-24.006,0.714-22.559-1.072-22.559z"/>
</svg>
