<?xml version="1.0" encoding="utf-8"?>
<!-- Generator: Adobe Illustrator 17.0.0, SVG Export Plug-In . SVG Version: 6.00 Build 0)  -->
<!DOCTYPE svg PUBLIC "-//W3C//DTD SVG 1.1//EN" "http://www.w3.org/Graphics/SVG/1.1/DTD/svg11.dtd">
<svg version="1.1" id="Your_Icon" xmlns="http://www.w3.org/2000/svg" xmlns:xlink="http://www.w3.org/1999/xlink" x="0px" y="0px"
	 width="617.924px" height="484.154px" viewBox="-206.778 -247.467 617.924 484.154"
	 enable-background="new -206.778 -247.467 617.924 484.154" xml:space="preserve">
<g>
	<path d="M401.578-247.467H143.586H60.77h-257.993c-5.281,0-9.555,4.284-9.555,9.555v465.044c0,5.271,4.274,9.555,9.555,9.555
		H55.703h92.943h252.946c5.281,0,9.555-4.284,9.555-9.555v-465.034C411.143-243.184,406.859-247.467,401.578-247.467z
		 M384.098-228.357l-17.781,17.781c-0.465-0.067-0.884-0.271-1.355-0.271h-520.804l-17.51-17.52h557.452L384.098-228.357
		L384.098-228.357z M355.403-3.059H199.704v-188.668h155.688V-3.059C355.393-3.059,355.403-3.059,355.403-3.059z M180.477-3.059
		H27.704v-188.668h152.773V-3.059z M8.49-3.059h-156.137v-188.668H8.487V-3.059H8.49z M-147.647,16.168H8.487v164.778h-156.134
		V16.168z M27.704,16.168h152.773v164.778H27.704V16.168z M199.704,16.168h155.688v164.778h-34.837h-114.66h-6.192V16.168z
		 M-187.668-215.643l20.904,20.904v380.287l-20.904,20.894C-187.668,206.442-187.668-215.643-187.668-215.643z M-171.787,217.596
		l17.54-17.55h369.698h95.56h53.937c0.02,0,0.02,0,0.04,0l17.53,17.55H-171.787z M392.023,200.066l-17.52-17.51v-374.303
		l17.52-17.52V200.066z"/>
	<path d="M-91.819-86.126l53.097-53.103c2.945-2.925,2.935-7.674,0-10.603c-2.925-2.935-7.674-2.935-10.603,0l-53.103,53.093
		c-2.925,2.925-2.925,7.674,0,10.613C-99.504-83.201-94.755-83.201-91.819-86.126z"/>
	<path d="M-91.819-40.737l53.097-53.103c2.945-2.925,2.935-7.674,0-10.603c-2.925-2.935-7.674-2.935-10.603,0l-53.103,53.097
		c-2.925,2.935-2.925,7.684,0,10.613C-99.504-37.809-94.755-37.809-91.819-40.737z"/>
	<path d="M67.176-81.35c2.925,2.925,7.674,2.925,10.613,0l53.097-53.097c2.935-2.935,2.925-7.684,0-10.603
		c-2.935-2.935-7.674-2.935-10.613,0L67.176-91.953C64.257-89.025,64.257-84.276,67.176-81.35z"/>
	<path d="M76.731-56.126c-2.918,2.925-2.918,7.674,0,10.613c2.925,2.925,7.674,2.925,10.613,0l53.097-53.103
		c2.945-2.925,2.935-7.674,0-10.603c-2.925-2.925-7.664-2.925-10.603,0L76.731-56.126z"/>
	<path d="M253.37-86.126l53.097-53.103c2.935-2.925,2.925-7.674,0-10.603c-2.935-2.935-7.684-2.935-10.603,0l-53.103,53.097
		c-2.925,2.925-2.925,7.674,0,10.613C245.686-83.201,250.445-83.201,253.37-86.126z"/>
	<path d="M295.874-104.443l-53.107,53.097c-2.925,2.935-2.925,7.684,0,10.613c2.925,2.925,7.674,2.925,10.613,0l53.097-53.103
		c2.935-2.925,2.925-7.674,0-10.603C303.538-107.378,298.789-107.378,295.874-104.443z"/>
	<path d="M-88.242,104.971l53.093-53.093c2.945-2.935,2.935-7.684,0-10.613c-2.925-2.935-7.674-2.935-10.603,0l-53.103,53.093
		c-2.925,2.935-2.925,7.684,0,10.613C-95.919,107.906-91.17,107.906-88.242,104.971z"/>
	<path d="M-45.741,86.674l-53.103,53.097c-2.925,2.935-2.925,7.684,0,10.619c2.925,2.918,7.674,2.918,10.613-0.01l53.097-53.097
		c2.945-2.935,2.935-7.684,0-10.603C-38.074,83.739-42.813,83.739-45.741,86.674z"/>
	<path d="M130.891,56.654c2.935-2.925,2.925-7.674,0-10.603c-2.935-2.935-7.674-2.935-10.613,0L67.186,99.148
		c-2.918,2.925-2.918,7.674,0,10.613c2.925,2.935,7.674,2.935,10.613,0L130.891,56.654z"/>
	<path d="M140.436,81.888c-2.925-2.935-7.664-2.935-10.603,0l-53.103,53.103c-2.918,2.925-2.918,7.674,0,10.603
		c2.925,2.935,7.674,2.935,10.613,0l53.097-53.097C143.382,89.562,143.372,84.803,140.436,81.888z"/>
	<path d="M255.164,107.966l53.093-53.097c2.955-2.925,2.935-7.674,0-10.613c-2.925-2.935-7.664-2.935-10.603,0L244.561,97.36
		c-2.925,2.925-2.925,7.674,0,10.613C247.48,110.901,252.225,110.901,255.164,107.966z"/>
	<path d="M255.164,153.355l53.093-53.097c2.955-2.925,2.935-7.674,0-10.613c-2.925-2.925-7.664-2.925-10.603,0l-53.093,53.103
		c-2.925,2.935-2.925,7.684,0,10.613C247.49,156.294,252.225,156.284,255.164,153.355z"/>
</g>
</svg>
