<?xml version="1.0" encoding="utf-8"?>
<!-- Generator: Adobe Illustrator 19.1.0, SVG Export Plug-In . SVG Version: 6.00 Build 0)  -->
<svg version="1.1" id="Livello_1" xmlns="http://www.w3.org/2000/svg" xmlns:xlink="http://www.w3.org/1999/xlink" x="0px" y="0px"
	 viewBox="0 0 267.1 151.2" style="enable-background:new 0 0 267.1 151.2;" xml:space="preserve">
<style type="text/css">
	.st0{opacity:0.5;}
</style>
<g>
	<g>
		<path class="st0" d="M193.3,48.5c-4-8.5-9.3-16.1-16.3-22.4C164.3,14.7,149.3,9,132.3,8.8c-3.2-0.2-6.3,0.1-9.4,0.6
			c-3.1,0.4-6.2,1-9.2,1.9c-11.5,3.4-21.6,9.4-29.9,18.1c-5.3,5.6-9.5,11.9-12.8,18.9c-0.6,1.3-0.5,1.9,1.1,1.8c1.7-0.1,3.5,0,5.2,0
			c4-0.1,7.8,0.3,11.2,2.5c0.8,0.5,1.3,0.1,1.8-0.3c2-1.6,4.2-2.2,6.8-2.2c8.4,0.1,16.8,0,25.2,0c3.8,0,7.3,1.2,10.2,3.6
			c1,0.8,1.6,0.8,2.7,0c3.5-2.5,7.4-3.7,11.7-3.6c11.6,0.1,23.2,0.1,34.8,0.1c2.8,0,5.7-0.2,8.3,1.3c1.2,0.6,2.3-0.3,3.3-0.9
			C194,50.2,193.7,49.2,193.3,48.5z M153.6,34.1c0,0.2,0,0.3,0,0.5l0,2.5l-0.1,0c-0.5,2.8-3,5.1-5.8,5.1c0,0-0.1,0-0.1,0
			c-1.5,0-2.9-0.6-4-1.7c-0.6,0.9-1.7,1.4-2.9,1.4l0,0h0c-1.2,0-2.3-0.6-2.9-1.5c-1.4,1.2-3.2,1.8-4.9,1.8c-1.1,0-2.1-0.3-3-0.8
			c-0.2-0.1-0.3-0.2-0.4-0.3c-0.5,0.4-1,0.6-1.7,0.7c-0.2,0-0.5,0.1-0.7,0.1c-0.8,0-1.4-0.2-2-0.6c-0.6,0.4-1.3,0.6-2,0.6
			c-0.2,0-0.3,0-0.5,0c-0.8-0.1-1.5-0.5-2.1-1c0,0,0,0-0.1,0.1c-0.9,0.8-1.8,1-2.4,1c-0.9,0-1.6-0.4-2.1-0.7
			c-0.6,0.4-1.3,0.7-2.1,0.7c-0.1,0-0.2,0-0.4,0c-1.4-0.1-2.6-0.9-3.1-2.2c-0.3-0.8-0.3-1.6-0.3-2.1c0-0.1,0-0.2,0-0.3
			c0-0.3,0-0.7,0-1c0-1.1,0-2.2,0-3.4c0.2-3,2-5.1,4.8-5.7c0.5-0.1,0.9-0.1,1.4-0.1c1.7,0,3.3,0.7,4.4,2c1-1.3,2.5-2,4.3-2l0.1,0
			c1.5,0,2.8,0.5,3.8,1.4c0.6-0.7,1.5-1.3,3.1-1.4c0.3,0,0.6,0,0.8,0h0c2,0,3.7,0.6,4.9,1.6c0.7-0.9,1.7-1.4,2.8-1.4l0.1,0
			c1.3,0,2.1,0.5,2.5,1c0.1,0.1,0.2,0.3,0.3,0.4c1-0.9,2.4-1.4,3.9-1.4c0.4,0,0.8,0,1.1,0.1c2.8,0.4,4.6,2.4,4.9,5.4
			C153.6,33.1,153.6,33.6,153.6,34.1z"/>
	</g>
	<g>
		<path d="M263.5,81.7c-3.4-4.1-8-5.6-13.2-5.5c-1.4,0-1.9-0.2-1.5-1.7c0.4-1.7,0.7-3.4,1-5.1c1.8-10-4.9-18.7-14.6-19.2
			c-3-0.2-5.7,0.7-7.6,3c-0.7,0.8-1,0.7-1.8,0.1c-3-2.3-6.5-3.3-10.3-3.2c-3.4,0.1-6.8-0.1-10.2,0.1c-1.6,0.1-2.3-0.4-2.8-1.9
			c-12.9-33.4-47.5-53.4-82.7-47.2c-26.8,4.7-45.9,20-57,44.9c-1.2,2.7-2.4,4.5-5.6,5c-2.1,0.3-3.9,1.3-6-0.1c-0.9-0.6-2-0.5-3-0.5
			c-8.7,0-17.4-0.1-26.1,0C12.9,50.5,5,57.2,3.4,66c-0.9,5.1-1.7,10.3-2.6,15.4C0.7,82,1,82.9,0,83.1c0,2.2,0,4.5,0,6.7
			c0.7,0.1,0.6,0.7,0.7,1.1c2.1,6.9,7.2,11.3,14.4,11.5c10.8,0.3,21.5,0.5,32.3,0.1c3.8-0.1,7.5-1,10.5-3.4c1.5-1.1,1.9-1,2.5,0.8
			c11.2,33.8,45.5,55.6,80.8,50.7c28.4-3.9,48.5-19.5,60.3-45.7c1.3-3,2.2-6.1,3.3-9.3c2.6,3.5,5.9,5.8,10,6.6
			c3.8,0.8,7.5,0.6,10.3-2.8c0.7-0.8,1.1-0.3,1.7,0.1c2.6,1.9,5.5,3,8.7,3c7.6,0,15.2,0,22.7,0c4.1,0,7.5-2.6,8.3-6.5
			C267.8,90.7,267,85.9,263.5,81.7z M71.1,48.3c3.3-7,7.4-13.3,12.8-18.9c8.4-8.8,18.4-14.7,29.9-18.1c3-0.9,6.1-1.5,9.2-1.9
			c3.1-0.4,6.2-0.8,9.4-0.6c17.1,0.2,32,5.9,44.7,17.4c7,6.3,12.3,13.9,16.3,22.4c0.3,0.7,0.7,1.7,0,2.1c-0.9,0.6-2.1,1.5-3.3,0.9
			c-2.7-1.4-5.5-1.3-8.3-1.3c-11.6,0-23.2,0-34.8-0.1c-4.3,0-8.2,1.1-11.7,3.6c-1,0.7-1.6,0.8-2.7,0c-3-2.4-6.4-3.6-10.2-3.6
			c-8.4,0-16.8,0-25.2,0c-2.6,0-4.8,0.5-6.8,2.2c-0.5,0.5-1,0.9-1.8,0.3c-3.4-2.3-7.2-2.7-11.2-2.5c-1.7,0.1-3.5,0-5.2,0
			C70.5,50.2,70.5,49.6,71.1,48.3z M157.1,68.1c-4.3-0.3-6.9-3.1-7-7.3c0-1.5,0.3-2,1.9-2c5.4,0.1,10.7,0,16.1,0c4,0,8,0,12,0
			c1.3,0,2.7,0,4,0c1.5,0,1.7,0.4,1.2,1.8c-1.5,4-5.6,7.2-9.9,7.5c-2.9,0.2-4.7,1.8-5.2,4.7c-1.2,6.5-2.3,13-3.4,19.5
			c-0.3,1.5-0.8,2.1-2.4,2c-1.9-0.2-3.9-0.1-5.8,0c-1.3,0.1-1.7-0.2-1.4-1.6c1.2-6.1,2.2-12.3,3.3-18.4c0.1-0.6,0.2-1.2,0.3-1.9
			C161,69.4,159.9,68.2,157.1,68.1z M146.4,60c-1.5,8.5-3,17.1-4.6,25.6c-0.8,4.2-4.8,7.8-8.8,8.3c-1.5,0.2-1.7,0-1.6-1.3
			c1.2-6.7,2.4-13.5,3.6-20.3c0.3-1.9,0.6-3.8,1.1-5.7c1.1-4.2,4.8-7.4,9-7.9C146.3,58.4,146.6,58.8,146.4,60z M117.7,67.9
			c-4.7,0-9.4,0.1-14.2,0c-4.7-0.1-7.8-3.1-7.8-7.4c0-1.4,0.3-2.1,2-2c1,0,2,0.1,3.1,0.1c3.1,0,6.1,0,9.2,0c3.8,0,7.6,0,11.5,0
			c5.8,0,8.9,3.2,8.3,8.9c-0.3,3.2-0.5,6.6-2.8,9.2c-2.2,2.6-5,4.1-8.5,4.1c-4.1,0-8.2,0-12.3,0c-3.1,0-4.7,1.2-5.7,4.2
			c-1.5,4.4-3.9,8-8.8,9c-1.5,0.3-2.1,0.1-1.8-1.7c0.8-3.7,1.3-7.5,2-11.3c0.9-5.3,5.1-9,10.5-9c4.7,0,9.3,0,14,0c0.5,0,1,0,1.5,0
			c1.4-0.2,2-1.1,2-2.4C119.9,67.8,118.6,67.9,117.7,67.9z M22.9,84.9c4.1,0,8.2,0,12.3,0c4.5,0.1,7.5,3.1,7.5,7.5
			c0,1.3-0.3,1.9-1.7,1.8C38.7,94,36.6,94,34.4,94c-2.1,0-4.2,0-6.3,0c0,0,0,0,0,0c-4,0-7.9,0-11.9,0c-5.1-0.1-8.2-3.4-7.5-8.5
			c0.9-6.2,1.9-12.5,3.2-18.6c0.9-4.5,5.3-8,10-8c8.4-0.1,16.8,0,25.2-0.1c1.6,0,1.5,0.6,1.2,1.7c-1.1,4-5.6,7.5-9.7,7.5
			c-4.3,0-8.6,0-12.9,0c-3.2,0-5,1.6-5.6,4.7c-0.4,2.4-0.8,4.8-1.2,7.2C18.3,83.5,19.4,84.8,22.9,84.9z M57.7,85.7
			c-1.2,4.4-4.8,7.8-8.9,8.3c-1.2,0.1-1.8-0.1-1.5-1.5c1.5-8.3,3-16.6,4.5-25c1-5.1,5.3-8.8,10.6-9c2.9-0.1,5.8,0,8.8,0c0,0,0,0,0,0
			c2.6,0,5.1,0,7.7,0c6,0,9.3,3.8,8.4,9.7c-1.3,8-2.8,16-4.2,24c-0.3,1.8-1.1,2.1-2.7,1.6c-3.9-1-5.9-3.8-5.7-8
			c0.2-3.9-0.7-4.8-4.6-4.8c-2.1,0-4.2,0-6.3,0C60,81,58.6,82.1,57.7,85.7z M190,109.1c-7,11.9-16.7,21.1-29.3,27
			c-7.4,3.5-15.2,5.5-23.4,6.2c-12.8,1.1-24.8-1.4-36-7.3c-15.8-8.3-26.6-21-32.5-37.8c-0.2-0.5-0.2-1.1-0.3-1.6
			c2.3,2,4.3,4.3,7.2,5.4c5.3,2.1,10.8,1.7,16.3,1.1c7.2-0.7,12.3-4.8,15.2-11.5c0.5-1.2,1.3-1.6,2.6-1.6c4.2-0.1,8.3,0.4,12.5-0.4
			c1.1-0.2,1.3,0.3,1.2,1.3c-0.1,1.2-0.7,2.4-0.6,3.7c0.4,5.9,5,9.5,10.9,8.6c6.5-1,11.2-4.4,14.7-10c0.2,1.2,0.2,2.2,0.4,3.2
			c0.9,4.2,3.9,6.8,8.4,7c3.2,0.1,6.4,0.1,9.6,0c3.1-0.1,5.3-1.8,6.9-4.4c0.5-0.8,0.8-1.6,1.2-2.4c3.3,8,10.1,8.4,19.4,3.8
			C193.6,103,191.8,106.1,190,109.1z M223.4,67.9c-1.5,8.2-2.9,16.4-4.3,24.6c-0.2,1.5-0.9,1.7-2.1,1.5c-4.1-0.7-6.7-4.2-6.3-8.6
			c0.3-3-0.8-4.2-3.8-4.3c-2.5,0-5,0-7.5,0c-3.1,0-4.7,1.4-5.4,4.4c-1.1,4.4-3.8,7.3-8.3,8.4c-2.2,0.6-2.5,0.3-2.1-1.9
			c1.4-8.1,2.8-16.1,4.3-24.2c1-5.5,5.6-9.2,11.2-9.3c2.7,0,5.4,0,8.1,0c0,0,0,0,0,0c2.9,0,5.8-0.1,8.8,0
			C221.2,58.7,224.3,62.7,223.4,67.9z M257,94c-0.9,0-1.8,0-2.7,0c-2.7,0-5.3,0-8,0c-3.1,0-6.3,0-9.4,0c-5.5,0-8.7-3.6-7.8-9
			c1.4-8.3,3-16.6,4.4-25c0.3-1.5,0.9-1.6,2.1-1.3c4.4,0.9,6.7,4.4,5.8,9.3c-0.7,4-1.4,7.9-2.2,11.9c-0.6,3.2,0.8,4.9,4.1,4.9
			c2.8,0,5.6,0,8.3,0c4.3,0.1,7.2,3.3,7.1,7.6C258.7,93.6,258.3,94,257,94z"/>
	</g>
	<path d="M68.4,95.7c0-0.1-0.1-0.2-0.1-0.3C68.3,95.5,68.4,95.6,68.4,95.7C68.4,95.7,68.4,95.7,68.4,95.7z"/>
	<path d="M204.8,71.8c-1.9,0-3.9,0-5.8,0c-1.1,0-2-0.2-2.1-1.5c-0.1-1.2,0.4-2.3,1.8-2.3c2.4-0.1,4.8-0.1,7.3-0.1c1.8,0,3.6,0,5.4,0
		c1.1,0,2.2,0.2,2.2,1.6c0,1.3-0.8,2.3-2.2,2.3C209.2,71.9,207,71.8,204.8,71.8C204.8,71.8,204.8,71.8,204.8,71.8z"/>
	<path d="M68.6,71.8c-1.9,0-3.9,0-5.8,0c-1.2,0-2.2-0.2-2.2-1.6c0-1.3,0.7-2.3,2.1-2.3c2.6-0.1,5.1-0.1,7.7-0.1c1.5,0,3.1,0,4.6,0
		c1.1,0,2.4,0.1,2.3,1.6c0,1.5-0.9,2.3-2.4,2.3C72.7,71.9,70.7,71.9,68.6,71.8z"/>
	<path class="st0" d="M174.9,95.7c-0.4,0.8-0.7,1.7-1.2,2.4c-1.6,2.6-3.8,4.2-6.9,4.4c-3.2,0.1-6.4,0.1-9.6,0
		c-4.5-0.2-7.5-2.8-8.4-7c-0.2-1-0.3-2-0.4-3.2c-3.5,5.6-8.2,9.1-14.7,10c-5.9,0.9-10.5-2.7-10.9-8.6c-0.1-1.3,0.5-2.4,0.6-3.7
		c0.1-1-0.2-1.5-1.2-1.3c-4.1,0.8-8.3,0.3-12.5,0.4c-1.3,0-2,0.4-2.6,1.6c-2.9,6.7-7.9,10.7-15.2,11.5c-5.4,0.5-10.9,0.9-16.3-1.1
		c-3-1.1-4.9-3.4-7.2-5.4c0.1,0.5,0.2,1.1,0.3,1.6c5.9,16.8,16.7,29.5,32.5,37.8c11.3,5.9,23.3,8.4,36,7.3c8.2-0.7,16-2.7,23.4-6.2
		c12.6-5.9,22.2-15.1,29.3-27c1.8-3,3.6-6.1,4.3-9.7C185,104.1,178.2,103.6,174.9,95.7z"/>
	<g>
		<path d="M125.2,31.8C125.2,31.8,125.1,31.8,125.2,31.8c-0.9,0-0.9,0.7-0.9,1.4c0,0.6-0.1,1.2,0.9,1.2c0,0,0,0,0,0
			c0.8,0,1-0.4,0.9-1.2C126.1,32.6,126.1,31.8,125.2,31.8z"/>
		<path d="M133.9,31.8c-0.1,0-0.1,0-0.2,0c-1.1,0-0.7,0.9-0.8,1.6c0,0.4-0.1,0.9,0,1.2c0.3,0.9-0.9,2.6,0.9,2.6c0,0,0,0,0.1,0
			c1.8,0,0.6-1.8,1-2.5c0-0.5,0-0.9,0-1.2C134.9,32.6,135,31.9,133.9,31.8z"/>
		<path d="M153.6,32.6c-0.3-3-2.1-5-4.9-5.4c-0.4-0.1-0.8-0.1-1.1-0.1c-1.6,0-2.9,0.5-3.9,1.4c-0.1-0.1-0.2-0.3-0.3-0.4
			c-0.5-0.5-1.3-1-2.5-1l-0.1,0c-1.1,0-2.1,0.5-2.8,1.4c-1.2-1-2.9-1.6-4.9-1.6h0c-0.3,0-0.6,0-0.8,0c-1.6,0.1-2.5,0.8-3.1,1.4
			c-1-0.9-2.3-1.4-3.8-1.4l-0.1,0c-1.7,0-3.2,0.8-4.3,2c-1.1-1.3-2.6-2-4.4-2c-0.4,0-0.9,0-1.4,0.1c-2.8,0.6-4.6,2.6-4.8,5.7
			c-0.1,1.2-0.1,2.3,0,3.4c0,0.3,0,0.7,0,1c0,0.1,0,0.2,0,0.3c0,0.6,0,1.3,0.3,2.1c0.5,1.3,1.6,2.1,3.1,2.2c0.1,0,0.3,0,0.4,0
			c0.8,0,1.5-0.2,2.1-0.7c0.5,0.3,1.2,0.7,2.1,0.7c0.6,0,1.5-0.2,2.4-1c0,0,0,0,0.1-0.1c0.5,0.5,1.2,0.9,2.1,1c0.2,0,0.3,0,0.5,0
			c0.6,0,1.3-0.2,2-0.6c0.6,0.4,1.2,0.6,2,0.6c0.2,0,0.5,0,0.7-0.1c0.6-0.1,1.2-0.4,1.7-0.7c0.1,0.1,0.3,0.2,0.4,0.3
			c0.9,0.5,1.9,0.8,3,0.8c1.7,0,3.5-0.7,4.9-1.8c0.6,1,1.6,1.5,2.9,1.5h0l0,0c1.2,0,2.2-0.5,2.9-1.4c1.1,1.1,2.4,1.7,4,1.7
			c0,0,0.1,0,0.1,0c2.8-0.1,5.3-2.3,5.8-5.1l0.1,0l0-2.5c0-0.2,0-0.3,0-0.5C153.6,33.6,153.6,33.1,153.6,32.6z M119.5,32.4
			c-0.1,0.7,0,1.4,0,2.1c0,0,0,0.1,0,0.1c-0.2,0.3-0.4,0.6-0.7,0.9c-0.6,0.6-1.1,1-0.2,1.8c0.5,0.5,0.9,1.1,0.2,1.8
			c-0.2,0.2-0.5,0.3-0.7,0.3c-0.4,0-0.8-0.3-1.1-0.6c-0.6-0.5-1.1-1-1.8-1.7c-0.4,1-0.2,2.2-1.3,2.2c0,0-0.1,0-0.2,0
			c-1.3-0.1-1-1.3-1.1-2.1c0-1.4-0.1-2.8,0-4.2c0.1-1.7,1-3,2.8-3.4c0.3-0.1,0.6-0.1,0.9-0.1c1.2,0,2.2,0.6,2.9,1.7
			c0.1,0.2,0.2,0.4,0.3,0.6C119.6,32.1,119.6,32.2,119.5,32.4z M127.4,39.4c-0.1,0-0.2,0-0.3,0c-0.6,0-0.9-0.4-1-1
			c-0.1-0.7-0.4-1.2-1.1-1.2c0,0-0.1,0-0.1,0c-0.9,0-0.6,0.8-0.7,1.3c-0.2,0.5-0.4,0.9-1,0.9c-0.1,0-0.1,0-0.2,0
			c-0.7-0.1-0.9-0.5-1-1.2c0-1,0-1.9,0-2.9c0,0,0,0,0,0c0-0.1,0-0.1,0-0.2c0-0.8-0.1-1.7,0-2.5c0-0.3,0.1-0.6,0.2-0.8
			c0.4-1.3,1.5-2.2,2.9-2.2c0,0,0,0,0,0c1.6,0,2.7,0.8,3,2.2c0,0,0,0,0,0c0,0.2,0,0.4,0,0.5c-0.1,0.6-0.1,1.1,0,1.6
			c0,0.2,0,0.3,0,0.5c0,0.3,0,0.6,0,0.9c0,0.8,0,1.6,0,2.4l0,0.1c0,0.2,0,0.5,0.1,0.8C128.1,39.1,127.9,39.3,127.4,39.4z
			 M132.9,39.7c-0.6,0-1.2-0.1-1.7-0.4c-0.2-0.1-0.4-0.3-0.5-0.5c-0.1-0.3-0.1-0.6-0.1-0.9c0-1.1,0-2.2,0-3.3c0-0.6-0.1-1.3,0-1.9
			c0-0.4,0-0.8,0-1.2c-0.1-0.9,0-1.8,1.6-1.9c0.2,0,0.4,0,0.7,0c2.2,0,3.9,0.9,4.3,2.6c0,1.5,0,3.1,0,4.8
			C136.8,38.5,134.8,39.7,132.9,39.7z M141.8,31.9c0,0.8,0,1.7,0,2.5c0,0,0,0,0,0c0,0.9,0,1.8,0,2.7c0,0.3,0,0.6,0,0.8
			c0,0.8-0.2,1.4-1.1,1.4c0,0,0,0,0,0c-0.8,0-1-0.7-1-1.3c0-0.3,0-0.7,0-1c0-1.7,0-3.5,0-5.2c0-0.3,0-0.6,0-0.9c0-0.7,0.2-1.3,1-1.3
			c0,0,0,0,0,0c0.9,0,1.1,0.6,1.1,1.4C141.8,31.3,141.8,31.6,141.8,31.9z M151.1,34.5C151.1,34.5,151.1,34.5,151.1,34.5
			c0,0.6,0,1.1,0,1.7c-0.1,1.8-1.6,3.4-3.4,3.5c0,0,0,0-0.1,0c-1.5,0-2.6-1-3.1-2.5c-0.1-0.1-0.1-0.3-0.1-0.4l0-2.3c0-0.3,0-0.7,0-1
			c0-0.4,0-0.8,0-1.2c0-0.1,0.1-0.2,0.1-0.3c0.5-1.6,1.7-2.3,3.2-2.3c0.3,0,0.5,0,0.8,0.1c1.7,0.3,2.6,1.5,2.8,3.2
			C151.2,33.4,151.1,34,151.1,34.5z"/>
		<path d="M147.6,31.8C147.6,31.8,147.6,31.8,147.6,31.8c-0.8,0-1.1,0.5-1.2,1.2c-0.1,0.5-0.1,1-0.1,1.4c0,0,0,0,0,0
			c0,0.4,0,0.8,0,1.2c0,0.8,0.3,1.5,1.3,1.6c0,0,0,0,0.1,0c0.9,0,1.3-0.6,1.3-1.5c0-1,0-1.9-0.1-2.9
			C148.8,32.2,148.3,31.8,147.6,31.8z"/>
		<path d="M115.9,31.8c-0.8,0-0.9,0.7-0.9,1.4c0,0.6-0.1,1.2,0.9,1.2c0.9,0,1-0.4,1-1.2C116.8,32.6,116.8,31.8,115.9,31.8z"/>
	</g>
</g>
</svg>
