<?xml version="1.0" encoding="utf-8"?>
<!-- Generator: Adobe Illustrator 17.0.0, SVG Export Plug-In . SVG Version: 6.00 Build 0)  -->
<!DOCTYPE svg PUBLIC "-//W3C//DTD SVG 1.1//EN" "http://www.w3.org/Graphics/SVG/1.1/DTD/svg11.dtd">
<svg version="1.1" id="Capa_1" xmlns="http://www.w3.org/2000/svg" xmlns:xlink="http://www.w3.org/1999/xlink" x="0px" y="0px"
	 width="251.92px" height="174.064px" viewBox="-74.664 -52.587 251.92 174.064"
	 enable-background="new -74.664 -52.587 251.92 174.064" xml:space="preserve">
<g>
	<path d="M-30.045-46.401c5.982,0,12.056,1.402,17.727,4.361l162.716,84.86c18.807,9.808,26.101,33.004,16.293,51.811
		c-6.849,13.136-20.226,20.654-34.082,20.654c-5.982,0-12.056-1.402-17.727-4.361l-162.719-84.86
		c-18.807-9.808-26.101-33.004-16.293-51.811C-57.277-38.882-43.9-46.401-30.045-46.401 M0.518-9.187c1.744,0,3.426-0.946,4.288-2.6
		c1.234-2.365,0.316-5.285-2.049-6.519c-0.714-0.372-1.478-0.549-2.231-0.549c-1.744,0-3.426,0.946-4.288,2.6
		c-1.234,2.365-0.316,5.285,2.052,6.516C-0.999-9.363-0.235-9.187,0.518-9.187 M-19.582-7.605c1.744,0,3.426-0.946,4.288-2.6
		c1.234-2.368,0.316-5.285-2.052-6.519c-0.714-0.372-1.478-0.549-2.231-0.549c-1.744,0-3.426,0.946-4.288,2.598
		c-1.234,2.365-0.316,5.285,2.049,6.522C-21.099-7.782-20.335-7.605-19.582-7.605 M-37.829-6.15c1.744,0,3.426-0.946,4.288-2.6
		c1.234-2.365,0.316-5.285-2.052-6.519c-0.714-0.372-1.478-0.549-2.228-0.549c-1.744,0-3.429,0.946-4.291,2.598
		c-1.232,2.365-0.313,5.285,2.052,6.519C-39.343-6.326-38.582-6.15-37.829-6.15 M-8.926,8.923c1.744,0,3.426-0.946,4.288-2.598
		c1.234-2.365,0.316-5.285-2.052-6.519C-7.403-0.566-8.167-0.742-8.92-0.742c-1.744,0-3.426,0.946-4.288,2.598
		c-1.234,2.365-0.316,5.285,2.049,6.519C-10.443,8.747-9.679,8.923-8.926,8.923 M-28.578,9.645c1.744,0,3.426-0.946,4.288-2.598
		c1.234-2.365,0.316-5.285-2.052-6.519c-0.714-0.372-1.478-0.549-2.231-0.549c-1.744,0-3.426,0.946-4.288,2.598
		c-1.234,2.368-0.316,5.285,2.049,6.519C-30.095,9.469-29.331,9.645-28.578,9.645 M-17.925,26.174c1.744,0,3.426-0.946,4.288-2.598
		c1.234-2.365,0.316-5.285-2.052-6.519c-0.714-0.372-1.478-0.549-2.231-0.549c-1.744,0-3.429,0.946-4.288,2.6
		c-1.234,2.365-0.316,5.285,2.049,6.519C-19.439,25.998-18.678,26.174-17.925,26.174 M122.614,54.534c1.744,0,3.426-0.946,4.288-2.6
		c1.234-2.365,0.316-5.285-2.049-6.519c-0.714-0.372-1.478-0.549-2.231-0.549c-1.744,0-3.426,0.946-4.288,2.598
		c-1.234,2.365-0.316,5.285,2.049,6.519C121.097,54.358,121.861,54.534,122.614,54.534 M133.268,71.063
		c1.744,0,3.429-0.946,4.291-2.6c1.234-2.368,0.316-5.285-2.052-6.519c-0.714-0.372-1.478-0.549-2.231-0.549
		c-1.744,0-3.426,0.946-4.288,2.598c-1.234,2.365-0.316,5.285,2.049,6.519C131.751,70.886,132.515,71.063,133.268,71.063
		 M113.615,71.785c1.744,0,3.426-0.946,4.288-2.598c1.234-2.368,0.316-5.285-2.049-6.519c-0.714-0.372-1.478-0.549-2.231-0.549
		c-1.744,0-3.426,0.946-4.288,2.598c-1.234,2.368-0.316,5.285,2.052,6.519C112.101,71.609,112.862,71.785,113.615,71.785
		 M142.519,86.858c1.744,0,3.426-0.946,4.288-2.598c1.234-2.368,0.316-5.285-2.052-6.519c-0.714-0.372-1.478-0.549-2.231-0.549
		c-1.744,0-3.426,0.946-4.288,2.598c-1.234,2.368-0.316,5.285,2.049,6.519C141.001,86.682,141.766,86.858,142.519,86.858
		 M124.271,88.314c1.744,0,3.426-0.946,4.288-2.6c1.234-2.365,0.316-5.285-2.049-6.519c-0.714-0.372-1.478-0.549-2.231-0.549
		c-1.744,0-3.426,0.946-4.288,2.598c-1.234,2.368-0.316,5.285,2.049,6.519C122.754,88.137,123.518,88.314,124.271,88.314
		 M104.171,89.895c1.744,0,3.426-0.946,4.288-2.598c1.234-2.365,0.316-5.285-2.049-6.519c-0.714-0.372-1.478-0.549-2.231-0.549
		c-1.744,0-3.426,0.946-4.288,2.598c-1.234,2.365-0.316,5.285,2.052,6.519C102.657,89.719,103.418,89.895,104.171,89.895
		 M-30.045-52.587c-16.694,0-31.856,9.189-39.571,23.98c-11.37,21.802-2.883,48.788,18.919,60.161l162.716,84.86
		c6.351,3.311,13.469,5.064,20.59,5.064c16.694,0,31.856-9.189,39.571-23.98c5.509-10.561,6.572-22.636,3.001-33.998
		c-3.574-11.361-11.359-20.654-21.92-26.16L-9.455-47.526C-15.806-50.837-22.924-52.587-30.045-52.587L-30.045-52.587z"/>
</g>
<path d="M29.489-3.603l65.543,34.857L73.104,72.488L7.561,37.631L29.489-3.603 M29.489-9.792c-0.607,0-1.218,0.09-1.808,0.272
	c-1.57,0.479-2.883,1.562-3.656,3.012L2.097,34.725c-1.604,3.017-0.459,6.765,2.558,8.369l65.543,34.857
	c0.904,0.481,1.901,0.725,2.905,0.725c0.607,0,1.218-0.09,1.808-0.272c1.57-0.479,2.883-1.562,3.656-3.012l21.928-41.233
	c1.604-3.017,0.459-6.765-2.558-8.369L32.394-9.067C31.493-9.545,30.494-9.792,29.489-9.792L29.489-9.792z"/>
</svg>
