<?xml version="1.0" encoding="utf-8"?>
<!-- Generator: Adobe Illustrator 17.0.0, SVG Export Plug-In . SVG Version: 6.00 Build 0)  -->
<!DOCTYPE svg PUBLIC "-//W3C//DTD SVG 1.1//EN" "http://www.w3.org/Graphics/SVG/1.1/DTD/svg11.dtd">
<svg version="1.1" id="Your_Icon" xmlns="http://www.w3.org/2000/svg" xmlns:xlink="http://www.w3.org/1999/xlink" x="0px" y="0px"
	 width="765.041px" height="489.565px" viewBox="-73.088 -2.662 765.041 489.565"
	 enable-background="new -73.088 -2.662 765.041 489.565" xml:space="preserve">
<g>
	<g>
		<rect x="38.712" y="-2.662" width="21.183" height="91.793"/>
	</g>
	<g>
		<rect x="292.909" y="-2.662" width="21.183" height="91.793"/>
	</g>
</g>
<g>
	<g>
		<path d="M536.61,415.116c-85.656,0-155.343-69.686-155.343-155.343S450.954,104.43,536.61,104.43s155.343,69.686,155.343,155.343
			S622.266,415.116,536.61,415.116z M536.61,125.613c-73.975,0-134.16,60.184-134.16,134.16s60.184,134.16,134.16,134.16
			s134.16-60.184,134.16-134.16S610.585,125.613,536.61,125.613z"/>
	</g>
	<g>
		<g>
			
				<rect x="557.037" y="174.298" transform="matrix(0.7071 0.7071 -0.7071 0.7071 328.0088 -334.373)" width="21.182" height="108.915"/>
		</g>
		<g>
			
				<rect x="519.775" y="264.255" transform="matrix(0.7071 0.7071 -0.7071 0.7071 355.9303 -309.5985)" width="63.817" height="21.182"/>
		</g>
	</g>
</g>
<g>
	<g>
		<g>
			<rect x="-8.95" y="207.638" width="370.704" height="21.183"/>
		</g>
		<g>
			<rect x="-8.95" y="290.401" width="370.704" height="21.183"/>
		</g>
		<g>
			<rect x="-8.95" y="373.162" width="370.704" height="21.183"/>
		</g>
	</g>
	<g>
		<g>
			<rect x="27.532" y="176.217" width="21.183" height="248.49"/>
		</g>
		<g>
			<rect x="119.718" y="176.217" width="21.183" height="248.49"/>
		</g>
		<g>
			<rect x="211.904" y="176.217" width="21.183" height="248.49"/>
		</g>
		<g>
			<rect x="304.089" y="176.217" width="21.183" height="248.49"/>
		</g>
	</g>
</g>
<path d="M404.709,369.733v39.859c0,30.948-25.178,56.127-56.126,56.127H4.223c-30.948,0-56.127-25.179-56.127-56.127v-299.64
	c0-30.948,25.179-56.126,56.127-56.126h344.36c30.948,0,56.126,25.178,56.126,56.126v39.86c6.428-7.697,13.524-14.813,21.183-21.284
	v-18.576c0-42.628-34.681-77.309-77.309-77.309H4.223c-42.629,0-77.31,34.681-77.31,77.309v299.64
	c0,42.629,34.681,77.31,77.31,77.31h344.36c42.628,0,77.309-34.681,77.309-77.31v-18.575
	C418.232,384.546,411.137,377.431,404.709,369.733z"/>
<path d="M415.3,138.214V126.79H-62.496v21.183h468.799C409.188,144.615,412.168,141.34,415.3,138.214z"/>
</svg>
