<?xml version="1.0" encoding="utf-8"?>
<!-- Generator: Adobe Illustrator 17.0.0, SVG Export Plug-In . SVG Version: 6.00 Build 0)  -->
<!DOCTYPE svg PUBLIC "-//W3C//DTD SVG 1.1//EN" "http://www.w3.org/Graphics/SVG/1.1/DTD/svg11.dtd">
<svg version="1.1" id="Layer_1" xmlns="http://www.w3.org/2000/svg" xmlns:xlink="http://www.w3.org/1999/xlink" x="0px" y="0px"
	 width="394.292px" height="399.6px" viewBox="52.852 0.2 394.292 399.6" enable-background="new 52.852 0.2 394.292 399.6"
	 xml:space="preserve">
<path d="M417.267,350.167H82.717c-8.567,0-16.717-3.683-22.4-10.083c-5.65-6.417-8.3-14.933-7.233-23.467l8.517-68.1
	c0.25-2.083,1.267-3.933,2.833-5.283l16.1-13.8l15.55-176.8C98.717,22.75,123.317,0.2,153.317,0.2h193.367
	c30.017,0,54.6,22.567,57.233,52.433l15.6,177.017l16.417,14.967c1.45,1.333,2.4,3.133,2.65,5.15l8.333,66.9
	c1.05,8.5-1.583,17.017-7.25,23.45C433.983,346.483,425.817,350.167,417.267,350.167L417.267,350.167z M77.733,253.75l-8.117,64.917
	c-0.467,3.817,0.7,7.55,3.183,10.383c2.517,2.833,6.117,4.5,9.9,4.5h334.55c3.783,0,7.383-1.667,9.9-4.5
	c2.517-2.833,3.683-6.6,3.2-10.383l-7.983-63.8l-16.533-15.133c-1.55-1.4-2.5-3.317-2.7-5.4l-15.867-180.25
	C385.4,32.883,367.933,16.9,346.633,16.9H153.267c-21.3,0-38.767,15.983-40.633,37.183l-15.85,180.2
	c-0.183,2.183-1.217,4.167-2.867,5.6L77.733,253.75L77.733,253.75z"/>
<path d="M249.983,237.167c-48.217,0-73.717-7.433-113.75-33.267c-2.55-1.633-4-4.517-3.8-7.55c4.017-59.5,6.233-90.55,10.85-154.517
	c0.317-4.467,3.633-7.5,8.55-7.733c38.817,1.083,58.083,1.367,98.15,1.367c39.6,0,58.867-0.317,98.167-1.383
	c4.517,0.3,8.217,3.3,8.533,7.733c4.617,64,6.867,95,10.85,154.533c0.217,3.05-1.25,5.917-3.817,7.55
	C323.517,229.683,298.017,237.167,249.983,237.167L249.983,237.167z M149.4,192.55c34.85,21.883,57.333,27.95,100.583,27.95
	c43.083,0,65.583-6.1,100.567-27.983c-3.65-53.883-5.833-84.633-9.933-141.6c-33.983,0.95-54.1,1.15-90.633,1.15
	c-36.95,0-57.083-0.283-90.65-1.117C155.217,107.933,153.05,138.667,149.4,192.55z"/>
<path d="M131.233,296.717c-13.783,0-25-11.217-25-25s11.217-25,25-25c13.783,0,25,11.217,25,25S145.017,296.717,131.233,296.717z
	 M131.233,263.383c-4.6,0-8.333,3.75-8.333,8.333c0,4.583,3.733,8.333,8.333,8.333c4.6,0,8.333-3.75,8.333-8.333
	C139.567,267.133,135.833,263.383,131.233,263.383L131.233,263.383z"/>
<path d="M364.567,296.717c-13.783,0-25-11.217-25-25s11.217-25,25-25s25,11.217,25,25S378.35,296.717,364.567,296.717z
	 M364.567,263.383c-4.6,0-8.333,3.75-8.333,8.333c0,4.583,3.733,8.333,8.333,8.333c4.6,0,8.333-3.75,8.333-8.333
	C372.9,267.133,369.167,263.383,364.567,263.383L364.567,263.383z"/>
<path d="M183.317,266.833H316.65V283.5H183.317C183.317,283.5,183.317,266.833,183.317,266.833z"/>
<path d="M183.317,300.167H316.65v16.667H183.317C183.317,316.833,183.317,300.167,183.317,300.167z"/>
<path d="M116.65,399.8c-18.383,0-33.333-14.8-33.333-32.983V350.15h16.667v16.667c0,9.15,7.317,16.317,16.667,16.317
	c9.033,0,16.667-7.783,16.667-17.017v-15.95h16.667v15.983C149.983,384.717,135.033,399.8,116.65,399.8L116.65,399.8z"/>
<path d="M383.317,399.8c-18.383,0-33.333-14.8-33.333-32.983V350.15h16.667v16.667c0,9.15,7.3,16.317,16.667,16.317
	c9.033,0,16.667-7.783,16.667-17.017v-15.95h16.667v15.983C416.65,384.717,401.7,399.8,383.317,399.8L383.317,399.8z"/>
<path d="M184.7,90.467c-2.333,0-4.667-0.983-6.3-2.883c-3.017-3.5-2.617-8.75,0.867-11.767l15.283-13.183
	c3.467-3.033,8.75-2.617,11.75,0.867c3.017,3.5,2.617,8.733-0.867,11.767L190.15,88.45C188.583,89.8,186.633,90.467,184.7,90.467
	L184.7,90.467z"/>
<path d="M184.7,123.8c-2.25,0-4.5-0.917-6.133-2.7c-3.117-3.383-2.883-8.667,0.5-11.767l50.7-46.517
	c3.367-3.117,8.65-2.917,11.767,0.5c3.117,3.383,2.883,8.667-0.5,11.75l-50.7,46.517C188.75,123.067,186.733,123.8,184.7,123.8
	L184.7,123.8z"/>
</svg>
