<?xml version="1.0" standalone="no"?>
<!DOCTYPE svg PUBLIC "-//W3C//DTD SVG 20010904//EN"
 "http://www.w3.org/TR/2001/REC-SVG-20010904/DTD/svg10.dtd">
<svg version="1.0" xmlns="http://www.w3.org/2000/svg"
 width="900.000000pt" height="912.000000pt" viewBox="0 0 900.000000 912.000000"
 preserveAspectRatio="xMidYMid meet">
<metadata>
Created by potrace 1.10, written by Peter Selinger 2001-2011
</metadata>
<g transform="translate(0.000000,912.000000) scale(0.100000,-0.100000)"
stroke="none">
<path d="M4350 8981 c-63 -9 -131 -25 -150 -34 -19 -8 -46 -18 -60 -22 -45
-12 -209 -96 -235 -121 -15 -13 -41 -31 -58 -39 -18 -8 -70 -38 -117 -67 -121
-73 -177 -103 -425 -226 -317 -158 -395 -193 -589 -263 -61 -22 -115 -44 -120
-48 -6 -5 -28 -12 -50 -15 -21 -4 -54 -14 -75 -23 -59 -26 -72 -30 -161 -53
-47 -12 -94 -26 -105 -30 -11 -4 -65 -18 -120 -30 -55 -12 -111 -26 -125 -32
-14 -6 -37 -12 -51 -14 -39 -5 -115 -32 -188 -66 -256 -119 -465 -345 -565
-610 -13 -36 -22 -69 -19 -72 4 -3 -1 -14 -9 -23 -9 -10 -18 -34 -21 -53 -9
-71 -90 -390 -110 -440 -4 -8 -24 -69 -45 -135 -43 -132 -110 -311 -148 -393
-13 -29 -24 -55 -24 -57 0 -2 -16 -39 -36 -82 -34 -74 -67 -147 -93 -203 -6
-14 -33 -65 -60 -115 -122 -226 -178 -324 -288 -500 -34 -56 -65 -110 -69
-120 -4 -11 -12 -27 -19 -35 -34 -43 -103 -250 -113 -340 -6 -58 -6 -241 1
-305 9 -94 64 -256 116 -345 5 -8 38 -64 73 -123 34 -59 85 -145 112 -190 27
-45 64 -109 82 -142 42 -77 254 -502 254 -510 0 -3 16 -37 35 -76 19 -39 35
-78 35 -86 0 -8 6 -27 14 -41 46 -90 132 -335 206 -592 12 -41 26 -88 31 -105
16 -55 49 -203 49 -222 0 -10 7 -28 15 -40 9 -12 14 -26 13 -30 -5 -14 35
-112 79 -197 86 -165 239 -325 404 -423 126 -75 279 -133 351 -133 15 0 29 -4
32 -9 3 -5 23 -12 43 -15 21 -4 52 -11 68 -16 17 -5 68 -19 115 -31 47 -12
125 -35 173 -50 49 -16 96 -29 106 -29 9 0 21 -4 26 -9 6 -4 35 -16 65 -26 68
-22 234 -83 275 -101 17 -7 48 -20 70 -30 50 -21 203 -93 319 -150 49 -24 95
-44 102 -44 8 0 14 -4 14 -8 0 -4 26 -20 58 -36 31 -15 91 -47 132 -72 41 -24
86 -49 100 -56 14 -7 55 -32 93 -55 37 -24 70 -43 73 -43 3 0 18 -9 32 -20 38
-29 122 -83 152 -97 88 -41 176 -74 222 -84 29 -6 67 -15 85 -20 41 -13 335
-13 376 0 18 5 57 15 87 21 30 6 73 19 95 29 22 10 60 26 85 36 25 11 83 44
130 74 99 65 144 92 220 134 30 16 60 33 65 38 16 12 137 75 300 157 83 41
152 78 153 83 2 5 10 9 17 9 8 0 58 21 112 46 54 25 114 52 133 60 19 9 48 22
63 30 16 8 33 14 39 14 5 0 24 7 41 15 18 8 68 26 112 41 44 14 100 34 125 44
25 9 86 30 135 45 50 16 95 32 101 37 7 5 16 7 20 6 5 -1 41 5 79 15 39 10 88
23 110 28 22 6 61 17 86 24 26 8 53 15 62 15 21 0 184 53 242 79 89 40 218
134 305 221 97 97 161 188 218 310 47 99 59 141 116 380 14 58 32 130 41 160
9 30 22 78 30 105 17 67 76 239 120 350 19 49 35 95 35 102 0 6 7 24 15 40 12
23 74 161 116 263 12 29 24 53 85 170 24 47 48 96 54 110 6 14 18 39 28 55 10
17 31 53 46 80 64 115 211 361 227 380 29 34 105 195 137 290 64 194 67 398 7
610 -20 70 -102 247 -143 308 -87 129 -218 361 -335 592 -75 150 -153 319
-206 445 -30 73 -56 142 -107 285 -14 39 -29 79 -33 90 -5 11 -18 54 -30 95
-12 41 -26 89 -32 105 -6 17 -26 93 -45 170 -66 268 -80 315 -128 415 -22 47
-50 98 -63 113 -13 16 -23 34 -23 41 0 14 -110 139 -174 199 -23 21 -74 61
-115 89 -132 90 -260 140 -516 198 -155 35 -248 62 -450 130 -350 118 -494
181 -953 415 -33 17 -66 35 -73 41 -8 6 -41 26 -74 43 -83 44 -125 70 -154 92
-13 10 -27 19 -32 19 -4 0 -36 19 -71 43 -242 165 -516 231 -788 188z m431
-736 c74 -2 148 -9 163 -15 15 -5 44 -10 64 -10 33 0 117 -14 252 -40 74 -14
184 -42 325 -82 22 -6 45 -15 50 -18 6 -4 24 -10 40 -14 65 -14 326 -118 410
-163 76 -41 141 -73 147 -73 22 0 358 -209 449 -280 186 -144 192 -148 325
-268 102 -92 322 -327 390 -417 21 -27 42 -53 46 -56 4 -3 25 -30 46 -61 65
-98 128 -192 148 -222 10 -16 27 -41 36 -55 46 -69 218 -410 218 -432 0 -10 4
-20 9 -24 5 -3 15 -22 22 -43 6 -20 20 -55 30 -77 10 -22 34 -92 55 -155 20
-63 40 -124 44 -135 11 -25 59 -223 70 -288 5 -26 12 -58 17 -70 4 -12 8 -31
9 -42 1 -11 5 -51 9 -90 4 -38 12 -90 19 -115 24 -83 27 -622 6 -795 -6 -49
-15 -121 -20 -160 -8 -67 -41 -240 -60 -317 -6 -21 -14 -55 -20 -75 -5 -21
-12 -51 -15 -68 -4 -16 -13 -43 -20 -60 -7 -16 -17 -43 -20 -60 -35 -154 -201
-533 -325 -744 -28 -46 -50 -86 -50 -88 0 -8 -123 -185 -182 -263 -165 -216
-417 -485 -582 -620 -200 -163 -473 -350 -626 -428 -25 -13 -56 -30 -70 -38
-55 -30 -291 -133 -405 -176 -110 -41 -225 -78 -241 -78 -8 0 -22 -4 -32 -10
-17 -9 -181 -48 -297 -70 -33 -6 -76 -15 -95 -20 -19 -5 -84 -14 -145 -19 -60
-6 -156 -15 -213 -21 -130 -13 -431 -13 -519 0 -69 9 -230 29 -293 35 -19 2
-69 10 -110 19 -41 9 -104 21 -140 27 -36 6 -74 15 -85 19 -11 5 -78 25 -150
45 -71 21 -149 46 -172 56 -24 11 -45 19 -49 19 -6 0 -123 45 -159 60 -97 43
-223 102 -235 110 -8 5 -29 16 -47 24 -108 49 -361 214 -558 364 -196 150
-403 357 -631 628 -56 68 -261 374 -299 449 -9 17 -24 44 -35 60 -11 17 -25
41 -31 55 -7 14 -36 75 -65 135 -92 193 -174 427 -254 725 -6 19 -19 85 -30
145 -12 61 -25 133 -31 160 -45 235 -45 911 1 1085 5 19 14 69 21 110 26 161
92 418 129 505 5 11 18 52 30 90 12 39 28 84 36 102 8 17 14 34 14 37 0 15
170 363 205 421 14 22 34 56 45 75 33 57 62 102 128 198 34 50 62 94 62 97 0
4 16 25 35 48 19 23 51 62 71 87 193 241 478 509 718 677 17 12 47 34 66 48
46 33 199 135 204 135 3 0 47 24 98 53 147 82 377 190 463 217 22 7 58 20 80
30 61 25 227 76 345 106 159 39 181 43 400 75 116 17 442 37 535 33 50 -3 151
-6 226 -9z"/>
<path d="M2260 5903 c-83 -30 -181 -88 -226 -135 -59 -62 -110 -149 -119 -204
-3 -21 -11 -59 -17 -84 -8 -35 -7 -62 6 -124 25 -118 54 -173 135 -255 62 -64
166 -121 234 -127 22 -2 56 -8 76 -14 26 -7 52 -6 93 4 32 7 60 11 62 8 8 -8
117 39 164 70 35 24 42 34 42 61 0 41 -9 54 -41 62 -17 4 -37 0 -60 -14 -144
-86 -264 -93 -403 -23 -63 31 -102 71 -146 147 -34 58 -35 64 -35 160 0 92 2
104 30 153 109 199 345 261 536 141 57 -36 82 -36 108 -3 18 23 19 29 8 57
-18 45 -121 103 -207 116 -67 11 -214 13 -240 4z"/>
<path d="M3253 5872 c-12 -9 -29 -37 -38 -62 -10 -25 -23 -58 -30 -75 -7 -16
-34 -88 -60 -160 -25 -71 -53 -143 -60 -160 -30 -66 -120 -316 -135 -375 -16
-63 34 -103 84 -65 10 8 35 56 56 107 l37 93 173 3 c105 1 177 -1 183 -7 6 -6
16 -25 23 -43 6 -18 21 -57 32 -87 11 -30 28 -61 38 -68 46 -34 101 2 90 59
-5 30 -51 159 -75 213 -5 11 -19 47 -31 80 -13 33 -27 71 -33 85 -6 14 -25 66
-43 115 -17 50 -42 115 -54 145 -12 30 -26 71 -32 90 -5 19 -17 43 -26 53 -8
9 -12 20 -9 24 10 9 -33 53 -52 53 -9 0 -26 -8 -38 -18z m54 -274 c6 -7 20
-43 32 -80 13 -37 27 -70 32 -73 5 -4 9 -14 9 -23 0 -9 7 -30 15 -46 8 -15 15
-38 15 -50 0 -20 -4 -21 -117 -19 -131 2 -143 9 -117 68 23 54 67 169 76 203
9 34 37 43 55 20z"/>
<path d="M3865 5856 c-12 -28 -15 -112 -15 -450 l0 -415 26 -20 c24 -19 28
-19 55 -6 16 9 31 25 34 38 3 12 6 90 8 172 l2 150 106 3 c85 2 108 0 119 -13
7 -8 18 -15 25 -15 25 0 65 -60 65 -96 0 -18 4 -53 10 -76 5 -24 12 -55 15
-69 8 -41 58 -89 92 -89 30 0 73 35 73 59 0 7 -13 29 -30 48 -27 30 -30 41
-30 97 0 68 -31 145 -72 177 -25 19 -19 64 10 73 38 12 90 158 78 218 -7 35
-40 105 -70 151 -22 32 -93 77 -124 77 -11 0 -24 5 -27 10 -4 6 -72 10 -171
10 l-165 0 -14 -34z m366 -112 c84 -49 106 -156 48 -227 -42 -52 -66 -59 -191
-61 -83 -1 -109 1 -113 12 -11 30 -5 278 8 291 20 21 205 10 248 -15z"/>
<path d="M5720 5870 c-19 -19 -20 -33 -20 -442 0 -233 4 -428 8 -434 4 -5 18
-18 32 -27 21 -15 55 -17 251 -17 214 0 228 1 253 21 31 24 33 45 6 79 -19 25
-20 25 -222 30 l-203 5 -3 129 c-1 73 2 134 7 139 5 5 90 11 188 14 151 3 180
6 191 20 17 24 15 46 -8 71 -20 21 -29 22 -188 22 -117 0 -172 4 -180 12 -8 8
-12 53 -12 135 0 111 2 123 19 133 12 6 96 10 203 10 150 0 188 3 206 16 28
19 28 44 1 78 l-20 26 -245 0 c-231 0 -245 -1 -264 -20z"/>
<path d="M6467 5872 c-20 -22 -22 -73 -5 -90 8 -8 50 -12 124 -12 62 0 124 -4
139 -10 l25 -10 0 -381 c-1 -284 2 -385 11 -395 7 -9 25 -14 43 -12 55 5 56
15 54 421 0 202 2 370 6 375 4 4 64 9 134 12 125 5 126 5 142 33 13 24 13 30
0 55 l-16 27 -320 3 c-301 2 -322 1 -337 -16z"/>
<path d="M4740 5851 c-6 -13 -10 -169 -10 -439 0 -393 1 -420 18 -435 28 -25
69 -21 88 7 14 22 15 62 13 310 -2 157 0 289 4 292 14 14 53 -18 80 -64 28
-47 71 -107 124 -171 15 -19 30 -39 33 -46 5 -12 43 -65 113 -154 20 -27 37
-53 37 -57 0 -5 16 -27 35 -48 19 -22 35 -43 35 -48 0 -5 14 -17 31 -27 29
-18 34 -18 55 -4 l24 15 0 434 c0 327 -3 435 -12 440 -24 15 -66 14 -79 -3
-11 -12 -15 -83 -19 -312 -6 -332 -8 -341 -67 -254 -59 88 -88 129 -148 209
-33 43 -77 104 -98 134 -84 123 -105 151 -168 228 -16 20 -77 15 -89 -7z"/>
<path d="M4187 4522 c-15 -17 -17 -62 -17 -449 0 -404 1 -431 18 -446 27 -25
69 -21 87 7 14 21 16 63 13 321 l-3 296 25 -3 c14 -2 30 -13 36 -27 13 -25 46
-72 107 -151 20 -27 37 -54 37 -59 0 -18 52 -51 80 -51 25 0 60 26 60 44 0 4
16 27 35 50 19 24 35 47 35 53 0 5 13 22 29 37 16 15 37 45 47 67 14 33 22 39
42 37 l24 -3 -1 -299 c-2 -268 0 -300 15 -317 22 -24 66 -24 87 -1 15 17 17
62 17 449 0 404 -1 431 -18 446 -29 27 -67 21 -94 -13 -13 -17 -34 -45 -48
-63 -14 -18 -33 -43 -42 -57 -9 -14 -35 -50 -57 -80 -22 -30 -56 -77 -74 -105
-49 -73 -59 -79 -85 -52 -25 25 -95 122 -131 180 -12 20 -26 37 -31 37 -5 0
-11 9 -15 20 -6 20 -58 89 -96 128 -27 27 -60 28 -82 4z"/>
</g>
</svg>
