<?xml version="1.0" standalone="no"?>
<!DOCTYPE svg PUBLIC "-//W3C//DTD SVG 20010904//EN"
 "http://www.w3.org/TR/2001/REC-SVG-20010904/DTD/svg10.dtd">
<svg version="1.0" xmlns="http://www.w3.org/2000/svg"
 width="900.000000pt" height="903.000000pt" viewBox="0 0 900.000000 903.000000"
 preserveAspectRatio="xMidYMid meet">
<metadata>
Created by potrace 1.10, written by Peter Selinger 2001-2011
</metadata>
<g transform="translate(0.000000,903.000000) scale(0.100000,-0.100000)" stroke="none">
<path d="M4420 8880 c-25 -5 -72 -13 -105 -19 -88 -14 -166 -35 -216 -58 -24
-12 -69 -32 -101 -46 -31 -14 -81 -44 -112 -66 -30 -23 -58 -41 -61 -41 -3 0
-36 -20 -73 -44 -37 -24 -112 -67 -167 -97 -55 -30 -109 -59 -120 -66 -11 -7
-31 -18 -45 -24 -124 -60 -207 -101 -220 -109 -8 -5 -42 -21 -75 -36 -33 -14
-83 -37 -111 -50 -28 -13 -54 -24 -57 -24 -4 0 -30 -11 -59 -24 -88 -41 -172
-74 -255 -101 -43 -14 -85 -29 -93 -33 -8 -5 -49 -19 -90 -31 -41 -13 -82 -26
-90 -29 -25 -9 -103 -32 -140 -41 -190 -47 -404 -103 -418 -110 -9 -5 -39 -17
-67 -26 -27 -10 -57 -23 -65 -30 -8 -6 -35 -22 -60 -34 -80 -40 -203 -142
-278 -230 -145 -171 -203 -295 -267 -571 -20 -85 -40 -163 -46 -172 -5 -10 -9
-26 -9 -35 0 -10 -12 -54 -26 -98 -14 -44 -34 -107 -44 -140 -22 -71 -91 -268
-110 -310 -7 -16 -16 -39 -21 -50 -16 -41 -81 -192 -107 -250 -43 -95 -211
-427 -224 -443 -7 -8 -24 -36 -38 -63 -31 -61 -144 -251 -178 -303 -70 -103
-158 -298 -168 -371 -2 -16 -8 -55 -13 -85 -21 -135 1 -389 44 -485 7 -16 17
-41 22 -55 22 -58 88 -183 155 -290 314 -509 596 -1144 714 -1610 13 -52 28
-103 34 -112 5 -10 10 -26 10 -36 0 -22 37 -178 49 -207 5 -11 16 -45 26 -75
10 -30 23 -62 29 -70 7 -8 24 -40 39 -70 15 -30 38 -68 52 -84 14 -16 25 -33
25 -37 0 -5 28 -40 61 -79 59 -68 164 -155 239 -196 19 -10 44 -26 55 -35 27
-22 193 -87 258 -100 47 -10 156 -38 232 -59 39 -11 70 -19 125 -32 25 -5 54
-13 65 -18 11 -4 94 -31 185 -60 91 -29 183 -61 205 -70 22 -10 51 -21 65 -25
34 -10 175 -71 231 -101 26 -13 52 -24 58 -24 22 0 510 -248 541 -275 8 -7 42
-27 75 -44 68 -35 64 -33 192 -118 126 -84 245 -138 358 -164 28 -6 64 -15 81
-20 52 -15 345 -11 374 6 14 8 39 14 57 15 49 0 250 86 338 144 44 29 122 77
173 107 291 168 801 418 971 476 25 8 57 20 71 26 47 19 185 67 265 93 44 13
93 31 108 39 16 9 33 13 37 10 5 -3 26 1 47 9 21 8 61 20 88 25 96 19 150 33
160 42 5 5 21 9 36 9 30 0 180 47 244 77 136 62 287 180 386 302 53 66 109
151 109 167 0 6 6 17 14 23 12 10 23 34 66 146 17 47 32 97 45 162 12 60 49
209 75 298 52 181 75 254 90 290 5 11 20 52 33 90 49 139 175 431 251 580 25
50 50 101 56 115 6 14 21 43 34 65 12 22 41 74 63 115 23 41 56 101 75 132 18
31 48 83 67 115 19 32 45 70 57 85 33 40 146 274 160 333 57 226 67 328 41
416 -8 24 -12 50 -10 56 16 46 -107 340 -198 477 -21 32 -39 61 -39 64 0 3 -6
13 -14 21 -8 9 -26 41 -42 71 -15 30 -33 62 -41 71 -19 22 -209 392 -270 524
-55 119 -163 381 -192 465 -60 171 -83 241 -111 340 -18 63 -39 133 -46 155
-8 23 -14 50 -14 62 0 12 -4 25 -10 28 -5 3 -10 18 -10 34 0 56 -51 221 -99
319 -28 56 -76 136 -107 179 -57 78 -188 213 -206 213 -5 0 -28 15 -51 34 -36
29 -89 59 -197 112 -37 18 -241 74 -271 74 -14 0 -29 4 -35 8 -5 5 -52 19
-104 31 -90 22 -362 103 -405 121 -11 5 -49 18 -85 30 -36 12 -74 25 -85 29
-11 5 -40 17 -65 26 -70 28 -180 75 -235 100 -27 13 -72 33 -100 45 -27 12
-61 28 -75 35 -14 8 -72 38 -130 66 -58 29 -147 76 -198 106 -51 29 -94 53
-96 53 -5 0 -159 95 -251 154 -191 125 -338 174 -600 200 -27 2 -70 1 -95 -4z
m320 -751 c246 -15 258 -16 323 -29 33 -6 61 -9 64 -6 3 3 21 -1 40 -9 20 -8
44 -15 55 -15 56 0 390 -92 523 -145 272 -107 445 -188 625 -294 139 -81 214
-134 477 -336 153 -118 449 -427 591 -619 78 -106 232 -339 232 -352 0 -3 8
-18 19 -32 31 -44 167 -320 210 -427 52 -130 64 -164 113 -320 41 -133 44
-143 72 -280 10 -44 23 -100 31 -124 8 -24 12 -47 9 -52 -3 -5 2 -37 10 -71 8
-35 15 -74 15 -88 0 -14 4 -74 10 -135 11 -117 8 -705 -4 -724 -4 -7 -8 -35
-10 -64 -1 -29 -10 -90 -19 -137 -10 -47 -21 -105 -26 -130 -5 -25 -13 -63
-18 -85 -6 -22 -13 -56 -17 -75 -4 -19 -10 -44 -15 -55 -4 -11 -19 -60 -33
-110 -30 -105 -98 -297 -133 -373 -13 -29 -24 -55 -24 -59 0 -12 -143 -290
-181 -352 -21 -34 -39 -65 -39 -67 0 -3 -8 -17 -18 -32 -11 -15 -30 -45 -44
-67 -57 -89 -80 -122 -111 -162 -17 -23 -57 -74 -88 -115 -31 -40 -71 -89 -90
-108 -19 -19 -78 -83 -133 -142 -219 -238 -567 -512 -849 -668 -235 -130 -559
-268 -762 -325 -27 -8 -75 -21 -105 -30 -30 -9 -66 -18 -80 -20 -14 -2 -47 -8
-75 -15 -118 -27 -192 -42 -225 -45 -105 -11 -242 -27 -291 -35 -70 -10 -481
-10 -546 1 -47 7 -213 27 -283 33 -64 6 -395 77 -445 96 -11 4 -92 31 -180 60
-160 53 -270 98 -405 164 -40 20 -78 36 -86 36 -8 0 -14 4 -14 9 0 5 -9 13
-21 16 -35 11 -242 134 -344 205 -37 26 -198 145 -301 225 -87 66 -345 321
-436 430 -33 39 -70 84 -84 100 -54 65 -150 196 -179 245 -16 29 -40 65 -52
80 -13 15 -23 32 -23 38 0 5 -6 15 -14 21 -8 7 -29 40 -47 74 -17 34 -40 73
-50 86 -11 13 -19 28 -19 33 0 5 -32 73 -70 152 -39 78 -70 146 -70 150 0 4
-7 22 -14 39 -8 18 -31 79 -51 137 -19 58 -38 112 -42 120 -9 22 -32 97 -48
160 -7 30 -21 82 -30 115 -9 33 -18 71 -20 85 -3 14 -8 50 -13 80 -4 31 -11
61 -16 68 -8 13 -24 135 -34 262 -8 94 -8 599 0 700 3 41 11 103 17 138 6 35
9 67 6 71 -3 5 1 24 9 42 7 19 17 61 20 94 4 33 14 83 21 110 8 28 21 75 29
105 44 165 133 428 178 530 78 174 208 417 292 545 18 28 42 63 52 79 61 92
220 303 233 308 4 2 35 35 68 73 131 152 298 309 461 433 31 24 68 54 83 68
14 13 29 24 34 24 5 0 19 10 32 22 13 12 38 31 57 42 19 12 65 42 102 67 67
45 129 81 246 141 31 16 62 35 68 43 7 8 20 15 29 15 9 0 39 12 66 25 28 14
53 25 58 25 4 0 40 16 80 36 39 19 108 47 152 61 44 14 94 31 110 38 77 31
327 98 430 115 28 5 88 16 135 25 196 38 530 52 840 34z"/>
<path d="M2245 5796 c-170 -45 -314 -193 -355 -365 -14 -58 -9 -203 8 -224 5
-7 12 -26 15 -43 7 -35 80 -145 124 -185 38 -36 159 -100 176 -93 8 3 20 -2
27 -11 10 -12 35 -15 121 -15 89 0 120 4 174 24 118 43 162 85 153 147 -5 35
-60 46 -98 19 -66 -47 -119 -62 -219 -63 -82 0 -104 3 -153 26 -83 37 -143 98
-182 181 -28 61 -32 81 -30 141 2 92 11 120 52 180 76 107 124 139 252 165 56
11 75 10 138 -4 40 -9 94 -30 121 -46 78 -48 121 -38 121 30 0 46 -15 60 -111
104 -67 31 -88 36 -180 40 -70 4 -120 1 -154 -8z"/>
<path d="M3227 5762 c-9 -10 -33 -63 -53 -117 -20 -55 -49 -131 -64 -170 -16
-38 -49 -128 -75 -200 -25 -71 -50 -138 -55 -147 -11 -19 -45 -111 -66 -177
-19 -59 -1 -91 51 -91 39 0 51 17 95 138 33 92 40 94 216 90 113 -2 152 -7
166 -18 11 -8 32 -53 48 -99 35 -101 43 -111 85 -111 62 0 69 43 24 159 -12
31 -28 74 -37 96 -8 22 -20 54 -27 70 -7 17 -18 48 -25 70 -7 22 -18 54 -25
70 -38 91 -55 135 -55 144 0 6 -11 34 -24 63 -13 29 -35 89 -50 133 -30 90
-38 100 -82 109 -22 5 -34 2 -47 -12z m75 -289 c9 -21 18 -47 21 -58 3 -11 17
-51 32 -90 15 -38 28 -81 29 -95 l1 -25 -111 -3 c-130 -3 -144 4 -120 59 8 19
22 52 31 74 9 22 20 47 24 55 5 9 12 31 16 50 8 38 31 70 50 70 6 0 18 -17 27
-37z"/>
<path d="M3868 5773 c-17 -3 -28 -12 -32 -28 -4 -14 -6 -209 -6 -433 1 -449 1
-452 59 -452 50 0 55 16 52 190 -3 187 -7 180 114 180 62 0 88 -5 135 -27 68
-31 90 -68 90 -152 0 -128 96 -225 160 -161 27 27 25 53 -5 86 -14 15 -25 32
-25 38 0 6 -5 42 -10 79 -11 73 -35 131 -69 161 -28 26 -27 40 8 68 38 33 53
61 67 136 14 75 5 124 -34 191 -36 62 -55 79 -116 106 -46 20 -67 22 -206 22
-85 1 -167 -1 -182 -4z m305 -117 c101 -26 146 -120 102 -213 -38 -82 -50 -87
-186 -92 -84 -2 -124 0 -134 9 -20 16 -22 279 -3 298 16 16 159 15 221 -2z"/>
<path d="M5701 5766 c-9 -11 -12 -131 -12 -451 0 -240 3 -440 6 -446 4 -5 116
-9 270 -9 251 0 265 1 275 19 15 29 12 56 -8 74 -16 15 -47 17 -220 17 -237 0
-214 -17 -210 160 l3 115 178 5 c173 5 179 6 198 29 25 31 24 53 -4 79 -22 21
-33 22 -188 22 -115 0 -169 4 -177 12 -8 8 -12 52 -12 133 0 81 4 125 12 133
9 9 69 12 208 12 178 0 198 2 213 18 22 25 21 48 -3 72 -19 19 -33 20 -269 20
-202 0 -251 -3 -260 -14z"/>
<path d="M6436 5755 c-16 -24 -10 -65 12 -79 5 -3 65 -6 133 -7 77 -1 127 -6
131 -13 4 -6 8 -180 8 -386 1 -296 3 -379 14 -392 18 -24 72 -24 85 0 5 10 9
177 10 396 0 208 3 381 6 385 4 3 63 7 132 8 103 2 129 5 145 20 13 12 17 25
13 43 -12 49 -17 50 -356 50 l-317 0 -16 -25z"/>
<path d="M4726 5748 c-14 -19 -16 -78 -16 -433 0 -458 0 -455 64 -455 22 0 36
6 40 16 3 9 6 148 6 310 l0 294 28 0 c22 0 34 -10 59 -47 52 -78 87 -128 119
-169 16 -22 34 -46 39 -55 22 -35 104 -151 190 -268 56 -76 62 -81 97 -81 27
0 40 6 48 19 6 13 10 169 10 440 l0 420 -22 15 c-31 22 -51 20 -77 -8 -21 -23
-22 -29 -24 -307 -2 -276 -3 -284 -22 -286 -14 -2 -31 14 -58 55 -21 31 -53
77 -72 102 -52 69 -177 243 -240 336 -63 93 -95 124 -126 124 -17 0 -34 -8
-43 -22z"/>
<path d="M3970 4368 c0 -6 11 -26 25 -44 14 -18 25 -36 25 -39 0 -4 14 -24 30
-45 17 -21 30 -41 30 -45 0 -4 13 -24 28 -44 16 -20 45 -63 66 -96 20 -33 42
-67 48 -76 9 -13 6 -25 -18 -55 -33 -44 -51 -72 -61 -94 -3 -8 -19 -31 -35
-51 -15 -20 -28 -40 -28 -44 0 -4 -13 -24 -28 -44 -16 -20 -32 -43 -35 -51 -8
-18 -26 -47 -49 -79 -10 -13 -18 -28 -18 -32 0 -5 26 -9 58 -9 51 0 62 4 85
28 15 15 27 34 27 41 0 7 14 30 30 51 17 21 30 41 30 45 0 4 13 24 28 44 15
20 37 53 47 74 11 21 32 50 47 64 l26 25 28 -43 c14 -24 39 -62 53 -84 15 -22
30 -47 34 -55 4 -8 16 -28 26 -45 11 -16 29 -48 41 -70 36 -66 51 -75 125 -75
69 0 77 6 45 35 -11 10 -20 26 -20 35 0 10 -7 23 -15 30 -8 7 -15 19 -15 27 0
7 -6 16 -14 19 -8 3 -17 13 -20 22 -6 20 -21 44 -57 92 -14 19 -29 42 -32 50
-4 8 -16 29 -27 45 -11 17 -23 37 -27 45 -3 8 -12 19 -20 23 -20 12 -16 30 17
75 17 23 30 46 30 51 0 5 3 11 8 13 9 4 52 65 52 73 0 4 20 33 45 65 25 32 45
61 45 64 0 4 14 25 31 49 l31 42 -58 3 c-31 2 -63 1 -70 -2 -13 -5 -98 -129
-120 -176 -4 -8 -20 -31 -36 -51 -15 -20 -28 -40 -28 -43 0 -15 -45 -66 -57
-66 -7 0 -18 10 -24 23 -10 22 -26 50 -57 99 -9 15 -43 70 -76 122 l-58 96
-69 0 c-46 0 -69 -4 -69 -12z"/>
<path d="M4840 3950 l0 -430 230 0 c127 0 233 0 238 0 4 0 7 23 7 51 l0 51
-157 -1 c-146 -2 -159 0 -177 18 -20 20 -21 32 -20 368 1 192 1 354 0 361 -1
8 -20 12 -61 12 l-60 0 0 -430z"/>
</g>
</svg>
