<?xml version="1.0" encoding="utf-8"?>
<!-- Generator: Adobe Illustrator 16.0.0, SVG Export Plug-In . SVG Version: 6.00 Build 0)  -->
<!DOCTYPE svg PUBLIC "-//W3C//DTD SVG 1.1//EN" "http://www.w3.org/Graphics/SVG/1.1/DTD/svg11.dtd">
<svg version="1.1" id="Layer_1" xmlns="http://www.w3.org/2000/svg" xmlns:xlink="http://www.w3.org/1999/xlink" x="0px" y="0px"
	 width="467px" height="467px" viewBox="0 0 467 467" enable-background="new 0 0 467 467" xml:space="preserve">
<g>
	<path d="M233.071,57.496c-96.872,0-175.684,78.955-175.684,176.004c0,97.05,78.812,176.005,175.684,176.005
		S408.755,330.55,408.755,233.5C408.755,136.451,329.943,57.496,233.071,57.496z M242.81,177.442c0,0,0,0,0-0.07
		c-0.071-1.193,0.49-2.458,1.541-3.229c1.752-1.193,4.134-0.843,5.326,0.842l22.632,31.377v-28.919c0-2.037,1.683-3.791,3.783-3.791
		c2.104,0,3.854,1.755,3.854,3.791v40.783c0,2.104-1.751,3.859-3.854,3.859c-1.121,0-2.173-0.562-2.872-1.402
		c-0.14-0.143-0.28-0.281-0.352-0.421l-22.423-31.166v29.129h0.001c0,2.104-1.75,3.859-3.783,3.859
		c-2.172,0-3.854-1.756-3.854-3.859V177.442z M109.68,209.03c3.292,3.089,7.775,5.055,12.61,5.055c4.347,0,8.127-1.334,11.282-3.859
		c1.611-1.194,4.202-0.913,5.606,0.771c1.261,1.755,0.98,4.283-0.701,5.616c-4.414,3.438-10.021,5.476-16.188,5.476
		c-14.013-0.002-25.646-11.305-25.717-25.272c0.07-13.899,11.703-25.2,25.717-25.271c6.165,0,11.771,2.035,16.188,5.477
		c1.683,1.402,1.962,3.86,0.701,5.615c-1.402,1.756-3.993,2.033-5.606,0.771c-3.083-2.526-6.937-3.86-11.282-3.86
		c-4.835,0-9.318,1.967-12.61,5.056c-3.155,3.229-5.117,7.438-5.117,12.213C104.563,201.59,106.525,205.943,109.68,209.03z
		 M156.271,219.629c-0.63,1.543-2.102,2.457-3.646,2.457c-0.488,0-0.91-0.069-1.331-0.21c-2.03-0.771-3.012-3.019-2.313-5.056
		l15.485-41.344c0.632-1.544,2.173-2.527,3.715-2.457c1.61-0.069,3.084,0.913,3.715,2.457l15.483,41.344
		c0.701,2.037-0.279,4.283-2.313,5.056c-0.352,0.142-0.842,0.21-1.331,0.21c-1.541,0-3.012-0.914-3.572-2.457l-3.433-9.125h-17.028
		L156.271,219.629z M204.236,285.52c1.229,1.738,0.94,4.275-0.868,5.509c-0.724,0.508-1.52,0.798-2.314,0.798
		c-1.303,0-2.461-0.652-3.257-1.667l-12.155-16.747l-12.229,16.747c-0.796,1.015-1.954,1.667-3.184,1.667
		c-0.868,0-1.664-0.29-2.315-0.798c-1.809-1.232-2.17-3.771-0.939-5.509l13.748-18.85l-13.748-18.704
		c-1.23-1.813-0.868-4.276,0.939-5.51c1.737-1.377,4.27-1.015,5.5,0.87l12.229,16.674l12.155-16.674
		c1.375-1.885,3.763-2.247,5.571-0.87c1.809,1.232,2.097,3.697,0.867,5.51l-13.748,18.704L204.236,285.52z M216.952,204.677
		c-1.473-0.983-3.292-1.545-3.925-1.686h-8.269v15.233c0,2.104-1.751,3.859-3.925,3.859c-2.171,0-3.854-1.756-3.854-3.859v-41.415
		c0-2.178,1.683-3.86,3.854-3.86c0,0,0,0,0.07,0h12.473c8.337,0,14.995,6.738,14.995,15.091c0,4.632-2.104,8.705-5.466,11.514
		c0.911,0.701,1.753,1.544,2.452,2.597c1.399,2.036,2.313,4.633,2.313,7.582c-0.069,2.104,0.143,3.438,0.282,4.141
		c1.122,0.351,2.031,1.193,2.453,2.386c0.699,2.036-0.422,4.213-2.452,4.913c-0.282,0.07-0.84,0.21-1.544,0.21c0,0,0,0-0.067,0
		c-0.7,0-1.754-0.14-2.733-0.771c-0.91-0.563-1.684-1.474-2.24-2.457c-0.979-2.036-1.473-4.563-1.473-8.423
		c-0.07-1.336-0.354-2.248-0.842-3.02C218.634,205.94,217.792,205.237,216.952,204.677z M256.478,285.52
		c1.229,1.738,0.939,4.275-0.868,5.509c-0.724,0.508-1.521,0.798-2.315,0.798c-1.302,0-2.46-0.652-3.256-1.667l-12.156-16.747
		l-12.228,16.747c-0.796,1.015-1.954,1.667-3.184,1.667c-0.868,0-1.664-0.29-2.315-0.798c-1.809-1.232-2.17-3.771-0.94-5.509
		l13.748-18.85l-13.748-18.704c-1.229-1.813-0.867-4.276,0.94-5.51c1.737-1.377,4.269-1.015,5.5,0.87l12.228,16.674l12.156-16.674
		c1.374-1.885,3.764-2.247,5.571-0.87c1.807,1.232,2.097,3.697,0.867,5.51l-13.747,18.704L256.478,285.52z M300.109,291.827h-23.443
		c-0.145,0-0.145,0-0.145,0c-0.072,0-0.072,0-0.072,0c-2.243-0.001-3.979-1.813-3.979-3.988v-42.771
		c0-2.175,1.736-3.987,3.979-3.987s4.052,1.813,4.052,3.987v38.712h19.608c2.1,0,3.979,1.813,3.979,4.06
		C304.089,290.015,302.208,291.827,300.109,291.827z M317.296,193.587c2.104,0,3.854,1.825,3.854,3.86
		c0,2.177-1.751,3.931-3.854,3.931h-16.326v12.916h18.987c2.033,0,3.854,1.756,3.854,3.933c0,2.104-1.819,3.859-3.854,3.859h-22.703
		c-0.142,0-0.142-0.069-0.142-0.069l-0.069,0.069c-2.173,0-3.854-1.756-3.854-3.86v-41.416c0-2.178,1.684-3.86,3.854-3.86h0.069
		c0,0,0,0,0.142,0h22.703c2.033,0,3.854,1.684,3.854,3.86c0,2.176-1.819,3.93-3.854,3.93h-18.987v12.848H317.296z M369.568,176.809
		c0,2.105-1.753,3.93-3.854,3.93h-11.143v37.485c0,2.176-1.683,3.859-3.854,3.859c-2.103,0-3.854-1.685-3.854-3.859v-37.485h-11.07
		c-2.172,0-3.854-1.824-3.854-3.93c0-2.178,1.683-3.86,3.854-3.86h29.921C367.818,172.949,369.568,174.633,369.568,176.809z"/>
	<path d="M213.377,180.739h-8.618V195.2h8.618c3.995,0.001,7.22-3.229,7.22-7.159C220.596,183.971,217.372,180.739,213.377,180.739z
		"/>
	<polygon points="162.508,202.782 173.859,202.782 168.184,187.69 	"/>
	<path d="M466.142,233.499c0-4.842-8.163-9.397-8.458-14.163c-0.298-4.829,7.237-10.361,6.645-15.103
		c-0.599-4.796-9.265-8.298-10.153-12.996c-0.898-4.745,5.885-11.183,4.699-15.818c-1.193-4.674-10.231-7.054-11.71-11.608
		c-1.486-4.587,4.432-11.83,2.668-16.285c-1.771-4.48-11.038-5.698-13.078-10.035c-2.051-4.357,2.909-12.291,0.597-16.492
		c-2.316-4.217-11.663-4.258-14.232-8.307c-2.579-4.062,1.348-12.557-1.474-16.438c-2.825-3.889-12.102-2.76-15.16-6.46
		c-3.063-3.703-0.227-12.622-3.51-16.124c-3.286-3.505-12.349-1.224-15.846-4.516c-3.498-3.289-1.79-12.493-5.485-15.562
		c-3.694-3.063-12.403,0.33-16.284-2.5c-3.876-2.824-3.331-12.17-7.385-14.753c-4.042-2.573-12.26,1.884-16.469-0.439
		c-4.193-2.315-4.822-11.655-9.173-13.709c-4.33-2.044-11.922,3.413-16.395,1.637c-4.445-1.765-6.245-10.951-10.823-12.439
		c-4.547-1.479-11.391,4.893-16.057,3.696c-4.627-1.188-7.571-10.072-12.307-10.973c-4.69-0.89-10.677,6.297-15.463,5.696
		c-4.732-0.593-8.767-9.038-13.586-9.337c-4.757-0.295-9.803,7.583-14.632,7.583c-4.833,0-9.878-7.879-14.635-7.583
		c-4.819,0.299-8.853,8.744-13.585,9.337c-4.788,0.6-10.773-6.587-15.463-5.696c-4.735,0.9-7.68,9.784-12.307,10.972
		c-4.667,1.198-11.509-5.176-16.055-3.696c-4.58,1.488-6.378,10.674-10.825,12.439c-4.473,1.777-12.063-3.681-16.392-1.637
		c-4.35,2.053-4.98,11.393-9.176,13.709c-4.208,2.321-12.425-2.136-16.467,0.438c-4.054,2.582-3.51,11.928-7.385,14.753
		c-3.882,2.83-12.591-0.563-16.283,2.5c-3.698,3.068-1.992,12.272-5.488,15.562c-3.499,3.291-12.561,1.012-15.845,4.515
		c-3.283,3.502-0.448,12.421-3.511,16.124c-3.056,3.7-12.335,2.57-15.159,6.459c-2.823,3.881,1.103,12.376-1.475,16.438
		c-2.569,4.05-11.914,4.091-14.235,8.308c-2.308,4.201,2.648,12.136,0.598,16.493c-2.04,4.337-11.306,5.555-13.076,10.035
		c-1.764,4.454,4.152,11.699,2.667,16.286c-1.478,4.555-10.518,6.935-11.709,11.608c-1.186,4.637,5.596,11.075,4.696,15.819
		c-0.888,4.7-9.554,8.201-10.152,12.996c-0.592,4.742,6.942,10.274,6.645,15.104c-0.296,4.767-8.458,9.321-8.458,14.163
		s8.162,9.396,8.458,14.165c0.297,4.825-7.237,10.359-6.645,15.101c0.598,4.797,9.264,8.298,10.152,12.997
		c0.898,4.742-5.884,11.18-4.698,15.815c1.193,4.676,10.233,7.056,11.711,11.61c1.485,4.587-4.433,11.83-2.669,16.285
		c1.771,4.479,11.038,5.698,13.078,10.037c2.049,4.354-2.91,12.288-0.598,16.489c2.317,4.218,11.662,4.259,14.233,8.309
		c2.577,4.061-1.348,12.556,1.473,16.438c2.826,3.89,12.102,2.759,15.161,6.458c3.061,3.705,0.226,12.624,3.509,16.127
		c3.286,3.504,12.348,1.228,15.845,4.517c3.498,3.289,1.792,12.493,5.488,15.559c3.692,3.065,12.401-0.328,16.285,2.504
		c3.875,2.825,3.329,12.17,7.383,14.752c4.044,2.576,12.259-1.883,16.469,0.441c4.194,2.312,4.824,11.654,9.174,13.707
		c4.33,2.045,11.921-3.411,16.394-1.637c4.447,1.765,6.247,10.951,10.825,12.441c4.548,1.479,11.39-4.895,16.057-3.696
		c4.627,1.186,7.572,10.071,12.307,10.972c4.69,0.891,10.675-6.296,15.463-5.696c4.732,0.594,8.766,9.036,13.585,9.337
		c4.757,0.293,9.802-7.582,14.633-7.582c4.833,0,9.877,7.875,14.634,7.582c4.819-0.301,8.854-8.743,13.586-9.339
		c4.788-0.598,10.773,6.589,15.463,5.698c4.736-0.901,7.68-9.786,12.307-10.973c4.666-1.198,11.51,5.177,16.055,3.697
		c4.58-1.49,6.378-10.676,10.825-12.441c4.471-1.772,12.063,3.682,16.393,1.639c4.351-2.055,4.979-11.396,9.173-13.709
		c4.209-2.322,12.424,2.135,16.469-0.439c4.054-2.584,3.507-11.927,7.383-14.752c3.883-2.832,12.59,0.561,16.286-2.504
		c3.693-3.066,1.989-12.27,5.485-15.559c3.497-3.289,12.562-1.012,15.846-4.517c3.283-3.503,0.447-12.42,3.51-16.127
		c3.058-3.697,12.337-2.566,15.16-6.458c2.824-3.882-1.104-12.377,1.476-16.438c2.569-4.05,11.914-4.091,14.232-8.308
		c2.311-4.202-2.648-12.138-0.597-16.492c2.041-4.337,11.307-5.557,13.078-10.035c1.762-4.455-4.152-11.7-2.668-16.287
		c1.477-4.554,10.517-6.934,11.708-11.61c1.186-4.635-5.597-11.073-4.697-15.815c0.888-4.699,9.554-8.202,10.153-12.997
		c0.592-4.742-6.943-10.276-6.645-15.101C457.979,242.895,466.142,238.338,466.142,233.499z M233.071,443.597
		c-115.645,0-209.729-94.249-209.729-210.098c0-115.848,94.084-210.097,209.729-210.097c115.646,0,209.729,94.249,209.729,210.097
		C442.801,349.348,348.717,443.597,233.071,443.597z"/>
	<path d="M233.071,26.403c-113.991,0-206.729,92.903-206.729,207.097c0,114.194,92.738,207.098,206.729,207.098
		S439.801,347.694,439.801,233.5C439.801,119.306,347.062,26.403,233.071,26.403z M233.071,420.505
		c-102.938,0-186.684-83.89-186.684-187.005c0-103.114,83.746-187.004,186.684-187.004s186.684,83.89,186.684,187.004
		C419.755,336.615,336.009,420.505,233.071,420.505z"/>
</g>
</svg>
