<?xml version="1.0" encoding="utf-8"?>
<!-- Generator: Adobe Illustrator 17.0.0, SVG Export Plug-In . SVG Version: 6.00 Build 0)  -->
<!DOCTYPE svg PUBLIC "-//W3C//DTD SVG 1.1//EN" "http://www.w3.org/Graphics/SVG/1.1/DTD/svg11.dtd">
<svg version="1.1" id="Layer_1" xmlns="http://www.w3.org/2000/svg" xmlns:xlink="http://www.w3.org/1999/xlink" x="0px" y="0px"
	 width="218.114px" height="213.371px" viewBox="-57.241 -72.702 218.114 213.371"
	 enable-background="new -57.241 -72.702 218.114 213.371" xml:space="preserve">
<g>
	<path d="M79.394,90.333c-21.774,0-42.244-8.477-57.641-23.874c-31.783-31.785-31.783-83.502,0-115.285
		C37.15-64.222,57.62-72.702,79.394-72.702c21.771,0,42.244,8.48,57.641,23.876c31.783,31.785,31.783,83.502,0,115.285
		C121.639,81.856,101.168,90.333,79.394,90.333z M79.394-62.23c-18.978,0-36.817,7.391-50.237,20.808
		c-27.699,27.701-27.699,72.773,0,100.475C42.574,72.47,60.416,79.858,79.394,79.858c18.975,0,36.815-7.388,50.235-20.805
		c27.699-27.701,27.699-72.773,0-100.475C116.211-54.839,98.37-62.23,79.394-62.23z"/>
</g>
<g>
	
		<rect x="-29.552" y="57.042" transform="matrix(-0.7071 -0.7071 0.7071 -0.7071 -101.6936 160.1069)" width="23.73" height="88.145"/>
</g>
</svg>
