<?xml version="1.0" encoding="utf-8"?>
<!-- Generator: Adobe Illustrator 17.0.0, SVG Export Plug-In . SVG Version: 6.00 Build 0)  -->
<!DOCTYPE svg PUBLIC "-//W3C//DTD SVG 1.1//EN" "http://www.w3.org/Graphics/SVG/1.1/DTD/svg11.dtd">
<svg version="1.1" id="Layer_1" xmlns="http://www.w3.org/2000/svg" xmlns:xlink="http://www.w3.org/1999/xlink" x="0px" y="0px"
	 width="239.787px" height="239.787px" viewBox="0 0 239.787 239.787" enable-background="new 0 0 239.787 239.787"
	 xml:space="preserve">
<path d="M119.894,0C53.786,0,0,53.782,0,119.894s53.786,119.894,119.894,119.894
	c66.111,0,119.894-53.782,119.894-119.894S186.005,0,119.894,0z M119.894,221.342c-55.941,0-101.448-45.512-101.448-101.449
	S63.953,18.445,119.894,18.445c55.937,0,101.449,45.512,101.449,101.448S175.831,221.342,119.894,221.342z"/>
<path d="M168.705,76.48l-67.259,67.262l-30.368-30.368c-3.601-3.604-9.444-3.604-13.041,0
	c-3.604,3.604-3.604,9.44,0,13.041l36.89,36.89c1.797,1.8,4.158,2.7,6.519,2.7c2.361,0,4.722-0.9,6.522-2.7l73.781-73.781
	c3.604-3.604,3.604-9.44,0-13.041C178.145,72.883,172.309,72.88,168.705,76.48z"/>
</svg>
