<?xml version="1.0" encoding="utf-8"?>
<!-- Generator: Adobe Illustrator 17.0.0, SVG Export Plug-In . SVG Version: 6.00 Build 0)  -->
<!DOCTYPE svg PUBLIC "-//W3C//DTD SVG 1.1//EN" "http://www.w3.org/Graphics/SVG/1.1/DTD/svg11.dtd">
<svg version="1.1" xmlns="http://www.w3.org/2000/svg" xmlns:xlink="http://www.w3.org/1999/xlink" x="0px" y="0px"
	 width="254.522px" height="254.522px" viewBox="0 0 254.522 254.522" enable-background="new 0 0 254.522 254.522"
	 xml:space="preserve">
<g id="Layer_3">
</g>
<g id="Layer_1">
</g>
<g id="Layer_2">
	<g>
		<path d="M127.261,21.21c-58.54,0-106.051,47.511-106.051,106.051s47.511,106.051,106.051,106.051
			s106.051-47.511,106.051-106.051S185.801,21.21,127.261,21.21z M127.261,227.656c-55.447,0-100.395-44.948-100.395-100.395
			S71.815,26.866,127.261,26.866s100.395,44.948,100.395,100.395S182.708,227.656,127.261,227.656z"/>
		<path d="M251.129,117.363c-7.07-9.05-9.05-18.099-6.222-28.846c1.98-7.353-1.414-14.706-7.918-18.382
			c-9.05-5.09-14.14-12.443-15.554-22.624c-0.848-7.353-6.787-13.292-14.423-14.423c-10.181-1.414-17.534-6.222-22.624-15.554
			c-3.676-6.504-11.312-9.898-18.382-7.918c-10.747,2.828-19.796,0.848-28.846-6.222c-5.656-4.525-13.857-4.525-19.796,0
			c-9.05,7.07-18.382,9.05-28.846,6.222c-7.353-1.98-14.706,1.414-18.382,7.918c-5.09,9.05-12.443,14.14-22.624,15.554
			c-7.353,0.848-13.292,6.787-14.423,14.423c-1.414,10.181-6.222,17.534-15.554,22.624c-6.504,3.676-9.898,11.312-7.919,18.382
			c2.828,10.747,0.848,19.796-6.222,28.846c-4.525,5.656-4.525,14.14,0,19.796c7.07,9.05,9.05,18.382,6.222,28.846
			c-1.98,7.353,1.414,14.706,7.919,18.382c9.05,5.09,14.14,12.443,15.554,22.624c0.848,7.353,6.787,13.292,14.423,14.423
			c10.181,1.414,17.534,6.222,22.624,15.554c3.676,6.505,11.312,9.898,18.382,7.919c10.747-2.828,19.796-0.848,28.846,6.222
			c5.656,4.525,13.857,4.525,19.796,0c9.05-7.07,18.382-9.05,28.846-6.222c7.353,1.98,14.706-1.414,18.382-7.919
			c5.09-9.05,12.443-14.14,22.624-15.554c7.353-0.848,13.292-6.787,14.423-14.423c1.414-10.181,6.222-17.534,15.554-22.624
			c6.504-3.676,9.898-11.312,7.918-18.382c-2.828-10.746-0.848-19.796,6.222-28.846
			C255.653,131.503,255.653,123.019,251.129,117.363z M127.261,233.312c-58.54,0-106.051-47.511-106.051-106.051
			S68.721,21.21,127.261,21.21s106.051,47.511,106.051,106.051S185.801,233.312,127.261,233.312z"/>
		<path d="M109.025,138.606c-2.052,0-3.847,0.833-5.193,2.276c-1.346,1.411-2.179,3.429-2.179,5.61
			c0,2.179,0.833,4.198,2.179,5.577c1.347,1.442,3.142,2.307,5.193,2.307c1.923,0,3.718-0.865,5.064-2.307
			c1.315-1.379,2.18-3.398,2.18-5.577c0-2.181-0.866-4.199-2.18-5.61C112.743,139.439,110.948,138.606,109.025,138.606z"/>
		<path d="M135.947,138.606c-2.052,0-3.847,0.833-5.193,2.276c-1.346,1.411-2.179,3.429-2.179,5.61
			c0,2.179,0.833,4.198,2.179,5.577c1.346,1.442,3.142,2.307,5.193,2.307c1.924,0,3.718-0.865,5.064-2.307
			c1.315-1.379,2.179-3.398,2.179-5.577c0-2.181-0.865-4.199-2.179-5.61C139.665,139.439,137.87,138.606,135.947,138.606z"/>
		<path d="M127.261,26.866c-55.447,0-100.395,44.948-100.395,100.395s44.948,100.395,100.395,100.395
			s100.395-44.948,100.395-100.395S182.708,26.866,127.261,26.866z M140.64,98.896c0-0.994,0.769-1.763,1.763-1.763
			c0.961,0,1.794,0.769,1.794,1.763v18.913c0,0.993-0.833,1.763-1.794,1.763c-0.994,0-1.763-0.769-1.763-1.763V98.896z
			 M62.342,108.031c0.032-6.347,5.353-11.507,11.764-11.54c2.821,0,5.385,0.93,7.404,2.5c0.769,0.641,0.898,1.763,0.321,2.564
			c-0.641,0.801-1.827,0.93-2.564,0.353c-1.411-1.154-3.174-1.763-5.161-1.763c-2.212,0-4.263,0.898-5.77,2.308
			c-1.443,1.475-2.34,3.398-2.34,5.578s0.897,4.167,2.34,5.578c1.506,1.41,3.558,2.308,5.77,2.308c1.988,0,3.718-0.609,5.161-1.763
			c0.737-0.544,1.923-0.417,2.564,0.353c0.577,0.802,0.448,1.955-0.321,2.564c-2.019,1.571-4.584,2.5-7.404,2.5
			C67.695,119.571,62.374,114.41,62.342,108.031z M91.302,156.172c-1.571,1.154-3.654,1.827-5.93,1.827
			c-3.462-0.033-6.379-1.764-8.206-3.206c-0.705-0.576-0.801-1.635-0.256-2.339c0.577-0.705,1.635-0.802,2.34-0.225
			c1.41,1.155,3.847,2.501,6.122,2.469c1.603,0,3.046-0.481,4.007-1.187c0.962-0.705,1.378-1.507,1.378-2.309
			c0-0.417-0.096-0.704-0.288-1.026c-0.193-0.32-0.481-0.641-0.962-0.961c-0.93-0.609-2.5-1.154-4.392-1.507h-0.064
			c-1.506-0.287-2.917-0.672-4.135-1.25c-1.218-0.576-2.276-1.378-2.981-2.5c-0.481-0.77-0.737-1.667-0.737-2.629
			c0-1.924,1.09-3.59,2.564-4.679c1.506-1.09,3.462-1.699,5.545-1.699c3.077,0,5.353,1.507,6.988,2.564
			c0.738,0.513,0.962,1.539,0.449,2.276c-0.481,0.77-1.506,0.994-2.276,0.481c-1.635-1.09-3.206-2.052-5.161-2.052
			c-1.442,0-2.725,0.448-3.59,1.09c-0.866,0.641-1.218,1.346-1.218,2.019c0,0.385,0.065,0.641,0.225,0.898
			c0.16,0.256,0.448,0.545,0.866,0.833c0.833,0.578,2.276,1.09,4.007,1.411h0.064c1.635,0.32,3.141,0.737,4.423,1.346
			c1.315,0.641,2.468,1.474,3.206,2.661c0.481,0.769,0.769,1.731,0.769,2.724C94.059,153.254,92.905,155.018,91.302,156.172z
			 M89.585,116.141c-1.987-2.083-3.173-4.936-3.173-8.11s1.186-5.994,3.173-8.11c1.956-2.115,4.777-3.43,7.854-3.43
			c2.949,0,5.77,1.315,7.661,3.43c1.988,2.115,3.237,4.936,3.237,8.11s-1.25,6.027-3.237,8.11c-1.891,2.084-4.712,3.43-7.661,3.43
			C94.361,119.571,91.541,118.225,89.585,116.141z M116.685,154.601c-1.891,2.083-4.712,3.429-7.661,3.429
			c-3.077,0-5.898-1.346-7.853-3.429c-1.988-2.084-3.174-4.938-3.174-8.11c0-3.173,1.186-5.995,3.174-8.111
			c1.955-2.115,4.776-3.429,7.853-3.429c2.949,0,5.77,1.314,7.661,3.429c1.988,2.116,3.237,4.938,3.237,8.111
			C119.923,149.664,118.673,152.517,116.685,154.601z M123.046,111.461h-0.032h-0.032c-0.578,0-1.122-0.256-1.475-0.738l-4.584-6.41
			v13.495c0,0.961-0.801,1.763-1.795,1.763c-0.961,0-1.763-0.802-1.763-1.763V98.896c0-0.962,0.802-1.763,1.763-1.763
			c0.032,0,0.032,0,0.096,0c0.513,0,1.09,0.256,1.411,0.737l6.379,8.847l6.379-8.847c0.353-0.481,0.866-0.737,1.442-0.737
			c0,0,0,0,0.033,0c0.961,0.032,1.794,0.801,1.794,1.763v18.913c0,0.961-0.833,1.763-1.794,1.763c-0.994,0-1.763-0.802-1.763-1.763
			v-13.495l-4.616,6.41C124.136,111.205,123.623,111.461,123.046,111.461z M143.607,154.601c-1.891,2.083-4.711,3.429-7.66,3.429
			c-3.077,0-5.899-1.346-7.854-3.429c-1.987-2.084-3.173-4.938-3.173-8.11c0-3.173,1.186-5.995,3.173-8.111
			c1.955-2.115,4.777-3.429,7.854-3.429c2.949,0,5.77,1.314,7.66,3.429c1.988,2.116,3.238,4.938,3.238,8.111
			C146.845,149.664,145.595,152.517,143.607,154.601z M153.717,117.808c0,0.961-0.802,1.763-1.731,1.763
			c-0.994,0-1.763-0.802-1.763-1.763V99.184c0,0,0,0,0-0.032c-0.032-0.545,0.224-1.122,0.705-1.475
			c0.8-0.545,1.891-0.384,2.435,0.385l10.354,14.328V99.184c0-0.93,0.77-1.731,1.731-1.731c0.962,0,1.763,0.801,1.763,1.731v18.624
			c0,0.961-0.8,1.763-1.763,1.763c-0.513,0-0.993-0.256-1.314-0.641c-0.063-0.064-0.128-0.128-0.16-0.192l-10.258-14.233
			 M169.343,156.268c0,0.961-0.8,1.763-1.763,1.763c-0.513,0-0.993-0.256-1.315-0.641c-0.063-0.065-0.128-0.129-0.16-0.193
			l-10.258-14.233v13.303c0,0.961-0.802,1.763-1.731,1.763c-0.994,0-1.763-0.802-1.763-1.763v-18.624c0,0,0,0,0-0.032
			c-0.033-0.544,0.224-1.122,0.705-1.474c0.802-0.546,1.891-0.385,2.435,0.384l10.354,14.329v-13.207c0-0.93,0.77-1.731,1.731-1.731
			c0.962,0,1.763,0.802,1.763,1.731V156.268z M180.174,156.268c0,0.993-0.769,1.763-1.731,1.763c-0.961,0-1.763-0.77-1.763-1.763
			v-0.641c0-0.962,0.802-1.764,1.763-1.764c0.962,0,1.731,0.802,1.731,1.764V156.268z M180.174,150.306
			c0,0.993-0.769,1.763-1.731,1.763c-0.961,0-1.763-0.77-1.763-1.763v-12.951c0-0.961,0.802-1.763,1.763-1.763
			c0.962,0,1.731,0.802,1.731,1.763V150.306z M192.18,115.564c0,0.224-0.065,0.353-0.096,0.545c-0.033,0.064-0.033,0.096-0.065,0.16
			v0.032c-0.096,0.289-0.289,0.545-0.609,0.769c-2.02,1.571-4.551,2.5-7.277,2.5c-6.507,0-11.828-5.096-11.828-11.507
			c0-6.443,5.321-11.572,11.828-11.572c2.725,0,5.321,0.93,7.308,2.5c0.835,0.609,0.962,1.795,0.353,2.596
			c-0.609,0.769-1.796,0.93-2.596,0.289c-1.379-1.058-3.142-1.731-5.065-1.731c-2.307,0-4.327,0.866-5.77,2.34
			c-1.507,1.442-2.405,3.398-2.405,5.578c0,2.115,0.898,4.071,2.405,5.513c1.442,1.475,3.462,2.34,5.77,2.34
			c1.603,0,3.109-0.481,4.392-1.218v-4.392h-4.584c-0.993,0-1.827-0.833-1.827-1.827c0-1.026,0.835-1.795,1.827-1.795h6.315
			c0.032,0,0.032,0,0.032,0c0.032,0,0.032,0,0.032,0c1.026,0,1.86,0.769,1.86,1.795V115.564z"/>
		<path d="M97.439,100.146c-2.052,0-3.847,0.833-5.193,2.276c-1.346,1.41-2.179,3.43-2.179,5.609
			s0.833,4.199,2.179,5.578c1.347,1.442,3.142,2.308,5.193,2.308c1.923,0,3.718-0.866,5.064-2.308
			c1.315-1.378,2.18-3.398,2.18-5.578s-0.866-4.199-2.18-5.609C101.157,100.979,99.362,100.146,97.439,100.146z"/>
	</g>
</g>
</svg>
