<?xml version="1.0" encoding="utf-8"?>
<!-- Generator: Adobe Illustrator 17.0.0, SVG Export Plug-In . SVG Version: 6.00 Build 0)  -->
<!DOCTYPE svg PUBLIC "-//W3C//DTD SVG 1.1//EN" "http://www.w3.org/Graphics/SVG/1.1/DTD/svg11.dtd">
<svg version="1.1" id="Layer_1" xmlns="http://www.w3.org/2000/svg" xmlns:xlink="http://www.w3.org/1999/xlink" x="0px" y="0px"
	 width="193.803px" height="116.465px" viewBox="0 0 193.803 116.465" enable-background="new 0 0 193.803 116.465"
	 xml:space="preserve">
<path fill="#010202" d="M193.706,56.334L175.501,6.282c-0.204-0.782-0.724-1.447-1.431-1.835c-0.71-0.388-1.551-0.465-2.32-0.218
	L138.217,17.4c-5.685-3.183-27.215-15.058-33.967-16.181c-1.116-0.186-2.314-0.28-3.557-0.28c-5.869,0-11.503,2.079-12.997,2.673
	c-3.467,0.408-21.811,2.794-34.161,8.969C42.775,7.035,34.22,0.654,34.132,0.589c-0.651-0.486-1.475-0.688-2.271-0.543
	c-0.8,0.139-1.506,0.604-1.951,1.28L0.485,46.047c-0.869,1.32-0.539,3.09,0.747,4.01l37.128,26.517
	c-1.282,2.986-1.349,5.987-0.155,8.702c2.051,4.669,7.169,7.306,9.881,8.418c2.081,8.399,7.404,9.708,10.516,9.708
	c1.043,0,2.02-0.145,2.871-0.345c2.971,6.577,7.065,8.053,10.142,8.051c0,0,0,0,0.002,0c1.582,0,2.994-0.4,4.118-0.878
	c1.833,2.051,5.094,4.777,9.838,5.369c0.496,0.063,0.965,0.09,1.402,0.09c2.873,0,4.647-1.216,5.63-2.237
	c1.339-1.392,1.904-3.112,2.139-4.422l6.551,4.594l0.176,0.114c0.576,0.347,4.7,2.726,9.087,2.726c1.314,0,2.653-0.212,3.924-0.761
	c1.533-0.659,3.432-2.014,4.667-4.804c2.5,0.127,6.32-0.135,9.542-2.375c2.447-1.698,4.114-4.169,4.969-7.359
	c2.488-0.216,6.226-1.02,9.161-3.7c2.182-1.994,3.543-4.622,4.061-7.842c2.62-0.039,6.316-0.622,9.134-3.163
	c2.692-2.426,3.955-5.989,3.798-10.569l32.365-16.183C193.422,59.089,194.059,57.679,193.706,56.334z M43.585,82.9
	c-0.569-1.3-0.478-2.657,0.284-4.271c1.837-3.888,4.034-6.212,5.877-6.212c1.106,0,2.445,0.812,3.875,2.306
	c-2.251,2.8-5.134,7.232-5.906,12.214C46.017,85.932,44.313,84.567,43.585,82.9z M53.521,90.985l-0.002-0.018
	c-0.796-4.377,1.918-8.967,4.177-11.911l2.016-1.904c1.286-1.214,4.049-3.139,5.991-3.139c1.684,0,2.579,2.232,3.061,4.518
	c-2.508,2.983-8.501,10.946-8.571,18.78c-0.48,0.118-1.024,0.208-1.592,0.208C57.629,97.521,54.674,97.521,53.521,90.985z
	 M71.614,105.229c-2.639,0.002-4.402-3.314-5.463-6.308l0.02-0.004c-1.063-5.842,4.82-14.017,7.569-17.152
	c0.461-0.206,1.398-0.553,2.496-0.553c1.769,0,3.31,0.984,4.616,2.888c-1.263,0.645-2.422,1.584-3.443,2.808
	c-3.422,4.102-4.992,11.165-4.118,17.954C72.781,105.062,72.207,105.229,71.614,105.229z M89.221,107.263
	c0,0.463-0.247,1.59-0.773,2.126c-0.104,0.104-0.467,0.422-1.43,0.422c-0.21,0-0.459-0.016-0.696-0.043
	c-3.981-0.498-6.4-3.592-7.048-4.532c-0.984-5.41,0.127-11.532,2.655-14.56c0.969-1.163,2.02-1.728,3.218-1.73
	c0.394,0.018,3.461,0.318,5.02,5.559l-1.029,12.409l0.082,0.192V107.263z M152.092,82.079c-1.686,1.53-4.432,1.743-6.177,1.655
	l-22.419-20.335c-1.2-1.086-3.063-1-4.155,0.204c-1.092,1.202-1,3.065,0.204,4.155l21.629,19.621
	c-0.149,2.488-0.894,4.434-2.296,5.724c-1.863,1.716-4.471,2.137-6.036,2.23l-21.06-20.115c-1.177-1.12-3.035-1.078-4.159,0.096
	c-1.122,1.177-1.078,3.037,0.096,4.159l20.386,19.472c-0.449,2.161-1.331,3.741-2.745,4.734c-1.386,0.971-3.063,1.28-4.492,1.349
	c-0.076-0.094-0.116-0.206-0.204-0.29L102.324,87.34c-1.177-1.116-3.039-1.071-4.159,0.11c-1.118,1.178-1.069,3.039,0.11,4.157
	l16.017,15.195l-0.055,0.253c-0.578,2.6-1.7,3.086-2.071,3.245c-2.294,1-6.265-0.792-7.591-1.555l-9.21-6.457l0.755-8.302
	l-0.131-0.502c-1.739-6.577-5.702-9.295-8.789-10.122c-3.351-6.944-8.236-8.03-10.961-8.03c-0.778,0-1.512,0.082-2.177,0.21
	c-1.953-6.357-5.942-7.406-8.359-7.406c-2.883,0-5.667,1.473-7.579,2.788c-2.698-2.912-5.508-4.385-8.375-4.385
	c-3.106,0-5.955,1.71-8.412,4.938L6.954,46.916L33.14,7.113c3.62,2.522,10.738,7.226,19.095,11.403
	c0.861,0.431,1.879,0.414,2.724-0.049c6.377-3.479,15.224-5.783,22.286-7.2c-1.8,1.661-3.851,3.661-6.204,6.116
	c-9.61,10.032-5.424,16.115-4.812,16.901c2.363,2.741,5.598,4.19,9.357,4.188c8.246,0,17.352-6.997,19.98-9.169l7.12-0.79
	c4.845,16.723,23.7,23.901,27.745,25.262l23.039,23.037c0.133,0.133,0.304,0.202,0.455,0.302
	C153.849,79.347,153.249,81.026,152.092,82.079z M156.133,71.154l-22.041-22.039c-0.345-0.345-0.769-0.598-1.235-0.737
	c-0.218-0.067-21.858-6.744-25.021-23.617c-0.265-1.404-1.49-2.4-2.89-2.4c-0.108,0-0.216,0.006-0.327,0.018l-10.593,1.177
	c-0.602,0.067-1.171,0.32-1.626,0.72c-2.618,2.312-10.744,8.314-16.815,8.314c-1.99,0-3.502-0.624-4.736-1.961
	c-0.206-0.52-1.012-3.49,4.438-9.177C85.229,11.076,89.441,9.247,89.431,9.247c0.065-0.022,0.127-0.047,0.19-0.075
	c0.055-0.024,5.561-2.355,11.067-2.355c0.922,0,1.792,0.067,2.59,0.2c4.802,0.8,22.466,10.089,33.167,16.136
	c0.716,0.408,1.573,0.492,2.353,0.239l31.8-12.609l16.811,44.734L156.133,71.154z"/>
</svg>
