<?xml version="1.0" encoding="utf-8"?>
<!-- Generator: Adobe Illustrator 17.0.0, SVG Export Plug-In . SVG Version: 6.00 Build 0)  -->
<!DOCTYPE svg PUBLIC "-//W3C//DTD SVG 1.1//EN" "http://www.w3.org/Graphics/SVG/1.1/DTD/svg11.dtd">
<svg version="1.1" id="Слой_1" xmlns="http://www.w3.org/2000/svg" xmlns:xlink="http://www.w3.org/1999/xlink" x="0px" y="0px"
	 width="314.778px" height="314.778px" viewBox="-106.093 -122.944 314.778 314.778"
	 enable-background="new -106.093 -122.944 314.778 314.778" xml:space="preserve">
<path d="M51.296-122.944c-75.864,0-157.389,19.626-157.389,63.031v188.716c0,43.405,81.525,63.031,157.389,63.031
	s157.389-19.626,157.389-63.031V-59.913C208.685-103.318,127.16-122.944,51.296-122.944z M176.981,128.802
	c0,7.926-43.405,31.327-125.685,31.327s-125.685-23.401-125.685-31.327v-23.401c30.572,15.852,79.261,23.401,125.685,23.401
	s95.113-7.549,125.685-23.401V128.802z M176.981,65.771c0,7.926-43.405,31.327-125.685,31.327S-74.388,73.697-74.388,65.771V42.371
	C-43.816,58.223,4.872,65.771,51.296,65.771s95.113-7.549,125.685-23.401V65.771z M176.981,3.118
	c0,7.926-43.405,31.327-125.685,31.327S-74.388,11.044-74.388,3.118v-23.401C-43.816-4.431,4.872,3.118,51.296,3.118
	s95.113-7.549,125.685-23.401V3.118z M51.296-28.587c-82.657,0-125.685-23.401-125.685-31.327S-30.984-91.24,51.296-91.24
	s125.685,23.401,125.685,31.327S133.954-28.587,51.296-28.587z"/>
</svg>
