<?xml version="1.0" encoding="utf-8"?>
<svg viewBox="0 0 500 500" xmlns="http://www.w3.org/2000/svg" xmlns:bx="https://boxy-svg.com">
  <path id="svg_29" d="M 372.768 28.762 C 313.941 28.762 264.474 71.95 250.433 131.161 C 236.388 71.95 186.924 28.762 128.094 28.762 C 58.579 28.762 1.761 90.067 1.761 165.978 C 1.761 179.615 5.16 197.258 8.752 211.301 L 8.432 211.257 C 8.817 212.383 9.394 214.206 10.077 216.342 L 10.077 216.342 L 10.077 216.342 C 11.938 222.216 14.545 230.545 15.806 233.606 C 68.5 363.075 250.433 468.964 250.433 468.964 C 250.433 468.964 499.101 324.774 499.101 166.674 C 499.101 90.067 442.283 28.762 372.768 28.762 Z" style="fill: rgb(236, 104, 64);" bx:origin="0.5 0.5"/>
</svg>