<?xml version="1.0" encoding="utf-8"?>
<svg width="196.79202270507812" height="220" viewBox="129.002 812.131 196.792 220" xmlns="http://www.w3.org/2000/svg">
  <g transform="matrix(1, 0, 0, 1, -72.07020568847656, 633.6005859375)">
    <path d="M311.691,178.53c-47.514,0-86.173,38.658-86.173,86.173v4.194l-23.246,43.417&#10;&#9;&#9;c-1.2,2.242-1.133,4.946,0.169,7.13c1.307,2.179,3.664,3.514,6.204,3.514h16.873v26.693c0,15.287,12.438,27.72,27.72,27.72h31.336&#10;&#9;&#9;v3.586v10.342v7.231h89.561v-6.037c0.091-0.458,0.141-0.931,0.141-1.416V323.86c15.234-16.044,23.588-36.933,23.588-59.157&#10;&#9;&#9;C397.864,217.184,359.206,178.53,311.691,178.53z M370.383,249.032c-1.193,10.953-5.984,23.985-21.876,24.12&#10;&#9;&#9;c-0.112,0-0.213,0.024-0.319,0.024c-3.698-0.006-7.892-0.65-12.471-1.932c-11.951-3.326-18.833-8.749-25.479-13.989&#10;&#9;&#9;c-5.754-4.537-11.189-8.814-18.709-10.71c-3.858-0.975-7.881-1.636-11.768-2.28c-7.219-1.187-16.198-2.67-18.378-6.014&#10;&#9;&#9;c-1.04-1.595-1.016-4.732,0.047-8.844c4.702-18.142,33.614-27.807,52.683-27.807c1.684,0,3.285,0.083,4.767,0.242&#10;&#9;&#9;C354.929,205.772,372.208,232.243,370.383,249.032z" style="fill: rgb(238, 104, 60);"/>
  </g>
</svg>