<?xml version="1.0" encoding="utf-8"?>
<svg width="213.04702758789062" height="220" viewBox="60.015 923.594 213.047 220" xmlns="http://www.w3.org/2000/svg">
  <g transform="matrix(1, 0, 0, 1, -137.4610595703125, 729.59423828125)">
    <g transform="translate(5.000000, 5.000000)">
      <path d="M405.523,348.934h-84.5l-7.798,0h-27.887c-7.383,0-25.504,2.171-25.504,31.118&#10;&#9;&#9;&#9;C259.834,409,274.403,409,274.403,409h131.12" style="fill: rgb(161, 161, 161);"/>
      <path d="M326.106,317.924c0,0,15.133-18.253,6.573-28.076s-20.889-3.728-23.003,0&#10;&#9;&#9;&#9;c-2.114,3.728-9.558,22.089-9.558,22.089l-2.405-22.591l-2.102,17.159c0,0,4.579,22.975-8.334,25.869&#10;&#9;&#9;&#9;c-10.279,0-12.184-15.844-13.758-23.941c-2.044-10.515-0.21-31.667,1.994-36.23c5.852-12.113,92.046-26.403,99.415-20.966&#10;&#9;&#9;&#9;c7.369,5.437,4.503,35.537,1.457,44.868c-3.046,9.331-32.171,35.955-32.171,35.955s-10.632,7.371-16.126,2.895&#10;&#9;&#9;&#9;c-5.494-7.789,5.494-17.368,5.494-17.368l28.567-31.256L326.106,317.924z" style="fill: rgb(161, 161, 161);"/>
      <ellipse cx="312.282" cy="217.947" rx="29.138" ry="28.947" style="fill: rgb(161, 161, 161);"/>
      <ellipse cx="221.614" cy="380.053" rx="29.138" ry="28.947" style="fill: rgb(161, 161, 161);"/>
      <path d="M277.317,380.053l32.052-78.158c0,0,4.468-14.839,14.569-11.579&#10;&#9;&#9;&#9;c10.101,3.26,2.914,17.368,2.914,17.368L294.8,382.947L277.317,380.053z" style="fill: rgb(161, 161, 161);"/>
    </g>
  </g>
</svg>