<?xml version="1.0" encoding="utf-8"?>
<svg width="227.71595764160156" height="219.9990234375" viewBox="28.9053 1601.46 227.716 219.999" xmlns="http://www.w3.org/2000/svg">
  <g transform="matrix(1, 0, 0, 1, -155.5316619873047, 1411.4595947265625)">
    <g>
      <g>
        <path d="M347.782,366.286c1.971,3.389,3.632,7.735,5.158,11.408c1.816,4.378,2.305,8.355,3.851,12.567&#10;&#9;&#9;&#9;&#9;c0.736,2.001,1.697,3.888,2.374,5.924c0.707,2.13,1.092,4.355,1.808,6.477c1.349,3.98,3.592,7.251,7.928,7.337h0.351&#10;&#9;&#9;&#9;&#9;c0.274-0.005,0.561-0.022,0.852-0.052c6.139-0.647,4.733-6.302,3.011-10.247c-1.919-4.392-2.693-8.382-3.501-13.061&#10;&#9;&#9;&#9;&#9;c-0.786-4.553-1.885-9.155-2.92-13.661c-0.02-0.082-5.188-11.391-2.367-8.777c1.267,1.173,2.428,3.706,3.548,5.198&#10;&#9;&#9;&#9;&#9;c1.149,1.532,2.567,2.564,3.814,4.296c2.179,3.024,4.467,6.833,6.542,10.027c2.325,3.58,3.518,7.389,5.741,10.823&#10;&#9;&#9;&#9;&#9;c2.154,3.325,7.317,6.529,10.524,2.809c3.041-3.53-1.015-8.125-2.616-11.406c-1.915-3.913-3.394-7.562-5.104-11.532&#10;&#9;&#9;&#9;&#9;c-2.937-6.811-8.222-14.437-11.633-21.285c1.638-0.61,5.998,3.367,8.051,4.341c7.745,3.686,17.804,15.388,21.913,16.853&#10;&#9;&#9;&#9;&#9;c4.289,1.532,7.046-2.374,4.417-5.692c-1.645-2.075-4.303-4.773-6.176-6.764c-4.096-4.36-8.832-8.567-13.4-12.444&#10;&#9;&#9;&#9;&#9;c-4.669-3.967-9.185-8.044-12.765-13.007c-4.217-5.848-5.761-10.756-9.185-16.663c-1.611-2.782-3.95-4.901-5.012-7.91&#10;&#9;&#9;&#9;&#9;c-0.936-2.646-1.566-8.528-0.487-11.112c1.801-4.311,2.92-3.604,3.577-9.358c0.18-1.579,1.68-10.378,1.07-11.065&#10;&#9;&#9;&#9;&#9;c-0.193-0.111-1.485-0.19-3.451-0.242h-32.479c-2.382,0.128-0.8,1.324-4.076,10.225c-1.697,4.617-2.443,8.481-3.871,13.004&#10;&#9;&#9;&#9;&#9;c-0.608,1.922-1.517,4.143-2.214,6.149c-1.107,3.179-1.492,2.713-3.844,4.597c-3.738,2.992-4.57,6.171-6.999,9.874&#10;&#9;&#9;&#9;&#9;c-1.065,1.623-2.149,3.575-3.464,4.975c-2.275,2.428-2.068,1.774-3.587,4.852c-0.751,1.517-1.257,0.778-2.32,0.111&#10;&#9;&#9;&#9;&#9;c-0.867-0.543-1.734-1.094-2.572-1.687c-1.611-1.134-3.194-2.461-4.457-3.98c-2.465-2.979-4.017-7.189-6.295-10.507&#10;&#9;&#9;&#9;&#9;c-2.322-3.38-5.371-5.998-7.614-9.264c-3.135-4.565-7.957-22.587-7.94-28.351l-34.974-0.079&#10;&#9;&#9;&#9;&#9;c-0.978,17.832,1.537,16.913,1.87,23.234c0.472,8.94-7.411,12.654-11.831,20.27c-4.684,8.061-8.802,12.029-16.011,17.77&#10;&#9;&#9;&#9;&#9;c-3.137,2.5-6.277,4.911-9.17,7.7c-2.932,2.826-6.428,5.242-9.146,8.175c-8.264,8.911,0.793,12.476,9.402,3.686&#10;&#9;&#9;&#9;&#9;c3.834-3.916,4.565-4.914,9.509-7.891c0.61-0.368,7.268-4.694,5.976-1.171c-1.025,2.784-5.082,7.69-6.905,10.396&#10;&#9;&#9;&#9;&#9;c-2.226,3.313-3.614,6.959-5.793,10.378c-2.068,3.249-5.786,7.473-6.159,11.329c-0.432,4.449,3.735,6.208,7.424,4.469&#10;&#9;&#9;&#9;&#9;c4.338-2.046,5.682-6.176,7.863-10c1.853-3.244,4.681-6.505,7.009-9.457c5.746-7.288,11.935-13.674,5.383,0.546&#10;&#9;&#9;&#9;&#9;c-2.265,4.911-2.804,7.713-4.348,12.609c-1.438,4.565-4.578,7.567-6.305,11.69c-3.656,8.733,7.957,11.893,13.923-0.03&#10;&#9;&#9;&#9;&#9;c3.723-7.443,8.244-14.59,11.455-22.133c1.695-3.982,3.347-6.455,7.231-8.521c3.35-1.779,2.221,0.689,1.598,3.187&#10;&#9;&#9;&#9;&#9;c-0.623,2.493-1.013,4.533-1.366,7.075c-0.786,5.65-0.077,8.913-1.9,14.823c-0.823,2.663-4.36,10.895-2.475,12.905&#10;&#9;&#9;&#9;&#9;c3.725,3.97,8.278-0.044,10.482-3.3c1.42-2.1,2.33-2.737,2.895-5.363c0.457-2.137,1.309-4.071,2.302-6.008&#10;&#9;&#9;&#9;&#9;c1.43-2.787,2.643-10.015,3.481-13.402c0.598-2.414,1.534-3.829,1.897-6.552c0.39-2.91,0.03-4.086,1.356-6.922&#10;&#9;&#9;&#9;&#9;c2.162-4.617,2.532-6.712,6.238-10.564c2.382-2.475,5.961-7.275,9.682-7.07c3.002,0.161,10.247,3.834,8.728,7.266&#10;&#9;&#9;&#9;&#9;c-0.6,1.356-2.515,3.893-3.577,4.983c-0.758,0.778-4.111,3.686-4.38,4.126c-1.211,1.994,0.509,4.306,2.535,4.812&#10;&#9;&#9;&#9;&#9;c1.984,0.489,5.462-0.119,7.476-0.598c2.426-0.576,3.886-0.978,5.684-2.772c2.107-2.097,2.503-2.268,5.494-1.63&#10;&#9;&#9;&#9;&#9;c2.342,0.499,4.891,0.852,6.44-1.46c1.307-1.947-0.731-4.074-0.988-6.028c-0.358-2.717,5.492-6.724,9.217-3.372&#10;&#9;&#9;&#9;&#9;c3.513,3.162,5.111,5.754,6.729,10.168c2.283,6.221,1.663,8.115,2.685,14.193c1.593,9.486,1.529,20.327,4.392,29.366&#10;&#9;&#9;&#9;&#9;c1.166,3.691,5.371,8.029,9.407,5.85c3.664-1.979,2.591-10.008,1.964-13.481c-1.154-6.374-0.398-9.422-0.375-15.583&#10;&#9;&#9;&#9;&#9;c0.02-5.578-3.187-10.665,3.787-11.411V366.286z" style="fill: rgb(161, 161, 161);"/>
      </g>
    </g>
    <g>
      <path d="M247.935,210.951c0.096-13.623,8.739-20.951,21.422-20.951c12.591,0,20.482,7.516,20.482,18.414&#10;&#9;&#9;&#9;c0,7.986-3.287,11.838-8.456,13.999c8.456,2.538,11.276,10.053,11.276,18.039c0,11.745-7.893,21.328-22.174,21.328&#10;&#9;&#9;&#9;c-9.583,0-16.441-3.664-20.2-9.866c-2.159-3.569-3.381-7.892-3.477-12.777h14.658c0,5.732,2.912,9.49,8.737,9.49&#10;&#9;&#9;&#9;c4.604,0,7.797-3.57,7.797-8.832c0-6.952-4.321-9.958-10.334-9.958h-4.51v-12.59h3.57c5.638,0,8.456-2.631,8.456-7.328&#10;&#9;&#9;&#9;c0-3.759-2.068-6.765-6.67-6.765c-4.135,0-5.919,3.57-5.919,7.798H247.935z" style="fill: rgb(161, 161, 161);"/>
      <path d="M300.364,213.676c0-15.033,8.831-23.676,21.797-23.676c12.964,0,21.797,8.643,21.797,23.676v24.428&#10;&#9;&#9;&#9;c0,15.032-8.833,23.676-21.797,23.676c-12.966,0-21.797-8.644-21.797-23.676V213.676z M313.705,237.164&#10;&#9;&#9;&#9;c0,7.986,3.477,11.65,8.456,11.65s8.456-3.664,8.456-11.65v-22.549c0-7.986-3.477-11.65-8.456-11.65s-8.456,3.664-8.456,11.65&#10;&#9;&#9;&#9;V237.164z" style="fill: rgb(161, 161, 161);"/>
    </g>
  </g>
</svg>