<?xml version="1.0" encoding="utf-8"?>
<svg width="120.41400146484375" height="220.0009765625" viewBox="167.724 817.865 120.414 220.001" xmlns="http://www.w3.org/2000/svg">
  <g transform="matrix(1, 0, 0, 1, -72.07020568847656, 627.8656005859375)">
    <path d="M290.026,266.269c-0.958,2.492-1.545,5.176-1.545,8.009c0,12.418,10.075,22.496,22.501,22.496&#10;&#9;&#9;c8.391,0,15.636-4.666,19.488-11.493c0.363,0.022,0.681,0.108,1.044,0.108c10.225,0,18.513-8.286,18.513-18.5&#10;&#9;&#9;c0-10.225-8.286-18.511-18.513-18.511c-3.237,0-6.262,0.917-8.904,2.384c-1.127-2.437-35.963-39.525-59.639-60.763l-23.177,23.166&#10;&#9;&#9;c17.444,15.621,57.336,47.923,57.336,47.923S292.168,261.71,290.026,266.269z M342.315,301.011c-5.73,0-10.781,2.747-14.06,6.946&#10;&#9;&#9;c-0.255-0.044-0.512-0.022-0.745-0.055c-3.39-2.216-7.436-3.523-11.781-3.523c-11.931,0-21.593,9.668-21.593,21.598&#10;&#9;&#9;c0,11.919,9.665,21.59,21.593,21.59c0.618,0,1.213-0.13,1.808-0.18c0.321,1.183,0.662,2.365,0.961,3.556&#10;&#9;&#9;c1.703,6.968,3.154,14.271,4.431,21.64c2.11,12.291,3.791,24.902,5.242,37.417h25.368c-0.363-13.717-0.98-27.278-2.13-41.067&#10;&#9;&#9;c-0.681-7.904-1.512-15.838-2.792-23.986c-0.532-2.897-1.044-5.835-1.662-8.829c7.624-2.066,13.249-8.945,13.249-17.212&#10;&#9;&#9;C360.208,309.02,352.199,301.011,342.315,301.011z" style="fill: rgb(161, 161, 161);"/>
  </g>
</svg>