<?xml version="1.0" encoding="utf-8"?>
<!-- Generator: Adobe Illustrator 17.0.0, SVG Export Plug-In . SVG Version: 6.00 Build 0)  -->
<!DOCTYPE svg PUBLIC "-//W3C//DTD SVG 1.1//EN" "http://www.w3.org/Graphics/SVG/1.1/DTD/svg11.dtd">
<svg version="1.1" id="Layer_1" xmlns="http://www.w3.org/2000/svg" xmlns:xlink="http://www.w3.org/1999/xlink" x="0px" y="0px"
	 width="188.202px" height="113.099px" viewBox="0 0 188.202 113.099" enable-background="new 0 0 188.202 113.099"
	 xml:space="preserve">
<path fill="#010202" d="M188.108,54.706L170.429,6.1c-0.198-0.76-0.703-1.405-1.39-1.782c-0.689-0.377-1.506-0.451-2.253-0.211
	l-32.564,12.791c-5.52-3.091-26.429-14.623-32.985-15.714c-1.084-0.181-2.247-0.272-3.454-0.272c-5.699,0-11.17,2.018-12.621,2.595
	c-3.367,0.396-21.181,2.714-33.174,8.71C41.539,6.831,33.231,0.635,33.145,0.572C32.513,0.1,31.713-0.096,30.94,0.045
	c-0.777,0.135-1.462,0.587-1.895,1.243L0.471,44.716c-0.844,1.282-0.524,3.001,0.726,3.894l36.055,25.751
	c-1.245,2.9-1.31,5.814-0.15,8.451c1.992,4.534,6.962,7.095,9.595,8.175c2.02,8.156,7.19,9.428,10.212,9.428
	c1.013,0,1.961-0.141,2.788-0.335c2.885,6.387,6.861,7.821,9.849,7.819c0,0,0,0,0.002,0c1.537,0,2.908-0.388,3.999-0.853
	c1.78,1.992,4.947,4.639,9.554,5.214c0.482,0.061,0.937,0.088,1.362,0.088c2.79,0,4.513-1.181,5.467-2.173
	c1.301-1.352,1.849-3.022,2.078-4.294l6.362,4.462l0.171,0.11c0.56,0.337,4.564,2.647,8.824,2.647c1.276,0,2.576-0.206,3.81-0.739
	c1.489-0.64,3.332-1.956,4.532-4.665c2.428,0.124,6.137-0.131,9.266-2.306c2.376-1.649,3.995-4.048,4.825-7.147
	c2.416-0.209,6.046-0.99,8.897-3.593c2.119-1.937,3.441-4.488,3.944-7.615c2.544-0.038,6.134-0.604,8.87-3.072
	c2.615-2.356,3.841-5.816,3.688-10.264l31.429-15.716C187.832,57.381,188.451,56.012,188.108,54.706z M42.326,80.504
	c-0.552-1.263-0.465-2.58,0.276-4.147c1.784-3.776,3.917-6.033,5.707-6.033c1.074,0,2.375,0.788,3.763,2.239
	c-2.186,2.719-4.985,7.023-5.736,11.861C44.687,83.448,43.032,82.123,42.326,80.504z M51.974,88.355l-0.002-0.017
	c-0.773-4.25,1.862-8.708,4.056-11.566l1.958-1.849c1.249-1.179,3.932-3.049,5.817-3.049c1.636,0,2.504,2.167,2.973,4.387
	c-2.436,2.896-8.255,10.629-8.323,18.237c-0.467,0.114-0.994,0.202-1.546,0.202C55.964,94.702,53.094,94.702,51.974,88.355z
	 M69.545,102.188c-2.563,0.002-4.275-3.218-5.305-6.126l0.019-0.004c-1.032-5.673,4.681-13.611,7.35-16.656
	c0.447-0.2,1.358-0.537,2.424-0.537c1.718,0,3.214,0.956,4.483,2.805c-1.226,0.626-2.352,1.539-3.344,2.727
	c-3.323,3.984-4.848,10.843-3.999,17.435C70.678,102.026,70.12,102.188,69.545,102.188z M86.643,104.162
	c0,0.449-0.24,1.544-0.75,2.064c-0.101,0.101-0.453,0.409-1.388,0.409c-0.204,0-0.446-0.015-0.676-0.042
	c-3.866-0.484-6.215-3.489-6.844-4.401c-0.956-5.254,0.124-11.199,2.578-14.139c0.941-1.129,1.961-1.678,3.125-1.68
	c0.383,0.017,3.361,0.308,4.875,5.398l-1,12.05l0.08,0.187V104.162z M147.696,79.706c-1.638,1.485-4.304,1.693-5.998,1.607
	l-21.771-19.747c-1.165-1.055-2.974-0.971-4.035,0.198c-1.061,1.167-0.971,2.976,0.198,4.035l21.004,19.054
	c-0.145,2.416-0.868,4.305-2.23,5.558c-1.809,1.666-4.342,2.076-5.861,2.165l-20.451-19.534c-1.143-1.087-2.948-1.047-4.039,0.093
	c-1.089,1.143-1.047,2.95,0.093,4.039l19.796,18.909c-0.436,2.098-1.293,3.633-2.666,4.597c-1.346,0.943-2.974,1.243-4.363,1.31
	c-0.074-0.091-0.112-0.2-0.198-0.282L99.367,84.815c-1.143-1.084-2.952-1.04-4.039,0.107c-1.085,1.144-1.038,2.952,0.107,4.037
	l15.554,14.756l-0.053,0.246c-0.562,2.525-1.651,2.997-2.011,3.152c-2.228,0.971-6.084-0.769-7.371-1.51l-8.944-6.271l0.733-8.063
	l-0.128-0.487c-1.689-6.387-5.538-9.026-8.535-9.83c-3.254-6.743-7.998-7.798-10.645-7.798c-0.756,0-1.468,0.08-2.114,0.204
	c-1.897-6.174-5.77-7.192-8.118-7.192c-2.799,0-5.503,1.43-7.36,2.708c-2.62-2.828-5.349-4.258-8.133-4.258
	c-3.016,0-5.783,1.66-8.169,4.795L6.753,45.56L32.182,6.908c3.515,2.449,10.428,7.017,18.543,11.073
	c0.836,0.419,1.824,0.402,2.645-0.048c6.193-3.378,14.784-5.616,21.642-6.992c-1.748,1.613-3.74,3.555-6.025,5.939
	c-9.333,9.742-5.267,15.649-4.673,16.413c2.295,2.662,5.437,4.069,9.087,4.067c8.007,0,16.851-6.794,19.402-8.904l6.914-0.767
	c4.705,16.239,23.015,23.211,26.943,24.532l22.373,22.371c0.129,0.129,0.295,0.196,0.442,0.293
	C149.402,77.054,148.82,78.684,147.696,79.706z M151.621,69.098l-21.404-21.402c-0.335-0.335-0.746-0.581-1.2-0.716
	c-0.211-0.065-21.226-6.549-24.298-22.935c-0.257-1.363-1.447-2.331-2.807-2.331c-0.105,0-0.209,0.006-0.318,0.017l-10.287,1.143
	c-0.585,0.065-1.137,0.31-1.579,0.699c-2.542,2.245-10.433,8.074-16.329,8.074c-1.933,0-3.401-0.606-4.599-1.904
	c-0.2-0.505-0.983-3.39,4.309-8.912C82.766,10.756,86.856,8.979,86.847,8.979c0.063-0.021,0.124-0.046,0.185-0.072
	c0.053-0.023,5.4-2.287,10.747-2.287c0.895,0,1.74,0.065,2.515,0.194c4.663,0.777,21.817,9.797,32.208,15.67
	c0.695,0.396,1.527,0.478,2.285,0.232l30.881-12.244l16.325,43.441L151.621,69.098z"/>
</svg>
