<?xml version="1.0" encoding="utf-8"?>
<!-- Generator: Adobe Illustrator 19.1.0, SVG Export Plug-In . SVG Version: 6.00 Build 0)  -->
<svg version="1.1" id="Layer_1" xmlns="http://www.w3.org/2000/svg" xmlns:xlink="http://www.w3.org/1999/xlink" x="0px" y="0px"
	 viewBox="0 0 935.3 274.1" style="enable-background:new 0 0 935.3 274.1;" xml:space="preserve">
<style type="text/css">
	.st0{fill:#FFFFFF;}
	.st1{fill:#ED693C;}
	.st2{fill:#C8512E;}
	.st3{fill:#F29167;}
</style>
<g>
	<g>
		<g>
			<g>
				<path class="st0" d="M322.4,191.8h-12.2v-9.9h-0.3c-1.5,3.4-4.2,6.2-8,8.4c-3.8,2.1-8.2,3.2-13.2,3.2c-3.2,0-6.2-0.5-9-1.4
					c-2.8-1-5.3-2.4-7.4-4.4c-2.1-2-3.8-4.6-5.1-7.7c-1.3-3.1-1.9-6.8-1.9-11.1v-41.5h12.2v38.1c0,3,0.4,5.6,1.2,7.7
					c0.8,2.1,1.9,3.9,3.3,5.2c1.4,1.3,2.9,2.3,4.7,2.9c1.8,0.6,3.6,0.9,5.5,0.9c2.5,0,4.9-0.4,7.1-1.2c2.2-0.8,4.1-2.1,5.7-3.9
					s2.9-4,3.8-6.7c0.9-2.7,1.4-5.9,1.4-9.7v-33.2h12.2L322.4,191.8L322.4,191.8z"/>
			</g>
			<g>
				<path class="st0" d="M340.9,127.3h12.2v9.3h0.3c2.4-3.4,5.6-6.1,9.7-8c4.1-1.9,8.4-2.9,12.7-2.9c5,0,9.5,0.9,13.5,2.6
					c4,1.7,7.5,4.1,10.3,7.2c2.9,3.1,5.1,6.7,6.6,10.8c1.5,4.1,2.3,8.6,2.3,13.3c0,4.8-0.8,9.3-2.3,13.4c-1.5,4.1-3.7,7.7-6.6,10.8
					c-2.9,3-6.3,5.4-10.3,7.1c-4,1.7-8.6,2.6-13.5,2.6c-4.6,0-9-1-13.1-2.9c-4.1-1.9-7.2-4.6-9.4-8h-0.3v47.6h-12.2L340.9,127.3
					L340.9,127.3z M374.3,137.1c-3.3,0-6.2,0.6-8.8,1.7c-2.6,1.1-4.9,2.7-6.7,4.6c-1.8,2-3.2,4.3-4.2,7.1c-1,2.8-1.5,5.8-1.5,9.1
					c0,3.3,0.5,6.3,1.5,9.1c1,2.8,2.4,5.1,4.2,7.1c1.8,2,4,3.5,6.7,4.6c2.6,1.1,5.6,1.7,8.8,1.7c3.3,0,6.2-0.6,8.8-1.7
					c2.6-1.1,4.9-2.7,6.7-4.6c1.8-1.9,3.2-4.3,4.2-7.1c1-2.8,1.5-5.8,1.5-9.1c0-3.3-0.5-6.3-1.5-9.1c-1-2.8-2.4-5.1-4.2-7.1
					c-1.8-2-4-3.5-6.7-4.6C380.6,137.7,377.6,137.1,374.3,137.1z"/>
			</g>
			<g>
				<path class="st0" d="M433.3,164.1c0,2.8,0.6,5.4,1.8,7.7c1.2,2.3,2.8,4.3,4.8,5.9c2,1.6,4.3,2.9,6.9,3.8
					c2.6,0.9,5.4,1.4,8.2,1.4c3.8,0,7.1-0.9,9.9-2.7c2.8-1.8,5.4-4.1,7.8-7l9.3,7.1c-6.8,8.8-16.3,13.2-28.6,13.2
					c-5.1,0-9.7-0.9-13.8-2.6c-4.1-1.7-7.6-4.1-10.5-7.1c-2.9-3-5.1-6.6-6.6-10.8c-1.5-4.1-2.3-8.6-2.3-13.4c0-4.8,0.8-9.3,2.5-13.4
					c1.7-4.1,4-7.7,6.9-10.8c2.9-3,6.5-5.4,10.5-7.1c4.1-1.7,8.5-2.6,13.3-2.6c5.7,0,10.5,1,14.5,3c3.9,2,7.2,4.6,9.7,7.8
					c2.5,3.2,4.4,6.9,5.5,10.9c1.1,4,1.7,8.1,1.7,12.3v4.4L433.3,164.1L433.3,164.1z M471.9,154.3c-0.1-2.7-0.5-5.2-1.3-7.5
					c-0.8-2.3-1.9-4.2-3.5-5.9c-1.5-1.7-3.5-3-5.8-3.9c-2.3-1-5-1.4-8.1-1.4c-3,0-5.7,0.6-8.2,1.7c-2.5,1.1-4.6,2.6-6.3,4.4
					c-1.7,1.8-3.1,3.8-4,6.1c-1,2.2-1.4,4.4-1.4,6.6H471.9z"/>
			</g>
			<g>
				<path class="st0" d="M499.7,127.3h12.2v9.9h0.3c0.8-1.7,1.9-3.3,3.3-4.7c1.4-1.4,2.9-2.6,4.6-3.6c1.7-1,3.5-1.8,5.5-2.4
					c2-0.6,4-0.9,6-0.9c2,0,3.8,0.3,5.4,0.8l-0.5,13.2c-1-0.3-2-0.5-3-0.7c-1-0.2-2-0.3-3-0.3c-6,0-10.6,1.7-13.7,5
					c-3.2,3.4-4.8,8.6-4.8,15.7v32.4h-12.2L499.7,127.3L499.7,127.3z"/>
			</g>
			<g>
				<path class="st0" d="M556.9,164.1c0,2.8,0.6,5.4,1.8,7.7c1.2,2.3,2.8,4.3,4.8,5.9c2,1.6,4.3,2.9,6.9,3.8
					c2.6,0.9,5.4,1.4,8.2,1.4c3.8,0,7.1-0.9,9.9-2.7c2.8-1.8,5.4-4.1,7.8-7l9.3,7.1c-6.8,8.8-16.3,13.2-28.6,13.2
					c-5.1,0-9.7-0.9-13.8-2.6c-4.1-1.7-7.6-4.1-10.5-7.1c-2.9-3-5.1-6.6-6.6-10.8c-1.5-4.1-2.3-8.6-2.3-13.4c0-4.8,0.8-9.3,2.5-13.4
					c1.7-4.1,4-7.7,6.9-10.8c2.9-3,6.5-5.4,10.5-7.1c4.1-1.7,8.5-2.6,13.3-2.6c5.7,0,10.5,1,14.5,3c3.9,2,7.2,4.6,9.7,7.8
					c2.5,3.2,4.4,6.9,5.5,10.9c1.1,4,1.7,8.1,1.7,12.3v4.4L556.9,164.1L556.9,164.1z M595.5,154.3c-0.1-2.7-0.5-5.2-1.3-7.5
					c-0.8-2.3-1.9-4.2-3.5-5.9c-1.5-1.7-3.5-3-5.8-3.9c-2.3-1-5-1.4-8.1-1.4c-3,0-5.7,0.6-8.2,1.7c-2.5,1.1-4.6,2.6-6.3,4.4
					c-1.7,1.8-3.1,3.8-4,6.1c-1,2.2-1.4,4.4-1.4,6.6H595.5z"/>
			</g>
			<g>
				<path class="st0" d="M623.3,127.3h12.2v9.9h0.3c0.8-1.7,1.9-3.3,3.3-4.7c1.4-1.4,2.9-2.6,4.6-3.6c1.7-1,3.5-1.8,5.5-2.4
					c2-0.6,4-0.9,6-0.9c2,0,3.8,0.3,5.4,0.8l-0.5,13.2c-1-0.3-2-0.5-3-0.7c-1-0.2-2-0.3-3-0.3c-6,0-10.6,1.7-13.7,5
					c-3.2,3.4-4.8,8.6-4.8,15.7v32.4h-12.2L623.3,127.3L623.3,127.3z"/>
			</g>
			<g>
				<path class="st0" d="M668,159.6c0-4.7,0.9-9.1,2.7-13.2c1.8-4.1,4.2-7.7,7.3-10.8c3.1-3.1,6.7-5.5,10.9-7.3
					c4.2-1.8,8.7-2.7,13.5-2.7c4.8,0,9.3,0.9,13.5,2.7c4.2,1.8,7.8,4.2,10.9,7.3c3.1,3.1,5.5,6.7,7.3,10.8c1.8,4.1,2.7,8.5,2.7,13.2
					c0,4.7-0.9,9.1-2.7,13.3c-1.8,4.1-4.2,7.7-7.3,10.8c-3.1,3-6.7,5.4-10.9,7.2c-4.2,1.8-8.7,2.7-13.5,2.7c-4.8,0-9.3-0.9-13.5-2.7
					c-4.2-1.8-7.8-4.2-10.9-7.2c-3.1-3-5.5-6.6-7.3-10.8C668.9,168.7,668,164.3,668,159.6z M681.1,159.6c0,3.3,0.5,6.3,1.5,9.1
					c1,2.8,2.4,5.1,4.2,7.1c1.8,2,4,3.5,6.7,4.6c2.6,1.1,5.6,1.7,8.8,1.7s6.2-0.6,8.8-1.7c2.6-1.1,4.9-2.7,6.7-4.6
					c1.8-1.9,3.2-4.3,4.2-7.1c1-2.8,1.5-5.8,1.5-9.1c0-3.3-0.5-6.3-1.5-9.1c-1-2.8-2.4-5.1-4.2-7.1c-1.8-2-4-3.5-6.7-4.6
					c-2.6-1.1-5.6-1.7-8.8-1.7s-6.2,0.6-8.8,1.7c-2.6,1.1-4.9,2.7-6.7,4.6c-1.8,2-3.2,4.3-4.2,7.1
					C681.6,153.3,681.1,156.3,681.1,159.6z"/>
			</g>
			<g>
				<path class="st0" d="M761.3,164.1c0,2.8,0.6,5.4,1.8,7.7c1.2,2.3,2.8,4.3,4.8,5.9c2,1.6,4.3,2.9,6.9,3.8
					c2.6,0.9,5.4,1.4,8.2,1.4c3.8,0,7.1-0.9,9.9-2.7c2.8-1.8,5.4-4.1,7.8-7l9.3,7.1c-6.8,8.8-16.3,13.2-28.6,13.2
					c-5.1,0-9.7-0.9-13.8-2.6c-4.1-1.7-7.6-4.1-10.5-7.1c-2.9-3-5.1-6.6-6.6-10.8c-1.5-4.1-2.3-8.6-2.3-13.4c0-4.8,0.8-9.3,2.5-13.4
					c1.7-4.1,4-7.7,6.9-10.8c2.9-3,6.5-5.4,10.5-7.1c4.1-1.7,8.5-2.6,13.3-2.6c5.7,0,10.5,1,14.5,3c3.9,2,7.2,4.6,9.7,7.8
					c2.5,3.2,4.4,6.9,5.5,10.9c1.1,4,1.7,8.1,1.7,12.3v4.4L761.3,164.1L761.3,164.1z M799.9,154.3c-0.1-2.7-0.5-5.2-1.3-7.5
					c-0.8-2.3-1.9-4.2-3.5-5.9c-1.5-1.7-3.5-3-5.8-3.9c-2.3-1-5-1.4-8.1-1.4c-3,0-5.7,0.6-8.2,1.7c-2.5,1.1-4.6,2.6-6.3,4.4
					c-1.7,1.8-3.1,3.8-4,6.1c-1,2.2-1.4,4.4-1.4,6.6H799.9z"/>
			</g>
			<g>
				<path class="st0" d="M837.4,192.6c-2.4,0-4.6-0.9-6.3-2.7c-1.8-1.8-2.7-3.9-2.7-6.3c0-2.4,0.9-4.6,2.7-6.3
					c1.8-1.8,3.9-2.7,6.3-2.7c2.5,0,4.6,0.9,6.3,2.7c1.8,1.8,2.7,3.9,2.7,6.3c0,2.5-0.9,4.6-2.7,6.3
					C841.9,191.8,839.8,192.6,837.4,192.6z"/>
			</g>
			<g>
				<path class="st0" d="M863.6,104.2c0-2.4,0.9-4.6,2.7-6.3c1.8-1.8,3.9-2.7,6.3-2.7s4.6,0.9,6.3,2.7c1.8,1.8,2.7,3.9,2.7,6.3
					c0,2.4-0.9,4.6-2.7,6.3s-3.9,2.7-6.3,2.7s-4.6-0.9-6.3-2.7C864.5,108.7,863.6,106.6,863.6,104.2z M866.5,127.3h12.2v64.5h-12.2
					V127.3z"/>
			</g>
			<g>
				<path class="st0" d="M932.8,137.9h-17.6v29.3c0,1.8,0,3.6,0.1,5.4c0.1,1.8,0.4,3.4,1,4.8c0.6,1.4,1.5,2.5,2.7,3.4
					c1.2,0.9,3,1.3,5.4,1.3c1.5,0,2.9-0.1,4.5-0.4c1.5-0.3,2.9-0.8,4.2-1.5v11.2c-1.5,0.8-3.3,1.4-5.6,1.7c-2.3,0.3-4.1,0.5-5.4,0.5
					c-4.7,0-8.4-0.7-11-2c-2.6-1.3-4.5-3-5.7-5.1c-1.2-2.1-2-4.4-2.2-7c-0.2-2.6-0.3-5.2-0.3-7.8v-33.6h-14.2v-10.6h14.2v-18.1h12.2
					v18.1h17.6L932.8,137.9L932.8,137.9z"/>
			</g>
		</g>
		<g>
			<g>
				<path class="st0" d="M262.8,44.1c0-1.3,0.4-2.4,1.3-3.3c0.9-0.9,2-1.3,3.3-1.3s2.4,0.4,3.3,1.3c0.9,0.9,1.3,2,1.3,3.3
					c0,1.3-0.4,2.4-1.3,3.3c-0.9,0.9-2,1.3-3.3,1.3s-2.4-0.4-3.3-1.3C263.2,46.5,262.8,45.4,262.8,44.1z M264.3,62.9h6.2v47.5h-6.2
					V62.9z"/>
			</g>
			<g>
				<path class="st0" d="M289,32.7h6.2v77.7H289V32.7z"/>
			</g>
			<g>
				<path class="st0" d="M339.3,76.3c0-0.9,0-2-0.1-3.2c-0.1-1.3-0.1-2.6-0.2-3.9c0-1.3-0.1-2.5-0.2-3.6c-0.1-1.1-0.1-2-0.1-2.6h6.2
					c0.1,1.8,0.1,3.5,0.2,5.1c0,1.6,0.1,2.7,0.3,3.2h0.3c1.2-2.6,3.3-4.8,6.2-6.7c2.9-1.9,6.2-2.8,10.1-2.8c3.2,0,6,0.8,8.6,2.4
					c2.6,1.6,4.5,4.2,5.7,7.9c1.5-3.6,3.8-6.2,6.7-7.8c3-1.6,6.1-2.5,9.4-2.5c3.7,0,6.7,0.6,9,1.7c2.3,1.2,4.2,2.7,5.5,4.6
					c1.3,1.9,2.3,4.1,2.8,6.5c0.5,2.5,0.8,5,0.8,7.6v28.3h-6.2v-28c0-1.9-0.2-3.8-0.5-5.6c-0.3-1.8-0.9-3.4-1.8-4.9
					c-0.9-1.4-2.1-2.6-3.6-3.4c-1.5-0.9-3.5-1.3-6-1.3c-2.9,0-5.2,0.5-7.1,1.6c-1.9,1.1-3.3,2.4-4.4,4.1c-1.1,1.6-1.8,3.4-2.3,5.3
					c-0.4,1.9-0.7,3.7-0.7,5.4v26.7h-6.2V81.8c0-4.4-0.8-7.9-2.4-10.6c-1.6-2.7-4.1-4-7.5-4c-2.3,0-4.4,0.4-6.4,1.2
					c-2,0.8-3.8,2-5.2,3.6c-1.5,1.6-2.6,3.6-3.5,6.1c-0.9,2.4-1.3,5.3-1.3,8.6v23.7h-6.2V76.3z"/>
			</g>
			<g>
				<path class="st0" d="M426.4,44.1c0-1.3,0.4-2.4,1.3-3.3c0.9-0.9,2-1.3,3.3-1.3s2.4,0.4,3.3,1.3c0.9,0.9,1.3,2,1.3,3.3
					c0,1.3-0.4,2.4-1.3,3.3c-0.9,0.9-2,1.3-3.3,1.3s-2.4-0.4-3.3-1.3C426.8,46.5,426.4,45.4,426.4,44.1z M427.9,62.9h6.2v47.5h-6.2
					V62.9z"/>
			</g>
			<g>
				<path class="st0" d="M448.9,86.6c0-3.6,0.6-7,1.8-10c1.2-3,2.9-5.7,5.1-7.9c2.2-2.2,4.8-4,7.9-5.2c3.1-1.2,6.4-1.9,10.1-1.9
					c3.6,0,7,0.6,10,1.9c3,1.2,5.7,3,7.9,5.2c2.2,2.2,4,4.9,5.2,7.9c1.2,3,1.8,6.4,1.8,10c0,3.6-0.6,7-1.8,10c-1.2,3-3,5.7-5.2,7.9
					c-2.2,2.2-4.9,4-7.9,5.2c-3,1.2-6.4,1.9-10,1.9c-3.6,0-7-0.6-10.1-1.9c-3.1-1.2-5.7-3-7.9-5.2c-2.2-2.2-3.9-4.9-5.1-7.9
					C449.5,93.6,448.9,90.3,448.9,86.6z M455,86.6c0,2.7,0.4,5.2,1.3,7.6c0.9,2.4,2.1,4.4,3.8,6.2c1.6,1.7,3.6,3.1,6,4.2
					c2.3,1,4.9,1.5,7.8,1.5c2.9,0,5.5-0.5,7.8-1.5c2.3-1,4.3-2.4,6-4.2c1.6-1.7,2.9-3.8,3.8-6.2c0.9-2.4,1.3-4.9,1.3-7.6
					c0-2.7-0.4-5.2-1.3-7.6c-0.9-2.4-2.1-4.4-3.8-6.2c-1.6-1.7-3.6-3.1-6-4.2c-2.3-1-4.9-1.5-7.8-1.5c-2.9,0-5.5,0.5-7.8,1.5
					c-2.3,1-4.3,2.4-6,4.2c-1.6,1.7-2.9,3.8-3.8,6.2C455.5,81.5,455,84,455,86.6z"/>
			</g>
		</g>
	</g>
	<g>
		<g>
			<g>
				<polygon class="st1" points="154.5,33 120.7,0 87.3,32.8 87.3,32.7 40.8,32.7 40.8,78.4 0,118.3 14.6,153.5 88.3,81.3 
					99.3,119.1 137,144.5 159.9,167.8 159.9,189.3 118.7,229.7 195.5,229.7 235.1,133.8 241.6,118.1 				"/>
			</g>
			<g>
				<polygon class="st2" points="159.9,167.8 137,144.5 99.3,119.1 88.3,81.3 14.6,153.5 46.2,229.8 118.7,229.7 159.9,189.3 				
					"/>
			</g>
		</g>
		<g>
			<g>
				<path class="st0" d="M150.5,104.8c-2.7-3.4-6.2-6.2-10.6-8.2c-4.4-2-8.6-3-12.6-3c-2.1,0-4.2,0.2-6.4,0.6
					c-2.1,0.4-4.1,1.1-5.8,2.1c-1.7,1-3.2,2.4-4.3,4c-1.2,1.7-1.7,3.8-1.7,6.4c0,2.2,0.5,4,1.4,5.5c0.9,1.5,2.3,2.8,4,3.9
					c1.8,1.1,3.9,2.1,6.3,3c2.5,0.9,5.2,1.9,8.3,2.9c4.4,1.5,9,3.1,13.8,4.9c4.8,1.8,9.1,4.1,13.1,7.1c3.9,2.9,7.2,6.6,9.8,11
					c2.6,4.4,3.9,9.8,3.9,16.3c0,7.5-1.4,14-4.1,19.4c-2.8,5.5-6.5,10-11.1,13.5c-4.7,3.6-10,6.2-16,7.9c-6,1.7-12.2,2.6-18.6,2.6
					c-9.3,0-18.3-1.6-27.1-4.9c-8.7-3.2-16-7.9-21.7-13.9l20.6-21c3.2,3.9,7.4,7.2,12.6,9.8c5.2,2.6,10.4,4,15.6,4
					c2.3,0,4.6-0.2,6.8-0.7c2.2-0.5,4.1-1.3,5.8-2.4c1.7-1.1,3-2.6,4-4.4c1-1.8,1.5-4,1.5-6.6c0-2.5-0.6-4.5-1.8-6.3
					c-1.2-1.7-3-3.3-5.2-4.7c-2.3-1.4-5.1-2.7-8.5-3.9c-3.4-1.2-7.2-2.4-11.5-3.8c-4.2-1.3-8.3-2.9-12.2-4.8
					c-4-1.8-7.5-4.2-10.7-7.1c-3.1-2.9-5.6-6.4-7.5-10.5c-1.9-4.1-2.9-9.1-2.9-15c0-7.2,1.5-13.4,4.4-18.6
					c2.9-5.2,6.8-9.4,11.6-12.7c4.8-3.3,10.2-5.7,16.2-7.3c6-1.5,12.1-2.3,18.2-2.3c7.4,0,14.9,1.4,22.5,4c7.7,2.7,14.4,6.7,20.2,12
					L150.5,104.8z"/>
			</g>
		</g>
		<g>
			<g>
				<polygon class="st3" points="76.9,43.3 40.7,43.3 40.8,32.7 87.3,32.8 				"/>
			</g>
		</g>
		<g>
			<g>
				<polygon class="st3" points="237.1,128.9 113.3,7.6 120.7,0 241.6,118.1 				"/>
			</g>
		</g>
	</g>
	<g>
		<path class="st0" d="M416.3,223.7c0-0.5,0.4-0.9,0.9-0.9h1.6c0.4,0,0.9,0.4,0.9,0.9v46.6h23.1c0.9,0,0.9,0.4,0.9,0.9v1.3
			c0,0.5-0.4,0.8-0.9,0.8h-25.5c-0.5,0-0.9-0.4-0.9-0.9V223.7z"/>
		<path class="st0" d="M444.9,238.1c-0.3-0.4-0.2-0.8,0.3-1.2c0.4-0.3,3.6-2.5,4-6.9c0.1-1.1-0.1-2-0.4-2.7
			c-0.4,0.2-0.7,0.4-1.2,0.4c-1.9,0-2.9-1.4-2.9-2.9c0-1.7,1.2-2.8,3-2.8c2.1,0,4,2,4,6.8c0,5.8-3.8,9.3-5.2,10
			c-0.5,0.3-0.9,0.4-1.2,0L444.9,238.1z"/>
		<path class="st0" d="M472.4,243.7c7.6,0,13.1,5.6,13.1,13.2c0,1.2,0,2.8-1.1,2.8h-23.1c0.3,6.2,4.8,11.4,11.3,11.4
			c3.8,0,6.8-1.5,8.5-2.7c0.7-0.4,0.9-0.5,1.3,0l0.7,1c0.2,0.3,0.1,0.7-0.3,1.2c-1.4,1.4-6,3.4-10.5,3.4c-8.8,0-14.2-6.8-14.2-15.2
			C458.2,250.6,463.6,243.7,472.4,243.7z M482.3,257.2c0-5.6-3.4-10.6-9.9-10.6c-6.4,0-10.6,4.6-11,10.6H482.3z"/>
		<path class="st0" d="M494,245.4c0-0.5,0.4-0.9,0.9-0.9h0.9c0.4,0,0.8,0.3,0.9,0.8l0.3,3c0.7-1,3.6-4.5,9-4.5
			c2.3,0,3.9,0.7,4.5,0.9c0.7,0.2,1,0.7,0.8,1.3l-0.6,1.4c-0.2,0.5-0.7,0.6-1.2,0.4c-0.4-0.1-1.8-0.9-3.8-0.9c-5.6,0-8.4,4.6-8.6,5
			v20.6c0,0.6-0.3,0.9-0.9,0.9h-1.4c-0.5,0-0.8-0.4-0.8-0.9V245.4z"/>
		<path class="st0" d="M529.6,243.7c8.1,0,14.5,6.9,14.5,15.1c0,8.5-6.4,15.2-14.5,15.2c-8.2,0-14.5-6.8-14.5-15.2
			C515.1,250.6,521.4,243.7,529.6,243.7z M529.6,271.1c6.4,0,11.3-5.4,11.3-12.3c0-6.7-5-12.1-11.3-12.1c-6.4,0-11.4,5.4-11.4,12.1
			C518.2,265.7,523.2,271.1,529.6,271.1z"/>
		<path class="st0" d="M565.1,243.7c7.6,0,13.1,5.6,13.1,13.2c0,1.2,0,2.8-1.1,2.8H554c0.3,6.2,4.8,11.4,11.3,11.4
			c3.8,0,6.8-1.5,8.5-2.7c0.7-0.4,0.9-0.5,1.3,0l0.7,1c0.2,0.3,0.1,0.7-0.3,1.2c-1.4,1.4-6,3.4-10.5,3.4c-8.8,0-14.2-6.8-14.2-15.2
			C550.8,250.6,556.2,243.7,565.1,243.7z M575,257.2c0-5.6-3.4-10.6-9.9-10.6c-6.4,0-10.6,4.6-11,10.6H575z"/>
		<path class="st0" d="M614.5,243.7c5.5,0,8.9,2.9,8.9,2.9v-22.9c0-0.5,0.4-0.9,0.9-0.9h1.3c0.4,0,0.9,0.4,0.9,0.9v48.7
			c0,0.5-0.4,0.9-0.9,0.9h-0.7c-0.6,0-0.9-0.3-1-0.9l-0.2-2.5c-0.9,0.9-4.4,4.2-10,4.2c-7.5,0-13.4-6.7-13.4-15.2
			C600.2,250.4,606.2,243.7,614.5,243.7z M613.8,271.2c6.3,0,9.4-4.8,9.5-5.1v-16.2c0,0-3.3-3-8.6-3c-6.7,0-11.4,5.2-11.4,12.1
			C603.4,265.6,607.8,271.2,613.8,271.2z"/>
		<path class="st0" d="M649.6,243.7c7.6,0,13.1,5.6,13.1,13.2c0,1.2,0,2.8-1.1,2.8h-23.1c0.3,6.2,4.8,11.4,11.3,11.4
			c3.8,0,6.8-1.5,8.5-2.7c0.7-0.4,0.9-0.5,1.3,0l0.7,1c0.2,0.3,0.1,0.7-0.3,1.2c-1.4,1.4-6,3.4-10.5,3.4c-8.8,0-14.2-6.8-14.2-15.2
			C635.4,250.6,640.8,243.7,649.6,243.7z M659.5,257.2c0-5.6-3.4-10.6-9.9-10.6c-6.4,0-10.6,4.6-11,10.6H659.5z"/>
		<path class="st0" d="M671.2,223.7c0-0.5,0.4-0.9,0.9-0.9h1.3c0.5,0,0.9,0.4,0.9,0.9v48.7c0,0.6-0.3,0.9-0.9,0.9H672
			c-0.5,0-0.8-0.4-0.8-0.9V223.7z"/>
		<path class="st0" d="M702.3,247.2h-3.4c-0.7,0-0.9-0.4-0.9-0.9v-1.2c0-0.5,0.4-0.7,0.9-0.7h3.4v-7.9c0-0.6,0.4-0.9,0.9-0.9
			l1.2-0.1c0.5,0,0.9,0.4,0.9,0.9v8h10.1c0.6,0,0.9,0.4,0.9,0.9v0.9c0,0.6-0.4,0.9-0.9,0.9h-10.1v18.4c0,3.4,0.4,5.3,3.8,5.3
			c2.5,0,5.6-1.4,6.6-2c0.7-0.4,0.9-0.1,1.2,0.3l0.5,0.9c0.3,0.5,0.2,0.9-0.2,1.2c-1.1,0.9-4.3,2.7-8.4,2.7c-6,0-6.5-3.5-6.5-8.2
			V247.2z"/>
		<path class="st0" d="M724.4,245.4c0-0.5,0.4-0.9,0.9-0.9h1.3c0.5,0,0.9,0.4,0.9,0.9v15.5c0,6.7,3.1,10.1,8.6,10.1
			c6,0,9.3-4.7,9.5-5.1v-20.6c0-0.6,0.4-0.9,0.9-0.9h1.3c0.5,0,0.9,0.4,0.9,0.9v27c0,0.5-0.4,0.9-0.9,0.9h-0.9
			c-0.6,0-0.8-0.4-0.9-0.9l-0.3-2.8c-0.8,1-4.3,4.4-10,4.4c-8.1,0-11.6-5-11.6-13.2V245.4z"/>
		<path class="st0" d="M772.2,243.7c8.1,0,14.5,6.9,14.5,15.1c0,8.5-6.4,15.2-14.5,15.2c-8.2,0-14.5-6.8-14.5-15.2
			C757.7,250.6,764,243.7,772.2,243.7z M772.2,271.1c6.4,0,11.3-5.4,11.3-12.3c0-6.7-5-12.1-11.3-12.1c-6.4,0-11.4,5.4-11.4,12.1
			C760.8,265.7,765.8,271.1,772.2,271.1z"/>
		<path class="st0" d="M811.2,245.4c0-0.5,0.4-0.9,0.9-0.9h0.9c0.4,0,0.8,0.3,0.9,0.8l0.3,3c0.7-1,3.6-4.5,9-4.5
			c2.3,0,3.9,0.7,4.5,0.9c0.7,0.2,1,0.7,0.8,1.3l-0.6,1.4c-0.2,0.5-0.7,0.6-1.2,0.4c-0.4-0.1-1.8-0.9-3.8-0.9c-5.6,0-8.4,4.6-8.6,5
			v20.6c0,0.6-0.3,0.9-0.9,0.9H812c-0.5,0-0.8-0.4-0.8-0.9V245.4z"/>
		<path class="st0" d="M846.6,243.7c7.6,0,13.1,5.6,13.1,13.2c0,1.2,0,2.8-1.1,2.8h-23.1c0.3,6.2,4.8,11.4,11.3,11.4
			c3.8,0,6.8-1.5,8.5-2.7c0.7-0.4,0.9-0.5,1.3,0l0.7,1c0.2,0.3,0.1,0.7-0.3,1.2c-1.4,1.4-6,3.4-10.5,3.4c-8.8,0-14.2-6.8-14.2-15.2
			C832.3,250.6,837.7,243.7,846.6,243.7z M856.5,257.2c0-5.6-3.4-10.6-9.9-10.6c-6.4,0-10.6,4.6-11,10.6H856.5z"/>
		<path class="st0" d="M868.1,223.7c0-0.5,0.4-0.9,0.9-0.9h1.3c0.5,0,0.9,0.4,0.9,0.9v48.7c0,0.6-0.3,0.9-0.9,0.9h-1.4
			c-0.5,0-0.8-0.4-0.8-0.9V223.7z"/>
		<path class="st0" d="M892.1,254.7c3.3,0,6.5,1,7.3,1.3c0-6.4-0.7-9.5-6.4-9.5c-4.8,0-8,1.7-8.7,2c-0.6,0.2-0.9-0.1-1.1-0.6
			L883,247c-0.2-0.7,0.1-0.9,0.4-1.1c0.2-0.1,3.9-2.2,9.9-2.2c8.8,0,9.2,5.3,9.2,12.6v16c0,0.5-0.4,0.9-0.9,0.9h-0.9
			c-0.5,0-0.7-0.3-0.9-0.8l-0.3-2.6c-1.9,1.7-5.4,4.1-10,4.1c-5.4,0-9.5-3.7-9.5-9.6C880,258.9,884.5,254.7,892.1,254.7z
			 M889.8,271.2c4.4,0,8.2-2.7,9.6-4.5v-8c-0.9-0.4-3.8-1.5-7.3-1.5c-5.5,0-9.2,2.8-9.2,7.1C883,268.6,885.9,271.2,889.8,271.2z"/>
		<path class="st0" d="M920.8,258.5l-10-13.1c-0.4-0.5-0.1-1,0.4-1h1.9c0.4,0,0.8,0.2,1.1,0.7l8.5,11.2h0.1l8.5-11.2
			c0.3-0.4,0.7-0.7,1.1-0.7h1.9c0.6,0,0.9,0.5,0.4,1l-10,13l10.5,13.9c0.4,0.5,0.1,1-0.4,1h-1.9c-0.4,0-0.8-0.2-1.1-0.7l-9-12.1
			h-0.1l-9,12.1c-0.3,0.4-0.7,0.7-1.1,0.7h-1.9c-0.6,0-0.9-0.5-0.4-1L920.8,258.5z"/>
	</g>
</g>
</svg>
