<svg width="604.89" height="128.474" xmlns="http://www.w3.org/2000/svg" xmlns:xlink="http://www.w3.org/1999/xlink">
 <g>
  <title>background</title>
  <rect fill="none" id="canvas_background" height="130.474" width="606.89" y="-1" x="-1"/>
 </g>
 <g>
  <title>Layer 1</title>
  <g id="svg_1">
   <g id="svg_2">
    <text id="svg_3" transform="matrix(1,0,0,1,1372.83,-722.9626) ">
     <tspan id="svg_4" font-size="33.9492" font-family="'MuseoSans-300'" fill="#E94D29" y="0" x="0">ILMIO</tspan>
     <tspan id="svg_5" font-size="33.9492" font-family="'MuseoSans-900'" fill="#E94D29" y="0" x="104.97">SUPEREROE</tspan>
     <tspan id="svg_6" font-size="33.9492" font-family="'MuseoSans-300'" fill="#E94D29" y="0" x="327.063">.IT</tspan>
    </text>
   </g>
   <g id="svg_7">
    <g id="svg_8">
     <g id="svg_9">
      <g id="svg_10">
       <defs>
        <path d="m1299.25,-749.788l4.524,-1.135c0.163,-0.041 0.328,-0.078 0.497,-0.11l-4.523,1.135c-0.169,0.032 -0.335,0.069 -0.498,0.11z" id="SVGID_1_"/>
       </defs>
       <clipPath id="SVGID_2_">
        <use id="svg_11" xlink:href="#SVGID_1_"/>
       </clipPath>
       <g id="svg_12" clip-path="url(#SVGID_2_)">
        <path id="svg_13" d="m1304.271,-751.033l-4.523,1.135c-0.168,0.032 -0.334,0.069 -0.497,0.11l4.524,-1.135c0.162,-0.041 0.327,-0.078 0.496,-0.11" fill="#858585"/>
       </g>
      </g>
      <g id="svg_14">
       <defs>
        <path d="m1309.58,-713.558l-4.523,1.135c0.745,-0.52 1.347,-1.177 1.813,-2.022c0.46,-0.852 0.641,-1.885 0.636,-3.062c-0.005,-1.131 -0.287,-2.074 -0.851,-2.873c-0.564,-0.799 -1.36,-1.508 -2.387,-2.165c-1.034,-0.656 -2.344,-1.222 -3.886,-1.788l4.524,-1.135c1.542,0.565 2.853,1.131 3.886,1.788c1.027,0.657 1.823,1.365 2.387,2.165c0.564,0.799 0.846,1.742 0.851,2.873c0.006,1.177 -0.176,2.21 -0.636,3.062c-0.467,0.846 -1.069,1.502 -1.814,2.022z" id="SVGID_3_"/>
       </defs>
       <clipPath id="SVGID_4_">
        <use id="svg_15" xlink:href="#SVGID_3_"/>
       </clipPath>
      </g>
      <g id="svg_16">
       <defs>
        <path d="m1304.904,-725.467l-4.524,1.135c-1.542,-0.52 -3.316,-1.131 -5.277,-1.742c-1.916,-0.611 -3.788,-1.365 -5.608,-2.21c-1.821,-0.852 -3.462,-1.931 -4.866,-3.25l4.523,-1.135c1.404,1.32 3.046,2.399 4.866,3.25c1.82,0.845 3.692,1.599 5.608,2.21c1.962,0.611 3.736,1.222 5.278,1.742z" id="SVGID_5_"/>
       </defs>
       <clipPath id="SVGID_6_">
        <use id="svg_17" xlink:href="#SVGID_5_"/>
       </clipPath>
      </g>
      <g id="svg_18">
       <defs>
        <path d="m1294.638,-761.109l4.524,-1.135c-0.073,0.018 -0.147,0.037 -0.22,0.056c-2.747,0.708 -5.215,1.833 -7.398,3.341c-2.138,1.508 -3.899,3.484 -5.241,5.838c-1.341,2.405 -1.984,5.227 -1.968,8.568c0.013,2.73 0.443,5.038 1.341,6.923c0.898,1.931 2.02,3.53 3.476,4.849l-4.523,1.135c-1.456,-1.32 -2.578,-2.919 -3.476,-4.849c-0.898,-1.885 -1.328,-4.193 -1.341,-6.923c-0.016,-3.341 0.627,-6.162 1.968,-8.568c1.341,-2.353 3.103,-4.329 5.24,-5.838c2.183,-1.508 4.651,-2.633 7.398,-3.341c0.073,-0.019 0.146,-0.038 0.22,-0.056z" id="SVGID_7_"/>
       </defs>
       <clipPath id="SVGID_8_">
        <use id="svg_19" xlink:href="#SVGID_7_"/>
       </clipPath>
      </g>
      <g id="svg_20">
       <defs>
        <path d="m1311.373,-701.086l-4.524,1.135c-2.431,0.61 -4.926,0.9 -7.461,0.9c-4.245,0 -8.403,-0.754 -12.378,-2.262c-3.969,-1.502 -7.29,-3.621 -9.964,-6.403l4.524,-1.135c2.674,2.782 5.995,4.901 9.963,6.403c3.975,1.508 8.133,2.262 12.378,2.262c2.537,0 5.031,-0.29 7.462,-0.9z" id="SVGID_9_"/>
       </defs>
       <clipPath id="SVGID_10_">
        <use id="svg_21" xlink:href="#SVGID_9_"/>
       </clipPath>
      </g>
     </g>
    </g>
    <g id="svg_22">
     <path id="svg_23" d="m1353.569,-748.337c-2.993,-10.227 -42.18,-37.144 -49.394,-36.759c-7.214,-0.385 -46.401,26.532 -49.395,36.759c-1.065,3.638 -1.032,8.587 -0.22,14.088l31.736,-22.922c-3.396,2.93 -4.28,4.881 -4.516,5.297c-1.341,2.405 -1.984,5.227 -1.968,8.568c0.013,2.73 0.443,5.038 1.341,6.923c0.898,1.931 2.02,3.53 3.476,4.849c1.404,1.32 3.046,2.399 4.866,3.25c1.821,0.845 3.692,1.599 5.608,2.21c1.961,0.611 3.735,1.222 5.277,1.742c1.542,0.566 2.853,1.131 3.886,1.788c1.027,0.656 1.823,1.365 2.387,2.165c0.564,0.799 0.846,1.742 0.851,2.873c0.006,1.176 -0.176,2.21 -0.636,3.062c-0.466,0.845 -1.533,1.76 -2.278,2.28l0.117,0.073c-0.151,0.061 -0.3,0.13 -0.441,0.213c-2.245,0.178 -4.608,0.127 -6.604,-0.893c-1.635,-0.835 -3.105,-1.817 -4.784,-2.416c-0.182,-1.281 -1.932,-3.378 -1.932,-3.378l-4.524,1.202l-9.377,9.647c2.674,2.782 5.995,4.901 9.964,6.403c3.975,1.508 8.133,2.262 12.378,2.262c6.559,0 10.936,-0.416 15.486,-2.512c3.628,-1.671 5.943,-4.346 5.943,-4.346c-0.555,0.139 -1.934,0.263 -1.548,-0.217c1.008,-1.252 1.397,-3.078 1.993,-4.231c0.593,-1.149 1.86,1.862 1.86,1.862l-13.811,23.757c10.951,-0.647 21.02,-2.461 24.947,-5.722c10.722,-8.901 23.507,-43.545 19.312,-57.877z" fill="#E8501D"/>
     <path id="svg_24" d="m1321.262,-710.356c-0.596,1.153 -0.986,2.979 -1.993,4.231c-0.386,0.48 0.993,0.356 1.548,0.217c0,0 -2.314,2.675 -5.943,4.346c-4.55,2.096 -8.927,2.512 -15.486,2.512c-4.245,0 -8.403,-0.754 -12.378,-2.262c-3.969,-1.502 -7.29,-3.621 -9.964,-6.403l9.377,-9.647l4.524,-1.202l1.932,3.378c0,0 3.149,1.581 4.784,2.416c1.996,1.02 4.359,1.071 6.604,0.893c0.141,-0.083 0.29,-0.151 0.441,-0.213l-0.117,-0.073c0.745,-0.52 1.812,-1.435 2.278,-2.28c0.459,-0.852 0.641,-1.885 0.636,-3.062c-0.005,-1.131 -0.287,-2.074 -0.851,-2.873c-0.564,-0.799 -1.36,-1.508 -2.387,-2.165c-1.034,-0.657 -2.344,-1.222 -3.886,-1.788c-1.542,-0.52 -3.316,-1.131 -5.277,-1.742c-1.916,-0.611 -3.788,-1.365 -5.608,-2.21c-1.821,-0.852 -3.462,-1.931 -4.866,-3.25c-1.456,-1.32 -2.578,-2.919 -3.476,-4.849c-0.898,-1.885 -1.328,-4.193 -1.341,-6.923c-0.016,-3.341 0.627,-6.163 1.968,-8.568c0.237,-0.415 1.121,-2.367 4.516,-5.297l-31.736,22.922c2.386,16.174 11.531,37.147 19.531,43.79c4.511,3.745 17.12,5.583 29.865,5.935l0,0.014c0.073,-0.002 0.145,-0.005 0.218,-0.007c0.073,0.002 0.145,0.005 0.218,0.007l0,-0.014c1.647,-0.045 3.292,-0.116 4.918,-0.212l13.811,-23.757c0,-0.002 -1.266,-3.013 -1.86,-1.864z" fill="#9D2C16"/>
    </g>
    <g id="svg_25">
     <path id="svg_26" d="m1307.239,-763.341c3.362,0 6.818,0.618 10.322,1.885c3.504,1.222 6.591,3.062 9.218,5.506l-9.002,9.796c-1.225,-1.599 -2.861,-2.828 -4.869,-3.77c-2.014,-0.936 -3.93,-1.411 -5.746,-1.411c-0.934,0 -1.913,0.098 -2.891,0.234c-0.978,0.188 -1.865,0.52 -2.655,0.988c-0.79,0.474 -1.444,1.086 -1.949,1.885c-0.512,0.754 -0.784,1.742 -0.778,2.919c0.005,1.034 0.196,1.885 0.618,2.542c0.422,0.663 1.03,1.274 1.877,1.788c0.795,0.52 1.776,0.995 2.899,1.417c1.116,0.423 2.381,0.845 3.781,1.313c2.013,0.663 4.11,1.417 6.31,2.262c2.194,0.8 4.158,1.931 5.987,3.25c1.778,1.365 3.281,3.062 4.456,5.038c1.176,2.022 1.793,4.518 1.808,7.482c0.017,3.439 -0.619,6.449 -1.87,8.945c-1.244,2.496 -2.915,4.615 -5.052,6.214c-2.137,1.651 -4.559,2.873 -7.306,3.628c-2.753,0.799 -5.592,1.177 -8.484,1.177c-4.245,0 -8.403,-0.754 -12.378,-2.262c-3.969,-1.502 -7.29,-3.621 -9.963,-6.403l9.377,-9.647c1.452,1.788 3.372,3.341 5.761,4.518c2.383,1.222 4.763,1.833 7.094,1.833c1.076,0 2.099,-0.091 3.129,-0.325c1.023,-0.241 1.91,-0.611 2.648,-1.086c0.745,-0.52 1.347,-1.177 1.813,-2.022c0.46,-0.852 0.641,-1.885 0.636,-3.062c-0.005,-1.131 -0.287,-2.074 -0.851,-2.873c-0.564,-0.8 -1.36,-1.508 -2.387,-2.165c-1.034,-0.657 -2.344,-1.222 -3.886,-1.788c-1.542,-0.52 -3.316,-1.131 -5.277,-1.742c-1.916,-0.611 -3.788,-1.365 -5.608,-2.21c-1.821,-0.852 -3.462,-1.931 -4.866,-3.25c-1.456,-1.32 -2.578,-2.919 -3.476,-4.849c-0.898,-1.885 -1.328,-4.193 -1.341,-6.923c-0.016,-3.341 0.627,-6.163 1.968,-8.568c1.341,-2.353 3.103,-4.329 5.241,-5.837c2.183,-1.508 4.651,-2.633 7.398,-3.341c2.749,-0.709 5.498,-1.086 8.294,-1.086z" fill="#FFFFFF"/>
    </g>
   </g>
  </g>
  <g id="svg_27">
   <text id="svg_28" transform="matrix(1,0,0,1,1106.1503,-948.9872) ">
    <tspan id="svg_29" font-size="13" font-family="'FrutigerLTStd-Roman'" fill="#9D9D9C" y="0" x="0">ADATTAMENTO ORIZZONTALE</tspan>
    <tspan id="svg_30" font-size="13" font-family="'FrutigerLTStd-Roman'" fill="#9D9D9C" y="15.6" x="0">PER IL WEB</tspan>
   </text>
  </g>
  <rect id="svg_31" height="9.076" width="26.667" fill="#9D9D9C" y="-958.285" x="1070"/>
  <g id="svg_32">
   <g id="svg_33">
    <g id="svg_34">
     <path id="svg_35" d="m298.292,-409.658l2.343,0l0,23.867l-2.343,0l0,-23.867z" fill="#E94D29"/>
     <path id="svg_36" d="m309.937,-409.658l2.343,0l0,21.763l11.068,0l0,2.104l-13.411,0l0,-23.867z" fill="#E94D29"/>
     <path id="svg_37" d="m331.053,-409.658l2.444,0l6.247,14.021c0.543,1.223 1.154,2.92 1.154,2.92l0.068,0c0,0 0.645,-1.697 1.188,-2.92l6.247,-14.021l2.411,0l1.901,23.867l-2.343,0l-1.324,-16.704c-0.102,-1.29 -0.068,-3.327 -0.068,-3.327l-0.067,0c0,0 -0.713,2.105 -1.256,3.327l-5.603,12.256l-2.207,0l-5.602,-12.256c-0.543,-1.188 -1.29,-3.395 -1.29,-3.395l-0.068,0c0,0 0.034,2.104 -0.067,3.395l-1.324,16.704l-2.343,0l1.902,-23.867z" fill="#E94D29"/>
     <path id="svg_38" d="m361.267,-409.658l2.343,0l0,23.867l-2.343,0l0,-23.867z" fill="#E94D29"/>
     <path id="svg_39" d="m383.436,-410.065c6.757,0 12.155,5.33 12.155,12.188c0,6.995 -5.398,12.495 -12.155,12.495c-6.756,0 -12.154,-5.5 -12.154,-12.495c0,-6.858 5.398,-12.188 12.154,-12.188zm0,22.508c5.364,0 9.71,-4.48 9.71,-10.321c0,-5.703 -4.346,-10.015 -9.71,-10.015c-5.397,0 -9.71,4.312 -9.71,10.015c0,5.841 4.313,10.321 9.71,10.321z" fill="#E94D29"/>
     <path id="svg_40" d="m403.975,-393.361c0,0 2.75,2.512 5.806,2.512c1.223,0 2.547,-0.475 2.547,-1.936c0,-2.885 -10.933,-2.783 -10.933,-10.252c0,-4.481 3.769,-7.436 8.59,-7.436c5.229,0 7.809,2.75 7.809,2.75l-2.513,4.855c0,0 -2.444,-2.139 -5.364,-2.139c-1.222,0 -2.58,0.543 -2.58,1.901c0,3.055 10.933,2.512 10.933,10.185c0,4.039 -3.09,7.537 -8.556,7.537c-5.704,0 -8.861,-3.463 -8.861,-3.463l3.122,-4.514z" fill="#E94D29"/>
     <path id="svg_41" d="m424.379,-410.065l5.941,0l0,15.346c0,2.545 1.663,3.904 4.21,3.904c2.546,0 4.21,-1.359 4.21,-3.904l0,-15.346l5.941,0l0,15.346c0,5.465 -4.007,9.336 -10.118,9.336c-6.179,0 -10.185,-3.871 -10.185,-9.336l0,-15.346l0.001,0z" fill="#E94D29"/>
     <path id="svg_42" d="m452.42,-410.065l10.084,0c4.719,0 7.91,3.463 7.91,8.352s-3.191,8.42 -7.91,8.42l-4.143,0l0,7.502l-5.941,0l0,-24.274zm8.861,11.679c2.071,0 3.09,-1.392 3.09,-3.327s-1.019,-3.26 -2.988,-3.26l-3.021,0l0,6.587l2.919,0z" fill="#E94D29"/>
     <path id="svg_43" d="m476.319,-410.065l15.21,0l0,5.092l-9.269,0l0,4.414l7.401,0l0,5.092l-7.401,0l0,4.584l9.744,0l0,5.092l-15.686,0l0,-24.274l0.001,0z" fill="#E94D29"/>
     <path id="svg_44" d="m498.658,-410.065l8.454,0c2.479,0 3.667,0.169 4.719,0.577c2.75,1.052 4.481,3.53 4.481,7.062c0,2.58 -1.222,5.398 -3.632,6.62l0,0.068c0,0 0.339,0.441 0.916,1.461l4.72,8.486l-6.621,0l-4.312,-8.182l-2.783,0l0,8.182l-5.941,0l0,-24.274l-0.001,0zm8.522,11c1.901,0 3.09,-1.053 3.09,-2.988c0,-1.833 -0.679,-2.92 -3.667,-2.92l-2.003,0l0,5.908l2.58,0z" fill="#E94D29"/>
     <path id="svg_45" d="m524.188,-410.065l15.21,0l0,5.092l-9.269,0l0,4.414l7.401,0l0,5.092l-7.401,0l0,4.584l9.744,0l0,5.092l-15.686,0l0,-24.274l0.001,0z" fill="#E94D29"/>
     <path id="svg_46" d="m546.526,-410.065l8.454,0c2.479,0 3.667,0.169 4.719,0.577c2.75,1.052 4.481,3.53 4.481,7.062c0,2.58 -1.222,5.398 -3.632,6.62l0,0.068c0,0 0.339,0.441 0.916,1.461l4.72,8.486l-6.621,0l-4.312,-8.182l-2.784,0l0,8.182l-5.941,0l0,-24.274zm8.522,11c1.901,0 3.09,-1.053 3.09,-2.988c0,-1.833 -0.679,-2.92 -3.667,-2.92l-2.003,0l0,5.908l2.58,0z" fill="#E94D29"/>
     <path id="svg_47" d="m583.023,-410.473c7.334,0 12.697,5.433 12.697,12.393c0,7.129 -5.363,12.698 -12.697,12.698c-7.333,0 -12.697,-5.568 -12.697,-12.698c0,-6.96 5.364,-12.393 12.697,-12.393zm0,19.659c3.633,0 6.553,-3.125 6.553,-7.266c0,-3.973 -2.92,-6.96 -6.553,-6.96s-6.553,2.987 -6.553,6.96c0.001,4.141 2.921,7.266 6.553,7.266z" fill="#E94D29"/>
     <path id="svg_48" d="m602.136,-410.065l15.21,0l0,5.092l-9.269,0l0,4.414l7.401,0l0,5.092l-7.401,0l0,4.584l9.744,0l0,5.092l-15.686,0l0,-24.274l0.001,0z" fill="#E94D29"/>
     <path id="svg_49" d="m624.474,-388.506l2.683,0l0,2.715l-2.683,0l0,-2.715z" fill="#E94D29"/>
     <path id="svg_50" d="m635.406,-409.658l2.343,0l0,23.867l-2.343,0l0,-23.867z" fill="#E94D29"/>
     <path id="svg_51" d="m652.415,-407.553l-8.59,0l0,-2.104l19.488,0l0,2.104l-8.556,0l0,21.762l-2.343,0l0,-21.762l0.001,0z" fill="#E94D29"/>
    </g>
   </g>
   <g id="svg_52">
    <g id="svg_53">
     <g id="svg_54">
      <g id="svg_55">
       <defs>
        <path d="m221.25,-412.616l4.523,-1.135c0.163,-0.041 0.329,-0.078 0.497,-0.11l-4.524,1.135c-0.167,0.032 -0.333,0.069 -0.496,0.11z" id="SVGID_11_"/>
       </defs>
       <clipPath id="SVGID_12_">
        <use id="svg_56" xlink:href="#SVGID_11_"/>
       </clipPath>
       <g id="svg_57" clip-path="url(#SVGID_12_)">
        <path id="svg_58" d="m226.27,-413.861l-4.524,1.135c-0.168,0.032 -0.334,0.069 -0.497,0.11l4.524,-1.135c0.163,-0.041 0.329,-0.078 0.497,-0.11" fill="#858585"/>
       </g>
      </g>
      <g id="svg_59">
       <defs>
        <path d="m231.58,-376.385l-4.523,1.135c0.745,-0.52 1.347,-1.177 1.813,-2.022c0.46,-0.852 0.641,-1.885 0.636,-3.062c-0.006,-1.131 -0.287,-2.074 -0.851,-2.873c-0.564,-0.8 -1.36,-1.508 -2.387,-2.165c-1.034,-0.657 -2.344,-1.222 -3.886,-1.788l4.523,-1.135c1.542,0.566 2.853,1.131 3.886,1.788c1.027,0.657 1.823,1.365 2.387,2.165c0.564,0.8 0.846,1.742 0.851,2.873c0.006,1.177 -0.176,2.21 -0.636,3.062c-0.466,0.845 -1.069,1.502 -1.813,2.022z" id="SVGID_13_"/>
       </defs>
       <clipPath id="SVGID_14_">
        <use id="svg_60" xlink:href="#SVGID_13_"/>
       </clipPath>
      </g>
      <g id="svg_61">
       <defs>
        <path d="m226.904,-388.294l-4.523,1.135c-1.542,-0.52 -3.316,-1.131 -5.277,-1.742c-1.916,-0.611 -3.788,-1.365 -5.608,-2.21c-1.821,-0.852 -3.462,-1.931 -4.866,-3.25l4.524,-1.135c1.404,1.32 3.045,2.399 4.866,3.25c1.821,0.845 3.692,1.599 5.608,2.21c1.959,0.61 3.734,1.221 5.276,1.742z" id="SVGID_15_"/>
       </defs>
       <clipPath id="SVGID_16_">
        <use id="svg_62" xlink:href="#SVGID_15_"/>
       </clipPath>
      </g>
      <g id="svg_63">
       <defs>
        <path d="m216.638,-423.937l4.523,-1.135c-0.073,0.018 -0.147,0.037 -0.22,0.056c-2.747,0.709 -5.215,1.833 -7.398,3.341c-2.138,1.508 -3.899,3.484 -5.241,5.838c-1.341,2.405 -1.984,5.227 -1.968,8.568c0.013,2.73 0.443,5.038 1.341,6.923c0.898,1.931 2.02,3.53 3.476,4.849l-4.524,1.135c-1.456,-1.32 -2.578,-2.919 -3.476,-4.849c-0.898,-1.885 -1.328,-4.193 -1.341,-6.923c-0.016,-3.341 0.627,-6.163 1.968,-8.568c1.341,-2.353 3.103,-4.329 5.241,-5.837c2.183,-1.508 4.651,-2.633 7.398,-3.341c0.074,-0.02 0.147,-0.039 0.221,-0.057z" id="SVGID_17_"/>
       </defs>
       <clipPath id="SVGID_18_">
        <use id="svg_64" xlink:href="#SVGID_17_"/>
       </clipPath>
      </g>
      <g id="svg_65">
       <defs>
        <path d="m233.373,-363.914l-4.524,1.135c-2.431,0.61 -4.926,0.9 -7.461,0.9c-4.245,0 -8.403,-0.754 -12.378,-2.262c-3.969,-1.502 -7.29,-3.621 -9.963,-6.403l4.523,-1.135c2.674,2.782 5.995,4.901 9.963,6.403c3.975,1.508 8.133,2.262 12.378,2.262c2.536,0 5.031,-0.29 7.462,-0.9z" id="SVGID_19_"/>
       </defs>
       <clipPath id="SVGID_20_">
        <use id="svg_66" xlink:href="#SVGID_19_"/>
       </clipPath>
      </g>
     </g>
    </g>
    <g id="svg_67">
     <path id="svg_68" d="m275.569,-411.165c-2.993,-10.227 -42.18,-37.144 -49.394,-36.759c-7.214,-0.385 -46.401,26.532 -49.395,36.759c-1.065,3.638 -1.032,8.587 -0.22,14.088l31.736,-22.922c-3.396,2.93 -4.28,4.881 -4.517,5.297c-1.341,2.405 -1.984,5.227 -1.968,8.568c0.013,2.73 0.443,5.038 1.341,6.923c0.898,1.931 2.02,3.53 3.476,4.849c1.404,1.32 3.046,2.399 4.866,3.25c1.821,0.845 3.692,1.599 5.608,2.21c1.961,0.611 3.735,1.222 5.277,1.742c1.542,0.566 2.853,1.131 3.886,1.788c1.027,0.657 1.823,1.365 2.387,2.165c0.564,0.799 0.846,1.742 0.851,2.873c0.006,1.176 -0.176,2.21 -0.636,3.062c-0.466,0.845 -1.533,1.76 -2.278,2.28l0.117,0.073c-0.151,0.061 -0.3,0.13 -0.441,0.213c-2.245,0.178 -4.608,0.127 -6.604,-0.893c-1.635,-0.835 -3.105,-1.817 -4.784,-2.416c-0.182,-1.281 -1.932,-3.378 -1.932,-3.378l-4.524,1.202l-9.377,9.647c2.674,2.782 5.995,4.901 9.964,6.403c3.975,1.508 8.133,2.262 12.378,2.262c6.559,0 10.936,-0.416 15.486,-2.512c3.628,-1.671 5.942,-4.346 5.942,-4.346c-0.555,0.139 -1.934,0.263 -1.548,-0.217c1.008,-1.252 1.397,-3.078 1.993,-4.231c0.593,-1.149 1.86,1.862 1.86,1.862l-13.811,23.757c10.951,-0.647 21.02,-2.461 24.947,-5.722c10.724,-8.901 23.509,-43.544 19.314,-57.877z" fill="#E8501D"/>
     <path id="svg_69" d="m243.262,-373.184c-0.596,1.153 -0.986,2.979 -1.993,4.231c-0.386,0.48 0.993,0.356 1.548,0.217c0,0 -2.314,2.675 -5.942,4.346c-4.55,2.095 -8.927,2.512 -15.486,2.512c-4.245,0 -8.403,-0.754 -12.378,-2.262c-3.969,-1.502 -7.29,-3.621 -9.964,-6.403l9.377,-9.647l4.524,-1.202l1.932,3.378c0,0 3.149,1.581 4.784,2.416c1.996,1.02 4.359,1.071 6.604,0.893c0.141,-0.083 0.29,-0.151 0.441,-0.213l-0.117,-0.073c0.745,-0.52 1.812,-1.435 2.278,-2.28c0.46,-0.852 0.641,-1.885 0.636,-3.062c-0.006,-1.131 -0.287,-2.074 -0.851,-2.873c-0.564,-0.799 -1.36,-1.508 -2.387,-2.165c-1.034,-0.657 -2.344,-1.222 -3.886,-1.788c-1.542,-0.52 -3.316,-1.131 -5.277,-1.742c-1.916,-0.611 -3.788,-1.365 -5.608,-2.21c-1.82,-0.852 -3.462,-1.931 -4.866,-3.25c-1.456,-1.32 -2.578,-2.919 -3.476,-4.849c-0.898,-1.885 -1.328,-4.193 -1.341,-6.923c-0.016,-3.341 0.627,-6.163 1.968,-8.568c0.237,-0.415 1.121,-2.367 4.517,-5.297l-31.736,22.922c2.386,16.174 11.531,37.147 19.531,43.79c4.511,3.745 17.12,5.583 29.865,5.935l0,0.014c0.073,-0.002 0.145,-0.005 0.218,-0.007c0.073,0.002 0.145,0.005 0.218,0.007l0,-0.014c1.647,-0.045 3.292,-0.116 4.918,-0.212l13.811,-23.757c-0.002,-0.002 -1.269,-3.013 -1.862,-1.864z" fill="#9D2C16"/>
    </g>
    <g id="svg_70">
     <path id="svg_71" d="m229.238,-426.169c3.362,0 6.818,0.618 10.322,1.885c3.504,1.222 6.591,3.062 9.218,5.506l-9.002,9.796c-1.225,-1.599 -2.861,-2.828 -4.869,-3.77c-2.014,-0.936 -3.93,-1.411 -5.746,-1.411c-0.934,0 -1.913,0.098 -2.891,0.234c-0.978,0.189 -1.865,0.52 -2.655,0.988c-0.79,0.475 -1.444,1.086 -1.949,1.885c-0.512,0.754 -0.784,1.742 -0.778,2.919c0.005,1.034 0.196,1.885 0.618,2.542c0.422,0.663 1.03,1.274 1.877,1.788c0.795,0.52 1.776,0.995 2.899,1.417c1.116,0.423 2.381,0.845 3.781,1.313c2.013,0.663 4.11,1.417 6.311,2.262c2.194,0.799 4.158,1.931 5.987,3.25c1.778,1.365 3.281,3.062 4.456,5.038c1.176,2.022 1.793,4.518 1.808,7.482c0.017,3.439 -0.619,6.449 -1.87,8.945c-1.244,2.496 -2.915,4.615 -5.052,6.215c-2.137,1.651 -4.559,2.873 -7.306,3.627c-2.753,0.8 -5.592,1.177 -8.484,1.177c-4.245,0 -8.403,-0.754 -12.378,-2.262c-3.969,-1.502 -7.29,-3.621 -9.963,-6.403l9.377,-9.647c1.452,1.788 3.372,3.341 5.761,4.518c2.383,1.222 4.763,1.833 7.094,1.833c1.076,0 2.099,-0.091 3.129,-0.325c1.023,-0.241 1.91,-0.611 2.649,-1.086c0.745,-0.52 1.347,-1.177 1.813,-2.022c0.46,-0.852 0.641,-1.885 0.636,-3.062c-0.005,-1.131 -0.287,-2.074 -0.851,-2.873c-0.564,-0.8 -1.36,-1.508 -2.387,-2.165c-1.034,-0.657 -2.344,-1.222 -3.886,-1.788c-1.542,-0.52 -3.316,-1.131 -5.277,-1.742c-1.916,-0.611 -3.788,-1.365 -5.608,-2.21c-1.821,-0.852 -3.462,-1.931 -4.866,-3.25c-1.456,-1.32 -2.578,-2.919 -3.476,-4.85c-0.898,-1.885 -1.328,-4.193 -1.341,-6.923c-0.016,-3.341 0.627,-6.163 1.968,-8.568c1.341,-2.353 3.103,-4.329 5.241,-5.837c2.183,-1.508 4.651,-2.633 7.398,-3.341c2.748,-0.708 5.497,-1.085 8.292,-1.085z" fill="#FFFFFF"/>
    </g>
   </g>
  </g>
  <g id="svg_72">
   <g id="svg_73">
    <g id="svg_74">
     <path id="svg_75" d="m152.21,49.4l2.891,0l0,29.45l-2.891,0l0,-29.45z" fill="#FFFFFF"/>
     <path id="svg_76" d="m166.579,49.4l2.891,0l0,26.855l13.658,0l0,2.596l-16.549,0l0,-29.451z" fill="#FFFFFF"/>
     <path id="svg_77" d="m192.635,49.4l3.016,0l7.708,17.301c0.67,1.509 1.424,3.603 1.424,3.603l0.084,0c0,0 0.795,-2.094 1.465,-3.603l7.709,-17.301l2.975,0l2.346,29.45l-2.891,0l-1.634,-20.611c-0.125,-1.592 -0.084,-4.106 -0.084,-4.106l-0.083,0c0,0 -0.88,2.598 -1.55,4.106l-6.913,15.124l-2.723,0l-6.912,-15.124c-0.67,-1.465 -1.592,-4.189 -1.592,-4.189l-0.084,0c0,0 0.042,2.597 -0.083,4.189l-1.634,20.611l-2.891,0l2.347,-29.45z" fill="#FFFFFF"/>
     <path id="svg_78" d="m229.918,49.4l2.891,0l0,29.45l-2.891,0l0,-29.45z" fill="#FFFFFF"/>
     <path id="svg_79" d="m257.273,48.897c8.338,0 14.999,6.577 14.999,15.039c0,8.631 -6.661,15.418 -14.999,15.418c-8.336,0 -14.998,-6.787 -14.998,-15.418c0,-8.462 6.661,-15.039 14.998,-15.039zm0,27.774c6.619,0 11.982,-5.529 11.982,-12.735c0,-7.037 -5.362,-12.357 -11.982,-12.357c-6.66,0 -11.982,5.32 -11.982,12.357c0,7.207 5.322,12.735 11.982,12.735z" fill="#FFFFFF"/>
     <path id="svg_80" d="m282.617,69.509c0,0 3.393,3.099 7.164,3.099c1.509,0 3.143,-0.586 3.143,-2.388c0,-3.56 -13.49,-3.434 -13.49,-12.651c0,-5.53 4.65,-9.175 10.599,-9.175c6.452,0 9.635,3.393 9.635,3.393l-3.101,5.991c0,0 -3.016,-2.639 -6.619,-2.639c-1.507,0 -3.184,0.67 -3.184,2.346c0,3.769 13.49,3.099 13.49,12.568c0,4.984 -3.813,9.3 -10.557,9.3c-7.039,0 -10.934,-4.273 -10.934,-4.273l3.854,-5.571z" fill="#FFFFFF"/>
     <path id="svg_81" d="m307.794,48.897l7.331,0l0,18.936c0,3.14 2.052,4.818 5.195,4.818c3.142,0 5.195,-1.677 5.195,-4.818l0,-18.936l7.331,0l0,18.936c0,6.743 -4.944,11.52 -12.485,11.52c-7.624,0 -12.567,-4.777 -12.567,-11.52l0,-18.936z" fill="#FFFFFF"/>
     <path id="svg_82" d="m342.395,48.897l12.443,0c5.823,0 9.761,4.273 9.761,10.305s-3.938,10.39 -9.761,10.39l-5.112,0l0,9.257l-7.331,0l0,-29.952zm10.934,14.411c2.556,0 3.813,-1.717 3.813,-4.105s-1.257,-4.022 -3.687,-4.022l-3.728,0l0,8.128l3.602,0l0,-0.001z" fill="#FFFFFF"/>
     <path id="svg_83" d="m371.885,48.897l18.768,0l0,6.283l-11.437,0l0,5.447l9.133,0l0,6.284l-9.133,0l0,5.656l12.024,0l0,6.283l-19.355,0l0,-29.953z" fill="#FFFFFF"/>
     <path id="svg_84" d="m399.45,48.897l10.432,0c3.058,0 4.525,0.208 5.823,0.712c3.393,1.298 5.53,4.356 5.53,8.714c0,3.184 -1.507,6.661 -4.481,8.168l0,0.084c0,0 0.418,0.545 1.13,1.803l5.824,10.472l-8.17,0l-5.32,-10.096l-3.436,0l0,10.096l-7.331,0l0,-29.953l-0.001,0zm10.515,13.574c2.346,0 3.813,-1.299 3.813,-3.687c0,-2.262 -0.838,-3.603 -4.525,-3.603l-2.471,0l0,7.29l3.183,0z" fill="#FFFFFF"/>
     <path id="svg_85" d="m430.953,48.897l18.768,0l0,6.283l-11.437,0l0,5.447l9.133,0l0,6.284l-9.133,0l0,5.656l12.024,0l0,6.283l-19.355,0l0,-29.953z" fill="#FFFFFF"/>
     <path id="svg_86" d="m458.517,48.897l10.432,0c3.058,0 4.525,0.208 5.823,0.712c3.393,1.298 5.53,4.356 5.53,8.714c0,3.184 -1.508,6.661 -4.482,8.168l0,0.084c0,0 0.418,0.545 1.13,1.803l5.824,10.472l-8.17,0l-5.32,-10.096l-3.436,0l0,10.096l-7.331,0l0,-29.953zm10.515,13.574c2.346,0 3.813,-1.299 3.813,-3.687c0,-2.262 -0.838,-3.603 -4.525,-3.603l-2.471,0l0,7.29l3.183,0z" fill="#FFFFFF"/>
     <path id="svg_87" d="m503.552,48.394c9.05,0 15.668,6.704 15.668,15.292c0,8.797 -6.618,15.668 -15.668,15.668c-9.048,0 -15.668,-6.871 -15.668,-15.668c0,-8.589 6.619,-15.292 15.668,-15.292zm0,24.257c4.483,0 8.086,-3.856 8.086,-8.966c0,-4.902 -3.603,-8.588 -8.086,-8.588c-4.483,0 -8.086,3.686 -8.086,8.588c0,5.11 3.603,8.966 8.086,8.966z" fill="#FFFFFF"/>
     <path id="svg_88" d="m527.135,48.897l18.768,0l0,6.283l-11.437,0l0,5.447l9.133,0l0,6.284l-9.133,0l0,5.656l12.024,0l0,6.283l-19.355,0l0,-29.953z" fill="#FFFFFF"/>
     <path id="svg_89" d="m554.699,75.5l3.31,0l0,3.35l-3.31,0l0,-3.35z" fill="#FFFFFF"/>
     <path id="svg_90" d="m568.189,49.4l2.891,0l0,29.45l-2.891,0l0,-29.45z" fill="#FFFFFF"/>
     <path id="svg_91" d="m589.177,51.997l-10.599,0l0,-2.597l24.047,0l0,2.597l-10.557,0l0,26.853l-2.891,0l0,-26.853z" fill="#FFFFFF"/>
    </g>
   </g>
   <g id="svg_92">
    <g id="svg_93">
     <g id="svg_94">
      <g id="svg_95">
       <defs transform="translate(0,1) translate(0,-1) translate(0,1) translate(0,-1) translate(0,1) translate(-1,0) translate(1,0) translate(-120,-154) translate(1,1) ">
        <path d="m176.145,197.749l5.582,-1.401c0.201,-0.05 0.405,-0.096 0.613,-0.136l-5.582,1.401c-0.208,0.041 -0.412,0.086 -0.613,0.136z" id="SVGID_21_"/>
       </defs>
       <use x="-119" y="-152" id="svg_96" fill="#FFFFFF" xlink:href="#SVGID_21_"/>
       <clipPath transform="translate(0,1) translate(0,-1) translate(0,1) translate(0,-1) translate(0,1) translate(-1,0) translate(1,0) translate(-120,-154) translate(1,1) " id="SVGID_22_">
        <use x="-119" y="-152" id="svg_97" xlink:href="#SVGID_21_"/>
       </clipPath>
       <g id="svg_98" clip-path="url(#SVGID_22_)">
        <path id="svg_99" d="m63.339,44.213l-5.582,1.401c-0.208,0.04 -0.412,0.085 -0.613,0.136l5.582,-1.401c0.201,-0.051 0.406,-0.096 0.613,-0.136" fill="#FFFFFF"/>
       </g>
      </g>
      <g id="svg_100">
       <defs transform="translate(0,1) translate(0,-1) translate(0,1) translate(0,-1) translate(0,1) translate(-1,0) translate(1,0) translate(-120,-154) translate(1,1) ">
        <path d="m188.891,242.456l-5.582,1.401c0.919,-0.642 1.662,-1.452 2.237,-2.495c0.567,-1.051 0.791,-2.326 0.784,-3.778c-0.007,-1.396 -0.354,-2.559 -1.05,-3.545c-0.696,-0.987 -1.678,-1.861 -2.946,-2.671c-1.276,-0.81 -2.892,-1.508 -4.795,-2.206l5.582,-1.401c1.903,0.698 3.52,1.396 4.795,2.206c1.268,0.81 2.25,1.685 2.946,2.671s1.044,2.15 1.05,3.545c0.007,1.452 -0.217,2.727 -0.784,3.778c-0.575,1.043 -1.318,1.853 -2.237,2.495z" id="SVGID_23_"/>
       </defs>
       <use x="-119" y="-152" id="svg_101" fill="#FFFFFF" xlink:href="#SVGID_23_"/>
       <clipPath transform="translate(0,1) translate(0,-1) translate(0,1) translate(0,-1) translate(0,1) translate(-1,0) translate(1,0) translate(-120,-154) translate(1,1) " id="SVGID_24_">
        <use id="svg_102" xlink:href="#SVGID_23_"/>
       </clipPath>
      </g>
      <g id="svg_103">
       <defs transform="translate(0,1) translate(0,-1) translate(0,1) translate(0,-1) translate(0,1) translate(-1,0) translate(1,0) translate(-120,-154) translate(1,1) ">
        <path d="m183.121,227.761l-5.582,1.401c-1.903,-0.642 -4.092,-1.396 -6.512,-2.15c-2.364,-0.754 -4.674,-1.684 -6.92,-2.727c-2.246,-1.051 -4.272,-2.382 -6.004,-4.011l5.582,-1.401c1.733,1.628 3.758,2.96 6.004,4.011c2.246,1.043 4.556,1.973 6.92,2.727c2.42,0.754 4.609,1.508 6.512,2.15z" id="SVGID_25_"/>
       </defs>
       <use x="-119" y="-152" id="svg_104" fill="#FFFFFF" xlink:href="#SVGID_25_"/>
       <clipPath transform="translate(0,1) translate(0,-1) translate(0,1) translate(0,-1) translate(0,1) translate(-1,0) translate(1,0) translate(-120,-154) translate(1,1) " id="SVGID_26_">
        <use id="svg_105" xlink:href="#SVGID_25_"/>
       </clipPath>
      </g>
      <g id="svg_106">
       <defs transform="translate(0,1) translate(0,-1) translate(0,1) translate(0,-1) translate(0,1) translate(-1,0) translate(1,0) translate(-120,-154) translate(1,1) ">
        <path d="m170.453,183.78l5.582,-1.401c-0.091,0.023 -0.181,0.046 -0.272,0.069c-3.39,0.874 -6.435,2.262 -9.128,4.123c-2.638,1.861 -4.812,4.299 -6.467,7.203c-1.655,2.968 -2.448,6.449 -2.428,10.572c0.016,3.369 0.547,6.216 1.655,8.543c1.108,2.382 2.493,4.356 4.289,5.984l-5.582,1.401c-1.796,-1.628 -3.181,-3.602 -4.289,-5.984c-1.108,-2.326 -1.639,-5.174 -1.655,-8.543c-0.02,-4.123 0.774,-7.604 2.428,-10.572c1.655,-2.904 3.829,-5.342 6.467,-7.203c2.693,-1.861 5.739,-3.249 9.128,-4.123c0.091,-0.023 0.182,-0.046 0.272,-0.069z" id="SVGID_27_"/>
       </defs>
       <use x="-119" y="-152" id="svg_107" fill="#FFFFFF" xlink:href="#SVGID_27_"/>
       <clipPath transform="translate(0,1) translate(0,-1) translate(0,1) translate(0,-1) translate(0,1) translate(-1,0) translate(1,0) translate(-120,-154) translate(1,1) " id="SVGID_28_">
        <use id="svg_108" xlink:href="#SVGID_27_"/>
       </clipPath>
      </g>
      <g id="svg_109">
       <defs transform="translate(0,1) translate(0,-1) translate(0,1) translate(0,-1) translate(0,1) translate(-1,0) translate(1,0) translate(-120,-154) translate(1,1) ">
        <path d="m191.104,257.845l-5.582,1.401c-3,0.753 -6.078,1.11 -9.206,1.11c-5.238,0 -10.369,-0.93 -15.274,-2.791c-4.897,-1.853 -8.995,-4.468 -12.294,-7.901l5.582,-1.401c3.299,3.433 7.397,6.048 12.294,7.901c4.905,1.861 10.036,2.791 15.274,2.791c3.128,0.001 6.205,-0.357 9.206,-1.11z" id="SVGID_29_"/>
       </defs>
       <use x="-119" y="-152" id="svg_110" fill="#FFFFFF" xlink:href="#SVGID_29_"/>
       <clipPath transform="translate(0,1) translate(0,-1) translate(0,1) translate(0,-1) translate(0,1) translate(-1,0) translate(1,0) translate(-120,-154) translate(1,1) " id="SVGID_30_">
        <use id="svg_111" xlink:href="#SVGID_29_"/>
       </clipPath>
      </g>
     </g>
    </g>
    <path id="svg_112" d="m124.171,47.54c-3.693,-12.62 -52.048,-45.834 -60.95,-45.359c-8.902,-0.475 -57.256,32.739 -60.95,45.359c-1.314,4.489 -1.273,10.595 -0.272,17.384c2.944,19.958 14.229,45.838 24.101,54.034c5.566,4.621 21.125,6.889 36.852,7.323l0,0.017c0.09,-0.002 0.179,-0.006 0.269,-0.009c0.09,0.002 0.179,0.006 0.269,0.009l0,-0.017c2.033,-0.056 4.062,-0.143 6.068,-0.262c13.513,-0.798 25.937,-3.037 30.783,-7.061c13.23,-10.984 29.006,-53.732 23.83,-71.418zm-66.711,6.873c0.521,0.818 1.271,1.572 2.316,2.206c0.981,0.642 2.192,1.227 3.577,1.749c1.378,0.521 2.938,1.043 4.665,1.62c2.484,0.818 5.071,1.749 7.787,2.792c2.707,0.987 5.13,2.382 7.387,4.011c2.194,1.684 4.048,3.778 5.498,6.216c1.451,2.495 2.213,5.575 2.231,9.233c0.021,4.243 -0.764,7.957 -2.307,11.037c-1.535,3.08 -3.597,5.695 -6.234,7.668c-2.637,2.038 -5.626,3.545 -9.015,4.476c-3.397,0.987 -6.9,1.452 -10.469,1.452c-5.238,0 -10.369,-0.93 -15.274,-2.792c-4.897,-1.853 -8.995,-4.468 -12.294,-7.901l11.57,-11.904c1.791,2.206 4.161,4.123 7.109,5.575c2.94,1.508 5.877,2.262 8.754,2.262c1.327,0 2.591,-0.112 3.861,-0.401c1.262,-0.297 2.357,-0.754 3.268,-1.339c0.919,-0.642 1.662,-1.452 2.237,-2.495c0.567,-1.051 0.791,-2.326 0.784,-3.778c-0.007,-1.396 -0.354,-2.559 -1.05,-3.545c-0.696,-0.987 -1.678,-1.861 -2.946,-2.671c-1.276,-0.81 -2.893,-1.508 -4.795,-2.206c-1.903,-0.642 -4.092,-1.396 -6.512,-2.15c-2.364,-0.754 -4.674,-1.684 -6.92,-2.727c-2.246,-1.051 -4.272,-2.382 -6.004,-4.011c-1.796,-1.629 -3.181,-3.602 -4.289,-5.984c-1.108,-2.326 -1.639,-5.174 -1.655,-8.543c-0.02,-4.123 0.774,-7.604 2.428,-10.572c1.655,-2.904 3.829,-5.342 6.467,-7.203c2.693,-1.861 5.739,-3.249 9.128,-4.123c3.397,-0.874 6.789,-1.34 10.239,-1.34c4.149,0 8.413,0.762 12.736,2.326c4.323,1.508 8.133,3.778 11.375,6.794l-11.108,12.088c-1.512,-1.973 -3.53,-3.489 -6.007,-4.652c-2.485,-1.155 -4.849,-1.741 -7.09,-1.741c-1.152,0 -2.36,0.12 -3.567,0.289c-1.207,0.233 -2.302,0.642 -3.277,1.219c-0.975,0.586 -1.782,1.34 -2.405,2.326c-0.631,0.93 -0.967,2.15 -0.96,3.602c0.005,1.276 0.241,2.327 0.761,3.137z" fill="#FFFFFF"/>
   </g>
  </g>
  <g id="svg_113">
   <g id="svg_114">
    <text id="svg_115" transform="matrix(1,0,0,1,294.8297,668.7296) ">
     <tspan id="svg_116" font-size="33.9492" font-family="'MuseoSans-300'" fill="#E94D29" y="0" x="0">ILMIO</tspan>
     <tspan id="svg_117" font-size="33.9492" font-family="'MuseoSans-900'" fill="#E94D29" y="0" x="104.97">SUPEREROE</tspan>
     <tspan id="svg_118" font-size="33.9492" font-family="'MuseoSans-300'" fill="#E94D29" y="0" x="327.063">.IT</tspan>
    </text>
   </g>
   <g id="svg_119">
    <g id="svg_120">
     <g id="svg_121">
      <g id="svg_122">
       <defs>
        <path d="m221.25,641.904l4.523,-1.135c0.163,-0.041 0.329,-0.078 0.497,-0.11l-4.524,1.135c-0.167,0.032 -0.333,0.069 -0.496,0.11z" id="SVGID_31_"/>
       </defs>
       <clipPath id="SVGID_32_">
        <use id="svg_123" xlink:href="#SVGID_31_"/>
       </clipPath>
       <g id="svg_124" clip-path="url(#SVGID_32_)">
        <path id="svg_125" d="m226.27,640.659l-4.524,1.135c-0.168,0.032 -0.334,0.069 -0.497,0.11l4.524,-1.135c0.163,-0.041 0.329,-0.078 0.497,-0.11" fill="#858585"/>
       </g>
      </g>
      <g id="svg_126">
       <defs>
        <path d="m231.58,678.135l-4.523,1.135c0.745,-0.52 1.347,-1.177 1.813,-2.022c0.46,-0.852 0.641,-1.885 0.636,-3.062c-0.006,-1.131 -0.287,-2.074 -0.851,-2.873c-0.564,-0.799 -1.36,-1.508 -2.387,-2.165c-1.034,-0.656 -2.344,-1.222 -3.886,-1.788l4.523,-1.135c1.542,0.566 2.853,1.131 3.886,1.788c1.027,0.657 1.823,1.365 2.387,2.165c0.564,0.8 0.846,1.742 0.851,2.873c0.006,1.177 -0.176,2.21 -0.636,3.062c-0.466,0.845 -1.069,1.502 -1.813,2.022z" id="SVGID_33_"/>
       </defs>
       <clipPath id="SVGID_34_">
        <use id="svg_127" xlink:href="#SVGID_33_"/>
       </clipPath>
      </g>
      <g id="svg_128">
       <defs>
        <path d="m226.904,666.226l-4.523,1.135c-1.542,-0.52 -3.316,-1.131 -5.277,-1.742c-1.916,-0.611 -3.788,-1.365 -5.608,-2.21c-1.821,-0.852 -3.462,-1.931 -4.866,-3.25l4.524,-1.135c1.404,1.32 3.045,2.399 4.866,3.25c1.821,0.845 3.692,1.599 5.608,2.21c1.959,0.61 3.734,1.222 5.276,1.742z" id="SVGID_35_"/>
       </defs>
       <clipPath id="SVGID_36_">
        <use id="svg_129" xlink:href="#SVGID_35_"/>
       </clipPath>
      </g>
      <g id="svg_130">
       <defs>
        <path d="m216.638,630.583l4.523,-1.135c-0.073,0.018 -0.147,0.037 -0.22,0.056c-2.747,0.708 -5.215,1.833 -7.398,3.341c-2.138,1.508 -3.899,3.484 -5.241,5.838c-1.341,2.405 -1.984,5.227 -1.968,8.568c0.013,2.73 0.443,5.038 1.341,6.923c0.898,1.931 2.02,3.53 3.476,4.849l-4.524,1.135c-1.456,-1.32 -2.578,-2.919 -3.476,-4.849c-0.898,-1.885 -1.328,-4.193 -1.341,-6.923c-0.016,-3.341 0.627,-6.162 1.968,-8.568c1.341,-2.353 3.103,-4.329 5.241,-5.838c2.183,-1.508 4.651,-2.633 7.398,-3.341c0.074,-0.019 0.147,-0.038 0.221,-0.056z" id="SVGID_37_"/>
       </defs>
       <clipPath id="SVGID_38_">
        <use id="svg_131" xlink:href="#SVGID_37_"/>
       </clipPath>
      </g>
      <g id="svg_132">
       <defs>
        <path d="m233.373,690.606l-4.524,1.135c-2.431,0.61 -4.926,0.9 -7.461,0.9c-4.245,0 -8.403,-0.754 -12.378,-2.262c-3.969,-1.502 -7.29,-3.621 -9.963,-6.403l4.523,-1.135c2.674,2.782 5.995,4.901 9.963,6.403c3.975,1.508 8.133,2.262 12.378,2.262c2.536,0 5.031,-0.29 7.462,-0.9z" id="SVGID_39_"/>
       </defs>
       <clipPath id="SVGID_40_">
        <use id="svg_133" xlink:href="#SVGID_39_"/>
       </clipPath>
      </g>
     </g>
    </g>
    <g id="svg_134">
     <path id="svg_135" d="m275.569,643.355c-2.993,-10.227 -42.18,-37.144 -49.394,-36.759c-7.214,-0.385 -46.401,26.532 -49.395,36.759c-1.065,3.638 -1.032,8.587 -0.22,14.088l31.736,-22.922c-3.396,2.93 -4.28,4.881 -4.517,5.297c-1.341,2.405 -1.984,5.227 -1.968,8.568c0.013,2.73 0.443,5.038 1.341,6.923c0.898,1.931 2.02,3.53 3.476,4.849c1.404,1.32 3.046,2.399 4.866,3.25c1.821,0.845 3.692,1.599 5.608,2.21c1.961,0.611 3.735,1.222 5.277,1.742c1.542,0.566 2.853,1.131 3.886,1.788c1.027,0.656 1.823,1.365 2.387,2.165c0.564,0.799 0.846,1.742 0.851,2.873c0.006,1.176 -0.176,2.21 -0.636,3.062c-0.466,0.845 -1.533,1.76 -2.278,2.28l0.117,0.073c-0.151,0.061 -0.3,0.13 -0.441,0.213c-2.245,0.178 -4.608,0.127 -6.604,-0.893c-1.635,-0.835 -3.105,-1.817 -4.784,-2.416c-0.182,-1.281 -1.932,-3.378 -1.932,-3.378l-4.524,1.202l-9.377,9.647c2.674,2.782 5.995,4.901 9.964,6.403c3.975,1.508 8.133,2.262 12.378,2.262c6.559,0 10.936,-0.416 15.486,-2.512c3.628,-1.671 5.942,-4.346 5.942,-4.346c-0.555,0.139 -1.934,0.263 -1.548,-0.217c1.008,-1.252 1.397,-3.078 1.993,-4.231c0.593,-1.149 1.86,1.862 1.86,1.862l-13.811,23.757c10.951,-0.647 21.02,-2.461 24.947,-5.722c10.724,-8.901 23.509,-43.544 19.314,-57.877z" fill="#E8501D"/>
     <path id="svg_136" d="m243.262,681.336c-0.596,1.153 -0.986,2.979 -1.993,4.231c-0.386,0.48 0.993,0.356 1.548,0.217c0,0 -2.314,2.675 -5.942,4.346c-4.55,2.095 -8.927,2.512 -15.486,2.512c-4.245,0 -8.403,-0.754 -12.378,-2.262c-3.969,-1.502 -7.29,-3.621 -9.964,-6.403l9.377,-9.647l4.524,-1.202l1.932,3.378c0,0 3.149,1.581 4.784,2.416c1.996,1.02 4.359,1.071 6.604,0.893c0.141,-0.083 0.29,-0.151 0.441,-0.213l-0.117,-0.073c0.745,-0.52 1.812,-1.435 2.278,-2.28c0.46,-0.852 0.641,-1.885 0.636,-3.062c-0.006,-1.131 -0.287,-2.074 -0.851,-2.873c-0.564,-0.799 -1.36,-1.508 -2.387,-2.165c-1.034,-0.656 -2.344,-1.222 -3.886,-1.788c-1.542,-0.52 -3.316,-1.131 -5.277,-1.742c-1.916,-0.611 -3.788,-1.365 -5.608,-2.21c-1.82,-0.852 -3.462,-1.931 -4.866,-3.25c-1.456,-1.32 -2.578,-2.919 -3.476,-4.849c-0.898,-1.885 -1.328,-4.193 -1.341,-6.923c-0.016,-3.341 0.627,-6.163 1.968,-8.568c0.237,-0.415 1.121,-2.367 4.517,-5.297l-31.736,22.922c2.386,16.174 11.531,37.147 19.531,43.79c4.511,3.745 17.12,5.583 29.865,5.935l0,0.014c0.073,-0.002 0.145,-0.005 0.218,-0.007c0.073,0.002 0.145,0.005 0.218,0.007l0,-0.014c1.647,-0.045 3.292,-0.116 4.918,-0.212l13.811,-23.757c-0.002,-0.002 -1.269,-3.013 -1.862,-1.864z" fill="#9D2C16"/>
    </g>
    <g id="svg_137">
     <path id="svg_138" d="m229.238,628.351c3.362,0 6.818,0.618 10.322,1.885c3.504,1.222 6.591,3.062 9.218,5.506l-9.002,9.796c-1.225,-1.599 -2.861,-2.828 -4.869,-3.77c-2.014,-0.936 -3.93,-1.411 -5.746,-1.411c-0.934,0 -1.913,0.098 -2.891,0.234c-0.978,0.189 -1.865,0.52 -2.655,0.988c-0.79,0.475 -1.444,1.086 -1.949,1.885c-0.512,0.754 -0.784,1.742 -0.778,2.919c0.005,1.034 0.196,1.885 0.618,2.542c0.422,0.663 1.03,1.274 1.877,1.788c0.795,0.52 1.776,0.995 2.899,1.417c1.116,0.422 2.381,0.845 3.781,1.313c2.013,0.663 4.11,1.417 6.311,2.262c2.194,0.799 4.158,1.931 5.987,3.25c1.778,1.365 3.281,3.062 4.456,5.038c1.176,2.022 1.793,4.518 1.808,7.482c0.017,3.439 -0.619,6.448 -1.87,8.945c-1.244,2.496 -2.915,4.615 -5.052,6.215c-2.137,1.651 -4.559,2.873 -7.306,3.627c-2.753,0.799 -5.592,1.177 -8.484,1.177c-4.245,0 -8.403,-0.754 -12.378,-2.262c-3.969,-1.502 -7.29,-3.621 -9.963,-6.403l9.377,-9.647c1.452,1.788 3.372,3.341 5.761,4.518c2.383,1.222 4.763,1.833 7.094,1.833c1.076,0 2.099,-0.091 3.129,-0.325c1.023,-0.241 1.91,-0.611 2.649,-1.086c0.745,-0.52 1.347,-1.177 1.813,-2.022c0.46,-0.852 0.641,-1.885 0.636,-3.062c-0.005,-1.131 -0.287,-2.074 -0.851,-2.873c-0.564,-0.799 -1.36,-1.508 -2.387,-2.165c-1.034,-0.656 -2.344,-1.222 -3.886,-1.788c-1.542,-0.52 -3.316,-1.131 -5.277,-1.742c-1.916,-0.611 -3.788,-1.365 -5.608,-2.21c-1.821,-0.852 -3.462,-1.931 -4.866,-3.25c-1.456,-1.32 -2.578,-2.919 -3.476,-4.849c-0.898,-1.885 -1.328,-4.193 -1.341,-6.923c-0.016,-3.341 0.627,-6.163 1.968,-8.568c1.341,-2.353 3.103,-4.329 5.241,-5.838c2.183,-1.508 4.651,-2.633 7.398,-3.341c2.748,-0.708 5.497,-1.085 8.292,-1.085z" fill="#FFFFFF"/>
    </g>
   </g>
  </g>
 </g>
</svg>