<?xml version="1.0" encoding="utf-8"?>
<!-- Generator: Adobe Illustrator 19.1.0, SVG Export Plug-In . SVG Version: 6.00 Build 0)  -->
<svg version="1.1" id="Layer_1" shape-rendering="geometricPrecision"
	 xmlns="http://www.w3.org/2000/svg" xmlns:xlink="http://www.w3.org/1999/xlink" x="0px" y="0px" viewBox="257 88.7 913.3 225.3"
	 style="enable-background:new 257 88.7 913.3 225.3;" xml:space="preserve">
<style type="text/css">
	.st0{fill:#3A3A3A;}
	.st1{fill:#ED693C;}
	.st2{fill:#C8502F;}
	.st3{fill:#FFFFFF;}
	.st4{fill:#F29067;}
</style>
<g>
	<g>
		<path class="st0" d="M572.5,276.4h-12v-9.7h-0.3c-1.5,3.4-4.1,6.1-7.9,8.2c-3.7,2.1-8,3.1-12.9,3.1c-3.1,0-6-0.5-8.8-1.4
			c-2.8-0.9-5.2-2.4-7.3-4.3c-2.1-2-3.8-4.5-5-7.5c-1.2-3.1-1.9-6.7-1.9-10.9v-40.6h12v37.3c0,2.9,0.4,5.4,1.2,7.5
			c0.8,2.1,1.9,3.8,3.2,5.1c1.3,1.3,2.9,2.2,4.6,2.8c1.7,0.6,3.5,0.9,5.4,0.9c2.5,0,4.8-0.4,6.9-1.2c2.1-0.8,4-2.1,5.6-3.8
			c1.6-1.7,2.8-3.9,3.7-6.6c0.9-2.7,1.3-5.8,1.3-9.5v-32.5h12L572.5,276.4L572.5,276.4z"/>
		<path class="st0" d="M590.6,213.3h12v9.1h0.3c2.3-3.4,5.5-6,9.5-7.9c4-1.9,8.2-2.8,12.5-2.8c4.9,0,9.3,0.8,13.3,2.5
			c4,1.7,7.3,4,10.1,7.1c2.8,3,4.9,6.5,6.5,10.6c1.5,4,2.3,8.4,2.3,13c0,4.7-0.8,9.1-2.3,13.1c-1.5,4-3.7,7.5-6.5,10.5
			c-2.8,3-6.2,5.3-10.1,7c-4,1.7-8.4,2.5-13.3,2.5c-4.5,0-8.8-1-12.8-2.9c-4-1.9-7.1-4.5-9.2-7.8h-0.3V314h-12V213.3L590.6,213.3z
			 M623.4,222.9c-3.2,0-6.1,0.6-8.7,1.7c-2.6,1.1-4.8,2.6-6.5,4.5c-1.8,1.9-3.2,4.2-4.1,6.9c-1,2.7-1.5,5.7-1.5,8.9
			c0,3.2,0.5,6.1,1.5,8.9c1,2.7,2.4,5,4.1,6.9c1.8,1.9,3.9,3.4,6.5,4.5c2.6,1.1,5.5,1.7,8.7,1.7c3.2,0,6.1-0.6,8.7-1.7
			c2.6-1.1,4.7-2.6,6.5-4.5c1.8-1.9,3.1-4.2,4.1-6.9c1-2.7,1.5-5.7,1.5-8.9c0-3.2-0.5-6.1-1.5-8.9c-1-2.7-2.4-5-4.1-6.9
			c-1.8-1.9-4-3.4-6.5-4.5C629.5,223.4,626.6,222.9,623.4,222.9z"/>
		<path class="st0" d="M681,249.3c0,2.8,0.6,5.3,1.8,7.5c1.2,2.3,2.8,4.2,4.7,5.8c2,1.6,4.2,2.8,6.8,3.7c2.6,0.9,5.2,1.3,8,1.3
			c3.7,0,7-0.9,9.7-2.6c2.8-1.7,5.3-4,7.6-6.9l9.1,6.9c-6.7,8.6-16,12.9-28,12.9c-5,0-9.5-0.8-13.5-2.5c-4-1.7-7.5-4-10.3-7
			c-2.8-3-5-6.5-6.5-10.5c-1.5-4-2.3-8.4-2.3-13.1c0-4.7,0.8-9.1,2.5-13.1c1.6-4,3.9-7.5,6.8-10.5c2.9-3,6.3-5.3,10.3-7
			c4-1.7,8.3-2.5,13.1-2.5c5.6,0,10.3,1,14.2,2.9c3.9,2,7,4.5,9.5,7.7c2.5,3.2,4.3,6.7,5.4,10.7c1.1,4,1.7,8,1.7,12.1v4.3L681,249.3
			L681,249.3z M718.9,239.7c-0.1-2.7-0.5-5.1-1.3-7.3c-0.8-2.2-1.9-4.1-3.4-5.8c-1.5-1.6-3.4-2.9-5.7-3.9c-2.3-0.9-4.9-1.4-7.9-1.4
			c-2.9,0-5.6,0.6-8.1,1.7c-2.4,1.1-4.5,2.6-6.2,4.3c-1.7,1.8-3,3.8-3.9,5.9c-0.9,2.2-1.4,4.3-1.4,6.5H718.9z"/>
		<path class="st0" d="M746,213.3h12v9.7h0.3c0.8-1.7,1.9-3.2,3.2-4.6c1.3-1.4,2.8-2.6,4.5-3.5c1.6-1,3.4-1.8,5.4-2.3
			c2-0.6,3.9-0.9,5.9-0.9c2,0,3.7,0.3,5.3,0.8l-0.5,12.9c-1-0.3-2-0.5-2.9-0.7c-1-0.2-2-0.3-2.9-0.3c-5.9,0-10.3,1.6-13.5,4.9
			c-3.1,3.3-4.7,8.4-4.7,15.3v31.7h-12L746,213.3L746,213.3z"/>
		<path class="st0" d="M802,249.3c0,2.8,0.6,5.3,1.8,7.5c1.2,2.3,2.8,4.2,4.7,5.8c2,1.6,4.2,2.8,6.8,3.7c2.6,0.9,5.2,1.3,8,1.3
			c3.7,0,7-0.9,9.7-2.6c2.8-1.7,5.3-4,7.6-6.9l9.1,6.9c-6.7,8.6-16,12.9-28,12.9c-5,0-9.5-0.8-13.5-2.5c-4-1.7-7.5-4-10.3-7
			c-2.8-3-5-6.5-6.5-10.5c-1.5-4-2.3-8.4-2.3-13.1c0-4.7,0.8-9.1,2.5-13.1c1.6-4,3.9-7.5,6.8-10.5c2.9-3,6.3-5.3,10.3-7
			c4-1.7,8.3-2.5,13.1-2.5c5.6,0,10.3,1,14.2,2.9c3.9,2,7,4.5,9.5,7.7c2.5,3.2,4.3,6.7,5.4,10.7c1.1,4,1.7,8,1.7,12.1v4.3L802,249.3
			L802,249.3z M839.8,239.7c-0.1-2.7-0.5-5.1-1.3-7.3c-0.8-2.2-1.9-4.1-3.4-5.8c-1.5-1.6-3.4-2.9-5.7-3.9c-2.3-0.9-4.9-1.4-7.9-1.4
			c-2.9,0-5.6,0.6-8.1,1.7c-2.4,1.1-4.5,2.6-6.2,4.3c-1.7,1.8-3,3.8-3.9,5.9c-0.9,2.2-1.4,4.3-1.4,6.5H839.8z"/>
		<path class="st0" d="M867,213.3h12v9.7h0.3c0.8-1.7,1.9-3.2,3.2-4.6c1.3-1.4,2.8-2.6,4.5-3.5c1.6-1,3.4-1.8,5.4-2.3
			c2-0.6,3.9-0.9,5.9-0.9c2,0,3.7,0.3,5.3,0.8l-0.5,12.9c-1-0.3-2-0.5-2.9-0.7c-1-0.2-2-0.3-2.9-0.3c-5.9,0-10.3,1.6-13.5,4.9
			c-3.1,3.3-4.7,8.4-4.7,15.3v31.7h-12L867,213.3L867,213.3z"/>
		<path class="st0" d="M910.8,244.9c0-4.6,0.9-8.9,2.6-12.9c1.7-4,4.1-7.5,7.1-10.5c3-3,6.6-5.4,10.7-7.1c4.1-1.7,8.5-2.6,13.2-2.6
			c4.7,0,9.1,0.9,13.2,2.6c4.1,1.7,7.6,4.1,10.7,7.1c3,3,5.4,6.5,7.1,10.5c1.7,4,2.6,8.3,2.6,12.9c0,4.6-0.9,8.9-2.6,13
			c-1.7,4-4.1,7.5-7.1,10.5c-3,3-6.6,5.3-10.7,7.1c-4.1,1.7-8.5,2.6-13.2,2.6c-4.7,0-9.1-0.9-13.2-2.6c-4.1-1.7-7.6-4.1-10.7-7.1
			c-3-3-5.4-6.5-7.1-10.5C911.7,253.8,910.8,249.5,910.8,244.9z M923.6,244.9c0,3.2,0.5,6.1,1.5,8.9c1,2.7,2.4,5,4.1,6.9
			c1.8,1.9,4,3.4,6.5,4.5c2.6,1.1,5.5,1.7,8.7,1.7s6.1-0.6,8.7-1.7c2.6-1.1,4.7-2.6,6.5-4.5c1.8-1.9,3.2-4.2,4.1-6.9
			c1-2.7,1.5-5.7,1.5-8.9c0-3.2-0.5-6.1-1.5-8.9c-1-2.7-2.4-5-4.1-6.9c-1.8-1.9-4-3.4-6.5-4.5c-2.6-1.1-5.5-1.7-8.7-1.7
			s-6.1,0.6-8.7,1.7c-2.6,1.1-4.8,2.6-6.5,4.5c-1.8,1.9-3.2,4.2-4.1,6.9C924.1,238.7,923.6,241.7,923.6,244.9z"/>
		<path class="st0" d="M1002.1,249.3c0,2.8,0.6,5.3,1.8,7.5c1.2,2.3,2.8,4.2,4.7,5.8c2,1.6,4.2,2.8,6.8,3.7c2.6,0.9,5.2,1.3,8,1.3
			c3.7,0,7-0.9,9.7-2.6c2.8-1.7,5.3-4,7.6-6.9l9.1,6.9c-6.7,8.6-16,12.9-28,12.9c-5,0-9.5-0.8-13.5-2.5c-4-1.7-7.5-4-10.3-7
			c-2.8-3-5-6.5-6.5-10.5c-1.5-4-2.3-8.4-2.3-13.1c0-4.7,0.8-9.1,2.5-13.1c1.6-4,3.9-7.5,6.8-10.5c2.9-3,6.3-5.3,10.3-7
			c4-1.7,8.3-2.5,13.1-2.5c5.6,0,10.3,1,14.2,2.9c3.9,2,7,4.5,9.5,7.7c2.5,3.2,4.3,6.7,5.4,10.7c1.1,4,1.7,8,1.7,12.1v4.3
			L1002.1,249.3L1002.1,249.3z M1039.9,239.7c-0.1-2.7-0.5-5.1-1.3-7.3c-0.8-2.2-1.9-4.1-3.4-5.8c-1.5-1.6-3.4-2.9-5.7-3.9
			c-2.3-0.9-4.9-1.4-7.9-1.4c-2.9,0-5.6,0.6-8.1,1.7c-2.4,1.1-4.5,2.6-6.2,4.3c-1.7,1.8-3,3.8-3.9,5.9c-0.9,2.2-1.4,4.3-1.4,6.5
			H1039.9z"/>
		<path class="st0" d="M1076.5,277.2c-2.4,0-4.5-0.9-6.2-2.6c-1.7-1.7-2.6-3.8-2.6-6.2c0-2.4,0.9-4.5,2.6-6.2
			c1.7-1.7,3.8-2.6,6.2-2.6c2.4,0,4.5,0.9,6.2,2.6c1.7,1.7,2.6,3.8,2.6,6.2c0,2.4-0.9,4.5-2.6,6.2
			C1081,276.4,1078.9,277.2,1076.5,277.2z"/>
		<path class="st0" d="M1102.2,190.7c0-2.4,0.9-4.5,2.6-6.2c1.7-1.7,3.8-2.6,6.2-2.6s4.5,0.9,6.2,2.6c1.7,1.7,2.6,3.8,2.6,6.2
			c0,2.4-0.9,4.5-2.6,6.2c-1.7,1.7-3.8,2.6-6.2,2.6s-4.5-0.9-6.2-2.6C1103.1,195.1,1102.2,193.1,1102.2,190.7z M1105,213.3h12v63.1
			h-12V213.3z"/>
		<path class="st0" d="M1169.9,223.7h-17.2v28.6c0,1.8,0,3.5,0.1,5.3c0.1,1.7,0.4,3.3,1,4.7c0.6,1.4,1.5,2.5,2.7,3.3
			c1.2,0.8,3,1.3,5.3,1.3c1.4,0,2.9-0.1,4.4-0.4c1.5-0.3,2.9-0.8,4.1-1.5v10.9c-1.4,0.8-3.3,1.4-5.5,1.7c-2.3,0.3-4,0.5-5.3,0.5
			c-4.6,0-8.2-0.6-10.7-1.9c-2.5-1.3-4.4-3-5.6-5c-1.2-2-1.9-4.3-2.1-6.9c-0.2-2.5-0.3-5.1-0.3-7.7v-32.9h-13.9v-10.4h13.9v-17.7h12
			v17.7h17.2V223.7L1169.9,223.7z"/>
	</g>
	<g>
		<path class="st0" d="M514.2,131.9c0-1.3,0.4-2.3,1.3-3.2c0.9-0.9,1.9-1.3,3.2-1.3s2.3,0.4,3.2,1.3c0.9,0.9,1.3,1.9,1.3,3.2
			c0,1.3-0.4,2.3-1.3,3.2c-0.9,0.9-1.9,1.3-3.2,1.3s-2.3-0.4-3.2-1.3C514.6,134.2,514.2,133.1,514.2,131.9z M515.7,150.3h6v46.5h-6
			V150.3z"/>
		<path class="st0" d="M539.8,120.7h6v76h-6V120.7z"/>
		<path class="st0" d="M589.1,163.3c0-0.9,0-1.9-0.1-3.2c-0.1-1.2-0.1-2.5-0.2-3.8c0-1.3-0.1-2.5-0.2-3.6c-0.1-1.1-0.1-2-0.1-2.6h6
			c0.1,1.7,0.1,3.4,0.2,5c0,1.6,0.1,2.6,0.3,3.1h0.3c1.2-2.5,3.2-4.7,6-6.6c2.8-1.8,6.1-2.8,9.9-2.8c3.1,0,5.9,0.8,8.4,2.4
			c2.5,1.6,4.4,4.1,5.5,7.7c1.5-3.5,3.7-6,6.6-7.6c2.9-1.6,6-2.4,9.2-2.4c3.6,0,6.6,0.6,8.9,1.7c2.3,1.1,4.1,2.6,5.4,4.5
			c1.3,1.8,2.2,4,2.7,6.4c0.5,2.4,0.8,4.9,0.8,7.4v27.7h-6v-27.4c0-1.9-0.2-3.7-0.5-5.5c-0.3-1.8-0.9-3.4-1.8-4.8
			c-0.8-1.4-2-2.5-3.5-3.4c-1.5-0.8-3.5-1.3-5.9-1.3c-2.8,0-5.1,0.5-6.9,1.6c-1.8,1-3.2,2.4-4.3,4c-1,1.6-1.8,3.4-2.2,5.2
			c-0.4,1.9-0.7,3.7-0.7,5.3v26.2h-6v-28c0-4.3-0.8-7.7-2.4-10.4c-1.6-2.6-4-3.9-7.3-3.9c-2.2,0-4.3,0.4-6.3,1.2
			c-2,0.8-3.7,1.9-5.1,3.5c-1.4,1.6-2.6,3.6-3.4,5.9c-0.8,2.4-1.3,5.2-1.3,8.4v23.2h-6V163.3z"/>
		<path class="st0" d="M674.3,131.9c0-1.3,0.4-2.3,1.3-3.2c0.9-0.9,1.9-1.3,3.2-1.3s2.3,0.4,3.2,1.3c0.9,0.9,1.3,1.9,1.3,3.2
			c0,1.3-0.4,2.3-1.3,3.2c-0.9,0.9-1.9,1.3-3.2,1.3s-2.3-0.4-3.2-1.3C674.7,134.2,674.3,133.1,674.3,131.9z M675.8,150.3h6v46.5h-6
			V150.3z"/>
		<path class="st0" d="M696.3,173.5c0-3.6,0.6-6.8,1.8-9.8c1.2-3,2.9-5.6,5-7.7c2.1-2.2,4.7-3.9,7.7-5.1c3-1.2,6.3-1.8,9.9-1.8
			c3.6,0,6.8,0.6,9.8,1.8c3,1.2,5.6,2.9,7.7,5.1c2.2,2.2,3.9,4.8,5.1,7.7c1.2,3,1.8,6.3,1.8,9.8c0,3.6-0.6,6.8-1.8,9.8
			c-1.2,3-2.9,5.6-5.1,7.7c-2.2,2.2-4.8,3.9-7.7,5.1c-3,1.2-6.3,1.8-9.8,1.8c-3.6,0-6.8-0.6-9.9-1.8c-3-1.2-5.6-2.9-7.7-5.1
			c-2.1-2.2-3.8-4.8-5-7.7C696.9,180.3,696.3,177.1,696.3,173.5z M702.3,173.5c0,2.6,0.4,5.1,1.3,7.4c0.8,2.3,2.1,4.3,3.7,6
			c1.6,1.7,3.6,3.1,5.8,4.1c2.3,1,4.8,1.5,7.6,1.5c2.8,0,5.4-0.5,7.6-1.5c2.3-1,4.2-2.4,5.8-4.1c1.6-1.7,2.8-3.7,3.7-6
			c0.8-2.3,1.3-4.8,1.3-7.4c0-2.6-0.4-5.1-1.3-7.4c-0.8-2.3-2.1-4.3-3.7-6c-1.6-1.7-3.6-3.1-5.8-4.1c-2.3-1-4.8-1.5-7.6-1.5
			c-2.8,0-5.4,0.5-7.6,1.5c-2.3,1-4.2,2.4-5.8,4.1c-1.6,1.7-2.8,3.7-3.7,6C702.8,168.4,702.3,170.9,702.3,173.5z"/>
	</g>
</g>
<g>
	<g>
		<polygon class="st1" points="408.2,121 375.1,88.7 342.4,120.8 342.4,120.7 296.9,120.7 296.9,165.4 257,204.5 271.3,239 
			343.4,168.3 354.2,205.3 391.1,230.1 413.5,252.9 413.5,274 373.1,313.5 448.4,313.5 487.1,219.6 493.4,204.3 		"/>
		<polygon class="st2" points="413.5,252.9 391.1,230.1 354.2,205.3 343.4,168.3 271.3,239 302.3,313.6 373.1,313.5 413.5,274 		"/>
	</g>
	<g>
		<path class="st3" d="M404.3,191.2c-2.6-3.4-6.1-6-10.4-8c-4.3-2-8.4-3-12.3-3c-2,0-4.1,0.2-6.2,0.5c-2.1,0.4-4,1.1-5.7,2.1
			c-1.7,1-3.1,2.3-4.2,4c-1.1,1.6-1.7,3.7-1.7,6.2c0,2.2,0.4,4,1.3,5.4c0.9,1.4,2.2,2.7,4,3.8c1.7,1.1,3.8,2.1,6.2,3
			c2.4,0.9,5.1,1.8,8.1,2.8c4.3,1.4,8.8,3,13.5,4.8c4.7,1.7,8.9,4.1,12.8,6.9c3.8,2.9,7,6.5,9.5,10.7c2.5,4.3,3.8,9.6,3.8,15.9
			c0,7.3-1.4,13.7-4.1,19c-2.7,5.3-6.3,9.8-10.9,13.2c-4.6,3.5-9.8,6.1-15.7,7.7c-5.9,1.7-12,2.5-18.2,2.5c-9.1,0-18-1.6-26.5-4.8
			c-8.5-3.2-15.6-7.7-21.3-13.6l20.2-20.5c3.1,3.8,7.2,7.1,12.3,9.6c5.1,2.6,10.2,3.9,15.2,3.9c2.3,0,4.5-0.2,6.7-0.7
			c2.2-0.5,4.1-1.3,5.7-2.3c1.6-1.1,2.9-2.5,3.9-4.3c1-1.8,1.4-4,1.4-6.5c0-2.4-0.6-4.4-1.8-6.1c-1.2-1.7-2.9-3.2-5.1-4.6
			c-2.2-1.4-5-2.6-8.3-3.8c-3.3-1.1-7.1-2.4-11.3-3.7c-4.1-1.3-8.1-2.9-12-4.7c-3.9-1.8-7.4-4.1-10.4-6.9c-3.1-2.8-5.5-6.2-7.4-10.3
			c-1.9-4-2.8-8.9-2.8-14.7c0-7.1,1.4-13.1,4.3-18.2c2.9-5,6.7-9.2,11.3-12.4c4.7-3.2,10-5.6,15.9-7.1c5.9-1.5,11.8-2.3,17.8-2.3
			c7.2,0,14.6,1.3,22.1,4c7.5,2.6,14.1,6.5,19.7,11.7L404.3,191.2z"/>
	</g>
	<g>
		<polygon class="st4" points="332.3,131.1 296.9,131 296.9,120.7 342.4,120.8 		"/>
	</g>
	<g>
		<polygon class="st4" points="489.1,214.8 367.9,96.1 375.1,88.7 493.4,204.3 		"/>
	</g>
</g>
</svg>
