<?xml version="1.0" encoding="utf-8"?>
<!-- Generator: Adobe Illustrator 17.0.0, SVG Export Plug-In . SVG Version: 6.00 Build 0)  -->
<!DOCTYPE svg PUBLIC "-//W3C//DTD SVG 1.1//EN" "http://www.w3.org/Graphics/SVG/1.1/DTD/svg11.dtd">
<svg version="1.1" id="Layer_1" xmlns="http://www.w3.org/2000/svg" xmlns:xlink="http://www.w3.org/1999/xlink" x="0px" y="0px"
	 width="35px" height="35.001px" viewBox="17.014 32.499 35 35.001" enable-background="new 17.014 32.499 35 35.001"
	 xml:space="preserve">
<g>
	<g>
		<path d="M34.514,67.501c9.65,0,17.5-7.851,17.5-17.501c0-9.649-7.85-17.501-17.5-17.501
			c-9.649,0-17.5,7.851-17.5,17.501C17.014,59.65,24.864,67.501,34.514,67.501z M34.514,34.518c8.537,0,15.481,6.945,15.481,15.482
			c0,8.537-6.944,15.481-15.48,15.481S19.033,58.536,19.033,50C19.033,41.463,25.977,34.518,34.514,34.518z"/>
	</g>
	<g>
		<path d="M36.34,58.924c0.394,0.394,1.033,0.394,1.428,0c0.394-0.394,0.394-1.033,0-1.428L30.271,50l7.496-7.496
			c0.394-0.394,0.394-1.033,0-1.428c-0.197-0.197-0.456-0.296-0.714-0.296c-0.258,0-0.517,0.098-0.714,0.296l-8.21,8.21
			c-0.394,0.394-0.394,1.033,0,1.428L36.34,58.924z"/>
	</g>
</g>
</svg>
