<?xml version="1.0" encoding="utf-8"?>
<!-- Generator: Adobe Illustrator 17.0.0, SVG Export Plug-In . SVG Version: 6.00 Build 0)  -->
<!DOCTYPE svg PUBLIC "-//W3C//DTD SVG 1.1//EN" "http://www.w3.org/Graphics/SVG/1.1/DTD/svg11.dtd">
<svg version="1.1" id="Layer_1" xmlns="http://www.w3.org/2000/svg" xmlns:xlink="http://www.w3.org/1999/xlink" x="0px" y="0px"
	 width="223.84px" height="223.891px" viewBox="254.507 63.499 223.84 223.891"
	 enable-background="new 254.507 63.499 223.84 223.891" xml:space="preserve">
<path d="M414.844,63.499c-0.644,0-1.171,4.123-1.171,9.199c0,5.085,0.527,9.205,1.171,9.205l32.112-0.003
	c-13.364,13.355-32.112,32.1-41.135,41.12c-16.52-13.571-37.041-20.952-58.697-20.952c-24.752,0-48.025,9.642-65.524,27.139
	c-36.125,36.128-36.125,94.912,0,131.043c17.499,17.505,40.772,27.142,65.524,27.142c24.749,0,48.019-9.639,65.518-27.142
	c33.933-33.93,35.987-87.848,6.181-124.209c9.022-9.025,27.77-27.779,41.135-41.147l0.006,32.172
	c0.249,0.62,4.267,1.111,9.181,1.111c4.926,0,8.935-0.491,9.193-1.111l0.009-63.56L414.844,63.499z M400.154,247.758
	c-14.161,14.167-32.999,21.97-53.029,21.97c-20.036,0-38.868-7.801-53.037-21.97c-29.241-29.241-29.241-76.819,0-106.066
	c14.167-14.164,33.002-21.967,53.037-21.967c20.03,0,38.865,7.801,53.029,21.967C429.397,170.939,429.397,218.524,400.154,247.758z"
	/>
</svg>
