<?xml version="1.0" encoding="utf-8"?>
<!-- Generator: Adobe Illustrator 17.0.0, SVG Export Plug-In . SVG Version: 6.00 Build 0)  -->
<!DOCTYPE svg PUBLIC "-//W3C//DTD SVG 1.1//EN" "http://www.w3.org/Graphics/SVG/1.1/DTD/svg11.dtd">
<svg version="1.1" id="Layer_1" xmlns="http://www.w3.org/2000/svg" xmlns:xlink="http://www.w3.org/1999/xlink" x="0px" y="0px"
	 width="268.304px" height="245.647px" viewBox="-82.741 -88.705 268.304 245.647"
	 enable-background="new -82.741 -88.705 268.304 245.647" xml:space="preserve">
<g>
	<path d="M184.732-15.789c0-0.923-0.302-1.819-0.832-2.568c-10.03-14.224-55.337-21.906-106.157-23.96v-41.932
		c0-2.461-1.551-4.456-4.012-4.456c-2.461,0-4.012,1.993-4.012,4.456v41.621c-5.349-0.169-12.234-0.254-18.001-0.254
		c-4.512,0-8.746,0.056-14.096,0.15v-41.517c0-2.461-1.549-4.456-4.012-4.456s-4.012,1.995-4.012,4.456v41.758
		C-23.897-40.643-76.645-32.188-82.051-16.022c-0.15,0.457-0.69,0.933-0.69,1.415v28.403c0,0.096,0.53,0.174,0.535,0.273
		c-0.008,0.152,0.187,0.313,0.187,0.471c0,24.388,87.576,30.826,133.822,30.826s133.76-6.438,133.76-30.826
		c0-0.16-0.46-0.318-0.471-0.473c0.005-0.096-0.361-0.174-0.361-0.273V-15.789z M51.268-33.969
		c67.071,0,117.415,9.888,125.439,19.772V2.327C152.635-12.087,88.295-16.284,50.996-16.284S-47.969-12.085-74.717,2.327v-16.048
		C-69.367-22.187-23.364-33.969,51.268-33.969z M51.924,36.454c-80.745,0-124.787-14.473-124.787-21.911
		c0-7.436,44.045-21.911,124.787-21.911S176.71,7.106,176.71,14.542S132.663,36.454,51.924,36.454z"/>
	<ellipse cx="122.86" cy="20.705" rx="6.312" ry="3.488"/>
	<ellipse cx="87.206" cy="20.705" rx="6.31" ry="3.488"/>
	<ellipse cx="51.552" cy="20.705" rx="6.31" ry="3.488"/>
	<ellipse cx="15.898" cy="20.705" rx="6.31" ry="3.488"/>
	<ellipse cx="-19.754" cy="20.705" rx="6.31" ry="3.488"/>
	<ellipse cx="87.206" cy="2.88" rx="6.31" ry="3.491"/>
	<ellipse cx="51.552" cy="2.88" rx="6.31" ry="3.491"/>
	<ellipse cx="15.898" cy="2.88" rx="6.31" ry="3.491"/>
	<path d="M11.271,61c-1.22,0.035-2.372,0.567-3.186,1.471C6.298,64.461-9.199,82.922-3.093,95.132
		c2.827,5.646,8.447,9.707,15.027,9.707c0.003,0,0,0,0.003,0c7.198,0,13.537-4.609,15.77-10.426
		c4.97-12.962-11.301-29.925-13.17-31.776C13.664,61.77,12.442,60.906,11.271,61z M19.386,90.526
		c-0.88,2.287-4.082,4.023-7.452,4.023c-1.867,0-5.275-0.532-7.051-4.092c-1.969-3.935,2.183-12.034,6.706-18.161
		C16.09,77.73,21.194,85.813,19.386,90.526z"/>
	<path d="M51.383,61c-1.217,0.035-2.372,0.567-3.186,1.471c-1.787,1.99-17.287,20.451-11.175,32.661
		c2.822,5.646,8.441,9.707,15.021,9.707c0.003,0,0,0,0.003,0c7.198,0,13.537-4.609,15.77-10.426
		c4.97-12.962-11.301-29.925-13.17-31.776C53.775,61.77,52.523,60.906,51.383,61z M59.496,90.526
		c-0.88,2.287-4.082,4.023-7.452,4.023c-1.867,0-5.275-0.532-7.051-4.092c-1.966-3.935,2.185-12.034,6.708-18.161
		C56.201,77.73,61.304,85.813,59.496,90.526z"/>
	<path d="M91.494,61c-1.22,0.035-2.372,0.567-3.186,1.471c-1.787,1.99-17.287,19.764-11.178,31.974
		c2.827,5.646,8.444,9.017,15.027,9.017c0.003,0,0,0,0.003,0c7.198,0,13.537-3.916,15.77-9.741
		c4.967-12.962-11.301-29.582-13.17-31.433C93.885,61.427,92.606,60.906,91.494,61z M99.606,90.526
		c-0.877,2.287-4.082,4.023-7.449,4.023c-1.87,0-5.277-0.532-7.053-4.092c-1.969-3.935,2.185-12.034,6.708-18.161
		C96.311,77.73,101.417,85.813,99.606,90.526z"/>
	<path d="M11.271,114.481c-1.22,0.035-2.372,0.564-3.186,1.471c-1.787,1.987-17.284,19.116-11.178,31.332
		c2.827,5.646,8.447,8.375,15.027,8.375c0.003,0,0,0,0.003,0c7.198,0,13.537-3.277,15.77-9.099
		c4.97-12.956-11.301-29.259-13.17-31.112C13.664,114.585,12.442,114.43,11.271,114.481z M19.386,144.01
		c-0.88,2.287-4.082,4.02-7.452,4.02c-1.867,0-5.275-0.532-7.051-4.09c-1.969-3.935,2.183-12.034,6.706-18.161
		C16.09,131.211,21.194,139.294,19.386,144.01z"/>
	<path d="M-28.84,114.481c-1.22,0.035-2.37,0.564-3.186,1.471c-1.787,1.987-17.281,19.764-11.175,31.971
		c2.825,5.646,8.441,9.019,15.027,9.019c0.003,0,0,0,0.003,0c7.198,0,13.534-3.918,15.768-9.744
		c4.972-12.962-11.301-29.582-13.173-31.431C-26.446,114.909-27.7,114.43-28.84,114.481z M-20.725,144.01
		c-0.88,2.287-4.079,4.02-7.449,4.02c-1.87,0-5.275-0.532-7.053-4.09c-1.969-3.935,2.183-12.034,6.706-18.161
		C-24.02,131.211-18.916,139.294-20.725,144.01z"/>
	<path d="M51.383,114.481c-1.217,0.035-2.372,0.564-3.186,1.471c-1.787,1.987-17.287,19.116-11.175,31.332
		c2.822,5.646,8.441,8.375,15.021,8.375c0.003,0,0,0,0.003,0c7.198,0,13.537-3.277,15.77-9.099
		c4.97-12.956-11.301-29.259-13.17-31.112C53.775,114.585,52.523,114.43,51.383,114.481z M59.496,144.01
		c-0.88,2.287-4.082,4.02-7.452,4.02c-1.867,0-5.275-0.532-7.051-4.09c-1.966-3.935,2.185-12.034,6.708-18.161
		C56.201,131.211,61.304,139.294,59.496,144.01z"/>
	<path d="M91.494,114.481c-1.22,0.035-2.372,0.564-3.186,1.471c-1.787,1.987-17.287,19.764-11.178,31.971
		c2.827,5.646,8.444,9.019,15.027,9.019c0.003,0,0,0,0.003,0c7.198,0,13.537-3.918,15.77-9.744
		c4.967-12.962-11.301-29.582-13.17-31.431C93.885,114.909,92.606,114.43,91.494,114.481z M99.606,144.01
		c-0.877,2.287-4.082,4.02-7.449,4.02c-1.87,0-5.277-0.532-7.053-4.09c-1.969-3.935,2.185-12.034,6.708-18.161
		C96.311,131.211,101.417,139.294,99.606,144.01z"/>
	<path d="M131.601,114.481c-1.217,0.035-2.37,0.564-3.183,1.471c-1.789,1.987-17.287,19.116-11.175,31.332
		c2.822,5.646,8.441,8.375,15.021,8.375c0.005,0,0,0,0.005,0c7.198,0,13.537-3.277,15.768-9.099
		c4.97-12.956-11.298-29.259-13.168-31.112C133.995,114.585,132.751,114.43,131.601,114.481z M139.714,144.01
		c-0.877,2.287-4.079,4.02-7.449,4.02c-1.864,0-5.277-0.532-7.051-4.09c-1.966-3.935,2.183-12.034,6.706-18.161
		C136.421,131.211,141.527,139.294,139.714,144.01z"/>
</g>
</svg>
