<?xml version="1.0" encoding="utf-8"?>
<!-- Generator: Adobe Illustrator 17.0.0, SVG Export Plug-In . SVG Version: 6.00 Build 0)  -->
<!DOCTYPE svg PUBLIC "-//W3C//DTD SVG 1.1//EN" "http://www.w3.org/Graphics/SVG/1.1/DTD/svg11.dtd">
<svg version="1.1" id="Layer_1" xmlns="http://www.w3.org/2000/svg" xmlns:xlink="http://www.w3.org/1999/xlink" x="0px" y="0px"
	 width="151.008px" height="132.663px" viewBox="-24.207 -31.887 151.008 132.663"
	 enable-background="new -24.207 -31.887 151.008 132.663" xml:space="preserve">
<g>
	<path d="M51.296,24.989c10.564,0,19.155-8.591,19.155-19.155S61.86-13.325,51.296-13.325c-10.561,0-19.155,8.594-19.155,19.158
		S40.735,24.989,51.296,24.989z M51.296-4.719c5.818,0,10.553,4.734,10.553,10.556s-4.732,10.553-10.553,10.553
		c-5.818,0-10.553-4.732-10.553-10.553S45.478-4.719,51.296-4.719z"/>
	<path d="M126.206,94.293l-32.364-55.02c-0.774-1.313-2.182-2.119-3.708-2.119h-9.523c5.557-10.934,8.411-21.447,8.411-31.317
		c0-20.801-16.922-37.723-37.723-37.723S13.573-14.965,13.573,5.833c0,9.824,2.873,20.337,8.479,31.317H12.46
		c-1.526,0-2.934,0.806-3.708,2.119l-32.366,55.023c-0.783,1.331-0.791,2.977-0.026,4.319c0.766,1.339,2.191,2.165,3.734,2.165
		h142.404c1.543,0,2.968-0.826,3.736-2.165C126.998,97.269,126.989,95.623,126.206,94.293z M51.296-23.287
		c16.058,0,29.12,13.065,29.12,29.12c0,10.24-3.622,21.478-10.759,33.407c-6.452,10.782-14.22,19.414-18.35,23.666
		c-4.109-4.258-11.832-12.887-18.295-23.669C25.821,27.243,22.176,16.005,22.176,5.833C22.176-10.222,35.238-23.287,51.296-23.287z
		 M-12.387,92.174l27.305-46.42h11.995c0.097,0.155,0.198,0.301,0.295,0.456c0.315,0.499,0.634,0.984,0.952,1.471
		c0.304,0.467,0.608,0.932,0.915,1.385c0.324,0.482,0.648,0.952,0.972,1.422c0.304,0.442,0.608,0.883,0.915,1.313
		c0.327,0.462,0.654,0.915,0.978,1.365c0.301,0.416,0.599,0.823,0.898,1.227c0.33,0.444,0.657,0.88,0.986,1.31
		c0.295,0.39,0.585,0.771,0.877,1.144c0.327,0.419,0.651,0.832,0.972,1.242c0.284,0.358,0.565,0.708,0.846,1.052
		c0.324,0.401,0.642,0.794,0.961,1.179c0.267,0.324,0.531,0.639,0.791,0.952c0.315,0.379,0.628,0.748,0.938,1.11
		c0.252,0.298,0.499,0.579,0.746,0.866c0.301,0.347,0.599,0.691,0.895,1.021c0.235,0.264,0.456,0.513,0.682,0.766
		c0.29,0.321,0.574,0.639,0.846,0.941c0.209,0.229,0.407,0.442,0.608,0.66c0.272,0.295,0.539,0.585,0.797,0.857
		c0.181,0.192,0.35,0.37,0.522,0.551c0.249,0.264,0.496,0.525,0.725,0.763c0.155,0.161,0.29,0.298,0.436,0.447
		c0.224,0.227,0.447,0.459,0.648,0.66c0.123,0.126,0.227,0.227,0.341,0.341c0.192,0.192,0.39,0.39,0.556,0.553
		c0.077,0.075,0.132,0.129,0.204,0.198c0.648,0.637,1.072,1.032,1.156,1.113c0.413,0.381,0.88,0.662,1.374,0.857
		c0.12,0.046,0.255,0.034,0.379,0.069c0.381,0.109,0.769,0.215,1.164,0.215c0,0,0,0,0.003,0c0.232,0,0.456-0.089,0.685-0.126
		c0.284-0.046,0.574-0.052,0.846-0.158c0.493-0.186,0.958-0.467,1.371-0.846c0.032-0.029,0.109-0.098,0.221-0.206
		c0.072-0.066,0.184-0.172,0.287-0.27c0.06-0.06,0.1-0.095,0.175-0.166c0.106-0.097,0.241-0.229,0.364-0.353
		c0.115-0.109,0.212-0.204,0.344-0.33c0.132-0.129,0.29-0.287,0.436-0.433c0.155-0.149,0.295-0.292,0.462-0.459
		c0.169-0.166,0.353-0.356,0.533-0.539c0.186-0.189,0.367-0.373,0.568-0.579c0.186-0.189,0.387-0.401,0.585-0.608
		c0.224-0.235,0.447-0.47,0.691-0.725c0.204-0.215,0.419-0.447,0.631-0.674c0.258-0.275,0.51-0.548,0.78-0.843
		c0.227-0.249,0.462-0.51,0.697-0.771c0.281-0.307,0.556-0.617,0.849-0.943c0.244-0.275,0.496-0.562,0.748-0.852
		c0.298-0.341,0.596-0.685,0.903-1.044c0.261-0.301,0.528-0.617,0.791-0.932c0.313-0.373,0.628-0.748,0.952-1.136
		c0.27-0.327,0.542-0.66,0.817-1.001c0.33-0.41,0.662-0.82,1.001-1.245c0.278-0.35,0.556-0.705,0.837-1.067
		c0.338-0.43,0.674-0.872,1.015-1.319c0.29-0.379,0.579-0.763,0.872-1.153c0.336-0.453,0.677-0.918,1.018-1.385
		c0.292-0.404,0.582-0.806,0.875-1.219c0.341-0.485,0.682-0.978,1.027-1.474c0.292-0.419,0.579-0.843,0.872-1.273
		c0.341-0.51,0.682-1.029,1.024-1.554c0.284-0.436,0.565-0.872,0.852-1.316c0.106-0.175,0.218-0.338,0.33-0.513H87.66l27.302,46.42
		H-12.387V92.174z"/>
</g>
</svg>
