<svg id="Layer_1" data-name="Layer 1" xmlns="http://www.w3.org/2000/svg" viewBox="0 0 218.79 194.22"><title>pt-body-building</title><path d="M109.4,0A31.69,31.69,0,0,0,79.25,22.28v0.09H79.16a10.42,10.42,0,0,0-.86,1.72L60.81,68.55,49,63.73a7.44,7.44,0,0,0-3.62-.51,7.37,7.37,0,0,0-5.94,4.64l-39,99.6A8,8,0,0,0,0,170a7.46,7.46,0,0,0,4.4,6.79l41.43,17a7.75,7.75,0,0,0,2.76.43,7.56,7.56,0,0,0,6.81-4.47l38.85-99.6a7.44,7.44,0,0,0-3.88-9.38l-16-6.62,9.47-24.08a31.45,31.45,0,0,0,51.17,0l9.47,24.08-16,6.62a7.44,7.44,0,0,0-3.88,9.38l38.85,99.6a7.56,7.56,0,0,0,6.81,4.47,7.69,7.69,0,0,0,2.76-.43l41.43-17a7.46,7.46,0,0,0,4.4-6.79,8,8,0,0,0-.43-2.5l-39-99.6a7.36,7.36,0,0,0-5.94-4.64,7.44,7.44,0,0,0-3.62.51L158,68.55,140.49,24.08a10.42,10.42,0,0,0-.86-1.72h-0.08V22.28A31.69,31.69,0,0,0,109.4,0h0Zm0,14.62A17,17,0,1,1,92.34,31.57,16.9,16.9,0,0,1,109.4,14.62h0ZM50.31,80L78.21,91.52l-33.59,86L16.54,166.09,50.31,80h0Zm118.18,0,33.76,86.1-28.08,11.44-33.59-86L168.49,80h0Z"/></svg>