<svg id="Layer_1" data-name="Layer 1" xmlns="http://www.w3.org/2000/svg" viewBox="0 0 183.45 191.17"><title>pt-difesa-personale</title><path d="M91.73,191.17a7.5,7.5,0,0,1-3.07-.66c-46.82-21-63.14-40.28-72.75-86.11C7.07,62.23.15,17,.09,16.5A7.5,7.5,0,0,1,6.52,7.94C9,7.62,66.87,0,91.73,0s82.75,7.62,85.21,7.94a7.5,7.5,0,0,1,6.43,8.56c-0.07.45-7,45.73-15.82,87.9-9.61,45.83-25.93,65.14-72.75,86.11A7.5,7.5,0,0,1,91.73,191.17ZM16.11,21.84c2.34,14.6,7.87,47.94,14.48,79.49,8.38,40,21.15,55.73,61.13,74.11,40-18.37,52.75-34.12,61.13-74.11,6.62-31.56,12.15-64.89,14.48-79.49C150.56,19.75,110.43,15,91.73,15S32.89,19.75,16.11,21.84Z"/><path d="M105.06,148.82a7,7,0,0,1-3.77-12.9c12.93-8.24,18.38-17.1,22.44-36.46,0.85-4,1.72-8.39,2.59-12.92a7,7,0,0,1,13.75,2.65c-0.89,4.6-1.77,9-2.64,13.15-4.16,19.85-10.18,33.65-28.62,45.4A7,7,0,0,1,105.06,148.82Z"/></svg>