<?xml version="1.0" encoding="utf-8"?>
<!-- Generator: Adobe Illustrator 17.0.0, SVG Export Plug-In . SVG Version: 6.00 Build 0)  -->
<!DOCTYPE svg PUBLIC "-//W3C//DTD SVG 1.1//EN" "http://www.w3.org/Graphics/SVG/1.1/DTD/svg11.dtd">
<svg version="1.1" id="Layer_1" xmlns="http://www.w3.org/2000/svg" xmlns:xlink="http://www.w3.org/1999/xlink" x="0px" y="0px"
	 width="131.636px" height="132.184px" viewBox="-22.086 -28.659 131.636 132.184"
	 enable-background="new -22.086 -28.659 131.636 132.184" xml:space="preserve">
<g>
	<path d="M55.235,102.92c-0.004-0.006-0.008-0.012-0.012-0.018L-6.983,8.775c-0.418-0.633-0.251-1.485,0.376-1.913l3.085-2.108
		c0.626-0.428,1.481-0.274,1.919,0.345L63.48,97.26c0.187,0.332,0.297,0.683,0.233,1.048c-0.066,0.367-0.277,0.692-0.584,0.902
		l-5.962,4.074c-0.307,0.21-0.686,0.288-1.052,0.216C55.758,103.429,55.441,103.221,55.235,102.92z M-3.91,8.384l60.674,91.808
		l3.631-2.481L-3.084,7.82L-3.91,8.384z"/>
</g>
<g>
	<path d="M-21.843,24.987c-0.107-0.157-0.182-0.336-0.218-0.526c-0.069-0.365,0.011-0.741,0.222-1.046l1.97-2.854
		c0.423-0.613,1.253-0.784,1.883-0.388l37.5,23.54c0.169,0.106,0.313,0.246,0.424,0.416l6.96,10.626
		c0.362,0.554,0.284,1.286-0.186,1.751c-0.471,0.465-1.206,0.533-1.754,0.163l-46.43-31.312
		C-21.62,25.256-21.745,25.13-21.843,24.987z M-18.338,23.233l-0.416,0.603l39.546,26.67l-3.015-4.602L-18.338,23.233z"/>
</g>
<g>
	<path d="M28.342,52.527c-0.369-0.54-0.312-1.265,0.139-1.74c0.457-0.481,1.19-0.573,1.751-0.218l47.243,29.853
		c0.313,0.197,0.534,0.513,0.614,0.874c0.08,0.361,0.013,0.741-0.188,1.052L74.1,88.261c-0.202,0.315-0.523,0.535-0.89,0.61
		c-0.366,0.076-0.748,0-1.058-0.21L37.346,65.09c-0.139-0.093-0.259-0.211-0.356-0.347l-8.636-12.197
		C28.35,52.54,28.346,52.533,28.342,52.527z M74.805,82.023L34.677,56.666l4.437,6.265l33.417,22.63L74.805,82.023z"/>
</g>
<g>
	<path d="M33.202,30.506l-9.975-14.599c-2.059-3.014-1.283-7.14,1.731-9.199l14.599-9.975c3.014-2.059,7.141-1.283,9.2,1.73
		l9.975,14.599c2.059,3.014,1.283,7.141-1.731,9.2l-14.599,9.975C39.388,34.296,35.261,33.519,33.202,30.506z M46.461,0.031
		c-1.046-1.531-3.44-2.3-5.337-1.004L26.525,9.002c-1.531,1.046-2.3,3.44-1.004,5.337l9.975,14.599
		c1.046,1.531,3.441,2.3,5.337,1.005l14.599-9.975c1.531-1.046,2.3-3.441,1.004-5.338L46.461,0.031z"/>
</g>
<g>
	<path d="M38.637,22.569l-6.042-8.842c-0.433-0.634-0.27-1.498,0.363-1.931l2.878-1.967c0.634-0.433,1.498-0.27,1.931,0.363
		l6.042,8.842c0.433,0.634,0.27,1.498-0.363,1.931l-2.878,1.967C39.935,23.365,39.07,23.203,38.637,22.569z M35.675,13.307
		l4.474,6.547l0.584-0.399l-4.474-6.547L35.675,13.307z"/>
</g>
<g>
	<path d="M41.516,20.602l-6.042-8.842c-0.433-0.634-0.27-1.498,0.363-1.931l2.878-1.967c0.634-0.433,1.498-0.27,1.931,0.363
		l6.042,8.842c0.433,0.634,0.27,1.498-0.363,1.931l-2.878,1.967C42.814,21.399,41.949,21.236,41.516,20.602z M38.553,11.34
		l4.474,6.547l0.584-0.399l-4.474-6.547L38.553,11.34z"/>
</g>
<g>
	<path d="M44.394,18.635l-6.042-8.842c-0.433-0.634-0.27-1.498,0.363-1.931l2.878-1.967c0.634-0.433,1.498-0.27,1.931,0.363
		l6.042,8.842c0.433,0.634,0.27,1.498-0.363,1.931l-2.878,1.967C45.692,19.432,44.827,19.269,44.394,18.635z M41.432,9.373
		l4.474,6.547l0.584-0.399l-4.474-6.547L41.432,9.373z"/>
</g>
<g>
	<path d="M26.366,12.556c-0.201-0.294-0.289-0.664-0.218-1.041c0.142-0.754,0.868-1.251,1.622-1.109l3.461,0.651
		c0.754,0.142,1.251,0.868,1.109,1.622c-0.142,0.754-0.868,1.251-1.622,1.109l-3.461-0.651
		C26.879,13.066,26.566,12.849,26.366,12.556z"/>
</g>
<g>
	<path d="M35.919,26.538c-0.201-0.294-0.289-0.664-0.218-1.041c0.142-0.754,0.868-1.251,1.622-1.109l3.461,0.651
		c0.754,0.142,1.251,0.868,1.109,1.622s-0.868,1.251-1.622,1.109l-3.461-0.651C36.433,27.048,36.12,26.831,35.919,26.538z"/>
</g>
<g>
	<path d="M49.901,16.984c-0.201-0.294-0.289-0.664-0.218-1.041c0.141-0.754,0.868-1.251,1.622-1.109l3.462,0.651
		c0.754,0.142,1.251,0.868,1.109,1.622c-0.141,0.754-0.868,1.251-1.622,1.109l-3.462-0.651
		C50.414,17.494,50.102,17.277,49.901,16.984z"/>
</g>
<g>
	<path d="M40.347,3.002c-0.201-0.294-0.289-0.664-0.218-1.041c0.141-0.754,0.868-1.251,1.622-1.109l3.462,0.651
		c0.754,0.142,1.251,0.868,1.109,1.622c-0.141,0.754-0.868,1.251-1.622,1.109l-3.462-0.651C40.861,3.513,40.548,3.296,40.347,3.002z
		"/>
</g>
<g>
	<path d="M31.725,22.165c-0.201-0.294-0.289-0.664-0.218-1.041l0.651-3.461c0.142-0.754,0.868-1.251,1.622-1.109
		c0.754,0.142,1.251,0.868,1.109,1.622l-0.651,3.461c-0.142,0.754-0.868,1.251-1.622,1.109
		C32.238,22.676,31.926,22.459,31.725,22.165z"/>
</g>
<g>
	<path d="M43.904,24.098c-0.433-0.634-0.27-1.498,0.363-1.931l2.878-1.967c0.634-0.433,1.498-0.27,1.931,0.363
		s0.27,1.498-0.363,1.931l-2.878,1.967C45.202,24.894,44.337,24.731,43.904,24.098z"/>
</g>
<g>
	<path d="M47.352,11.487c-0.201-0.294-0.289-0.664-0.218-1.041l0.652-3.461c0.142-0.754,0.869-1.251,1.622-1.109
		c0.754,0.142,1.251,0.868,1.109,1.622l-0.652,3.461c-0.142,0.754-0.869,1.251-1.622,1.109
		C47.865,11.998,47.552,11.781,47.352,11.487z"/>
</g>
<g>
	<path d="M33.086,8.265c-0.433-0.634-0.27-1.498,0.363-1.931l2.878-1.967c0.634-0.433,1.498-0.27,1.931,0.363
		c0.433,0.634,0.27,1.498-0.363,1.931l-2.878,1.967C34.384,9.062,33.519,8.899,33.086,8.265z"/>
</g>
<g>
	<path d="M64.651,26.209L54.675,11.61c-2.059-3.014-1.283-7.14,1.731-9.199l14.599-9.975c3.014-2.059,7.141-1.283,9.2,1.73
		L90.18,8.765c2.059,3.014,1.282,7.141-1.731,9.2L73.85,27.94C70.836,29.999,66.71,29.223,64.651,26.209z M77.91-4.266
		c-1.046-1.531-3.44-2.3-5.337-1.004L57.974,4.706c-1.531,1.046-2.3,3.44-1.004,5.337l9.975,14.599
		c1.046,1.531,3.44,2.3,5.337,1.004l14.599-9.975c1.531-1.046,2.3-3.441,1.005-5.337L77.91-4.266z"/>
</g>
<g>
	<path d="M72.995,0.902c-0.201-0.294-0.289-0.664-0.218-1.041L73.428-3.6c0.142-0.754,0.868-1.251,1.622-1.109
		c0.754,0.142,1.251,0.868,1.109,1.622l-0.651,3.461c-0.142,0.754-0.868,1.251-1.622,1.109C73.509,1.413,73.196,1.196,72.995,0.902z
		"/>
</g>
<g>
	<path d="M59.014,10.456c-0.201-0.294-0.289-0.664-0.218-1.041l0.651-3.461c0.142-0.754,0.868-1.251,1.622-1.109
		c0.754,0.142,1.251,0.868,1.109,1.622l-0.651,3.461c-0.142,0.754-0.868,1.251-1.622,1.109
		C59.527,10.966,59.214,10.749,59.014,10.456z"/>
</g>
<g>
	<path d="M68.567,24.438c-0.201-0.294-0.289-0.664-0.218-1.041L69,19.936c0.142-0.754,0.868-1.251,1.622-1.109
		c0.754,0.142,1.251,0.868,1.109,1.622L71.08,23.91c-0.142,0.754-0.868,1.251-1.622,1.109
		C69.081,24.948,68.768,24.731,68.567,24.438z"/>
</g>
<g>
	<path d="M82.549,14.884c-0.201-0.294-0.289-0.664-0.218-1.041l0.651-3.461c0.142-0.754,0.868-1.251,1.622-1.109
		c0.754,0.142,1.251,0.868,1.109,1.622l-0.651,3.461c-0.142,0.754-0.868,1.251-1.622,1.109
		C83.062,15.394,82.75,15.177,82.549,14.884z"/>
</g>
<g>
	<path d="M64.038,2.8c-0.201-0.294-0.289-0.664-0.218-1.041c0.142-0.754,0.868-1.251,1.622-1.109l3.461,0.651
		c0.754,0.142,1.251,0.868,1.109,1.622c-0.142,0.754-0.868,1.251-1.622,1.109l-3.461-0.651C64.551,3.311,64.238,3.094,64.038,2.8z"
		/>
</g>
<g>
	<path d="M64.277,17.718l-1.967-2.878c-0.433-0.634-0.27-1.498,0.363-1.931c0.634-0.433,1.498-0.27,1.931,0.363l1.967,2.878
		c0.433,0.634,0.27,1.498-0.363,1.931C65.575,18.514,64.71,18.351,64.277,17.718z"/>
</g>
<g>
	<path d="M74.716,18.427c-0.201-0.294-0.289-0.664-0.218-1.041c0.142-0.754,0.868-1.251,1.622-1.109l3.461,0.651
		c0.754,0.142,1.251,0.868,1.109,1.622c-0.142,0.754-0.868,1.251-1.622,1.109l-3.461-0.651
		C75.229,18.937,74.916,18.72,74.716,18.427z"/>
</g>
<g>
	<path d="M79.904,7.04l-1.967-2.878c-0.433-0.634-0.27-1.498,0.363-1.931s1.498-0.27,1.931,0.363l1.967,2.878
		c0.433,0.634,0.27,1.498-0.363,1.931C81.202,7.836,80.337,7.674,79.904,7.04z"/>
</g>
<g>
	<path d="M44.161,46.544c-4.848-7.095-3.02-16.811,4.076-21.659s16.812-3.02,21.659,4.075s3.02,16.812-4.075,21.66
		S49.008,53.638,44.161,46.544z M67.601,30.527c-3.984-5.83-11.967-7.331-17.797-3.348s-7.332,11.967-3.349,17.797
		s11.967,7.332,17.797,3.348C70.082,44.34,71.584,36.357,67.601,30.527z"/>
</g>
<g>
	<path d="M50.072,42.504c-1.274-1.864-1.747-4.106-1.332-6.312c0.415-2.206,1.67-4.123,3.535-5.397
		c1.864-1.274,4.106-1.747,6.312-1.332c2.206,0.415,4.123,1.67,5.397,3.535c1.274,1.864,1.747,4.107,1.332,6.312
		c-0.415,2.206-1.67,4.123-3.535,5.397c-1.864,1.274-4.106,1.747-6.312,1.332C53.263,45.625,51.346,44.369,50.072,42.504z
		 M61.689,34.566c-0.855-1.252-2.139-2.094-3.616-2.371c-1.477-0.278-2.979,0.04-4.23,0.895c-1.252,0.855-2.094,2.139-2.371,3.616
		c-0.278,1.477,0.04,2.979,0.895,4.23c0.855,1.252,2.139,2.094,3.616,2.371c1.477,0.278,2.979-0.04,4.23-0.895
		s2.094-2.139,2.371-3.616C62.862,37.32,62.544,35.818,61.689,34.566z"/>
</g>
<g>
	<path d="M48.958,37.233c-0.106-0.156-0.182-0.336-0.218-0.534c-0.138-0.754,0.361-1.479,1.117-1.617
		c2.732-0.501,5.539,0.027,7.902,1.487c1.803,1.114,3.857,1.5,5.942,1.117c0.755-0.136,1.48,0.362,1.617,1.117
		c0.139,0.755-0.362,1.478-1.116,1.617c-2.733,0.5-5.539-0.028-7.903-1.487c-1.803-1.114-3.857-1.5-5.942-1.118
		C49.799,37.918,49.258,37.672,48.958,37.233z"/>
</g>
<g>
	<path d="M49.064,40.477c-0.132-0.193-0.217-0.422-0.237-0.671c-0.062-0.765,0.509-1.435,1.274-1.496
		c1.93-0.155,4.7-0.011,6.935,1.56c1.337,0.85,3.285,1.337,4.908,1.206c0.765-0.063,1.435,0.505,1.496,1.274
		c0.062,0.765-0.508,1.435-1.274,1.496c-2.22,0.179-4.779-0.459-6.675-1.665c-1.611-1.131-3.695-1.219-5.168-1.1
		C49.807,41.12,49.336,40.876,49.064,40.477z"/>
</g>
<g>
	<path d="M50.713,33.62c-0.132-0.193-0.217-0.422-0.237-0.671c-0.062-0.765,0.509-1.435,1.274-1.496
		c2.168-0.175,4.328,0.357,6.606,1.624c0.042,0.024,0.083,0.05,0.124,0.077c1.391,0.978,3.086,1.339,5.037,1.073
		c0.761-0.104,1.462,0.427,1.565,1.189c0.104,0.761-0.428,1.461-1.189,1.565c-2.603,0.355-5.003-0.166-6.948-1.508
		c-1.783-0.982-3.365-1.379-4.972-1.249C51.457,34.264,50.985,34.018,50.713,33.62z"/>
</g>
<g>
	<path d="M43.511-4.287c-4.848-7.095-3.02-16.812,4.075-21.66s16.812-3.02,21.66,4.075c4.848,7.095,3.02,16.812-4.075,21.66
		S48.359,2.808,43.511-4.287z M66.951-20.304c-3.984-5.83-11.967-7.332-17.797-3.348s-7.332,11.967-3.348,17.797
		s11.967,7.332,17.797,3.348S70.935-14.474,66.951-20.304z"/>
</g>
<g>
	<path d="M49.474-8.361c-2.602-3.807-1.621-9.021,2.187-11.623c3.807-2.601,9.021-1.62,11.622,2.187
		c2.601,3.807,1.62,9.021-2.187,11.622C57.289-3.573,52.075-4.554,49.474-8.361z M60.988-16.229c-1.737-2.542-5.218-3.197-7.76-1.46
		c-2.542,1.737-3.197,5.219-1.46,7.76c1.737,2.542,5.218,3.196,7.76,1.459C62.07-10.207,62.725-13.687,60.988-16.229z"/>
</g>
<g>
	<path d="M49.473-8.36c-0.301-0.44-0.333-1.033-0.035-1.515c1.502-2.433,3.878-4.056,6.69-4.571
		c2.028-0.372,3.741-1.542,4.825-3.297c0.403-0.654,1.259-0.856,1.912-0.453c0.657,0.401,0.856,1.258,0.453,1.912
		c-1.502,2.432-3.877,4.055-6.689,4.571c-2.028,0.372-3.742,1.543-4.825,3.297C51.4-7.762,50.544-7.56,49.891-7.963
		C49.72-8.068,49.58-8.205,49.473-8.36z"/>
</g>
<g>
	<path d="M51.916-6.111c-0.351-0.514-0.323-1.219,0.109-1.706c1.659-1.867,3.785-3.193,5.989-3.734
		c1.791-0.354,3.364-1.327,4.269-2.616c0.441-0.628,1.308-0.779,1.936-0.338c0.625,0.443,0.778,1.308,0.338,1.936
		c-1.327,1.888-3.493,3.247-5.944,3.73c-1.599,0.394-3.223,1.417-4.51,2.867c-0.51,0.574-1.389,0.626-1.962,0.116
		C52.054-5.932,51.979-6.018,51.916-6.111z"/>
</g>
<g>
	<path d="M48.253-12.354c-0.351-0.514-0.323-1.219,0.109-1.706c1.639-1.845,3.585-3.054,5.783-3.593
		c1.978-0.485,3.567-1.464,4.475-2.756c0.441-0.628,1.308-0.779,1.936-0.338c0.626,0.445,0.778,1.307,0.338,1.936
		c-1.659,2.36-4.226,3.4-6.086,3.857c-1.664,0.408-3.093,1.305-4.368,2.74c-0.51,0.574-1.389,0.626-1.962,0.116
		C48.391-12.176,48.316-12.262,48.253-12.354z"/>
</g>
<g>
	<g>
		<path d="M69.739,18.208l-1.967-2.878c-0.433-0.634-0.27-1.498,0.363-1.931l8.842-6.042c0.634-0.433,1.498-0.27,1.931,0.363
			l1.967,2.878c0.433,0.634,0.27,1.498-0.363,1.931l-8.842,6.042C71.037,19.004,70.172,18.841,69.739,18.208z M70.851,14.909
			l0.399,0.584l6.547-4.474l-0.399-0.584L70.851,14.909z"/>
	</g>
	<g>
		<path d="M67.773,15.329l-1.967-2.878c-0.433-0.634-0.27-1.498,0.363-1.931l8.842-6.042c0.634-0.433,1.498-0.27,1.931,0.363
			l1.967,2.878c0.433,0.634,0.27,1.498-0.363,1.931l-8.842,6.042C69.07,16.126,68.205,15.963,67.773,15.329z M68.884,12.03
			l0.399,0.584L75.83,8.14l-0.399-0.584L68.884,12.03z"/>
	</g>
	<g>
		<path d="M65.806,12.451l-1.967-2.879c-0.433-0.634-0.27-1.498,0.363-1.931l8.842-6.042c0.634-0.433,1.498-0.27,1.931,0.363
			l1.967,2.879c0.433,0.634,0.27,1.498-0.363,1.931l-8.842,6.042C67.103,13.247,66.239,13.084,65.806,12.451z M66.917,9.151
			l0.399,0.584l6.547-4.474l-0.399-0.584L66.917,9.151z"/>
	</g>
</g>
<g>
	<path d="M76.177,49.7c-0.106-0.156-0.182-0.336-0.218-0.533c-0.139-0.755,0.362-1.478,1.116-1.617
		c2.733-0.5,5.539,0.028,7.903,1.487c1.803,1.114,3.857,1.5,5.941,1.118c0.754-0.136,1.479,0.362,1.617,1.117
		c0.139,0.755-0.362,1.478-1.116,1.617c-2.732,0.501-5.538-0.027-7.902-1.487c-1.803-1.114-3.857-1.5-5.942-1.117
		C77.019,50.386,76.478,50.141,76.177,49.7z"/>
</g>
<g>
	<path d="M75.405,54.751c-0.106-0.156-0.182-0.336-0.218-0.533c-0.139-0.755,0.362-1.478,1.116-1.617
		c2.892-0.53,5.665,0.076,7.808,1.703c1.635,1.002,3.694,1.445,5.688,1.173c0.761-0.102,1.461,0.427,1.565,1.189
		c0.104,0.761-0.428,1.461-1.189,1.565c-2.631,0.36-5.343-0.222-7.635-1.637c-1.624-1.226-3.622-1.646-5.736-1.258
		C76.247,55.437,75.706,55.192,75.405,54.751z"/>
</g>
<g>
	<path d="M75.327,59.933c-0.118-0.173-0.199-0.374-0.229-0.595c-0.104-0.761,0.428-1.461,1.189-1.565
		c2.393-0.327,4.929,0.226,6.959,1.517c1.741,1.222,3.653,1.345,4.961,1.24c0.765-0.063,1.437,0.508,1.496,1.274
		c0.062,0.765-0.508,1.435-1.274,1.496c-2.53,0.203-4.857-0.385-6.729-1.7c-1.409-0.895-3.311-1.309-5.037-1.073
		C76.123,60.6,75.615,60.354,75.327,59.933z"/>
</g>
<g>
	<path d="M75.454,64.973c-0.172-0.251-0.262-0.56-0.238-0.888c0.058-0.765,0.725-1.339,1.491-1.28
		c0.607,0.046,1.081,0.073,1.46,0.095c1.757,0.103,2.051,0.172,3.253,1.118l0.597,0.463c0.969,0.736,2.174,1.12,3.306,1.053
		c0.765-0.045,1.424,0.541,1.469,1.304c0.046,0.767-0.539,1.425-1.305,1.47c-1.81,0.108-3.64-0.465-5.151-1.613
		c-0.254-0.193-0.461-0.356-0.635-0.493c-0.588-0.463-0.588-0.463-1.696-0.528c-0.392-0.023-0.882-0.052-1.509-0.1
		C76.059,65.542,75.684,65.31,75.454,64.973z"/>
</g>
<g>
	<path d="M77.359,44.368c-0.106-0.156-0.182-0.336-0.218-0.533c-0.139-0.755,0.362-1.478,1.116-1.617
		c2.892-0.53,5.665,0.076,7.807,1.703c1.635,1.002,3.694,1.445,5.688,1.173c0.762-0.103,1.462,0.428,1.565,1.189
		c0.104,0.761-0.428,1.461-1.189,1.565c-2.631,0.36-5.343-0.222-7.635-1.637c-1.624-1.226-3.621-1.646-5.736-1.258
		C78.201,45.054,77.66,44.808,77.359,44.368z"/>
</g>
<g>
	<path d="M79.234,39.165c-0.132-0.193-0.217-0.422-0.237-0.671c-0.062-0.765,0.508-1.435,1.274-1.496
		c2.22-0.179,4.779,0.459,6.675,1.665c1.446,1.015,3.142,1.376,5.092,1.109c0.761-0.103,1.461,0.43,1.565,1.189
		c0.104,0.761-0.428,1.461-1.189,1.565c-2.631,0.359-5.056-0.178-7.013-1.553c-1.337-0.85-3.285-1.337-4.908-1.206
		C79.978,39.809,79.507,39.564,79.234,39.165z"/>
</g>
<g>
	<path d="M81.866,33.748c-0.171-0.251-0.262-0.56-0.237-0.886c0.058-0.766,0.725-1.34,1.49-1.283
		c1.863,0.14,3.604,0.697,4.899,1.565c1.444,0.797,2.764,1.221,3.719,1.165c0.765-0.046,1.424,0.538,1.469,1.306
		c0.045,0.767-0.54,1.424-1.306,1.469c-1.505,0.088-3.299-0.441-5.332-1.572c-0.988-0.656-2.285-1.058-3.657-1.161
		C82.472,34.318,82.096,34.085,81.866,33.748z"/>
</g>
<g>
	<path d="M77.415,70.246c-2.519-3.686-2.992-12.199-1.206-21.688c2.072-11.016,6.993-21.637,12.389-20.623
		c1.109,0.209,2.065,0.89,2.84,2.025c2.519,3.686,2.993,12.2,1.207,21.689c-1.072,5.698-2.821,10.934-4.924,14.746
		c-3.008,5.451-5.719,6.204-7.465,5.875C79.147,72.063,78.191,71.381,77.415,70.246z M89.143,31.528
		c-0.345-0.504-0.701-0.795-1.059-0.862c-2.237-0.42-6.912,6.541-9.144,18.406c-1.873,9.955-0.914,17.141,0.77,19.607
		c0.345,0.504,0.701,0.794,1.06,0.862c0.854,0.161,2.549-0.918,4.518-4.487c1.964-3.56,3.607-8.502,4.626-13.917
		C91.787,41.181,90.827,33.993,89.143,31.528z"/>
</g>
<g>
	<g>
		<path d="M92.028,46.411c-0.433-0.634-0.27-1.498,0.363-1.931c2.329-1.591,5.072-2.147,7.932-1.609
			c1.999,0.376,4.241-0.074,5.85-1.173c0.634-0.433,1.498-0.271,1.931,0.363c0.433,0.634,0.27,1.498-0.363,1.931
			c-2.195,1.5-5.234,2.117-7.932,1.61c-2.121-0.4-4.144,0.006-5.851,1.172C93.325,47.207,92.461,47.045,92.028,46.411z"/>
	</g>
	<g>
		<path d="M93.398,51.507c-0.433-0.634-0.27-1.498,0.363-1.931c2.37-1.62,5.225-2.147,7.832-1.445
			c1.955,0.363,4.013-0.012,5.541-1.056c0.634-0.433,1.498-0.271,1.931,0.363c0.433,0.634,0.27,1.498-0.363,1.931
			c-2.132,1.457-4.948,1.992-7.727,1.468c-1.926-0.514-3.946-0.129-5.646,1.032C94.695,52.303,93.831,52.141,93.398,51.507z"/>
	</g>
	<g>
		<path d="M94.975,56.464c-0.028-0.041-0.055-0.086-0.081-0.132c-0.36-0.678-0.103-1.519,0.574-1.88
			c2.172-1.155,4.664-1.583,6.839-1.174c1.839,0.346,3.621,0.049,4.887-0.816c0.634-0.433,1.498-0.271,1.931,0.363
			s0.27,1.498-0.363,1.931c-1.87,1.278-4.41,1.735-6.969,1.253c-1.542-0.291-3.419,0.045-5.019,0.897
			C96.144,57.242,95.37,57.041,94.975,56.464z"/>
	</g>
	<g>
		<path d="M97.373,60.858c-0.072-0.105-0.129-0.221-0.171-0.347c-0.242-0.729,0.151-1.515,0.88-1.758
			c2.177-0.723,4.03-0.844,5.663-0.367c0.942,0.162,2.227,0.072,3.723-0.261c0.75-0.167,1.492,0.31,1.658,1.055
			c0.166,0.749-0.305,1.492-1.055,1.659c-1.923,0.428-3.573,0.517-4.907,0.266c-0.051-0.01-0.1-0.022-0.15-0.037
			c-1.082-0.331-2.408-0.225-4.055,0.323C98.357,61.591,97.714,61.356,97.373,60.858z"/>
	</g>
	<g>
		<path d="M91.068,41.034c-0.433-0.634-0.27-1.498,0.363-1.931c2.37-1.62,5.224-2.147,7.831-1.444
			c1.956,0.363,4.013-0.013,5.54-1.057c0.634-0.433,1.498-0.271,1.931,0.363c0.433,0.634,0.27,1.498-0.363,1.931
			c-2.132,1.457-4.948,1.992-7.727,1.47c-1.926-0.514-3.946-0.129-5.645,1.032C92.366,41.831,91.501,41.669,91.068,41.034z"/>
	</g>
	<g>
		<path d="M90.661,35.583c-0.029-0.043-0.056-0.087-0.08-0.133c-0.36-0.678-0.103-1.519,0.574-1.88
			c1.992-1.059,4.126-1.437,6.712-1.191c1.965,0.365,3.747,0.068,5.014-0.798c0.634-0.433,1.498-0.271,1.931,0.363
			c0.433,0.634,0.27,1.498-0.363,1.931c-1.871,1.279-4.412,1.734-6.971,1.253c-1.894-0.175-3.529,0.104-5.019,0.896
			C91.828,36.36,91.055,36.16,90.661,35.583z"/>
	</g>
	<g>
		<path d="M91.215,29.774c-0.082-0.12-0.146-0.255-0.189-0.404c-0.21-0.738,0.218-1.507,0.956-1.717
			c1.716-0.49,3.393-0.586,4.986-0.286c1.297,0.243,2.692,0.145,4.263-0.303c0.738-0.21,1.505,0.211,1.717,0.955
			c0.21,0.738-0.218,1.507-0.956,1.717c-1.995,0.569-3.807,0.688-5.538,0.362c-1.165-0.22-2.413-0.143-3.712,0.227
			C92.153,30.494,91.543,30.255,91.215,29.774z"/>
	</g>
	<g>
		<path d="M98.079,61.998c-2.569-3.759-4.827-9.657-6.195-16.181c-1.19-5.674-1.579-11.183-1.095-15.509
			c0.693-6.187,2.91-7.92,4.649-8.285c1.502-0.315,3.87,0.155,6.62,4.18c2.569,3.76,4.828,9.658,6.195,16.182
			c1.19,5.674,1.578,11.182,1.094,15.508c-0.693,6.187-2.91,7.92-4.649,8.285C103.197,66.492,100.829,66.023,98.079,61.998z
			 M99.763,27.771c-1.681-2.461-3.042-3.177-3.755-3.027c-0.85,0.178-2.003,1.824-2.457,5.875c-0.453,4.04-0.079,9.235,1.052,14.629
			c1.296,6.18,3.399,11.714,5.769,15.183c1.681,2.461,3.042,3.177,3.755,3.027c0.85-0.178,2.003-1.824,2.457-5.874
			c0.453-4.04,0.078-9.236-1.052-14.629C104.237,36.775,102.135,31.241,99.763,27.771z"/>
	</g>
</g>
</svg>
