<?xml version="1.0" encoding="utf-8"?>
<!-- Generator: Adobe Illustrator 17.0.0, SVG Export Plug-In . SVG Version: 6.00 Build 0)  -->
<!DOCTYPE svg PUBLIC "-//W3C//DTD SVG 1.1//EN" "http://www.w3.org/Graphics/SVG/1.1/DTD/svg11.dtd">
<svg version="1.1" id="Layer_1" xmlns="http://www.w3.org/2000/svg" xmlns:xlink="http://www.w3.org/1999/xlink" x="0px" y="0px"
	 width="448.361px" height="444.968px" viewBox="29.461 26.738 448.361 444.968"
	 enable-background="new 29.461 26.738 448.361 444.968" xml:space="preserve">
<g id="XMLID_13_">
	<g>
		<g id="XMLID_10_">
			<g>
				<path d="M418.954,469.443L313.637,364.126c-28.865,18.887-63.363,29.962-100.588,29.962
					c-101.503,0-183.589-82.269-183.589-183.772c0-101.31,82.077-183.579,183.589-183.579c101.329,0,183.569,82.269,183.569,183.579
					c0,35.433-9.978,68.448-27.237,96.417L475.45,412.783c5.615,5.461,0.905,19.079-10.363,30.319l-15.795,15.834
					C438.024,470.175,424.405,474.884,418.954,469.443z M335.616,210.317c0-67.736-54.849-122.576-122.576-122.576
					c-67.736,0-122.749,54.84-122.749,122.576s55.013,122.749,122.749,122.749C280.766,333.066,335.616,278.063,335.616,210.317z"/>
			</g>
		</g>
	</g>
</g>
</svg>
