<?xml version="1.0" encoding="utf-8"?>
<!-- Generator: Adobe Illustrator 16.0.0, SVG Export Plug-In . SVG Version: 6.00 Build 0)  -->
<!DOCTYPE svg PUBLIC "-//W3C//DTD SVG 1.1//EN" "http://www.w3.org/Graphics/SVG/1.1/DTD/svg11.dtd">
<svg version="1.1" id="Layer_1" xmlns="http://www.w3.org/2000/svg" xmlns:xlink="http://www.w3.org/1999/xlink" x="0px" y="0px"
	 width="767.474px" height="772.1px" viewBox="0 0 767.474 772.1" enable-background="new 0 0 767.474 772.1" xml:space="preserve">
<path d="M767.474,277.482c0-17.538-7.655-33.214-19.625-44.233c11.97-11.029,19.625-26.71,19.625-44.238
	c0-33.265-27.057-60.317-60.321-60.317V64.342C707.153,28.873,678.285,0,642.801,0h-0.022H449.805c0,0,0,0-0.021,0
	c-35.485,0-64.352,28.873-64.352,64.342v64.337h-16.073c-34.558,0-68.363,33.255-77.778,64.342h-2.646
	c-73.432,0-109.405,70.241-110.301,72.125L33.856,506.425L0,622.896l30.955,8.855L62.53,521.185l144.238-240.497
	c0.285-0.54,28.806-55.486,82.166-55.486H545.06c-9.222,57.685-68.566,64.347-95.276,64.347H337.183
	c-8.876,0-16.083,7.187-16.083,16.083c0,8.875,7.206,16.083,16.083,16.083h47.434c-8.205,98.92-91.194,176.933-192.202,176.933
	c-8.886,0-16.083,7.207-16.083,16.082c0,8.896,7.197,16.084,16.083,16.084c81.963,0,153.624-44.158,193.017-109.792v93.708
	c0,35.485,28.888,64.354,64.352,64.354c0.021,0,0.021,0,0.021,0h20.155c-40.534,76.424-120.826,128.684-213.202,128.684h-45.796
	L200.233,772.1h32.614l5.365-32.165h18.556c110.605,0,205.72-66.164,248.716-160.851h137.295c0,0,0.022,0,0.041,0
	c35.465,0,64.333-28.868,64.333-64.354c33.265,0,60.321-27.055,60.321-60.301c0-17.549-7.655-33.225-19.625-44.238
	c11.97-11.033,19.625-26.709,19.625-44.238s-7.655-33.205-19.625-44.238C759.819,310.682,767.474,295.006,767.474,277.482z
	 M707.478,365.954c0.163-11.156,2.646-19.992,7.411-26.934c11.745,3.379,20.418,14.108,20.418,26.934
	c0,12.805-8.673,23.535-20.418,26.913C710.125,385.926,707.641,377.09,707.478,365.954z M707.478,277.482
	c0.163-11.136,2.646-19.981,7.411-26.923c11.745,3.379,20.418,14.108,20.418,26.923c0,12.821-8.673,23.55-20.418,26.929
	C710.125,297.449,707.641,288.613,707.478,277.482z M735.307,189.005c0,12.816-8.673,23.55-20.418,26.924
	c-4.765-6.942-7.248-15.783-7.411-26.924c0.163-11.136,2.646-19.981,7.411-26.923C726.634,165.461,735.307,176.19,735.307,189.005z
	 M326.21,193.026c8.407-15.549,26.079-32.171,43.139-32.171h16.083v32.171H326.21z M546.303,546.898
	c-17.773,0-32.188-14.414-32.188-32.167c0-17.771,14.414-32.165,32.188-32.165c17.751,0,32.165,14.394,32.165,32.165
	C578.468,532.484,564.054,546.898,546.303,546.898z M674.987,450.399h-257.39V321.716h32.187
	c78.156,0,128.684-44.203,128.684-112.597v-16.093H417.597V80.43h257.39V450.399z M714.889,481.345
	c-4.765-6.942-7.248-15.778-7.411-26.915c0.163-11.136,2.646-19.99,7.411-26.933c11.745,3.38,20.418,14.107,20.418,26.933
	C735.307,467.236,726.634,477.965,714.889,481.345z"/>
</svg>
