<?xml version="1.0" encoding="utf-8"?>
<!-- Generator: Adobe Illustrator 19.2.1, SVG Export Plug-In . SVG Version: 6.00 Build 0)  -->
<svg version="1.1" id="Layer_1" xmlns="http://www.w3.org/2000/svg" xmlns:xlink="http://www.w3.org/1999/xlink" x="0px" y="0px"
	 viewBox="0 0 825.8 1178.3" style="enable-background:new 0 0 825.8 1178.3;" xml:space="preserve">
<style type="text/css">
	.st0{display:none;}
	.st1{display:inline;}
</style>
<g id="Capa_1" class="st0">
	<g id="Capa_27" class="st1">
		<g>
			<path d="M437.3,927.1c-39.2,0-76.2-12.6-107.1-36.5c-2.1-1.6-3.4-3.9-3.7-6.5s0.4-5.1,2-7.2c1.6-2,3.9-3.4,6.5-3.7
				c2.6-0.3,5.1,0.4,7.2,2c8.8,6.8,18.4,12.7,28.5,17.5l2.3-62.1l-33.6-177c-0.4-2.3,0-4.6,1.3-6.5s3.3-3.2,5.5-3.6
				c4.7-0.9,9.2,2.2,10.1,6.9l23,121.8l124.3-3.6c1.7-0.1,3.5,0.6,4.9,1.9c1.4,1.3,2.3,3.2,2.4,5c0.1,1.9-0.6,3.7-1.9,5.1
				c-1.3,1.4-3.1,2.2-5,2.2l-17.9,0.5l7.1,113.9c6.5-2.5,12.6-5.3,18.3-8.3c4.7-2.6,10.6-0.8,13.2,3.9l0,0
				c2.6,4.7,0.8,10.6-3.9,13.2C495.3,919.7,466.5,927.1,437.3,927.1z M336.1,877.8c-0.2,0-0.4,0-0.6,0c-1.3,0.2-2.5,0.9-3.4,1.9
				c-0.8,1.1-1.2,2.4-1,3.7c0.2,1.3,0.9,2.5,1.9,3.4c30.1,23.3,66.2,35.6,104.3,35.6c28.4,0,56.5-7.1,81.3-20.6
				c2.4-1.3,3.4-4.4,2-6.9c-1.3-2.4-4.4-3.4-6.9-2c-6.7,3.6-14,6.9-21.8,9.7l-2.9,1.1l-7.8-124.9l22.7-0.7c0.7,0,1.3-0.3,1.7-0.8
				s0.7-1.1,0.7-1.7c0-0.6-0.3-1.3-0.8-1.7s-1.1-0.7-1.6-0.6l-128.3,3.8l-23.7-125.7c-0.4-2.2-2.5-3.6-4.7-3.2c-1,0.2-2,0.8-2.6,1.7
				s-0.8,1.9-0.6,3l33.5,177.4v0.3l-2.6,69.3l-3.1-1.4c-11.6-5.2-22.6-11.8-32.6-19.5C338.3,878.1,337.2,877.8,336.1,877.8z
				 M437.3,912.3c-18.1,0-35.9-3-52.9-8.9l-1.6-0.6l1.2-30.9l97.1-2.1l2.2,35.7l-1.8,0.5C466.9,910.2,452,912.3,437.3,912.3z
				 M387.6,899.5c28.8,9.7,60.3,10.8,90.8,2.5l-1.7-27.5l-88.2,1.9L387.6,899.5z M384.1,869.2l1.2-33.6l93.4-2.1l2.1,33.5
				L384.1,869.2z M389.8,840.2l-0.9,24.3l87-1.9l-1.5-24.2L389.8,840.2z M384.5,824.4l-8-42.5l17.5-0.5l6.8,42.7L384.5,824.4z"/>
			<polygon points="398.5,785.8 411,785.5 415.3,819 403.8,819.3 404.6,823.9 420.6,823.6 415.1,780.7 397.7,781.2 			"/>
			<polygon points="419.7,785.2 432.1,784.9 435.3,818.6 424,818.8 424.5,823.5 440.4,823.1 436.3,780.1 419.1,780.6 			"/>
			<polygon points="440.6,784.6 453.1,784.2 455.3,818.2 443.8,818.4 444.2,823 460.3,822.7 457.5,779.5 440.2,780 			"/>
			<polygon points="461.7,784 471,783.7 473.1,817.8 464,818 464.3,822.6 478,822.3 475.3,778.9 461.4,779.4 			"/>
		</g>
	</g>
</g>
<path d="M822.3,1049.1c-4.1-8.8-11.5-15.5-20.6-18.8c-9.2-3.3-19-2.8-27.8,1.3c-24.8,11.7-50,22.1-75.2,31.1l-22.2-319.9V590.7
	l58.7-1.4c9.7-0.2,18.8-4.2,25.5-11.3c6.7-7,10.3-16.3,10-26c-0.5-19.6-16.8-35.5-37.3-35.5c0,0,0,0,0,0L217.5,529L120.1,29.5
	c-1.9-9.6-7.3-17.8-15.4-23.2C96.7,0.8,87-1.2,77.4,0.7c-19.7,3.8-32.6,23-28.8,42.7l102.5,525.7c0.2,2.9,0.8,5.6,1.4,7.7
	l42.9,219.8l-12.3,248c-69.7-32.1-111.3-66.2-122.7-76.2c-7.3-6.4-16.7-9.6-26.4-9c-9.7,0.6-18.6,5-25,12.3
	c-13.2,15.1-11.7,38.2,3.4,51.4c52.7,46.2,154.4,106.2,281.5,135.7c55.2,12.8,111.5,19.3,167.3,19.3c114.3,0,229.9-27.1,343.7-80.7
	c8.8-4.1,15.5-11.5,18.8-20.6C826.9,1067.8,826.4,1057.9,822.3,1049.1z M391.9,732.4V597.6l60.6-1.5v133.1L391.9,732.4z
	 M525.4,725.5V594.4l78.1-1.9v129L525.4,725.5z M627.1,1084.5c-106,26.5-212.6,27.7-316.7,3.5c-18.6-4.3-37.4-9.5-55.7-15.5
	l4.5-90.5l361,2.1L627.1,1084.5z M258.5,739.3l-26.8-137.7l87.4-2.1v136.7L258.5,739.3z M262.8,909.1l4.8-97.4l339.3-17.5l8.1,117
	L262.8,909.1z"/>
</svg>
