<svg id="Layer_1" data-name="Layer 1" xmlns="http://www.w3.org/2000/svg" viewBox="0 0 135.75 146.9"><title>sm-stiratura</title><path d="M105.27,0h-55a6.59,6.59,0,1,0,0,13.17h55a17.33,17.33,0,0,1,17.31,17.31v3.19H53.15C21.86,33.67,0,58.18,0,93.27v6.45H135.75V30.48A30.51,30.51,0,0,0,105.27,0Zm17.58,86.82H13.23c2.11-20.94,14.7-40.24,39.92-40.24h69.7V86.82Z"/><path d="M67.88,115a6.59,6.59,0,0,0-6.59,6.59v18.72a6.59,6.59,0,0,0,13.17,0V121.59A6.59,6.59,0,0,0,67.88,115Z"/><path d="M95.12,117.8a6.59,6.59,0,1,0-10.77,7.58L97.51,144.1a6.59,6.59,0,0,0,10.77-7.58Z"/><path d="M49.81,116.2a6.58,6.58,0,0,0-9.18,1.6L27.47,136.53a6.59,6.59,0,1,0,10.77,7.58l13.17-18.72A6.59,6.59,0,0,0,49.81,116.2Z"/></svg>