<?xml version="1.0" encoding="utf-8"?>
<!-- Generator: Adobe Illustrator 17.0.0, SVG Export Plug-In . SVG Version: 6.00 Build 0)  -->
<!DOCTYPE svg PUBLIC "-//W3C//DTD SVG 1.1//EN" "http://www.w3.org/Graphics/SVG/1.1/DTD/svg11.dtd">
<svg version="1.1" id="Layer_1" xmlns="http://www.w3.org/2000/svg" xmlns:xlink="http://www.w3.org/1999/xlink" x="0px" y="0px"
	 width="188.796px" height="154.181px" viewBox="-43.763 -39.231 188.796 154.181"
	 enable-background="new -43.763 -39.231 188.796 154.181" xml:space="preserve">
<path d="M-43.762-36.297v7.871c0,0-0.131,2.211,2.93,2.211l29.635-0.056c3.057,0,2.928,2.926,2.928,2.926L-8.363,6.197
	c0,0-0.133,2.928,2.928,2.928l29.506,0.004c3.055,0,2.926,2.926,2.926,2.926l-0.094,29.41c0,0-0.131,2.928,2.928,2.928l29.637,0.004
	c3.055,0,2.926,2.924,2.926,2.924l0.04,29.41c0,0-0.133,2.926,2.928,2.926l29.373,0.006c3.057,0,2.928,2.926,2.928,2.926
	l0.037,29.408c0,0-0.131,2.928,2.928,2.928l0.035-0.01c0.035,0.002,0.06,0.01,0.098,0.012c0.052,0.004,0.094,0.023,0.15,0.023
	h41.288c0,0,2.836,0.133,2.836-2.934v-7.902c0,0,0.062-1.724-1.997-2.114l0.079-0.025h-0.267c-0.162-0.023-0.308-0.058-0.496-0.065
	c-0.052-0.004-0.094-0.023-0.15-0.023h-28.744c-2.853-0.125-2.749-2.907-2.749-2.907l0.062-29.348c0,0,0.133-2.928-2.926-2.928
	l-29.477-0.065c-3.057,0-2.928-2.928-2.928-2.928l0.065-29.348c0,0,0.131-2.926-2.928-2.926l-29.737-0.067
	c-3.057,0-2.928-2.928-2.928-2.928l0.062-29.348c0,0,0.133-2.928-2.928-2.928L7.575-3.9c-3.057,0-2.928-2.926-2.928-2.926
	l0.06-29.477c0,0,0.133-2.928-2.926-2.928h-42.62C-40.838-39.231-43.766-39.36-43.762-36.297z"/>
</svg>
