<?xml version="1.0" encoding="utf-8"?>
<!-- Generator: Adobe Illustrator 17.0.0, SVG Export Plug-In . SVG Version: 6.00 Build 0)  -->
<!DOCTYPE svg PUBLIC "-//W3C//DTD SVG 1.1//EN" "http://www.w3.org/Graphics/SVG/1.1/DTD/svg11.dtd">
<svg version="1.1" id="Layer_1" xmlns="http://www.w3.org/2000/svg" xmlns:xlink="http://www.w3.org/1999/xlink" x="0px" y="0px"
	 width="166.439px" height="235.118px" viewBox="-271.923 -48.445 166.439 235.118"
	 enable-background="new -271.923 -48.445 166.439 235.118" xml:space="preserve">
<path d="M-271.923,180.525V-42.296c0-3.382,2.768-6.149,6.149-6.149s6.149,2.768,6.149,6.149v222.819
	c0,3.382-2.768,6.149-6.149,6.149C-269.155,186.673-271.923,183.919-271.923,180.525z"/>
<path d="M-125.307,73.077V15.802c0-3.382,2.768-6.149,6.149-6.149c3.382,0,6.149,2.768,6.149,6.149v57.273
	c0,3.382-2.768,6.149-6.149,6.149C-122.54,79.224-125.307,76.47-125.307,73.077z"/>
<path d="M-149.387,73.077V15.802c0-3.382,2.768-6.149,6.149-6.149s6.149,2.768,6.149,6.149v57.273c0,3.382-2.768,6.149-6.149,6.149
	C-146.619,79.224-149.387,76.47-149.387,73.077z"/>
<path d="M-173.466,73.077V15.802c0-3.382,2.768-6.149,6.149-6.149c3.382,0,6.149,2.768,6.149,6.149v57.273
	c0,3.382-2.768,6.149-6.149,6.149C-170.699,79.224-173.466,76.47-173.466,73.077z"/>
<path d="M-197.546,73.077V15.802c0-3.382,2.768-6.149,6.149-6.149s6.149,2.768,6.149,6.149v57.273c0,3.382-2.768,6.149-6.149,6.149
	C-194.778,79.224-197.546,76.47-197.546,73.077z"/>
<path d="M-221.625,73.077V15.802c0-3.382,2.768-6.149,6.149-6.149c3.382,0,6.149,2.768,6.149,6.149v57.273
	c0,3.382-2.768,6.149-6.149,6.149C-218.858,79.224-221.625,76.47-221.625,73.077z"/>
<path d="M-245.705,73.077V15.802c0-3.382,2.768-6.149,6.149-6.149s6.149,2.768,6.149,6.149v57.273c0,3.382-2.768,6.149-6.149,6.149
	C-242.937,79.224-245.705,76.47-245.705,73.077z"/>
<rect x="-259.624" y="83.739" width="154.14" height="22.999"/>
<rect x="-252.469" y="5.983" width="146.985" height="9.273"/>
</svg>
