<?xml version="1.0" encoding="utf-8"?>
<svg width="51.91297912597656" height="176.76400756835938" viewBox="79.351 45.862 51.913 176.764" xmlns="http://www.w3.org/2000/svg">
  <path d="M117.044,45.862l-0.007,19.212l-11.754,6.772l-11.735-6.798l0.007-19.171&#10;&#9;c-8.396,4.296-14.204,12.935-14.204,23.017c0,10.041,5.764,18.64,14.101,22.961l-0.129,118.921&#10;&#9;c-0.015,6.536,5.27,11.835,11.809,11.85c6.536,0,11.835-5.285,11.835-11.82l0.133-118.917c8.377-4.307,14.164-12.931,14.164-22.998&#10;&#9;C131.263,58.807,125.451,50.157,117.044,45.862z" transform="matrix(1, 0, 0, 1, 0, 0)"/>
</svg>