<?xml version="1.0" encoding="utf-8"?>
<svg width="131.15301513671875" height="147.9449920654297" viewBox="39.835 60.559 131.153 147.945" xmlns="http://www.w3.org/2000/svg">
  <g transform="matrix(1, 0, 0, 1, 0, 0)">
    <ellipse cx="150.113" cy="81.435" rx="4.084" ry="4.084" />
    <path d="M165.089,67.367l-0.908-0.908c-3.631-3.631-8.623-5.9-14.068-5.446c-5.446,0.454-9.984,2.723-13.615,6.807&#10;&#9;&#9;c-14.522,17.699-38.121,46.289-38.575,46.743l-2.269,3.177l6.353,6.353l-8.169,8.169l-1.815,16.791l-5.446,5.446l0,0&#10;&#9;&#9;c-3.177-3.177-8.169-4.992-12.707-4.084c-4.538,0.454-8.623,3.631-10.892,7.715L41.65,196.705&#10;&#9;&#9;c-1.815,3.177-1.361,7.261,1.361,9.984c0.908,0.908,2.723,1.815,4.992,1.815c1.361,0,2.723-0.454,4.084-0.908l38.575-21.329&#10;&#9;&#9;c4.084-2.269,6.807-6.353,7.715-10.892c0.454-4.538-0.908-9.53-4.084-12.707l-2.269-2.269l7.715-7.715l1.815-16.791l6.353-6.353&#10;&#9;&#9;l5.446,5.446l49.92-39.936c4.084-3.177,6.807-8.169,6.807-13.615C170.988,76.443,168.719,71.451,165.089,67.367z M161.912,81.435&#10;&#9;&#9;c0,2.723-1.361,5.446-3.631,7.261l-44.02,35.398L107,116.833c6.353-7.715,24.506-29.498,36.305-43.567&#10;&#9;&#9;c1.815-2.269,4.538-3.631,7.261-3.631c2.723,0,5.9,0.908,7.715,3.177l0.908,0.908C161.004,75.535,162.366,78.258,161.912,81.435z" />
  </g>
</svg>