<?xml version="1.0" encoding="utf-8"?>
<svg width="112.42100524902344" height="128.4149932861328" viewBox="48.596 70.037 112.421 128.415" xmlns="http://www.w3.org/2000/svg">
  <g transform="matrix(1, 0, 0, 1, 0, 0)">
    <g>
      <path d="M150.745,70.037v19.787c0-0.232-1.068-0.525-1.578-0.525h-0.187c-1.597,0-3.371,1.445-3.371,3.042v5.955&#10;&#9;&#9;&#9;l-36.834,1.183c-0.437-0.199-0.776-0.372-1.269-0.485l-15.698-3.615c-3.164-0.726-6.168,0.727-6.746,3.242l-9.216,40.246&#10;&#9;&#9;&#9;c-0.044,0.073-0.094,0.132-0.135,0.208l-25.24,45.694c-1.875,3.397-0.641,7.673,2.756,9.55c3.398,1.879,7.674,0.645,9.551-2.753&#10;&#9;&#9;&#9;l24.56-44.46l0.998,0.23l5.442,18.899c0.027,0.096,0.294,0.181,0.329,0.274c-0.045,0.268,0.136,0.543,0.136,0.822v24.094&#10;&#9;&#9;&#9;c0,3.879,3.926,7.027,7.063,7.027c3.138,0,7.063-3.146,7.063-7.027v-24.094c0-1.35-0.336-2.605-1.151-3.675&#10;&#9;&#9;&#9;c0.018-0.439,0.089-0.877-0.033-1.309l-4.534-15.915c0.073-0.182,0.181-0.357,0.227-0.553l7.629-33.213l36.485-1.165&#10;&#9;&#9;&#9;c0.162-0.005,0.32,0.231,0.476,0.194c0.44,0.271,0.955,0.719,1.511,0.719h0.187c0.51,0.001,1.578-0.71,1.578-0.943v86.981h10.273&#10;&#9;&#9;&#9;V70.037H150.745z" />
      <ellipse cx="103.532" cy="85.834" rx="10.54" ry="10.54" />
    </g>
  </g>
</svg>