<?xml version="1.0" encoding="utf-8"?>
<svg width="149.43099975585938" height="85.54200744628906" viewBox="30.725 91.958 149.431 85.542" xmlns="http://www.w3.org/2000/svg">
  <path d="M36.977,165.302h7.776c1.982,6.862,8.386,12.198,16.163,12.198s14.181-5.032,16.163-12.198h19.365h10.369&#10;&#9;c1.982,6.862,8.386,12.198,16.163,12.198s14.181-5.032,16.163-12.198h8.996c3.355,0,6.252-2.745,6.252-6.252v-7.929&#10;&#9;c0-2.897-1.982-5.337-4.727-6.099v-8.996h-15.4c-4.879,0-8.844-3.964-8.844-8.844v-13.571c0-4.879,3.964-8.844,8.844-8.844h15.248&#10;&#9;v-1.83c0-6.099-4.879-10.979-10.979-10.979H96.292H84.246c-3.66,0-6.862,1.83-8.996,4.574c-0.152,0.152-0.305,0.457-0.457,0.61&#10;&#9;l-12.961,19.517l-14.638,1.22c-6.099,0-10.979,4.879-10.979,10.979v16.01c-3.05,0.305-5.489,3.05-5.489,6.252v7.929&#10;&#9;C30.725,162.405,33.47,165.302,36.977,165.302z M122.976,152.036c4.574,0,8.386,3.812,8.386,8.386c0,4.574-3.66,8.386-8.386,8.386&#10;&#9;s-8.386-3.812-8.386-8.386C114.589,156.001,118.249,152.036,122.976,152.036z M60.916,152.036c4.574,0,8.386,3.812,8.386,8.386&#10;&#9;c0,4.574-3.66,8.386-8.386,8.386c-4.574,0-8.386-3.812-8.386-8.386C52.377,156.001,56.189,152.036,60.916,152.036z M179.088,121.998&#10;&#9;l-16.925,13.418c-1.372,1.067-3.355,0.152-3.355-1.677v-5.184h-24.397c-0.762,0-1.372-0.61-1.372-1.372v-13.571&#10;&#9;c0-0.762,0.61-1.372,1.372-1.372h24.397v-5.337c0-1.677,1.982-2.745,3.355-1.677l16.925,13.418&#10;&#9;C180.156,119.558,180.156,121.235,179.088,121.998z" transform="matrix(1, 0, 0, 1, 0, 0)"/>
</svg>